<svg xmlns="http://www.w3.org/2000/svg" xmlns:xlink="http://www.w3.org/1999/xlink" contentStyleType="text/css" data-diagram-type="CLASS" height="278px" preserveAspectRatio="none" style="width:574px;height:278px;background:#FFFFFF;" version="1.1" viewBox="0 0 574 278" width="574px" zoomAndPan="magnify"><defs/><g><!--class Expression--><g class="entity" data-entity="Expression" data-source-line="2" data-uid="ent0002" id="entity_Expression"><rect fill="#F1F1F1" height="48" rx="2.5" ry="2.5" style="stroke:#181818;stroke-width:0.5;" width="101.2549" x="205.5" y="7"/><ellipse cx="220.5" cy="23" fill="#ADD1B2" rx="11" ry="11" style="stroke:#181818;stroke-width:1;"/><path d="M223.2656,18.875 Q223.4219,18.6563 223.6094,18.5469 Q223.7969,18.4375 224.0156,18.4375 Q224.3906,18.4375 224.625,18.6953 Q224.8594,18.9531 224.8594,19.5625 L224.8594,21.0156 Q224.8594,21.625 224.625,21.8906 Q224.3906,22.1563 224.0156,22.1563 Q223.6719,22.1563 223.4688,21.9531 Q223.2656,21.7656 223.1563,21.25 Q223.1094,20.8906 222.9219,20.7031 Q222.5938,20.3281 221.9844,20.1094 Q221.375,19.8906 220.75,19.8906 Q219.9844,19.8906 219.3516,20.2188 Q218.7188,20.5469 218.2266,21.2969 Q217.7344,22.0469 217.7344,23.0781 L217.7344,24.1719 Q217.7344,25.4063 218.625,26.2266 Q219.5156,27.0469 221.1094,27.0469 Q222.0469,27.0469 222.7031,26.7969 Q223.0938,26.6406 223.5156,26.2031 Q223.7813,25.9375 223.9297,25.8594 Q224.0781,25.7813 224.2813,25.7813 Q224.6094,25.7813 224.8672,26.0391 Q225.125,26.2969 225.125,26.6406 Q225.125,26.9844 224.7813,27.3906 Q224.2813,27.9688 223.4844,28.2969 Q222.4063,28.75 221.1094,28.75 Q219.5938,28.75 218.3906,28.125 Q217.4063,27.625 216.7188,26.5547 Q216.0313,25.4844 216.0313,24.2031 L216.0313,23.0469 Q216.0313,21.7188 216.6484,20.5703 Q217.2656,19.4219 218.3594,18.8047 Q219.4531,18.1875 220.6875,18.1875 Q221.4219,18.1875 222.0703,18.3516 Q222.7188,18.5156 223.2656,18.875 Z " fill="#000000"/><text fill="#000000" font-family="sans-serif" font-size="14" lengthAdjust="spacing" textLength="69.2549" x="234.5" y="28.7285">Expression</text><line style="stroke:#181818;stroke-width:0.5;" x1="206.5" x2="305.7549" y1="39" y2="39"/><line style="stroke:#181818;stroke-width:0.5;" x1="206.5" x2="305.7549" y1="47" y2="47"/></g><!--class UnaryExpr--><g class="entity" data-entity="UnaryExpr" data-source-line="2" data-uid="ent0003" id="entity_UnaryExpr"><rect fill="#F1F1F1" height="48" rx="2.5" ry="2.5" style="stroke:#181818;stroke-width:0.5;" width="98.1309" x="7" y="115"/><ellipse cx="22" cy="131" fill="#ADD1B2" rx="11" ry="11" style="stroke:#181818;stroke-width:1;"/><path d="M24.7656,126.875 Q24.9219,126.6563 25.1094,126.5469 Q25.2969,126.4375 25.5156,126.4375 Q25.8906,126.4375 26.125,126.6953 Q26.3594,126.9531 26.3594,127.5625 L26.3594,129.0156 Q26.3594,129.625 26.125,129.8906 Q25.8906,130.1563 25.5156,130.1563 Q25.1719,130.1563 24.9688,129.9531 Q24.7656,129.7656 24.6563,129.25 Q24.6094,128.8906 24.4219,128.7031 Q24.0938,128.3281 23.4844,128.1094 Q22.875,127.8906 22.25,127.8906 Q21.4844,127.8906 20.8516,128.2188 Q20.2188,128.5469 19.7266,129.2969 Q19.2344,130.0469 19.2344,131.0781 L19.2344,132.1719 Q19.2344,133.4063 20.125,134.2266 Q21.0156,135.0469 22.6094,135.0469 Q23.5469,135.0469 24.2031,134.7969 Q24.5938,134.6406 25.0156,134.2031 Q25.2813,133.9375 25.4297,133.8594 Q25.5781,133.7813 25.7813,133.7813 Q26.1094,133.7813 26.3672,134.0391 Q26.625,134.2969 26.625,134.6406 Q26.625,134.9844 26.2813,135.3906 Q25.7813,135.9688 24.9844,136.2969 Q23.9063,136.75 22.6094,136.75 Q21.0938,136.75 19.8906,136.125 Q18.9063,135.625 18.2188,134.5547 Q17.5313,133.4844 17.5313,132.2031 L17.5313,131.0469 Q17.5313,129.7188 18.1484,128.5703 Q18.7656,127.4219 19.8594,126.8047 Q20.9531,126.1875 22.1875,126.1875 Q22.9219,126.1875 23.5703,126.3516 Q24.2188,126.5156 24.7656,126.875 Z " fill="#000000"/><text fill="#000000" font-family="sans-serif" font-size="14" lengthAdjust="spacing" textLength="66.1309" x="36" y="136.7285">UnaryExpr</text><line style="stroke:#181818;stroke-width:0.5;" x1="8" x2="104.1309" y1="147" y2="147"/><line style="stroke:#181818;stroke-width:0.5;" x1="8" x2="104.1309" y1="155" y2="155"/></g><!--class BinaryExpr--><g class="entity" data-entity="BinaryExpr" data-source-line="3" data-uid="ent0005" id="entity_BinaryExpr"><rect fill="#F1F1F1" height="48" rx="2.5" ry="2.5" style="stroke:#181818;stroke-width:0.5;" width="100.4688" x="143" y="115"/><ellipse cx="158" cy="131" fill="#ADD1B2" rx="11" ry="11" style="stroke:#181818;stroke-width:1;"/><path d="M160.7656,126.875 Q160.9219,126.6563 161.1094,126.5469 Q161.2969,126.4375 161.5156,126.4375 Q161.8906,126.4375 162.125,126.6953 Q162.3594,126.9531 162.3594,127.5625 L162.3594,129.0156 Q162.3594,129.625 162.125,129.8906 Q161.8906,130.1563 161.5156,130.1563 Q161.1719,130.1563 160.9688,129.9531 Q160.7656,129.7656 160.6563,129.25 Q160.6094,128.8906 160.4219,128.7031 Q160.0938,128.3281 159.4844,128.1094 Q158.875,127.8906 158.25,127.8906 Q157.4844,127.8906 156.8516,128.2188 Q156.2188,128.5469 155.7266,129.2969 Q155.2344,130.0469 155.2344,131.0781 L155.2344,132.1719 Q155.2344,133.4063 156.125,134.2266 Q157.0156,135.0469 158.6094,135.0469 Q159.5469,135.0469 160.2031,134.7969 Q160.5938,134.6406 161.0156,134.2031 Q161.2813,133.9375 161.4297,133.8594 Q161.5781,133.7813 161.7813,133.7813 Q162.1094,133.7813 162.3672,134.0391 Q162.625,134.2969 162.625,134.6406 Q162.625,134.9844 162.2813,135.3906 Q161.7813,135.9688 160.9844,136.2969 Q159.9063,136.75 158.6094,136.75 Q157.0938,136.75 155.8906,136.125 Q154.9063,135.625 154.2188,134.5547 Q153.5313,133.4844 153.5313,132.2031 L153.5313,131.0469 Q153.5313,129.7188 154.1484,128.5703 Q154.7656,127.4219 155.8594,126.8047 Q156.9531,126.1875 158.1875,126.1875 Q158.9219,126.1875 159.5703,126.3516 Q160.2188,126.5156 160.7656,126.875 Z " fill="#000000"/><text fill="#000000" font-family="sans-serif" font-size="14" lengthAdjust="spacing" textLength="68.4688" x="172" y="136.7285">BinaryExpr</text><line style="stroke:#181818;stroke-width:0.5;" x1="144" x2="242.4688" y1="147" y2="147"/><line style="stroke:#181818;stroke-width:0.5;" x1="144" x2="242.4688" y1="155" y2="155"/></g><!--class NumericCast--><g class="entity" data-entity="NumericCast" data-source-line="4" data-uid="ent0007" id="entity_NumericCast"><rect fill="#F1F1F1" height="48" rx="2.5" ry="2.5" style="stroke:#181818;stroke-width:0.5;" width="112.9033" x="278.5" y="115"/><ellipse cx="293.5" cy="131" fill="#ADD1B2" rx="11" ry="11" style="stroke:#181818;stroke-width:1;"/><path d="M296.2656,126.875 Q296.4219,126.6563 296.6094,126.5469 Q296.7969,126.4375 297.0156,126.4375 Q297.3906,126.4375 297.625,126.6953 Q297.8594,126.9531 297.8594,127.5625 L297.8594,129.0156 Q297.8594,129.625 297.625,129.8906 Q297.3906,130.1563 297.0156,130.1563 Q296.6719,130.1563 296.4688,129.9531 Q296.2656,129.7656 296.1563,129.25 Q296.1094,128.8906 295.9219,128.7031 Q295.5938,128.3281 294.9844,128.1094 Q294.375,127.8906 293.75,127.8906 Q292.9844,127.8906 292.3516,128.2188 Q291.7188,128.5469 291.2266,129.2969 Q290.7344,130.0469 290.7344,131.0781 L290.7344,132.1719 Q290.7344,133.4063 291.625,134.2266 Q292.5156,135.0469 294.1094,135.0469 Q295.0469,135.0469 295.7031,134.7969 Q296.0938,134.6406 296.5156,134.2031 Q296.7813,133.9375 296.9297,133.8594 Q297.0781,133.7813 297.2813,133.7813 Q297.6094,133.7813 297.8672,134.0391 Q298.125,134.2969 298.125,134.6406 Q298.125,134.9844 297.7813,135.3906 Q297.2813,135.9688 296.4844,136.2969 Q295.4063,136.75 294.1094,136.75 Q292.5938,136.75 291.3906,136.125 Q290.4063,135.625 289.7188,134.5547 Q289.0313,133.4844 289.0313,132.2031 L289.0313,131.0469 Q289.0313,129.7188 289.6484,128.5703 Q290.2656,127.4219 291.3594,126.8047 Q292.4531,126.1875 293.6875,126.1875 Q294.4219,126.1875 295.0703,126.3516 Q295.7188,126.5156 296.2656,126.875 Z " fill="#000000"/><text fill="#000000" font-family="sans-serif" font-size="14" lengthAdjust="spacing" textLength="80.9033" x="307.5" y="136.7285">NumericCast</text><line style="stroke:#181818;stroke-width:0.5;" x1="279.5" x2="390.4033" y1="147" y2="147"/><line style="stroke:#181818;stroke-width:0.5;" x1="279.5" x2="390.4033" y1="155" y2="155"/></g><!--class PreExpr--><g class="entity" data-entity="PreExpr" data-source-line="5" data-uid="ent0009" id="entity_PreExpr"><rect fill="#F1F1F1" height="48" rx="2.5" ry="2.5" style="stroke:#181818;stroke-width:0.5;" width="82.5723" x="10.5" y="223"/><ellipse cx="25.5" cy="239" fill="#ADD1B2" rx="11" ry="11" style="stroke:#181818;stroke-width:1;"/><path d="M28.2656,234.875 Q28.4219,234.6563 28.6094,234.5469 Q28.7969,234.4375 29.0156,234.4375 Q29.3906,234.4375 29.625,234.6953 Q29.8594,234.9531 29.8594,235.5625 L29.8594,237.0156 Q29.8594,237.625 29.625,237.8906 Q29.3906,238.1563 29.0156,238.1563 Q28.6719,238.1563 28.4688,237.9531 Q28.2656,237.7656 28.1563,237.25 Q28.1094,236.8906 27.9219,236.7031 Q27.5938,236.3281 26.9844,236.1094 Q26.375,235.8906 25.75,235.8906 Q24.9844,235.8906 24.3516,236.2188 Q23.7188,236.5469 23.2266,237.2969 Q22.7344,238.0469 22.7344,239.0781 L22.7344,240.1719 Q22.7344,241.4063 23.625,242.2266 Q24.5156,243.0469 26.1094,243.0469 Q27.0469,243.0469 27.7031,242.7969 Q28.0938,242.6406 28.5156,242.2031 Q28.7813,241.9375 28.9297,241.8594 Q29.0781,241.7813 29.2813,241.7813 Q29.6094,241.7813 29.8672,242.0391 Q30.125,242.2969 30.125,242.6406 Q30.125,242.9844 29.7813,243.3906 Q29.2813,243.9688 28.4844,244.2969 Q27.4063,244.75 26.1094,244.75 Q24.5938,244.75 23.3906,244.125 Q22.4063,243.625 21.7188,242.5547 Q21.0313,241.4844 21.0313,240.2031 L21.0313,239.0469 Q21.0313,237.7188 21.6484,236.5703 Q22.2656,235.4219 23.3594,234.8047 Q24.4531,234.1875 25.6875,234.1875 Q26.4219,234.1875 27.0703,234.3516 Q27.7188,234.5156 28.2656,234.875 Z " fill="#000000"/><text fill="#000000" font-family="sans-serif" font-size="14" lengthAdjust="spacing" textLength="50.5723" x="39.5" y="244.7285">PreExpr</text><line style="stroke:#181818;stroke-width:0.5;" x1="11.5" x2="92.0723" y1="255" y2="255"/><line style="stroke:#181818;stroke-width:0.5;" x1="11.5" x2="92.0723" y1="263" y2="263"/></g><!--class InitialValueExpr--><g class="entity" data-entity="InitialValueExpr" data-source-line="6" data-uid="ent0011" id="entity_InitialValueExpr"><rect fill="#F1F1F1" height="48" rx="2.5" ry="2.5" style="stroke:#181818;stroke-width:0.5;" width="129.2754" x="128.5" y="223"/><ellipse cx="143.5" cy="239" fill="#ADD1B2" rx="11" ry="11" style="stroke:#181818;stroke-width:1;"/><path d="M146.2656,234.875 Q146.4219,234.6563 146.6094,234.5469 Q146.7969,234.4375 147.0156,234.4375 Q147.3906,234.4375 147.625,234.6953 Q147.8594,234.9531 147.8594,235.5625 L147.8594,237.0156 Q147.8594,237.625 147.625,237.8906 Q147.3906,238.1563 147.0156,238.1563 Q146.6719,238.1563 146.4688,237.9531 Q146.2656,237.7656 146.1563,237.25 Q146.1094,236.8906 145.9219,236.7031 Q145.5938,236.3281 144.9844,236.1094 Q144.375,235.8906 143.75,235.8906 Q142.9844,235.8906 142.3516,236.2188 Q141.7188,236.5469 141.2266,237.2969 Q140.7344,238.0469 140.7344,239.0781 L140.7344,240.1719 Q140.7344,241.4063 141.625,242.2266 Q142.5156,243.0469 144.1094,243.0469 Q145.0469,243.0469 145.7031,242.7969 Q146.0938,242.6406 146.5156,242.2031 Q146.7813,241.9375 146.9297,241.8594 Q147.0781,241.7813 147.2813,241.7813 Q147.6094,241.7813 147.8672,242.0391 Q148.125,242.2969 148.125,242.6406 Q148.125,242.9844 147.7813,243.3906 Q147.2813,243.9688 146.4844,244.2969 Q145.4063,244.75 144.1094,244.75 Q142.5938,244.75 141.3906,244.125 Q140.4063,243.625 139.7188,242.5547 Q139.0313,241.4844 139.0313,240.2031 L139.0313,239.0469 Q139.0313,237.7188 139.6484,236.5703 Q140.2656,235.4219 141.3594,234.8047 Q142.4531,234.1875 143.6875,234.1875 Q144.4219,234.1875 145.0703,234.3516 Q145.7188,234.5156 146.2656,234.875 Z " fill="#000000"/><text fill="#000000" font-family="sans-serif" font-size="14" lengthAdjust="spacing" textLength="97.2754" x="157.5" y="244.7285">InitialValueExpr</text><line style="stroke:#181818;stroke-width:0.5;" x1="129.5" x2="256.7754" y1="255" y2="255"/><line style="stroke:#181818;stroke-width:0.5;" x1="129.5" x2="256.7754" y1="263" y2="263"/></g><!--class PreWithInitialValueExpr--><g class="entity" data-entity="PreWithInitialValueExpr" data-source-line="7" data-uid="ent0013" id="entity_PreWithInitialValueExpr"><rect fill="#F1F1F1" height="48" rx="2.5" ry="2.5" style="stroke:#181818;stroke-width:0.5;" width="179.0615" x="292.5" y="223"/><ellipse cx="307.5" cy="239" fill="#ADD1B2" rx="11" ry="11" style="stroke:#181818;stroke-width:1;"/><path d="M310.2656,234.875 Q310.4219,234.6563 310.6094,234.5469 Q310.7969,234.4375 311.0156,234.4375 Q311.3906,234.4375 311.625,234.6953 Q311.8594,234.9531 311.8594,235.5625 L311.8594,237.0156 Q311.8594,237.625 311.625,237.8906 Q311.3906,238.1563 311.0156,238.1563 Q310.6719,238.1563 310.4688,237.9531 Q310.2656,237.7656 310.1563,237.25 Q310.1094,236.8906 309.9219,236.7031 Q309.5938,236.3281 308.9844,236.1094 Q308.375,235.8906 307.75,235.8906 Q306.9844,235.8906 306.3516,236.2188 Q305.7188,236.5469 305.2266,237.2969 Q304.7344,238.0469 304.7344,239.0781 L304.7344,240.1719 Q304.7344,241.4063 305.625,242.2266 Q306.5156,243.0469 308.1094,243.0469 Q309.0469,243.0469 309.7031,242.7969 Q310.0938,242.6406 310.5156,242.2031 Q310.7813,241.9375 310.9297,241.8594 Q311.0781,241.7813 311.2813,241.7813 Q311.6094,241.7813 311.8672,242.0391 Q312.125,242.2969 312.125,242.6406 Q312.125,242.9844 311.7813,243.3906 Q311.2813,243.9688 310.4844,244.2969 Q309.4063,244.75 308.1094,244.75 Q306.5938,244.75 305.3906,244.125 Q304.4063,243.625 303.7188,242.5547 Q303.0313,241.4844 303.0313,240.2031 L303.0313,239.0469 Q303.0313,237.7188 303.6484,236.5703 Q304.2656,235.4219 305.3594,234.8047 Q306.4531,234.1875 307.6875,234.1875 Q308.4219,234.1875 309.0703,234.3516 Q309.7188,234.5156 310.2656,234.875 Z " fill="#000000"/><text fill="#000000" font-family="sans-serif" font-size="14" lengthAdjust="spacing" textLength="147.0615" x="321.5" y="244.7285">PreWithInitialValueExpr</text><line style="stroke:#181818;stroke-width:0.5;" x1="293.5" x2="470.5615" y1="255" y2="255"/><line style="stroke:#181818;stroke-width:0.5;" x1="293.5" x2="470.5615" y1="263" y2="263"/></g><!--class NAryOperator--><g class="entity" data-entity="NAryOperator" data-source-line="8" data-uid="ent0015" id="entity_NAryOperator"><rect fill="#F1F1F1" height="48" rx="2.5" ry="2.5" style="stroke:#181818;stroke-width:0.5;" width="118.3584" x="427" y="115"/><ellipse cx="442" cy="131" fill="#ADD1B2" rx="11" ry="11" style="stroke:#181818;stroke-width:1;"/><path d="M444.7656,126.875 Q444.9219,126.6563 445.1094,126.5469 Q445.2969,126.4375 445.5156,126.4375 Q445.8906,126.4375 446.125,126.6953 Q446.3594,126.9531 446.3594,127.5625 L446.3594,129.0156 Q446.3594,129.625 446.125,129.8906 Q445.8906,130.1563 445.5156,130.1563 Q445.1719,130.1563 444.9688,129.9531 Q444.7656,129.7656 444.6563,129.25 Q444.6094,128.8906 444.4219,128.7031 Q444.0938,128.3281 443.4844,128.1094 Q442.875,127.8906 442.25,127.8906 Q441.4844,127.8906 440.8516,128.2188 Q440.2188,128.5469 439.7266,129.2969 Q439.2344,130.0469 439.2344,131.0781 L439.2344,132.1719 Q439.2344,133.4063 440.125,134.2266 Q441.0156,135.0469 442.6094,135.0469 Q443.5469,135.0469 444.2031,134.7969 Q444.5938,134.6406 445.0156,134.2031 Q445.2813,133.9375 445.4297,133.8594 Q445.5781,133.7813 445.7813,133.7813 Q446.1094,133.7813 446.3672,134.0391 Q446.625,134.2969 446.625,134.6406 Q446.625,134.9844 446.2813,135.3906 Q445.7813,135.9688 444.9844,136.2969 Q443.9063,136.75 442.6094,136.75 Q441.0938,136.75 439.8906,136.125 Q438.9063,135.625 438.2188,134.5547 Q437.5313,133.4844 437.5313,132.2031 L437.5313,131.0469 Q437.5313,129.7188 438.1484,128.5703 Q438.7656,127.4219 439.8594,126.8047 Q440.9531,126.1875 442.1875,126.1875 Q442.9219,126.1875 443.5703,126.3516 Q444.2188,126.5156 444.7656,126.875 Z " fill="#000000"/><text fill="#000000" font-family="sans-serif" font-size="14" lengthAdjust="spacing" textLength="86.3584" x="456" y="136.7285">NAryOperator</text><line style="stroke:#181818;stroke-width:0.5;" x1="428" x2="544.3584" y1="147" y2="147"/><line style="stroke:#181818;stroke-width:0.5;" x1="428" x2="544.3584" y1="155" y2="155"/></g><g class="entity" data-entity="GMN17" data-source-line="9" data-uid="ent0018" id="entity_GMN17"><path d="M404.5,18 L404.5,44.3516 A0,0 0 0 0 404.5,44.3516 L482,44.3516 L486,114.83 L490,44.3516 L567.8525,44.3516 A0,0 0 0 0 567.8525,44.3516 L567.8525,28 L557.8525,18 L404.5,18 A0,0 0 0 0 404.5,18" fill="#FEFFDD" style="stroke:#181818;stroke-width:0.5;"/><path d="M557.8525,18 L557.8525,28 L567.8525,28 L557.8525,18" fill="#FEFFDD" style="stroke:#181818;stroke-width:0.5;"/><text fill="#000000" font-family="sans-serif" font-size="13" lengthAdjust="spacing" textLength="23.1309" x="410.5" y="36.4951">See</text><a href="api/language/expressions/instance.html#ansys.scadeone.core.swan.OperatorExpression" target="_top" title="api/language/expressions/instance.html#ansys.scadeone.core.swan.OperatorExpression" xlink:actuate="onRequest" xlink:href="api/language/expressions/instance.html#ansys.scadeone.core.swan.OperatorExpression" xlink:show="new" xlink:title="api/language/expressions/instance.html#ansys.scadeone.core.swan.OperatorExpression" xlink:type="simple"><text fill="#0000FF" font-family="sans-serif" font-size="13" lengthAdjust="spacing" text-decoration="underline" textLength="115.6099" x="437.2427" y="36.4951">OperatorExpression</text></a></g><!--reverse link Expression to UnaryExpr--><g class="link" data-entity-1="Expression" data-entity-2="UnaryExpr" data-source-line="2" data-uid="lnk4" id="link_Expression_UnaryExpr"><path codeLine="2" d="M196.6961,63.4301 C163.2661,81.1501 133.15,97.11 99.66,114.86" fill="none" id="Expression-backto-UnaryExpr" style="stroke:#181818;stroke-width:1;"/><polygon fill="none" points="212.6,55,193.8861,58.1288,199.5061,68.7314,212.6,55" style="stroke:#181818;stroke-width:1;"/></g><!--reverse link Expression to BinaryExpr--><g class="link" data-entity-1="Expression" data-entity-2="BinaryExpr" data-source-line="3" data-uid="lnk6" id="link_Expression_BinaryExpr"><path codeLine="3" d="M233.1375,70.4757 C222.6475,88.1357 217.4,96.94 206.86,114.68" fill="none" id="Expression-backto-BinaryExpr" style="stroke:#181818;stroke-width:1;"/><polygon fill="none" points="242.33,55,227.9789,67.4115,238.296,73.5399,242.33,55" style="stroke:#181818;stroke-width:1;"/></g><!--reverse link Expression to NumericCast--><g class="link" data-entity-1="Expression" data-entity-2="NumericCast" data-source-line="4" data-uid="lnk8" id="link_Expression_NumericCast"><path codeLine="4" d="M283.8955,69.4333 C297.0555,87.0933 304.4,96.94 317.62,114.68" fill="none" id="Expression-backto-NumericCast" style="stroke:#181818;stroke-width:1;"/><polygon fill="none" points="273.14,55,279.0844,73.0184,288.7066,65.8481,273.14,55" style="stroke:#181818;stroke-width:1;"/></g><!--reverse link UnaryExpr to PreExpr--><g class="link" data-entity-1="UnaryExpr" data-entity-2="PreExpr" data-source-line="5" data-uid="lnk10" id="link_UnaryExpr_PreExpr"><path codeLine="5" d="M54.4578,180.9874 C53.7978,198.6474 53.55,204.94 52.88,222.68" fill="none" id="UnaryExpr-backto-PreExpr" style="stroke:#181818;stroke-width:1;"/><polygon fill="none" points="55.13,163,48.4619,180.7634,60.4536,181.2115,55.13,163" style="stroke:#181818;stroke-width:1;"/></g><!--reverse link BinaryExpr to InitialValueExpr--><g class="link" data-entity-1="BinaryExpr" data-entity-2="InitialValueExpr" data-source-line="6" data-uid="lnk12" id="link_BinaryExpr_InitialValueExpr"><path codeLine="6" d="M193,181 C193,198.66 193,204.94 193,222.68" fill="none" id="BinaryExpr-backto-InitialValueExpr" style="stroke:#181818;stroke-width:1;"/><polygon fill="none" points="193,163,187,181,199,181,193,163" style="stroke:#181818;stroke-width:1;"/></g><!--reverse link BinaryExpr to PreWithInitialValueExpr--><g class="link" data-entity-1="BinaryExpr" data-entity-2="PreWithInitialValueExpr" data-source-line="7" data-uid="lnk14" id="link_BinaryExpr_PreWithInitialValueExpr"><path codeLine="7" d="M249.7088,171.8061 C281.2988,189.5261 309.09,205.11 340.74,222.86" fill="none" id="BinaryExpr-backto-PreWithInitialValueExpr" style="stroke:#181818;stroke-width:1;"/><polygon fill="none" points="234.01,163,246.7735,177.039,252.6442,166.5731,234.01,163" style="stroke:#181818;stroke-width:1;"/></g><!--link Expression to NAryOperator--><!--SRC=[VOuz2y9038PtVyM1WrElkxXKSN1HGTIXT0ZNO0DjhbnIjE2FjrgiWXyPyxnvyavC4aYB2fNSo7IplDG1HSYpcLsZoEmPGdjVVgLp-elNJOM1t0947toGzNWRS3XzcNgsObA2yW1byplK2OvT-w_PjovHMb2U8sTvLoa9xQR60Ehx77j5exwUcXsYILEeAIw1JmsSCCP18Z6nAB13MsXLZe6b5IiESlICrlc0Lix0zYb_-_-voh8R]--></g></svg>