<svg xmlns="http://www.w3.org/2000/svg" xmlns:xlink="http://www.w3.org/1999/xlink" contentStyleType="text/css" data-diagram-type="CLASS" height="560px" preserveAspectRatio="none" style="width:661px;height:560px;background:#FFFFFF;" version="1.1" viewBox="0 0 661 560" width="661px" zoomAndPan="magnify"><defs/><g><!--class Expression--><g class="entity" data-entity="Expression" data-source-line="5" data-uid="ent0002" id="entity_Expression"><rect fill="#F1F1F1" height="48" rx="2.5" ry="2.5" style="stroke:#181818;stroke-width:0.5;" width="101.2549" x="67" y="256"/><ellipse cx="82" cy="272" fill="#ADD1B2" rx="11" ry="11" style="stroke:#181818;stroke-width:1;"/><path d="M84.7656,267.875 Q84.9219,267.6563 85.1094,267.5469 Q85.2969,267.4375 85.5156,267.4375 Q85.8906,267.4375 86.125,267.6953 Q86.3594,267.9531 86.3594,268.5625 L86.3594,270.0156 Q86.3594,270.625 86.125,270.8906 Q85.8906,271.1563 85.5156,271.1563 Q85.1719,271.1563 84.9688,270.9531 Q84.7656,270.7656 84.6563,270.25 Q84.6094,269.8906 84.4219,269.7031 Q84.0938,269.3281 83.4844,269.1094 Q82.875,268.8906 82.25,268.8906 Q81.4844,268.8906 80.8516,269.2188 Q80.2188,269.5469 79.7266,270.2969 Q79.2344,271.0469 79.2344,272.0781 L79.2344,273.1719 Q79.2344,274.4063 80.125,275.2266 Q81.0156,276.0469 82.6094,276.0469 Q83.5469,276.0469 84.2031,275.7969 Q84.5938,275.6406 85.0156,275.2031 Q85.2813,274.9375 85.4297,274.8594 Q85.5781,274.7813 85.7813,274.7813 Q86.1094,274.7813 86.3672,275.0391 Q86.625,275.2969 86.625,275.6406 Q86.625,275.9844 86.2813,276.3906 Q85.7813,276.9688 84.9844,277.2969 Q83.9063,277.75 82.6094,277.75 Q81.0938,277.75 79.8906,277.125 Q78.9063,276.625 78.2188,275.5547 Q77.5313,274.4844 77.5313,273.2031 L77.5313,272.0469 Q77.5313,270.7188 78.1484,269.5703 Q78.7656,268.4219 79.8594,267.8047 Q80.9531,267.1875 82.1875,267.1875 Q82.9219,267.1875 83.5703,267.3516 Q84.2188,267.5156 84.7656,267.875 Z " fill="#000000"/><text fill="#000000" font-family="sans-serif" font-size="14" lengthAdjust="spacing" textLength="69.2549" x="96" y="277.7285">Expression</text><line style="stroke:#181818;stroke-width:0.5;" x1="68" x2="167.2549" y1="288" y2="288"/><line style="stroke:#181818;stroke-width:0.5;" x1="68" x2="167.2549" y1="296" y2="296"/></g><polygon fill="none" points="168.2549,280,188.2549,273,188.2549,287" style="stroke:#181818;stroke-width:1;"/><line style="stroke:#181818;stroke-width:1;" x1="188.2549" x2="189.5" y1="280" y2="280"/><!--class ArrayConstructor--><g class="entity" data-entity="ArrayConstructor" data-source-line="5" data-uid="ent0003" id="entity_ArrayConstructor"><rect fill="#F1F1F1" height="48" rx="2.5" ry="2.5" style="stroke:#181818;stroke-width:0.5;" width="137.8066" x="303.5" y="7"/><ellipse cx="318.5" cy="23" fill="#ADD1B2" rx="11" ry="11" style="stroke:#181818;stroke-width:1;"/><path d="M321.2656,18.875 Q321.4219,18.6563 321.6094,18.5469 Q321.7969,18.4375 322.0156,18.4375 Q322.3906,18.4375 322.625,18.6953 Q322.8594,18.9531 322.8594,19.5625 L322.8594,21.0156 Q322.8594,21.625 322.625,21.8906 Q322.3906,22.1563 322.0156,22.1563 Q321.6719,22.1563 321.4688,21.9531 Q321.2656,21.7656 321.1563,21.25 Q321.1094,20.8906 320.9219,20.7031 Q320.5938,20.3281 319.9844,20.1094 Q319.375,19.8906 318.75,19.8906 Q317.9844,19.8906 317.3516,20.2188 Q316.7188,20.5469 316.2266,21.2969 Q315.7344,22.0469 315.7344,23.0781 L315.7344,24.1719 Q315.7344,25.4063 316.625,26.2266 Q317.5156,27.0469 319.1094,27.0469 Q320.0469,27.0469 320.7031,26.7969 Q321.0938,26.6406 321.5156,26.2031 Q321.7813,25.9375 321.9297,25.8594 Q322.0781,25.7813 322.2813,25.7813 Q322.6094,25.7813 322.8672,26.0391 Q323.125,26.2969 323.125,26.6406 Q323.125,26.9844 322.7813,27.3906 Q322.2813,27.9688 321.4844,28.2969 Q320.4063,28.75 319.1094,28.75 Q317.5938,28.75 316.3906,28.125 Q315.4063,27.625 314.7188,26.5547 Q314.0313,25.4844 314.0313,24.2031 L314.0313,23.0469 Q314.0313,21.7188 314.6484,20.5703 Q315.2656,19.4219 316.3594,18.8047 Q317.4531,18.1875 318.6875,18.1875 Q319.4219,18.1875 320.0703,18.3516 Q320.7188,18.5156 321.2656,18.875 Z " fill="#000000"/><text fill="#000000" font-family="sans-serif" font-size="14" lengthAdjust="spacing" textLength="105.8066" x="332.5" y="28.7285">ArrayConstructor</text><line style="stroke:#181818;stroke-width:0.5;" x1="304.5" x2="440.3066" y1="39" y2="39"/><line style="stroke:#181818;stroke-width:0.5;" x1="304.5" x2="440.3066" y1="47" y2="47"/></g><!--class ArrayRepetition--><g class="entity" data-entity="ArrayRepetition" data-source-line="6" data-uid="ent0005" id="entity_ArrayRepetition"><rect fill="#F1F1F1" height="48" rx="2.5" ry="2.5" style="stroke:#181818;stroke-width:0.5;" width="128.4893" x="308.5" y="90"/><ellipse cx="323.5" cy="106" fill="#ADD1B2" rx="11" ry="11" style="stroke:#181818;stroke-width:1;"/><path d="M326.2656,101.875 Q326.4219,101.6563 326.6094,101.5469 Q326.7969,101.4375 327.0156,101.4375 Q327.3906,101.4375 327.625,101.6953 Q327.8594,101.9531 327.8594,102.5625 L327.8594,104.0156 Q327.8594,104.625 327.625,104.8906 Q327.3906,105.1563 327.0156,105.1563 Q326.6719,105.1563 326.4688,104.9531 Q326.2656,104.7656 326.1563,104.25 Q326.1094,103.8906 325.9219,103.7031 Q325.5938,103.3281 324.9844,103.1094 Q324.375,102.8906 323.75,102.8906 Q322.9844,102.8906 322.3516,103.2188 Q321.7188,103.5469 321.2266,104.2969 Q320.7344,105.0469 320.7344,106.0781 L320.7344,107.1719 Q320.7344,108.4063 321.625,109.2266 Q322.5156,110.0469 324.1094,110.0469 Q325.0469,110.0469 325.7031,109.7969 Q326.0938,109.6406 326.5156,109.2031 Q326.7813,108.9375 326.9297,108.8594 Q327.0781,108.7813 327.2813,108.7813 Q327.6094,108.7813 327.8672,109.0391 Q328.125,109.2969 328.125,109.6406 Q328.125,109.9844 327.7813,110.3906 Q327.2813,110.9688 326.4844,111.2969 Q325.4063,111.75 324.1094,111.75 Q322.5938,111.75 321.3906,111.125 Q320.4063,110.625 319.7188,109.5547 Q319.0313,108.4844 319.0313,107.2031 L319.0313,106.0469 Q319.0313,104.7188 319.6484,103.5703 Q320.2656,102.4219 321.3594,101.8047 Q322.4531,101.1875 323.6875,101.1875 Q324.4219,101.1875 325.0703,101.3516 Q325.7188,101.5156 326.2656,101.875 Z " fill="#000000"/><text fill="#000000" font-family="sans-serif" font-size="14" lengthAdjust="spacing" textLength="96.4893" x="337.5" y="111.7285">ArrayRepetition</text><line style="stroke:#181818;stroke-width:0.5;" x1="309.5" x2="435.9893" y1="122" y2="122"/><line style="stroke:#181818;stroke-width:0.5;" x1="309.5" x2="435.9893" y1="130" y2="130"/></g><!--class Slice--><g class="entity" data-entity="Slice" data-source-line="7" data-uid="ent0007" id="entity_Slice"><rect fill="#F1F1F1" height="48" rx="2.5" ry="2.5" style="stroke:#181818;stroke-width:0.5;" width="62.3447" x="341.5" y="173"/><ellipse cx="356.5" cy="189" fill="#ADD1B2" rx="11" ry="11" style="stroke:#181818;stroke-width:1;"/><path d="M359.2656,184.875 Q359.4219,184.6563 359.6094,184.5469 Q359.7969,184.4375 360.0156,184.4375 Q360.3906,184.4375 360.625,184.6953 Q360.8594,184.9531 360.8594,185.5625 L360.8594,187.0156 Q360.8594,187.625 360.625,187.8906 Q360.3906,188.1563 360.0156,188.1563 Q359.6719,188.1563 359.4688,187.9531 Q359.2656,187.7656 359.1563,187.25 Q359.1094,186.8906 358.9219,186.7031 Q358.5938,186.3281 357.9844,186.1094 Q357.375,185.8906 356.75,185.8906 Q355.9844,185.8906 355.3516,186.2188 Q354.7188,186.5469 354.2266,187.2969 Q353.7344,188.0469 353.7344,189.0781 L353.7344,190.1719 Q353.7344,191.4063 354.625,192.2266 Q355.5156,193.0469 357.1094,193.0469 Q358.0469,193.0469 358.7031,192.7969 Q359.0938,192.6406 359.5156,192.2031 Q359.7813,191.9375 359.9297,191.8594 Q360.0781,191.7813 360.2813,191.7813 Q360.6094,191.7813 360.8672,192.0391 Q361.125,192.2969 361.125,192.6406 Q361.125,192.9844 360.7813,193.3906 Q360.2813,193.9688 359.4844,194.2969 Q358.4063,194.75 357.1094,194.75 Q355.5938,194.75 354.3906,194.125 Q353.4063,193.625 352.7188,192.5547 Q352.0313,191.4844 352.0313,190.2031 L352.0313,189.0469 Q352.0313,187.7188 352.6484,186.5703 Q353.2656,185.4219 354.3594,184.8047 Q355.4531,184.1875 356.6875,184.1875 Q357.4219,184.1875 358.0703,184.3516 Q358.7188,184.5156 359.2656,184.875 Z " fill="#000000"/><text fill="#000000" font-family="sans-serif" font-size="14" lengthAdjust="spacing" textLength="30.3447" x="370.5" y="194.7285">Slice</text><line style="stroke:#181818;stroke-width:0.5;" x1="342.5" x2="402.8447" y1="205" y2="205"/><line style="stroke:#181818;stroke-width:0.5;" x1="342.5" x2="402.8447" y1="213" y2="213"/></g><!--class ArrayProjection--><g class="entity" data-entity="ArrayProjection" data-source-line="8" data-uid="ent0009" id="entity_ArrayProjection"><rect fill="#F1F1F1" height="48" rx="2.5" ry="2.5" style="stroke:#181818;stroke-width:0.5;" width="127.7031" x="308.5" y="256"/><ellipse cx="323.5" cy="272" fill="#ADD1B2" rx="11" ry="11" style="stroke:#181818;stroke-width:1;"/><path d="M326.2656,267.875 Q326.4219,267.6563 326.6094,267.5469 Q326.7969,267.4375 327.0156,267.4375 Q327.3906,267.4375 327.625,267.6953 Q327.8594,267.9531 327.8594,268.5625 L327.8594,270.0156 Q327.8594,270.625 327.625,270.8906 Q327.3906,271.1563 327.0156,271.1563 Q326.6719,271.1563 326.4688,270.9531 Q326.2656,270.7656 326.1563,270.25 Q326.1094,269.8906 325.9219,269.7031 Q325.5938,269.3281 324.9844,269.1094 Q324.375,268.8906 323.75,268.8906 Q322.9844,268.8906 322.3516,269.2188 Q321.7188,269.5469 321.2266,270.2969 Q320.7344,271.0469 320.7344,272.0781 L320.7344,273.1719 Q320.7344,274.4063 321.625,275.2266 Q322.5156,276.0469 324.1094,276.0469 Q325.0469,276.0469 325.7031,275.7969 Q326.0938,275.6406 326.5156,275.2031 Q326.7813,274.9375 326.9297,274.8594 Q327.0781,274.7813 327.2813,274.7813 Q327.6094,274.7813 327.8672,275.0391 Q328.125,275.2969 328.125,275.6406 Q328.125,275.9844 327.7813,276.3906 Q327.2813,276.9688 326.4844,277.2969 Q325.4063,277.75 324.1094,277.75 Q322.5938,277.75 321.3906,277.125 Q320.4063,276.625 319.7188,275.5547 Q319.0313,274.4844 319.0313,273.2031 L319.0313,272.0469 Q319.0313,270.7188 319.6484,269.5703 Q320.2656,268.4219 321.3594,267.8047 Q322.4531,267.1875 323.6875,267.1875 Q324.4219,267.1875 325.0703,267.3516 Q325.7188,267.5156 326.2656,267.875 Z " fill="#000000"/><text fill="#000000" font-family="sans-serif" font-size="14" lengthAdjust="spacing" textLength="95.7031" x="337.5" y="277.7285">ArrayProjection</text><line style="stroke:#181818;stroke-width:0.5;" x1="309.5" x2="435.2031" y1="288" y2="288"/><line style="stroke:#181818;stroke-width:0.5;" x1="309.5" x2="435.2031" y1="296" y2="296"/></g><!--class ProjectionWithDefault--><g class="entity" data-entity="ProjectionWithDefault" data-source-line="9" data-uid="ent0011" id="entity_ProjectionWithDefault"><rect fill="#F1F1F1" height="48" rx="2.5" ry="2.5" style="stroke:#181818;stroke-width:0.5;" width="166.6133" x="289" y="339"/><ellipse cx="304" cy="355" fill="#ADD1B2" rx="11" ry="11" style="stroke:#181818;stroke-width:1;"/><path d="M306.7656,350.875 Q306.9219,350.6563 307.1094,350.5469 Q307.2969,350.4375 307.5156,350.4375 Q307.8906,350.4375 308.125,350.6953 Q308.3594,350.9531 308.3594,351.5625 L308.3594,353.0156 Q308.3594,353.625 308.125,353.8906 Q307.8906,354.1563 307.5156,354.1563 Q307.1719,354.1563 306.9688,353.9531 Q306.7656,353.7656 306.6563,353.25 Q306.6094,352.8906 306.4219,352.7031 Q306.0938,352.3281 305.4844,352.1094 Q304.875,351.8906 304.25,351.8906 Q303.4844,351.8906 302.8516,352.2188 Q302.2188,352.5469 301.7266,353.2969 Q301.2344,354.0469 301.2344,355.0781 L301.2344,356.1719 Q301.2344,357.4063 302.125,358.2266 Q303.0156,359.0469 304.6094,359.0469 Q305.5469,359.0469 306.2031,358.7969 Q306.5938,358.6406 307.0156,358.2031 Q307.2813,357.9375 307.4297,357.8594 Q307.5781,357.7813 307.7813,357.7813 Q308.1094,357.7813 308.3672,358.0391 Q308.625,358.2969 308.625,358.6406 Q308.625,358.9844 308.2813,359.3906 Q307.7813,359.9688 306.9844,360.2969 Q305.9063,360.75 304.6094,360.75 Q303.0938,360.75 301.8906,360.125 Q300.9063,359.625 300.2188,358.5547 Q299.5313,357.4844 299.5313,356.2031 L299.5313,355.0469 Q299.5313,353.7188 300.1484,352.5703 Q300.7656,351.4219 301.8594,350.8047 Q302.9531,350.1875 304.1875,350.1875 Q304.9219,350.1875 305.5703,350.3516 Q306.2188,350.5156 306.7656,350.875 Z " fill="#000000"/><text fill="#000000" font-family="sans-serif" font-size="14" lengthAdjust="spacing" textLength="134.6133" x="318" y="360.7285">ProjectionWithDefault</text><line style="stroke:#181818;stroke-width:0.5;" x1="290" x2="454.6133" y1="371" y2="371"/><line style="stroke:#181818;stroke-width:0.5;" x1="290" x2="454.6133" y1="379" y2="379"/></g><!--class FunctionalUpdate--><g class="entity" data-entity="FunctionalUpdate" data-source-line="10" data-uid="ent0013" id="entity_FunctionalUpdate"><rect fill="#F1F1F1" height="48" rx="2.5" ry="2.5" style="stroke:#181818;stroke-width:0.5;" width="141.7373" x="301.5" y="422"/><ellipse cx="316.5" cy="438" fill="#ADD1B2" rx="11" ry="11" style="stroke:#181818;stroke-width:1;"/><path d="M319.2656,433.875 Q319.4219,433.6563 319.6094,433.5469 Q319.7969,433.4375 320.0156,433.4375 Q320.3906,433.4375 320.625,433.6953 Q320.8594,433.9531 320.8594,434.5625 L320.8594,436.0156 Q320.8594,436.625 320.625,436.8906 Q320.3906,437.1563 320.0156,437.1563 Q319.6719,437.1563 319.4688,436.9531 Q319.2656,436.7656 319.1563,436.25 Q319.1094,435.8906 318.9219,435.7031 Q318.5938,435.3281 317.9844,435.1094 Q317.375,434.8906 316.75,434.8906 Q315.9844,434.8906 315.3516,435.2188 Q314.7188,435.5469 314.2266,436.2969 Q313.7344,437.0469 313.7344,438.0781 L313.7344,439.1719 Q313.7344,440.4063 314.625,441.2266 Q315.5156,442.0469 317.1094,442.0469 Q318.0469,442.0469 318.7031,441.7969 Q319.0938,441.6406 319.5156,441.2031 Q319.7813,440.9375 319.9297,440.8594 Q320.0781,440.7813 320.2813,440.7813 Q320.6094,440.7813 320.8672,441.0391 Q321.125,441.2969 321.125,441.6406 Q321.125,441.9844 320.7813,442.3906 Q320.2813,442.9688 319.4844,443.2969 Q318.4063,443.75 317.1094,443.75 Q315.5938,443.75 314.3906,443.125 Q313.4063,442.625 312.7188,441.5547 Q312.0313,440.4844 312.0313,439.2031 L312.0313,438.0469 Q312.0313,436.7188 312.6484,435.5703 Q313.2656,434.4219 314.3594,433.8047 Q315.4531,433.1875 316.6875,433.1875 Q317.4219,433.1875 318.0703,433.3516 Q318.7188,433.5156 319.2656,433.875 Z " fill="#000000"/><text fill="#000000" font-family="sans-serif" font-size="14" lengthAdjust="spacing" textLength="109.7373" x="330.5" y="443.7285">FunctionalUpdate</text><line style="stroke:#181818;stroke-width:0.5;" x1="302.5" x2="442.2373" y1="454" y2="454"/><line style="stroke:#181818;stroke-width:0.5;" x1="302.5" x2="442.2373" y1="462" y2="462"/></g><g class="entity" data-entity="GMN15" data-source-line="11" data-uid="ent0016" id="entity_GMN15"><path d="M525,433 L525,442 L443.76,446 L525,450 L525,459.3516 A0,0 0 0 0 525,459.3516 L645.7217,459.3516 A0,0 0 0 0 645.7217,459.3516 L645.7217,443 L635.7217,433 L525,433 A0,0 0 0 0 525,433" fill="#FEFFDD" style="stroke:#181818;stroke-width:0.5;"/><path d="M635.7217,433 L635.7217,443 L645.7217,443 L635.7217,433" fill="#FEFFDD" style="stroke:#181818;stroke-width:0.5;"/><text fill="#000000" font-family="sans-serif" font-size="13" lengthAdjust="spacing" textLength="99.7217" x="531" y="451.4951">array with update</text></g><!--class BinaryExpr--><g class="entity" data-entity="BinaryExpr" data-source-line="12" data-uid="ent0018" id="entity_BinaryExpr"><rect fill="#F1F1F1" height="48" rx="2.5" ry="2.5" style="stroke:#181818;stroke-width:0.5;" width="100.4688" x="322.5" y="505"/><ellipse cx="337.5" cy="521" fill="#ADD1B2" rx="11" ry="11" style="stroke:#181818;stroke-width:1;"/><path d="M340.2656,516.875 Q340.4219,516.6563 340.6094,516.5469 Q340.7969,516.4375 341.0156,516.4375 Q341.3906,516.4375 341.625,516.6953 Q341.8594,516.9531 341.8594,517.5625 L341.8594,519.0156 Q341.8594,519.625 341.625,519.8906 Q341.3906,520.1563 341.0156,520.1563 Q340.6719,520.1563 340.4688,519.9531 Q340.2656,519.7656 340.1563,519.25 Q340.1094,518.8906 339.9219,518.7031 Q339.5938,518.3281 338.9844,518.1094 Q338.375,517.8906 337.75,517.8906 Q336.9844,517.8906 336.3516,518.2188 Q335.7188,518.5469 335.2266,519.2969 Q334.7344,520.0469 334.7344,521.0781 L334.7344,522.1719 Q334.7344,523.4063 335.625,524.2266 Q336.5156,525.0469 338.1094,525.0469 Q339.0469,525.0469 339.7031,524.7969 Q340.0938,524.6406 340.5156,524.2031 Q340.7813,523.9375 340.9297,523.8594 Q341.0781,523.7813 341.2813,523.7813 Q341.6094,523.7813 341.8672,524.0391 Q342.125,524.2969 342.125,524.6406 Q342.125,524.9844 341.7813,525.3906 Q341.2813,525.9688 340.4844,526.2969 Q339.4063,526.75 338.1094,526.75 Q336.5938,526.75 335.3906,526.125 Q334.4063,525.625 333.7188,524.5547 Q333.0313,523.4844 333.0313,522.2031 L333.0313,521.0469 Q333.0313,519.7188 333.6484,518.5703 Q334.2656,517.4219 335.3594,516.8047 Q336.4531,516.1875 337.6875,516.1875 Q338.4219,516.1875 339.0703,516.3516 Q339.7188,516.5156 340.2656,516.875 Z " fill="#000000"/><text fill="#000000" font-family="sans-serif" font-size="14" lengthAdjust="spacing" textLength="68.4688" x="351.5" y="526.7285">BinaryExpr</text><line style="stroke:#181818;stroke-width:0.5;" x1="323.5" x2="421.9688" y1="537" y2="537"/><line style="stroke:#181818;stroke-width:0.5;" x1="323.5" x2="421.9688" y1="545" y2="545"/></g><!--class ArrayConcatExpr--><g class="entity" data-entity="ArrayConcatExpr" data-source-line="13" data-uid="ent0020" id="entity_ArrayConcatExpr"><rect fill="#F1F1F1" height="48" rx="2.5" ry="2.5" style="stroke:#181818;stroke-width:0.5;" width="138.5928" x="516" y="505"/><ellipse cx="531" cy="521" fill="#ADD1B2" rx="11" ry="11" style="stroke:#181818;stroke-width:1;"/><path d="M533.7656,516.875 Q533.9219,516.6563 534.1094,516.5469 Q534.2969,516.4375 534.5156,516.4375 Q534.8906,516.4375 535.125,516.6953 Q535.3594,516.9531 535.3594,517.5625 L535.3594,519.0156 Q535.3594,519.625 535.125,519.8906 Q534.8906,520.1563 534.5156,520.1563 Q534.1719,520.1563 533.9688,519.9531 Q533.7656,519.7656 533.6563,519.25 Q533.6094,518.8906 533.4219,518.7031 Q533.0938,518.3281 532.4844,518.1094 Q531.875,517.8906 531.25,517.8906 Q530.4844,517.8906 529.8516,518.2188 Q529.2188,518.5469 528.7266,519.2969 Q528.2344,520.0469 528.2344,521.0781 L528.2344,522.1719 Q528.2344,523.4063 529.125,524.2266 Q530.0156,525.0469 531.6094,525.0469 Q532.5469,525.0469 533.2031,524.7969 Q533.5938,524.6406 534.0156,524.2031 Q534.2813,523.9375 534.4297,523.8594 Q534.5781,523.7813 534.7813,523.7813 Q535.1094,523.7813 535.3672,524.0391 Q535.625,524.2969 535.625,524.6406 Q535.625,524.9844 535.2813,525.3906 Q534.7813,525.9688 533.9844,526.2969 Q532.9063,526.75 531.6094,526.75 Q530.0938,526.75 528.8906,526.125 Q527.9063,525.625 527.2188,524.5547 Q526.5313,523.4844 526.5313,522.2031 L526.5313,521.0469 Q526.5313,519.7188 527.1484,518.5703 Q527.7656,517.4219 528.8594,516.8047 Q529.9531,516.1875 531.1875,516.1875 Q531.9219,516.1875 532.5703,516.3516 Q533.2188,516.5156 533.7656,516.875 Z " fill="#000000"/><text fill="#000000" font-family="sans-serif" font-size="14" lengthAdjust="spacing" textLength="106.5928" x="545" y="526.7285">ArrayConcatExpr</text><line style="stroke:#181818;stroke-width:0.5;" x1="517" x2="653.5928" y1="537" y2="537"/><line style="stroke:#181818;stroke-width:0.5;" x1="517" x2="653.5928" y1="545" y2="545"/></g><g class="entity" data-entity="N1" data-source-line="16" data-uid="ent0022" id="entity_N1"><path d="M6,125.5 L6,200.9063 L229.3125,200.9063 L229.3125,135.5 L219.3125,125.5 L6,125.5" fill="#FEFFDD" style="stroke:#181818;stroke-width:0.5;"/><path d="M219.3125,125.5 L219.3125,135.5 L229.3125,135.5 L219.3125,125.5" fill="#FEFFDD" style="stroke:#181818;stroke-width:1;"/><text fill="#000000" font-family="sans-serif" font-size="13" font-weight="bold" lengthAdjust="spacing" textLength="39" x="12" y="143.9951">flatten</text><text fill="#000000" font-family="sans-serif" font-size="13" lengthAdjust="spacing" textLength="3.6118" x="51" y="143.9951">,</text><text fill="#000000" font-family="sans-serif" font-size="13" font-weight="bold" lengthAdjust="spacing" textLength="46.2681" x="58.2236" y="143.9951">reverse</text><text fill="#000000" font-family="sans-serif" font-size="13" lengthAdjust="spacing" textLength="3.6118" x="104.4917" y="143.9951">,</text><text fill="#000000" font-family="sans-serif" font-size="13" font-weight="bold" lengthAdjust="spacing" textLength="62.1309" x="111.7153" y="143.9951">transpose</text><text fill="#000000" font-family="sans-serif" font-size="13" lengthAdjust="spacing" textLength="3.6118" x="173.8462" y="143.9951">,</text><text fill="#000000" font-family="sans-serif" font-size="13" font-weight="bold" lengthAdjust="spacing" textLength="29.6309" x="181.0698" y="143.9951">pack</text><text fill="#000000" font-family="sans-serif" font-size="13" lengthAdjust="spacing" textLength="3.6118" x="210.7007" y="143.9951">:</text><a href="api/language/expressions/array.html#other-array-operations" target="_top" title="api/language/expressions/array.html#other-array-operations" xlink:actuate="onRequest" xlink:href="api/language/expressions/array.html#other-array-operations" xlink:show="new" xlink:title="api/language/expressions/array.html#other-array-operations" xlink:type="simple"><text fill="#0000FF" font-family="sans-serif" font-size="13" lengthAdjust="spacing" text-decoration="underline" textLength="93.9517" x="12" y="160.3467">other operations</text></a><text fill="#000000" font-family="sans-serif" font-size="13" lengthAdjust="spacing" textLength="3.6118" x="12" y="176.6982">&#160;</text><text fill="#000000" font-family="sans-serif" font-size="13" lengthAdjust="spacing" textLength="190.9375" x="12" y="193.0498">@ is a binary or n-ary expression</text></g><!--reverse link Expression to ArrayConstructor--><g class="link" data-entity-1="Expression" data-entity-2="ArrayConstructor" data-source-line="5" data-uid="lnk4" id="link_Expression_ArrayConstructor"><path codeLine="5" d="M189.5,280 C189.5,280 213.95,247 229,218 C261.31,155.73 241.19,123.34 289,72 C294.99,65.56 302.22,60 309.87,55.23" fill="none" id="Expression-backto-ArrayConstructor" style="stroke:#181818;stroke-width:1;"/></g><!--reverse link Expression to ArrayRepetition--><g class="link" data-entity-1="Expression" data-entity-2="ArrayRepetition" data-source-line="6" data-uid="lnk6" id="link_Expression_ArrayRepetition"><path codeLine="6" d="M189.5,280 C189.5,280 233.78,199.64 289,155 C296.71,148.77 305.53,143.15 314.46,138.21" fill="none" id="Expression-backto-ArrayRepetition" style="stroke:#181818;stroke-width:1;"/></g><!--reverse link Expression to Slice--><g class="link" data-entity-1="Expression" data-entity-2="Slice" data-source-line="7" data-uid="lnk8" id="link_Expression_Slice"><path codeLine="7" d="M189.5,280 C189.5,280 289.75,234.28 341.45,210.71" fill="none" id="Expression-backto-Slice" style="stroke:#181818;stroke-width:1;"/></g><!--reverse link Expression to ArrayProjection--><g class="link" data-entity-1="Expression" data-entity-2="ArrayProjection" data-source-line="8" data-uid="lnk10" id="link_Expression_ArrayProjection"><path codeLine="8" d="M189.5,280 C189.5,280 255.79,280 308.36,280" fill="none" id="Expression-backto-ArrayProjection" style="stroke:#181818;stroke-width:1;"/></g><!--reverse link Expression to ProjectionWithDefault--><g class="link" data-entity-1="Expression" data-entity-2="ProjectionWithDefault" data-source-line="9" data-uid="lnk12" id="link_Expression_ProjectionWithDefault"><path codeLine="9" d="M189.5,280 C189.5,280 265.11,314.48 318.86,338.99" fill="none" id="Expression-backto-ProjectionWithDefault" style="stroke:#181818;stroke-width:1;"/></g><!--reverse link Expression to FunctionalUpdate--><g class="link" data-entity-1="Expression" data-entity-2="FunctionalUpdate" data-source-line="10" data-uid="lnk14" id="link_Expression_FunctionalUpdate"><path codeLine="10" d="M189.5,280 C189.5,280 234.18,359.42 289,404 C297.23,410.69 306.7,416.73 316.22,422" fill="none" id="Expression-backto-FunctionalUpdate" style="stroke:#181818;stroke-width:1;"/></g><!--reverse link Expression to BinaryExpr--><g class="link" data-entity-1="Expression" data-entity-2="BinaryExpr" data-source-line="12" data-uid="lnk19" id="link_Expression_BinaryExpr"><path codeLine="12" d="M189.5,280 C189.5,280 217.08,415 289,488 C298.32,497.46 310.26,505.09 322.16,511.09" fill="none" id="Expression-backto-BinaryExpr" style="stroke:#181818;stroke-width:1;"/></g><!--reverse link BinaryExpr to ArrayConcatExpr--><g class="link" data-entity-1="BinaryExpr" data-entity-2="ArrayConcatExpr" data-source-line="13" data-uid="lnk21" id="link_BinaryExpr_ArrayConcatExpr"><path codeLine="13" d="M440.7,529 C468.35,529 485.28,529 515.61,529" fill="none" id="BinaryExpr-backto-ArrayConcatExpr" style="stroke:#181818;stroke-width:1;"/><polygon fill="none" points="422.7,529,440.7,535,440.7,523,422.7,529" style="stroke:#181818;stroke-width:1;"/></g><!--SRC=[RL5DJyCm3BtdLrZYW1HHAZXE7FYMk0028GxJ3bxcjc5P4ZakC8aVJvl2Aifkzdj-py_o8Lmmu_OX4gFOu9DAQ-iZCcwWvj36EzyGMq5l24wLeqf00h2j6u6LPJAzIgcRpyYKKbV3sLTH3AvNdPzmQoJm_e4dYYGsEqpvPsSDxLSzSdZxsJlbH-hLIdDD5RPE_atTjZxFe7k9AnHIFWWDDyq0-nNmqScX7TYf_D9wv6sFgh7yUxP1oVpWZ0dkJvJMbKCHybeVWTPCxyI9XaOOVOhXjurerbhFr7oEqPOEVTrYJINjWgGonpnkPECEWdGlAZ9GXDqZ8SCm0ek5KkTW4o0iSsm83BxeYz5OaLz17rfz0m00]--></g></svg>