<svg xmlns="http://www.w3.org/2000/svg" xmlns:xlink="http://www.w3.org/1999/xlink" contentStyleType="text/css" height="477px" preserveAspectRatio="none" style="width:643px;height:477px;background:#FFFFFF;" version="1.1" viewBox="0 0 643 477" width="643px" zoomAndPan="magnify"><defs/><g><!--class Expression--><g id="elem_Expression"><rect fill="#F1F1F1" height="48" id="Expression" rx="2.5" ry="2.5" style="stroke:#181818;stroke-width:0.5;" width="101.2549" x="67" y="215"/><ellipse cx="82" cy="231" fill="#ADD1B2" rx="11" ry="11" style="stroke:#181818;stroke-width:1.0;"/><path d="M84.7656,226.875 Q84.9219,226.6563 85.1094,226.5469 Q85.2969,226.4375 85.5156,226.4375 Q85.8906,226.4375 86.125,226.7031 Q86.3594,226.9531 86.3594,227.5625 L86.3594,229.0156 Q86.3594,229.625 86.125,229.8906 Q85.8906,230.1563 85.5156,230.1563 Q85.1719,230.1563 84.9688,229.9531 Q84.7656,229.7656 84.6563,229.25 Q84.6094,228.8906 84.4219,228.7031 Q84.0938,228.3281 83.4844,228.1094 Q82.875,227.8906 82.25,227.8906 Q81.4844,227.8906 80.8438,228.2188 Q80.2188,228.5469 79.7188,229.2969 Q79.2344,230.0469 79.2344,231.0781 L79.2344,232.1719 Q79.2344,233.4063 80.125,234.2344 Q81.0156,235.0469 82.6094,235.0469 Q83.5469,235.0469 84.2031,234.7969 Q84.5938,234.6406 85.0156,234.2031 Q85.2813,233.9375 85.4219,233.8594 Q85.5781,233.7813 85.7813,233.7813 Q86.1094,233.7813 86.3594,234.0469 Q86.625,234.2969 86.625,234.6406 Q86.625,234.9844 86.2813,235.3906 Q85.7813,235.9688 84.9844,236.2969 Q83.9063,236.75 82.6094,236.75 Q81.0938,236.75 79.8906,236.125 Q78.9063,235.625 78.2188,234.5625 Q77.5313,233.4844 77.5313,232.2031 L77.5313,231.0469 Q77.5313,229.7188 78.1406,228.5781 Q78.7656,227.4219 79.8594,226.8125 Q80.9531,226.1875 82.1875,226.1875 Q82.9219,226.1875 83.5625,226.3594 Q84.2188,226.5156 84.7656,226.875 Z " fill="#000000"/><text fill="#000000" font-family="sans-serif" font-size="14" lengthAdjust="spacing" textLength="69.2549" x="96" y="236.7285">Expression</text><line style="stroke:#181818;stroke-width:0.5;" x1="68" x2="167.2549" y1="247" y2="247"/><line style="stroke:#181818;stroke-width:0.5;" x1="68" x2="167.2549" y1="255" y2="255"/></g><polygon fill="none" points="168.2549,239,188.2549,232,188.2549,246" style="stroke:#181818;stroke-width:1.0;"/><line style="stroke:#181818;stroke-width:1.0;" x1="188.2549" x2="189.5" y1="239" y2="239"/><!--class ArrayConstructor--><g id="elem_ArrayConstructor"><rect fill="#F1F1F1" height="48" id="ArrayConstructor" rx="2.5" ry="2.5" style="stroke:#181818;stroke-width:0.5;" width="137.8066" x="303.5" y="7"/><ellipse cx="318.5" cy="23" fill="#ADD1B2" rx="11" ry="11" style="stroke:#181818;stroke-width:1.0;"/><path d="M321.2656,18.875 Q321.4219,18.6563 321.6094,18.5469 Q321.7969,18.4375 322.0156,18.4375 Q322.3906,18.4375 322.625,18.7031 Q322.8594,18.9531 322.8594,19.5625 L322.8594,21.0156 Q322.8594,21.625 322.625,21.8906 Q322.3906,22.1563 322.0156,22.1563 Q321.6719,22.1563 321.4688,21.9531 Q321.2656,21.7656 321.1563,21.25 Q321.1094,20.8906 320.9219,20.7031 Q320.5938,20.3281 319.9844,20.1094 Q319.375,19.8906 318.75,19.8906 Q317.9844,19.8906 317.3438,20.2188 Q316.7188,20.5469 316.2188,21.2969 Q315.7344,22.0469 315.7344,23.0781 L315.7344,24.1719 Q315.7344,25.4063 316.625,26.2344 Q317.5156,27.0469 319.1094,27.0469 Q320.0469,27.0469 320.7031,26.7969 Q321.0938,26.6406 321.5156,26.2031 Q321.7813,25.9375 321.9219,25.8594 Q322.0781,25.7813 322.2813,25.7813 Q322.6094,25.7813 322.8594,26.0469 Q323.125,26.2969 323.125,26.6406 Q323.125,26.9844 322.7813,27.3906 Q322.2813,27.9688 321.4844,28.2969 Q320.4063,28.75 319.1094,28.75 Q317.5938,28.75 316.3906,28.125 Q315.4063,27.625 314.7188,26.5625 Q314.0313,25.4844 314.0313,24.2031 L314.0313,23.0469 Q314.0313,21.7188 314.6406,20.5781 Q315.2656,19.4219 316.3594,18.8125 Q317.4531,18.1875 318.6875,18.1875 Q319.4219,18.1875 320.0625,18.3594 Q320.7188,18.5156 321.2656,18.875 Z " fill="#000000"/><text fill="#000000" font-family="sans-serif" font-size="14" lengthAdjust="spacing" textLength="105.8066" x="332.5" y="28.7285">ArrayConstructor</text><line style="stroke:#181818;stroke-width:0.5;" x1="304.5" x2="440.3066" y1="39" y2="39"/><line style="stroke:#181818;stroke-width:0.5;" x1="304.5" x2="440.3066" y1="47" y2="47"/></g><!--class ArrayRepetition--><g id="elem_ArrayRepetition"><rect fill="#F1F1F1" height="48" id="ArrayRepetition" rx="2.5" ry="2.5" style="stroke:#181818;stroke-width:0.5;" width="128.4893" x="308.5" y="90"/><ellipse cx="323.5" cy="106" fill="#ADD1B2" rx="11" ry="11" style="stroke:#181818;stroke-width:1.0;"/><path d="M326.2656,101.875 Q326.4219,101.6563 326.6094,101.5469 Q326.7969,101.4375 327.0156,101.4375 Q327.3906,101.4375 327.625,101.7031 Q327.8594,101.9531 327.8594,102.5625 L327.8594,104.0156 Q327.8594,104.625 327.625,104.8906 Q327.3906,105.1563 327.0156,105.1563 Q326.6719,105.1563 326.4688,104.9531 Q326.2656,104.7656 326.1563,104.25 Q326.1094,103.8906 325.9219,103.7031 Q325.5938,103.3281 324.9844,103.1094 Q324.375,102.8906 323.75,102.8906 Q322.9844,102.8906 322.3438,103.2188 Q321.7188,103.5469 321.2188,104.2969 Q320.7344,105.0469 320.7344,106.0781 L320.7344,107.1719 Q320.7344,108.4063 321.625,109.2344 Q322.5156,110.0469 324.1094,110.0469 Q325.0469,110.0469 325.7031,109.7969 Q326.0938,109.6406 326.5156,109.2031 Q326.7813,108.9375 326.9219,108.8594 Q327.0781,108.7813 327.2813,108.7813 Q327.6094,108.7813 327.8594,109.0469 Q328.125,109.2969 328.125,109.6406 Q328.125,109.9844 327.7813,110.3906 Q327.2813,110.9688 326.4844,111.2969 Q325.4063,111.75 324.1094,111.75 Q322.5938,111.75 321.3906,111.125 Q320.4063,110.625 319.7188,109.5625 Q319.0313,108.4844 319.0313,107.2031 L319.0313,106.0469 Q319.0313,104.7188 319.6406,103.5781 Q320.2656,102.4219 321.3594,101.8125 Q322.4531,101.1875 323.6875,101.1875 Q324.4219,101.1875 325.0625,101.3594 Q325.7188,101.5156 326.2656,101.875 Z " fill="#000000"/><text fill="#000000" font-family="sans-serif" font-size="14" lengthAdjust="spacing" textLength="96.4893" x="337.5" y="111.7285">ArrayRepetition</text><line style="stroke:#181818;stroke-width:0.5;" x1="309.5" x2="435.9893" y1="122" y2="122"/><line style="stroke:#181818;stroke-width:0.5;" x1="309.5" x2="435.9893" y1="130" y2="130"/></g><!--class Slice--><g id="elem_Slice"><rect fill="#F1F1F1" height="48" id="Slice" rx="2.5" ry="2.5" style="stroke:#181818;stroke-width:0.5;" width="62.3447" x="341.5" y="173"/><ellipse cx="356.5" cy="189" fill="#ADD1B2" rx="11" ry="11" style="stroke:#181818;stroke-width:1.0;"/><path d="M359.2656,184.875 Q359.4219,184.6563 359.6094,184.5469 Q359.7969,184.4375 360.0156,184.4375 Q360.3906,184.4375 360.625,184.7031 Q360.8594,184.9531 360.8594,185.5625 L360.8594,187.0156 Q360.8594,187.625 360.625,187.8906 Q360.3906,188.1563 360.0156,188.1563 Q359.6719,188.1563 359.4688,187.9531 Q359.2656,187.7656 359.1563,187.25 Q359.1094,186.8906 358.9219,186.7031 Q358.5938,186.3281 357.9844,186.1094 Q357.375,185.8906 356.75,185.8906 Q355.9844,185.8906 355.3438,186.2188 Q354.7188,186.5469 354.2188,187.2969 Q353.7344,188.0469 353.7344,189.0781 L353.7344,190.1719 Q353.7344,191.4063 354.625,192.2344 Q355.5156,193.0469 357.1094,193.0469 Q358.0469,193.0469 358.7031,192.7969 Q359.0938,192.6406 359.5156,192.2031 Q359.7813,191.9375 359.9219,191.8594 Q360.0781,191.7813 360.2813,191.7813 Q360.6094,191.7813 360.8594,192.0469 Q361.125,192.2969 361.125,192.6406 Q361.125,192.9844 360.7813,193.3906 Q360.2813,193.9688 359.4844,194.2969 Q358.4063,194.75 357.1094,194.75 Q355.5938,194.75 354.3906,194.125 Q353.4063,193.625 352.7188,192.5625 Q352.0313,191.4844 352.0313,190.2031 L352.0313,189.0469 Q352.0313,187.7188 352.6406,186.5781 Q353.2656,185.4219 354.3594,184.8125 Q355.4531,184.1875 356.6875,184.1875 Q357.4219,184.1875 358.0625,184.3594 Q358.7188,184.5156 359.2656,184.875 Z " fill="#000000"/><text fill="#000000" font-family="sans-serif" font-size="14" lengthAdjust="spacing" textLength="30.3447" x="370.5" y="194.7285">Slice</text><line style="stroke:#181818;stroke-width:0.5;" x1="342.5" x2="402.8447" y1="205" y2="205"/><line style="stroke:#181818;stroke-width:0.5;" x1="342.5" x2="402.8447" y1="213" y2="213"/></g><!--class ArrayProjection--><g id="elem_ArrayProjection"><rect fill="#F1F1F1" height="48" id="ArrayProjection" rx="2.5" ry="2.5" style="stroke:#181818;stroke-width:0.5;" width="127.7031" x="308.5" y="256"/><ellipse cx="323.5" cy="272" fill="#ADD1B2" rx="11" ry="11" style="stroke:#181818;stroke-width:1.0;"/><path d="M326.2656,267.875 Q326.4219,267.6563 326.6094,267.5469 Q326.7969,267.4375 327.0156,267.4375 Q327.3906,267.4375 327.625,267.7031 Q327.8594,267.9531 327.8594,268.5625 L327.8594,270.0156 Q327.8594,270.625 327.625,270.8906 Q327.3906,271.1563 327.0156,271.1563 Q326.6719,271.1563 326.4688,270.9531 Q326.2656,270.7656 326.1563,270.25 Q326.1094,269.8906 325.9219,269.7031 Q325.5938,269.3281 324.9844,269.1094 Q324.375,268.8906 323.75,268.8906 Q322.9844,268.8906 322.3438,269.2188 Q321.7188,269.5469 321.2188,270.2969 Q320.7344,271.0469 320.7344,272.0781 L320.7344,273.1719 Q320.7344,274.4063 321.625,275.2344 Q322.5156,276.0469 324.1094,276.0469 Q325.0469,276.0469 325.7031,275.7969 Q326.0938,275.6406 326.5156,275.2031 Q326.7813,274.9375 326.9219,274.8594 Q327.0781,274.7813 327.2813,274.7813 Q327.6094,274.7813 327.8594,275.0469 Q328.125,275.2969 328.125,275.6406 Q328.125,275.9844 327.7813,276.3906 Q327.2813,276.9688 326.4844,277.2969 Q325.4063,277.75 324.1094,277.75 Q322.5938,277.75 321.3906,277.125 Q320.4063,276.625 319.7188,275.5625 Q319.0313,274.4844 319.0313,273.2031 L319.0313,272.0469 Q319.0313,270.7188 319.6406,269.5781 Q320.2656,268.4219 321.3594,267.8125 Q322.4531,267.1875 323.6875,267.1875 Q324.4219,267.1875 325.0625,267.3594 Q325.7188,267.5156 326.2656,267.875 Z " fill="#000000"/><text fill="#000000" font-family="sans-serif" font-size="14" lengthAdjust="spacing" textLength="95.7031" x="337.5" y="277.7285">ArrayProjection</text><line style="stroke:#181818;stroke-width:0.5;" x1="309.5" x2="435.2031" y1="288" y2="288"/><line style="stroke:#181818;stroke-width:0.5;" x1="309.5" x2="435.2031" y1="296" y2="296"/></g><!--class ProjectionWithDefault--><g id="elem_ProjectionWithDefault"><rect fill="#F1F1F1" height="48" id="ProjectionWithDefault" rx="2.5" ry="2.5" style="stroke:#181818;stroke-width:0.5;" width="166.6133" x="289" y="339"/><ellipse cx="304" cy="355" fill="#ADD1B2" rx="11" ry="11" style="stroke:#181818;stroke-width:1.0;"/><path d="M306.7656,350.875 Q306.9219,350.6563 307.1094,350.5469 Q307.2969,350.4375 307.5156,350.4375 Q307.8906,350.4375 308.125,350.7031 Q308.3594,350.9531 308.3594,351.5625 L308.3594,353.0156 Q308.3594,353.625 308.125,353.8906 Q307.8906,354.1563 307.5156,354.1563 Q307.1719,354.1563 306.9688,353.9531 Q306.7656,353.7656 306.6563,353.25 Q306.6094,352.8906 306.4219,352.7031 Q306.0938,352.3281 305.4844,352.1094 Q304.875,351.8906 304.25,351.8906 Q303.4844,351.8906 302.8438,352.2188 Q302.2188,352.5469 301.7188,353.2969 Q301.2344,354.0469 301.2344,355.0781 L301.2344,356.1719 Q301.2344,357.4063 302.125,358.2344 Q303.0156,359.0469 304.6094,359.0469 Q305.5469,359.0469 306.2031,358.7969 Q306.5938,358.6406 307.0156,358.2031 Q307.2813,357.9375 307.4219,357.8594 Q307.5781,357.7813 307.7813,357.7813 Q308.1094,357.7813 308.3594,358.0469 Q308.625,358.2969 308.625,358.6406 Q308.625,358.9844 308.2813,359.3906 Q307.7813,359.9688 306.9844,360.2969 Q305.9063,360.75 304.6094,360.75 Q303.0938,360.75 301.8906,360.125 Q300.9063,359.625 300.2188,358.5625 Q299.5313,357.4844 299.5313,356.2031 L299.5313,355.0469 Q299.5313,353.7188 300.1406,352.5781 Q300.7656,351.4219 301.8594,350.8125 Q302.9531,350.1875 304.1875,350.1875 Q304.9219,350.1875 305.5625,350.3594 Q306.2188,350.5156 306.7656,350.875 Z " fill="#000000"/><text fill="#000000" font-family="sans-serif" font-size="14" lengthAdjust="spacing" textLength="134.6133" x="318" y="360.7285">ProjectionWithDefault</text><line style="stroke:#181818;stroke-width:0.5;" x1="290" x2="454.6133" y1="371" y2="371"/><line style="stroke:#181818;stroke-width:0.5;" x1="290" x2="454.6133" y1="379" y2="379"/></g><!--class FunctionalUpdate--><g id="elem_FunctionalUpdate"><rect fill="#F1F1F1" height="48" id="FunctionalUpdate" rx="2.5" ry="2.5" style="stroke:#181818;stroke-width:0.5;" width="141.7373" x="301.5" y="422"/><ellipse cx="316.5" cy="438" fill="#ADD1B2" rx="11" ry="11" style="stroke:#181818;stroke-width:1.0;"/><path d="M319.2656,433.875 Q319.4219,433.6563 319.6094,433.5469 Q319.7969,433.4375 320.0156,433.4375 Q320.3906,433.4375 320.625,433.7031 Q320.8594,433.9531 320.8594,434.5625 L320.8594,436.0156 Q320.8594,436.625 320.625,436.8906 Q320.3906,437.1563 320.0156,437.1563 Q319.6719,437.1563 319.4688,436.9531 Q319.2656,436.7656 319.1563,436.25 Q319.1094,435.8906 318.9219,435.7031 Q318.5938,435.3281 317.9844,435.1094 Q317.375,434.8906 316.75,434.8906 Q315.9844,434.8906 315.3438,435.2188 Q314.7188,435.5469 314.2188,436.2969 Q313.7344,437.0469 313.7344,438.0781 L313.7344,439.1719 Q313.7344,440.4063 314.625,441.2344 Q315.5156,442.0469 317.1094,442.0469 Q318.0469,442.0469 318.7031,441.7969 Q319.0938,441.6406 319.5156,441.2031 Q319.7813,440.9375 319.9219,440.8594 Q320.0781,440.7813 320.2813,440.7813 Q320.6094,440.7813 320.8594,441.0469 Q321.125,441.2969 321.125,441.6406 Q321.125,441.9844 320.7813,442.3906 Q320.2813,442.9688 319.4844,443.2969 Q318.4063,443.75 317.1094,443.75 Q315.5938,443.75 314.3906,443.125 Q313.4063,442.625 312.7188,441.5625 Q312.0313,440.4844 312.0313,439.2031 L312.0313,438.0469 Q312.0313,436.7188 312.6406,435.5781 Q313.2656,434.4219 314.3594,433.8125 Q315.4531,433.1875 316.6875,433.1875 Q317.4219,433.1875 318.0625,433.3594 Q318.7188,433.5156 319.2656,433.875 Z " fill="#000000"/><text fill="#000000" font-family="sans-serif" font-size="14" lengthAdjust="spacing" textLength="109.7373" x="330.5" y="443.7285">FunctionalUpdate</text><line style="stroke:#181818;stroke-width:0.5;" x1="302.5" x2="442.2373" y1="454" y2="454"/><line style="stroke:#181818;stroke-width:0.5;" x1="302.5" x2="442.2373" y1="462" y2="462"/></g><g id="elem_GMN15"><path d="M516,433 L516,442 L443.58,446 L516,450 L516,459.3516 A0,0 0 0 0 516,459.3516 L636.7217,459.3516 A0,0 0 0 0 636.7217,459.3516 L636.7217,443 L626.7217,433 L516,433 A0,0 0 0 0 516,433 " fill="#FEFFDD" style="stroke:#181818;stroke-width:0.5;"/><path d="M626.7217,433 L626.7217,443 L636.7217,443 L626.7217,433 " fill="#FEFFDD" style="stroke:#181818;stroke-width:0.5;"/><text fill="#000000" font-family="sans-serif" font-size="13" lengthAdjust="spacing" textLength="99.7217" x="522" y="451.4951">array with update</text></g><g id="elem_N1"><path d="M6,84.5 L6,159.9063 L229.3125,159.9063 L229.3125,94.5 L219.3125,84.5 L6,84.5 " fill="#FEFFDD" style="stroke:#181818;stroke-width:0.5;"/><path d="M219.3125,84.5 L219.3125,94.5 L229.3125,94.5 L219.3125,84.5 " fill="#FEFFDD" style="stroke:#181818;stroke-width:1.0;"/><text fill="#000000" font-family="sans-serif" font-size="13" font-weight="bold" lengthAdjust="spacing" textLength="39" x="12" y="102.9951">flatten</text><text fill="#000000" font-family="sans-serif" font-size="13" lengthAdjust="spacing" textLength="3.6118" x="51" y="102.9951">,</text><text fill="#000000" font-family="sans-serif" font-size="13" font-weight="bold" lengthAdjust="spacing" textLength="46.2681" x="58.2236" y="102.9951">reverse</text><text fill="#000000" font-family="sans-serif" font-size="13" lengthAdjust="spacing" textLength="3.6118" x="104.4917" y="102.9951">,</text><text fill="#000000" font-family="sans-serif" font-size="13" font-weight="bold" lengthAdjust="spacing" textLength="62.1309" x="111.7153" y="102.9951">transpose</text><text fill="#000000" font-family="sans-serif" font-size="13" lengthAdjust="spacing" textLength="3.6118" x="173.8462" y="102.9951">,</text><text fill="#000000" font-family="sans-serif" font-size="13" font-weight="bold" lengthAdjust="spacing" textLength="29.6309" x="181.0698" y="102.9951">pack</text><text fill="#000000" font-family="sans-serif" font-size="13" lengthAdjust="spacing" textLength="3.6118" x="210.7007" y="102.9951">:</text><a href="api/language/expressions/array.html#other-array-operations" target="_top" title="api/language/expressions/array.html#other-array-operations" xlink:actuate="onRequest" xlink:href="api/language/expressions/array.html#other-array-operations" xlink:show="new" xlink:title="api/language/expressions/array.html#other-array-operations" xlink:type="simple"><text fill="#0000FF" font-family="sans-serif" font-size="13" lengthAdjust="spacing" text-decoration="underline" textLength="93.9517" x="12" y="119.3467">other operations</text></a><text fill="#000000" font-family="sans-serif" font-size="13" lengthAdjust="spacing" textLength="3.6118" x="12" y="135.6982">&#160;</text><text fill="#000000" font-family="sans-serif" font-size="13" lengthAdjust="spacing" textLength="190.9375" x="12" y="152.0498">@ is a binary or n-ary expression</text></g><!--reverse link Expression to ArrayConstructor--><g id="link_Expression_ArrayConstructor"><path codeLine="5" d="M189.5,239 C189.5,239 212.11,204.97 229,177 C256.78,130.99 249.91,108.89 289,72 C295.75,65.63 303.67,60.05 311.89,55.21 " fill="none" id="Expression-backto-ArrayConstructor" style="stroke:#181818;stroke-width:1.0;"/></g><!--reverse link Expression to ArrayRepetition--><g id="link_Expression_ArrayRepetition"><path codeLine="6" d="M189.5,239 C189.5,239 240.63,186.77 289,155 C298.09,149.03 308.17,143.34 318.08,138.2 " fill="none" id="Expression-backto-ArrayRepetition" style="stroke:#181818;stroke-width:1.0;"/></g><!--reverse link Expression to Slice--><g id="link_Expression_Slice"><path codeLine="7" d="M189.5,239 C189.5,239 289.75,215.86 341.45,203.94 " fill="none" id="Expression-backto-Slice" style="stroke:#181818;stroke-width:1.0;"/></g><!--reverse link Expression to ArrayProjection--><g id="link_Expression_ArrayProjection"><path codeLine="8" d="M189.5,239 C189.5,239 255.79,253.93 308.36,265.78 " fill="none" id="Expression-backto-ArrayProjection" style="stroke:#181818;stroke-width:1.0;"/></g><!--reverse link Expression to ProjectionWithDefault--><g id="link_Expression_ProjectionWithDefault"><path codeLine="9" d="M189.5,239 C189.5,239 241.07,289.59 289,321 C298.68,327.34 309.44,333.44 319.91,338.93 " fill="none" id="Expression-backto-ProjectionWithDefault" style="stroke:#181818;stroke-width:1.0;"/></g><!--reverse link Expression to FunctionalUpdate--><g id="link_Expression_FunctionalUpdate"><path codeLine="10" d="M189.5,239 C189.5,239 226.31,345.66 289,404 C296.29,410.79 304.89,416.75 313.74,421.89 " fill="none" id="Expression-backto-FunctionalUpdate" style="stroke:#181818;stroke-width:1.0;"/></g><!--SRC=[RL7BJWCn3BpdAonnG8fOLd2iE81uI5m0WH27gWUpzUw6faxaE40bFfvzG5TgUxDdF3DsSWnN8hXvZ2IeBd0oQUKuek0Q6WavtdDBuXIv8ZWtdce53I2kQHMMJgZgLSRSVaUXbBeQBdwAOdIzxlnKSgL13WyyKoHrWyCk_-9THOTLJn8-_d9t-ObwSzhUK8tPwzxKNUPX1lrhNAAIuQ0qtZG3x2FWgvD37jcHnWGFPyRQsgCgiRKdOAtG9qcYiL51JZ7yjn6hbRKpCvzZTAL7RZ8sLD9scLGEMQUjhlrHqEwTYm4emlOtO81X0XOBOox19K1uTuooWI30HLzCnePu2VtIvXS0]--></g></svg>