<svg xmlns="http://www.w3.org/2000/svg" xmlns:xlink="http://www.w3.org/1999/xlink" contentStyleType="text/css" height="477px" preserveAspectRatio="none" style="width:586px;height:477px;background:#FFFFFF;" version="1.1" viewBox="0 0 586 477" width="586px" zoomAndPan="magnify"><defs/><g><!--class Forward--><g id="elem_Forward"><rect fill="#F1F1F1" height="48" id="Forward" rx="2.5" ry="2.5" style="stroke:#181818;stroke-width:0.5;" width="83.3447" x="275" y="7"/><ellipse cx="290" cy="23" fill="#ADD1B2" rx="11" ry="11" style="stroke:#181818;stroke-width:1.0;"/><path d="M292.7656,18.875 Q292.9219,18.6563 293.1094,18.5469 Q293.2969,18.4375 293.5156,18.4375 Q293.8906,18.4375 294.125,18.6953 Q294.3594,18.9531 294.3594,19.5625 L294.3594,21.0156 Q294.3594,21.625 294.125,21.8906 Q293.8906,22.1563 293.5156,22.1563 Q293.1719,22.1563 292.9688,21.9531 Q292.7656,21.7656 292.6563,21.25 Q292.6094,20.8906 292.4219,20.7031 Q292.0938,20.3281 291.4844,20.1094 Q290.875,19.8906 290.25,19.8906 Q289.4844,19.8906 288.8516,20.2188 Q288.2188,20.5469 287.7266,21.2969 Q287.2344,22.0469 287.2344,23.0781 L287.2344,24.1719 Q287.2344,25.4063 288.125,26.2266 Q289.0156,27.0469 290.6094,27.0469 Q291.5469,27.0469 292.2031,26.7969 Q292.5938,26.6406 293.0156,26.2031 Q293.2813,25.9375 293.4297,25.8594 Q293.5781,25.7813 293.7813,25.7813 Q294.1094,25.7813 294.3672,26.0391 Q294.625,26.2969 294.625,26.6406 Q294.625,26.9844 294.2813,27.3906 Q293.7813,27.9688 292.9844,28.2969 Q291.9063,28.75 290.6094,28.75 Q289.0938,28.75 287.8906,28.125 Q286.9063,27.625 286.2188,26.5547 Q285.5313,25.4844 285.5313,24.2031 L285.5313,23.0469 Q285.5313,21.7188 286.1484,20.5703 Q286.7656,19.4219 287.8594,18.8047 Q288.9531,18.1875 290.1875,18.1875 Q290.9219,18.1875 291.5703,18.3516 Q292.2188,18.5156 292.7656,18.875 Z " fill="#000000"/><text fill="#000000" font-family="sans-serif" font-size="14" lengthAdjust="spacing" textLength="51.3447" x="304" y="28.7285">Forward</text><line style="stroke:#181818;stroke-width:0.5;" x1="276" x2="357.3447" y1="39" y2="39"/><line style="stroke:#181818;stroke-width:0.5;" x1="276" x2="357.3447" y1="47" y2="47"/></g><!--class ForwardDim--><g id="elem_ForwardDim"><rect codeLine="13" fill="#F1F1F1" height="100.8281" id="ForwardDim" rx="2.5" ry="2.5" style="stroke:#181818;stroke-width:0.5;" width="178.5234" x="30" y="116"/><ellipse cx="76.8979" cy="132" fill="#ADD1B2" rx="11" ry="11" style="stroke:#181818;stroke-width:1.0;"/><path d="M79.6636,127.875 Q79.8198,127.6563 80.0073,127.5469 Q80.1948,127.4375 80.4136,127.4375 Q80.7886,127.4375 81.0229,127.6953 Q81.2573,127.9531 81.2573,128.5625 L81.2573,130.0156 Q81.2573,130.625 81.0229,130.8906 Q80.7886,131.1563 80.4136,131.1563 Q80.0698,131.1563 79.8667,130.9531 Q79.6636,130.7656 79.5542,130.25 Q79.5073,129.8906 79.3198,129.7031 Q78.9917,129.3281 78.3823,129.1094 Q77.7729,128.8906 77.1479,128.8906 Q76.3823,128.8906 75.7495,129.2188 Q75.1167,129.5469 74.6245,130.2969 Q74.1323,131.0469 74.1323,132.0781 L74.1323,133.1719 Q74.1323,134.4063 75.0229,135.2266 Q75.9136,136.0469 77.5073,136.0469 Q78.4448,136.0469 79.1011,135.7969 Q79.4917,135.6406 79.9136,135.2031 Q80.1792,134.9375 80.3276,134.8594 Q80.4761,134.7813 80.6792,134.7813 Q81.0073,134.7813 81.2651,135.0391 Q81.5229,135.2969 81.5229,135.6406 Q81.5229,135.9844 81.1792,136.3906 Q80.6792,136.9688 79.8823,137.2969 Q78.8042,137.75 77.5073,137.75 Q75.9917,137.75 74.7886,137.125 Q73.8042,136.625 73.1167,135.5547 Q72.4292,134.4844 72.4292,133.2031 L72.4292,132.0469 Q72.4292,130.7188 73.0464,129.5703 Q73.6636,128.4219 74.7573,127.8047 Q75.8511,127.1875 77.0854,127.1875 Q77.8198,127.1875 78.4683,127.3516 Q79.1167,127.5156 79.6636,127.875 Z " fill="#000000"/><text fill="#000000" font-family="sans-serif" font-size="14" lengthAdjust="spacing" textLength="76.2275" x="97.3979" y="137.7285">ForwardDim</text><line style="stroke:#181818;stroke-width:0.5;" x1="31" x2="207.5234" y1="148" y2="148"/><line style="stroke:#181818;stroke-width:0.5;" x1="31" x2="207.5234" y1="156" y2="156"/><text fill="#000000" font-family="sans-serif" font-size="14" lengthAdjust="spacing" textLength="166.5234" x="36" y="174.5332">expr: Expression (optional)</text><text fill="#000000" font-family="sans-serif" font-size="14" lengthAdjust="spacing" textLength="134.627" x="36" y="192.1426">id: Identifier (optional)</text><text fill="#000000" font-family="sans-serif" font-size="14" lengthAdjust="spacing" textLength="143.958" x="36" y="209.752">protected: str (optional)</text></g><!--class ForwardBody--><g id="elem_ForwardBody"><rect fill="#F1F1F1" height="48" id="ForwardBody" rx="2.5" ry="2.5" style="stroke:#181818;stroke-width:0.5;" width="115.2549" x="259" y="142.5"/><ellipse cx="274" cy="158.5" fill="#ADD1B2" rx="11" ry="11" style="stroke:#181818;stroke-width:1.0;"/><path d="M276.7656,154.375 Q276.9219,154.1563 277.1094,154.0469 Q277.2969,153.9375 277.5156,153.9375 Q277.8906,153.9375 278.125,154.1953 Q278.3594,154.4531 278.3594,155.0625 L278.3594,156.5156 Q278.3594,157.125 278.125,157.3906 Q277.8906,157.6563 277.5156,157.6563 Q277.1719,157.6563 276.9688,157.4531 Q276.7656,157.2656 276.6563,156.75 Q276.6094,156.3906 276.4219,156.2031 Q276.0938,155.8281 275.4844,155.6094 Q274.875,155.3906 274.25,155.3906 Q273.4844,155.3906 272.8516,155.7188 Q272.2188,156.0469 271.7266,156.7969 Q271.2344,157.5469 271.2344,158.5781 L271.2344,159.6719 Q271.2344,160.9063 272.125,161.7266 Q273.0156,162.5469 274.6094,162.5469 Q275.5469,162.5469 276.2031,162.2969 Q276.5938,162.1406 277.0156,161.7031 Q277.2813,161.4375 277.4297,161.3594 Q277.5781,161.2813 277.7813,161.2813 Q278.1094,161.2813 278.3672,161.5391 Q278.625,161.7969 278.625,162.1406 Q278.625,162.4844 278.2813,162.8906 Q277.7813,163.4688 276.9844,163.7969 Q275.9063,164.25 274.6094,164.25 Q273.0938,164.25 271.8906,163.625 Q270.9063,163.125 270.2188,162.0547 Q269.5313,160.9844 269.5313,159.7031 L269.5313,158.5469 Q269.5313,157.2188 270.1484,156.0703 Q270.7656,154.9219 271.8594,154.3047 Q272.9531,153.6875 274.1875,153.6875 Q274.9219,153.6875 275.5703,153.8516 Q276.2188,154.0156 276.7656,154.375 Z " fill="#000000"/><text fill="#000000" font-family="sans-serif" font-size="14" lengthAdjust="spacing" textLength="83.2549" x="288" y="164.2285">ForwardBody</text><line style="stroke:#181818;stroke-width:0.5;" x1="260" x2="373.2549" y1="174.5" y2="174.5"/><line style="stroke:#181818;stroke-width:0.5;" x1="260" x2="373.2549" y1="182.5" y2="182.5"/></g><!--class ForwardReturnItem--><g id="elem_ForwardReturnItem"><rect fill="#F1F1F1" height="48" id="ForwardReturnItem" rx="2.5" ry="2.5" style="stroke:#181818;stroke-width:0.5;" width="152.5928" x="427" y="142.5"/><ellipse cx="442" cy="158.5" fill="#ADD1B2" rx="11" ry="11" style="stroke:#181818;stroke-width:1.0;"/><path d="M444.7656,154.375 Q444.9219,154.1563 445.1094,154.0469 Q445.2969,153.9375 445.5156,153.9375 Q445.8906,153.9375 446.125,154.1953 Q446.3594,154.4531 446.3594,155.0625 L446.3594,156.5156 Q446.3594,157.125 446.125,157.3906 Q445.8906,157.6563 445.5156,157.6563 Q445.1719,157.6563 444.9688,157.4531 Q444.7656,157.2656 444.6563,156.75 Q444.6094,156.3906 444.4219,156.2031 Q444.0938,155.8281 443.4844,155.6094 Q442.875,155.3906 442.25,155.3906 Q441.4844,155.3906 440.8516,155.7188 Q440.2188,156.0469 439.7266,156.7969 Q439.2344,157.5469 439.2344,158.5781 L439.2344,159.6719 Q439.2344,160.9063 440.125,161.7266 Q441.0156,162.5469 442.6094,162.5469 Q443.5469,162.5469 444.2031,162.2969 Q444.5938,162.1406 445.0156,161.7031 Q445.2813,161.4375 445.4297,161.3594 Q445.5781,161.2813 445.7813,161.2813 Q446.1094,161.2813 446.3672,161.5391 Q446.625,161.7969 446.625,162.1406 Q446.625,162.4844 446.2813,162.8906 Q445.7813,163.4688 444.9844,163.7969 Q443.9063,164.25 442.6094,164.25 Q441.0938,164.25 439.8906,163.625 Q438.9063,163.125 438.2188,162.0547 Q437.5313,160.9844 437.5313,159.7031 L437.5313,158.5469 Q437.5313,157.2188 438.1484,156.0703 Q438.7656,154.9219 439.8594,154.3047 Q440.9531,153.6875 442.1875,153.6875 Q442.9219,153.6875 443.5703,153.8516 Q444.2188,154.0156 444.7656,154.375 Z " fill="#000000"/><text fill="#000000" font-family="sans-serif" font-size="14" lengthAdjust="spacing" textLength="120.5928" x="456" y="164.2285">ForwardReturnItem</text><line style="stroke:#181818;stroke-width:0.5;" x1="428" x2="578.5928" y1="174.5" y2="174.5"/><line style="stroke:#181818;stroke-width:0.5;" x1="428" x2="578.5928" y1="182.5" y2="182.5"/></g><g id="elem_GMN9"><path d="M467.5,315 L467.5,341.3516 A0,0 0 0 0 467.5,341.3516 L575.9453,341.3516 A0,0 0 0 0 575.9453,341.3516 L575.9453,325 L565.9453,315 L524.13,315 L506.12,190.69 L516.13,315 L467.5,315 A0,0 0 0 0 467.5,315 " fill="#FEFFDD" style="stroke:#181818;stroke-width:0.5;"/><path d="M565.9453,315 L565.9453,325 L575.9453,325 L565.9453,315 " fill="#FEFFDD" style="stroke:#181818;stroke-width:0.5;"/><text fill="#000000" font-family="sans-serif" font-size="13" lengthAdjust="spacing" textLength="87.4453" x="473.5" y="333.4951">See next figure</text></g><!--class ScopeSection--><g id="elem_ScopeSection"><rect fill="#F1F1F1" height="48" id="ScopeSection" rx="2.5" ry="2.5" style="stroke:#181818;stroke-width:0.5;" width="118.3926" x="177.5" y="304"/><ellipse cx="192.5" cy="320" fill="#ADD1B2" rx="11" ry="11" style="stroke:#181818;stroke-width:1.0;"/><path d="M195.2656,315.875 Q195.4219,315.6563 195.6094,315.5469 Q195.7969,315.4375 196.0156,315.4375 Q196.3906,315.4375 196.625,315.6953 Q196.8594,315.9531 196.8594,316.5625 L196.8594,318.0156 Q196.8594,318.625 196.625,318.8906 Q196.3906,319.1563 196.0156,319.1563 Q195.6719,319.1563 195.4688,318.9531 Q195.2656,318.7656 195.1563,318.25 Q195.1094,317.8906 194.9219,317.7031 Q194.5938,317.3281 193.9844,317.1094 Q193.375,316.8906 192.75,316.8906 Q191.9844,316.8906 191.3516,317.2188 Q190.7188,317.5469 190.2266,318.2969 Q189.7344,319.0469 189.7344,320.0781 L189.7344,321.1719 Q189.7344,322.4063 190.625,323.2266 Q191.5156,324.0469 193.1094,324.0469 Q194.0469,324.0469 194.7031,323.7969 Q195.0938,323.6406 195.5156,323.2031 Q195.7813,322.9375 195.9297,322.8594 Q196.0781,322.7813 196.2813,322.7813 Q196.6094,322.7813 196.8672,323.0391 Q197.125,323.2969 197.125,323.6406 Q197.125,323.9844 196.7813,324.3906 Q196.2813,324.9688 195.4844,325.2969 Q194.4063,325.75 193.1094,325.75 Q191.5938,325.75 190.3906,325.125 Q189.4063,324.625 188.7188,323.5547 Q188.0313,322.4844 188.0313,321.2031 L188.0313,320.0469 Q188.0313,318.7188 188.6484,317.5703 Q189.2656,316.4219 190.3594,315.8047 Q191.4531,315.1875 192.6875,315.1875 Q193.4219,315.1875 194.0703,315.3516 Q194.7188,315.5156 195.2656,315.875 Z " fill="#000000"/><text fill="#000000" font-family="sans-serif" font-size="14" lengthAdjust="spacing" textLength="86.3926" x="206.5" y="325.7285">ScopeSection</text><line style="stroke:#181818;stroke-width:0.5;" x1="178.5" x2="294.8926" y1="336" y2="336"/><line style="stroke:#181818;stroke-width:0.5;" x1="178.5" x2="294.8926" y1="344" y2="344"/></g><!--class Expression--><g id="elem_Expression"><rect fill="#F1F1F1" height="48" id="Expression" rx="2.5" ry="2.5" style="stroke:#181818;stroke-width:0.5;" width="101.2549" x="331" y="304"/><ellipse cx="346" cy="320" fill="#ADD1B2" rx="11" ry="11" style="stroke:#181818;stroke-width:1.0;"/><path d="M348.7656,315.875 Q348.9219,315.6563 349.1094,315.5469 Q349.2969,315.4375 349.5156,315.4375 Q349.8906,315.4375 350.125,315.6953 Q350.3594,315.9531 350.3594,316.5625 L350.3594,318.0156 Q350.3594,318.625 350.125,318.8906 Q349.8906,319.1563 349.5156,319.1563 Q349.1719,319.1563 348.9688,318.9531 Q348.7656,318.7656 348.6563,318.25 Q348.6094,317.8906 348.4219,317.7031 Q348.0938,317.3281 347.4844,317.1094 Q346.875,316.8906 346.25,316.8906 Q345.4844,316.8906 344.8516,317.2188 Q344.2188,317.5469 343.7266,318.2969 Q343.2344,319.0469 343.2344,320.0781 L343.2344,321.1719 Q343.2344,322.4063 344.125,323.2266 Q345.0156,324.0469 346.6094,324.0469 Q347.5469,324.0469 348.2031,323.7969 Q348.5938,323.6406 349.0156,323.2031 Q349.2813,322.9375 349.4297,322.8594 Q349.5781,322.7813 349.7813,322.7813 Q350.1094,322.7813 350.3672,323.0391 Q350.625,323.2969 350.625,323.6406 Q350.625,323.9844 350.2813,324.3906 Q349.7813,324.9688 348.9844,325.2969 Q347.9063,325.75 346.6094,325.75 Q345.0938,325.75 343.8906,325.125 Q342.9063,324.625 342.2188,323.5547 Q341.5313,322.4844 341.5313,321.2031 L341.5313,320.0469 Q341.5313,318.7188 342.1484,317.5703 Q342.7656,316.4219 343.8594,315.8047 Q344.9531,315.1875 346.1875,315.1875 Q346.9219,315.1875 347.5703,315.3516 Q348.2188,315.5156 348.7656,315.875 Z " fill="#000000"/><text fill="#000000" font-family="sans-serif" font-size="14" lengthAdjust="spacing" textLength="69.2549" x="360" y="325.7285">Expression</text><line style="stroke:#181818;stroke-width:0.5;" x1="332" x2="431.2549" y1="336" y2="336"/><line style="stroke:#181818;stroke-width:0.5;" x1="332" x2="431.2549" y1="344" y2="344"/></g><!--class ForwardElement--><g id="elem_ForwardElement"><rect codeLine="20" fill="#F1F1F1" height="65.6094" id="ForwardElement" rx="2.5" ry="2.5" style="stroke:#181818;stroke-width:0.5;" width="134.7031" x="7" y="295"/><ellipse cx="22" cy="311" fill="#ADD1B2" rx="11" ry="11" style="stroke:#181818;stroke-width:1.0;"/><path d="M24.7656,306.875 Q24.9219,306.6563 25.1094,306.5469 Q25.2969,306.4375 25.5156,306.4375 Q25.8906,306.4375 26.125,306.6953 Q26.3594,306.9531 26.3594,307.5625 L26.3594,309.0156 Q26.3594,309.625 26.125,309.8906 Q25.8906,310.1563 25.5156,310.1563 Q25.1719,310.1563 24.9688,309.9531 Q24.7656,309.7656 24.6563,309.25 Q24.6094,308.8906 24.4219,308.7031 Q24.0938,308.3281 23.4844,308.1094 Q22.875,307.8906 22.25,307.8906 Q21.4844,307.8906 20.8516,308.2188 Q20.2188,308.5469 19.7266,309.2969 Q19.2344,310.0469 19.2344,311.0781 L19.2344,312.1719 Q19.2344,313.4063 20.125,314.2266 Q21.0156,315.0469 22.6094,315.0469 Q23.5469,315.0469 24.2031,314.7969 Q24.5938,314.6406 25.0156,314.2031 Q25.2813,313.9375 25.4297,313.8594 Q25.5781,313.7813 25.7813,313.7813 Q26.1094,313.7813 26.3672,314.0391 Q26.625,314.2969 26.625,314.6406 Q26.625,314.9844 26.2813,315.3906 Q25.7813,315.9688 24.9844,316.2969 Q23.9063,316.75 22.6094,316.75 Q21.0938,316.75 19.8906,316.125 Q18.9063,315.625 18.2188,314.5547 Q17.5313,313.4844 17.5313,312.2031 L17.5313,311.0469 Q17.5313,309.7188 18.1484,308.5703 Q18.7656,307.4219 19.8594,306.8047 Q20.9531,306.1875 22.1875,306.1875 Q22.9219,306.1875 23.5703,306.3516 Q24.2188,306.5156 24.7656,306.875 Z " fill="#000000"/><text fill="#000000" font-family="sans-serif" font-size="14" lengthAdjust="spacing" textLength="102.7031" x="36" y="316.7285">ForwardElement</text><line style="stroke:#181818;stroke-width:0.5;" x1="8" x2="140.7031" y1="327" y2="327"/><text fill="#000000" font-family="sans-serif" font-size="14" lengthAdjust="spacing" textLength="104.2686" x="13" y="345.5332">expr: Expression</text><line style="stroke:#181818;stroke-width:0.5;" x1="8" x2="140.7031" y1="352.6094" y2="352.6094"/></g><!--class ForwardLHS--><g id="elem_ForwardLHS"><rect fill="#F1F1F1" height="48" id="ForwardLHS" rx="2.5" ry="2.5" style="stroke:#181818;stroke-width:0.5;" width="110.5791" x="19" y="422"/><ellipse cx="34" cy="438" fill="#ADD1B2" rx="11" ry="11" style="stroke:#181818;stroke-width:1.0;"/><path d="M36.7656,433.875 Q36.9219,433.6563 37.1094,433.5469 Q37.2969,433.4375 37.5156,433.4375 Q37.8906,433.4375 38.125,433.6953 Q38.3594,433.9531 38.3594,434.5625 L38.3594,436.0156 Q38.3594,436.625 38.125,436.8906 Q37.8906,437.1563 37.5156,437.1563 Q37.1719,437.1563 36.9688,436.9531 Q36.7656,436.7656 36.6563,436.25 Q36.6094,435.8906 36.4219,435.7031 Q36.0938,435.3281 35.4844,435.1094 Q34.875,434.8906 34.25,434.8906 Q33.4844,434.8906 32.8516,435.2188 Q32.2188,435.5469 31.7266,436.2969 Q31.2344,437.0469 31.2344,438.0781 L31.2344,439.1719 Q31.2344,440.4063 32.125,441.2266 Q33.0156,442.0469 34.6094,442.0469 Q35.5469,442.0469 36.2031,441.7969 Q36.5938,441.6406 37.0156,441.2031 Q37.2813,440.9375 37.4297,440.8594 Q37.5781,440.7813 37.7813,440.7813 Q38.1094,440.7813 38.3672,441.0391 Q38.625,441.2969 38.625,441.6406 Q38.625,441.9844 38.2813,442.3906 Q37.7813,442.9688 36.9844,443.2969 Q35.9063,443.75 34.6094,443.75 Q33.0938,443.75 31.8906,443.125 Q30.9063,442.625 30.2188,441.5547 Q29.5313,440.4844 29.5313,439.2031 L29.5313,438.0469 Q29.5313,436.7188 30.1484,435.5703 Q30.7656,434.4219 31.8594,433.8047 Q32.9531,433.1875 34.1875,433.1875 Q34.9219,433.1875 35.5703,433.3516 Q36.2188,433.5156 36.7656,433.875 Z " fill="#000000"/><text fill="#000000" font-family="sans-serif" font-size="14" lengthAdjust="spacing" textLength="78.5791" x="48" y="443.7285">ForwardLHS</text><line style="stroke:#181818;stroke-width:0.5;" x1="20" x2="128.5791" y1="454" y2="454"/><line style="stroke:#181818;stroke-width:0.5;" x1="20" x2="128.5791" y1="462" y2="462"/></g><!--reverse link Forward to ForwardDim--><g id="link_Forward_ForwardDim"><path codeLine="4" d="M272.2564,61.9823 C247.5564,78.7223 223.27,95.18 192.58,115.98 " fill="none" id="Forward-backto-ForwardDim" style="stroke:#181818;stroke-width:1.0;"/><polygon fill="#181818" points="282.19,55.25,274.9791,55.305,272.2564,61.9823,279.4673,61.9273,282.19,55.25" style="stroke:#181818;stroke-width:1.0;"/><text fill="#000000" font-family="sans-serif" font-size="13" lengthAdjust="spacing" textLength="19.5127" x="182.5905" y="105.2825">1..*</text></g><!--reverse link Forward to ForwardBody--><g id="link_Forward_ForwardBody"><path codeLine="5" d="M316.5,67.25 C316.5,91.61 316.5,117.64 316.5,142.06 " fill="none" id="Forward-backto-ForwardBody" style="stroke:#181818;stroke-width:1.0;"/><polygon fill="#181818" points="316.5,55.25,312.5,61.25,316.5,67.25,320.5,61.25,316.5,55.25" style="stroke:#181818;stroke-width:1.0;"/></g><!--reverse link Forward to ForwardReturnItem--><g id="link_Forward_ForwardReturnItem"><path codeLine="6" d="M358.8365,62.2224 C393.0565,86.6524 436.79,117.88 470.99,142.29 " fill="none" id="Forward-backto-ForwardReturnItem" style="stroke:#181818;stroke-width:1.0;"/><polygon fill="#181818" points="349.07,55.25,351.6291,61.9917,358.8365,62.2224,356.2774,55.4807,349.07,55.25" style="stroke:#181818;stroke-width:1.0;"/><text fill="#000000" font-family="sans-serif" font-size="13" lengthAdjust="spacing" textLength="5.0591" x="457.0784" y="131.5763">*</text></g><!--reverse link ForwardBody to ScopeSection--><g id="link_ForwardBody_ScopeSection"><path codeLine="9" d="M299.4893,201.416 C284.3193,231.656 263.32,273.53 248.15,303.78 " fill="none" id="ForwardBody-backto-ScopeSection" style="stroke:#181818;stroke-width:1.0;"/><polygon fill="#181818" points="304.87,190.69,298.6043,194.2594,299.4893,201.416,305.755,197.8466,304.87,190.69" style="stroke:#181818;stroke-width:1.0;"/><text fill="#000000" font-family="sans-serif" font-size="13" lengthAdjust="spacing" textLength="5.0591" x="245.452" y="293.0638">*</text></g><!--reverse link ForwardBody to Expression--><g id="link_ForwardBody_Expression"><path codeLine="10" d="M307.937,202.3949 C303.737,222.8549 303.04,241.3 313.5,265 C320.28,280.35 332.93,293.53 345.51,303.75 " fill="none" id="ForwardBody-backto-Expression" style="stroke:#181818;stroke-width:1.0;"/><polygon fill="#181818" points="310.35,190.64,305.2252,195.7131,307.937,202.3949,313.0618,197.3218,310.35,190.64" style="stroke:#181818;stroke-width:1.0;"/><text fill="#000000" font-family="sans-serif" font-size="13" lengthAdjust="spacing" textLength="23.8481" x="314.5" y="261.4951">until</text><text fill="#000000" font-family="sans-serif" font-size="13" lengthAdjust="spacing" textLength="21.6836" x="312.6519" y="293.0261">0..1</text></g><!--reverse link ForwardBody to Expression--><g id="link_ForwardBody_Expression"><path codeLine="11" d="M330.4807,201.8018 C342.8107,232.0418 359.71,273.53 372.04,303.78 " fill="none" id="ForwardBody-backto-Expression-1" style="stroke:#181818;stroke-width:1.0;"/><polygon fill="#181818" points="325.95,190.69,324.5114,197.7561,330.4807,201.8018,331.9193,194.7357,325.95,190.69" style="stroke:#181818;stroke-width:1.0;"/><text fill="#000000" font-family="sans-serif" font-size="13" lengthAdjust="spacing" textLength="37.5781" x="356.5" y="261.4951">unless</text><text fill="#000000" font-family="sans-serif" font-size="13" lengthAdjust="spacing" textLength="21.6836" x="345.9802" y="293.0638">0..1</text></g><!--reverse link ForwardDim to ForwardElement--><g id="link_ForwardDim_ForwardElement"><path codeLine="19" d="M102.252,228.6393 C95.132,253.8793 89.93,272.3 83.65,294.56 " fill="none" id="ForwardDim-backto-ForwardElement" style="stroke:#181818;stroke-width:1.0;"/><polygon fill="#181818" points="105.51,217.09,100.0313,221.7787,102.252,228.6393,107.7308,223.9506,105.51,217.09" style="stroke:#181818;stroke-width:1.0;"/><text fill="#000000" font-family="sans-serif" font-size="13" lengthAdjust="spacing" textLength="5.0591" x="79.9516" y="284.2264">*</text></g><!--reverse link ForwardElement to ForwardLHS--><g id="link_ForwardElement_ForwardLHS"><path codeLine="23" d="M74.5,373 C74.5,392.32 74.5,404.48 74.5,421.93 " fill="none" id="ForwardElement-backto-ForwardLHS" style="stroke:#181818;stroke-width:1.0;"/><polygon fill="#181818" points="74.5,361,70.5,367,74.5,373,78.5,367,74.5,361" style="stroke:#181818;stroke-width:1.0;"/></g><!--SRC=[ZP71JiCm38RlUGgh5s3IAiQnHyGGbNQYJn1ITqGaSUIusX3YtKbHAMqd97Aoyd-__JkvWaVYa-PMfJSRecRjuSZKnpgy8blHmI3SAJLIiDbkeTYLvQRuCJvOlr37-fxQzwNhr_ACqdEe1RqA90Wl948UgBi4AcWG8U1PeBF7dd6ACWoO6ZU68ZPen5Au16xBSbV0_XmPKyf41NqGw_u7kbmgPPnEQROoV2Z81pDQpGnmJN78eDtDjsxR2keMyxJE8g_Lo7bx8vYX90lrSrfpcBLwlhr3drikCusNV-JA3LVSxAiEJutw0W00]--></g></svg>