<svg xmlns="http://www.w3.org/2000/svg" xmlns:xlink="http://www.w3.org/1999/xlink" contentStyleType="text/css" height="190px" preserveAspectRatio="none" style="width:222px;height:190px;background:#FFFFFF;" version="1.1" viewBox="0 0 222 190" width="222px" zoomAndPan="magnify"><defs/><g><!--class Expression--><g id="elem_Expression"><rect fill="#F1F1F1" height="48" id="Expression" rx="2.5" ry="2.5" style="stroke:#181818;stroke-width:0.5;" width="101.2549" x="57.5" y="7"/><ellipse cx="72.5" cy="23" fill="#ADD1B2" rx="11" ry="11" style="stroke:#181818;stroke-width:1.0;"/><path d="M75.2656,18.875 Q75.4219,18.6563 75.6094,18.5469 Q75.7969,18.4375 76.0156,18.4375 Q76.3906,18.4375 76.625,18.6953 Q76.8594,18.9531 76.8594,19.5625 L76.8594,21.0156 Q76.8594,21.625 76.625,21.8906 Q76.3906,22.1563 76.0156,22.1563 Q75.6719,22.1563 75.4688,21.9531 Q75.2656,21.7656 75.1563,21.25 Q75.1094,20.8906 74.9219,20.7031 Q74.5938,20.3281 73.9844,20.1094 Q73.375,19.8906 72.75,19.8906 Q71.9844,19.8906 71.3516,20.2188 Q70.7188,20.5469 70.2266,21.2969 Q69.7344,22.0469 69.7344,23.0781 L69.7344,24.1719 Q69.7344,25.4063 70.625,26.2266 Q71.5156,27.0469 73.1094,27.0469 Q74.0469,27.0469 74.7031,26.7969 Q75.0938,26.6406 75.5156,26.2031 Q75.7813,25.9375 75.9297,25.8594 Q76.0781,25.7813 76.2813,25.7813 Q76.6094,25.7813 76.8672,26.0391 Q77.125,26.2969 77.125,26.6406 Q77.125,26.9844 76.7813,27.3906 Q76.2813,27.9688 75.4844,28.2969 Q74.4063,28.75 73.1094,28.75 Q71.5938,28.75 70.3906,28.125 Q69.4063,27.625 68.7188,26.5547 Q68.0313,25.4844 68.0313,24.2031 L68.0313,23.0469 Q68.0313,21.7188 68.6484,20.5703 Q69.2656,19.4219 70.3594,18.8047 Q71.4531,18.1875 72.6875,18.1875 Q73.4219,18.1875 74.0703,18.3516 Q74.7188,18.5156 75.2656,18.875 Z " fill="#000000"/><text fill="#000000" font-family="sans-serif" font-size="14" lengthAdjust="spacing" textLength="69.2549" x="86.5" y="28.7285">Expression</text><line style="stroke:#181818;stroke-width:0.5;" x1="58.5" x2="157.7549" y1="39" y2="39"/><line style="stroke:#181818;stroke-width:0.5;" x1="58.5" x2="157.7549" y1="47" y2="47"/></g><polygon fill="none" points="108.0595,55,115.0028,75.0197,101.0029,74.9801" style="stroke:#181818;stroke-width:1.0;"/><line style="stroke:#181818;stroke-width:1.0;" x1="108.0028" x2="108" y1="74.9999" y2="76"/><!--class IfteExpr--><g id="elem_IfteExpr"><rect fill="#F1F1F1" height="48" id="IfteExpr" rx="2.5" ry="2.5" style="stroke:#181818;stroke-width:0.5;" width="80.2412" x="7" y="135"/><ellipse cx="22" cy="151" fill="#ADD1B2" rx="11" ry="11" style="stroke:#181818;stroke-width:1.0;"/><path d="M24.7656,146.875 Q24.9219,146.6563 25.1094,146.5469 Q25.2969,146.4375 25.5156,146.4375 Q25.8906,146.4375 26.125,146.6953 Q26.3594,146.9531 26.3594,147.5625 L26.3594,149.0156 Q26.3594,149.625 26.125,149.8906 Q25.8906,150.1563 25.5156,150.1563 Q25.1719,150.1563 24.9688,149.9531 Q24.7656,149.7656 24.6563,149.25 Q24.6094,148.8906 24.4219,148.7031 Q24.0938,148.3281 23.4844,148.1094 Q22.875,147.8906 22.25,147.8906 Q21.4844,147.8906 20.8516,148.2188 Q20.2188,148.5469 19.7266,149.2969 Q19.2344,150.0469 19.2344,151.0781 L19.2344,152.1719 Q19.2344,153.4063 20.125,154.2266 Q21.0156,155.0469 22.6094,155.0469 Q23.5469,155.0469 24.2031,154.7969 Q24.5938,154.6406 25.0156,154.2031 Q25.2813,153.9375 25.4297,153.8594 Q25.5781,153.7813 25.7813,153.7813 Q26.1094,153.7813 26.3672,154.0391 Q26.625,154.2969 26.625,154.6406 Q26.625,154.9844 26.2813,155.3906 Q25.7813,155.9688 24.9844,156.2969 Q23.9063,156.75 22.6094,156.75 Q21.0938,156.75 19.8906,156.125 Q18.9063,155.625 18.2188,154.5547 Q17.5313,153.4844 17.5313,152.2031 L17.5313,151.0469 Q17.5313,149.7188 18.1484,148.5703 Q18.7656,147.4219 19.8594,146.8047 Q20.9531,146.1875 22.1875,146.1875 Q22.9219,146.1875 23.5703,146.3516 Q24.2188,146.5156 24.7656,146.875 Z " fill="#000000"/><text fill="#000000" font-family="sans-serif" font-size="14" lengthAdjust="spacing" textLength="48.2412" x="36" y="156.7285">IfteExpr</text><line style="stroke:#181818;stroke-width:0.5;" x1="8" x2="86.2412" y1="167" y2="167"/><line style="stroke:#181818;stroke-width:0.5;" x1="8" x2="86.2412" y1="175" y2="175"/></g><!--class CaseExpr--><g id="elem_CaseExpr"><rect fill="#F1F1F1" height="48" id="CaseExpr" rx="2.5" ry="2.5" style="stroke:#181818;stroke-width:0.5;" width="93.4688" x="122.5" y="135"/><ellipse cx="137.5" cy="151" fill="#ADD1B2" rx="11" ry="11" style="stroke:#181818;stroke-width:1.0;"/><path d="M140.2656,146.875 Q140.4219,146.6563 140.6094,146.5469 Q140.7969,146.4375 141.0156,146.4375 Q141.3906,146.4375 141.625,146.6953 Q141.8594,146.9531 141.8594,147.5625 L141.8594,149.0156 Q141.8594,149.625 141.625,149.8906 Q141.3906,150.1563 141.0156,150.1563 Q140.6719,150.1563 140.4688,149.9531 Q140.2656,149.7656 140.1563,149.25 Q140.1094,148.8906 139.9219,148.7031 Q139.5938,148.3281 138.9844,148.1094 Q138.375,147.8906 137.75,147.8906 Q136.9844,147.8906 136.3516,148.2188 Q135.7188,148.5469 135.2266,149.2969 Q134.7344,150.0469 134.7344,151.0781 L134.7344,152.1719 Q134.7344,153.4063 135.625,154.2266 Q136.5156,155.0469 138.1094,155.0469 Q139.0469,155.0469 139.7031,154.7969 Q140.0938,154.6406 140.5156,154.2031 Q140.7813,153.9375 140.9297,153.8594 Q141.0781,153.7813 141.2813,153.7813 Q141.6094,153.7813 141.8672,154.0391 Q142.125,154.2969 142.125,154.6406 Q142.125,154.9844 141.7813,155.3906 Q141.2813,155.9688 140.4844,156.2969 Q139.4063,156.75 138.1094,156.75 Q136.5938,156.75 135.3906,156.125 Q134.4063,155.625 133.7188,154.5547 Q133.0313,153.4844 133.0313,152.2031 L133.0313,151.0469 Q133.0313,149.7188 133.6484,148.5703 Q134.2656,147.4219 135.3594,146.8047 Q136.4531,146.1875 137.6875,146.1875 Q138.4219,146.1875 139.0703,146.3516 Q139.7188,146.5156 140.2656,146.875 Z " fill="#000000"/><text fill="#000000" font-family="sans-serif" font-size="14" lengthAdjust="spacing" textLength="61.4688" x="151.5" y="156.7285">CaseExpr</text><line style="stroke:#181818;stroke-width:0.5;" x1="123.5" x2="214.9688" y1="167" y2="167"/><line style="stroke:#181818;stroke-width:0.5;" x1="123.5" x2="214.9688" y1="175" y2="175"/></g><!--reverse link Expression to IfteExpr--><g id="link_Expression_IfteExpr"><path codeLine="4" d="M108,76 C108,76 82.35,110.48 64.32,134.72 " fill="none" id="Expression-backto-IfteExpr" style="stroke:#181818;stroke-width:1.0;"/></g><!--reverse link Expression to CaseExpr--><g id="link_Expression_CaseExpr"><path codeLine="5" d="M108,76 C108,76 133.65,110.48 151.68,134.72 " fill="none" id="Expression-backto-CaseExpr" style="stroke:#181818;stroke-width:1.0;"/></g><!--SRC=[KrS8Jir9JIx9pC_ZAixEp2j8B4hCLKWloYyjyCpBI2tAB4dCIqvLCEBYSgqeA4ejBWOgLB2fqTLLy4mhIGM9OKWu9nP39000]--></g></svg>