<svg xmlns="http://www.w3.org/2000/svg" xmlns:xlink="http://www.w3.org/1999/xlink" contentStyleType="text/css" data-diagram-type="CLASS" height="386px" preserveAspectRatio="none" style="width:836px;height:386px;background:#FFFFFF;" version="1.1" viewBox="0 0 836 386" width="836px" zoomAndPan="magnify"><defs/><g><!--class Position--><g class="entity" data-entity="Position" data-source-line="4" data-uid="ent0002" id="entity_Position"><rect fill="#F1F1F1" height="48" rx="2.5" ry="2.5" style="stroke:#181818;stroke-width:0.5;" width="81.8066" x="40.6203" y="331"/><ellipse cx="55.6203" cy="347" fill="#EB937F" rx="11" ry="11" style="stroke:#181818;stroke-width:1;"/><path d="M54.4797,347.7969 L54.4797,350.2969 L58.8078,350.2969 L58.8078,349.375 Q58.8078,348.7656 59.05,348.5 Q59.2922,348.2344 59.6672,348.2344 Q60.0422,348.2344 60.2765,348.5 Q60.5109,348.7656 60.5109,349.375 L60.5109,352 L52.5109,352 Q51.8859,352 51.6281,351.7656 Q51.3703,351.5313 51.3703,351.1406 Q51.3703,350.7656 51.6359,350.5313 Q51.9015,350.2969 52.5109,350.2969 L52.7765,350.2969 L52.7765,343.6406 L52.5109,343.6406 Q51.8859,343.6406 51.6281,343.4063 Q51.3703,343.1719 51.3703,342.7813 Q51.3703,342.4063 51.6281,342.1719 Q51.8859,341.9375 52.5109,341.9375 L60.1359,341.9375 L60.1359,344.5313 Q60.1359,345.1406 59.9093,345.3984 Q59.6828,345.6563 59.2922,345.6563 Q58.9172,345.6563 58.6828,345.3984 Q58.4484,345.1406 58.4484,344.5313 L58.4484,343.6406 L54.4797,343.6406 L54.4797,346.0938 L55.964,346.0938 Q55.964,345.4375 56.089,345.25 Q56.3547,344.8438 56.8234,344.8438 Q57.1984,344.8438 57.4328,345.1016 Q57.6672,345.3594 57.6672,345.9688 L57.6672,347.9375 Q57.6672,348.4844 57.5422,348.6719 Q57.2765,349.0625 56.8234,349.0625 Q56.3547,349.0625 56.089,348.6563 Q55.964,348.4688 55.964,347.7969 L54.4797,347.7969 Z " fill="#000000"/><text fill="#000000" font-family="sans-serif" font-size="14" lengthAdjust="spacing" textLength="49.8066" x="69.6203" y="352.7285">Position</text><line style="stroke:#181818;stroke-width:0.5;" x1="41.6203" x2="121.4269" y1="363" y2="363"/><line style="stroke:#181818;stroke-width:0.5;" x1="41.6203" x2="121.4269" y1="371" y2="371"/></g><!--class DirectionType--><g class="entity" data-entity="DirectionType" data-source-line="5" data-uid="ent0003" id="entity_DirectionType"><rect fill="#F1F1F1" height="48" rx="2.5" ry="2.5" style="stroke:#181818;stroke-width:0.5;" width="118.3652" x="219.6203" y="223"/><ellipse cx="234.6203" cy="239" fill="#EB937F" rx="11" ry="11" style="stroke:#181818;stroke-width:1;"/><path d="M233.4797,239.7969 L233.4797,242.2969 L237.8078,242.2969 L237.8078,241.375 Q237.8078,240.7656 238.05,240.5 Q238.2922,240.2344 238.6672,240.2344 Q239.0422,240.2344 239.2765,240.5 Q239.5109,240.7656 239.5109,241.375 L239.5109,244 L231.5109,244 Q230.8859,244 230.6281,243.7656 Q230.3703,243.5313 230.3703,243.1406 Q230.3703,242.7656 230.6359,242.5313 Q230.9015,242.2969 231.5109,242.2969 L231.7765,242.2969 L231.7765,235.6406 L231.5109,235.6406 Q230.8859,235.6406 230.6281,235.4063 Q230.3703,235.1719 230.3703,234.7813 Q230.3703,234.4063 230.6281,234.1719 Q230.8859,233.9375 231.5109,233.9375 L239.1359,233.9375 L239.1359,236.5313 Q239.1359,237.1406 238.9093,237.3984 Q238.6828,237.6563 238.2922,237.6563 Q237.9172,237.6563 237.6828,237.3984 Q237.4484,237.1406 237.4484,236.5313 L237.4484,235.6406 L233.4797,235.6406 L233.4797,238.0938 L234.964,238.0938 Q234.964,237.4375 235.089,237.25 Q235.3547,236.8438 235.8234,236.8438 Q236.1984,236.8438 236.4328,237.1016 Q236.6672,237.3594 236.6672,237.9688 L236.6672,239.9375 Q236.6672,240.4844 236.5422,240.6719 Q236.2765,241.0625 235.8234,241.0625 Q235.3547,241.0625 235.089,240.6563 Q234.964,240.4688 234.964,239.7969 L233.4797,239.7969 Z " fill="#000000"/><text fill="#000000" font-family="sans-serif" font-size="14" lengthAdjust="spacing" textLength="86.3652" x="248.6203" y="244.7285">DirectionType</text><line style="stroke:#181818;stroke-width:0.5;" x1="220.6203" x2="336.9855" y1="255" y2="255"/><line style="stroke:#181818;stroke-width:0.5;" x1="220.6203" x2="336.9855" y1="263" y2="263"/></g><!--class OrientationType--><g class="entity" data-entity="OrientationType" data-source-line="6" data-uid="ent0004" id="entity_OrientationType"><rect fill="#F1F1F1" height="48" rx="2.5" ry="2.5" style="stroke:#181818;stroke-width:0.5;" width="131.6064" x="372.6203" y="223"/><ellipse cx="387.6203" cy="239" fill="#EB937F" rx="11" ry="11" style="stroke:#181818;stroke-width:1;"/><path d="M386.4797,239.7969 L386.4797,242.2969 L390.8078,242.2969 L390.8078,241.375 Q390.8078,240.7656 391.05,240.5 Q391.2922,240.2344 391.6672,240.2344 Q392.0422,240.2344 392.2765,240.5 Q392.5109,240.7656 392.5109,241.375 L392.5109,244 L384.5109,244 Q383.8859,244 383.6281,243.7656 Q383.3703,243.5313 383.3703,243.1406 Q383.3703,242.7656 383.6359,242.5313 Q383.9015,242.2969 384.5109,242.2969 L384.7765,242.2969 L384.7765,235.6406 L384.5109,235.6406 Q383.8859,235.6406 383.6281,235.4063 Q383.3703,235.1719 383.3703,234.7813 Q383.3703,234.4063 383.6281,234.1719 Q383.8859,233.9375 384.5109,233.9375 L392.1359,233.9375 L392.1359,236.5313 Q392.1359,237.1406 391.9093,237.3984 Q391.6828,237.6563 391.2922,237.6563 Q390.9172,237.6563 390.6828,237.3984 Q390.4484,237.1406 390.4484,236.5313 L390.4484,235.6406 L386.4797,235.6406 L386.4797,238.0938 L387.964,238.0938 Q387.964,237.4375 388.089,237.25 Q388.3547,236.8438 388.8234,236.8438 Q389.1984,236.8438 389.4328,237.1016 Q389.6672,237.3594 389.6672,237.9688 L389.6672,239.9375 Q389.6672,240.4844 389.5422,240.6719 Q389.2765,241.0625 388.8234,241.0625 Q388.3547,241.0625 388.089,240.6563 Q387.964,240.4688 387.964,239.7969 L386.4797,239.7969 Z " fill="#000000"/><text fill="#000000" font-family="sans-serif" font-size="14" lengthAdjust="spacing" textLength="99.6064" x="401.6203" y="244.7285">OrientationType</text><line style="stroke:#181818;stroke-width:0.5;" x1="373.6203" x2="503.2267" y1="255" y2="255"/><line style="stroke:#181818;stroke-width:0.5;" x1="373.6203" x2="503.2267" y1="263" y2="263"/></g><!--class DiagramPragma--><g class="entity" data-entity="DiagramPragma" data-source-line="8" data-uid="ent0005" id="entity_DiagramPragma"><rect fill="#F1F1F1" height="48" rx="2.5" ry="2.5" style="stroke:#181818;stroke-width:0.5;" width="133.9238" x="304.6203" y="7"/><ellipse cx="319.6203" cy="23" fill="#ADD1B2" rx="11" ry="11" style="stroke:#181818;stroke-width:1;"/><path d="M322.3859,18.875 Q322.5422,18.6563 322.7297,18.5469 Q322.9172,18.4375 323.1359,18.4375 Q323.5109,18.4375 323.7453,18.6953 Q323.9797,18.9531 323.9797,19.5625 L323.9797,21.0156 Q323.9797,21.625 323.7453,21.8906 Q323.5109,22.1563 323.1359,22.1563 Q322.7922,22.1563 322.589,21.9531 Q322.3859,21.7656 322.2765,21.25 Q322.2297,20.8906 322.0422,20.7031 Q321.714,20.3281 321.1047,20.1094 Q320.4953,19.8906 319.8703,19.8906 Q319.1047,19.8906 318.4718,20.2188 Q317.839,20.5469 317.3468,21.2969 Q316.8547,22.0469 316.8547,23.0781 L316.8547,24.1719 Q316.8547,25.4063 317.7453,26.2266 Q318.6359,27.0469 320.2297,27.0469 Q321.1672,27.0469 321.8234,26.7969 Q322.214,26.6406 322.6359,26.2031 Q322.9015,25.9375 323.05,25.8594 Q323.1984,25.7813 323.4015,25.7813 Q323.7297,25.7813 323.9875,26.0391 Q324.2453,26.2969 324.2453,26.6406 Q324.2453,26.9844 323.9015,27.3906 Q323.4015,27.9688 322.6047,28.2969 Q321.5265,28.75 320.2297,28.75 Q318.714,28.75 317.5109,28.125 Q316.5265,27.625 315.839,26.5547 Q315.1515,25.4844 315.1515,24.2031 L315.1515,23.0469 Q315.1515,21.7188 315.7687,20.5703 Q316.3859,19.4219 317.4797,18.8047 Q318.5734,18.1875 319.8078,18.1875 Q320.5422,18.1875 321.1906,18.3516 Q321.839,18.5156 322.3859,18.875 Z " fill="#000000"/><text fill="#000000" font-family="sans-serif" font-size="14" lengthAdjust="spacing" textLength="101.9238" x="333.6203" y="28.7285">DiagramPragma</text><line style="stroke:#181818;stroke-width:0.5;" x1="305.6203" x2="437.5441" y1="39" y2="39"/><line style="stroke:#181818;stroke-width:0.5;" x1="305.6203" x2="437.5441" y1="47" y2="47"/></g><!--class Coordinates--><g class="entity" data-entity="Coordinates" data-source-line="8" data-uid="ent0006" id="entity_Coordinates"><rect fill="#F1F1F1" height="48" rx="2.5" ry="2.5" style="stroke:#181818;stroke-width:0.5;" width="107.4893" x="28.1203" y="115"/><ellipse cx="43.1203" cy="131" fill="#ADD1B2" rx="11" ry="11" style="stroke:#181818;stroke-width:1;"/><path d="M45.8859,126.875 Q46.0422,126.6563 46.2297,126.5469 Q46.4172,126.4375 46.6359,126.4375 Q47.0109,126.4375 47.2453,126.6953 Q47.4797,126.9531 47.4797,127.5625 L47.4797,129.0156 Q47.4797,129.625 47.2453,129.8906 Q47.0109,130.1563 46.6359,130.1563 Q46.2922,130.1563 46.089,129.9531 Q45.8859,129.7656 45.7765,129.25 Q45.7297,128.8906 45.5422,128.7031 Q45.214,128.3281 44.6047,128.1094 Q43.9953,127.8906 43.3703,127.8906 Q42.6047,127.8906 41.9718,128.2188 Q41.339,128.5469 40.8468,129.2969 Q40.3547,130.0469 40.3547,131.0781 L40.3547,132.1719 Q40.3547,133.4063 41.2453,134.2266 Q42.1359,135.0469 43.7297,135.0469 Q44.6672,135.0469 45.3234,134.7969 Q45.714,134.6406 46.1359,134.2031 Q46.4015,133.9375 46.55,133.8594 Q46.6984,133.7813 46.9015,133.7813 Q47.2297,133.7813 47.4875,134.0391 Q47.7453,134.2969 47.7453,134.6406 Q47.7453,134.9844 47.4015,135.3906 Q46.9015,135.9688 46.1047,136.2969 Q45.0265,136.75 43.7297,136.75 Q42.214,136.75 41.0109,136.125 Q40.0265,135.625 39.339,134.5547 Q38.6515,133.4844 38.6515,132.2031 L38.6515,131.0469 Q38.6515,129.7188 39.2687,128.5703 Q39.8859,127.4219 40.9797,126.8047 Q42.0734,126.1875 43.3078,126.1875 Q44.0422,126.1875 44.6906,126.3516 Q45.339,126.5156 45.8859,126.875 Z " fill="#000000"/><text fill="#000000" font-family="sans-serif" font-size="14" lengthAdjust="spacing" textLength="75.4893" x="57.1203" y="136.7285">Coordinates</text><line style="stroke:#181818;stroke-width:0.5;" x1="29.1203" x2="134.6095" y1="147" y2="147"/><line style="stroke:#181818;stroke-width:0.5;" x1="29.1203" x2="134.6095" y1="155" y2="155"/></g><!--class Size--><g class="entity" data-entity="Size" data-source-line="9" data-uid="ent0008" id="entity_Size"><rect fill="#F1F1F1" height="48" rx="2.5" ry="2.5" style="stroke:#181818;stroke-width:0.5;" width="59.2344" x="170.1203" y="115"/><ellipse cx="185.1203" cy="131" fill="#ADD1B2" rx="11" ry="11" style="stroke:#181818;stroke-width:1;"/><path d="M187.8859,126.875 Q188.0422,126.6563 188.2297,126.5469 Q188.4172,126.4375 188.6359,126.4375 Q189.0109,126.4375 189.2453,126.6953 Q189.4797,126.9531 189.4797,127.5625 L189.4797,129.0156 Q189.4797,129.625 189.2453,129.8906 Q189.0109,130.1563 188.6359,130.1563 Q188.2922,130.1563 188.089,129.9531 Q187.8859,129.7656 187.7765,129.25 Q187.7297,128.8906 187.5422,128.7031 Q187.214,128.3281 186.6047,128.1094 Q185.9953,127.8906 185.3703,127.8906 Q184.6047,127.8906 183.9718,128.2188 Q183.339,128.5469 182.8468,129.2969 Q182.3547,130.0469 182.3547,131.0781 L182.3547,132.1719 Q182.3547,133.4063 183.2453,134.2266 Q184.1359,135.0469 185.7297,135.0469 Q186.6672,135.0469 187.3234,134.7969 Q187.714,134.6406 188.1359,134.2031 Q188.4015,133.9375 188.55,133.8594 Q188.6984,133.7813 188.9015,133.7813 Q189.2297,133.7813 189.4875,134.0391 Q189.7453,134.2969 189.7453,134.6406 Q189.7453,134.9844 189.4015,135.3906 Q188.9015,135.9688 188.1047,136.2969 Q187.0265,136.75 185.7297,136.75 Q184.214,136.75 183.0109,136.125 Q182.0265,135.625 181.339,134.5547 Q180.6515,133.4844 180.6515,132.2031 L180.6515,131.0469 Q180.6515,129.7188 181.2687,128.5703 Q181.8859,127.4219 182.9797,126.8047 Q184.0734,126.1875 185.3078,126.1875 Q186.0422,126.1875 186.6906,126.3516 Q187.339,126.5156 187.8859,126.875 Z " fill="#000000"/><text fill="#000000" font-family="sans-serif" font-size="14" lengthAdjust="spacing" textLength="27.2344" x="199.1203" y="136.7285">Size</text><line style="stroke:#181818;stroke-width:0.5;" x1="171.1203" x2="228.3547" y1="147" y2="147"/><line style="stroke:#181818;stroke-width:0.5;" x1="171.1203" x2="228.3547" y1="155" y2="155"/></g><!--class Direction--><g class="entity" data-entity="Direction" data-source-line="10" data-uid="ent0010" id="entity_Direction"><rect fill="#F1F1F1" height="48" rx="2.5" ry="2.5" style="stroke:#181818;stroke-width:0.5;" width="87.2412" x="264.1203" y="115"/><ellipse cx="279.1203" cy="131" fill="#ADD1B2" rx="11" ry="11" style="stroke:#181818;stroke-width:1;"/><path d="M281.8859,126.875 Q282.0422,126.6563 282.2297,126.5469 Q282.4172,126.4375 282.6359,126.4375 Q283.0109,126.4375 283.2453,126.6953 Q283.4797,126.9531 283.4797,127.5625 L283.4797,129.0156 Q283.4797,129.625 283.2453,129.8906 Q283.0109,130.1563 282.6359,130.1563 Q282.2922,130.1563 282.089,129.9531 Q281.8859,129.7656 281.7765,129.25 Q281.7297,128.8906 281.5422,128.7031 Q281.214,128.3281 280.6047,128.1094 Q279.9953,127.8906 279.3703,127.8906 Q278.6047,127.8906 277.9718,128.2188 Q277.339,128.5469 276.8468,129.2969 Q276.3547,130.0469 276.3547,131.0781 L276.3547,132.1719 Q276.3547,133.4063 277.2453,134.2266 Q278.1359,135.0469 279.7297,135.0469 Q280.6672,135.0469 281.3234,134.7969 Q281.714,134.6406 282.1359,134.2031 Q282.4015,133.9375 282.55,133.8594 Q282.6984,133.7813 282.9015,133.7813 Q283.2297,133.7813 283.4875,134.0391 Q283.7453,134.2969 283.7453,134.6406 Q283.7453,134.9844 283.4015,135.3906 Q282.9015,135.9688 282.1047,136.2969 Q281.0265,136.75 279.7297,136.75 Q278.214,136.75 277.0109,136.125 Q276.0265,135.625 275.339,134.5547 Q274.6515,133.4844 274.6515,132.2031 L274.6515,131.0469 Q274.6515,129.7188 275.2687,128.5703 Q275.8859,127.4219 276.9797,126.8047 Q278.0734,126.1875 279.3078,126.1875 Q280.0422,126.1875 280.6906,126.3516 Q281.339,126.5156 281.8859,126.875 Z " fill="#000000"/><text fill="#000000" font-family="sans-serif" font-size="14" lengthAdjust="spacing" textLength="55.2412" x="293.1203" y="136.7285">Direction</text><line style="stroke:#181818;stroke-width:0.5;" x1="265.1203" x2="350.3615" y1="147" y2="147"/><line style="stroke:#181818;stroke-width:0.5;" x1="265.1203" x2="350.3615" y1="155" y2="155"/></g><!--class Orientation--><g class="entity" data-entity="Orientation" data-source-line="11" data-uid="ent0012" id="entity_Orientation"><rect fill="#F1F1F1" height="48" rx="2.5" ry="2.5" style="stroke:#181818;stroke-width:0.5;" width="100.4824" x="386.6203" y="115"/><ellipse cx="401.6203" cy="131" fill="#ADD1B2" rx="11" ry="11" style="stroke:#181818;stroke-width:1;"/><path d="M404.3859,126.875 Q404.5422,126.6563 404.7297,126.5469 Q404.9172,126.4375 405.1359,126.4375 Q405.5109,126.4375 405.7453,126.6953 Q405.9797,126.9531 405.9797,127.5625 L405.9797,129.0156 Q405.9797,129.625 405.7453,129.8906 Q405.5109,130.1563 405.1359,130.1563 Q404.7922,130.1563 404.589,129.9531 Q404.3859,129.7656 404.2765,129.25 Q404.2297,128.8906 404.0422,128.7031 Q403.714,128.3281 403.1047,128.1094 Q402.4953,127.8906 401.8703,127.8906 Q401.1047,127.8906 400.4718,128.2188 Q399.839,128.5469 399.3468,129.2969 Q398.8547,130.0469 398.8547,131.0781 L398.8547,132.1719 Q398.8547,133.4063 399.7453,134.2266 Q400.6359,135.0469 402.2297,135.0469 Q403.1672,135.0469 403.8234,134.7969 Q404.214,134.6406 404.6359,134.2031 Q404.9015,133.9375 405.05,133.8594 Q405.1984,133.7813 405.4015,133.7813 Q405.7297,133.7813 405.9875,134.0391 Q406.2453,134.2969 406.2453,134.6406 Q406.2453,134.9844 405.9015,135.3906 Q405.4015,135.9688 404.6047,136.2969 Q403.5265,136.75 402.2297,136.75 Q400.714,136.75 399.5109,136.125 Q398.5265,135.625 397.839,134.5547 Q397.1515,133.4844 397.1515,132.2031 L397.1515,131.0469 Q397.1515,129.7188 397.7687,128.5703 Q398.3859,127.4219 399.4797,126.8047 Q400.5734,126.1875 401.8078,126.1875 Q402.5422,126.1875 403.1906,126.3516 Q403.839,126.5156 404.3859,126.875 Z " fill="#000000"/><text fill="#000000" font-family="sans-serif" font-size="14" lengthAdjust="spacing" textLength="68.4824" x="415.6203" y="136.7285">Orientation</text><line style="stroke:#181818;stroke-width:0.5;" x1="387.6203" x2="486.1027" y1="147" y2="147"/><line style="stroke:#181818;stroke-width:0.5;" x1="387.6203" x2="486.1027" y1="155" y2="155"/></g><!--class PathInfo--><g class="entity" data-entity="PathInfo" data-source-line="12" data-uid="ent0014" id="entity_PathInfo"><rect fill="#F1F1F1" height="48" rx="2.5" ry="2.5" style="stroke:#181818;stroke-width:0.5;" width="84.1514" x="521.6203" y="115"/><ellipse cx="536.6203" cy="131" fill="#ADD1B2" rx="11" ry="11" style="stroke:#181818;stroke-width:1;"/><path d="M539.3859,126.875 Q539.5422,126.6563 539.7297,126.5469 Q539.9172,126.4375 540.1359,126.4375 Q540.5109,126.4375 540.7453,126.6953 Q540.9797,126.9531 540.9797,127.5625 L540.9797,129.0156 Q540.9797,129.625 540.7453,129.8906 Q540.5109,130.1563 540.1359,130.1563 Q539.7922,130.1563 539.589,129.9531 Q539.3859,129.7656 539.2765,129.25 Q539.2297,128.8906 539.0422,128.7031 Q538.714,128.3281 538.1047,128.1094 Q537.4953,127.8906 536.8703,127.8906 Q536.1047,127.8906 535.4718,128.2188 Q534.839,128.5469 534.3468,129.2969 Q533.8547,130.0469 533.8547,131.0781 L533.8547,132.1719 Q533.8547,133.4063 534.7453,134.2266 Q535.6359,135.0469 537.2297,135.0469 Q538.1672,135.0469 538.8234,134.7969 Q539.214,134.6406 539.6359,134.2031 Q539.9015,133.9375 540.05,133.8594 Q540.1984,133.7813 540.4015,133.7813 Q540.7297,133.7813 540.9875,134.0391 Q541.2453,134.2969 541.2453,134.6406 Q541.2453,134.9844 540.9015,135.3906 Q540.4015,135.9688 539.6047,136.2969 Q538.5265,136.75 537.2297,136.75 Q535.714,136.75 534.5109,136.125 Q533.5265,135.625 532.839,134.5547 Q532.1515,133.4844 532.1515,132.2031 L532.1515,131.0469 Q532.1515,129.7188 532.7687,128.5703 Q533.3859,127.4219 534.4797,126.8047 Q535.5734,126.1875 536.8078,126.1875 Q537.5422,126.1875 538.1906,126.3516 Q538.839,126.5156 539.3859,126.875 Z " fill="#000000"/><text fill="#000000" font-family="sans-serif" font-size="14" lengthAdjust="spacing" textLength="52.1514" x="550.6203" y="136.7285">PathInfo</text><line style="stroke:#181818;stroke-width:0.5;" x1="522.6203" x2="604.7717" y1="147" y2="147"/><line style="stroke:#181818;stroke-width:0.5;" x1="522.6203" x2="604.7717" y1="155" y2="155"/></g><!--class Coordinate--><g class="entity" data-entity="Coordinate" data-source-line="14" data-uid="ent0017" id="entity_Coordinate"><rect fill="#F1F1F1" height="48" rx="2.5" ry="2.5" style="stroke:#181818;stroke-width:0.5;" width="100.4893" x="31.6203" y="223"/><ellipse cx="46.6203" cy="239" fill="#ADD1B2" rx="11" ry="11" style="stroke:#181818;stroke-width:1;"/><path d="M49.3859,234.875 Q49.5422,234.6563 49.7297,234.5469 Q49.9172,234.4375 50.1359,234.4375 Q50.5109,234.4375 50.7453,234.6953 Q50.9797,234.9531 50.9797,235.5625 L50.9797,237.0156 Q50.9797,237.625 50.7453,237.8906 Q50.5109,238.1563 50.1359,238.1563 Q49.7922,238.1563 49.589,237.9531 Q49.3859,237.7656 49.2765,237.25 Q49.2297,236.8906 49.0422,236.7031 Q48.714,236.3281 48.1047,236.1094 Q47.4953,235.8906 46.8703,235.8906 Q46.1047,235.8906 45.4718,236.2188 Q44.839,236.5469 44.3468,237.2969 Q43.8547,238.0469 43.8547,239.0781 L43.8547,240.1719 Q43.8547,241.4063 44.7453,242.2266 Q45.6359,243.0469 47.2297,243.0469 Q48.1672,243.0469 48.8234,242.7969 Q49.214,242.6406 49.6359,242.2031 Q49.9015,241.9375 50.05,241.8594 Q50.1984,241.7813 50.4015,241.7813 Q50.7297,241.7813 50.9875,242.0391 Q51.2453,242.2969 51.2453,242.6406 Q51.2453,242.9844 50.9015,243.3906 Q50.4015,243.9688 49.6047,244.2969 Q48.5265,244.75 47.2297,244.75 Q45.714,244.75 44.5109,244.125 Q43.5265,243.625 42.839,242.5547 Q42.1515,241.4844 42.1515,240.2031 L42.1515,239.0469 Q42.1515,237.7188 42.7687,236.5703 Q43.3859,235.4219 44.4797,234.8047 Q45.5734,234.1875 46.8078,234.1875 Q47.5422,234.1875 48.1906,234.3516 Q48.839,234.5156 49.3859,234.875 Z " fill="#000000"/><text fill="#000000" font-family="sans-serif" font-size="14" lengthAdjust="spacing" textLength="68.4893" x="60.6203" y="244.7285">Coordinate</text><line style="stroke:#181818;stroke-width:0.5;" x1="32.6203" x2="131.1095" y1="255" y2="255"/><line style="stroke:#181818;stroke-width:0.5;" x1="32.6203" x2="131.1095" y1="263" y2="263"/></g><!--class PathAnchor--><g class="entity" data-entity="PathAnchor" data-source-line="19" data-uid="ent0023" id="entity_PathAnchor"><rect fill="#F1F1F1" height="48" rx="2.5" ry="2.5" style="stroke:#181818;stroke-width:0.5;" width="105.1582" x="496.1203" y="331"/><ellipse cx="511.1203" cy="347" fill="#ADD1B2" rx="11" ry="11" style="stroke:#181818;stroke-width:1;"/><path d="M513.8859,342.875 Q514.0422,342.6563 514.2297,342.5469 Q514.4172,342.4375 514.6359,342.4375 Q515.0109,342.4375 515.2453,342.6953 Q515.4797,342.9531 515.4797,343.5625 L515.4797,345.0156 Q515.4797,345.625 515.2453,345.8906 Q515.0109,346.1563 514.6359,346.1563 Q514.2922,346.1563 514.089,345.9531 Q513.8859,345.7656 513.7765,345.25 Q513.7297,344.8906 513.5422,344.7031 Q513.214,344.3281 512.6047,344.1094 Q511.9953,343.8906 511.3703,343.8906 Q510.6047,343.8906 509.9718,344.2188 Q509.339,344.5469 508.8468,345.2969 Q508.3547,346.0469 508.3547,347.0781 L508.3547,348.1719 Q508.3547,349.4063 509.2453,350.2266 Q510.1359,351.0469 511.7297,351.0469 Q512.6672,351.0469 513.3234,350.7969 Q513.714,350.6406 514.1359,350.2031 Q514.4015,349.9375 514.55,349.8594 Q514.6984,349.7813 514.9015,349.7813 Q515.2297,349.7813 515.4875,350.0391 Q515.7453,350.2969 515.7453,350.6406 Q515.7453,350.9844 515.4015,351.3906 Q514.9015,351.9688 514.1047,352.2969 Q513.0265,352.75 511.7297,352.75 Q510.214,352.75 509.0109,352.125 Q508.0265,351.625 507.339,350.5547 Q506.6515,349.4844 506.6515,348.2031 L506.6515,347.0469 Q506.6515,345.7188 507.2687,344.5703 Q507.8859,343.4219 508.9797,342.8047 Q510.0734,342.1875 511.3078,342.1875 Q512.0422,342.1875 512.6906,342.3516 Q513.339,342.5156 513.8859,342.875 Z " fill="#000000"/><text fill="#000000" font-family="sans-serif" font-size="14" lengthAdjust="spacing" textLength="73.1582" x="525.1203" y="352.7285">PathAnchor</text><line style="stroke:#181818;stroke-width:0.5;" x1="497.1203" x2="600.2785" y1="363" y2="363"/><line style="stroke:#181818;stroke-width:0.5;" x1="497.1203" x2="600.2785" y1="371" y2="371"/></g><!--class PathPart--><g class="entity" data-entity="PathPart" data-source-line="20" data-uid="ent0025" id="entity_PathPart"><rect fill="#F1F1F1" height="48" rx="2.5" ry="2.5" style="stroke:#181818;stroke-width:0.5;" width="86.4756" x="626.6203" y="223"/><ellipse cx="641.6203" cy="239" fill="#ADD1B2" rx="11" ry="11" style="stroke:#181818;stroke-width:1;"/><path d="M644.3859,234.875 Q644.5422,234.6563 644.7297,234.5469 Q644.9172,234.4375 645.1359,234.4375 Q645.5109,234.4375 645.7453,234.6953 Q645.9797,234.9531 645.9797,235.5625 L645.9797,237.0156 Q645.9797,237.625 645.7453,237.8906 Q645.5109,238.1563 645.1359,238.1563 Q644.7922,238.1563 644.589,237.9531 Q644.3859,237.7656 644.2765,237.25 Q644.2297,236.8906 644.0422,236.7031 Q643.714,236.3281 643.1047,236.1094 Q642.4953,235.8906 641.8703,235.8906 Q641.1047,235.8906 640.4718,236.2188 Q639.839,236.5469 639.3468,237.2969 Q638.8547,238.0469 638.8547,239.0781 L638.8547,240.1719 Q638.8547,241.4063 639.7453,242.2266 Q640.6359,243.0469 642.2297,243.0469 Q643.1672,243.0469 643.8234,242.7969 Q644.214,242.6406 644.6359,242.2031 Q644.9015,241.9375 645.05,241.8594 Q645.1984,241.7813 645.4015,241.7813 Q645.7297,241.7813 645.9875,242.0391 Q646.2453,242.2969 646.2453,242.6406 Q646.2453,242.9844 645.9015,243.3906 Q645.4015,243.9688 644.6047,244.2969 Q643.5265,244.75 642.2297,244.75 Q640.714,244.75 639.5109,244.125 Q638.5265,243.625 637.839,242.5547 Q637.1515,241.4844 637.1515,240.2031 L637.1515,239.0469 Q637.1515,237.7188 637.7687,236.5703 Q638.3859,235.4219 639.4797,234.8047 Q640.5734,234.1875 641.8078,234.1875 Q642.5422,234.1875 643.1906,234.3516 Q643.839,234.5156 644.3859,234.875 Z " fill="#000000"/><text fill="#000000" font-family="sans-serif" font-size="14" lengthAdjust="spacing" textLength="54.4756" x="655.6203" y="244.7285">PathPart</text><line style="stroke:#181818;stroke-width:0.5;" x1="627.6203" x2="712.0959" y1="255" y2="255"/><line style="stroke:#181818;stroke-width:0.5;" x1="627.6203" x2="712.0959" y1="263" y2="263"/></g><!--class Move--><g class="entity" data-entity="Move" data-source-line="21" data-uid="ent0027" id="entity_Move"><rect fill="#F1F1F1" height="48" rx="2.5" ry="2.5" style="stroke:#181818;stroke-width:0.5;" width="66.2344" x="636.6203" y="331"/><ellipse cx="651.6203" cy="347" fill="#ADD1B2" rx="11" ry="11" style="stroke:#181818;stroke-width:1;"/><path d="M654.3859,342.875 Q654.5422,342.6563 654.7297,342.5469 Q654.9172,342.4375 655.1359,342.4375 Q655.5109,342.4375 655.7453,342.6953 Q655.9797,342.9531 655.9797,343.5625 L655.9797,345.0156 Q655.9797,345.625 655.7453,345.8906 Q655.5109,346.1563 655.1359,346.1563 Q654.7922,346.1563 654.589,345.9531 Q654.3859,345.7656 654.2765,345.25 Q654.2297,344.8906 654.0422,344.7031 Q653.714,344.3281 653.1047,344.1094 Q652.4953,343.8906 651.8703,343.8906 Q651.1047,343.8906 650.4718,344.2188 Q649.839,344.5469 649.3468,345.2969 Q648.8547,346.0469 648.8547,347.0781 L648.8547,348.1719 Q648.8547,349.4063 649.7453,350.2266 Q650.6359,351.0469 652.2297,351.0469 Q653.1672,351.0469 653.8234,350.7969 Q654.214,350.6406 654.6359,350.2031 Q654.9015,349.9375 655.05,349.8594 Q655.1984,349.7813 655.4015,349.7813 Q655.7297,349.7813 655.9875,350.0391 Q656.2453,350.2969 656.2453,350.6406 Q656.2453,350.9844 655.9015,351.3906 Q655.4015,351.9688 654.6047,352.2969 Q653.5265,352.75 652.2297,352.75 Q650.714,352.75 649.5109,352.125 Q648.5265,351.625 647.839,350.5547 Q647.1515,349.4844 647.1515,348.2031 L647.1515,347.0469 Q647.1515,345.7188 647.7687,344.5703 Q648.3859,343.4219 649.4797,342.8047 Q650.5734,342.1875 651.8078,342.1875 Q652.5422,342.1875 653.1906,342.3516 Q653.839,342.5156 654.3859,342.875 Z " fill="#000000"/><text fill="#000000" font-family="sans-serif" font-size="14" lengthAdjust="spacing" textLength="34.2344" x="665.6203" y="352.7285">Move</text><line style="stroke:#181818;stroke-width:0.5;" x1="637.6203" x2="701.8547" y1="363" y2="363"/><line style="stroke:#181818;stroke-width:0.5;" x1="637.6203" x2="701.8547" y1="371" y2="371"/></g><!--class Branches--><g class="entity" data-entity="Branches" data-source-line="23" data-uid="ent0030" id="entity_Branches"><rect fill="#F1F1F1" height="48" rx="2.5" ry="2.5" style="stroke:#181818;stroke-width:0.5;" width="91.1445" x="738.1203" y="331"/><ellipse cx="753.1203" cy="347" fill="#ADD1B2" rx="11" ry="11" style="stroke:#181818;stroke-width:1;"/><path d="M755.8859,342.875 Q756.0422,342.6563 756.2297,342.5469 Q756.4172,342.4375 756.6359,342.4375 Q757.0109,342.4375 757.2453,342.6953 Q757.4797,342.9531 757.4797,343.5625 L757.4797,345.0156 Q757.4797,345.625 757.2453,345.8906 Q757.0109,346.1563 756.6359,346.1563 Q756.2922,346.1563 756.089,345.9531 Q755.8859,345.7656 755.7765,345.25 Q755.7297,344.8906 755.5422,344.7031 Q755.214,344.3281 754.6047,344.1094 Q753.9953,343.8906 753.3703,343.8906 Q752.6047,343.8906 751.9718,344.2188 Q751.339,344.5469 750.8468,345.2969 Q750.3547,346.0469 750.3547,347.0781 L750.3547,348.1719 Q750.3547,349.4063 751.2453,350.2266 Q752.1359,351.0469 753.7297,351.0469 Q754.6672,351.0469 755.3234,350.7969 Q755.714,350.6406 756.1359,350.2031 Q756.4015,349.9375 756.55,349.8594 Q756.6984,349.7813 756.9015,349.7813 Q757.2297,349.7813 757.4875,350.0391 Q757.7453,350.2969 757.7453,350.6406 Q757.7453,350.9844 757.4015,351.3906 Q756.9015,351.9688 756.1047,352.2969 Q755.0265,352.75 753.7297,352.75 Q752.214,352.75 751.0109,352.125 Q750.0265,351.625 749.339,350.5547 Q748.6515,349.4844 748.6515,348.2031 L748.6515,347.0469 Q748.6515,345.7188 749.2687,344.5703 Q749.8859,343.4219 750.9797,342.8047 Q752.0734,342.1875 753.3078,342.1875 Q754.0422,342.1875 754.6906,342.3516 Q755.339,342.5156 755.8859,342.875 Z " fill="#000000"/><text fill="#000000" font-family="sans-serif" font-size="14" lengthAdjust="spacing" textLength="59.1445" x="767.1203" y="352.7285">Branches</text><line style="stroke:#181818;stroke-width:0.5;" x1="739.1203" x2="828.2648" y1="363" y2="363"/><line style="stroke:#181818;stroke-width:0.5;" x1="739.1203" x2="828.2648" y1="371" y2="371"/></g><!--reverse link DiagramPragma to Coordinates--><g class="link" data-entity-1="DiagramPragma" data-entity-2="Coordinates" data-source-line="8" data-uid="lnk7" id="link_DiagramPragma_Coordinates"><path codeLine="8" d="M292.3603,23 C206.6903,23 81.6203,23 81.6203,23 C81.6203,23 81.6203,80.99 81.6203,114.96" fill="none" id="DiagramPragma-backto-Coordinates" style="stroke:#181818;stroke-width:1;"/><polygon fill="#181818" points="304.3603,23,298.3603,19,292.3603,23,298.3603,27,304.3603,23" style="stroke:#181818;stroke-width:1;"/><text fill="#000000" font-family="sans-serif" font-size="13" lengthAdjust="spacing" textLength="67.209" x="6" y="104.2899">coordinates</text></g><!--reverse link DiagramPragma to Size--><g class="link" data-entity-1="DiagramPragma" data-entity-2="Size" data-source-line="9" data-uid="lnk9" id="link_DiagramPragma_Size"><path codeLine="9" d="M292.1303,39 C243.9503,39 199.6203,39 199.6203,39 C199.6203,39 199.6203,85.2 199.6203,114.79" fill="none" id="DiagramPragma-backto-Size" style="stroke:#181818;stroke-width:1;"/><polygon fill="#181818" points="304.1303,39,298.1303,35,292.1303,39,298.1303,43,304.1303,39" style="stroke:#181818;stroke-width:1;"/><text fill="#000000" font-family="sans-serif" font-size="13" lengthAdjust="spacing" textLength="23.1182" x="173.6585" y="104.0763">size</text></g><!--reverse link DiagramPragma to Direction--><g class="link" data-entity-1="DiagramPragma" data-entity-2="Direction" data-source-line="10" data-uid="lnk11" id="link_DiagramPragma_Direction"><path codeLine="10" d="M327.8703,67.24 C327.8703,85.02 327.8703,97.08 327.8703,114.84" fill="none" id="DiagramPragma-backto-Direction" style="stroke:#181818;stroke-width:1;"/><polygon fill="#181818" points="327.8703,55.24,323.8703,61.24,327.8703,67.24,331.8703,61.24,327.8703,55.24" style="stroke:#181818;stroke-width:1;"/><text fill="#000000" font-family="sans-serif" font-size="13" lengthAdjust="spacing" textLength="49.1372" x="277.7679" y="104.1392">direction</text></g><!--reverse link DiagramPragma to Orientation--><g class="link" data-entity-1="DiagramPragma" data-entity-2="Orientation" data-source-line="11" data-uid="lnk13" id="link_DiagramPragma_Orientation"><path codeLine="11" d="M412.6203,67.24 C412.6203,85.02 412.6203,97.08 412.6203,114.84" fill="none" id="DiagramPragma-backto-Orientation" style="stroke:#181818;stroke-width:1;"/><polygon fill="#181818" points="412.6203,55.24,408.6203,61.24,412.6203,67.24,416.6203,61.24,412.6203,55.24" style="stroke:#181818;stroke-width:1;"/><text fill="#000000" font-family="sans-serif" font-size="13" lengthAdjust="spacing" textLength="60.709" x="352.0954" y="104.1527">orientation</text></g><!--reverse link DiagramPragma to PathInfo--><g class="link" data-entity-1="DiagramPragma" data-entity-2="PathInfo" data-source-line="12" data-uid="lnk15" id="link_DiagramPragma_PathInfo"><path codeLine="12" d="M450.7903,23 C510.9003,23 577.6203,23 577.6203,23 C577.6203,23 577.6203,80.99 577.6203,114.96" fill="none" id="DiagramPragma-backto-PathInfo" style="stroke:#181818;stroke-width:1;"/><polygon fill="#181818" points="438.7903,23,444.7903,27,450.7903,23,444.7903,19,438.7903,23" style="stroke:#181818;stroke-width:1;"/><text fill="#000000" font-family="sans-serif" font-size="13" lengthAdjust="spacing" textLength="84.5571" x="592.0223" y="104.2899">wire_path_info</text></g><!--reverse link DiagramPragma to PathInfo--><g class="link" data-entity-1="DiagramPragma" data-entity-2="PathInfo" data-source-line="13" data-uid="lnk16" id="link_DiagramPragma_PathInfo"><path codeLine="13" d="M450.6603,39 C501.1203,39 549.6203,39 549.6203,39 C549.6203,39 549.6203,85.2 549.6203,114.79" fill="none" id="DiagramPragma-backto-PathInfo-1" style="stroke:#181818;stroke-width:1;"/><polygon fill="#181818" points="438.6603,39,444.6603,43,450.6603,39,444.6603,35,438.6603,39" style="stroke:#181818;stroke-width:1;"/><text fill="#000000" font-family="sans-serif" font-size="13" lengthAdjust="spacing" textLength="113.4707" x="451.0969" y="104.0763">transition_path_info</text></g><!--reverse link Coordinates to Coordinate--><g class="link" data-entity-1="Coordinates" data-entity-2="Coordinate" data-source-line="14" data-uid="lnk18" id="link_Coordinates_Coordinate"><path codeLine="14" d="M98.2903,175.24 C98.2903,193.02 98.2903,205.08 98.2903,222.84" fill="none" id="Coordinates-backto-Coordinate" style="stroke:#181818;stroke-width:1;"/><polygon fill="#181818" points="98.2903,163.24,94.2903,169.24,98.2903,175.24,102.2903,169.24,98.2903,163.24" style="stroke:#181818;stroke-width:1;"/><text fill="#000000" font-family="sans-serif" font-size="13" lengthAdjust="spacing" textLength="6.5" x="95.7946" y="212.1392">x</text></g><!--reverse link Coordinates to Coordinate--><g class="link" data-entity-1="Coordinates" data-entity-2="Coordinate" data-source-line="15" data-uid="lnk19" id="link_Coordinates_Coordinate"><path codeLine="15" d="M64.9503,175.24 C64.9503,193.02 64.9503,205.08 64.9503,222.84" fill="none" id="Coordinates-backto-Coordinate-1" style="stroke:#181818;stroke-width:1;"/><polygon fill="#181818" points="64.9503,163.24,60.9503,169.24,64.9503,175.24,68.9503,169.24,64.9503,163.24" style="stroke:#181818;stroke-width:1;"/><text fill="#000000" font-family="sans-serif" font-size="13" lengthAdjust="spacing" textLength="6.5" x="53.9112" y="212.1392">y</text></g><!--reverse link Coordinate to Position--><g class="link" data-entity-1="Coordinate" data-entity-2="Position" data-source-line="16" data-uid="lnk20" id="link_Coordinate_Position"><path codeLine="16" d="M81.6203,283.24 C81.6203,301.02 81.6203,313.08 81.6203,330.84" fill="none" id="Coordinate-backto-Position" style="stroke:#181818;stroke-width:1;"/><polygon fill="#181818" points="81.6203,271.24,77.6203,277.24,81.6203,283.24,85.6203,277.24,81.6203,271.24" style="stroke:#181818;stroke-width:1;"/></g><!--reverse link Direction to DirectionType--><g class="link" data-entity-1="Direction" data-entity-2="DirectionType" data-source-line="17" data-uid="lnk21" id="link_Direction_DirectionType"><path codeLine="17" d="M300.8703,175.24 C300.8703,193.02 300.8703,205.08 300.8703,222.84" fill="none" id="Direction-backto-DirectionType" style="stroke:#181818;stroke-width:1;"/><polygon fill="#181818" points="300.8703,163.24,296.8703,169.24,300.8703,175.24,304.8703,169.24,300.8703,163.24" style="stroke:#181818;stroke-width:1;"/></g><!--reverse link Orientation to OrientationType--><g class="link" data-entity-1="Orientation" data-entity-2="OrientationType" data-source-line="18" data-uid="lnk22" id="link_Orientation_OrientationType"><path codeLine="18" d="M436.6203,175.24 C436.6203,193.02 436.6203,205.08 436.6203,222.84" fill="none" id="Orientation-backto-OrientationType" style="stroke:#181818;stroke-width:1;"/><polygon fill="#181818" points="436.6203,163.24,432.6203,169.24,436.6203,175.24,440.6203,169.24,436.6203,163.24" style="stroke:#181818;stroke-width:1;"/></g><!--reverse link PathInfo to PathAnchor--><g class="link" data-entity-1="PathInfo" data-entity-2="PathAnchor" data-source-line="19" data-uid="lnk24" id="link_PathInfo_PathAnchor"><path codeLine="19" d="M561.3703,175.36 C561.3703,216.95 561.3703,289.2 561.3703,330.73" fill="none" id="PathInfo-backto-PathAnchor" style="stroke:#181818;stroke-width:1;"/><polygon fill="#181818" points="561.3703,163.36,557.3703,169.36,561.3703,175.36,565.3703,169.36,561.3703,163.36" style="stroke:#181818;stroke-width:1;"/></g><!--reverse link PathInfo to PathPart--><g class="link" data-entity-1="PathInfo" data-entity-2="PathPart" data-source-line="20" data-uid="lnk26" id="link_PathInfo_PathPart"><path codeLine="20" d="M617.8203,139 C647.3803,139 669.6203,139 669.6203,139 C669.6203,139 669.6203,190.92 669.6203,222.76" fill="none" id="PathInfo-backto-PathPart" style="stroke:#181818;stroke-width:1;"/><polygon fill="#181818" points="605.8203,139,611.8203,143,617.8203,139,611.8203,135,605.8203,139" style="stroke:#181818;stroke-width:1;"/></g><!--reverse link PathPart to Move--><g class="link" data-entity-1="PathPart" data-entity-2="Move" data-source-line="21" data-uid="lnk28" id="link_PathPart_Move"><path codeLine="21" d="M669.6203,283.24 C669.6203,301.02 669.6203,313.08 669.6203,330.84" fill="none" id="PathPart-backto-Move" style="stroke:#181818;stroke-width:1;"/><polygon fill="#181818" points="669.6203,271.24,665.6203,277.24,669.6203,283.24,673.6203,277.24,669.6203,271.24" style="stroke:#181818;stroke-width:1;"/></g><!--reverse link PathPart to PathAnchor--><g class="link" data-entity-1="PathPart" data-entity-2="PathAnchor" data-source-line="22" data-uid="lnk29" id="link_PathPart_PathAnchor"><path codeLine="22" d="M631.6203,283.24 C631.6203,315.08 631.6203,355 631.6203,355 C631.6203,355 617.6603,355 601.1903,355" fill="none" id="PathPart-backto-PathAnchor" style="stroke:#181818;stroke-width:1;"/><polygon fill="#181818" points="631.6203,271.24,627.6203,277.24,631.6203,283.24,635.6203,277.24,631.6203,271.24" style="stroke:#181818;stroke-width:1;"/></g><!--reverse link PathPart to Branches--><g class="link" data-entity-1="PathPart" data-entity-2="Branches" data-source-line="23" data-uid="lnk31" id="link_PathPart_Branches"><path codeLine="23" d="M709.2903,283.21 C709.2903,312.8 709.2903,347 709.2903,347 C709.2903,347 722.5203,347 737.8103,347" fill="none" id="PathPart-backto-Branches" style="stroke:#181818;stroke-width:1;"/><polygon fill="#181818" points="709.2903,271.21,705.2903,277.21,709.2903,283.21,713.2903,277.21,709.2903,271.21" style="stroke:#181818;stroke-width:1;"/></g><!--reverse link Branches to PathPart--><g class="link" data-entity-1="Branches" data-entity-2="PathPart" data-source-line="24" data-uid="lnk32" id="link_Branches_PathPart"><path codeLine="24" d="M725.9903,363 C709.0903,363 705.9503,363 705.9503,363 C705.9503,363 705.9503,305.01 705.9503,271.04" fill="none" id="Branches-backto-PathPart" style="stroke:#181818;stroke-width:1;"/><polygon fill="#181818" points="737.9903,363,731.9903,359,725.9903,363,731.9903,367,737.9903,363" style="stroke:#181818;stroke-width:1;"/></g><!--SRC=[TL7BJWCn3BpdAwnSa93w4T1UE21MelVAsheRYswyyXfe-Nf2LljgmoMoPyQZiVDmffE12IWtmU38IhMnHDT_SEnGiOKpHx9hHo1gGPoZ-Db29JrdNUvsuzW-wGReJPcYuGIw7MEJx2h5faLut6nyBQ97ZcZKUzZEJK7QymzvU4zlWPn2-pb8GIPp8h-CLv1-9vj3XnOE74_YeKhbIweAKbECmocA0ukrilootFIElVx3_f7poQSbCxo-_MAlpDv-mnXiS4pDKwo3w3rUePeRYuo-oXUjaPlv2NzEDwb3-iYnMBkwNm00]--></g></svg>