<svg xmlns="http://www.w3.org/2000/svg" xmlns:xlink="http://www.w3.org/1999/xlink" contentStyleType="text/css" data-diagram-type="CLASS" height="777px" preserveAspectRatio="none" style="width:951px;height:777px;background:#FFFFFF;" version="1.1" viewBox="0 0 951 777" width="951px" zoomAndPan="magnify"><defs/><g><!--class Expression--><g class="entity" data-entity="Expression" data-source-line="4" data-uid="ent0002" id="entity_Expression"><rect fill="#F1F1F1" height="48" rx="2.5" ry="2.5" style="stroke:#181818;stroke-width:0.5;" width="101.2549" x="305.5" y="7"/><ellipse cx="320.5" cy="23" fill="#ADD1B2" rx="11" ry="11" style="stroke:#181818;stroke-width:1;"/><path d="M323.2656,18.875 Q323.4219,18.6563 323.6094,18.5469 Q323.7969,18.4375 324.0156,18.4375 Q324.3906,18.4375 324.625,18.6953 Q324.8594,18.9531 324.8594,19.5625 L324.8594,21.0156 Q324.8594,21.625 324.625,21.8906 Q324.3906,22.1563 324.0156,22.1563 Q323.6719,22.1563 323.4688,21.9531 Q323.2656,21.7656 323.1563,21.25 Q323.1094,20.8906 322.9219,20.7031 Q322.5938,20.3281 321.9844,20.1094 Q321.375,19.8906 320.75,19.8906 Q319.9844,19.8906 319.3516,20.2188 Q318.7188,20.5469 318.2266,21.2969 Q317.7344,22.0469 317.7344,23.0781 L317.7344,24.1719 Q317.7344,25.4063 318.625,26.2266 Q319.5156,27.0469 321.1094,27.0469 Q322.0469,27.0469 322.7031,26.7969 Q323.0938,26.6406 323.5156,26.2031 Q323.7813,25.9375 323.9297,25.8594 Q324.0781,25.7813 324.2813,25.7813 Q324.6094,25.7813 324.8672,26.0391 Q325.125,26.2969 325.125,26.6406 Q325.125,26.9844 324.7813,27.3906 Q324.2813,27.9688 323.4844,28.2969 Q322.4063,28.75 321.1094,28.75 Q319.5938,28.75 318.3906,28.125 Q317.4063,27.625 316.7188,26.5547 Q316.0313,25.4844 316.0313,24.2031 L316.0313,23.0469 Q316.0313,21.7188 316.6484,20.5703 Q317.2656,19.4219 318.3594,18.8047 Q319.4531,18.1875 320.6875,18.1875 Q321.4219,18.1875 322.0703,18.3516 Q322.7188,18.5156 323.2656,18.875 Z " fill="#000000"/><text fill="#000000" font-family="sans-serif" font-size="14" lengthAdjust="spacing" textLength="69.2549" x="334.5" y="28.7285">Expression</text><line style="stroke:#181818;stroke-width:0.5;" x1="306.5" x2="405.7549" y1="39" y2="39"/><line style="stroke:#181818;stroke-width:0.5;" x1="306.5" x2="405.7549" y1="47" y2="47"/></g><!--class OperatorInstanceApplication--><g class="entity" data-entity="OperatorInstanceApplication" data-source-line="4" data-uid="ent0003" id="entity_OperatorInstanceApplication"><rect fill="#F1F1F1" height="48" rx="2.5" ry="2.5" style="stroke:#181818;stroke-width:0.5;" width="208.6611" x="251.5" y="128.5"/><ellipse cx="266.5" cy="144.5" fill="#ADD1B2" rx="11" ry="11" style="stroke:#181818;stroke-width:1;"/><path d="M269.2656,140.375 Q269.4219,140.1563 269.6094,140.0469 Q269.7969,139.9375 270.0156,139.9375 Q270.3906,139.9375 270.625,140.1953 Q270.8594,140.4531 270.8594,141.0625 L270.8594,142.5156 Q270.8594,143.125 270.625,143.3906 Q270.3906,143.6563 270.0156,143.6563 Q269.6719,143.6563 269.4688,143.4531 Q269.2656,143.2656 269.1563,142.75 Q269.1094,142.3906 268.9219,142.2031 Q268.5938,141.8281 267.9844,141.6094 Q267.375,141.3906 266.75,141.3906 Q265.9844,141.3906 265.3516,141.7188 Q264.7188,142.0469 264.2266,142.7969 Q263.7344,143.5469 263.7344,144.5781 L263.7344,145.6719 Q263.7344,146.9063 264.625,147.7266 Q265.5156,148.5469 267.1094,148.5469 Q268.0469,148.5469 268.7031,148.2969 Q269.0938,148.1406 269.5156,147.7031 Q269.7813,147.4375 269.9297,147.3594 Q270.0781,147.2813 270.2813,147.2813 Q270.6094,147.2813 270.8672,147.5391 Q271.125,147.7969 271.125,148.1406 Q271.125,148.4844 270.7813,148.8906 Q270.2813,149.4688 269.4844,149.7969 Q268.4063,150.25 267.1094,150.25 Q265.5938,150.25 264.3906,149.625 Q263.4063,149.125 262.7188,148.0547 Q262.0313,146.9844 262.0313,145.7031 L262.0313,144.5469 Q262.0313,143.2188 262.6484,142.0703 Q263.2656,140.9219 264.3594,140.3047 Q265.4531,139.6875 266.6875,139.6875 Q267.4219,139.6875 268.0703,139.8516 Q268.7188,140.0156 269.2656,140.375 Z " fill="#000000"/><text fill="#000000" font-family="sans-serif" font-size="14" lengthAdjust="spacing" textLength="176.6611" x="280.5" y="150.2285">OperatorInstanceApplication</text><line style="stroke:#181818;stroke-width:0.5;" x1="252.5" x2="459.1611" y1="160.5" y2="160.5"/><line style="stroke:#181818;stroke-width:0.5;" x1="252.5" x2="459.1611" y1="168.5" y2="168.5"/></g><g class="entity" data-entity="GMN5" data-source-line="6" data-uid="ent0006" id="entity_GMN5"><path d="M6,115 L6,190.4063 A0,0 0 0 0 6,190.4063 L216.3442,190.4063 A0,0 0 0 0 216.3442,190.4063 L216.3442,156.5 L251.48,152.5 L216.3442,148.5 L216.3442,125 L206.3442,115 L6,115 A0,0 0 0 0 6,115" fill="#FEFFDD" style="stroke:#181818;stroke-width:0.5;"/><path d="M206.3442,115 L206.3442,125 L216.3442,125 L206.3442,115" fill="#FEFFDD" style="stroke:#181818;stroke-width:0.5;"/><text fill="#000000" font-family="sans-serif" font-size="13" lengthAdjust="spacing" textLength="185.7324" x="12" y="133.4951">An operator instance application</text><text fill="#000000" font-family="sans-serif" font-size="13" lengthAdjust="spacing" textLength="184.2661" x="12" y="149.8467">is an expression that represents</text><text fill="#000000" font-family="sans-serif" font-size="13" lengthAdjust="spacing" textLength="168.397" x="12" y="166.1982">the application of an operator</text><text fill="#000000" font-family="sans-serif" font-size="13" lengthAdjust="spacing" textLength="125.7344" x="12" y="182.5498">to a set of arguments.</text></g><!--class OperatorInstance--><g class="entity" data-entity="OperatorInstance" data-source-line="11" data-uid="ent0008" id="entity_OperatorInstance"><rect fill="#F1F1F1" height="48" rx="2.5" ry="2.5" style="stroke:#181818;stroke-width:0.5;" width="140.1719" x="447" y="270"/><ellipse cx="462" cy="286" fill="#ADD1B2" rx="11" ry="11" style="stroke:#181818;stroke-width:1;"/><path d="M464.7656,281.875 Q464.9219,281.6563 465.1094,281.5469 Q465.2969,281.4375 465.5156,281.4375 Q465.8906,281.4375 466.125,281.6953 Q466.3594,281.9531 466.3594,282.5625 L466.3594,284.0156 Q466.3594,284.625 466.125,284.8906 Q465.8906,285.1563 465.5156,285.1563 Q465.1719,285.1563 464.9688,284.9531 Q464.7656,284.7656 464.6563,284.25 Q464.6094,283.8906 464.4219,283.7031 Q464.0938,283.3281 463.4844,283.1094 Q462.875,282.8906 462.25,282.8906 Q461.4844,282.8906 460.8516,283.2188 Q460.2188,283.5469 459.7266,284.2969 Q459.2344,285.0469 459.2344,286.0781 L459.2344,287.1719 Q459.2344,288.4063 460.125,289.2266 Q461.0156,290.0469 462.6094,290.0469 Q463.5469,290.0469 464.2031,289.7969 Q464.5938,289.6406 465.0156,289.2031 Q465.2813,288.9375 465.4297,288.8594 Q465.5781,288.7813 465.7813,288.7813 Q466.1094,288.7813 466.3672,289.0391 Q466.625,289.2969 466.625,289.6406 Q466.625,289.9844 466.2813,290.3906 Q465.7813,290.9688 464.9844,291.2969 Q463.9063,291.75 462.6094,291.75 Q461.0938,291.75 459.8906,291.125 Q458.9063,290.625 458.2188,289.5547 Q457.5313,288.4844 457.5313,287.2031 L457.5313,286.0469 Q457.5313,284.7188 458.1484,283.5703 Q458.7656,282.4219 459.8594,281.8047 Q460.9531,281.1875 462.1875,281.1875 Q462.9219,281.1875 463.5703,281.3516 Q464.2188,281.5156 464.7656,281.875 Z " fill="#000000"/><text fill="#000000" font-family="sans-serif" font-size="14" lengthAdjust="spacing" textLength="108.1719" x="476" y="291.7285">OperatorInstance</text><line style="stroke:#181818;stroke-width:0.5;" x1="448" x2="586.1719" y1="302" y2="302"/><line style="stroke:#181818;stroke-width:0.5;" x1="448" x2="586.1719" y1="310" y2="310"/></g><polygon fill="none" points="514.9068,318,520.0696,338.551,506.1269,337.2851" style="stroke:#181818;stroke-width:1;"/><line style="stroke:#181818;stroke-width:1;" x1="513.0982" x2="513" y1="337.9181" y2="339"/><line style="stroke:#181818;stroke-width:1;" x1="489.9691" x2="467.27" y1="270" y2="249.91"/><line style="stroke:#181818;stroke-width:1;" x1="537.5554" x2="554.69" y1="270" y2="249.91"/><!--class Luid--><g class="entity" data-entity="Luid" data-source-line="12" data-uid="ent0010" id="entity_Luid"><rect fill="#F1F1F1" height="48" rx="2.5" ry="2.5" style="stroke:#181818;stroke-width:0.5;" width="58.4688" x="227" y="270"/><ellipse cx="242" cy="286" fill="#ADD1B2" rx="11" ry="11" style="stroke:#181818;stroke-width:1;"/><path d="M244.7656,281.875 Q244.9219,281.6563 245.1094,281.5469 Q245.2969,281.4375 245.5156,281.4375 Q245.8906,281.4375 246.125,281.6953 Q246.3594,281.9531 246.3594,282.5625 L246.3594,284.0156 Q246.3594,284.625 246.125,284.8906 Q245.8906,285.1563 245.5156,285.1563 Q245.1719,285.1563 244.9688,284.9531 Q244.7656,284.7656 244.6563,284.25 Q244.6094,283.8906 244.4219,283.7031 Q244.0938,283.3281 243.4844,283.1094 Q242.875,282.8906 242.25,282.8906 Q241.4844,282.8906 240.8516,283.2188 Q240.2188,283.5469 239.7266,284.2969 Q239.2344,285.0469 239.2344,286.0781 L239.2344,287.1719 Q239.2344,288.4063 240.125,289.2266 Q241.0156,290.0469 242.6094,290.0469 Q243.5469,290.0469 244.2031,289.7969 Q244.5938,289.6406 245.0156,289.2031 Q245.2813,288.9375 245.4297,288.8594 Q245.5781,288.7813 245.7813,288.7813 Q246.1094,288.7813 246.3672,289.0391 Q246.625,289.2969 246.625,289.6406 Q246.625,289.9844 246.2813,290.3906 Q245.7813,290.9688 244.9844,291.2969 Q243.9063,291.75 242.6094,291.75 Q241.0938,291.75 239.8906,291.125 Q238.9063,290.625 238.2188,289.5547 Q237.5313,288.4844 237.5313,287.2031 L237.5313,286.0469 Q237.5313,284.7188 238.1484,283.5703 Q238.7656,282.4219 239.8594,281.8047 Q240.9531,281.1875 242.1875,281.1875 Q242.9219,281.1875 243.5703,281.3516 Q244.2188,281.5156 244.7656,281.875 Z " fill="#000000"/><text fill="#000000" font-family="sans-serif" font-size="14" lengthAdjust="spacing" textLength="26.4688" x="256" y="291.7285">Luid</text><line style="stroke:#181818;stroke-width:0.5;" x1="228" x2="284.4688" y1="302" y2="302"/><line style="stroke:#181818;stroke-width:0.5;" x1="228" x2="284.4688" y1="310" y2="310"/></g><!--class Group--><g class="entity" data-entity="Group" data-source-line="13" data-uid="ent0012" id="entity_Group"><rect fill="#F1F1F1" height="48" rx="2.5" ry="2.5" style="stroke:#181818;stroke-width:0.5;" width="70.9102" x="320.5" y="270"/><ellipse cx="335.5" cy="286" fill="#ADD1B2" rx="11" ry="11" style="stroke:#181818;stroke-width:1;"/><path d="M338.2656,281.875 Q338.4219,281.6563 338.6094,281.5469 Q338.7969,281.4375 339.0156,281.4375 Q339.3906,281.4375 339.625,281.6953 Q339.8594,281.9531 339.8594,282.5625 L339.8594,284.0156 Q339.8594,284.625 339.625,284.8906 Q339.3906,285.1563 339.0156,285.1563 Q338.6719,285.1563 338.4688,284.9531 Q338.2656,284.7656 338.1563,284.25 Q338.1094,283.8906 337.9219,283.7031 Q337.5938,283.3281 336.9844,283.1094 Q336.375,282.8906 335.75,282.8906 Q334.9844,282.8906 334.3516,283.2188 Q333.7188,283.5469 333.2266,284.2969 Q332.7344,285.0469 332.7344,286.0781 L332.7344,287.1719 Q332.7344,288.4063 333.625,289.2266 Q334.5156,290.0469 336.1094,290.0469 Q337.0469,290.0469 337.7031,289.7969 Q338.0938,289.6406 338.5156,289.2031 Q338.7813,288.9375 338.9297,288.8594 Q339.0781,288.7813 339.2813,288.7813 Q339.6094,288.7813 339.8672,289.0391 Q340.125,289.2969 340.125,289.6406 Q340.125,289.9844 339.7813,290.3906 Q339.2813,290.9688 338.4844,291.2969 Q337.4063,291.75 336.1094,291.75 Q334.5938,291.75 333.3906,291.125 Q332.4063,290.625 331.7188,289.5547 Q331.0313,288.4844 331.0313,287.2031 L331.0313,286.0469 Q331.0313,284.7188 331.6484,283.5703 Q332.2656,282.4219 333.3594,281.8047 Q334.4531,281.1875 335.6875,281.1875 Q336.4219,281.1875 337.0703,281.3516 Q337.7188,281.5156 338.2656,281.875 Z " fill="#000000"/><text fill="#000000" font-family="sans-serif" font-size="14" lengthAdjust="spacing" textLength="38.9102" x="349.5" y="291.7285">Group</text><line style="stroke:#181818;stroke-width:0.5;" x1="321.5" x2="390.4102" y1="302" y2="302"/><line style="stroke:#181818;stroke-width:0.5;" x1="321.5" x2="390.4102" y1="310" y2="310"/></g><!--class NamedInstance--><g class="entity" data-entity="NamedInstance" data-source-line="14" data-uid="ent0014" id="entity_NamedInstance"><rect fill="#F1F1F1" height="48" rx="2.5" ry="2.5" style="stroke:#181818;stroke-width:0.5;" width="130.0547" x="570" y="398"/><ellipse cx="585" cy="414" fill="#ADD1B2" rx="11" ry="11" style="stroke:#181818;stroke-width:1;"/><path d="M587.7656,409.875 Q587.9219,409.6563 588.1094,409.5469 Q588.2969,409.4375 588.5156,409.4375 Q588.8906,409.4375 589.125,409.6953 Q589.3594,409.9531 589.3594,410.5625 L589.3594,412.0156 Q589.3594,412.625 589.125,412.8906 Q588.8906,413.1563 588.5156,413.1563 Q588.1719,413.1563 587.9688,412.9531 Q587.7656,412.7656 587.6563,412.25 Q587.6094,411.8906 587.4219,411.7031 Q587.0938,411.3281 586.4844,411.1094 Q585.875,410.8906 585.25,410.8906 Q584.4844,410.8906 583.8516,411.2188 Q583.2188,411.5469 582.7266,412.2969 Q582.2344,413.0469 582.2344,414.0781 L582.2344,415.1719 Q582.2344,416.4063 583.125,417.2266 Q584.0156,418.0469 585.6094,418.0469 Q586.5469,418.0469 587.2031,417.7969 Q587.5938,417.6406 588.0156,417.2031 Q588.2813,416.9375 588.4297,416.8594 Q588.5781,416.7813 588.7813,416.7813 Q589.1094,416.7813 589.3672,417.0391 Q589.625,417.2969 589.625,417.6406 Q589.625,417.9844 589.2813,418.3906 Q588.7813,418.9688 587.9844,419.2969 Q586.9063,419.75 585.6094,419.75 Q584.0938,419.75 582.8906,419.125 Q581.9063,418.625 581.2188,417.5547 Q580.5313,416.4844 580.5313,415.2031 L580.5313,414.0469 Q580.5313,412.7188 581.1484,411.5703 Q581.7656,410.4219 582.8594,409.8047 Q583.9531,409.1875 585.1875,409.1875 Q585.9219,409.1875 586.5703,409.3516 Q587.2188,409.5156 587.7656,409.875 Z " fill="#000000"/><text fill="#000000" font-family="sans-serif" font-size="14" lengthAdjust="spacing" textLength="98.0547" x="599" y="419.7285">NamedInstance</text><line style="stroke:#181818;stroke-width:0.5;" x1="571" x2="699.0547" y1="430" y2="430"/><line style="stroke:#181818;stroke-width:0.5;" x1="571" x2="699.0547" y1="438" y2="438"/></g><!--class FlattenOperator--><g class="entity" data-entity="FlattenOperator" data-source-line="16" data-uid="ent0016" id="entity_FlattenOperator"><rect fill="#F1F1F1" height="48" rx="2.5" ry="2.5" style="stroke:#181818;stroke-width:0.5;" width="130.0479" x="192" y="398"/><ellipse cx="207" cy="414" fill="#ADD1B2" rx="11" ry="11" style="stroke:#181818;stroke-width:1;"/><path d="M209.7656,409.875 Q209.9219,409.6563 210.1094,409.5469 Q210.2969,409.4375 210.5156,409.4375 Q210.8906,409.4375 211.125,409.6953 Q211.3594,409.9531 211.3594,410.5625 L211.3594,412.0156 Q211.3594,412.625 211.125,412.8906 Q210.8906,413.1563 210.5156,413.1563 Q210.1719,413.1563 209.9688,412.9531 Q209.7656,412.7656 209.6563,412.25 Q209.6094,411.8906 209.4219,411.7031 Q209.0938,411.3281 208.4844,411.1094 Q207.875,410.8906 207.25,410.8906 Q206.4844,410.8906 205.8516,411.2188 Q205.2188,411.5469 204.7266,412.2969 Q204.2344,413.0469 204.2344,414.0781 L204.2344,415.1719 Q204.2344,416.4063 205.125,417.2266 Q206.0156,418.0469 207.6094,418.0469 Q208.5469,418.0469 209.2031,417.7969 Q209.5938,417.6406 210.0156,417.2031 Q210.2813,416.9375 210.4297,416.8594 Q210.5781,416.7813 210.7813,416.7813 Q211.1094,416.7813 211.3672,417.0391 Q211.625,417.2969 211.625,417.6406 Q211.625,417.9844 211.2813,418.3906 Q210.7813,418.9688 209.9844,419.2969 Q208.9063,419.75 207.6094,419.75 Q206.0938,419.75 204.8906,419.125 Q203.9063,418.625 203.2188,417.5547 Q202.5313,416.4844 202.5313,415.2031 L202.5313,414.0469 Q202.5313,412.7188 203.1484,411.5703 Q203.7656,410.4219 204.8594,409.8047 Q205.9531,409.1875 207.1875,409.1875 Q207.9219,409.1875 208.5703,409.3516 Q209.2188,409.5156 209.7656,409.875 Z " fill="#000000"/><text fill="#000000" font-family="sans-serif" font-size="14" lengthAdjust="spacing" textLength="98.0479" x="221" y="419.7285">FlattenOperator</text><line style="stroke:#181818;stroke-width:0.5;" x1="193" x2="321.0479" y1="430" y2="430"/><line style="stroke:#181818;stroke-width:0.5;" x1="193" x2="321.0479" y1="438" y2="438"/></g><!--class PackOperator--><g class="entity" data-entity="PackOperator" data-source-line="17" data-uid="ent0018" id="entity_PackOperator"><rect fill="#F1F1F1" height="48" rx="2.5" ry="2.5" style="stroke:#181818;stroke-width:0.5;" width="118.3721" x="275" y="506"/><ellipse cx="290" cy="522" fill="#ADD1B2" rx="11" ry="11" style="stroke:#181818;stroke-width:1;"/><path d="M292.7656,517.875 Q292.9219,517.6563 293.1094,517.5469 Q293.2969,517.4375 293.5156,517.4375 Q293.8906,517.4375 294.125,517.6953 Q294.3594,517.9531 294.3594,518.5625 L294.3594,520.0156 Q294.3594,520.625 294.125,520.8906 Q293.8906,521.1563 293.5156,521.1563 Q293.1719,521.1563 292.9688,520.9531 Q292.7656,520.7656 292.6563,520.25 Q292.6094,519.8906 292.4219,519.7031 Q292.0938,519.3281 291.4844,519.1094 Q290.875,518.8906 290.25,518.8906 Q289.4844,518.8906 288.8516,519.2188 Q288.2188,519.5469 287.7266,520.2969 Q287.2344,521.0469 287.2344,522.0781 L287.2344,523.1719 Q287.2344,524.4063 288.125,525.2266 Q289.0156,526.0469 290.6094,526.0469 Q291.5469,526.0469 292.2031,525.7969 Q292.5938,525.6406 293.0156,525.2031 Q293.2813,524.9375 293.4297,524.8594 Q293.5781,524.7813 293.7813,524.7813 Q294.1094,524.7813 294.3672,525.0391 Q294.625,525.2969 294.625,525.6406 Q294.625,525.9844 294.2813,526.3906 Q293.7813,526.9688 292.9844,527.2969 Q291.9063,527.75 290.6094,527.75 Q289.0938,527.75 287.8906,527.125 Q286.9063,526.625 286.2188,525.5547 Q285.5313,524.4844 285.5313,523.2031 L285.5313,522.0469 Q285.5313,520.7188 286.1484,519.5703 Q286.7656,518.4219 287.8594,517.8047 Q288.9531,517.1875 290.1875,517.1875 Q290.9219,517.1875 291.5703,517.3516 Q292.2188,517.5156 292.7656,517.875 Z " fill="#000000"/><text fill="#000000" font-family="sans-serif" font-size="14" lengthAdjust="spacing" textLength="86.3721" x="304" y="527.7285">PackOperator</text><line style="stroke:#181818;stroke-width:0.5;" x1="276" x2="392.3721" y1="538" y2="538"/><line style="stroke:#181818;stroke-width:0.5;" x1="276" x2="392.3721" y1="546" y2="546"/></g><!--class ReverseOperator--><g class="entity" data-entity="ReverseOperator" data-source-line="18" data-uid="ent0020" id="entity_ReverseOperator"><rect fill="#F1F1F1" height="48" rx="2.5" ry="2.5" style="stroke:#181818;stroke-width:0.5;" width="139.3789" x="324.5" y="614"/><ellipse cx="339.5" cy="630" fill="#ADD1B2" rx="11" ry="11" style="stroke:#181818;stroke-width:1;"/><path d="M342.2656,625.875 Q342.4219,625.6563 342.6094,625.5469 Q342.7969,625.4375 343.0156,625.4375 Q343.3906,625.4375 343.625,625.6953 Q343.8594,625.9531 343.8594,626.5625 L343.8594,628.0156 Q343.8594,628.625 343.625,628.8906 Q343.3906,629.1563 343.0156,629.1563 Q342.6719,629.1563 342.4688,628.9531 Q342.2656,628.7656 342.1563,628.25 Q342.1094,627.8906 341.9219,627.7031 Q341.5938,627.3281 340.9844,627.1094 Q340.375,626.8906 339.75,626.8906 Q338.9844,626.8906 338.3516,627.2188 Q337.7188,627.5469 337.2266,628.2969 Q336.7344,629.0469 336.7344,630.0781 L336.7344,631.1719 Q336.7344,632.4063 337.625,633.2266 Q338.5156,634.0469 340.1094,634.0469 Q341.0469,634.0469 341.7031,633.7969 Q342.0938,633.6406 342.5156,633.2031 Q342.7813,632.9375 342.9297,632.8594 Q343.0781,632.7813 343.2813,632.7813 Q343.6094,632.7813 343.8672,633.0391 Q344.125,633.2969 344.125,633.6406 Q344.125,633.9844 343.7813,634.3906 Q343.2813,634.9688 342.4844,635.2969 Q341.4063,635.75 340.1094,635.75 Q338.5938,635.75 337.3906,635.125 Q336.4063,634.625 335.7188,633.5547 Q335.0313,632.4844 335.0313,631.2031 L335.0313,630.0469 Q335.0313,628.7188 335.6484,627.5703 Q336.2656,626.4219 337.3594,625.8047 Q338.4531,625.1875 339.6875,625.1875 Q340.4219,625.1875 341.0703,625.3516 Q341.7188,625.5156 342.2656,625.875 Z " fill="#000000"/><text fill="#000000" font-family="sans-serif" font-size="14" lengthAdjust="spacing" textLength="107.3789" x="353.5" y="635.7285">ReverseOperator</text><line style="stroke:#181818;stroke-width:0.5;" x1="325.5" x2="462.8789" y1="646" y2="646"/><line style="stroke:#181818;stroke-width:0.5;" x1="325.5" x2="462.8789" y1="654" y2="654"/></g><!--class TransposeOperator--><g class="entity" data-entity="TransposeOperator" data-source-line="19" data-uid="ent0022" id="entity_TransposeOperator"><rect fill="#F1F1F1" height="48" rx="2.5" ry="2.5" style="stroke:#181818;stroke-width:0.5;" width="153.3926" x="378.5" y="722"/><ellipse cx="393.5" cy="738" fill="#ADD1B2" rx="11" ry="11" style="stroke:#181818;stroke-width:1;"/><path d="M396.2656,733.875 Q396.4219,733.6563 396.6094,733.5469 Q396.7969,733.4375 397.0156,733.4375 Q397.3906,733.4375 397.625,733.6953 Q397.8594,733.9531 397.8594,734.5625 L397.8594,736.0156 Q397.8594,736.625 397.625,736.8906 Q397.3906,737.1563 397.0156,737.1563 Q396.6719,737.1563 396.4688,736.9531 Q396.2656,736.7656 396.1563,736.25 Q396.1094,735.8906 395.9219,735.7031 Q395.5938,735.3281 394.9844,735.1094 Q394.375,734.8906 393.75,734.8906 Q392.9844,734.8906 392.3516,735.2188 Q391.7188,735.5469 391.2266,736.2969 Q390.7344,737.0469 390.7344,738.0781 L390.7344,739.1719 Q390.7344,740.4063 391.625,741.2266 Q392.5156,742.0469 394.1094,742.0469 Q395.0469,742.0469 395.7031,741.7969 Q396.0938,741.6406 396.5156,741.2031 Q396.7813,740.9375 396.9297,740.8594 Q397.0781,740.7813 397.2813,740.7813 Q397.6094,740.7813 397.8672,741.0391 Q398.125,741.2969 398.125,741.6406 Q398.125,741.9844 397.7813,742.3906 Q397.2813,742.9688 396.4844,743.2969 Q395.4063,743.75 394.1094,743.75 Q392.5938,743.75 391.3906,743.125 Q390.4063,742.625 389.7188,741.5547 Q389.0313,740.4844 389.0313,739.2031 L389.0313,738.0469 Q389.0313,736.7188 389.6484,735.5703 Q390.2656,734.4219 391.3594,733.8047 Q392.4531,733.1875 393.6875,733.1875 Q394.4219,733.1875 395.0703,733.3516 Q395.7188,733.5156 396.2656,733.875 Z " fill="#000000"/><text fill="#000000" font-family="sans-serif" font-size="14" lengthAdjust="spacing" textLength="121.3926" x="407.5" y="743.7285">TransposeOperator</text><line style="stroke:#181818;stroke-width:0.5;" x1="379.5" x2="530.8926" y1="754" y2="754"/><line style="stroke:#181818;stroke-width:0.5;" x1="379.5" x2="530.8926" y1="762" y2="762"/></g><!--class OperatorExpressionInstance--><g class="entity" data-entity="OperatorExpressionInstance" data-source-line="26" data-uid="ent0027" id="entity_OperatorExpressionInstance"><rect fill="#F1F1F1" height="48" rx="2.5" ry="2.5" style="stroke:#181818;stroke-width:0.5;" width="209.4268" x="735.5" y="398"/><ellipse cx="750.5" cy="414" fill="#ADD1B2" rx="11" ry="11" style="stroke:#181818;stroke-width:1;"/><path d="M753.2656,409.875 Q753.4219,409.6563 753.6094,409.5469 Q753.7969,409.4375 754.0156,409.4375 Q754.3906,409.4375 754.625,409.6953 Q754.8594,409.9531 754.8594,410.5625 L754.8594,412.0156 Q754.8594,412.625 754.625,412.8906 Q754.3906,413.1563 754.0156,413.1563 Q753.6719,413.1563 753.4688,412.9531 Q753.2656,412.7656 753.1563,412.25 Q753.1094,411.8906 752.9219,411.7031 Q752.5938,411.3281 751.9844,411.1094 Q751.375,410.8906 750.75,410.8906 Q749.9844,410.8906 749.3516,411.2188 Q748.7188,411.5469 748.2266,412.2969 Q747.7344,413.0469 747.7344,414.0781 L747.7344,415.1719 Q747.7344,416.4063 748.625,417.2266 Q749.5156,418.0469 751.1094,418.0469 Q752.0469,418.0469 752.7031,417.7969 Q753.0938,417.6406 753.5156,417.2031 Q753.7813,416.9375 753.9297,416.8594 Q754.0781,416.7813 754.2813,416.7813 Q754.6094,416.7813 754.8672,417.0391 Q755.125,417.2969 755.125,417.6406 Q755.125,417.9844 754.7813,418.3906 Q754.2813,418.9688 753.4844,419.2969 Q752.4063,419.75 751.1094,419.75 Q749.5938,419.75 748.3906,419.125 Q747.4063,418.625 746.7188,417.5547 Q746.0313,416.4844 746.0313,415.2031 L746.0313,414.0469 Q746.0313,412.7188 746.6484,411.5703 Q747.2656,410.4219 748.3594,409.8047 Q749.4531,409.1875 750.6875,409.1875 Q751.4219,409.1875 752.0703,409.3516 Q752.7188,409.5156 753.2656,409.875 Z " fill="#000000"/><text fill="#000000" font-family="sans-serif" font-size="14" lengthAdjust="spacing" textLength="177.4268" x="764.5" y="419.7285">OperatorExpressionInstance</text><line style="stroke:#181818;stroke-width:0.5;" x1="736.5" x2="943.9268" y1="430" y2="430"/><line style="stroke:#181818;stroke-width:0.5;" x1="736.5" x2="943.9268" y1="438" y2="438"/></g><!--class OperatorExpression--><g class="entity" data-entity="OperatorExpression" data-source-line="27" data-uid="ent0029" id="entity_OperatorExpression"><rect fill="#F1F1F1" height="48" rx="2.5" ry="2.5" style="stroke:#181818;stroke-width:0.5;" width="156.5029" x="761.5" y="506"/><ellipse cx="776.5" cy="522" fill="#ADD1B2" rx="11" ry="11" style="stroke:#181818;stroke-width:1;"/><path d="M779.2656,517.875 Q779.4219,517.6563 779.6094,517.5469 Q779.7969,517.4375 780.0156,517.4375 Q780.3906,517.4375 780.625,517.6953 Q780.8594,517.9531 780.8594,518.5625 L780.8594,520.0156 Q780.8594,520.625 780.625,520.8906 Q780.3906,521.1563 780.0156,521.1563 Q779.6719,521.1563 779.4688,520.9531 Q779.2656,520.7656 779.1563,520.25 Q779.1094,519.8906 778.9219,519.7031 Q778.5938,519.3281 777.9844,519.1094 Q777.375,518.8906 776.75,518.8906 Q775.9844,518.8906 775.3516,519.2188 Q774.7188,519.5469 774.2266,520.2969 Q773.7344,521.0469 773.7344,522.0781 L773.7344,523.1719 Q773.7344,524.4063 774.625,525.2266 Q775.5156,526.0469 777.1094,526.0469 Q778.0469,526.0469 778.7031,525.7969 Q779.0938,525.6406 779.5156,525.2031 Q779.7813,524.9375 779.9297,524.8594 Q780.0781,524.7813 780.2813,524.7813 Q780.6094,524.7813 780.8672,525.0391 Q781.125,525.2969 781.125,525.6406 Q781.125,525.9844 780.7813,526.3906 Q780.2813,526.9688 779.4844,527.2969 Q778.4063,527.75 777.1094,527.75 Q775.5938,527.75 774.3906,527.125 Q773.4063,526.625 772.7188,525.5547 Q772.0313,524.4844 772.0313,523.2031 L772.0313,522.0469 Q772.0313,520.7188 772.6484,519.5703 Q773.2656,518.4219 774.3594,517.8047 Q775.4531,517.1875 776.6875,517.1875 Q777.4219,517.1875 778.0703,517.3516 Q778.7188,517.5156 779.2656,517.875 Z " fill="#000000"/><text fill="#000000" font-family="sans-serif" font-size="14" lengthAdjust="spacing" textLength="124.5029" x="790.5" y="527.7285">OperatorExpression</text><line style="stroke:#181818;stroke-width:0.5;" x1="762.5" x2="917.0029" y1="538" y2="538"/><line style="stroke:#181818;stroke-width:0.5;" x1="762.5" x2="917.0029" y1="546" y2="546"/></g><!--class Block--><g class="entity" data-entity="Block" data-source-line="31" data-uid="ent0031" id="entity_Block"><rect fill="#F1F1F1" height="48" rx="2.5" ry="2.5" style="stroke:#181818;stroke-width:0.5;" width="66.2344" x="606" y="128.5"/><ellipse cx="621" cy="144.5" fill="#ADD1B2" rx="11" ry="11" style="stroke:#181818;stroke-width:1;"/><path d="M623.7656,140.375 Q623.9219,140.1563 624.1094,140.0469 Q624.2969,139.9375 624.5156,139.9375 Q624.8906,139.9375 625.125,140.1953 Q625.3594,140.4531 625.3594,141.0625 L625.3594,142.5156 Q625.3594,143.125 625.125,143.3906 Q624.8906,143.6563 624.5156,143.6563 Q624.1719,143.6563 623.9688,143.4531 Q623.7656,143.2656 623.6563,142.75 Q623.6094,142.3906 623.4219,142.2031 Q623.0938,141.8281 622.4844,141.6094 Q621.875,141.3906 621.25,141.3906 Q620.4844,141.3906 619.8516,141.7188 Q619.2188,142.0469 618.7266,142.7969 Q618.2344,143.5469 618.2344,144.5781 L618.2344,145.6719 Q618.2344,146.9063 619.125,147.7266 Q620.0156,148.5469 621.6094,148.5469 Q622.5469,148.5469 623.2031,148.2969 Q623.5938,148.1406 624.0156,147.7031 Q624.2813,147.4375 624.4297,147.3594 Q624.5781,147.2813 624.7813,147.2813 Q625.1094,147.2813 625.3672,147.5391 Q625.625,147.7969 625.625,148.1406 Q625.625,148.4844 625.2813,148.8906 Q624.7813,149.4688 623.9844,149.7969 Q622.9063,150.25 621.6094,150.25 Q620.0938,150.25 618.8906,149.625 Q617.9063,149.125 617.2188,148.0547 Q616.5313,146.9844 616.5313,145.7031 L616.5313,144.5469 Q616.5313,143.2188 617.1484,142.0703 Q617.7656,140.9219 618.8594,140.3047 Q619.9531,139.6875 621.1875,139.6875 Q621.9219,139.6875 622.5703,139.8516 Q623.2188,140.0156 623.7656,140.375 Z " fill="#000000"/><text fill="#000000" font-family="sans-serif" font-size="14" lengthAdjust="spacing" textLength="34.2344" x="635" y="150.2285">Block</text><line style="stroke:#181818;stroke-width:0.5;" x1="607" x2="671.2344" y1="160.5" y2="160.5"/><line style="stroke:#181818;stroke-width:0.5;" x1="607" x2="671.2344" y1="168.5" y2="168.5"/></g><g class="entity" data-entity="GMN34" data-source-line="34" data-uid="ent0035" id="entity_GMN34"><path d="M707.5,123 L707.5,148.5 L672.34,152.5 L707.5,156.5 L707.5,182.0547 A0,0 0 0 0 707.5,182.0547 L922.8779,182.0547 A0,0 0 0 0 922.8779,182.0547 L922.8779,133 L912.8779,123 L707.5,123 A0,0 0 0 0 707.5,123" fill="#FEFFDD" style="stroke:#181818;stroke-width:0.5;"/><path d="M912.8779,123 L912.8779,133 L922.8779,133 L912.8779,123" fill="#FEFFDD" style="stroke:#181818;stroke-width:0.5;"/><text fill="#000000" font-family="sans-serif" font-size="13" lengthAdjust="spacing" textLength="8.6709" x="713.5" y="141.4951">A</text><text fill="#000000" font-family="sans-serif" font-size="13" font-weight="bold" lengthAdjust="spacing" textLength="33.9536" x="725.7827" y="141.4951">block</text><text fill="#000000" font-family="sans-serif" font-size="13" lengthAdjust="spacing" textLength="52.0317" x="763.3481" y="141.4951">contains:</text><text fill="#000000" font-family="sans-serif" font-size="13" lengthAdjust="spacing" textLength="141.6289" x="713.5" y="157.8467">- an OperatorInstance or</text><text fill="#000000" font-family="sans-serif" font-size="13" lengthAdjust="spacing" textLength="194.3779" x="713.5" y="174.1982">- an OperatorExpressionInstance.</text></g><!--reverse link Expression to OperatorInstanceApplication--><g class="link" data-entity-1="Expression" data-entity-2="OperatorInstanceApplication" data-source-line="4" data-uid="lnk4" id="link_Expression_OperatorInstanceApplication"><path codeLine="4" d="M356,73.04 C356,94.07 356,106.99 356,128.12" fill="none" id="Expression-backto-OperatorInstanceApplication" style="stroke:#181818;stroke-width:1;"/><polygon fill="none" points="356,55.04,350,73.04,362,73.04,356,55.04" style="stroke:#181818;stroke-width:1;"/></g><!--reverse link OperatorInstanceApplication to OperatorInstance--><g class="link" data-entity-1="OperatorInstanceApplication" data-entity-2="OperatorInstance" data-source-line="11" data-uid="lnk9" id="link_OperatorInstanceApplication_OperatorInstance"><path codeLine="11" d="M391.6602,184.3969 C414.6102,204.2769 439.32,225.69 467.27,249.91" fill="none" id="OperatorInstanceApplication-backto-OperatorInstance" style="stroke:#181818;stroke-width:1;"/><polygon fill="#181818" points="382.59,176.54,384.5061,183.4919,391.6602,184.3969,389.7441,177.445,382.59,176.54" style="stroke:#181818;stroke-width:1;"/></g><!--reverse link OperatorInstanceApplication to Luid--><g class="link" data-entity-1="OperatorInstanceApplication" data-entity-2="Luid" data-source-line="12" data-uid="lnk11" id="link_OperatorInstanceApplication_Luid"><path codeLine="12" d="M332.4969,186.2918 C313.9669,212.1318 291.08,244.07 272.54,269.93" fill="none" id="OperatorInstanceApplication-backto-Luid" style="stroke:#181818;stroke-width:1;"/><polygon fill="#181818" points="339.49,176.54,332.7429,179.0849,332.4969,186.2918,339.2441,183.7469,339.49,176.54" style="stroke:#181818;stroke-width:1;"/></g><!--reverse link OperatorInstanceApplication to Group--><g class="link" data-entity-1="OperatorInstanceApplication" data-entity-2="Group" data-source-line="13" data-uid="lnk13" id="link_OperatorInstanceApplication_Group"><path codeLine="13" d="M356,188.54 C356,214.38 356,244.07 356,269.93" fill="none" id="OperatorInstanceApplication-backto-Group" style="stroke:#181818;stroke-width:1;"/><polygon fill="#181818" points="356,176.54,352,182.54,356,188.54,360,182.54,356,176.54" style="stroke:#181818;stroke-width:1;"/></g><!--reverse link OperatorInstance to NamedInstance--><g class="link" data-entity-1="OperatorInstance" data-entity-2="NamedInstance" data-source-line="14" data-uid="lnk15" id="link_OperatorInstance_NamedInstance"><path codeLine="14" d="M513,339 C513,339 564.61,373.69 600.69,397.94" fill="none" id="OperatorInstance-backto-NamedInstance" style="stroke:#181818;stroke-width:1;"/></g><!--reverse link OperatorInstance to FlattenOperator--><g class="link" data-entity-1="OperatorInstance" data-entity-2="FlattenOperator" data-source-line="16" data-uid="lnk17" id="link_OperatorInstance_FlattenOperator"><path codeLine="16" d="M513,339 C513,339 398.11,375.8 322.26,400.1" fill="none" id="OperatorInstance-backto-FlattenOperator" style="stroke:#181818;stroke-width:1;"/></g><!--reverse link OperatorInstance to PackOperator--><g class="link" data-entity-1="OperatorInstance" data-entity-2="PackOperator" data-source-line="17" data-uid="lnk19" id="link_OperatorInstance_PackOperator"><path codeLine="17" d="M513,339 C513,339 454.88,363.66 420,398 C387.04,430.45 359.93,477.57 345.44,505.57" fill="none" id="OperatorInstance-backto-PackOperator" style="stroke:#181818;stroke-width:1;"/></g><!--reverse link OperatorInstance to ReverseOperator--><g class="link" data-entity-1="OperatorInstance" data-entity-2="ReverseOperator" data-source-line="18" data-uid="lnk21" id="link_OperatorInstance_ReverseOperator"><path codeLine="18" d="M513,339 C513,339 431.39,543.37 403.34,613.62" fill="none" id="OperatorInstance-backto-ReverseOperator" style="stroke:#181818;stroke-width:1;"/></g><!--reverse link OperatorInstance to TransposeOperator--><g class="link" data-entity-1="OperatorInstance" data-entity-2="TransposeOperator" data-source-line="19" data-uid="lnk23" id="link_OperatorInstance_TransposeOperator"><path codeLine="19" d="M513,339 C513,339 509.82,520.65 481,662 C476.81,682.57 469.5,705.27 463.7,721.72" fill="none" id="OperatorInstance-backto-TransposeOperator" style="stroke:#181818;stroke-width:1;"/></g><!--link FlattenOperator to PackOperator--><!--link PackOperator to ReverseOperator--><!--link ReverseOperator to TransposeOperator--><!--reverse link OperatorInstance to OperatorExpressionInstance--><g class="link" data-entity-1="OperatorInstance" data-entity-2="OperatorExpressionInstance" data-source-line="26" data-uid="lnk28" id="link_OperatorInstance_OperatorExpressionInstance"><path codeLine="26" d="M513,339 C513,339 651.32,373.69 748.04,397.94" fill="none" id="OperatorInstance-backto-OperatorExpressionInstance" style="stroke:#181818;stroke-width:1;"/></g><!--reverse link OperatorExpressionInstance to OperatorExpression--><g class="link" data-entity-1="OperatorExpressionInstance" data-entity-2="OperatorExpression" data-source-line="27" data-uid="lnk30" id="link_OperatorExpressionInstance_OperatorExpression"><path codeLine="27" d="M840,458 C840,475.66 840,487.94 840,505.68" fill="none" id="OperatorExpressionInstance-backto-OperatorExpression" style="stroke:#181818;stroke-width:1;"/><polygon fill="#181818" points="840,446,836,452,840,458,844,452,840,446" style="stroke:#181818;stroke-width:1;"/></g><!--reverse link Block to OperatorInstance--><g class="link" data-entity-1="Block" data-entity-2="OperatorInstance" data-source-line="31" data-uid="lnk32" id="link_Block_OperatorInstance"><path codeLine="31" d="M610.9492,185.572 C593.5592,205.452 575.87,225.69 554.69,249.91" fill="none" id="Block-backto-OperatorInstance" style="stroke:#181818;stroke-width:1;"/><polygon fill="#181818" points="618.85,176.54,611.8889,178.4224,610.9492,185.572,617.9103,183.6896,618.85,176.54" style="stroke:#181818;stroke-width:1;"/></g><!--reverse link Block to OperatorExpressionInstance--><g class="link" data-entity-1="Block" data-entity-2="OperatorExpressionInstance" data-source-line="32" data-uid="lnk33" id="link_Block_OperatorExpressionInstance"><path codeLine="32" d="M663.6985,186.3636 C701.8085,237.0836 784.76,347.48 822.7,397.97" fill="none" id="Block-backto-OperatorExpressionInstance" style="stroke:#181818;stroke-width:1;"/><polygon fill="#181818" points="656.49,176.77,656.8964,183.9696,663.6985,186.3636,663.2921,179.164,656.49,176.77" style="stroke:#181818;stroke-width:1;"/></g><!--SRC=[XPExJiGm44LxVyLqAqKA1IMYMIH0Awq08Jf4CIIp6ol9sB8THC77OmUoUJYFSdBFU6xciODdJGQTCd1Wwv0p4hQKhD5W3MUZ6dtWWeni9RWMulvR6x9MAeRRdpIzv7VfUwqhcQ7pW63b22ewEL2dLH1Wpw0w9_AV0EmHy8oqW0pK6t05EZ0KOc9dFUAASPQlYuEN0w40mL9h2SsvgKFcbI3E8TWLApOXcVdVpOHZ8_DDw35qEgB-Elo4DUMNSWlGGuNE4NVY0lM2MRc1lD8N6KiRr9j1jbeDE35n0Ebx8VES-6DITXWCeMdXIJn4Pwel-Eo-zbiRpIsMHdFkPI5ser4C7QtK4NULoihvtOcbcGVQApBoNBGxswRuFVOd0qdo6Q8aWKonGtytDm2jbeQrZrhY6nM9SS7-67u1]--></g></svg>