<svg xmlns="http://www.w3.org/2000/svg" xmlns:xlink="http://www.w3.org/1999/xlink" contentStyleType="text/css" data-diagram-type="CLASS" height="477px" preserveAspectRatio="none" style="width:1017px;height:477px;background:#FFFFFF;" version="1.1" viewBox="0 0 1017 477" width="1017px" zoomAndPan="magnify"><defs/><g><!--class SwanItem--><g class="entity" data-entity="SwanItem" data-source-line="4" data-uid="ent0002" id="entity_SwanItem"><rect fill="#F1F1F1" height="48" rx="2.5" ry="2.5" style="stroke:#181818;stroke-width:0.5;" width="94.248" x="264.5" y="173"/><ellipse cx="279.5" cy="189" fill="#ADD1B2" rx="11" ry="11" style="stroke:#181818;stroke-width:1;"/><path d="M282.2656,184.875 Q282.4219,184.6563 282.6094,184.5469 Q282.7969,184.4375 283.0156,184.4375 Q283.3906,184.4375 283.625,184.6953 Q283.8594,184.9531 283.8594,185.5625 L283.8594,187.0156 Q283.8594,187.625 283.625,187.8906 Q283.3906,188.1563 283.0156,188.1563 Q282.6719,188.1563 282.4688,187.9531 Q282.2656,187.7656 282.1563,187.25 Q282.1094,186.8906 281.9219,186.7031 Q281.5938,186.3281 280.9844,186.1094 Q280.375,185.8906 279.75,185.8906 Q278.9844,185.8906 278.3516,186.2188 Q277.7188,186.5469 277.2266,187.2969 Q276.7344,188.0469 276.7344,189.0781 L276.7344,190.1719 Q276.7344,191.4063 277.625,192.2266 Q278.5156,193.0469 280.1094,193.0469 Q281.0469,193.0469 281.7031,192.7969 Q282.0938,192.6406 282.5156,192.2031 Q282.7813,191.9375 282.9297,191.8594 Q283.0781,191.7813 283.2813,191.7813 Q283.6094,191.7813 283.8672,192.0391 Q284.125,192.2969 284.125,192.6406 Q284.125,192.9844 283.7813,193.3906 Q283.2813,193.9688 282.4844,194.2969 Q281.4063,194.75 280.1094,194.75 Q278.5938,194.75 277.3906,194.125 Q276.4063,193.625 275.7188,192.5547 Q275.0313,191.4844 275.0313,190.2031 L275.0313,189.0469 Q275.0313,187.7188 275.6484,186.5703 Q276.2656,185.4219 277.3594,184.8047 Q278.4531,184.1875 279.6875,184.1875 Q280.4219,184.1875 281.0703,184.3516 Q281.7188,184.5156 282.2656,184.875 Z " fill="#000000"/><text fill="#000000" font-family="sans-serif" font-size="14" lengthAdjust="spacing" textLength="62.248" x="293.5" y="194.7285">SwanItem</text><line style="stroke:#181818;stroke-width:0.5;" x1="265.5" x2="357.748" y1="205" y2="205"/><line style="stroke:#181818;stroke-width:0.5;" x1="265.5" x2="357.748" y1="213" y2="213"/></g><!--class OperatorExpression--><g class="entity" data-entity="OperatorExpression" data-source-line="4" data-uid="ent0003" id="entity_OperatorExpression"><rect fill="#F1F1F1" height="48" rx="2.5" ry="2.5" style="stroke:#181818;stroke-width:0.5;" width="156.5029" x="496" y="215"/><ellipse cx="511" cy="231" fill="#ADD1B2" rx="11" ry="11" style="stroke:#181818;stroke-width:1;"/><path d="M513.7656,226.875 Q513.9219,226.6563 514.1094,226.5469 Q514.2969,226.4375 514.5156,226.4375 Q514.8906,226.4375 515.125,226.6953 Q515.3594,226.9531 515.3594,227.5625 L515.3594,229.0156 Q515.3594,229.625 515.125,229.8906 Q514.8906,230.1563 514.5156,230.1563 Q514.1719,230.1563 513.9688,229.9531 Q513.7656,229.7656 513.6563,229.25 Q513.6094,228.8906 513.4219,228.7031 Q513.0938,228.3281 512.4844,228.1094 Q511.875,227.8906 511.25,227.8906 Q510.4844,227.8906 509.8516,228.2188 Q509.2188,228.5469 508.7266,229.2969 Q508.2344,230.0469 508.2344,231.0781 L508.2344,232.1719 Q508.2344,233.4063 509.125,234.2266 Q510.0156,235.0469 511.6094,235.0469 Q512.5469,235.0469 513.2031,234.7969 Q513.5938,234.6406 514.0156,234.2031 Q514.2813,233.9375 514.4297,233.8594 Q514.5781,233.7813 514.7813,233.7813 Q515.1094,233.7813 515.3672,234.0391 Q515.625,234.2969 515.625,234.6406 Q515.625,234.9844 515.2813,235.3906 Q514.7813,235.9688 513.9844,236.2969 Q512.9063,236.75 511.6094,236.75 Q510.0938,236.75 508.8906,236.125 Q507.9063,235.625 507.2188,234.5547 Q506.5313,233.4844 506.5313,232.2031 L506.5313,231.0469 Q506.5313,229.7188 507.1484,228.5703 Q507.7656,227.4219 508.8594,226.8047 Q509.9531,226.1875 511.1875,226.1875 Q511.9219,226.1875 512.5703,226.3516 Q513.2188,226.5156 513.7656,226.875 Z " fill="#000000"/><text fill="#000000" font-family="sans-serif" font-size="14" lengthAdjust="spacing" textLength="124.5029" x="525" y="236.7285">OperatorExpression</text><line style="stroke:#181818;stroke-width:0.5;" x1="497" x2="651.5029" y1="247" y2="247"/><line style="stroke:#181818;stroke-width:0.5;" x1="497" x2="651.5029" y1="255" y2="255"/></g><polygon fill="none" points="652.5029,239,672.5029,232,672.5029,246" style="stroke:#181818;stroke-width:1;"/><line style="stroke:#181818;stroke-width:1;" x1="672.5029" x2="674.5" y1="239" y2="239"/><line style="stroke:#181818;stroke-width:1;" x1="496" x2="475.74" y1="226.5051" y2="223.27"/><line style="stroke:#181818;stroke-width:1;" x1="496" x2="475.62" y1="251.2021" y2="254.38"/><!--class Iterator--><g class="entity" data-entity="Iterator" data-source-line="5" data-uid="ent0005" id="entity_Iterator"><rect fill="#F1F1F1" height="48" rx="2.5" ry="2.5" style="stroke:#181818;stroke-width:0.5;" width="76.3516" x="833.5" y="7"/><ellipse cx="848.5" cy="23" fill="#ADD1B2" rx="11" ry="11" style="stroke:#181818;stroke-width:1;"/><path d="M851.2656,18.875 Q851.4219,18.6563 851.6094,18.5469 Q851.7969,18.4375 852.0156,18.4375 Q852.3906,18.4375 852.625,18.6953 Q852.8594,18.9531 852.8594,19.5625 L852.8594,21.0156 Q852.8594,21.625 852.625,21.8906 Q852.3906,22.1563 852.0156,22.1563 Q851.6719,22.1563 851.4688,21.9531 Q851.2656,21.7656 851.1563,21.25 Q851.1094,20.8906 850.9219,20.7031 Q850.5938,20.3281 849.9844,20.1094 Q849.375,19.8906 848.75,19.8906 Q847.9844,19.8906 847.3516,20.2188 Q846.7188,20.5469 846.2266,21.2969 Q845.7344,22.0469 845.7344,23.0781 L845.7344,24.1719 Q845.7344,25.4063 846.625,26.2266 Q847.5156,27.0469 849.1094,27.0469 Q850.0469,27.0469 850.7031,26.7969 Q851.0938,26.6406 851.5156,26.2031 Q851.7813,25.9375 851.9297,25.8594 Q852.0781,25.7813 852.2813,25.7813 Q852.6094,25.7813 852.8672,26.0391 Q853.125,26.2969 853.125,26.6406 Q853.125,26.9844 852.7813,27.3906 Q852.2813,27.9688 851.4844,28.2969 Q850.4063,28.75 849.1094,28.75 Q847.5938,28.75 846.3906,28.125 Q845.4063,27.625 844.7188,26.5547 Q844.0313,25.4844 844.0313,24.2031 L844.0313,23.0469 Q844.0313,21.7188 844.6484,20.5703 Q845.2656,19.4219 846.3594,18.8047 Q847.4531,18.1875 848.6875,18.1875 Q849.4219,18.1875 850.0703,18.3516 Q850.7188,18.5156 851.2656,18.875 Z " fill="#000000"/><text fill="#000000" font-family="sans-serif" font-size="14" lengthAdjust="spacing" textLength="44.3516" x="862.5" y="28.7285">Iterator</text><line style="stroke:#181818;stroke-width:0.5;" x1="834.5" x2="908.8516" y1="39" y2="39"/><line style="stroke:#181818;stroke-width:0.5;" x1="834.5" x2="908.8516" y1="47" y2="47"/></g><!--class ActivateEvery--><g class="entity" data-entity="ActivateEvery" data-source-line="6" data-uid="ent0007" id="entity_ActivateEvery"><rect fill="#F1F1F1" height="48" rx="2.5" ry="2.5" style="stroke:#181818;stroke-width:0.5;" width="117.5859" x="812.5" y="90"/><ellipse cx="827.5" cy="106" fill="#ADD1B2" rx="11" ry="11" style="stroke:#181818;stroke-width:1;"/><path d="M830.2656,101.875 Q830.4219,101.6563 830.6094,101.5469 Q830.7969,101.4375 831.0156,101.4375 Q831.3906,101.4375 831.625,101.6953 Q831.8594,101.9531 831.8594,102.5625 L831.8594,104.0156 Q831.8594,104.625 831.625,104.8906 Q831.3906,105.1563 831.0156,105.1563 Q830.6719,105.1563 830.4688,104.9531 Q830.2656,104.7656 830.1563,104.25 Q830.1094,103.8906 829.9219,103.7031 Q829.5938,103.3281 828.9844,103.1094 Q828.375,102.8906 827.75,102.8906 Q826.9844,102.8906 826.3516,103.2188 Q825.7188,103.5469 825.2266,104.2969 Q824.7344,105.0469 824.7344,106.0781 L824.7344,107.1719 Q824.7344,108.4063 825.625,109.2266 Q826.5156,110.0469 828.1094,110.0469 Q829.0469,110.0469 829.7031,109.7969 Q830.0938,109.6406 830.5156,109.2031 Q830.7813,108.9375 830.9297,108.8594 Q831.0781,108.7813 831.2813,108.7813 Q831.6094,108.7813 831.8672,109.0391 Q832.125,109.2969 832.125,109.6406 Q832.125,109.9844 831.7813,110.3906 Q831.2813,110.9688 830.4844,111.2969 Q829.4063,111.75 828.1094,111.75 Q826.5938,111.75 825.3906,111.125 Q824.4063,110.625 823.7188,109.5547 Q823.0313,108.4844 823.0313,107.2031 L823.0313,106.0469 Q823.0313,104.7188 823.6484,103.5703 Q824.2656,102.4219 825.3594,101.8047 Q826.4531,101.1875 827.6875,101.1875 Q828.4219,101.1875 829.0703,101.3516 Q829.7188,101.5156 830.2656,101.875 Z " fill="#000000"/><text fill="#000000" font-family="sans-serif" font-size="14" lengthAdjust="spacing" textLength="85.5859" x="841.5" y="111.7285">ActivateEvery</text><line style="stroke:#181818;stroke-width:0.5;" x1="813.5" x2="929.0859" y1="122" y2="122"/><line style="stroke:#181818;stroke-width:0.5;" x1="813.5" x2="929.0859" y1="130" y2="130"/></g><!--class AnonymousOperatorWithExpression--><g class="entity" data-entity="AnonymousOperatorWithExpression" data-source-line="7" data-uid="ent0009" id="entity_AnonymousOperatorWithExpression"><rect fill="#F1F1F1" height="48" rx="2.5" ry="2.5" style="stroke:#181818;stroke-width:0.5;" width="258.4336" x="742.5" y="173"/><ellipse cx="757.5" cy="189" fill="#ADD1B2" rx="11" ry="11" style="stroke:#181818;stroke-width:1;"/><path d="M760.2656,184.875 Q760.4219,184.6563 760.6094,184.5469 Q760.7969,184.4375 761.0156,184.4375 Q761.3906,184.4375 761.625,184.6953 Q761.8594,184.9531 761.8594,185.5625 L761.8594,187.0156 Q761.8594,187.625 761.625,187.8906 Q761.3906,188.1563 761.0156,188.1563 Q760.6719,188.1563 760.4688,187.9531 Q760.2656,187.7656 760.1563,187.25 Q760.1094,186.8906 759.9219,186.7031 Q759.5938,186.3281 758.9844,186.1094 Q758.375,185.8906 757.75,185.8906 Q756.9844,185.8906 756.3516,186.2188 Q755.7188,186.5469 755.2266,187.2969 Q754.7344,188.0469 754.7344,189.0781 L754.7344,190.1719 Q754.7344,191.4063 755.625,192.2266 Q756.5156,193.0469 758.1094,193.0469 Q759.0469,193.0469 759.7031,192.7969 Q760.0938,192.6406 760.5156,192.2031 Q760.7813,191.9375 760.9297,191.8594 Q761.0781,191.7813 761.2813,191.7813 Q761.6094,191.7813 761.8672,192.0391 Q762.125,192.2969 762.125,192.6406 Q762.125,192.9844 761.7813,193.3906 Q761.2813,193.9688 760.4844,194.2969 Q759.4063,194.75 758.1094,194.75 Q756.5938,194.75 755.3906,194.125 Q754.4063,193.625 753.7188,192.5547 Q753.0313,191.4844 753.0313,190.2031 L753.0313,189.0469 Q753.0313,187.7188 753.6484,186.5703 Q754.2656,185.4219 755.3594,184.8047 Q756.4531,184.1875 757.6875,184.1875 Q758.4219,184.1875 759.0703,184.3516 Q759.7188,184.5156 760.2656,184.875 Z " fill="#000000"/><text fill="#000000" font-family="sans-serif" font-size="14" lengthAdjust="spacing" textLength="226.4336" x="771.5" y="194.7285">AnonymousOperatorWithExpression</text><line style="stroke:#181818;stroke-width:0.5;" x1="743.5" x2="999.9336" y1="205" y2="205"/><line style="stroke:#181818;stroke-width:0.5;" x1="743.5" x2="999.9336" y1="213" y2="213"/></g><!--class AnonymousOperatorWithDataDefinition--><g class="entity" data-entity="AnonymousOperatorWithDataDefinition" data-source-line="8" data-uid="ent0011" id="entity_AnonymousOperatorWithDataDefinition"><rect fill="#F1F1F1" height="48" rx="2.5" ry="2.5" style="stroke:#181818;stroke-width:0.5;" width="277.1162" x="733" y="256"/><ellipse cx="748" cy="272" fill="#ADD1B2" rx="11" ry="11" style="stroke:#181818;stroke-width:1;"/><path d="M750.7656,267.875 Q750.9219,267.6563 751.1094,267.5469 Q751.2969,267.4375 751.5156,267.4375 Q751.8906,267.4375 752.125,267.6953 Q752.3594,267.9531 752.3594,268.5625 L752.3594,270.0156 Q752.3594,270.625 752.125,270.8906 Q751.8906,271.1563 751.5156,271.1563 Q751.1719,271.1563 750.9688,270.9531 Q750.7656,270.7656 750.6563,270.25 Q750.6094,269.8906 750.4219,269.7031 Q750.0938,269.3281 749.4844,269.1094 Q748.875,268.8906 748.25,268.8906 Q747.4844,268.8906 746.8516,269.2188 Q746.2188,269.5469 745.7266,270.2969 Q745.2344,271.0469 745.2344,272.0781 L745.2344,273.1719 Q745.2344,274.4063 746.125,275.2266 Q747.0156,276.0469 748.6094,276.0469 Q749.5469,276.0469 750.2031,275.7969 Q750.5938,275.6406 751.0156,275.2031 Q751.2813,274.9375 751.4297,274.8594 Q751.5781,274.7813 751.7813,274.7813 Q752.1094,274.7813 752.3672,275.0391 Q752.625,275.2969 752.625,275.6406 Q752.625,275.9844 752.2813,276.3906 Q751.7813,276.9688 750.9844,277.2969 Q749.9063,277.75 748.6094,277.75 Q747.0938,277.75 745.8906,277.125 Q744.9063,276.625 744.2188,275.5547 Q743.5313,274.4844 743.5313,273.2031 L743.5313,272.0469 Q743.5313,270.7188 744.1484,269.5703 Q744.7656,268.4219 745.8594,267.8047 Q746.9531,267.1875 748.1875,267.1875 Q748.9219,267.1875 749.5703,267.3516 Q750.2188,267.5156 750.7656,267.875 Z " fill="#000000"/><text fill="#000000" font-family="sans-serif" font-size="14" lengthAdjust="spacing" textLength="245.1162" x="762" y="277.7285">AnonymousOperatorWithDataDefinition</text><line style="stroke:#181818;stroke-width:0.5;" x1="734" x2="1009.1162" y1="288" y2="288"/><line style="stroke:#181818;stroke-width:0.5;" x1="734" x2="1009.1162" y1="296" y2="296"/></g><!--class RestartOperator--><g class="entity" data-entity="RestartOperator" data-source-line="9" data-uid="ent0013" id="entity_RestartOperator"><rect fill="#F1F1F1" height="48" rx="2.5" ry="2.5" style="stroke:#181818;stroke-width:0.5;" width="132.3721" x="805.5" y="339"/><ellipse cx="820.5" cy="355" fill="#ADD1B2" rx="11" ry="11" style="stroke:#181818;stroke-width:1;"/><path d="M823.2656,350.875 Q823.4219,350.6563 823.6094,350.5469 Q823.7969,350.4375 824.0156,350.4375 Q824.3906,350.4375 824.625,350.6953 Q824.8594,350.9531 824.8594,351.5625 L824.8594,353.0156 Q824.8594,353.625 824.625,353.8906 Q824.3906,354.1563 824.0156,354.1563 Q823.6719,354.1563 823.4688,353.9531 Q823.2656,353.7656 823.1563,353.25 Q823.1094,352.8906 822.9219,352.7031 Q822.5938,352.3281 821.9844,352.1094 Q821.375,351.8906 820.75,351.8906 Q819.9844,351.8906 819.3516,352.2188 Q818.7188,352.5469 818.2266,353.2969 Q817.7344,354.0469 817.7344,355.0781 L817.7344,356.1719 Q817.7344,357.4063 818.625,358.2266 Q819.5156,359.0469 821.1094,359.0469 Q822.0469,359.0469 822.7031,358.7969 Q823.0938,358.6406 823.5156,358.2031 Q823.7813,357.9375 823.9297,357.8594 Q824.0781,357.7813 824.2813,357.7813 Q824.6094,357.7813 824.8672,358.0391 Q825.125,358.2969 825.125,358.6406 Q825.125,358.9844 824.7813,359.3906 Q824.2813,359.9688 823.4844,360.2969 Q822.4063,360.75 821.1094,360.75 Q819.5938,360.75 818.3906,360.125 Q817.4063,359.625 816.7188,358.5547 Q816.0313,357.4844 816.0313,356.2031 L816.0313,355.0469 Q816.0313,353.7188 816.6484,352.5703 Q817.2656,351.4219 818.3594,350.8047 Q819.4531,350.1875 820.6875,350.1875 Q821.4219,350.1875 822.0703,350.3516 Q822.7188,350.5156 823.2656,350.875 Z " fill="#000000"/><text fill="#000000" font-family="sans-serif" font-size="14" lengthAdjust="spacing" textLength="100.3721" x="834.5" y="360.7285">RestartOperator</text><line style="stroke:#181818;stroke-width:0.5;" x1="806.5" x2="936.8721" y1="371" y2="371"/><line style="stroke:#181818;stroke-width:0.5;" x1="806.5" x2="936.8721" y1="379" y2="379"/></g><!--class PartialOperator--><g class="entity" data-entity="PartialOperator" data-source-line="10" data-uid="ent0015" id="entity_PartialOperator"><rect fill="#F1F1F1" height="48" rx="2.5" ry="2.5" style="stroke:#181818;stroke-width:0.5;" width="126.9307" x="808" y="422"/><ellipse cx="823" cy="438" fill="#ADD1B2" rx="11" ry="11" style="stroke:#181818;stroke-width:1;"/><path d="M825.7656,433.875 Q825.9219,433.6563 826.1094,433.5469 Q826.2969,433.4375 826.5156,433.4375 Q826.8906,433.4375 827.125,433.6953 Q827.3594,433.9531 827.3594,434.5625 L827.3594,436.0156 Q827.3594,436.625 827.125,436.8906 Q826.8906,437.1563 826.5156,437.1563 Q826.1719,437.1563 825.9688,436.9531 Q825.7656,436.7656 825.6563,436.25 Q825.6094,435.8906 825.4219,435.7031 Q825.0938,435.3281 824.4844,435.1094 Q823.875,434.8906 823.25,434.8906 Q822.4844,434.8906 821.8516,435.2188 Q821.2188,435.5469 820.7266,436.2969 Q820.2344,437.0469 820.2344,438.0781 L820.2344,439.1719 Q820.2344,440.4063 821.125,441.2266 Q822.0156,442.0469 823.6094,442.0469 Q824.5469,442.0469 825.2031,441.7969 Q825.5938,441.6406 826.0156,441.2031 Q826.2813,440.9375 826.4297,440.8594 Q826.5781,440.7813 826.7813,440.7813 Q827.1094,440.7813 827.3672,441.0391 Q827.625,441.2969 827.625,441.6406 Q827.625,441.9844 827.2813,442.3906 Q826.7813,442.9688 825.9844,443.2969 Q824.9063,443.75 823.6094,443.75 Q822.0938,443.75 820.8906,443.125 Q819.9063,442.625 819.2188,441.5547 Q818.5313,440.4844 818.5313,439.2031 L818.5313,438.0469 Q818.5313,436.7188 819.1484,435.5703 Q819.7656,434.4219 820.8594,433.8047 Q821.9531,433.1875 823.1875,433.1875 Q823.9219,433.1875 824.5703,433.3516 Q825.2188,433.5156 825.7656,433.875 Z " fill="#000000"/><text fill="#000000" font-family="sans-serif" font-size="14" lengthAdjust="spacing" textLength="94.9307" x="837" y="443.7285">PartialOperator</text><line style="stroke:#181818;stroke-width:0.5;" x1="809" x2="933.9307" y1="454" y2="454"/><line style="stroke:#181818;stroke-width:0.5;" x1="809" x2="933.9307" y1="462" y2="462"/></g><!--class OperatorInstance--><g class="entity" data-entity="OperatorInstance" data-source-line="12" data-uid="ent0017" id="entity_OperatorInstance"><rect fill="#F1F1F1" height="48" rx="2.5" ry="2.5" style="stroke:#181818;stroke-width:0.5;" width="140.1719" x="7" y="256"/><ellipse cx="22" cy="272" fill="#ADD1B2" rx="11" ry="11" style="stroke:#181818;stroke-width:1;"/><path d="M24.7656,267.875 Q24.9219,267.6563 25.1094,267.5469 Q25.2969,267.4375 25.5156,267.4375 Q25.8906,267.4375 26.125,267.6953 Q26.3594,267.9531 26.3594,268.5625 L26.3594,270.0156 Q26.3594,270.625 26.125,270.8906 Q25.8906,271.1563 25.5156,271.1563 Q25.1719,271.1563 24.9688,270.9531 Q24.7656,270.7656 24.6563,270.25 Q24.6094,269.8906 24.4219,269.7031 Q24.0938,269.3281 23.4844,269.1094 Q22.875,268.8906 22.25,268.8906 Q21.4844,268.8906 20.8516,269.2188 Q20.2188,269.5469 19.7266,270.2969 Q19.2344,271.0469 19.2344,272.0781 L19.2344,273.1719 Q19.2344,274.4063 20.125,275.2266 Q21.0156,276.0469 22.6094,276.0469 Q23.5469,276.0469 24.2031,275.7969 Q24.5938,275.6406 25.0156,275.2031 Q25.2813,274.9375 25.4297,274.8594 Q25.5781,274.7813 25.7813,274.7813 Q26.1094,274.7813 26.3672,275.0391 Q26.625,275.2969 26.625,275.6406 Q26.625,275.9844 26.2813,276.3906 Q25.7813,276.9688 24.9844,277.2969 Q23.9063,277.75 22.6094,277.75 Q21.0938,277.75 19.8906,277.125 Q18.9063,276.625 18.2188,275.5547 Q17.5313,274.4844 17.5313,273.2031 L17.5313,272.0469 Q17.5313,270.7188 18.1484,269.5703 Q18.7656,268.4219 19.8594,267.8047 Q20.9531,267.1875 22.1875,267.1875 Q22.9219,267.1875 23.5703,267.3516 Q24.2188,267.5156 24.7656,267.875 Z " fill="#000000"/><text fill="#000000" font-family="sans-serif" font-size="14" lengthAdjust="spacing" textLength="108.1719" x="36" y="277.7285">OperatorInstance</text><line style="stroke:#181818;stroke-width:0.5;" x1="8" x2="146.1719" y1="288" y2="288"/><line style="stroke:#181818;stroke-width:0.5;" x1="8" x2="146.1719" y1="296" y2="296"/></g><!--class OperatorExpressionInstance--><g class="entity" data-entity="OperatorExpressionInstance" data-source-line="12" data-uid="ent0018" id="entity_OperatorExpressionInstance"><rect fill="#F1F1F1" height="48" rx="2.5" ry="2.5" style="stroke:#181818;stroke-width:0.5;" width="209.4268" x="207" y="256"/><ellipse cx="222" cy="272" fill="#ADD1B2" rx="11" ry="11" style="stroke:#181818;stroke-width:1;"/><path d="M224.7656,267.875 Q224.9219,267.6563 225.1094,267.5469 Q225.2969,267.4375 225.5156,267.4375 Q225.8906,267.4375 226.125,267.6953 Q226.3594,267.9531 226.3594,268.5625 L226.3594,270.0156 Q226.3594,270.625 226.125,270.8906 Q225.8906,271.1563 225.5156,271.1563 Q225.1719,271.1563 224.9688,270.9531 Q224.7656,270.7656 224.6563,270.25 Q224.6094,269.8906 224.4219,269.7031 Q224.0938,269.3281 223.4844,269.1094 Q222.875,268.8906 222.25,268.8906 Q221.4844,268.8906 220.8516,269.2188 Q220.2188,269.5469 219.7266,270.2969 Q219.2344,271.0469 219.2344,272.0781 L219.2344,273.1719 Q219.2344,274.4063 220.125,275.2266 Q221.0156,276.0469 222.6094,276.0469 Q223.5469,276.0469 224.2031,275.7969 Q224.5938,275.6406 225.0156,275.2031 Q225.2813,274.9375 225.4297,274.8594 Q225.5781,274.7813 225.7813,274.7813 Q226.1094,274.7813 226.3672,275.0391 Q226.625,275.2969 226.625,275.6406 Q226.625,275.9844 226.2813,276.3906 Q225.7813,276.9688 224.9844,277.2969 Q223.9063,277.75 222.6094,277.75 Q221.0938,277.75 219.8906,277.125 Q218.9063,276.625 218.2188,275.5547 Q217.5313,274.4844 217.5313,273.2031 L217.5313,272.0469 Q217.5313,270.7188 218.1484,269.5703 Q218.7656,268.4219 219.8594,267.8047 Q220.9531,267.1875 222.1875,267.1875 Q222.9219,267.1875 223.5703,267.3516 Q224.2188,267.5156 224.7656,267.875 Z " fill="#000000"/><text fill="#000000" font-family="sans-serif" font-size="14" lengthAdjust="spacing" textLength="177.4268" x="236" y="277.7285">OperatorExpressionInstance</text><line style="stroke:#181818;stroke-width:0.5;" x1="208" x2="415.4268" y1="288" y2="288"/><line style="stroke:#181818;stroke-width:0.5;" x1="208" x2="415.4268" y1="296" y2="296"/></g><!--reverse link SwanItem to OperatorExpression--><g class="link" data-entity-1="SwanItem" data-entity-2="OperatorExpression" data-source-line="4" data-uid="lnk4" id="link_SwanItem_OperatorExpression"><path codeLine="4" d="M376.3311,207.2714 C408.7511,212.4914 435.57,216.8 475.74,223.27" fill="none" id="SwanItem-backto-OperatorExpression" style="stroke:#181818;stroke-width:1;"/><polygon fill="none" points="358.56,204.41,375.3773,213.1951,377.2849,201.3477,358.56,204.41" style="stroke:#181818;stroke-width:1;"/></g><!--reverse link OperatorExpression to Iterator--><g class="link" data-entity-1="OperatorExpression" data-entity-2="Iterator" data-source-line="5" data-uid="lnk6" id="link_OperatorExpression_Iterator"><path codeLine="5" d="M674.5,239 C674.5,239 676.09,126.28 733,72 C760.04,46.21 802.6,36.57 833.21,33" fill="none" id="OperatorExpression-backto-Iterator" style="stroke:#181818;stroke-width:1;"/></g><!--reverse link OperatorExpression to ActivateEvery--><g class="link" data-entity-1="OperatorExpression" data-entity-2="ActivateEvery" data-source-line="6" data-uid="lnk8" id="link_OperatorExpression_ActivateEvery"><path codeLine="6" d="M674.5,239 C674.5,239 696.14,181.66 733,155 C756.21,138.21 786.32,128.23 812.44,122.33" fill="none" id="OperatorExpression-backto-ActivateEvery" style="stroke:#181818;stroke-width:1;"/></g><!--reverse link OperatorExpression to AnonymousOperatorWithExpression--><g class="link" data-entity-1="OperatorExpression" data-entity-2="AnonymousOperatorWithExpression" data-source-line="7" data-uid="lnk10" id="link_OperatorExpression_AnonymousOperatorWithExpression"><path codeLine="7" d="M674.5,239 C674.5,239 714.57,230.41 758.47,221.01" fill="none" id="OperatorExpression-backto-AnonymousOperatorWithExpression" style="stroke:#181818;stroke-width:1;"/></g><!--reverse link OperatorExpression to AnonymousOperatorWithDataDefinition--><g class="link" data-entity-1="OperatorExpression" data-entity-2="AnonymousOperatorWithDataDefinition" data-source-line="8" data-uid="lnk12" id="link_OperatorExpression_AnonymousOperatorWithDataDefinition"><path codeLine="8" d="M674.5,239 C674.5,239 712.86,247.02 755.64,255.97" fill="none" id="OperatorExpression-backto-AnonymousOperatorWithDataDefinition" style="stroke:#181818;stroke-width:1;"/></g><!--reverse link OperatorExpression to RestartOperator--><g class="link" data-entity-1="OperatorExpression" data-entity-2="RestartOperator" data-source-line="9" data-uid="lnk14" id="link_OperatorExpression_RestartOperator"><path codeLine="9" d="M674.5,239 C674.5,239 696.36,295.66 733,322 C754.14,337.2 780.93,346.82 805.24,352.88" fill="none" id="OperatorExpression-backto-RestartOperator" style="stroke:#181818;stroke-width:1;"/></g><!--reverse link OperatorExpression to PartialOperator--><g class="link" data-entity-1="OperatorExpression" data-entity-2="PartialOperator" data-source-line="10" data-uid="lnk16" id="link_OperatorExpression_PartialOperator"><path codeLine="10" d="M674.5,239 C674.5,239 676.35,351.06 733,405 C753.12,424.15 781.79,434.4 807.76,439.86" fill="none" id="OperatorExpression-backto-PartialOperator" style="stroke:#181818;stroke-width:1;"/></g><!--reverse link OperatorInstance to OperatorExpressionInstance--><g class="link" data-entity-1="OperatorInstance" data-entity-2="OperatorExpressionInstance" data-source-line="12" data-uid="lnk19" id="link_OperatorInstance_OperatorExpressionInstance"><path codeLine="12" d="M165.13,280 C183.87,280 186.57,280 206.77,280" fill="none" id="OperatorInstance-backto-OperatorExpressionInstance" style="stroke:#181818;stroke-width:1;"/><polygon fill="none" points="147.13,280,165.13,286,165.13,274,147.13,280" style="stroke:#181818;stroke-width:1;"/></g><!--reverse link OperatorExpressionInstance to OperatorExpression--><g class="link" data-entity-1="OperatorExpressionInstance" data-entity-2="OperatorExpression" data-source-line="13" data-uid="lnk20" id="link_OperatorExpressionInstance_OperatorExpression"><path codeLine="13" d="M427.8842,261.875 C447.5242,258.785 456.16,257.43 475.62,254.38" fill="none" id="OperatorExpressionInstance-backto-OperatorExpression" style="stroke:#181818;stroke-width:1;"/><polygon fill="#181818" points="416.03,263.74,422.5788,266.7589,427.8842,261.875,421.3354,258.8561,416.03,263.74" style="stroke:#181818;stroke-width:1;"/></g><!--SRC=[ZT0n3u9030NW_Nx5pIOipYucC31fT71ki40Zz2wzWfBuuqK9B7B6jUzxQVB2ZTY3G6ihSPtFkKOX1IxGRas3fLfrLgYgrLv9i51oRCpv3fmhjdRtJ19xy2YWJhA75mpXBRvF4nrBdtiKxCSFFIXcFSeGL-nuQ5qNPd0XhVzulzfBGI75afZqL_U4GK5qZgFkE2A2Pd4Bp3bCmqP6ctCJZ-ncVUuN]--></g></svg>