<svg xmlns="http://www.w3.org/2000/svg" xmlns:xlink="http://www.w3.org/1999/xlink" contentStyleType="text/css" data-diagram-type="CLASS" height="406px" preserveAspectRatio="none" style="width:807px;height:406px;background:#FFFFFF;" version="1.1" viewBox="0 0 807 406" width="807px" zoomAndPan="magnify"><defs/><g><!--class HasPragama--><g class="entity" data-entity="HasPragama" data-source-line="2" data-uid="ent0002" id="entity_HasPragama"><rect fill="#F1F1F1" height="48" rx="2.5" ry="2.5" style="stroke:#181818;stroke-width:0.5;" width="113.7031" x="7" y="243"/><ellipse cx="22" cy="259" fill="#ADD1B2" rx="11" ry="11" style="stroke:#181818;stroke-width:1;"/><path d="M24.7656,254.875 Q24.9219,254.6563 25.1094,254.5469 Q25.2969,254.4375 25.5156,254.4375 Q25.8906,254.4375 26.125,254.6953 Q26.3594,254.9531 26.3594,255.5625 L26.3594,257.0156 Q26.3594,257.625 26.125,257.8906 Q25.8906,258.1563 25.5156,258.1563 Q25.1719,258.1563 24.9688,257.9531 Q24.7656,257.7656 24.6563,257.25 Q24.6094,256.8906 24.4219,256.7031 Q24.0938,256.3281 23.4844,256.1094 Q22.875,255.8906 22.25,255.8906 Q21.4844,255.8906 20.8516,256.2188 Q20.2188,256.5469 19.7266,257.2969 Q19.2344,258.0469 19.2344,259.0781 L19.2344,260.1719 Q19.2344,261.4063 20.125,262.2266 Q21.0156,263.0469 22.6094,263.0469 Q23.5469,263.0469 24.2031,262.7969 Q24.5938,262.6406 25.0156,262.2031 Q25.2813,261.9375 25.4297,261.8594 Q25.5781,261.7813 25.7813,261.7813 Q26.1094,261.7813 26.3672,262.0391 Q26.625,262.2969 26.625,262.6406 Q26.625,262.9844 26.2813,263.3906 Q25.7813,263.9688 24.9844,264.2969 Q23.9063,264.75 22.6094,264.75 Q21.0938,264.75 19.8906,264.125 Q18.9063,263.625 18.2188,262.5547 Q17.5313,261.4844 17.5313,260.2031 L17.5313,259.0469 Q17.5313,257.7188 18.1484,256.5703 Q18.7656,255.4219 19.8594,254.8047 Q20.9531,254.1875 22.1875,254.1875 Q22.9219,254.1875 23.5703,254.3516 Q24.2188,254.5156 24.7656,254.875 Z " fill="#000000"/><text fill="#000000" font-family="sans-serif" font-size="14" lengthAdjust="spacing" textLength="81.7031" x="36" y="264.7285">HasPragama</text><line style="stroke:#181818;stroke-width:0.5;" x1="8" x2="119.7031" y1="275" y2="275"/><line style="stroke:#181818;stroke-width:0.5;" x1="8" x2="119.7031" y1="283" y2="283"/></g><!--class Declaration--><g class="entity" data-entity="Declaration" data-source-line="2" data-uid="ent0003" id="entity_Declaration"><rect fill="#F1F1F1" height="48" rx="2.5" ry="2.5" style="stroke:#181818;stroke-width:0.5;" width="102.8135" x="349.5" y="351"/><ellipse cx="364.5" cy="367" fill="#ADD1B2" rx="11" ry="11" style="stroke:#181818;stroke-width:1;"/><path d="M367.2656,362.875 Q367.4219,362.6563 367.6094,362.5469 Q367.7969,362.4375 368.0156,362.4375 Q368.3906,362.4375 368.625,362.6953 Q368.8594,362.9531 368.8594,363.5625 L368.8594,365.0156 Q368.8594,365.625 368.625,365.8906 Q368.3906,366.1563 368.0156,366.1563 Q367.6719,366.1563 367.4688,365.9531 Q367.2656,365.7656 367.1563,365.25 Q367.1094,364.8906 366.9219,364.7031 Q366.5938,364.3281 365.9844,364.1094 Q365.375,363.8906 364.75,363.8906 Q363.9844,363.8906 363.3516,364.2188 Q362.7188,364.5469 362.2266,365.2969 Q361.7344,366.0469 361.7344,367.0781 L361.7344,368.1719 Q361.7344,369.4063 362.625,370.2266 Q363.5156,371.0469 365.1094,371.0469 Q366.0469,371.0469 366.7031,370.7969 Q367.0938,370.6406 367.5156,370.2031 Q367.7813,369.9375 367.9297,369.8594 Q368.0781,369.7813 368.2813,369.7813 Q368.6094,369.7813 368.8672,370.0391 Q369.125,370.2969 369.125,370.6406 Q369.125,370.9844 368.7813,371.3906 Q368.2813,371.9688 367.4844,372.2969 Q366.4063,372.75 365.1094,372.75 Q363.5938,372.75 362.3906,372.125 Q361.4063,371.625 360.7188,370.5547 Q360.0313,369.4844 360.0313,368.2031 L360.0313,367.0469 Q360.0313,365.7188 360.6484,364.5703 Q361.2656,363.4219 362.3594,362.8047 Q363.4531,362.1875 364.6875,362.1875 Q365.4219,362.1875 366.0703,362.3516 Q366.7188,362.5156 367.2656,362.875 Z " fill="#000000"/><text fill="#000000" font-family="sans-serif" font-size="14" lengthAdjust="spacing" textLength="70.8135" x="378.5" y="372.7285">Declaration</text><line style="stroke:#181818;stroke-width:0.5;" x1="350.5" x2="451.3135" y1="383" y2="383"/><line style="stroke:#181818;stroke-width:0.5;" x1="350.5" x2="451.3135" y1="391" y2="391"/></g><!--class ConstDecl--><g class="entity" data-entity="ConstDecl" data-source-line="3" data-uid="ent0005" id="entity_ConstDecl"><rect fill="#F1F1F1" height="48" rx="2.5" ry="2.5" style="stroke:#181818;stroke-width:0.5;" width="96.5791" x="156.5" y="243"/><ellipse cx="171.5" cy="259" fill="#ADD1B2" rx="11" ry="11" style="stroke:#181818;stroke-width:1;"/><path d="M174.2656,254.875 Q174.4219,254.6563 174.6094,254.5469 Q174.7969,254.4375 175.0156,254.4375 Q175.3906,254.4375 175.625,254.6953 Q175.8594,254.9531 175.8594,255.5625 L175.8594,257.0156 Q175.8594,257.625 175.625,257.8906 Q175.3906,258.1563 175.0156,258.1563 Q174.6719,258.1563 174.4688,257.9531 Q174.2656,257.7656 174.1563,257.25 Q174.1094,256.8906 173.9219,256.7031 Q173.5938,256.3281 172.9844,256.1094 Q172.375,255.8906 171.75,255.8906 Q170.9844,255.8906 170.3516,256.2188 Q169.7188,256.5469 169.2266,257.2969 Q168.7344,258.0469 168.7344,259.0781 L168.7344,260.1719 Q168.7344,261.4063 169.625,262.2266 Q170.5156,263.0469 172.1094,263.0469 Q173.0469,263.0469 173.7031,262.7969 Q174.0938,262.6406 174.5156,262.2031 Q174.7813,261.9375 174.9297,261.8594 Q175.0781,261.7813 175.2813,261.7813 Q175.6094,261.7813 175.8672,262.0391 Q176.125,262.2969 176.125,262.6406 Q176.125,262.9844 175.7813,263.3906 Q175.2813,263.9688 174.4844,264.2969 Q173.4063,264.75 172.1094,264.75 Q170.5938,264.75 169.3906,264.125 Q168.4063,263.625 167.7188,262.5547 Q167.0313,261.4844 167.0313,260.2031 L167.0313,259.0469 Q167.0313,257.7188 167.6484,256.5703 Q168.2656,255.4219 169.3594,254.8047 Q170.4531,254.1875 171.6875,254.1875 Q172.4219,254.1875 173.0703,254.3516 Q173.7188,254.5156 174.2656,254.875 Z " fill="#000000"/><text fill="#000000" font-family="sans-serif" font-size="14" lengthAdjust="spacing" textLength="64.5791" x="185.5" y="264.7285">ConstDecl</text><line style="stroke:#181818;stroke-width:0.5;" x1="157.5" x2="252.0791" y1="275" y2="275"/><line style="stroke:#181818;stroke-width:0.5;" x1="157.5" x2="252.0791" y1="283" y2="283"/></g><!--class TypeDecl--><g class="entity" data-entity="TypeDecl" data-source-line="4" data-uid="ent0007" id="entity_TypeDecl"><rect fill="#F1F1F1" height="48" rx="2.5" ry="2.5" style="stroke:#181818;stroke-width:0.5;" width="91.1309" x="288.5" y="243"/><ellipse cx="303.5" cy="259" fill="#ADD1B2" rx="11" ry="11" style="stroke:#181818;stroke-width:1;"/><path d="M306.2656,254.875 Q306.4219,254.6563 306.6094,254.5469 Q306.7969,254.4375 307.0156,254.4375 Q307.3906,254.4375 307.625,254.6953 Q307.8594,254.9531 307.8594,255.5625 L307.8594,257.0156 Q307.8594,257.625 307.625,257.8906 Q307.3906,258.1563 307.0156,258.1563 Q306.6719,258.1563 306.4688,257.9531 Q306.2656,257.7656 306.1563,257.25 Q306.1094,256.8906 305.9219,256.7031 Q305.5938,256.3281 304.9844,256.1094 Q304.375,255.8906 303.75,255.8906 Q302.9844,255.8906 302.3516,256.2188 Q301.7188,256.5469 301.2266,257.2969 Q300.7344,258.0469 300.7344,259.0781 L300.7344,260.1719 Q300.7344,261.4063 301.625,262.2266 Q302.5156,263.0469 304.1094,263.0469 Q305.0469,263.0469 305.7031,262.7969 Q306.0938,262.6406 306.5156,262.2031 Q306.7813,261.9375 306.9297,261.8594 Q307.0781,261.7813 307.2813,261.7813 Q307.6094,261.7813 307.8672,262.0391 Q308.125,262.2969 308.125,262.6406 Q308.125,262.9844 307.7813,263.3906 Q307.2813,263.9688 306.4844,264.2969 Q305.4063,264.75 304.1094,264.75 Q302.5938,264.75 301.3906,264.125 Q300.4063,263.625 299.7188,262.5547 Q299.0313,261.4844 299.0313,260.2031 L299.0313,259.0469 Q299.0313,257.7188 299.6484,256.5703 Q300.2656,255.4219 301.3594,254.8047 Q302.4531,254.1875 303.6875,254.1875 Q304.4219,254.1875 305.0703,254.3516 Q305.7188,254.5156 306.2656,254.875 Z " fill="#000000"/><text fill="#000000" font-family="sans-serif" font-size="14" lengthAdjust="spacing" textLength="59.1309" x="317.5" y="264.7285">TypeDecl</text><line style="stroke:#181818;stroke-width:0.5;" x1="289.5" x2="378.6309" y1="275" y2="275"/><line style="stroke:#181818;stroke-width:0.5;" x1="289.5" x2="378.6309" y1="283" y2="283"/></g><!--class SensorDecl--><g class="entity" data-entity="SensorDecl" data-source-line="5" data-uid="ent0009" id="entity_SensorDecl"><rect fill="#F1F1F1" height="48" rx="2.5" ry="2.5" style="stroke:#181818;stroke-width:0.5;" width="104.3652" x="415" y="243"/><ellipse cx="430" cy="259" fill="#ADD1B2" rx="11" ry="11" style="stroke:#181818;stroke-width:1;"/><path d="M432.7656,254.875 Q432.9219,254.6563 433.1094,254.5469 Q433.2969,254.4375 433.5156,254.4375 Q433.8906,254.4375 434.125,254.6953 Q434.3594,254.9531 434.3594,255.5625 L434.3594,257.0156 Q434.3594,257.625 434.125,257.8906 Q433.8906,258.1563 433.5156,258.1563 Q433.1719,258.1563 432.9688,257.9531 Q432.7656,257.7656 432.6563,257.25 Q432.6094,256.8906 432.4219,256.7031 Q432.0938,256.3281 431.4844,256.1094 Q430.875,255.8906 430.25,255.8906 Q429.4844,255.8906 428.8516,256.2188 Q428.2188,256.5469 427.7266,257.2969 Q427.2344,258.0469 427.2344,259.0781 L427.2344,260.1719 Q427.2344,261.4063 428.125,262.2266 Q429.0156,263.0469 430.6094,263.0469 Q431.5469,263.0469 432.2031,262.7969 Q432.5938,262.6406 433.0156,262.2031 Q433.2813,261.9375 433.4297,261.8594 Q433.5781,261.7813 433.7813,261.7813 Q434.1094,261.7813 434.3672,262.0391 Q434.625,262.2969 434.625,262.6406 Q434.625,262.9844 434.2813,263.3906 Q433.7813,263.9688 432.9844,264.2969 Q431.9063,264.75 430.6094,264.75 Q429.0938,264.75 427.8906,264.125 Q426.9063,263.625 426.2188,262.5547 Q425.5313,261.4844 425.5313,260.2031 L425.5313,259.0469 Q425.5313,257.7188 426.1484,256.5703 Q426.7656,255.4219 427.8594,254.8047 Q428.9531,254.1875 430.1875,254.1875 Q430.9219,254.1875 431.5703,254.3516 Q432.2188,254.5156 432.7656,254.875 Z " fill="#000000"/><text fill="#000000" font-family="sans-serif" font-size="14" lengthAdjust="spacing" textLength="72.3652" x="444" y="264.7285">SensorDecl</text><line style="stroke:#181818;stroke-width:0.5;" x1="416" x2="518.3652" y1="275" y2="275"/><line style="stroke:#181818;stroke-width:0.5;" x1="416" x2="518.3652" y1="283" y2="283"/></g><!--class GroupDecl--><g class="entity" data-entity="GroupDecl" data-source-line="6" data-uid="ent0011" id="entity_GroupDecl"><rect fill="#F1F1F1" height="48" rx="2.5" ry="2.5" style="stroke:#181818;stroke-width:0.5;" width="98.917" x="554.5" y="243"/><ellipse cx="569.5" cy="259" fill="#ADD1B2" rx="11" ry="11" style="stroke:#181818;stroke-width:1;"/><path d="M572.2656,254.875 Q572.4219,254.6563 572.6094,254.5469 Q572.7969,254.4375 573.0156,254.4375 Q573.3906,254.4375 573.625,254.6953 Q573.8594,254.9531 573.8594,255.5625 L573.8594,257.0156 Q573.8594,257.625 573.625,257.8906 Q573.3906,258.1563 573.0156,258.1563 Q572.6719,258.1563 572.4688,257.9531 Q572.2656,257.7656 572.1563,257.25 Q572.1094,256.8906 571.9219,256.7031 Q571.5938,256.3281 570.9844,256.1094 Q570.375,255.8906 569.75,255.8906 Q568.9844,255.8906 568.3516,256.2188 Q567.7188,256.5469 567.2266,257.2969 Q566.7344,258.0469 566.7344,259.0781 L566.7344,260.1719 Q566.7344,261.4063 567.625,262.2266 Q568.5156,263.0469 570.1094,263.0469 Q571.0469,263.0469 571.7031,262.7969 Q572.0938,262.6406 572.5156,262.2031 Q572.7813,261.9375 572.9297,261.8594 Q573.0781,261.7813 573.2813,261.7813 Q573.6094,261.7813 573.8672,262.0391 Q574.125,262.2969 574.125,262.6406 Q574.125,262.9844 573.7813,263.3906 Q573.2813,263.9688 572.4844,264.2969 Q571.4063,264.75 570.1094,264.75 Q568.5938,264.75 567.3906,264.125 Q566.4063,263.625 565.7188,262.5547 Q565.0313,261.4844 565.0313,260.2031 L565.0313,259.0469 Q565.0313,257.7188 565.6484,256.5703 Q566.2656,255.4219 567.3594,254.8047 Q568.4531,254.1875 569.6875,254.1875 Q570.4219,254.1875 571.0703,254.3516 Q571.7188,254.5156 572.2656,254.875 Z " fill="#000000"/><text fill="#000000" font-family="sans-serif" font-size="14" lengthAdjust="spacing" textLength="66.917" x="583.5" y="264.7285">GroupDecl</text><line style="stroke:#181818;stroke-width:0.5;" x1="555.5" x2="652.417" y1="275" y2="275"/><line style="stroke:#181818;stroke-width:0.5;" x1="555.5" x2="652.417" y1="283" y2="283"/></g><!--class VarDecl--><g class="entity" data-entity="VarDecl" data-source-line="7" data-uid="ent0013" id="entity_VarDecl"><rect fill="#F1F1F1" height="48" rx="2.5" ry="2.5" style="stroke:#181818;stroke-width:0.5;" width="81.793" x="689" y="243"/><ellipse cx="704" cy="259" fill="#ADD1B2" rx="11" ry="11" style="stroke:#181818;stroke-width:1;"/><path d="M706.7656,254.875 Q706.9219,254.6563 707.1094,254.5469 Q707.2969,254.4375 707.5156,254.4375 Q707.8906,254.4375 708.125,254.6953 Q708.3594,254.9531 708.3594,255.5625 L708.3594,257.0156 Q708.3594,257.625 708.125,257.8906 Q707.8906,258.1563 707.5156,258.1563 Q707.1719,258.1563 706.9688,257.9531 Q706.7656,257.7656 706.6563,257.25 Q706.6094,256.8906 706.4219,256.7031 Q706.0938,256.3281 705.4844,256.1094 Q704.875,255.8906 704.25,255.8906 Q703.4844,255.8906 702.8516,256.2188 Q702.2188,256.5469 701.7266,257.2969 Q701.2344,258.0469 701.2344,259.0781 L701.2344,260.1719 Q701.2344,261.4063 702.125,262.2266 Q703.0156,263.0469 704.6094,263.0469 Q705.5469,263.0469 706.2031,262.7969 Q706.5938,262.6406 707.0156,262.2031 Q707.2813,261.9375 707.4297,261.8594 Q707.5781,261.7813 707.7813,261.7813 Q708.1094,261.7813 708.3672,262.0391 Q708.625,262.2969 708.625,262.6406 Q708.625,262.9844 708.2813,263.3906 Q707.7813,263.9688 706.9844,264.2969 Q705.9063,264.75 704.6094,264.75 Q703.0938,264.75 701.8906,264.125 Q700.9063,263.625 700.2188,262.5547 Q699.5313,261.4844 699.5313,260.2031 L699.5313,259.0469 Q699.5313,257.7188 700.1484,256.5703 Q700.7656,255.4219 701.8594,254.8047 Q702.9531,254.1875 704.1875,254.1875 Q704.9219,254.1875 705.5703,254.3516 Q706.2188,254.5156 706.7656,254.875 Z " fill="#000000"/><text fill="#000000" font-family="sans-serif" font-size="14" lengthAdjust="spacing" textLength="49.793" x="718" y="264.7285">VarDecl</text><line style="stroke:#181818;stroke-width:0.5;" x1="690" x2="769.793" y1="275" y2="275"/><line style="stroke:#181818;stroke-width:0.5;" x1="690" x2="769.793" y1="283" y2="283"/></g><g class="entity" data-entity="GMN15" data-source-line="9" data-uid="ent0016" id="entity_GMN15"><path d="M659,353.5 L659,396.2031 A0,0 0 0 0 659,396.2031 L800.6689,396.2031 A0,0 0 0 0 800.6689,396.2031 L800.6689,363.5 L790.6689,353.5 L734,353.5 L730,291 L726,353.5 L659,353.5 A0,0 0 0 0 659,353.5" fill="#FEFFDD" style="stroke:#181818;stroke-width:0.5;"/><path d="M790.6689,353.5 L790.6689,363.5 L800.6689,363.5 L790.6689,353.5" fill="#FEFFDD" style="stroke:#181818;stroke-width:0.5;"/><text fill="#000000" font-family="sans-serif" font-size="13" lengthAdjust="spacing" textLength="120.6689" x="665" y="371.9951">Used for var, input,\n</text><text fill="#000000" font-family="sans-serif" font-size="13" lengthAdjust="spacing" textLength="109.8525" x="665" y="388.3467">output declarations</text></g><!--class GlobalDeclaration--><g class="entity" data-entity="GlobalDeclaration" data-source-line="13" data-uid="ent0018" id="entity_GlobalDeclaration"><rect fill="#F1F1F1" height="48" rx="2.5" ry="2.5" style="stroke:#181818;stroke-width:0.5;" width="143.2822" x="328.5" y="7"/><ellipse cx="343.5" cy="23" fill="#ADD1B2" rx="11" ry="11" style="stroke:#181818;stroke-width:1;"/><path d="M346.2656,18.875 Q346.4219,18.6563 346.6094,18.5469 Q346.7969,18.4375 347.0156,18.4375 Q347.3906,18.4375 347.625,18.6953 Q347.8594,18.9531 347.8594,19.5625 L347.8594,21.0156 Q347.8594,21.625 347.625,21.8906 Q347.3906,22.1563 347.0156,22.1563 Q346.6719,22.1563 346.4688,21.9531 Q346.2656,21.7656 346.1563,21.25 Q346.1094,20.8906 345.9219,20.7031 Q345.5938,20.3281 344.9844,20.1094 Q344.375,19.8906 343.75,19.8906 Q342.9844,19.8906 342.3516,20.2188 Q341.7188,20.5469 341.2266,21.2969 Q340.7344,22.0469 340.7344,23.0781 L340.7344,24.1719 Q340.7344,25.4063 341.625,26.2266 Q342.5156,27.0469 344.1094,27.0469 Q345.0469,27.0469 345.7031,26.7969 Q346.0938,26.6406 346.5156,26.2031 Q346.7813,25.9375 346.9297,25.8594 Q347.0781,25.7813 347.2813,25.7813 Q347.6094,25.7813 347.8672,26.0391 Q348.125,26.2969 348.125,26.6406 Q348.125,26.9844 347.7813,27.3906 Q347.2813,27.9688 346.4844,28.2969 Q345.4063,28.75 344.1094,28.75 Q342.5938,28.75 341.3906,28.125 Q340.4063,27.625 339.7188,26.5547 Q339.0313,25.4844 339.0313,24.2031 L339.0313,23.0469 Q339.0313,21.7188 339.6484,20.5703 Q340.2656,19.4219 341.3594,18.8047 Q342.4531,18.1875 343.6875,18.1875 Q344.4219,18.1875 345.0703,18.3516 Q345.7188,18.5156 346.2656,18.875 Z " fill="#000000"/><text fill="#000000" font-family="sans-serif" font-size="14" lengthAdjust="spacing" textLength="111.2822" x="357.5" y="28.7285">GlobalDeclaration</text><line style="stroke:#181818;stroke-width:0.5;" x1="329.5" x2="470.7822" y1="39" y2="39"/><line style="stroke:#181818;stroke-width:0.5;" x1="329.5" x2="470.7822" y1="47" y2="47"/></g><polygon fill="none" points="400.0659,55,407.0031,75.0219,393.0032,74.978" style="stroke:#181818;stroke-width:1;"/><line style="stroke:#181818;stroke-width:1;" x1="400.0031" x2="400" y1="74.9999" y2="76"/><!--class ConstDeclarations--><g class="entity" data-entity="ConstDeclarations" data-source-line="13" data-uid="ent0019" id="entity_ConstDeclarations"><rect fill="#F1F1F1" height="48" rx="2.5" ry="2.5" style="stroke:#181818;stroke-width:0.5;" width="146.3857" x="57" y="135"/><ellipse cx="72" cy="151" fill="#ADD1B2" rx="11" ry="11" style="stroke:#181818;stroke-width:1;"/><path d="M74.7656,146.875 Q74.9219,146.6563 75.1094,146.5469 Q75.2969,146.4375 75.5156,146.4375 Q75.8906,146.4375 76.125,146.6953 Q76.3594,146.9531 76.3594,147.5625 L76.3594,149.0156 Q76.3594,149.625 76.125,149.8906 Q75.8906,150.1563 75.5156,150.1563 Q75.1719,150.1563 74.9688,149.9531 Q74.7656,149.7656 74.6563,149.25 Q74.6094,148.8906 74.4219,148.7031 Q74.0938,148.3281 73.4844,148.1094 Q72.875,147.8906 72.25,147.8906 Q71.4844,147.8906 70.8516,148.2188 Q70.2188,148.5469 69.7266,149.2969 Q69.2344,150.0469 69.2344,151.0781 L69.2344,152.1719 Q69.2344,153.4063 70.125,154.2266 Q71.0156,155.0469 72.6094,155.0469 Q73.5469,155.0469 74.2031,154.7969 Q74.5938,154.6406 75.0156,154.2031 Q75.2813,153.9375 75.4297,153.8594 Q75.5781,153.7813 75.7813,153.7813 Q76.1094,153.7813 76.3672,154.0391 Q76.625,154.2969 76.625,154.6406 Q76.625,154.9844 76.2813,155.3906 Q75.7813,155.9688 74.9844,156.2969 Q73.9063,156.75 72.6094,156.75 Q71.0938,156.75 69.8906,156.125 Q68.9063,155.625 68.2188,154.5547 Q67.5313,153.4844 67.5313,152.2031 L67.5313,151.0469 Q67.5313,149.7188 68.1484,148.5703 Q68.7656,147.4219 69.8594,146.8047 Q70.9531,146.1875 72.1875,146.1875 Q72.9219,146.1875 73.5703,146.3516 Q74.2188,146.5156 74.7656,146.875 Z " fill="#000000"/><text fill="#000000" font-family="sans-serif" font-size="14" lengthAdjust="spacing" textLength="114.3857" x="86" y="156.7285">ConstDeclarations</text><line style="stroke:#181818;stroke-width:0.5;" x1="58" x2="202.3857" y1="167" y2="167"/><line style="stroke:#181818;stroke-width:0.5;" x1="58" x2="202.3857" y1="175" y2="175"/></g><!--class TypeDeclarations--><g class="entity" data-entity="TypeDeclarations" data-source-line="14" data-uid="ent0021" id="entity_TypeDeclarations"><rect fill="#F1F1F1" height="48" rx="2.5" ry="2.5" style="stroke:#181818;stroke-width:0.5;" width="140.9375" x="238.5" y="135"/><ellipse cx="253.5" cy="151" fill="#ADD1B2" rx="11" ry="11" style="stroke:#181818;stroke-width:1;"/><path d="M256.2656,146.875 Q256.4219,146.6563 256.6094,146.5469 Q256.7969,146.4375 257.0156,146.4375 Q257.3906,146.4375 257.625,146.6953 Q257.8594,146.9531 257.8594,147.5625 L257.8594,149.0156 Q257.8594,149.625 257.625,149.8906 Q257.3906,150.1563 257.0156,150.1563 Q256.6719,150.1563 256.4688,149.9531 Q256.2656,149.7656 256.1563,149.25 Q256.1094,148.8906 255.9219,148.7031 Q255.5938,148.3281 254.9844,148.1094 Q254.375,147.8906 253.75,147.8906 Q252.9844,147.8906 252.3516,148.2188 Q251.7188,148.5469 251.2266,149.2969 Q250.7344,150.0469 250.7344,151.0781 L250.7344,152.1719 Q250.7344,153.4063 251.625,154.2266 Q252.5156,155.0469 254.1094,155.0469 Q255.0469,155.0469 255.7031,154.7969 Q256.0938,154.6406 256.5156,154.2031 Q256.7813,153.9375 256.9297,153.8594 Q257.0781,153.7813 257.2813,153.7813 Q257.6094,153.7813 257.8672,154.0391 Q258.125,154.2969 258.125,154.6406 Q258.125,154.9844 257.7813,155.3906 Q257.2813,155.9688 256.4844,156.2969 Q255.4063,156.75 254.1094,156.75 Q252.5938,156.75 251.3906,156.125 Q250.4063,155.625 249.7188,154.5547 Q249.0313,153.4844 249.0313,152.2031 L249.0313,151.0469 Q249.0313,149.7188 249.6484,148.5703 Q250.2656,147.4219 251.3594,146.8047 Q252.4531,146.1875 253.6875,146.1875 Q254.4219,146.1875 255.0703,146.3516 Q255.7188,146.5156 256.2656,146.875 Z " fill="#000000"/><text fill="#000000" font-family="sans-serif" font-size="14" lengthAdjust="spacing" textLength="108.9375" x="267.5" y="156.7285">TypeDeclarations</text><line style="stroke:#181818;stroke-width:0.5;" x1="239.5" x2="378.4375" y1="167" y2="167"/><line style="stroke:#181818;stroke-width:0.5;" x1="239.5" x2="378.4375" y1="175" y2="175"/></g><!--class SensorDeclarations--><g class="entity" data-entity="SensorDeclarations" data-source-line="15" data-uid="ent0023" id="entity_SensorDeclarations"><rect fill="#F1F1F1" height="48" rx="2.5" ry="2.5" style="stroke:#181818;stroke-width:0.5;" width="154.1719" x="415" y="135"/><ellipse cx="430" cy="151" fill="#ADD1B2" rx="11" ry="11" style="stroke:#181818;stroke-width:1;"/><path d="M432.7656,146.875 Q432.9219,146.6563 433.1094,146.5469 Q433.2969,146.4375 433.5156,146.4375 Q433.8906,146.4375 434.125,146.6953 Q434.3594,146.9531 434.3594,147.5625 L434.3594,149.0156 Q434.3594,149.625 434.125,149.8906 Q433.8906,150.1563 433.5156,150.1563 Q433.1719,150.1563 432.9688,149.9531 Q432.7656,149.7656 432.6563,149.25 Q432.6094,148.8906 432.4219,148.7031 Q432.0938,148.3281 431.4844,148.1094 Q430.875,147.8906 430.25,147.8906 Q429.4844,147.8906 428.8516,148.2188 Q428.2188,148.5469 427.7266,149.2969 Q427.2344,150.0469 427.2344,151.0781 L427.2344,152.1719 Q427.2344,153.4063 428.125,154.2266 Q429.0156,155.0469 430.6094,155.0469 Q431.5469,155.0469 432.2031,154.7969 Q432.5938,154.6406 433.0156,154.2031 Q433.2813,153.9375 433.4297,153.8594 Q433.5781,153.7813 433.7813,153.7813 Q434.1094,153.7813 434.3672,154.0391 Q434.625,154.2969 434.625,154.6406 Q434.625,154.9844 434.2813,155.3906 Q433.7813,155.9688 432.9844,156.2969 Q431.9063,156.75 430.6094,156.75 Q429.0938,156.75 427.8906,156.125 Q426.9063,155.625 426.2188,154.5547 Q425.5313,153.4844 425.5313,152.2031 L425.5313,151.0469 Q425.5313,149.7188 426.1484,148.5703 Q426.7656,147.4219 427.8594,146.8047 Q428.9531,146.1875 430.1875,146.1875 Q430.9219,146.1875 431.5703,146.3516 Q432.2188,146.5156 432.7656,146.875 Z " fill="#000000"/><text fill="#000000" font-family="sans-serif" font-size="14" lengthAdjust="spacing" textLength="122.1719" x="444" y="156.7285">SensorDeclarations</text><line style="stroke:#181818;stroke-width:0.5;" x1="416" x2="568.1719" y1="167" y2="167"/><line style="stroke:#181818;stroke-width:0.5;" x1="416" x2="568.1719" y1="175" y2="175"/></g><!--class GroupDeclarations--><g class="entity" data-entity="GroupDeclarations" data-source-line="16" data-uid="ent0025" id="entity_GroupDeclarations"><rect fill="#F1F1F1" height="48" rx="2.5" ry="2.5" style="stroke:#181818;stroke-width:0.5;" width="148.7236" x="604.5" y="135"/><ellipse cx="619.5" cy="151" fill="#ADD1B2" rx="11" ry="11" style="stroke:#181818;stroke-width:1;"/><path d="M622.2656,146.875 Q622.4219,146.6563 622.6094,146.5469 Q622.7969,146.4375 623.0156,146.4375 Q623.3906,146.4375 623.625,146.6953 Q623.8594,146.9531 623.8594,147.5625 L623.8594,149.0156 Q623.8594,149.625 623.625,149.8906 Q623.3906,150.1563 623.0156,150.1563 Q622.6719,150.1563 622.4688,149.9531 Q622.2656,149.7656 622.1563,149.25 Q622.1094,148.8906 621.9219,148.7031 Q621.5938,148.3281 620.9844,148.1094 Q620.375,147.8906 619.75,147.8906 Q618.9844,147.8906 618.3516,148.2188 Q617.7188,148.5469 617.2266,149.2969 Q616.7344,150.0469 616.7344,151.0781 L616.7344,152.1719 Q616.7344,153.4063 617.625,154.2266 Q618.5156,155.0469 620.1094,155.0469 Q621.0469,155.0469 621.7031,154.7969 Q622.0938,154.6406 622.5156,154.2031 Q622.7813,153.9375 622.9297,153.8594 Q623.0781,153.7813 623.2813,153.7813 Q623.6094,153.7813 623.8672,154.0391 Q624.125,154.2969 624.125,154.6406 Q624.125,154.9844 623.7813,155.3906 Q623.2813,155.9688 622.4844,156.2969 Q621.4063,156.75 620.1094,156.75 Q618.5938,156.75 617.3906,156.125 Q616.4063,155.625 615.7188,154.5547 Q615.0313,153.4844 615.0313,152.2031 L615.0313,151.0469 Q615.0313,149.7188 615.6484,148.5703 Q616.2656,147.4219 617.3594,146.8047 Q618.4531,146.1875 619.6875,146.1875 Q620.4219,146.1875 621.0703,146.3516 Q621.7188,146.5156 622.2656,146.875 Z " fill="#000000"/><text fill="#000000" font-family="sans-serif" font-size="14" lengthAdjust="spacing" textLength="116.7236" x="633.5" y="156.7285">GroupDeclarations</text><line style="stroke:#181818;stroke-width:0.5;" x1="605.5" x2="752.2236" y1="167" y2="167"/><line style="stroke:#181818;stroke-width:0.5;" x1="605.5" x2="752.2236" y1="175" y2="175"/></g><!--reverse link HasPragama to Declaration--><g class="link" data-entity-1="HasPragama" data-entity-2="Declaration" data-source-line="2" data-uid="lnk4" id="link_HasPragama_Declaration"><path codeLine="2" d="M138.3408,291.3804 C202.2808,311.4904 287.77,338.38 349.37,357.76" fill="none" id="HasPragama-backto-Declaration" style="stroke:#181818;stroke-width:1;"/><polygon fill="none" points="121.17,285.98,136.5406,297.104,140.1409,285.6569,121.17,285.98" style="stroke:#181818;stroke-width:1;"/></g><!--link ConstDecl to Declaration--><g class="link" data-entity-1="ConstDecl" data-entity-2="Declaration" data-source-line="3" data-uid="lnk6" id="link_ConstDecl_Declaration"><path codeLine="3" d="M247.53,291 C280.29,308.72 309.5561,324.5492 342.3861,342.2992" fill="none" id="ConstDecl-to-Declaration" style="stroke:#181818;stroke-width:1;"/><polygon fill="none" points="358.22,350.86,345.2397,337.0212,339.5325,347.5771,358.22,350.86" style="stroke:#181818;stroke-width:1;"/></g><!--link TypeDecl to Declaration--><g class="link" data-entity-1="TypeDecl" data-entity-2="Declaration" data-source-line="4" data-uid="lnk8" id="link_TypeDecl_Declaration"><path codeLine="4" d="M348.54,291 C359.7,308.66 365.4346,317.7234 376.6446,335.4634" fill="none" id="TypeDecl-to-Declaration" style="stroke:#181818;stroke-width:1;"/><polygon fill="none" points="386.26,350.68,381.7168,332.2583,371.5724,338.6686,386.26,350.68" style="stroke:#181818;stroke-width:1;"/></g><!--link SensorDecl to Declaration--><g class="link" data-entity-1="SensorDecl" data-entity-2="Declaration" data-source-line="5" data-uid="lnk10" id="link_SensorDecl_Declaration"><path codeLine="5" d="M452.68,291 C441.68,308.66 436.0867,317.6615 425.0367,335.4015" fill="none" id="SensorDecl-to-Declaration" style="stroke:#181818;stroke-width:1;"/><polygon fill="none" points="415.52,350.68,430.1296,338.5738,419.9439,332.2293,415.52,350.68" style="stroke:#181818;stroke-width:1;"/></g><!--link GroupDecl to Declaration--><g class="link" data-entity-1="GroupDecl" data-entity-2="Declaration" data-source-line="6" data-uid="lnk12" id="link_GroupDecl_Declaration"><path codeLine="6" d="M559.95,291 C526.02,308.72 495.2664,324.7798 461.2664,342.5298" fill="none" id="GroupDecl-to-Declaration" style="stroke:#181818;stroke-width:1;"/><polygon fill="none" points="445.31,350.86,464.0432,347.8486,458.4897,337.211,445.31,350.86" style="stroke:#181818;stroke-width:1;"/></g><!--link VarDecl to Declaration--><g class="link" data-entity-1="VarDecl" data-entity-2="Declaration" data-source-line="7" data-uid="lnk14" id="link_VarDecl_Declaration"><path codeLine="7" d="M688.88,284.47 C682.91,286.74 676.81,288.98 671,291 C595.74,317.2 524.5225,338.5832 469.9125,354.3632" fill="none" id="VarDecl-to-Declaration" style="stroke:#181818;stroke-width:1;"/><polygon fill="none" points="452.62,359.36,471.5781,360.1274,468.2469,348.599,452.62,359.36" style="stroke:#181818;stroke-width:1;"/></g><!--reverse link GlobalDeclaration to ConstDeclarations--><g class="link" data-entity-1="GlobalDeclaration" data-entity-2="ConstDeclarations" data-source-line="13" data-uid="lnk20" id="link_GlobalDeclaration_ConstDeclarations"><path codeLine="13" d="M400,76 C400,76 283.03,111.52 203.07,135.81" fill="none" id="GlobalDeclaration-backto-ConstDeclarations" style="stroke:#181818;stroke-width:1;"/></g><!--reverse link GlobalDeclaration to TypeDeclarations--><g class="link" data-entity-1="GlobalDeclaration" data-entity-2="TypeDeclarations" data-source-line="14" data-uid="lnk22" id="link_GlobalDeclaration_TypeDeclarations"><path codeLine="14" d="M400,76 C400,76 361.74,110.48 334.83,134.72" fill="none" id="GlobalDeclaration-backto-TypeDeclarations" style="stroke:#181818;stroke-width:1;"/></g><!--reverse link GlobalDeclaration to SensorDeclarations--><g class="link" data-entity-1="GlobalDeclaration" data-entity-2="SensorDeclarations" data-source-line="15" data-uid="lnk24" id="link_GlobalDeclaration_SensorDeclarations"><path codeLine="15" d="M400,76 C400,76 438.68,110.48 465.88,134.72" fill="none" id="GlobalDeclaration-backto-SensorDeclarations" style="stroke:#181818;stroke-width:1;"/></g><!--reverse link GlobalDeclaration to GroupDeclarations--><g class="link" data-entity-1="GlobalDeclaration" data-entity-2="GroupDeclarations" data-source-line="16" data-uid="lnk26" id="link_GlobalDeclaration_GroupDeclarations"><path codeLine="16" d="M400,76 C400,76 521.59,111.74 604.23,136.03" fill="none" id="GlobalDeclaration-backto-GroupDeclarations" style="stroke:#181818;stroke-width:1;"/></g><!--reverse link ConstDeclarations to ConstDecl--><g class="link" data-entity-1="ConstDeclarations" data-entity-2="ConstDecl" data-source-line="18" data-uid="lnk27" id="link_ConstDeclarations_ConstDecl"><path codeLine="18" d="M153.2028,192.7947 C165.7028,210.4547 175.95,224.94 188.5,242.68" fill="none" id="ConstDeclarations-backto-ConstDecl" style="stroke:#181818;stroke-width:1;"/><polygon fill="#181818" points="146.27,183,146.4715,190.2083,153.2028,192.7947,153.0013,185.5864,146.27,183" style="stroke:#181818;stroke-width:1;"/></g><!--reverse link TypeDeclarations to TypeDecl--><g class="link" data-entity-1="TypeDeclarations" data-entity-2="TypeDecl" data-source-line="19" data-uid="lnk28" id="link_TypeDeclarations_TypeDecl"><path codeLine="19" d="M317.1777,194.6788 C321.3477,212.3388 324.32,224.94 328.5,242.68" fill="none" id="TypeDeclarations-backto-TypeDecl" style="stroke:#181818;stroke-width:1;"/><polygon fill="#181818" points="314.42,183,311.9059,189.7586,317.1777,194.6788,319.6918,187.9202,314.42,183" style="stroke:#181818;stroke-width:1;"/></g><!--reverse link SensorDeclarations to SensorDecl--><g class="link" data-entity-1="SensorDeclarations" data-entity-2="SensorDecl" data-source-line="20" data-uid="lnk29" id="link_SensorDeclarations_SensorDecl"><path codeLine="20" d="M483.8223,194.6788 C479.6523,212.3388 476.68,224.94 472.5,242.68" fill="none" id="SensorDeclarations-backto-SensorDecl" style="stroke:#181818;stroke-width:1;"/><polygon fill="#181818" points="486.58,183,481.3082,187.9202,483.8223,194.6788,489.0941,189.7586,486.58,183" style="stroke:#181818;stroke-width:1;"/></g><!--reverse link GroupDeclarations to GroupDecl--><g class="link" data-entity-1="GroupDeclarations" data-entity-2="GroupDecl" data-source-line="21" data-uid="lnk30" id="link_GroupDeclarations_GroupDecl"><path codeLine="21" d="M655.7972,192.7947 C643.2972,210.4547 633.05,224.94 620.5,242.68" fill="none" id="GroupDeclarations-backto-GroupDecl" style="stroke:#181818;stroke-width:1;"/><polygon fill="#181818" points="662.73,183,655.9987,185.5864,655.7972,192.7947,662.5285,190.2083,662.73,183" style="stroke:#181818;stroke-width:1;"/></g><!--SRC=[XP0x3u9048Jx_HLR4wXiZOqcQ6VYex9Pu40Yx9AxmyI47oz4UGK8tULcTlQRDQ-K2zAKOwAbB4xyL3grnA723Hp9d3Kbb1DkAy_3WmgpscjJOTWB6zjyeETLkv5q_HHgNhaeDgBdDR_PFo_TQM66nIeCn5h9KMBy- -1cL8InQ7oJTh4kM5htmI2bhLyOzG4654VOf03ucGIK3T9_dRkUxGWkETlQgyR-2glMxYYz4wP4pf0J9XpE00vcbZiZ9fZkT8OaNm00]--></g></svg>