<svg xmlns="http://www.w3.org/2000/svg" xmlns:xlink="http://www.w3.org/1999/xlink" contentStyleType="text/css" data-diagram-type="CLASS" height="602px" preserveAspectRatio="none" style="width:820px;height:602px;background:#FFFFFF;" version="1.1" viewBox="0 0 820 602" width="820px" zoomAndPan="magnify"><defs/><g><!--class HasPragma--><g class="entity" data-entity="HasPragma" data-source-line="2" data-uid="ent0002" id="entity_HasPragma"><rect fill="#F1F1F1" height="48" rx="2.5" ry="2.5" style="stroke:#181818;stroke-width:0.5;" width="105.917" x="235.5" y="7"/><ellipse cx="250.5" cy="23" fill="#ADD1B2" rx="11" ry="11" style="stroke:#181818;stroke-width:1;"/><path d="M253.2656,18.875 Q253.4219,18.6563 253.6094,18.5469 Q253.7969,18.4375 254.0156,18.4375 Q254.3906,18.4375 254.625,18.6953 Q254.8594,18.9531 254.8594,19.5625 L254.8594,21.0156 Q254.8594,21.625 254.625,21.8906 Q254.3906,22.1563 254.0156,22.1563 Q253.6719,22.1563 253.4688,21.9531 Q253.2656,21.7656 253.1563,21.25 Q253.1094,20.8906 252.9219,20.7031 Q252.5938,20.3281 251.9844,20.1094 Q251.375,19.8906 250.75,19.8906 Q249.9844,19.8906 249.3516,20.2188 Q248.7188,20.5469 248.2266,21.2969 Q247.7344,22.0469 247.7344,23.0781 L247.7344,24.1719 Q247.7344,25.4063 248.625,26.2266 Q249.5156,27.0469 251.1094,27.0469 Q252.0469,27.0469 252.7031,26.7969 Q253.0938,26.6406 253.5156,26.2031 Q253.7813,25.9375 253.9297,25.8594 Q254.0781,25.7813 254.2813,25.7813 Q254.6094,25.7813 254.8672,26.0391 Q255.125,26.2969 255.125,26.6406 Q255.125,26.9844 254.7813,27.3906 Q254.2813,27.9688 253.4844,28.2969 Q252.4063,28.75 251.1094,28.75 Q249.5938,28.75 248.3906,28.125 Q247.4063,27.625 246.7188,26.5547 Q246.0313,25.4844 246.0313,24.2031 L246.0313,23.0469 Q246.0313,21.7188 246.6484,20.5703 Q247.2656,19.4219 248.3594,18.8047 Q249.4531,18.1875 250.6875,18.1875 Q251.4219,18.1875 252.0703,18.3516 Q252.7188,18.5156 253.2656,18.875 Z " fill="#000000"/><text fill="#000000" font-family="sans-serif" font-size="14" lengthAdjust="spacing" textLength="73.917" x="264.5" y="28.7285">HasPragma</text><line style="stroke:#181818;stroke-width:0.5;" x1="236.5" x2="340.417" y1="39" y2="39"/><line style="stroke:#181818;stroke-width:0.5;" x1="236.5" x2="340.417" y1="47" y2="47"/></g><!--class ModuleBase--><g class="entity" data-entity="ModuleBase" data-source-line="2" data-uid="ent0003" id="entity_ModuleBase"><rect fill="#F1F1F1" height="48" rx="2.5" ry="2.5" style="stroke:#181818;stroke-width:0.5;" width="109.8271" x="233.5" y="115"/><ellipse cx="248.5" cy="131" fill="#ADD1B2" rx="11" ry="11" style="stroke:#181818;stroke-width:1;"/><path d="M251.2656,126.875 Q251.4219,126.6563 251.6094,126.5469 Q251.7969,126.4375 252.0156,126.4375 Q252.3906,126.4375 252.625,126.6953 Q252.8594,126.9531 252.8594,127.5625 L252.8594,129.0156 Q252.8594,129.625 252.625,129.8906 Q252.3906,130.1563 252.0156,130.1563 Q251.6719,130.1563 251.4688,129.9531 Q251.2656,129.7656 251.1563,129.25 Q251.1094,128.8906 250.9219,128.7031 Q250.5938,128.3281 249.9844,128.1094 Q249.375,127.8906 248.75,127.8906 Q247.9844,127.8906 247.3516,128.2188 Q246.7188,128.5469 246.2266,129.2969 Q245.7344,130.0469 245.7344,131.0781 L245.7344,132.1719 Q245.7344,133.4063 246.625,134.2266 Q247.5156,135.0469 249.1094,135.0469 Q250.0469,135.0469 250.7031,134.7969 Q251.0938,134.6406 251.5156,134.2031 Q251.7813,133.9375 251.9297,133.8594 Q252.0781,133.7813 252.2813,133.7813 Q252.6094,133.7813 252.8672,134.0391 Q253.125,134.2969 253.125,134.6406 Q253.125,134.9844 252.7813,135.3906 Q252.2813,135.9688 251.4844,136.2969 Q250.4063,136.75 249.1094,136.75 Q247.5938,136.75 246.3906,136.125 Q245.4063,135.625 244.7188,134.5547 Q244.0313,133.4844 244.0313,132.2031 L244.0313,131.0469 Q244.0313,129.7188 244.6484,128.5703 Q245.2656,127.4219 246.3594,126.8047 Q247.4531,126.1875 248.6875,126.1875 Q249.4219,126.1875 250.0703,126.3516 Q250.7188,126.5156 251.2656,126.875 Z " fill="#000000"/><text fill="#000000" font-family="sans-serif" font-size="14" lengthAdjust="spacing" textLength="77.8271" x="262.5" y="136.7285">ModuleBase</text><line style="stroke:#181818;stroke-width:0.5;" x1="234.5" x2="342.3271" y1="147" y2="147"/><line style="stroke:#181818;stroke-width:0.5;" x1="234.5" x2="342.3271" y1="155" y2="155"/></g><!--class Module--><g class="entity" data-entity="Module" data-source-line="3" data-uid="ent0005" id="entity_Module"><rect fill="#F1F1F1" height="48" rx="2.5" ry="2.5" style="stroke:#181818;stroke-width:0.5;" width="77.917" x="249.5" y="223"/><ellipse cx="264.5" cy="239" fill="#ADD1B2" rx="11" ry="11" style="stroke:#181818;stroke-width:1;"/><path d="M267.2656,234.875 Q267.4219,234.6563 267.6094,234.5469 Q267.7969,234.4375 268.0156,234.4375 Q268.3906,234.4375 268.625,234.6953 Q268.8594,234.9531 268.8594,235.5625 L268.8594,237.0156 Q268.8594,237.625 268.625,237.8906 Q268.3906,238.1563 268.0156,238.1563 Q267.6719,238.1563 267.4688,237.9531 Q267.2656,237.7656 267.1563,237.25 Q267.1094,236.8906 266.9219,236.7031 Q266.5938,236.3281 265.9844,236.1094 Q265.375,235.8906 264.75,235.8906 Q263.9844,235.8906 263.3516,236.2188 Q262.7188,236.5469 262.2266,237.2969 Q261.7344,238.0469 261.7344,239.0781 L261.7344,240.1719 Q261.7344,241.4063 262.625,242.2266 Q263.5156,243.0469 265.1094,243.0469 Q266.0469,243.0469 266.7031,242.7969 Q267.0938,242.6406 267.5156,242.2031 Q267.7813,241.9375 267.9297,241.8594 Q268.0781,241.7813 268.2813,241.7813 Q268.6094,241.7813 268.8672,242.0391 Q269.125,242.2969 269.125,242.6406 Q269.125,242.9844 268.7813,243.3906 Q268.2813,243.9688 267.4844,244.2969 Q266.4063,244.75 265.1094,244.75 Q263.5938,244.75 262.3906,244.125 Q261.4063,243.625 260.7188,242.5547 Q260.0313,241.4844 260.0313,240.2031 L260.0313,239.0469 Q260.0313,237.7188 260.6484,236.5703 Q261.2656,235.4219 262.3594,234.8047 Q263.4531,234.1875 264.6875,234.1875 Q265.4219,234.1875 266.0703,234.3516 Q266.7188,234.5156 267.2656,234.875 Z " fill="#000000"/><text fill="#000000" font-family="sans-serif" font-size="14" lengthAdjust="spacing" textLength="45.917" x="278.5" y="244.7285">Module</text><line style="stroke:#181818;stroke-width:0.5;" x1="250.5" x2="326.417" y1="255" y2="255"/><line style="stroke:#181818;stroke-width:0.5;" x1="250.5" x2="326.417" y1="263" y2="263"/></g><!--class ModuleInterface--><g class="entity" data-entity="ModuleInterface" data-source-line="4" data-uid="ent0007" id="entity_ModuleInterface"><rect fill="#F1F1F1" height="48" rx="2.5" ry="2.5" style="stroke:#181818;stroke-width:0.5;" width="132.3926" x="66.5" y="331"/><ellipse cx="81.5" cy="347" fill="#ADD1B2" rx="11" ry="11" style="stroke:#181818;stroke-width:1;"/><path d="M84.2656,342.875 Q84.4219,342.6563 84.6094,342.5469 Q84.7969,342.4375 85.0156,342.4375 Q85.3906,342.4375 85.625,342.6953 Q85.8594,342.9531 85.8594,343.5625 L85.8594,345.0156 Q85.8594,345.625 85.625,345.8906 Q85.3906,346.1563 85.0156,346.1563 Q84.6719,346.1563 84.4688,345.9531 Q84.2656,345.7656 84.1563,345.25 Q84.1094,344.8906 83.9219,344.7031 Q83.5938,344.3281 82.9844,344.1094 Q82.375,343.8906 81.75,343.8906 Q80.9844,343.8906 80.3516,344.2188 Q79.7188,344.5469 79.2266,345.2969 Q78.7344,346.0469 78.7344,347.0781 L78.7344,348.1719 Q78.7344,349.4063 79.625,350.2266 Q80.5156,351.0469 82.1094,351.0469 Q83.0469,351.0469 83.7031,350.7969 Q84.0938,350.6406 84.5156,350.2031 Q84.7813,349.9375 84.9297,349.8594 Q85.0781,349.7813 85.2813,349.7813 Q85.6094,349.7813 85.8672,350.0391 Q86.125,350.2969 86.125,350.6406 Q86.125,350.9844 85.7813,351.3906 Q85.2813,351.9688 84.4844,352.2969 Q83.4063,352.75 82.1094,352.75 Q80.5938,352.75 79.3906,352.125 Q78.4063,351.625 77.7188,350.5547 Q77.0313,349.4844 77.0313,348.2031 L77.0313,347.0469 Q77.0313,345.7188 77.6484,344.5703 Q78.2656,343.4219 79.3594,342.8047 Q80.4531,342.1875 81.6875,342.1875 Q82.4219,342.1875 83.0703,342.3516 Q83.7188,342.5156 84.2656,342.875 Z " fill="#000000"/><text fill="#000000" font-family="sans-serif" font-size="14" lengthAdjust="spacing" textLength="100.3926" x="95.5" y="352.7285">ModuleInterface</text><line style="stroke:#181818;stroke-width:0.5;" x1="67.5" x2="197.8926" y1="363" y2="363"/><line style="stroke:#181818;stroke-width:0.5;" x1="67.5" x2="197.8926" y1="371" y2="371"/></g><!--class ModuleBody--><g class="entity" data-entity="ModuleBody" data-source-line="5" data-uid="ent0009" id="entity_ModuleBody"><rect fill="#F1F1F1" height="48" rx="2.5" ry="2.5" style="stroke:#181818;stroke-width:0.5;" width="109.8271" x="233.5" y="331"/><ellipse cx="248.5" cy="347" fill="#ADD1B2" rx="11" ry="11" style="stroke:#181818;stroke-width:1;"/><path d="M251.2656,342.875 Q251.4219,342.6563 251.6094,342.5469 Q251.7969,342.4375 252.0156,342.4375 Q252.3906,342.4375 252.625,342.6953 Q252.8594,342.9531 252.8594,343.5625 L252.8594,345.0156 Q252.8594,345.625 252.625,345.8906 Q252.3906,346.1563 252.0156,346.1563 Q251.6719,346.1563 251.4688,345.9531 Q251.2656,345.7656 251.1563,345.25 Q251.1094,344.8906 250.9219,344.7031 Q250.5938,344.3281 249.9844,344.1094 Q249.375,343.8906 248.75,343.8906 Q247.9844,343.8906 247.3516,344.2188 Q246.7188,344.5469 246.2266,345.2969 Q245.7344,346.0469 245.7344,347.0781 L245.7344,348.1719 Q245.7344,349.4063 246.625,350.2266 Q247.5156,351.0469 249.1094,351.0469 Q250.0469,351.0469 250.7031,350.7969 Q251.0938,350.6406 251.5156,350.2031 Q251.7813,349.9375 251.9297,349.8594 Q252.0781,349.7813 252.2813,349.7813 Q252.6094,349.7813 252.8672,350.0391 Q253.125,350.2969 253.125,350.6406 Q253.125,350.9844 252.7813,351.3906 Q252.2813,351.9688 251.4844,352.2969 Q250.4063,352.75 249.1094,352.75 Q247.5938,352.75 246.3906,352.125 Q245.4063,351.625 244.7188,350.5547 Q244.0313,349.4844 244.0313,348.2031 L244.0313,347.0469 Q244.0313,345.7188 244.6484,344.5703 Q245.2656,343.4219 246.3594,342.8047 Q247.4531,342.1875 248.6875,342.1875 Q249.4219,342.1875 250.0703,342.3516 Q250.7188,342.5156 251.2656,342.875 Z " fill="#000000"/><text fill="#000000" font-family="sans-serif" font-size="14" lengthAdjust="spacing" textLength="77.8271" x="262.5" y="352.7285">ModuleBody</text><line style="stroke:#181818;stroke-width:0.5;" x1="234.5" x2="342.3271" y1="363" y2="363"/><line style="stroke:#181818;stroke-width:0.5;" x1="234.5" x2="342.3271" y1="371" y2="371"/></g><!--class ModuleItem--><g class="entity" data-entity="ModuleItem" data-source-line="6" data-uid="ent0011" id="entity_ModuleItem"><rect fill="#F1F1F1" height="48" rx="2.5" ry="2.5" style="stroke:#181818;stroke-width:0.5;" width="105.1445" x="379" y="331"/><ellipse cx="394" cy="347" fill="#ADD1B2" rx="11" ry="11" style="stroke:#181818;stroke-width:1;"/><path d="M396.7656,342.875 Q396.9219,342.6563 397.1094,342.5469 Q397.2969,342.4375 397.5156,342.4375 Q397.8906,342.4375 398.125,342.6953 Q398.3594,342.9531 398.3594,343.5625 L398.3594,345.0156 Q398.3594,345.625 398.125,345.8906 Q397.8906,346.1563 397.5156,346.1563 Q397.1719,346.1563 396.9688,345.9531 Q396.7656,345.7656 396.6563,345.25 Q396.6094,344.8906 396.4219,344.7031 Q396.0938,344.3281 395.4844,344.1094 Q394.875,343.8906 394.25,343.8906 Q393.4844,343.8906 392.8516,344.2188 Q392.2188,344.5469 391.7266,345.2969 Q391.2344,346.0469 391.2344,347.0781 L391.2344,348.1719 Q391.2344,349.4063 392.125,350.2266 Q393.0156,351.0469 394.6094,351.0469 Q395.5469,351.0469 396.2031,350.7969 Q396.5938,350.6406 397.0156,350.2031 Q397.2813,349.9375 397.4297,349.8594 Q397.5781,349.7813 397.7813,349.7813 Q398.1094,349.7813 398.3672,350.0391 Q398.625,350.2969 398.625,350.6406 Q398.625,350.9844 398.2813,351.3906 Q397.7813,351.9688 396.9844,352.2969 Q395.9063,352.75 394.6094,352.75 Q393.0938,352.75 391.8906,352.125 Q390.9063,351.625 390.2188,350.5547 Q389.5313,349.4844 389.5313,348.2031 L389.5313,347.0469 Q389.5313,345.7188 390.1484,344.5703 Q390.7656,343.4219 391.8594,342.8047 Q392.9531,342.1875 394.1875,342.1875 Q394.9219,342.1875 395.5703,342.3516 Q396.2188,342.5156 396.7656,342.875 Z " fill="#000000"/><text fill="#000000" font-family="sans-serif" font-size="14" lengthAdjust="spacing" textLength="73.1445" x="408" y="352.7285">ModuleItem</text><line style="stroke:#181818;stroke-width:0.5;" x1="380" x2="483.1445" y1="363" y2="363"/><line style="stroke:#181818;stroke-width:0.5;" x1="380" x2="483.1445" y1="371" y2="371"/></g><!--class UseDirective--><g class="entity" data-entity="UseDirective" data-source-line="8" data-uid="ent0013" id="entity_UseDirective"><rect fill="#F1F1F1" height="48" rx="2.5" ry="2.5" style="stroke:#181818;stroke-width:0.5;" width="111.3516" x="376" y="439"/><ellipse cx="391" cy="455" fill="#ADD1B2" rx="11" ry="11" style="stroke:#181818;stroke-width:1;"/><path d="M393.7656,450.875 Q393.9219,450.6563 394.1094,450.5469 Q394.2969,450.4375 394.5156,450.4375 Q394.8906,450.4375 395.125,450.6953 Q395.3594,450.9531 395.3594,451.5625 L395.3594,453.0156 Q395.3594,453.625 395.125,453.8906 Q394.8906,454.1563 394.5156,454.1563 Q394.1719,454.1563 393.9688,453.9531 Q393.7656,453.7656 393.6563,453.25 Q393.6094,452.8906 393.4219,452.7031 Q393.0938,452.3281 392.4844,452.1094 Q391.875,451.8906 391.25,451.8906 Q390.4844,451.8906 389.8516,452.2188 Q389.2188,452.5469 388.7266,453.2969 Q388.2344,454.0469 388.2344,455.0781 L388.2344,456.1719 Q388.2344,457.4063 389.125,458.2266 Q390.0156,459.0469 391.6094,459.0469 Q392.5469,459.0469 393.2031,458.7969 Q393.5938,458.6406 394.0156,458.2031 Q394.2813,457.9375 394.4297,457.8594 Q394.5781,457.7813 394.7813,457.7813 Q395.1094,457.7813 395.3672,458.0391 Q395.625,458.2969 395.625,458.6406 Q395.625,458.9844 395.2813,459.3906 Q394.7813,459.9688 393.9844,460.2969 Q392.9063,460.75 391.6094,460.75 Q390.0938,460.75 388.8906,460.125 Q387.9063,459.625 387.2188,458.5547 Q386.5313,457.4844 386.5313,456.2031 L386.5313,455.0469 Q386.5313,453.7188 387.1484,452.5703 Q387.7656,451.4219 388.8594,450.8047 Q389.9531,450.1875 391.1875,450.1875 Q391.9219,450.1875 392.5703,450.3516 Q393.2188,450.5156 393.7656,450.875 Z " fill="#000000"/><text fill="#000000" font-family="sans-serif" font-size="14" lengthAdjust="spacing" textLength="79.3516" x="405" y="460.7285">UseDirective</text><line style="stroke:#181818;stroke-width:0.5;" x1="377" x2="486.3516" y1="471" y2="471"/><line style="stroke:#181818;stroke-width:0.5;" x1="377" x2="486.3516" y1="479" y2="479"/></g><!--class GlobalDeclaration--><g class="entity" data-entity="GlobalDeclaration" data-source-line="9" data-uid="ent0015" id="entity_GlobalDeclaration"><rect fill="#F1F1F1" height="48" rx="2.5" ry="2.5" style="stroke:#181818;stroke-width:0.5;" width="143.2822" x="198" y="439"/><ellipse cx="213" cy="455" fill="#ADD1B2" rx="11" ry="11" style="stroke:#181818;stroke-width:1;"/><path d="M215.7656,450.875 Q215.9219,450.6563 216.1094,450.5469 Q216.2969,450.4375 216.5156,450.4375 Q216.8906,450.4375 217.125,450.6953 Q217.3594,450.9531 217.3594,451.5625 L217.3594,453.0156 Q217.3594,453.625 217.125,453.8906 Q216.8906,454.1563 216.5156,454.1563 Q216.1719,454.1563 215.9688,453.9531 Q215.7656,453.7656 215.6563,453.25 Q215.6094,452.8906 215.4219,452.7031 Q215.0938,452.3281 214.4844,452.1094 Q213.875,451.8906 213.25,451.8906 Q212.4844,451.8906 211.8516,452.2188 Q211.2188,452.5469 210.7266,453.2969 Q210.2344,454.0469 210.2344,455.0781 L210.2344,456.1719 Q210.2344,457.4063 211.125,458.2266 Q212.0156,459.0469 213.6094,459.0469 Q214.5469,459.0469 215.2031,458.7969 Q215.5938,458.6406 216.0156,458.2031 Q216.2813,457.9375 216.4297,457.8594 Q216.5781,457.7813 216.7813,457.7813 Q217.1094,457.7813 217.3672,458.0391 Q217.625,458.2969 217.625,458.6406 Q217.625,458.9844 217.2813,459.3906 Q216.7813,459.9688 215.9844,460.2969 Q214.9063,460.75 213.6094,460.75 Q212.0938,460.75 210.8906,460.125 Q209.9063,459.625 209.2188,458.5547 Q208.5313,457.4844 208.5313,456.2031 L208.5313,455.0469 Q208.5313,453.7188 209.1484,452.5703 Q209.7656,451.4219 210.8594,450.8047 Q211.9531,450.1875 213.1875,450.1875 Q213.9219,450.1875 214.5703,450.3516 Q215.2188,450.5156 215.7656,450.875 Z " fill="#000000"/><text fill="#000000" font-family="sans-serif" font-size="14" lengthAdjust="spacing" textLength="111.2822" x="227" y="460.7285">GlobalDeclaration</text><line style="stroke:#181818;stroke-width:0.5;" x1="199" x2="340.2822" y1="471" y2="471"/><line style="stroke:#181818;stroke-width:0.5;" x1="199" x2="340.2822" y1="479" y2="479"/></g><!--class OperatorDeclarationDefinitionBase--><g class="entity" data-entity="OperatorDeclarationDefinitionBase" data-source-line="10" data-uid="ent0017" id="entity_OperatorDeclarationDefinitionBase"><rect fill="#F1F1F1" height="48" rx="2.5" ry="2.5" style="stroke:#181818;stroke-width:0.5;" width="248.3369" x="522.5" y="439"/><ellipse cx="537.5" cy="455" fill="#ADD1B2" rx="11" ry="11" style="stroke:#181818;stroke-width:1;"/><path d="M540.2656,450.875 Q540.4219,450.6563 540.6094,450.5469 Q540.7969,450.4375 541.0156,450.4375 Q541.3906,450.4375 541.625,450.6953 Q541.8594,450.9531 541.8594,451.5625 L541.8594,453.0156 Q541.8594,453.625 541.625,453.8906 Q541.3906,454.1563 541.0156,454.1563 Q540.6719,454.1563 540.4688,453.9531 Q540.2656,453.7656 540.1563,453.25 Q540.1094,452.8906 539.9219,452.7031 Q539.5938,452.3281 538.9844,452.1094 Q538.375,451.8906 537.75,451.8906 Q536.9844,451.8906 536.3516,452.2188 Q535.7188,452.5469 535.2266,453.2969 Q534.7344,454.0469 534.7344,455.0781 L534.7344,456.1719 Q534.7344,457.4063 535.625,458.2266 Q536.5156,459.0469 538.1094,459.0469 Q539.0469,459.0469 539.7031,458.7969 Q540.0938,458.6406 540.5156,458.2031 Q540.7813,457.9375 540.9297,457.8594 Q541.0781,457.7813 541.2813,457.7813 Q541.6094,457.7813 541.8672,458.0391 Q542.125,458.2969 542.125,458.6406 Q542.125,458.9844 541.7813,459.3906 Q541.2813,459.9688 540.4844,460.2969 Q539.4063,460.75 538.1094,460.75 Q536.5938,460.75 535.3906,460.125 Q534.4063,459.625 533.7188,458.5547 Q533.0313,457.4844 533.0313,456.2031 L533.0313,455.0469 Q533.0313,453.7188 533.6484,452.5703 Q534.2656,451.4219 535.3594,450.8047 Q536.4531,450.1875 537.6875,450.1875 Q538.4219,450.1875 539.0703,450.3516 Q539.7188,450.5156 540.2656,450.875 Z " fill="#000000"/><text fill="#000000" font-family="sans-serif" font-size="14" lengthAdjust="spacing" textLength="216.3369" x="551.5" y="460.7285">OperatorDeclarationDefinitionBase</text><line style="stroke:#181818;stroke-width:0.5;" x1="523.5" x2="769.8369" y1="471" y2="471"/><line style="stroke:#181818;stroke-width:0.5;" x1="523.5" x2="769.8369" y1="479" y2="479"/></g><!--class OperatorDeclaration--><g class="entity" data-entity="OperatorDeclaration" data-source-line="11" data-uid="ent0019" id="entity_OperatorDeclaration"><rect fill="#F1F1F1" height="48" rx="2.5" ry="2.5" style="stroke:#181818;stroke-width:0.5;" width="158.0615" x="474.5" y="547"/><ellipse cx="489.5" cy="563" fill="#ADD1B2" rx="11" ry="11" style="stroke:#181818;stroke-width:1;"/><path d="M492.2656,558.875 Q492.4219,558.6563 492.6094,558.5469 Q492.7969,558.4375 493.0156,558.4375 Q493.3906,558.4375 493.625,558.6953 Q493.8594,558.9531 493.8594,559.5625 L493.8594,561.0156 Q493.8594,561.625 493.625,561.8906 Q493.3906,562.1563 493.0156,562.1563 Q492.6719,562.1563 492.4688,561.9531 Q492.2656,561.7656 492.1563,561.25 Q492.1094,560.8906 491.9219,560.7031 Q491.5938,560.3281 490.9844,560.1094 Q490.375,559.8906 489.75,559.8906 Q488.9844,559.8906 488.3516,560.2188 Q487.7188,560.5469 487.2266,561.2969 Q486.7344,562.0469 486.7344,563.0781 L486.7344,564.1719 Q486.7344,565.4063 487.625,566.2266 Q488.5156,567.0469 490.1094,567.0469 Q491.0469,567.0469 491.7031,566.7969 Q492.0938,566.6406 492.5156,566.2031 Q492.7813,565.9375 492.9297,565.8594 Q493.0781,565.7813 493.2813,565.7813 Q493.6094,565.7813 493.8672,566.0391 Q494.125,566.2969 494.125,566.6406 Q494.125,566.9844 493.7813,567.3906 Q493.2813,567.9688 492.4844,568.2969 Q491.4063,568.75 490.1094,568.75 Q488.5938,568.75 487.3906,568.125 Q486.4063,567.625 485.7188,566.5547 Q485.0313,565.4844 485.0313,564.2031 L485.0313,563.0469 Q485.0313,561.7188 485.6484,560.5703 Q486.2656,559.4219 487.3594,558.8047 Q488.4531,558.1875 489.6875,558.1875 Q490.4219,558.1875 491.0703,558.3516 Q491.7188,558.5156 492.2656,558.875 Z " fill="#000000"/><text fill="#000000" font-family="sans-serif" font-size="14" lengthAdjust="spacing" textLength="126.0615" x="503.5" y="568.7285">OperatorDeclaration</text><line style="stroke:#181818;stroke-width:0.5;" x1="475.5" x2="631.5615" y1="579" y2="579"/><line style="stroke:#181818;stroke-width:0.5;" x1="475.5" x2="631.5615" y1="587" y2="587"/></g><!--class OperatorDefinition--><g class="entity" data-entity="OperatorDefinition" data-source-line="12" data-uid="ent0021" id="entity_OperatorDefinition"><rect fill="#F1F1F1" height="48" rx="2.5" ry="2.5" style="stroke:#181818;stroke-width:0.5;" width="145.6133" x="667.5" y="547"/><ellipse cx="682.5" cy="563" fill="#ADD1B2" rx="11" ry="11" style="stroke:#181818;stroke-width:1;"/><path d="M685.2656,558.875 Q685.4219,558.6563 685.6094,558.5469 Q685.7969,558.4375 686.0156,558.4375 Q686.3906,558.4375 686.625,558.6953 Q686.8594,558.9531 686.8594,559.5625 L686.8594,561.0156 Q686.8594,561.625 686.625,561.8906 Q686.3906,562.1563 686.0156,562.1563 Q685.6719,562.1563 685.4688,561.9531 Q685.2656,561.7656 685.1563,561.25 Q685.1094,560.8906 684.9219,560.7031 Q684.5938,560.3281 683.9844,560.1094 Q683.375,559.8906 682.75,559.8906 Q681.9844,559.8906 681.3516,560.2188 Q680.7188,560.5469 680.2266,561.2969 Q679.7344,562.0469 679.7344,563.0781 L679.7344,564.1719 Q679.7344,565.4063 680.625,566.2266 Q681.5156,567.0469 683.1094,567.0469 Q684.0469,567.0469 684.7031,566.7969 Q685.0938,566.6406 685.5156,566.2031 Q685.7813,565.9375 685.9297,565.8594 Q686.0781,565.7813 686.2813,565.7813 Q686.6094,565.7813 686.8672,566.0391 Q687.125,566.2969 687.125,566.6406 Q687.125,566.9844 686.7813,567.3906 Q686.2813,567.9688 685.4844,568.2969 Q684.4063,568.75 683.1094,568.75 Q681.5938,568.75 680.3906,568.125 Q679.4063,567.625 678.7188,566.5547 Q678.0313,565.4844 678.0313,564.2031 L678.0313,563.0469 Q678.0313,561.7188 678.6484,560.5703 Q679.2656,559.4219 680.3594,558.8047 Q681.4531,558.1875 682.6875,558.1875 Q683.4219,558.1875 684.0703,558.3516 Q684.7188,558.5156 685.2656,558.875 Z " fill="#000000"/><text fill="#000000" font-family="sans-serif" font-size="14" lengthAdjust="spacing" textLength="113.6133" x="696.5" y="568.7285">OperatorDefinition</text><line style="stroke:#181818;stroke-width:0.5;" x1="668.5" x2="812.1133" y1="579" y2="579"/><line style="stroke:#181818;stroke-width:0.5;" x1="668.5" x2="812.1133" y1="587" y2="587"/></g><g class="entity" data-entity="GMN23" data-source-line="14" data-uid="ent0024" id="entity_GMN23"><path d="M6,441.5 L6,484.2031 A0,0 0 0 0 6,484.2031 L162.8335,484.2031 A0,0 0 0 0 162.8335,484.2031 L162.8335,467 L197.71,463 L162.8335,459 L162.8335,451.5 L152.8335,441.5 L6,441.5 A0,0 0 0 0 6,441.5" fill="#FEFFDD" style="stroke:#181818;stroke-width:0.5;"/><path d="M152.8335,441.5 L152.8335,451.5 L162.8335,451.5 L152.8335,441.5" fill="#FEFFDD" style="stroke:#181818;stroke-width:0.5;"/><text fill="#000000" font-family="sans-serif" font-size="13" lengthAdjust="spacing" textLength="14.4473" x="12" y="459.9951">&#160;&#160;&#160;&#160;</text><text fill="#000000" font-family="sans-serif" font-size="13" font-weight="bold" lengthAdjust="spacing" textLength="26.73" x="26.4473" y="459.9951">type</text><text fill="#000000" font-family="sans-serif" font-size="13" lengthAdjust="spacing" textLength="3.6118" x="53.1772" y="459.9951">,</text><text fill="#000000" font-family="sans-serif" font-size="13" font-weight="bold" lengthAdjust="spacing" textLength="42.6309" x="60.4009" y="459.9951">sensor</text><text fill="#000000" font-family="sans-serif" font-size="13" lengthAdjust="spacing" textLength="3.6118" x="103.0317" y="459.9951">,</text><text fill="#000000" font-family="sans-serif" font-size="13" font-weight="bold" lengthAdjust="spacing" textLength="34.6709" x="110.2554" y="459.9951">const</text><text fill="#000000" font-family="sans-serif" font-size="13" lengthAdjust="spacing" textLength="21.6899" x="12" y="476.3467">and</text><text fill="#000000" font-family="sans-serif" font-size="13" font-weight="bold" lengthAdjust="spacing" textLength="36.8228" x="37.3018" y="476.3467">group</text><text fill="#000000" font-family="sans-serif" font-size="13" lengthAdjust="spacing" textLength="70.0972" x="77.7363" y="476.3467">declarations</text></g><!--reverse link HasPragma to ModuleBase--><g class="link" data-entity-1="HasPragma" data-entity-2="ModuleBase" data-source-line="2" data-uid="lnk4" id="link_HasPragma_ModuleBase"><path codeLine="2" d="M288.5,73 C288.5,90.66 288.5,96.94 288.5,114.68" fill="none" id="HasPragma-backto-ModuleBase" style="stroke:#181818;stroke-width:1;"/><polygon fill="none" points="288.5,55,282.5,73,294.5,73,288.5,55" style="stroke:#181818;stroke-width:1;"/></g><!--reverse link ModuleBase to Module--><g class="link" data-entity-1="ModuleBase" data-entity-2="Module" data-source-line="3" data-uid="lnk6" id="link_ModuleBase_Module"><path codeLine="3" d="M288.5,181 C288.5,198.66 288.5,204.94 288.5,222.68" fill="none" id="ModuleBase-backto-Module" style="stroke:#181818;stroke-width:1;"/><polygon fill="none" points="288.5,163,282.5,181,294.5,181,288.5,163" style="stroke:#181818;stroke-width:1;"/></g><!--reverse link Module to ModuleInterface--><g class="link" data-entity-1="Module" data-entity-2="ModuleInterface" data-source-line="4" data-uid="lnk8" id="link_Module_ModuleInterface"><path codeLine="4" d="M239.7615,281.116 C213.6815,298.836 192.68,313.11 166.55,330.86" fill="none" id="Module-backto-ModuleInterface" style="stroke:#181818;stroke-width:1;"/><polygon fill="none" points="254.65,271,236.3895,276.1531,243.1335,286.0788,254.65,271" style="stroke:#181818;stroke-width:1;"/></g><!--reverse link Module to ModuleBody--><g class="link" data-entity-1="Module" data-entity-2="ModuleBody" data-source-line="5" data-uid="lnk10" id="link_Module_ModuleBody"><path codeLine="5" d="M288.5,289 C288.5,306.66 288.5,312.94 288.5,330.68" fill="none" id="Module-backto-ModuleBody" style="stroke:#181818;stroke-width:1;"/><polygon fill="none" points="288.5,271,282.5,289,294.5,289,288.5,271" style="stroke:#181818;stroke-width:1;"/></g><!--reverse link Module to ModuleItem--><g class="link" data-entity-1="Module" data-entity-2="ModuleItem" data-source-line="6" data-uid="lnk12" id="link_Module_ModuleItem"><path codeLine="6" d="M329.1697,278.1468 C352.9897,295.8068 376.11,312.94 400.04,330.68" fill="none" id="Module-backto-ModuleItem" style="stroke:#181818;stroke-width:1;"/><polygon fill="#181818" points="319.53,271,321.9676,277.7866,329.1697,278.1468,326.7321,271.3602,319.53,271" style="stroke:#181818;stroke-width:1;"/><text fill="#000000" font-family="sans-serif" font-size="13" lengthAdjust="spacing" textLength="5.0591" x="386.7518" y="320.34">*</text></g><!--reverse link ModuleItem to UseDirective--><g class="link" data-entity-1="ModuleItem" data-entity-2="UseDirective" data-source-line="8" data-uid="lnk14" id="link_ModuleItem_UseDirective"><path codeLine="8" d="M431.5,397 C431.5,414.66 431.5,420.94 431.5,438.68" fill="none" id="ModuleItem-backto-UseDirective" style="stroke:#181818;stroke-width:1;"/><polygon fill="none" points="431.5,379,425.5,397,437.5,397,431.5,379" style="stroke:#181818;stroke-width:1;"/></g><!--reverse link ModuleItem to GlobalDeclaration--><g class="link" data-entity-1="ModuleItem" data-entity-2="GlobalDeclaration" data-source-line="9" data-uid="lnk16" id="link_ModuleItem_GlobalDeclaration"><path codeLine="9" d="M381.2881,388.8559 C354.2081,406.5759 331.99,421.11 304.86,438.86" fill="none" id="ModuleItem-backto-GlobalDeclaration" style="stroke:#181818;stroke-width:1;"/><polygon fill="none" points="396.35,379,378.0028,383.8352,384.5734,393.8765,396.35,379" style="stroke:#181818;stroke-width:1;"/></g><!--reverse link ModuleItem to OperatorDeclarationDefinitionBase--><g class="link" data-entity-1="ModuleItem" data-entity-2="OperatorDeclarationDefinitionBase" data-source-line="10" data-uid="lnk18" id="link_ModuleItem_OperatorDeclarationDefinitionBase"><path codeLine="10" d="M494.2944,386.9599 C530.2344,404.6799 563.56,421.11 599.57,438.86" fill="none" id="ModuleItem-backto-OperatorDeclarationDefinitionBase" style="stroke:#181818;stroke-width:1;"/><polygon fill="none" points="478.15,379,491.6411,392.3413,496.9477,381.5784,478.15,379" style="stroke:#181818;stroke-width:1;"/></g><!--reverse link OperatorDeclarationDefinitionBase to OperatorDeclaration--><g class="link" data-entity-1="OperatorDeclarationDefinitionBase" data-entity-2="OperatorDeclaration" data-source-line="11" data-uid="lnk20" id="link_OperatorDeclarationDefinitionBase_OperatorDeclaration"><path codeLine="11" d="M614.4507,500.5321 C598.9607,518.1921 589.52,528.94 573.96,546.68" fill="none" id="OperatorDeclarationDefinitionBase-backto-OperatorDeclaration" style="stroke:#181818;stroke-width:1;"/><polygon fill="none" points="626.32,487,609.9399,496.5757,618.9614,504.4886,626.32,487" style="stroke:#181818;stroke-width:1;"/></g><!--reverse link OperatorDeclarationDefinitionBase to OperatorDefinition--><g class="link" data-entity-1="OperatorDeclarationDefinitionBase" data-entity-2="OperatorDefinition" data-source-line="12" data-uid="lnk22" id="link_OperatorDeclarationDefinitionBase_OperatorDefinition"><path codeLine="12" d="M678.8424,500.4677 C694.5024,518.1277 704.09,528.94 719.82,546.68" fill="none" id="OperatorDeclarationDefinitionBase-backto-OperatorDefinition" style="stroke:#181818;stroke-width:1;"/><polygon fill="none" points="666.9,487,674.3532,504.4485,683.3317,496.4868,666.9,487" style="stroke:#181818;stroke-width:1;"/></g><!--SRC=[bO_12i8m44Jl-OhWHLZq3pn9GJs8Nlo0DTrg86RBPXKAVhpHjhIW8kOqcJUJC5ExvV8Qo9uz2OexDsQDQIzukg1TtEVpZYynaHda67NssDf49QdGVM9BBflUXknEODAtb2x63Bfj7H8LNiYflz4RN0K-OYZ81HHKp_4jiQlpBcKPPGggVFHFzLhrC_7reV-hFJEHbMoWIYrN7rROV02qgGbWbbMYc5XQxJWc1J0Ootmx2Lzh05iExMGeezSF3m00]--></g></svg>