<svg xmlns="http://www.w3.org/2000/svg" xmlns:xlink="http://www.w3.org/1999/xlink" contentStyleType="text/css" height="297px" preserveAspectRatio="none" style="width:251px;height:297px;background:#FFFFFF;" version="1.1" viewBox="0 0 251 297" width="251px" zoomAndPan="magnify"><defs/><g><!--class ScadeOne--><g id="elem_ScadeOne"><rect fill="#F1F1F1" height="48" id="ScadeOne" rx="2.5" ry="2.5" style="stroke:#181818;stroke-width:0.5;" width="98.1582" x="146" y="7"/><ellipse cx="161" cy="23" fill="#ADD1B2" rx="11" ry="11" style="stroke:#181818;stroke-width:1.0;"/><path d="M163.7656,18.875 Q163.9219,18.6563 164.1094,18.5469 Q164.2969,18.4375 164.5156,18.4375 Q164.8906,18.4375 165.125,18.6953 Q165.3594,18.9531 165.3594,19.5625 L165.3594,21.0156 Q165.3594,21.625 165.125,21.8906 Q164.8906,22.1563 164.5156,22.1563 Q164.1719,22.1563 163.9688,21.9531 Q163.7656,21.7656 163.6563,21.25 Q163.6094,20.8906 163.4219,20.7031 Q163.0938,20.3281 162.4844,20.1094 Q161.875,19.8906 161.25,19.8906 Q160.4844,19.8906 159.8516,20.2188 Q159.2188,20.5469 158.7266,21.2969 Q158.2344,22.0469 158.2344,23.0781 L158.2344,24.1719 Q158.2344,25.4063 159.125,26.2266 Q160.0156,27.0469 161.6094,27.0469 Q162.5469,27.0469 163.2031,26.7969 Q163.5938,26.6406 164.0156,26.2031 Q164.2813,25.9375 164.4297,25.8594 Q164.5781,25.7813 164.7813,25.7813 Q165.1094,25.7813 165.3672,26.0391 Q165.625,26.2969 165.625,26.6406 Q165.625,26.9844 165.2813,27.3906 Q164.7813,27.9688 163.9844,28.2969 Q162.9063,28.75 161.6094,28.75 Q160.0938,28.75 158.8906,28.125 Q157.9063,27.625 157.2188,26.5547 Q156.5313,25.4844 156.5313,24.2031 L156.5313,23.0469 Q156.5313,21.7188 157.1484,20.5703 Q157.7656,19.4219 158.8594,18.8047 Q159.9531,18.1875 161.1875,18.1875 Q161.9219,18.1875 162.5703,18.3516 Q163.2188,18.5156 163.7656,18.875 Z " fill="#000000"/><text fill="#000000" font-family="sans-serif" font-size="14" lengthAdjust="spacing" textLength="66.1582" x="175" y="28.7285">ScadeOne</text><line style="stroke:#181818;stroke-width:0.5;" x1="147" x2="243.1582" y1="39" y2="39"/><line style="stroke:#181818;stroke-width:0.5;" x1="147" x2="243.1582" y1="47" y2="47"/></g><!--class Project--><g id="elem_Project"><rect fill="#F1F1F1" height="48" id="Project" rx="2.5" ry="2.5" style="stroke:#181818;stroke-width:0.5;" width="75.5723" x="7" y="116"/><ellipse cx="22" cy="132" fill="#ADD1B2" rx="11" ry="11" style="stroke:#181818;stroke-width:1.0;"/><path d="M24.7656,127.875 Q24.9219,127.6563 25.1094,127.5469 Q25.2969,127.4375 25.5156,127.4375 Q25.8906,127.4375 26.125,127.6953 Q26.3594,127.9531 26.3594,128.5625 L26.3594,130.0156 Q26.3594,130.625 26.125,130.8906 Q25.8906,131.1563 25.5156,131.1563 Q25.1719,131.1563 24.9688,130.9531 Q24.7656,130.7656 24.6563,130.25 Q24.6094,129.8906 24.4219,129.7031 Q24.0938,129.3281 23.4844,129.1094 Q22.875,128.8906 22.25,128.8906 Q21.4844,128.8906 20.8516,129.2188 Q20.2188,129.5469 19.7266,130.2969 Q19.2344,131.0469 19.2344,132.0781 L19.2344,133.1719 Q19.2344,134.4063 20.125,135.2266 Q21.0156,136.0469 22.6094,136.0469 Q23.5469,136.0469 24.2031,135.7969 Q24.5938,135.6406 25.0156,135.2031 Q25.2813,134.9375 25.4297,134.8594 Q25.5781,134.7813 25.7813,134.7813 Q26.1094,134.7813 26.3672,135.0391 Q26.625,135.2969 26.625,135.6406 Q26.625,135.9844 26.2813,136.3906 Q25.7813,136.9688 24.9844,137.2969 Q23.9063,137.75 22.6094,137.75 Q21.0938,137.75 19.8906,137.125 Q18.9063,136.625 18.2188,135.5547 Q17.5313,134.4844 17.5313,133.2031 L17.5313,132.0469 Q17.5313,130.7188 18.1484,129.5703 Q18.7656,128.4219 19.8594,127.8047 Q20.9531,127.1875 22.1875,127.1875 Q22.9219,127.1875 23.5703,127.3516 Q24.2188,127.5156 24.7656,127.875 Z " fill="#000000"/><text fill="#000000" font-family="sans-serif" font-size="14" lengthAdjust="spacing" textLength="43.5723" x="36" y="137.7285">Project</text><line style="stroke:#181818;stroke-width:0.5;" x1="8" x2="81.5723" y1="148" y2="148"/><line style="stroke:#181818;stroke-width:0.5;" x1="8" x2="81.5723" y1="156" y2="156"/></g><!--class Model--><g id="elem_Model"><rect fill="#F1F1F1" height="48" id="Model" rx="2.5" ry="2.5" style="stroke:#181818;stroke-width:0.5;" width="70.1309" x="111" y="242"/><ellipse cx="126" cy="258" fill="#ADD1B2" rx="11" ry="11" style="stroke:#181818;stroke-width:1.0;"/><path d="M128.7656,253.875 Q128.9219,253.6563 129.1094,253.5469 Q129.2969,253.4375 129.5156,253.4375 Q129.8906,253.4375 130.125,253.6953 Q130.3594,253.9531 130.3594,254.5625 L130.3594,256.0156 Q130.3594,256.625 130.125,256.8906 Q129.8906,257.1563 129.5156,257.1563 Q129.1719,257.1563 128.9688,256.9531 Q128.7656,256.7656 128.6563,256.25 Q128.6094,255.8906 128.4219,255.7031 Q128.0938,255.3281 127.4844,255.1094 Q126.875,254.8906 126.25,254.8906 Q125.4844,254.8906 124.8516,255.2188 Q124.2188,255.5469 123.7266,256.2969 Q123.2344,257.0469 123.2344,258.0781 L123.2344,259.1719 Q123.2344,260.4063 124.125,261.2266 Q125.0156,262.0469 126.6094,262.0469 Q127.5469,262.0469 128.2031,261.7969 Q128.5938,261.6406 129.0156,261.2031 Q129.2813,260.9375 129.4297,260.8594 Q129.5781,260.7813 129.7813,260.7813 Q130.1094,260.7813 130.3672,261.0391 Q130.625,261.2969 130.625,261.6406 Q130.625,261.9844 130.2813,262.3906 Q129.7813,262.9688 128.9844,263.2969 Q127.9063,263.75 126.6094,263.75 Q125.0938,263.75 123.8906,263.125 Q122.9063,262.625 122.2188,261.5547 Q121.5313,260.4844 121.5313,259.2031 L121.5313,258.0469 Q121.5313,256.7188 122.1484,255.5703 Q122.7656,254.4219 123.8594,253.8047 Q124.9531,253.1875 126.1875,253.1875 Q126.9219,253.1875 127.5703,253.3516 Q128.2188,253.5156 128.7656,253.875 Z " fill="#000000"/><text fill="#000000" font-family="sans-serif" font-size="14" lengthAdjust="spacing" textLength="38.1309" x="140" y="263.7285">Model</text><line style="stroke:#181818;stroke-width:0.5;" x1="112" x2="180.1309" y1="274" y2="274"/><line style="stroke:#181818;stroke-width:0.5;" x1="112" x2="180.1309" y1="282" y2="282"/></g><!--reverse link ScadeOne to Project--><g id="link_ScadeOne_Project"><path codeLine="1" d="M152.6794,62.1868 C127.5194,80.1268 102.63,97.89 77.48,115.83 " fill="none" id="ScadeOne-backto-Project" style="stroke:#181818;stroke-width:1.0;"/><polygon fill="#181818" points="162.45,55.22,155.2425,55.4465,152.6794,62.1868,159.887,61.9602,162.45,55.22" style="stroke:#181818;stroke-width:1.0;"/><text fill="#000000" font-family="sans-serif" font-size="13" lengthAdjust="spacing" textLength="5.0591" x="80.2247" y="105.1266">*</text></g><!--reverse link ScadeOne to Model--><g id="link_ScadeOne_Model"><path codeLine="2" d="M206.9756,66.8149 C215.3256,93.5649 221.87,127.01 211,164 C202.35,193.41 182.21,222.35 166.61,241.66 " fill="none" id="ScadeOne-backto-Model" style="stroke:#181818;stroke-width:1.0;"/><polygon fill="#181818" points="203.4,55.36,201.3695,62.2793,206.9756,66.8149,209.0061,59.8956,203.4,55.36" style="stroke:#181818;stroke-width:1.0;"/></g><!--reverse link Project to Project--><g id="link_Project_Project"><path codeLine="4" d="M95.2838,129.3269 C113.7038,128.1069 118,132.2 118,140 C118,147.8 101.73,151.1 83.31,149.88 " fill="none" id="Project-backto-Project" style="stroke:#181818;stroke-width:1.0;"/><polygon fill="#181818" points="83.31,130.12,89.5612,133.7147,95.2838,129.3269,89.0325,125.7322,83.31,130.12" style="stroke:#181818;stroke-width:1.0;"/><text fill="#000000" font-family="sans-serif" font-size="13" lengthAdjust="spacing" textLength="80.958" x="124" y="145.4951">dependencies</text><text fill="#000000" font-family="sans-serif" font-size="13" lengthAdjust="spacing" textLength="5.0591" x="90.6226" y="147.7413">*</text></g><!--link Project to Model--><g id="link_Project_Model"><path codeLine="5" d="M63.76,164.03 C81.79,186.17 105.1004,214.7882 123.2104,237.0182 " fill="none" id="Project-to-Model" style="stroke:#181818;stroke-width:1.0;"/><polygon fill="#181818" points="127,241.67,124.4167,232.166,123.842,237.7935,118.2144,237.2188,127,241.67" style="stroke:#181818;stroke-width:1.0;"/><text fill="#000000" font-family="sans-serif" font-size="13" lengthAdjust="spacing" textLength="35.4072" x="103" y="208.4951">owner</text></g><!--SRC=[2qvEJ4drpqjLqDBLLL3IKb88AChFIaqkuGf6bl3DJqdDuUA2og6hjL98IIr8pKj9pKlEJ2s6gzBLjODej5B8ByzBBG80]--></g></svg>