<svg xmlns="http://www.w3.org/2000/svg" xmlns:xlink="http://www.w3.org/1999/xlink" contentStyleType="text/css" height="190px" preserveAspectRatio="none" style="width:751px;height:190px;background:#FFFFFF;" version="1.1" viewBox="0 0 751 190" width="751px" zoomAndPan="magnify"><defs/><g><!--class TypeDefinition--><g id="elem_TypeDefinition"><rect fill="#F1F1F1" height="48" id="TypeDefinition" rx="2.5" ry="2.5" style="stroke:#181818;stroke-width:0.5;" width="121.4893" x="308.5" y="7"/><ellipse cx="323.5" cy="23" fill="#ADD1B2" rx="11" ry="11" style="stroke:#181818;stroke-width:1.0;"/><path d="M326.2656,18.875 Q326.4219,18.6563 326.6094,18.5469 Q326.7969,18.4375 327.0156,18.4375 Q327.3906,18.4375 327.625,18.7031 Q327.8594,18.9531 327.8594,19.5625 L327.8594,21.0156 Q327.8594,21.625 327.625,21.8906 Q327.3906,22.1563 327.0156,22.1563 Q326.6719,22.1563 326.4688,21.9531 Q326.2656,21.7656 326.1563,21.25 Q326.1094,20.8906 325.9219,20.7031 Q325.5938,20.3281 324.9844,20.1094 Q324.375,19.8906 323.75,19.8906 Q322.9844,19.8906 322.3438,20.2188 Q321.7188,20.5469 321.2188,21.2969 Q320.7344,22.0469 320.7344,23.0781 L320.7344,24.1719 Q320.7344,25.4063 321.625,26.2344 Q322.5156,27.0469 324.1094,27.0469 Q325.0469,27.0469 325.7031,26.7969 Q326.0938,26.6406 326.5156,26.2031 Q326.7813,25.9375 326.9219,25.8594 Q327.0781,25.7813 327.2813,25.7813 Q327.6094,25.7813 327.8594,26.0469 Q328.125,26.2969 328.125,26.6406 Q328.125,26.9844 327.7813,27.3906 Q327.2813,27.9688 326.4844,28.2969 Q325.4063,28.75 324.1094,28.75 Q322.5938,28.75 321.3906,28.125 Q320.4063,27.625 319.7188,26.5625 Q319.0313,25.4844 319.0313,24.2031 L319.0313,23.0469 Q319.0313,21.7188 319.6406,20.5781 Q320.2656,19.4219 321.3594,18.8125 Q322.4531,18.1875 323.6875,18.1875 Q324.4219,18.1875 325.0625,18.3594 Q325.7188,18.5156 326.2656,18.875 Z " fill="#000000"/><text fill="#000000" font-family="sans-serif" font-size="14" lengthAdjust="spacing" textLength="89.4893" x="337.5" y="28.7285">TypeDefinition</text><line style="stroke:#181818;stroke-width:0.5;" x1="309.5" x2="428.9893" y1="39" y2="39"/><line style="stroke:#181818;stroke-width:0.5;" x1="309.5" x2="428.9893" y1="47" y2="47"/></g><polygon fill="none" points="369.1142,55,376.0053,75.0378,362.0055,74.9617" style="stroke:#181818;stroke-width:1.0;"/><line style="stroke:#181818;stroke-width:1.0;" x1="369.0054" x2="369" y1="74.9997" y2="76"/><!--class ExprTypeDefinition--><g id="elem_ExprTypeDefinition"><rect fill="#F1F1F1" height="48" id="ExprTypeDefinition" rx="2.5" ry="2.5" style="stroke:#181818;stroke-width:0.5;" width="150.2754" x="7" y="135"/><ellipse cx="22" cy="151" fill="#ADD1B2" rx="11" ry="11" style="stroke:#181818;stroke-width:1.0;"/><path d="M24.7656,146.875 Q24.9219,146.6563 25.1094,146.5469 Q25.2969,146.4375 25.5156,146.4375 Q25.8906,146.4375 26.125,146.7031 Q26.3594,146.9531 26.3594,147.5625 L26.3594,149.0156 Q26.3594,149.625 26.125,149.8906 Q25.8906,150.1563 25.5156,150.1563 Q25.1719,150.1563 24.9688,149.9531 Q24.7656,149.7656 24.6563,149.25 Q24.6094,148.8906 24.4219,148.7031 Q24.0938,148.3281 23.4844,148.1094 Q22.875,147.8906 22.25,147.8906 Q21.4844,147.8906 20.8438,148.2188 Q20.2188,148.5469 19.7188,149.2969 Q19.2344,150.0469 19.2344,151.0781 L19.2344,152.1719 Q19.2344,153.4063 20.125,154.2344 Q21.0156,155.0469 22.6094,155.0469 Q23.5469,155.0469 24.2031,154.7969 Q24.5938,154.6406 25.0156,154.2031 Q25.2813,153.9375 25.4219,153.8594 Q25.5781,153.7813 25.7813,153.7813 Q26.1094,153.7813 26.3594,154.0469 Q26.625,154.2969 26.625,154.6406 Q26.625,154.9844 26.2813,155.3906 Q25.7813,155.9688 24.9844,156.2969 Q23.9063,156.75 22.6094,156.75 Q21.0938,156.75 19.8906,156.125 Q18.9063,155.625 18.2188,154.5625 Q17.5313,153.4844 17.5313,152.2031 L17.5313,151.0469 Q17.5313,149.7188 18.1406,148.5781 Q18.7656,147.4219 19.8594,146.8125 Q20.9531,146.1875 22.1875,146.1875 Q22.9219,146.1875 23.5625,146.3594 Q24.2188,146.5156 24.7656,146.875 Z " fill="#000000"/><text fill="#000000" font-family="sans-serif" font-size="14" lengthAdjust="spacing" textLength="118.2754" x="36" y="156.7285">ExprTypeDefinition</text><line style="stroke:#181818;stroke-width:0.5;" x1="8" x2="156.2754" y1="167" y2="167"/><line style="stroke:#181818;stroke-width:0.5;" x1="8" x2="156.2754" y1="175" y2="175"/></g><!--class EnumTypeDefinition--><g id="elem_EnumTypeDefinition"><rect fill="#F1F1F1" height="48" id="EnumTypeDefinition" rx="2.5" ry="2.5" style="stroke:#181818;stroke-width:0.5;" width="158.0615" x="192" y="135"/><ellipse cx="207" cy="151" fill="#ADD1B2" rx="11" ry="11" style="stroke:#181818;stroke-width:1.0;"/><path d="M209.7656,146.875 Q209.9219,146.6563 210.1094,146.5469 Q210.2969,146.4375 210.5156,146.4375 Q210.8906,146.4375 211.125,146.7031 Q211.3594,146.9531 211.3594,147.5625 L211.3594,149.0156 Q211.3594,149.625 211.125,149.8906 Q210.8906,150.1563 210.5156,150.1563 Q210.1719,150.1563 209.9688,149.9531 Q209.7656,149.7656 209.6563,149.25 Q209.6094,148.8906 209.4219,148.7031 Q209.0938,148.3281 208.4844,148.1094 Q207.875,147.8906 207.25,147.8906 Q206.4844,147.8906 205.8438,148.2188 Q205.2188,148.5469 204.7188,149.2969 Q204.2344,150.0469 204.2344,151.0781 L204.2344,152.1719 Q204.2344,153.4063 205.125,154.2344 Q206.0156,155.0469 207.6094,155.0469 Q208.5469,155.0469 209.2031,154.7969 Q209.5938,154.6406 210.0156,154.2031 Q210.2813,153.9375 210.4219,153.8594 Q210.5781,153.7813 210.7813,153.7813 Q211.1094,153.7813 211.3594,154.0469 Q211.625,154.2969 211.625,154.6406 Q211.625,154.9844 211.2813,155.3906 Q210.7813,155.9688 209.9844,156.2969 Q208.9063,156.75 207.6094,156.75 Q206.0938,156.75 204.8906,156.125 Q203.9063,155.625 203.2188,154.5625 Q202.5313,153.4844 202.5313,152.2031 L202.5313,151.0469 Q202.5313,149.7188 203.1406,148.5781 Q203.7656,147.4219 204.8594,146.8125 Q205.9531,146.1875 207.1875,146.1875 Q207.9219,146.1875 208.5625,146.3594 Q209.2188,146.5156 209.7656,146.875 Z " fill="#000000"/><text fill="#000000" font-family="sans-serif" font-size="14" lengthAdjust="spacing" textLength="126.0615" x="221" y="156.7285">EnumTypeDefinition</text><line style="stroke:#181818;stroke-width:0.5;" x1="193" x2="349.0615" y1="167" y2="167"/><line style="stroke:#181818;stroke-width:0.5;" x1="193" x2="349.0615" y1="175" y2="175"/></g><!--class VariantTypeDefinition--><g id="elem_VariantTypeDefinition"><rect fill="#F1F1F1" height="48" id="VariantTypeDefinition" rx="2.5" ry="2.5" style="stroke:#181818;stroke-width:0.5;" width="165.8477" x="385" y="135"/><ellipse cx="400" cy="151" fill="#ADD1B2" rx="11" ry="11" style="stroke:#181818;stroke-width:1.0;"/><path d="M402.7656,146.875 Q402.9219,146.6563 403.1094,146.5469 Q403.2969,146.4375 403.5156,146.4375 Q403.8906,146.4375 404.125,146.7031 Q404.3594,146.9531 404.3594,147.5625 L404.3594,149.0156 Q404.3594,149.625 404.125,149.8906 Q403.8906,150.1563 403.5156,150.1563 Q403.1719,150.1563 402.9688,149.9531 Q402.7656,149.7656 402.6563,149.25 Q402.6094,148.8906 402.4219,148.7031 Q402.0938,148.3281 401.4844,148.1094 Q400.875,147.8906 400.25,147.8906 Q399.4844,147.8906 398.8438,148.2188 Q398.2188,148.5469 397.7188,149.2969 Q397.2344,150.0469 397.2344,151.0781 L397.2344,152.1719 Q397.2344,153.4063 398.125,154.2344 Q399.0156,155.0469 400.6094,155.0469 Q401.5469,155.0469 402.2031,154.7969 Q402.5938,154.6406 403.0156,154.2031 Q403.2813,153.9375 403.4219,153.8594 Q403.5781,153.7813 403.7813,153.7813 Q404.1094,153.7813 404.3594,154.0469 Q404.625,154.2969 404.625,154.6406 Q404.625,154.9844 404.2813,155.3906 Q403.7813,155.9688 402.9844,156.2969 Q401.9063,156.75 400.6094,156.75 Q399.0938,156.75 397.8906,156.125 Q396.9063,155.625 396.2188,154.5625 Q395.5313,153.4844 395.5313,152.2031 L395.5313,151.0469 Q395.5313,149.7188 396.1406,148.5781 Q396.7656,147.4219 397.8594,146.8125 Q398.9531,146.1875 400.1875,146.1875 Q400.9219,146.1875 401.5625,146.3594 Q402.2188,146.5156 402.7656,146.875 Z " fill="#000000"/><text fill="#000000" font-family="sans-serif" font-size="14" lengthAdjust="spacing" textLength="133.8477" x="414" y="156.7285">VariantTypeDefinition</text><line style="stroke:#181818;stroke-width:0.5;" x1="386" x2="549.8477" y1="167" y2="167"/><line style="stroke:#181818;stroke-width:0.5;" x1="386" x2="549.8477" y1="175" y2="175"/></g><!--class StructTypeDefinition--><g id="elem_StructTypeDefinition"><rect fill="#F1F1F1" height="48" id="StructTypeDefinition" rx="2.5" ry="2.5" style="stroke:#181818;stroke-width:0.5;" width="158.0547" x="586" y="135"/><ellipse cx="601" cy="151" fill="#ADD1B2" rx="11" ry="11" style="stroke:#181818;stroke-width:1.0;"/><path d="M603.7656,146.875 Q603.9219,146.6563 604.1094,146.5469 Q604.2969,146.4375 604.5156,146.4375 Q604.8906,146.4375 605.125,146.7031 Q605.3594,146.9531 605.3594,147.5625 L605.3594,149.0156 Q605.3594,149.625 605.125,149.8906 Q604.8906,150.1563 604.5156,150.1563 Q604.1719,150.1563 603.9688,149.9531 Q603.7656,149.7656 603.6563,149.25 Q603.6094,148.8906 603.4219,148.7031 Q603.0938,148.3281 602.4844,148.1094 Q601.875,147.8906 601.25,147.8906 Q600.4844,147.8906 599.8438,148.2188 Q599.2188,148.5469 598.7188,149.2969 Q598.2344,150.0469 598.2344,151.0781 L598.2344,152.1719 Q598.2344,153.4063 599.125,154.2344 Q600.0156,155.0469 601.6094,155.0469 Q602.5469,155.0469 603.2031,154.7969 Q603.5938,154.6406 604.0156,154.2031 Q604.2813,153.9375 604.4219,153.8594 Q604.5781,153.7813 604.7813,153.7813 Q605.1094,153.7813 605.3594,154.0469 Q605.625,154.2969 605.625,154.6406 Q605.625,154.9844 605.2813,155.3906 Q604.7813,155.9688 603.9844,156.2969 Q602.9063,156.75 601.6094,156.75 Q600.0938,156.75 598.8906,156.125 Q597.9063,155.625 597.2188,154.5625 Q596.5313,153.4844 596.5313,152.2031 L596.5313,151.0469 Q596.5313,149.7188 597.1406,148.5781 Q597.7656,147.4219 598.8594,146.8125 Q599.9531,146.1875 601.1875,146.1875 Q601.9219,146.1875 602.5625,146.3594 Q603.2188,146.5156 603.7656,146.875 Z " fill="#000000"/><text fill="#000000" font-family="sans-serif" font-size="14" lengthAdjust="spacing" textLength="126.0547" x="615" y="156.7285">StructTypeDefinition</text><line style="stroke:#181818;stroke-width:0.5;" x1="587" x2="743.0547" y1="167" y2="167"/><line style="stroke:#181818;stroke-width:0.5;" x1="587" x2="743.0547" y1="175" y2="175"/></g><!--reverse link TypeDefinition to ExprTypeDefinition--><g id="link_TypeDefinition_ExprTypeDefinition"><path codeLine="3" d="M369,76 C369,76 242.07,112.27 157.03,136.56 " fill="none" id="TypeDefinition-backto-ExprTypeDefinition" style="stroke:#181818;stroke-width:1.0;"/></g><!--reverse link TypeDefinition to EnumTypeDefinition--><g id="link_TypeDefinition_EnumTypeDefinition"><path codeLine="4" d="M369,76 C369,76 327.55,110.69 298.56,134.94 " fill="none" id="TypeDefinition-backto-EnumTypeDefinition" style="stroke:#181818;stroke-width:1.0;"/></g><!--reverse link TypeDefinition to VariantTypeDefinition--><g id="link_TypeDefinition_VariantTypeDefinition"><path codeLine="5" d="M369,76 C369,76 410.88,110.69 440.16,134.94 " fill="none" id="TypeDefinition-backto-VariantTypeDefinition" style="stroke:#181818;stroke-width:1.0;"/></g><!--reverse link TypeDefinition to StructTypeDefinition--><g id="link_TypeDefinition_StructTypeDefinition"><path codeLine="6" d="M369,76 C369,76 498,111.74 585.68,136.03 " fill="none" id="TypeDefinition-backto-StructTypeDefinition" style="stroke:#181818;stroke-width:1.0;"/></g><!--SRC=[KrS8gIn8TKbDoypBBCdCp-CgpixCAqWiIinLI2_ABotmpCj8BSeiISnBJbKmKk12LQnWKwEhg-1QKL24PWXMPNcbkKGe2qiioapCAo52PN19KMaoca80]--></g></svg>