<svg xmlns="http://www.w3.org/2000/svg" xmlns:xlink="http://www.w3.org/1999/xlink" contentStyleType="text/css" height="600px" preserveAspectRatio="none" style="width:773px;height:600px;background:#FFFFFF;" version="1.1" viewBox="0 0 773 600" width="773px" zoomAndPan="magnify"><defs/><g><!--class Diagram--><g id="elem_Diagram"><rect fill="#F1F1F1" height="48" id="Diagram" rx="2.5" ry="2.5" style="stroke:#181818;stroke-width:0.5;" width="84.9033" x="7" y="256"/><ellipse cx="22" cy="272" fill="#ADD1B2" rx="11" ry="11" style="stroke:#181818;stroke-width:1.0;"/><path d="M24.7656,267.875 Q24.9219,267.6563 25.1094,267.5469 Q25.2969,267.4375 25.5156,267.4375 Q25.8906,267.4375 26.125,267.7031 Q26.3594,267.9531 26.3594,268.5625 L26.3594,270.0156 Q26.3594,270.625 26.125,270.8906 Q25.8906,271.1563 25.5156,271.1563 Q25.1719,271.1563 24.9688,270.9531 Q24.7656,270.7656 24.6563,270.25 Q24.6094,269.8906 24.4219,269.7031 Q24.0938,269.3281 23.4844,269.1094 Q22.875,268.8906 22.25,268.8906 Q21.4844,268.8906 20.8438,269.2188 Q20.2188,269.5469 19.7188,270.2969 Q19.2344,271.0469 19.2344,272.0781 L19.2344,273.1719 Q19.2344,274.4063 20.125,275.2344 Q21.0156,276.0469 22.6094,276.0469 Q23.5469,276.0469 24.2031,275.7969 Q24.5938,275.6406 25.0156,275.2031 Q25.2813,274.9375 25.4219,274.8594 Q25.5781,274.7813 25.7813,274.7813 Q26.1094,274.7813 26.3594,275.0469 Q26.625,275.2969 26.625,275.6406 Q26.625,275.9844 26.2813,276.3906 Q25.7813,276.9688 24.9844,277.2969 Q23.9063,277.75 22.6094,277.75 Q21.0938,277.75 19.8906,277.125 Q18.9063,276.625 18.2188,275.5625 Q17.5313,274.4844 17.5313,273.2031 L17.5313,272.0469 Q17.5313,270.7188 18.1406,269.5781 Q18.7656,268.4219 19.8594,267.8125 Q20.9531,267.1875 22.1875,267.1875 Q22.9219,267.1875 23.5625,267.3594 Q24.2188,267.5156 24.7656,267.875 Z " fill="#000000"/><text fill="#000000" font-family="sans-serif" font-size="14" lengthAdjust="spacing" textLength="52.9033" x="36" y="277.7285">Diagram</text><line style="stroke:#181818;stroke-width:0.5;" x1="8" x2="90.9033" y1="288" y2="288"/><line style="stroke:#181818;stroke-width:0.5;" x1="8" x2="90.9033" y1="296" y2="296"/></g><!--class DiagramObject--><g id="elem_DiagramObject"><rect fill="#F1F1F1" height="48" id="DiagramObject" rx="2.5" ry="2.5" style="stroke:#181818;stroke-width:0.5;" width="125.3652" x="172" y="256"/><ellipse cx="187" cy="272" fill="#ADD1B2" rx="11" ry="11" style="stroke:#181818;stroke-width:1.0;"/><path d="M189.7656,267.875 Q189.9219,267.6563 190.1094,267.5469 Q190.2969,267.4375 190.5156,267.4375 Q190.8906,267.4375 191.125,267.7031 Q191.3594,267.9531 191.3594,268.5625 L191.3594,270.0156 Q191.3594,270.625 191.125,270.8906 Q190.8906,271.1563 190.5156,271.1563 Q190.1719,271.1563 189.9688,270.9531 Q189.7656,270.7656 189.6563,270.25 Q189.6094,269.8906 189.4219,269.7031 Q189.0938,269.3281 188.4844,269.1094 Q187.875,268.8906 187.25,268.8906 Q186.4844,268.8906 185.8438,269.2188 Q185.2188,269.5469 184.7188,270.2969 Q184.2344,271.0469 184.2344,272.0781 L184.2344,273.1719 Q184.2344,274.4063 185.125,275.2344 Q186.0156,276.0469 187.6094,276.0469 Q188.5469,276.0469 189.2031,275.7969 Q189.5938,275.6406 190.0156,275.2031 Q190.2813,274.9375 190.4219,274.8594 Q190.5781,274.7813 190.7813,274.7813 Q191.1094,274.7813 191.3594,275.0469 Q191.625,275.2969 191.625,275.6406 Q191.625,275.9844 191.2813,276.3906 Q190.7813,276.9688 189.9844,277.2969 Q188.9063,277.75 187.6094,277.75 Q186.0938,277.75 184.8906,277.125 Q183.9063,276.625 183.2188,275.5625 Q182.5313,274.4844 182.5313,273.2031 L182.5313,272.0469 Q182.5313,270.7188 183.1406,269.5781 Q183.7656,268.4219 184.8594,267.8125 Q185.9531,267.1875 187.1875,267.1875 Q187.9219,267.1875 188.5625,267.3594 Q189.2188,267.5156 189.7656,267.875 Z " fill="#000000"/><text fill="#000000" font-family="sans-serif" font-size="14" lengthAdjust="spacing" textLength="93.3652" x="201" y="277.7285">DiagramObject</text><line style="stroke:#181818;stroke-width:0.5;" x1="173" x2="296.3652" y1="288" y2="288"/><line style="stroke:#181818;stroke-width:0.5;" x1="173" x2="296.3652" y1="296" y2="296"/></g><polygon fill="none" points="297.3652,280.7478,317.4473,273.9869,317.2803,287.9859" style="stroke:#181818;stroke-width:1.0;"/><line style="stroke:#181818;stroke-width:1.0;" x1="317.3638" x2="318.5" y1="280.9864" y2="281"/><line style="stroke:#181818;stroke-width:1.0;" x1="172" x2="151.72" y1="280" y2="280"/><!--class ExprBlock--><g id="elem_ExprBlock"><rect fill="#F1F1F1" height="48" id="ExprBlock" rx="2.5" ry="2.5" style="stroke:#181818;stroke-width:0.5;" width="95.0205" x="418" y="7"/><ellipse cx="433" cy="23" fill="#ADD1B2" rx="11" ry="11" style="stroke:#181818;stroke-width:1.0;"/><path d="M435.7656,18.875 Q435.9219,18.6563 436.1094,18.5469 Q436.2969,18.4375 436.5156,18.4375 Q436.8906,18.4375 437.125,18.7031 Q437.3594,18.9531 437.3594,19.5625 L437.3594,21.0156 Q437.3594,21.625 437.125,21.8906 Q436.8906,22.1563 436.5156,22.1563 Q436.1719,22.1563 435.9688,21.9531 Q435.7656,21.7656 435.6563,21.25 Q435.6094,20.8906 435.4219,20.7031 Q435.0938,20.3281 434.4844,20.1094 Q433.875,19.8906 433.25,19.8906 Q432.4844,19.8906 431.8438,20.2188 Q431.2188,20.5469 430.7188,21.2969 Q430.2344,22.0469 430.2344,23.0781 L430.2344,24.1719 Q430.2344,25.4063 431.125,26.2344 Q432.0156,27.0469 433.6094,27.0469 Q434.5469,27.0469 435.2031,26.7969 Q435.5938,26.6406 436.0156,26.2031 Q436.2813,25.9375 436.4219,25.8594 Q436.5781,25.7813 436.7813,25.7813 Q437.1094,25.7813 437.3594,26.0469 Q437.625,26.2969 437.625,26.6406 Q437.625,26.9844 437.2813,27.3906 Q436.7813,27.9688 435.9844,28.2969 Q434.9063,28.75 433.6094,28.75 Q432.0938,28.75 430.8906,28.125 Q429.9063,27.625 429.2188,26.5625 Q428.5313,25.4844 428.5313,24.2031 L428.5313,23.0469 Q428.5313,21.7188 429.1406,20.5781 Q429.7656,19.4219 430.8594,18.8125 Q431.9531,18.1875 433.1875,18.1875 Q433.9219,18.1875 434.5625,18.3594 Q435.2188,18.5156 435.7656,18.875 Z " fill="#000000"/><text fill="#000000" font-family="sans-serif" font-size="14" lengthAdjust="spacing" textLength="63.0205" x="447" y="28.7285">ExprBlock</text><line style="stroke:#181818;stroke-width:0.5;" x1="419" x2="512.0205" y1="39" y2="39"/><line style="stroke:#181818;stroke-width:0.5;" x1="419" x2="512.0205" y1="47" y2="47"/></g><!--class DefBlock--><g id="elem_DefBlock"><rect fill="#F1F1F1" height="48" id="DefBlock" rx="2.5" ry="2.5" style="stroke:#181818;stroke-width:0.5;" width="88.0205" x="421.5" y="90"/><ellipse cx="436.5" cy="106" fill="#ADD1B2" rx="11" ry="11" style="stroke:#181818;stroke-width:1.0;"/><path d="M439.2656,101.875 Q439.4219,101.6563 439.6094,101.5469 Q439.7969,101.4375 440.0156,101.4375 Q440.3906,101.4375 440.625,101.7031 Q440.8594,101.9531 440.8594,102.5625 L440.8594,104.0156 Q440.8594,104.625 440.625,104.8906 Q440.3906,105.1563 440.0156,105.1563 Q439.6719,105.1563 439.4688,104.9531 Q439.2656,104.7656 439.1563,104.25 Q439.1094,103.8906 438.9219,103.7031 Q438.5938,103.3281 437.9844,103.1094 Q437.375,102.8906 436.75,102.8906 Q435.9844,102.8906 435.3438,103.2188 Q434.7188,103.5469 434.2188,104.2969 Q433.7344,105.0469 433.7344,106.0781 L433.7344,107.1719 Q433.7344,108.4063 434.625,109.2344 Q435.5156,110.0469 437.1094,110.0469 Q438.0469,110.0469 438.7031,109.7969 Q439.0938,109.6406 439.5156,109.2031 Q439.7813,108.9375 439.9219,108.8594 Q440.0781,108.7813 440.2813,108.7813 Q440.6094,108.7813 440.8594,109.0469 Q441.125,109.2969 441.125,109.6406 Q441.125,109.9844 440.7813,110.3906 Q440.2813,110.9688 439.4844,111.2969 Q438.4063,111.75 437.1094,111.75 Q435.5938,111.75 434.3906,111.125 Q433.4063,110.625 432.7188,109.5625 Q432.0313,108.4844 432.0313,107.2031 L432.0313,106.0469 Q432.0313,104.7188 432.6406,103.5781 Q433.2656,102.4219 434.3594,101.8125 Q435.4531,101.1875 436.6875,101.1875 Q437.4219,101.1875 438.0625,101.3594 Q438.7188,101.5156 439.2656,101.875 Z " fill="#000000"/><text fill="#000000" font-family="sans-serif" font-size="14" lengthAdjust="spacing" textLength="56.0205" x="450.5" y="111.7285">DefBlock</text><line style="stroke:#181818;stroke-width:0.5;" x1="422.5" x2="508.5205" y1="122" y2="122"/><line style="stroke:#181818;stroke-width:0.5;" x1="422.5" x2="508.5205" y1="130" y2="130"/></g><!--class Block--><g id="elem_Block"><rect fill="#F1F1F1" height="48" id="Block" rx="2.5" ry="2.5" style="stroke:#181818;stroke-width:0.5;" width="66.2344" x="432.5" y="173"/><ellipse cx="447.5" cy="189" fill="#ADD1B2" rx="11" ry="11" style="stroke:#181818;stroke-width:1.0;"/><path d="M450.2656,184.875 Q450.4219,184.6563 450.6094,184.5469 Q450.7969,184.4375 451.0156,184.4375 Q451.3906,184.4375 451.625,184.7031 Q451.8594,184.9531 451.8594,185.5625 L451.8594,187.0156 Q451.8594,187.625 451.625,187.8906 Q451.3906,188.1563 451.0156,188.1563 Q450.6719,188.1563 450.4688,187.9531 Q450.2656,187.7656 450.1563,187.25 Q450.1094,186.8906 449.9219,186.7031 Q449.5938,186.3281 448.9844,186.1094 Q448.375,185.8906 447.75,185.8906 Q446.9844,185.8906 446.3438,186.2188 Q445.7188,186.5469 445.2188,187.2969 Q444.7344,188.0469 444.7344,189.0781 L444.7344,190.1719 Q444.7344,191.4063 445.625,192.2344 Q446.5156,193.0469 448.1094,193.0469 Q449.0469,193.0469 449.7031,192.7969 Q450.0938,192.6406 450.5156,192.2031 Q450.7813,191.9375 450.9219,191.8594 Q451.0781,191.7813 451.2813,191.7813 Q451.6094,191.7813 451.8594,192.0469 Q452.125,192.2969 452.125,192.6406 Q452.125,192.9844 451.7813,193.3906 Q451.2813,193.9688 450.4844,194.2969 Q449.4063,194.75 448.1094,194.75 Q446.5938,194.75 445.3906,194.125 Q444.4063,193.625 443.7188,192.5625 Q443.0313,191.4844 443.0313,190.2031 L443.0313,189.0469 Q443.0313,187.7188 443.6406,186.5781 Q444.2656,185.4219 445.3594,184.8125 Q446.4531,184.1875 447.6875,184.1875 Q448.4219,184.1875 449.0625,184.3594 Q449.7188,184.5156 450.2656,184.875 Z " fill="#000000"/><text fill="#000000" font-family="sans-serif" font-size="14" lengthAdjust="spacing" textLength="34.2344" x="461.5" y="194.7285">Block</text><line style="stroke:#181818;stroke-width:0.5;" x1="433.5" x2="497.7344" y1="205" y2="205"/><line style="stroke:#181818;stroke-width:0.5;" x1="433.5" x2="497.7344" y1="213" y2="213"/></g><!--class Bar--><g id="elem_Bar"><rect fill="#F1F1F1" height="48" id="Bar" rx="2.5" ry="2.5" style="stroke:#181818;stroke-width:0.5;" width="53.7861" x="438.5" y="256"/><ellipse cx="453.5" cy="272" fill="#ADD1B2" rx="11" ry="11" style="stroke:#181818;stroke-width:1.0;"/><path d="M456.2656,267.875 Q456.4219,267.6563 456.6094,267.5469 Q456.7969,267.4375 457.0156,267.4375 Q457.3906,267.4375 457.625,267.7031 Q457.8594,267.9531 457.8594,268.5625 L457.8594,270.0156 Q457.8594,270.625 457.625,270.8906 Q457.3906,271.1563 457.0156,271.1563 Q456.6719,271.1563 456.4688,270.9531 Q456.2656,270.7656 456.1563,270.25 Q456.1094,269.8906 455.9219,269.7031 Q455.5938,269.3281 454.9844,269.1094 Q454.375,268.8906 453.75,268.8906 Q452.9844,268.8906 452.3438,269.2188 Q451.7188,269.5469 451.2188,270.2969 Q450.7344,271.0469 450.7344,272.0781 L450.7344,273.1719 Q450.7344,274.4063 451.625,275.2344 Q452.5156,276.0469 454.1094,276.0469 Q455.0469,276.0469 455.7031,275.7969 Q456.0938,275.6406 456.5156,275.2031 Q456.7813,274.9375 456.9219,274.8594 Q457.0781,274.7813 457.2813,274.7813 Q457.6094,274.7813 457.8594,275.0469 Q458.125,275.2969 458.125,275.6406 Q458.125,275.9844 457.7813,276.3906 Q457.2813,276.9688 456.4844,277.2969 Q455.4063,277.75 454.1094,277.75 Q452.5938,277.75 451.3906,277.125 Q450.4063,276.625 449.7188,275.5625 Q449.0313,274.4844 449.0313,273.2031 L449.0313,272.0469 Q449.0313,270.7188 449.6406,269.5781 Q450.2656,268.4219 451.3594,267.8125 Q452.4531,267.1875 453.6875,267.1875 Q454.4219,267.1875 455.0625,267.3594 Q455.7188,267.5156 456.2656,267.875 Z " fill="#000000"/><text fill="#000000" font-family="sans-serif" font-size="14" lengthAdjust="spacing" textLength="21.7861" x="467.5" y="277.7285">Bar</text><line style="stroke:#181818;stroke-width:0.5;" x1="439.5" x2="491.2861" y1="288" y2="288"/><line style="stroke:#181818;stroke-width:0.5;" x1="439.5" x2="491.2861" y1="296" y2="296"/></g><!--class SectionBlock--><g id="elem_SectionBlock"><rect fill="#F1F1F1" height="48" id="SectionBlock" rx="2.5" ry="2.5" style="stroke:#181818;stroke-width:0.5;" width="112.9307" x="409" y="339"/><ellipse cx="424" cy="355" fill="#ADD1B2" rx="11" ry="11" style="stroke:#181818;stroke-width:1.0;"/><path d="M426.7656,350.875 Q426.9219,350.6563 427.1094,350.5469 Q427.2969,350.4375 427.5156,350.4375 Q427.8906,350.4375 428.125,350.7031 Q428.3594,350.9531 428.3594,351.5625 L428.3594,353.0156 Q428.3594,353.625 428.125,353.8906 Q427.8906,354.1563 427.5156,354.1563 Q427.1719,354.1563 426.9688,353.9531 Q426.7656,353.7656 426.6563,353.25 Q426.6094,352.8906 426.4219,352.7031 Q426.0938,352.3281 425.4844,352.1094 Q424.875,351.8906 424.25,351.8906 Q423.4844,351.8906 422.8438,352.2188 Q422.2188,352.5469 421.7188,353.2969 Q421.2344,354.0469 421.2344,355.0781 L421.2344,356.1719 Q421.2344,357.4063 422.125,358.2344 Q423.0156,359.0469 424.6094,359.0469 Q425.5469,359.0469 426.2031,358.7969 Q426.5938,358.6406 427.0156,358.2031 Q427.2813,357.9375 427.4219,357.8594 Q427.5781,357.7813 427.7813,357.7813 Q428.1094,357.7813 428.3594,358.0469 Q428.625,358.2969 428.625,358.6406 Q428.625,358.9844 428.2813,359.3906 Q427.7813,359.9688 426.9844,360.2969 Q425.9063,360.75 424.6094,360.75 Q423.0938,360.75 421.8906,360.125 Q420.9063,359.625 420.2188,358.5625 Q419.5313,357.4844 419.5313,356.2031 L419.5313,355.0469 Q419.5313,353.7188 420.1406,352.5781 Q420.7656,351.4219 421.8594,350.8125 Q422.9531,350.1875 424.1875,350.1875 Q424.9219,350.1875 425.5625,350.3594 Q426.2188,350.5156 426.7656,350.875 Z " fill="#000000"/><text fill="#000000" font-family="sans-serif" font-size="14" lengthAdjust="spacing" textLength="80.9307" x="438" y="360.7285">SectionBlock</text><line style="stroke:#181818;stroke-width:0.5;" x1="410" x2="520.9307" y1="371" y2="371"/><line style="stroke:#181818;stroke-width:0.5;" x1="410" x2="520.9307" y1="379" y2="379"/></g><!--class DefByCaseBlock--><g id="elem_DefByCaseBlock"><rect fill="#F1F1F1" height="48" id="DefByCaseBlock" rx="2.5" ry="2.5" style="stroke:#181818;stroke-width:0.5;" width="137.041" x="397" y="442"/><ellipse cx="412" cy="458" fill="#ADD1B2" rx="11" ry="11" style="stroke:#181818;stroke-width:1.0;"/><path d="M414.7656,453.875 Q414.9219,453.6563 415.1094,453.5469 Q415.2969,453.4375 415.5156,453.4375 Q415.8906,453.4375 416.125,453.7031 Q416.3594,453.9531 416.3594,454.5625 L416.3594,456.0156 Q416.3594,456.625 416.125,456.8906 Q415.8906,457.1563 415.5156,457.1563 Q415.1719,457.1563 414.9688,456.9531 Q414.7656,456.7656 414.6563,456.25 Q414.6094,455.8906 414.4219,455.7031 Q414.0938,455.3281 413.4844,455.1094 Q412.875,454.8906 412.25,454.8906 Q411.4844,454.8906 410.8438,455.2188 Q410.2188,455.5469 409.7188,456.2969 Q409.2344,457.0469 409.2344,458.0781 L409.2344,459.1719 Q409.2344,460.4063 410.125,461.2344 Q411.0156,462.0469 412.6094,462.0469 Q413.5469,462.0469 414.2031,461.7969 Q414.5938,461.6406 415.0156,461.2031 Q415.2813,460.9375 415.4219,460.8594 Q415.5781,460.7813 415.7813,460.7813 Q416.1094,460.7813 416.3594,461.0469 Q416.625,461.2969 416.625,461.6406 Q416.625,461.9844 416.2813,462.3906 Q415.7813,462.9688 414.9844,463.2969 Q413.9063,463.75 412.6094,463.75 Q411.0938,463.75 409.8906,463.125 Q408.9063,462.625 408.2188,461.5625 Q407.5313,460.4844 407.5313,459.2031 L407.5313,458.0469 Q407.5313,456.7188 408.1406,455.5781 Q408.7656,454.4219 409.8594,453.8125 Q410.9531,453.1875 412.1875,453.1875 Q412.9219,453.1875 413.5625,453.3594 Q414.2188,453.5156 414.7656,453.875 Z " fill="#000000"/><text fill="#000000" font-family="sans-serif" font-size="14" lengthAdjust="spacing" textLength="105.041" x="426" y="463.7285">DefByCaseBlock</text><line style="stroke:#181818;stroke-width:0.5;" x1="398" x2="533.041" y1="474" y2="474"/><line style="stroke:#181818;stroke-width:0.5;" x1="398" x2="533.041" y1="482" y2="482"/></g><polygon fill="none" points="534.041,466,554.041,459,554.041,473" style="stroke:#181818;stroke-width:1.0;"/><line style="stroke:#181818;stroke-width:1.0;" x1="554.041" x2="555.5" y1="466" y2="466"/><line style="stroke:#181818;stroke-width:1.0;" x1="427.1061" x2="394.71" y1="442" y2="421.76"/><!--class Wire--><g id="elem_Wire"><rect fill="#F1F1F1" height="48" id="Wire" rx="2.5" ry="2.5" style="stroke:#181818;stroke-width:0.5;" width="60.7725" x="435" y="545"/><ellipse cx="450" cy="561" fill="#ADD1B2" rx="11" ry="11" style="stroke:#181818;stroke-width:1.0;"/><path d="M452.7656,556.875 Q452.9219,556.6563 453.1094,556.5469 Q453.2969,556.4375 453.5156,556.4375 Q453.8906,556.4375 454.125,556.7031 Q454.3594,556.9531 454.3594,557.5625 L454.3594,559.0156 Q454.3594,559.625 454.125,559.8906 Q453.8906,560.1563 453.5156,560.1563 Q453.1719,560.1563 452.9688,559.9531 Q452.7656,559.7656 452.6563,559.25 Q452.6094,558.8906 452.4219,558.7031 Q452.0938,558.3281 451.4844,558.1094 Q450.875,557.8906 450.25,557.8906 Q449.4844,557.8906 448.8438,558.2188 Q448.2188,558.5469 447.7188,559.2969 Q447.2344,560.0469 447.2344,561.0781 L447.2344,562.1719 Q447.2344,563.4063 448.125,564.2344 Q449.0156,565.0469 450.6094,565.0469 Q451.5469,565.0469 452.2031,564.7969 Q452.5938,564.6406 453.0156,564.2031 Q453.2813,563.9375 453.4219,563.8594 Q453.5781,563.7813 453.7813,563.7813 Q454.1094,563.7813 454.3594,564.0469 Q454.625,564.2969 454.625,564.6406 Q454.625,564.9844 454.2813,565.3906 Q453.7813,565.9688 452.9844,566.2969 Q451.9063,566.75 450.6094,566.75 Q449.0938,566.75 447.8906,566.125 Q446.9063,565.625 446.2188,564.5625 Q445.5313,563.4844 445.5313,562.2031 L445.5313,561.0469 Q445.5313,559.7188 446.1406,558.5781 Q446.7656,557.4219 447.8594,556.8125 Q448.9531,556.1875 450.1875,556.1875 Q450.9219,556.1875 451.5625,556.3594 Q452.2188,556.5156 452.7656,556.875 Z " fill="#000000"/><text fill="#000000" font-family="sans-serif" font-size="14" lengthAdjust="spacing" textLength="28.7725" x="464" y="566.7285">Wire</text><line style="stroke:#181818;stroke-width:0.5;" x1="436" x2="494.7725" y1="577" y2="577"/><line style="stroke:#181818;stroke-width:0.5;" x1="436" x2="494.7725" y1="585" y2="585"/></g><!--class StateMachineBlock--><g id="elem_StateMachineBlock"><rect fill="#F1F1F1" height="48" id="StateMachineBlock" rx="2.5" ry="2.5" style="stroke:#181818;stroke-width:0.5;" width="151.8408" x="614.5" y="359"/><ellipse cx="629.5" cy="375" fill="#ADD1B2" rx="11" ry="11" style="stroke:#181818;stroke-width:1.0;"/><path d="M632.2656,370.875 Q632.4219,370.6563 632.6094,370.5469 Q632.7969,370.4375 633.0156,370.4375 Q633.3906,370.4375 633.625,370.7031 Q633.8594,370.9531 633.8594,371.5625 L633.8594,373.0156 Q633.8594,373.625 633.625,373.8906 Q633.3906,374.1563 633.0156,374.1563 Q632.6719,374.1563 632.4688,373.9531 Q632.2656,373.7656 632.1563,373.25 Q632.1094,372.8906 631.9219,372.7031 Q631.5938,372.3281 630.9844,372.1094 Q630.375,371.8906 629.75,371.8906 Q628.9844,371.8906 628.3438,372.2188 Q627.7188,372.5469 627.2188,373.2969 Q626.7344,374.0469 626.7344,375.0781 L626.7344,376.1719 Q626.7344,377.4063 627.625,378.2344 Q628.5156,379.0469 630.1094,379.0469 Q631.0469,379.0469 631.7031,378.7969 Q632.0938,378.6406 632.5156,378.2031 Q632.7813,377.9375 632.9219,377.8594 Q633.0781,377.7813 633.2813,377.7813 Q633.6094,377.7813 633.8594,378.0469 Q634.125,378.2969 634.125,378.6406 Q634.125,378.9844 633.7813,379.3906 Q633.2813,379.9688 632.4844,380.2969 Q631.4063,380.75 630.1094,380.75 Q628.5938,380.75 627.3906,380.125 Q626.4063,379.625 625.7188,378.5625 Q625.0313,377.4844 625.0313,376.2031 L625.0313,375.0469 Q625.0313,373.7188 625.6406,372.5781 Q626.2656,371.4219 627.3594,370.8125 Q628.4531,370.1875 629.6875,370.1875 Q630.4219,370.1875 631.0625,370.3594 Q631.7188,370.5156 632.2656,370.875 Z " fill="#000000"/><text fill="#000000" font-family="sans-serif" font-size="14" lengthAdjust="spacing" textLength="119.8408" x="643.5" y="380.7285">StateMachineBlock</text><line style="stroke:#181818;stroke-width:0.5;" x1="615.5" x2="765.3408" y1="391" y2="391"/><line style="stroke:#181818;stroke-width:0.5;" x1="615.5" x2="765.3408" y1="399" y2="399"/></g><!--class ActivateIfBlock--><g id="elem_ActivateIfBlock"><rect fill="#F1F1F1" height="48" id="ActivateIfBlock" rx="2.5" ry="2.5" style="stroke:#181818;stroke-width:0.5;" width="123.8135" x="628.5" y="442"/><ellipse cx="643.5" cy="458" fill="#ADD1B2" rx="11" ry="11" style="stroke:#181818;stroke-width:1.0;"/><path d="M646.2656,453.875 Q646.4219,453.6563 646.6094,453.5469 Q646.7969,453.4375 647.0156,453.4375 Q647.3906,453.4375 647.625,453.7031 Q647.8594,453.9531 647.8594,454.5625 L647.8594,456.0156 Q647.8594,456.625 647.625,456.8906 Q647.3906,457.1563 647.0156,457.1563 Q646.6719,457.1563 646.4688,456.9531 Q646.2656,456.7656 646.1563,456.25 Q646.1094,455.8906 645.9219,455.7031 Q645.5938,455.3281 644.9844,455.1094 Q644.375,454.8906 643.75,454.8906 Q642.9844,454.8906 642.3438,455.2188 Q641.7188,455.5469 641.2188,456.2969 Q640.7344,457.0469 640.7344,458.0781 L640.7344,459.1719 Q640.7344,460.4063 641.625,461.2344 Q642.5156,462.0469 644.1094,462.0469 Q645.0469,462.0469 645.7031,461.7969 Q646.0938,461.6406 646.5156,461.2031 Q646.7813,460.9375 646.9219,460.8594 Q647.0781,460.7813 647.2813,460.7813 Q647.6094,460.7813 647.8594,461.0469 Q648.125,461.2969 648.125,461.6406 Q648.125,461.9844 647.7813,462.3906 Q647.2813,462.9688 646.4844,463.2969 Q645.4063,463.75 644.1094,463.75 Q642.5938,463.75 641.3906,463.125 Q640.4063,462.625 639.7188,461.5625 Q639.0313,460.4844 639.0313,459.2031 L639.0313,458.0469 Q639.0313,456.7188 639.6406,455.5781 Q640.2656,454.4219 641.3594,453.8125 Q642.4531,453.1875 643.6875,453.1875 Q644.4219,453.1875 645.0625,453.3594 Q645.7188,453.5156 646.2656,453.875 Z " fill="#000000"/><text fill="#000000" font-family="sans-serif" font-size="14" lengthAdjust="spacing" textLength="91.8135" x="657.5" y="463.7285">ActivateIfBlock</text><line style="stroke:#181818;stroke-width:0.5;" x1="629.5" x2="751.3135" y1="474" y2="474"/><line style="stroke:#181818;stroke-width:0.5;" x1="629.5" x2="751.3135" y1="482" y2="482"/></g><!--class ActivateWhenBlock--><g id="elem_ActivateWhenBlock"><rect fill="#F1F1F1" height="48" id="ActivateWhenBlock" rx="2.5" ry="2.5" style="stroke:#181818;stroke-width:0.5;" width="152.6064" x="614" y="525"/><ellipse cx="629" cy="541" fill="#ADD1B2" rx="11" ry="11" style="stroke:#181818;stroke-width:1.0;"/><path d="M631.7656,536.875 Q631.9219,536.6563 632.1094,536.5469 Q632.2969,536.4375 632.5156,536.4375 Q632.8906,536.4375 633.125,536.7031 Q633.3594,536.9531 633.3594,537.5625 L633.3594,539.0156 Q633.3594,539.625 633.125,539.8906 Q632.8906,540.1563 632.5156,540.1563 Q632.1719,540.1563 631.9688,539.9531 Q631.7656,539.7656 631.6563,539.25 Q631.6094,538.8906 631.4219,538.7031 Q631.0938,538.3281 630.4844,538.1094 Q629.875,537.8906 629.25,537.8906 Q628.4844,537.8906 627.8438,538.2188 Q627.2188,538.5469 626.7188,539.2969 Q626.2344,540.0469 626.2344,541.0781 L626.2344,542.1719 Q626.2344,543.4063 627.125,544.2344 Q628.0156,545.0469 629.6094,545.0469 Q630.5469,545.0469 631.2031,544.7969 Q631.5938,544.6406 632.0156,544.2031 Q632.2813,543.9375 632.4219,543.8594 Q632.5781,543.7813 632.7813,543.7813 Q633.1094,543.7813 633.3594,544.0469 Q633.625,544.2969 633.625,544.6406 Q633.625,544.9844 633.2813,545.3906 Q632.7813,545.9688 631.9844,546.2969 Q630.9063,546.75 629.6094,546.75 Q628.0938,546.75 626.8906,546.125 Q625.9063,545.625 625.2188,544.5625 Q624.5313,543.4844 624.5313,542.2031 L624.5313,541.0469 Q624.5313,539.7188 625.1406,538.5781 Q625.7656,537.4219 626.8594,536.8125 Q627.9531,536.1875 629.1875,536.1875 Q629.9219,536.1875 630.5625,536.3594 Q631.2188,536.5156 631.7656,536.875 Z " fill="#000000"/><text fill="#000000" font-family="sans-serif" font-size="14" lengthAdjust="spacing" textLength="120.6064" x="643" y="546.7285">ActivateWhenBlock</text><line style="stroke:#181818;stroke-width:0.5;" x1="615" x2="765.6064" y1="557" y2="557"/><line style="stroke:#181818;stroke-width:0.5;" x1="615" x2="765.6064" y1="565" y2="565"/></g><!--reverse link Diagram to DiagramObject--><g id="link_Diagram_DiagramObject"><path codeLine="5" d="M104.03,280 C121.74,280 131.06,280 151.72,280 " fill="none" id="Diagram-backto-DiagramObject" style="stroke:#181818;stroke-width:1.0;"/><polygon fill="#181818" points="92.03,280,98.03,284,104.03,280,98.03,276,92.03,280" style="stroke:#181818;stroke-width:1.0;"/><text fill="#000000" font-family="sans-serif" font-size="13" lengthAdjust="spacing" textLength="5.0591" x="138.8441" y="294.2488">*</text></g><!--reverse link DiagramObject to ExprBlock--><g id="link_DiagramObject_ExprBlock"><path codeLine="6" d="M318.5,281 C318.5,281 314.66,145.6 377,72 C387.63,59.45 402.94,50.51 417.79,44.24 " fill="none" id="DiagramObject-backto-ExprBlock" style="stroke:#181818;stroke-width:1.0;"/></g><!--reverse link DiagramObject to DefBlock--><g id="link_DiagramObject_DefBlock"><path codeLine="7" d="M318.5,281 C318.5,281 333.42,198.73 377,155 C389.2,142.76 405.74,133.73 421.17,127.31 " fill="none" id="DiagramObject-backto-DefBlock" style="stroke:#181818;stroke-width:1.0;"/></g><!--reverse link DiagramObject to Block--><g id="link_DiagramObject_Block"><path codeLine="8" d="M318.5,281 C318.5,281 349.26,254.48 377,238 C394.6,227.55 415.29,217.75 432.14,210.35 " fill="none" id="DiagramObject-backto-Block" style="stroke:#181818;stroke-width:1.0;"/></g><!--reverse link DiagramObject to Bar--><g id="link_DiagramObject_Bar"><path codeLine="9" d="M318.5,281 C318.5,281 396.4,280.47 438.4,280.18 " fill="none" id="DiagramObject-backto-Bar" style="stroke:#181818;stroke-width:1.0;"/></g><!--reverse link DiagramObject to SectionBlock--><g id="link_DiagramObject_SectionBlock"><path codeLine="10" d="M318.5,281 C318.5,281 349.72,305.25 377,321 C387.8,327.23 399.67,333.37 411.08,338.95 " fill="none" id="DiagramObject-backto-SectionBlock" style="stroke:#181818;stroke-width:1.0;"/></g><!--reverse link DiagramObject to DefByCaseBlock--><g id="link_DiagramObject_DefByCaseBlock"><path codeLine="11" d="M318.5,281 C318.5,281 338.04,357.67 377,404 C382.27,410.27 388.32,416.22 394.71,421.76 " fill="none" id="DiagramObject-backto-DefByCaseBlock" style="stroke:#181818;stroke-width:1.0;"/></g><!--reverse link DiagramObject to Wire--><g id="link_DiagramObject_Wire"><path codeLine="12" d="M318.5,281 C318.5,281 306.48,439.5 377,527 C391.49,544.97 415.53,555.74 434.75,561.86 " fill="none" id="DiagramObject-backto-Wire" style="stroke:#181818;stroke-width:1.0;"/></g><!--reverse link DefByCaseBlock to StateMachineBlock--><g id="link_DefByCaseBlock_StateMachineBlock"><path codeLine="13" d="M555.5,466 C555.5,466 586.88,441 614,424 C623.22,418.22 633.33,412.4 643.06,407.03 " fill="none" id="DefByCaseBlock-backto-StateMachineBlock" style="stroke:#181818;stroke-width:1.0;"/></g><!--reverse link DefByCaseBlock to ActivateIfBlock--><g id="link_DefByCaseBlock_ActivateIfBlock"><path codeLine="14" d="M555.5,466 C555.5,466 593.04,466 628.38,466 " fill="none" id="DefByCaseBlock-backto-ActivateIfBlock" style="stroke:#181818;stroke-width:1.0;"/></g><!--reverse link DefByCaseBlock to ActivateWhenBlock--><g id="link_DefByCaseBlock_ActivateWhenBlock"><path codeLine="15" d="M555.5,466 C555.5,466 587.09,490.15 614,507 C623.66,513.05 634.24,519.21 644.34,524.88 " fill="none" id="DefByCaseBlock-backto-ActivateWhenBlock" style="stroke:#181818;stroke-width:1.0;"/></g><!--SRC=[XP0n3u9038Nt-nKDYma9YxEBYWE3SN1WhcVXJl3kKghHn1_l9S100ZgsxtklBrr1Rh5clAkMAW7nmBOs0bVBfCLwfxh6ke2HW9hz8nJE45j1fmdMIWrkIBCCaZGPqqwNMxIhoGIRJuGEhy2xrkjcJiofMjIM1UIvzRdl__FMUuyTBH9b_86QOaEqeD0HjR5kTCzGstZ_6S6Y-i-KXlgcNm00]--></g></svg>