<svg xmlns="http://www.w3.org/2000/svg" xmlns:xlink="http://www.w3.org/1999/xlink" contentStyleType="text/css" height="423px" preserveAspectRatio="none" style="width:549px;height:423px;background:#FFFFFF;" version="1.1" viewBox="0 0 549 423" width="549px" zoomAndPan="magnify"><defs/><g><!--class GroupDecl--><g id="elem_GroupDecl"><rect fill="#F1F1F1" height="48" id="GroupDecl" rx="2.5" ry="2.5" style="stroke:#181818;stroke-width:0.5;" width="98.917" x="229.5" y="7"/><ellipse cx="244.5" cy="23" fill="#ADD1B2" rx="11" ry="11" style="stroke:#181818;stroke-width:1.0;"/><path d="M247.2656,18.875 Q247.4219,18.6563 247.6094,18.5469 Q247.7969,18.4375 248.0156,18.4375 Q248.3906,18.4375 248.625,18.7031 Q248.8594,18.9531 248.8594,19.5625 L248.8594,21.0156 Q248.8594,21.625 248.625,21.8906 Q248.3906,22.1563 248.0156,22.1563 Q247.6719,22.1563 247.4688,21.9531 Q247.2656,21.7656 247.1563,21.25 Q247.1094,20.8906 246.9219,20.7031 Q246.5938,20.3281 245.9844,20.1094 Q245.375,19.8906 244.75,19.8906 Q243.9844,19.8906 243.3438,20.2188 Q242.7188,20.5469 242.2188,21.2969 Q241.7344,22.0469 241.7344,23.0781 L241.7344,24.1719 Q241.7344,25.4063 242.625,26.2344 Q243.5156,27.0469 245.1094,27.0469 Q246.0469,27.0469 246.7031,26.7969 Q247.0938,26.6406 247.5156,26.2031 Q247.7813,25.9375 247.9219,25.8594 Q248.0781,25.7813 248.2813,25.7813 Q248.6094,25.7813 248.8594,26.0469 Q249.125,26.2969 249.125,26.6406 Q249.125,26.9844 248.7813,27.3906 Q248.2813,27.9688 247.4844,28.2969 Q246.4063,28.75 245.1094,28.75 Q243.5938,28.75 242.3906,28.125 Q241.4063,27.625 240.7188,26.5625 Q240.0313,25.4844 240.0313,24.2031 L240.0313,23.0469 Q240.0313,21.7188 240.6406,20.5781 Q241.2656,19.4219 242.3594,18.8125 Q243.4531,18.1875 244.6875,18.1875 Q245.4219,18.1875 246.0625,18.3594 Q246.7188,18.5156 247.2656,18.875 Z " fill="#000000"/><text fill="#000000" font-family="sans-serif" font-size="14" lengthAdjust="spacing" textLength="66.917" x="258.5" y="28.7285">GroupDecl</text><line style="stroke:#181818;stroke-width:0.5;" x1="230.5" x2="327.417" y1="39" y2="39"/><line style="stroke:#181818;stroke-width:0.5;" x1="230.5" x2="327.417" y1="47" y2="47"/></g><!--class GroupTypeExpression--><g id="elem_GroupTypeExpression"><rect fill="#F1F1F1" height="48" id="GroupTypeExpression" rx="2.5" ry="2.5" style="stroke:#181818;stroke-width:0.5;" width="171.2891" x="193.5" y="116"/><ellipse cx="208.5" cy="132" fill="#ADD1B2" rx="11" ry="11" style="stroke:#181818;stroke-width:1.0;"/><path d="M211.2656,127.875 Q211.4219,127.6563 211.6094,127.5469 Q211.7969,127.4375 212.0156,127.4375 Q212.3906,127.4375 212.625,127.7031 Q212.8594,127.9531 212.8594,128.5625 L212.8594,130.0156 Q212.8594,130.625 212.625,130.8906 Q212.3906,131.1563 212.0156,131.1563 Q211.6719,131.1563 211.4688,130.9531 Q211.2656,130.7656 211.1563,130.25 Q211.1094,129.8906 210.9219,129.7031 Q210.5938,129.3281 209.9844,129.1094 Q209.375,128.8906 208.75,128.8906 Q207.9844,128.8906 207.3438,129.2188 Q206.7188,129.5469 206.2188,130.2969 Q205.7344,131.0469 205.7344,132.0781 L205.7344,133.1719 Q205.7344,134.4063 206.625,135.2344 Q207.5156,136.0469 209.1094,136.0469 Q210.0469,136.0469 210.7031,135.7969 Q211.0938,135.6406 211.5156,135.2031 Q211.7813,134.9375 211.9219,134.8594 Q212.0781,134.7813 212.2813,134.7813 Q212.6094,134.7813 212.8594,135.0469 Q213.125,135.2969 213.125,135.6406 Q213.125,135.9844 212.7813,136.3906 Q212.2813,136.9688 211.4844,137.2969 Q210.4063,137.75 209.1094,137.75 Q207.5938,137.75 206.3906,137.125 Q205.4063,136.625 204.7188,135.5625 Q204.0313,134.4844 204.0313,133.2031 L204.0313,132.0469 Q204.0313,130.7188 204.6406,129.5781 Q205.2656,128.4219 206.3594,127.8125 Q207.4531,127.1875 208.6875,127.1875 Q209.4219,127.1875 210.0625,127.3594 Q210.7188,127.5156 211.2656,127.875 Z " fill="#000000"/><text fill="#000000" font-family="sans-serif" font-size="14" lengthAdjust="spacing" textLength="139.2891" x="222.5" y="137.7285">GroupTypeExpression</text><line style="stroke:#181818;stroke-width:0.5;" x1="194.5" x2="363.7891" y1="148" y2="148"/><line style="stroke:#181818;stroke-width:0.5;" x1="194.5" x2="363.7891" y1="156" y2="156"/></g><!--class TypeGroupTypeExpression--><g id="elem_TypeGroupTypeExpression"><rect fill="#F1F1F1" height="48" id="TypeGroupTypeExpression" rx="2.5" ry="2.5" style="stroke:#181818;stroke-width:0.5;" width="202.4131" x="7" y="242"/><ellipse cx="22" cy="258" fill="#ADD1B2" rx="11" ry="11" style="stroke:#181818;stroke-width:1.0;"/><path d="M24.7656,253.875 Q24.9219,253.6563 25.1094,253.5469 Q25.2969,253.4375 25.5156,253.4375 Q25.8906,253.4375 26.125,253.7031 Q26.3594,253.9531 26.3594,254.5625 L26.3594,256.0156 Q26.3594,256.625 26.125,256.8906 Q25.8906,257.1563 25.5156,257.1563 Q25.1719,257.1563 24.9688,256.9531 Q24.7656,256.7656 24.6563,256.25 Q24.6094,255.8906 24.4219,255.7031 Q24.0938,255.3281 23.4844,255.1094 Q22.875,254.8906 22.25,254.8906 Q21.4844,254.8906 20.8438,255.2188 Q20.2188,255.5469 19.7188,256.2969 Q19.2344,257.0469 19.2344,258.0781 L19.2344,259.1719 Q19.2344,260.4063 20.125,261.2344 Q21.0156,262.0469 22.6094,262.0469 Q23.5469,262.0469 24.2031,261.7969 Q24.5938,261.6406 25.0156,261.2031 Q25.2813,260.9375 25.4219,260.8594 Q25.5781,260.7813 25.7813,260.7813 Q26.1094,260.7813 26.3594,261.0469 Q26.625,261.2969 26.625,261.6406 Q26.625,261.9844 26.2813,262.3906 Q25.7813,262.9688 24.9844,263.2969 Q23.9063,263.75 22.6094,263.75 Q21.0938,263.75 19.8906,263.125 Q18.9063,262.625 18.2188,261.5625 Q17.5313,260.4844 17.5313,259.2031 L17.5313,258.0469 Q17.5313,256.7188 18.1406,255.5781 Q18.7656,254.4219 19.8594,253.8125 Q20.9531,253.1875 22.1875,253.1875 Q22.9219,253.1875 23.5625,253.3594 Q24.2188,253.5156 24.7656,253.875 Z " fill="#000000"/><text fill="#000000" font-family="sans-serif" font-size="14" lengthAdjust="spacing" textLength="170.4131" x="36" y="263.7285">TypeGroupTypeExpression</text><line style="stroke:#181818;stroke-width:0.5;" x1="8" x2="208.4131" y1="274" y2="274"/><line style="stroke:#181818;stroke-width:0.5;" x1="8" x2="208.4131" y1="282" y2="282"/></g><!--class NamedGroupTypeExpression--><g id="elem_NamedGroupTypeExpression"><rect fill="#F1F1F1" height="48" id="NamedGroupTypeExpression" rx="2.5" ry="2.5" style="stroke:#181818;stroke-width:0.5;" width="216.4199" x="171" y="368"/><ellipse cx="186" cy="384" fill="#ADD1B2" rx="11" ry="11" style="stroke:#181818;stroke-width:1.0;"/><path d="M188.7656,379.875 Q188.9219,379.6563 189.1094,379.5469 Q189.2969,379.4375 189.5156,379.4375 Q189.8906,379.4375 190.125,379.7031 Q190.3594,379.9531 190.3594,380.5625 L190.3594,382.0156 Q190.3594,382.625 190.125,382.8906 Q189.8906,383.1563 189.5156,383.1563 Q189.1719,383.1563 188.9688,382.9531 Q188.7656,382.7656 188.6563,382.25 Q188.6094,381.8906 188.4219,381.7031 Q188.0938,381.3281 187.4844,381.1094 Q186.875,380.8906 186.25,380.8906 Q185.4844,380.8906 184.8438,381.2188 Q184.2188,381.5469 183.7188,382.2969 Q183.2344,383.0469 183.2344,384.0781 L183.2344,385.1719 Q183.2344,386.4063 184.125,387.2344 Q185.0156,388.0469 186.6094,388.0469 Q187.5469,388.0469 188.2031,387.7969 Q188.5938,387.6406 189.0156,387.2031 Q189.2813,386.9375 189.4219,386.8594 Q189.5781,386.7813 189.7813,386.7813 Q190.1094,386.7813 190.3594,387.0469 Q190.625,387.2969 190.625,387.6406 Q190.625,387.9844 190.2813,388.3906 Q189.7813,388.9688 188.9844,389.2969 Q187.9063,389.75 186.6094,389.75 Q185.0938,389.75 183.8906,389.125 Q182.9063,388.625 182.2188,387.5625 Q181.5313,386.4844 181.5313,385.2031 L181.5313,384.0469 Q181.5313,382.7188 182.1406,381.5781 Q182.7656,380.4219 183.8594,379.8125 Q184.9531,379.1875 186.1875,379.1875 Q186.9219,379.1875 187.5625,379.3594 Q188.2188,379.5156 188.7656,379.875 Z " fill="#000000"/><text fill="#000000" font-family="sans-serif" font-size="14" lengthAdjust="spacing" textLength="184.4199" x="200" y="389.7285">NamedGroupTypeExpression</text><line style="stroke:#181818;stroke-width:0.5;" x1="172" x2="386.4199" y1="400" y2="400"/><line style="stroke:#181818;stroke-width:0.5;" x1="172" x2="386.4199" y1="408" y2="408"/></g><!--class GroupTypeExpressionList--><g id="elem_GroupTypeExpressionList"><rect fill="#F1F1F1" height="48" id="GroupTypeExpressionList" rx="2.5" ry="2.5" style="stroke:#181818;stroke-width:0.5;" width="193.0752" x="349.5" y="242"/><ellipse cx="364.5" cy="258" fill="#ADD1B2" rx="11" ry="11" style="stroke:#181818;stroke-width:1.0;"/><path d="M367.2656,253.875 Q367.4219,253.6563 367.6094,253.5469 Q367.7969,253.4375 368.0156,253.4375 Q368.3906,253.4375 368.625,253.7031 Q368.8594,253.9531 368.8594,254.5625 L368.8594,256.0156 Q368.8594,256.625 368.625,256.8906 Q368.3906,257.1563 368.0156,257.1563 Q367.6719,257.1563 367.4688,256.9531 Q367.2656,256.7656 367.1563,256.25 Q367.1094,255.8906 366.9219,255.7031 Q366.5938,255.3281 365.9844,255.1094 Q365.375,254.8906 364.75,254.8906 Q363.9844,254.8906 363.3438,255.2188 Q362.7188,255.5469 362.2188,256.2969 Q361.7344,257.0469 361.7344,258.0781 L361.7344,259.1719 Q361.7344,260.4063 362.625,261.2344 Q363.5156,262.0469 365.1094,262.0469 Q366.0469,262.0469 366.7031,261.7969 Q367.0938,261.6406 367.5156,261.2031 Q367.7813,260.9375 367.9219,260.8594 Q368.0781,260.7813 368.2813,260.7813 Q368.6094,260.7813 368.8594,261.0469 Q369.125,261.2969 369.125,261.6406 Q369.125,261.9844 368.7813,262.3906 Q368.2813,262.9688 367.4844,263.2969 Q366.4063,263.75 365.1094,263.75 Q363.5938,263.75 362.3906,263.125 Q361.4063,262.625 360.7188,261.5625 Q360.0313,260.4844 360.0313,259.2031 L360.0313,258.0469 Q360.0313,256.7188 360.6406,255.5781 Q361.2656,254.4219 362.3594,253.8125 Q363.4531,253.1875 364.6875,253.1875 Q365.4219,253.1875 366.0625,253.3594 Q366.7188,253.5156 367.2656,253.875 Z " fill="#000000"/><text fill="#000000" font-family="sans-serif" font-size="14" lengthAdjust="spacing" textLength="161.0752" x="378.5" y="263.7285">GroupTypeExpressionList</text><line style="stroke:#181818;stroke-width:0.5;" x1="350.5" x2="541.5752" y1="274" y2="274"/><line style="stroke:#181818;stroke-width:0.5;" x1="350.5" x2="541.5752" y1="282" y2="282"/></g><!--reverse link GroupDecl to GroupTypeExpression--><g id="link_GroupDecl_GroupTypeExpression"><path codeLine="2" d="M279,67.22 C279,85.16 279,97.89 279,115.83 " fill="none" id="GroupDecl-backto-GroupTypeExpression" style="stroke:#181818;stroke-width:1.0;"/><polygon fill="#181818" points="279,55.22,275,61.22,279,67.22,283,61.22,279,55.22" style="stroke:#181818;stroke-width:1.0;"/></g><!--reverse link GroupTypeExpression to TypeGroupTypeExpression--><g id="link_GroupTypeExpression_TypeGroupTypeExpression"><path codeLine="3" d="M232.6694,174.5987 C202.0494,196.8087 170.54,219.65 139.88,241.88 " fill="none" id="GroupTypeExpression-backto-TypeGroupTypeExpression" style="stroke:#181818;stroke-width:1.0;"/><polygon fill="none" points="247.24,164.03,229.1465,169.7418,236.1923,179.4556,247.24,164.03" style="stroke:#181818;stroke-width:1.0;"/></g><!--reverse link GroupTypeExpression to NamedGroupTypeExpression--><g id="link_GroupTypeExpression_NamedGroupTypeExpression"><path codeLine="4" d="M268.7447,181.8976 C262.1047,229.5276 264.59,320.41 271.24,367.98 " fill="none" id="GroupTypeExpression-backto-NamedGroupTypeExpression" style="stroke:#181818;stroke-width:1.0;"/><polygon fill="none" points="271.23,164.07,262.8022,181.0692,274.6872,182.726,271.23,164.07" style="stroke:#181818;stroke-width:1.0;"/></g><!--reverse link NamedGroupTypeExpression to GroupTypeExpression--><g id="link_NamedGroupTypeExpression_GroupTypeExpression"><path codeLine="5" d="M288.9768,356.1093 C296.0168,308.5393 294.26,211.7 287.23,164.07 " fill="none" id="NamedGroupTypeExpression-backto-GroupTypeExpression" style="stroke:#181818;stroke-width:1.0;"/><polygon fill="#181818" points="287.22,367.98,292.0553,362.6302,288.9768,356.1093,284.1415,361.4591,287.22,367.98" style="stroke:#181818;stroke-width:1.0;"/></g><!--reverse link GroupTypeExpression to GroupTypeExpressionList--><g id="link_GroupTypeExpression_GroupTypeExpressionList"><path codeLine="6" d="M324.4697,174.7634 C354.3697,196.9734 384.92,219.65 414.86,241.88 " fill="none" id="GroupTypeExpression-backto-GroupTypeExpressionList" style="stroke:#181818;stroke-width:1.0;"/><polygon fill="none" points="310.02,164.03,320.8919,179.58,328.0475,169.9468,310.02,164.03" style="stroke:#181818;stroke-width:1.0;"/></g><!--reverse link GroupTypeExpressionList to GroupTypeExpression--><g id="link_GroupTypeExpressionList_GroupTypeExpression"><path codeLine="7" d="M424.6819,232.0882 C414.2719,216.9782 405.95,207.48 389,194 C374.15,182.19 356.24,172.16 339.22,164.11 " fill="none" id="GroupTypeExpressionList-backto-GroupTypeExpression" style="stroke:#181818;stroke-width:1.0;"/><polygon fill="#181818" points="431.49,241.97,431.3799,234.7597,424.6819,232.0882,424.792,239.2984,431.49,241.97" style="stroke:#181818;stroke-width:1.0;"/><polygon fill="#000000" points="408.0869,200.0632,413.3362,207.9939,416.9952,203.3938,408.0869,200.0632" style="stroke:#000000;stroke-width:1.0;"/><text fill="#000000" font-family="sans-serif" font-size="13" lengthAdjust="spacing" textLength="54.9263" x="421" y="208.4951">positional</text><text fill="#000000" font-family="sans-serif" font-size="13" lengthAdjust="spacing" textLength="5.0591" x="348.2612" y="185.4748">*</text></g><!--reverse link GroupTypeExpressionList to NamedGroupTypeExpression--><g id="link_GroupTypeExpressionList_NamedGroupTypeExpression"><path codeLine="8" d="M405.3469,297.1856 C375.4469,319.3956 340.08,345.65 310.14,367.88 " fill="none" id="GroupTypeExpressionList-backto-NamedGroupTypeExpression" style="stroke:#181818;stroke-width:1.0;"/><polygon fill="#181818" points="414.98,290.03,407.7782,290.3967,405.3469,297.1856,412.5486,296.8188,414.98,290.03" style="stroke:#181818;stroke-width:1.0;"/><polygon fill="#000000" points="373.9857,332.1566,382.9997,329.1238,379.4956,324.4047,373.9857,332.1566" style="stroke:#000000;stroke-width:1.0;"/><text fill="#000000" font-family="sans-serif" font-size="13" lengthAdjust="spacing" textLength="39.749" x="387" y="334.4951">named</text><text fill="#000000" font-family="sans-serif" font-size="13" lengthAdjust="spacing" textLength="5.0591" x="312.4328" y="357.1894">*</text></g><!--SRC=[KrTmByelBGYfB4XrhIWeIYqkpipFumABkQGcvoXewUhYLe4gfc1J0rGC4YD9WrzYRceADXsu94Xt4nO9dypY4YuSuc0BbBIKiEcpKh1JACWlpYm1iXDp29g0omyWO_90SW00]--></g></svg>