<svg xmlns="http://www.w3.org/2000/svg" xmlns:xlink="http://www.w3.org/1999/xlink" contentStyleType="text/css" height="190px" preserveAspectRatio="none" style="width:325px;height:190px;background:#FFFFFF;" version="1.1" viewBox="0 0 325 190" width="325px" zoomAndPan="magnify"><defs/><g><!--class Expression--><g id="elem_Expression"><rect fill="#F1F1F1" height="48" id="Expression" rx="2.5" ry="2.5" style="stroke:#181818;stroke-width:0.5;" width="101.2549" x="114" y="7"/><ellipse cx="129" cy="23" fill="#ADD1B2" rx="11" ry="11" style="stroke:#181818;stroke-width:1.0;"/><path d="M131.7656,18.875 Q131.9219,18.6563 132.1094,18.5469 Q132.2969,18.4375 132.5156,18.4375 Q132.8906,18.4375 133.125,18.7031 Q133.3594,18.9531 133.3594,19.5625 L133.3594,21.0156 Q133.3594,21.625 133.125,21.8906 Q132.8906,22.1563 132.5156,22.1563 Q132.1719,22.1563 131.9688,21.9531 Q131.7656,21.7656 131.6563,21.25 Q131.6094,20.8906 131.4219,20.7031 Q131.0938,20.3281 130.4844,20.1094 Q129.875,19.8906 129.25,19.8906 Q128.4844,19.8906 127.8438,20.2188 Q127.2188,20.5469 126.7188,21.2969 Q126.2344,22.0469 126.2344,23.0781 L126.2344,24.1719 Q126.2344,25.4063 127.125,26.2344 Q128.0156,27.0469 129.6094,27.0469 Q130.5469,27.0469 131.2031,26.7969 Q131.5938,26.6406 132.0156,26.2031 Q132.2813,25.9375 132.4219,25.8594 Q132.5781,25.7813 132.7813,25.7813 Q133.1094,25.7813 133.3594,26.0469 Q133.625,26.2969 133.625,26.6406 Q133.625,26.9844 133.2813,27.3906 Q132.7813,27.9688 131.9844,28.2969 Q130.9063,28.75 129.6094,28.75 Q128.0938,28.75 126.8906,28.125 Q125.9063,27.625 125.2188,26.5625 Q124.5313,25.4844 124.5313,24.2031 L124.5313,23.0469 Q124.5313,21.7188 125.1406,20.5781 Q125.7656,19.4219 126.8594,18.8125 Q127.9531,18.1875 129.1875,18.1875 Q129.9219,18.1875 130.5625,18.3594 Q131.2188,18.5156 131.7656,18.875 Z " fill="#000000"/><text fill="#000000" font-family="sans-serif" font-size="14" lengthAdjust="spacing" textLength="69.2549" x="143" y="28.7285">Expression</text><line style="stroke:#181818;stroke-width:0.5;" x1="115" x2="214.2549" y1="39" y2="39"/><line style="stroke:#181818;stroke-width:0.5;" x1="115" x2="214.2549" y1="47" y2="47"/></g><polygon fill="none" points="164.5595,55,171.5028,75.0197,157.5029,74.9801" style="stroke:#181818;stroke-width:1.0;"/><line style="stroke:#181818;stroke-width:1.0;" x1="164.5028" x2="164.5" y1="74.9999" y2="76"/><!--class GroupConstructor--><g id="elem_GroupConstructor"><rect fill="#F1F1F1" height="48" id="GroupConstructor" rx="2.5" ry="2.5" style="stroke:#181818;stroke-width:0.5;" width="143.2686" x="7" y="135"/><ellipse cx="22" cy="151" fill="#ADD1B2" rx="11" ry="11" style="stroke:#181818;stroke-width:1.0;"/><path d="M24.7656,146.875 Q24.9219,146.6563 25.1094,146.5469 Q25.2969,146.4375 25.5156,146.4375 Q25.8906,146.4375 26.125,146.7031 Q26.3594,146.9531 26.3594,147.5625 L26.3594,149.0156 Q26.3594,149.625 26.125,149.8906 Q25.8906,150.1563 25.5156,150.1563 Q25.1719,150.1563 24.9688,149.9531 Q24.7656,149.7656 24.6563,149.25 Q24.6094,148.8906 24.4219,148.7031 Q24.0938,148.3281 23.4844,148.1094 Q22.875,147.8906 22.25,147.8906 Q21.4844,147.8906 20.8438,148.2188 Q20.2188,148.5469 19.7188,149.2969 Q19.2344,150.0469 19.2344,151.0781 L19.2344,152.1719 Q19.2344,153.4063 20.125,154.2344 Q21.0156,155.0469 22.6094,155.0469 Q23.5469,155.0469 24.2031,154.7969 Q24.5938,154.6406 25.0156,154.2031 Q25.2813,153.9375 25.4219,153.8594 Q25.5781,153.7813 25.7813,153.7813 Q26.1094,153.7813 26.3594,154.0469 Q26.625,154.2969 26.625,154.6406 Q26.625,154.9844 26.2813,155.3906 Q25.7813,155.9688 24.9844,156.2969 Q23.9063,156.75 22.6094,156.75 Q21.0938,156.75 19.8906,156.125 Q18.9063,155.625 18.2188,154.5625 Q17.5313,153.4844 17.5313,152.2031 L17.5313,151.0469 Q17.5313,149.7188 18.1406,148.5781 Q18.7656,147.4219 19.8594,146.8125 Q20.9531,146.1875 22.1875,146.1875 Q22.9219,146.1875 23.5625,146.3594 Q24.2188,146.5156 24.7656,146.875 Z " fill="#000000"/><text fill="#000000" font-family="sans-serif" font-size="14" lengthAdjust="spacing" textLength="111.2686" x="36" y="156.7285">GroupConstructor</text><line style="stroke:#181818;stroke-width:0.5;" x1="8" x2="149.2686" y1="167" y2="167"/><line style="stroke:#181818;stroke-width:0.5;" x1="8" x2="149.2686" y1="175" y2="175"/></g><!--class GroupProjection--><g id="elem_GroupProjection"><rect fill="#F1F1F1" height="48" id="GroupProjection" rx="2.5" ry="2.5" style="stroke:#181818;stroke-width:0.5;" width="133.165" x="185" y="135"/><ellipse cx="200" cy="151" fill="#ADD1B2" rx="11" ry="11" style="stroke:#181818;stroke-width:1.0;"/><path d="M202.7656,146.875 Q202.9219,146.6563 203.1094,146.5469 Q203.2969,146.4375 203.5156,146.4375 Q203.8906,146.4375 204.125,146.7031 Q204.3594,146.9531 204.3594,147.5625 L204.3594,149.0156 Q204.3594,149.625 204.125,149.8906 Q203.8906,150.1563 203.5156,150.1563 Q203.1719,150.1563 202.9688,149.9531 Q202.7656,149.7656 202.6563,149.25 Q202.6094,148.8906 202.4219,148.7031 Q202.0938,148.3281 201.4844,148.1094 Q200.875,147.8906 200.25,147.8906 Q199.4844,147.8906 198.8438,148.2188 Q198.2188,148.5469 197.7188,149.2969 Q197.2344,150.0469 197.2344,151.0781 L197.2344,152.1719 Q197.2344,153.4063 198.125,154.2344 Q199.0156,155.0469 200.6094,155.0469 Q201.5469,155.0469 202.2031,154.7969 Q202.5938,154.6406 203.0156,154.2031 Q203.2813,153.9375 203.4219,153.8594 Q203.5781,153.7813 203.7813,153.7813 Q204.1094,153.7813 204.3594,154.0469 Q204.625,154.2969 204.625,154.6406 Q204.625,154.9844 204.2813,155.3906 Q203.7813,155.9688 202.9844,156.2969 Q201.9063,156.75 200.6094,156.75 Q199.0938,156.75 197.8906,156.125 Q196.9063,155.625 196.2188,154.5625 Q195.5313,153.4844 195.5313,152.2031 L195.5313,151.0469 Q195.5313,149.7188 196.1406,148.5781 Q196.7656,147.4219 197.8594,146.8125 Q198.9531,146.1875 200.1875,146.1875 Q200.9219,146.1875 201.5625,146.3594 Q202.2188,146.5156 202.7656,146.875 Z " fill="#000000"/><text fill="#000000" font-family="sans-serif" font-size="14" lengthAdjust="spacing" textLength="101.165" x="214" y="156.7285">GroupProjection</text><line style="stroke:#181818;stroke-width:0.5;" x1="186" x2="317.165" y1="167" y2="167"/><line style="stroke:#181818;stroke-width:0.5;" x1="186" x2="317.165" y1="175" y2="175"/></g><!--reverse link Expression to GroupConstructor--><g id="link_Expression_GroupConstructor"><path codeLine="3" d="M164.5,76 C164.5,76 128.34,110.48 102.91,134.72 " fill="none" id="Expression-backto-GroupConstructor" style="stroke:#181818;stroke-width:1.0;"/></g><!--reverse link Expression to GroupProjection--><g id="link_Expression_GroupProjection"><path codeLine="4" d="M164.5,76 C164.5,76 201.08,110.48 226.8,134.72 " fill="none" id="Expression-backto-GroupProjection" style="stroke:#181818;stroke-width:1.0;"/></g><!--SRC=[AyxEp2j8B4hCLKWloYyjyCpBI2tAB4dCIqvLCEBYSgqeA4ejBixCprEmgT7LLL1m1obopiyhBYagJIx9ByAX8g0eFoirkGGeoWK0]--></g></svg>