<svg xmlns="http://www.w3.org/2000/svg" xmlns:xlink="http://www.w3.org/1999/xlink" contentStyleType="text/css" height="170px" preserveAspectRatio="none" style="width:826px;height:170px;background:#FFFFFF;" version="1.1" viewBox="0 0 826 170" width="826px" zoomAndPan="magnify"><defs/><g><!--class Pragma--><g id="elem_Pragma"><rect fill="#F1F1F1" height="48" id="Pragma" rx="2.5" ry="2.5" style="stroke:#181818;stroke-width:0.5;" width="81.0205" x="326.5" y="7"/><ellipse cx="341.5" cy="23" fill="#ADD1B2" rx="11" ry="11" style="stroke:#181818;stroke-width:1.0;"/><path d="M344.2656,18.875 Q344.4219,18.6563 344.6094,18.5469 Q344.7969,18.4375 345.0156,18.4375 Q345.3906,18.4375 345.625,18.6953 Q345.8594,18.9531 345.8594,19.5625 L345.8594,21.0156 Q345.8594,21.625 345.625,21.8906 Q345.3906,22.1563 345.0156,22.1563 Q344.6719,22.1563 344.4688,21.9531 Q344.2656,21.7656 344.1563,21.25 Q344.1094,20.8906 343.9219,20.7031 Q343.5938,20.3281 342.9844,20.1094 Q342.375,19.8906 341.75,19.8906 Q340.9844,19.8906 340.3516,20.2188 Q339.7188,20.5469 339.2266,21.2969 Q338.7344,22.0469 338.7344,23.0781 L338.7344,24.1719 Q338.7344,25.4063 339.625,26.2266 Q340.5156,27.0469 342.1094,27.0469 Q343.0469,27.0469 343.7031,26.7969 Q344.0938,26.6406 344.5156,26.2031 Q344.7813,25.9375 344.9297,25.8594 Q345.0781,25.7813 345.2813,25.7813 Q345.6094,25.7813 345.8672,26.0391 Q346.125,26.2969 346.125,26.6406 Q346.125,26.9844 345.7813,27.3906 Q345.2813,27.9688 344.4844,28.2969 Q343.4063,28.75 342.1094,28.75 Q340.5938,28.75 339.3906,28.125 Q338.4063,27.625 337.7188,26.5547 Q337.0313,25.4844 337.0313,24.2031 L337.0313,23.0469 Q337.0313,21.7188 337.6484,20.5703 Q338.2656,19.4219 339.3594,18.8047 Q340.4531,18.1875 341.6875,18.1875 Q342.4219,18.1875 343.0703,18.3516 Q343.7188,18.5156 344.2656,18.875 Z " fill="#000000"/><text fill="#000000" font-family="sans-serif" font-size="14" lengthAdjust="spacing" textLength="49.0205" x="355.5" y="28.7285">Pragma</text><line style="stroke:#181818;stroke-width:0.5;" x1="327.5" x2="406.5205" y1="39" y2="39"/><line style="stroke:#181818;stroke-width:0.5;" x1="327.5" x2="406.5205" y1="47" y2="47"/></g><!--class DiagramPragma--><g id="elem_DiagramPragma"><rect fill="#F1F1F1" height="48" id="DiagramPragma" rx="2.5" ry="2.5" style="stroke:#181818;stroke-width:0.5;" width="133.9238" x="7" y="115"/><ellipse cx="22" cy="131" fill="#ADD1B2" rx="11" ry="11" style="stroke:#181818;stroke-width:1.0;"/><path d="M24.7656,126.875 Q24.9219,126.6563 25.1094,126.5469 Q25.2969,126.4375 25.5156,126.4375 Q25.8906,126.4375 26.125,126.6953 Q26.3594,126.9531 26.3594,127.5625 L26.3594,129.0156 Q26.3594,129.625 26.125,129.8906 Q25.8906,130.1563 25.5156,130.1563 Q25.1719,130.1563 24.9688,129.9531 Q24.7656,129.7656 24.6563,129.25 Q24.6094,128.8906 24.4219,128.7031 Q24.0938,128.3281 23.4844,128.1094 Q22.875,127.8906 22.25,127.8906 Q21.4844,127.8906 20.8516,128.2188 Q20.2188,128.5469 19.7266,129.2969 Q19.2344,130.0469 19.2344,131.0781 L19.2344,132.1719 Q19.2344,133.4063 20.125,134.2266 Q21.0156,135.0469 22.6094,135.0469 Q23.5469,135.0469 24.2031,134.7969 Q24.5938,134.6406 25.0156,134.2031 Q25.2813,133.9375 25.4297,133.8594 Q25.5781,133.7813 25.7813,133.7813 Q26.1094,133.7813 26.3672,134.0391 Q26.625,134.2969 26.625,134.6406 Q26.625,134.9844 26.2813,135.3906 Q25.7813,135.9688 24.9844,136.2969 Q23.9063,136.75 22.6094,136.75 Q21.0938,136.75 19.8906,136.125 Q18.9063,135.625 18.2188,134.5547 Q17.5313,133.4844 17.5313,132.2031 L17.5313,131.0469 Q17.5313,129.7188 18.1484,128.5703 Q18.7656,127.4219 19.8594,126.8047 Q20.9531,126.1875 22.1875,126.1875 Q22.9219,126.1875 23.5703,126.3516 Q24.2188,126.5156 24.7656,126.875 Z " fill="#000000"/><text fill="#000000" font-family="sans-serif" font-size="14" lengthAdjust="spacing" textLength="101.9238" x="36" y="136.7285">DiagramPragma</text><line style="stroke:#181818;stroke-width:0.5;" x1="8" x2="139.9238" y1="147" y2="147"/><line style="stroke:#181818;stroke-width:0.5;" x1="8" x2="139.9238" y1="155" y2="155"/></g><!--class CGPragma--><g id="elem_CGPragma"><rect fill="#F1F1F1" height="48" id="CGPragma" rx="2.5" ry="2.5" style="stroke:#181818;stroke-width:0.5;" width="102.0205" x="176" y="115"/><ellipse cx="191" cy="131" fill="#ADD1B2" rx="11" ry="11" style="stroke:#181818;stroke-width:1.0;"/><path d="M193.7656,126.875 Q193.9219,126.6563 194.1094,126.5469 Q194.2969,126.4375 194.5156,126.4375 Q194.8906,126.4375 195.125,126.6953 Q195.3594,126.9531 195.3594,127.5625 L195.3594,129.0156 Q195.3594,129.625 195.125,129.8906 Q194.8906,130.1563 194.5156,130.1563 Q194.1719,130.1563 193.9688,129.9531 Q193.7656,129.7656 193.6563,129.25 Q193.6094,128.8906 193.4219,128.7031 Q193.0938,128.3281 192.4844,128.1094 Q191.875,127.8906 191.25,127.8906 Q190.4844,127.8906 189.8516,128.2188 Q189.2188,128.5469 188.7266,129.2969 Q188.2344,130.0469 188.2344,131.0781 L188.2344,132.1719 Q188.2344,133.4063 189.125,134.2266 Q190.0156,135.0469 191.6094,135.0469 Q192.5469,135.0469 193.2031,134.7969 Q193.5938,134.6406 194.0156,134.2031 Q194.2813,133.9375 194.4297,133.8594 Q194.5781,133.7813 194.7813,133.7813 Q195.1094,133.7813 195.3672,134.0391 Q195.625,134.2969 195.625,134.6406 Q195.625,134.9844 195.2813,135.3906 Q194.7813,135.9688 193.9844,136.2969 Q192.9063,136.75 191.6094,136.75 Q190.0938,136.75 188.8906,136.125 Q187.9063,135.625 187.2188,134.5547 Q186.5313,133.4844 186.5313,132.2031 L186.5313,131.0469 Q186.5313,129.7188 187.1484,128.5703 Q187.7656,127.4219 188.8594,126.8047 Q189.9531,126.1875 191.1875,126.1875 Q191.9219,126.1875 192.5703,126.3516 Q193.2188,126.5156 193.7656,126.875 Z " fill="#000000"/><text fill="#000000" font-family="sans-serif" font-size="14" lengthAdjust="spacing" textLength="70.0205" x="205" y="136.7285">CGPragma</text><line style="stroke:#181818;stroke-width:0.5;" x1="177" x2="277.0205" y1="147" y2="147"/><line style="stroke:#181818;stroke-width:0.5;" x1="177" x2="277.0205" y1="155" y2="155"/></g><!--class TestPragma--><g id="elem_TestPragma"><rect fill="#F1F1F1" height="48" id="TestPragma" rx="2.5" ry="2.5" style="stroke:#181818;stroke-width:0.5;" width="108.248" x="313" y="115"/><ellipse cx="328" cy="131" fill="#ADD1B2" rx="11" ry="11" style="stroke:#181818;stroke-width:1.0;"/><path d="M330.7656,126.875 Q330.9219,126.6563 331.1094,126.5469 Q331.2969,126.4375 331.5156,126.4375 Q331.8906,126.4375 332.125,126.6953 Q332.3594,126.9531 332.3594,127.5625 L332.3594,129.0156 Q332.3594,129.625 332.125,129.8906 Q331.8906,130.1563 331.5156,130.1563 Q331.1719,130.1563 330.9688,129.9531 Q330.7656,129.7656 330.6563,129.25 Q330.6094,128.8906 330.4219,128.7031 Q330.0938,128.3281 329.4844,128.1094 Q328.875,127.8906 328.25,127.8906 Q327.4844,127.8906 326.8516,128.2188 Q326.2188,128.5469 325.7266,129.2969 Q325.2344,130.0469 325.2344,131.0781 L325.2344,132.1719 Q325.2344,133.4063 326.125,134.2266 Q327.0156,135.0469 328.6094,135.0469 Q329.5469,135.0469 330.2031,134.7969 Q330.5938,134.6406 331.0156,134.2031 Q331.2813,133.9375 331.4297,133.8594 Q331.5781,133.7813 331.7813,133.7813 Q332.1094,133.7813 332.3672,134.0391 Q332.625,134.2969 332.625,134.6406 Q332.625,134.9844 332.2813,135.3906 Q331.7813,135.9688 330.9844,136.2969 Q329.9063,136.75 328.6094,136.75 Q327.0938,136.75 325.8906,136.125 Q324.9063,135.625 324.2188,134.5547 Q323.5313,133.4844 323.5313,132.2031 L323.5313,131.0469 Q323.5313,129.7188 324.1484,128.5703 Q324.7656,127.4219 325.8594,126.8047 Q326.9531,126.1875 328.1875,126.1875 Q328.9219,126.1875 329.5703,126.3516 Q330.2188,126.5156 330.7656,126.875 Z " fill="#000000"/><text fill="#000000" font-family="sans-serif" font-size="14" lengthAdjust="spacing" textLength="76.248" x="342" y="136.7285">TestPragma</text><line style="stroke:#181818;stroke-width:0.5;" x1="314" x2="420.248" y1="147" y2="147"/><line style="stroke:#181818;stroke-width:0.5;" x1="314" x2="420.248" y1="155" y2="155"/></g><!--class DocumentationPragma--><g id="elem_DocumentationPragma"><rect fill="#F1F1F1" height="48" id="DocumentationPragma" rx="2.5" ry="2.5" style="stroke:#181818;stroke-width:0.5;" width="175.1855" x="456.5" y="115"/><ellipse cx="471.5" cy="131" fill="#ADD1B2" rx="11" ry="11" style="stroke:#181818;stroke-width:1.0;"/><path d="M474.2656,126.875 Q474.4219,126.6563 474.6094,126.5469 Q474.7969,126.4375 475.0156,126.4375 Q475.3906,126.4375 475.625,126.6953 Q475.8594,126.9531 475.8594,127.5625 L475.8594,129.0156 Q475.8594,129.625 475.625,129.8906 Q475.3906,130.1563 475.0156,130.1563 Q474.6719,130.1563 474.4688,129.9531 Q474.2656,129.7656 474.1563,129.25 Q474.1094,128.8906 473.9219,128.7031 Q473.5938,128.3281 472.9844,128.1094 Q472.375,127.8906 471.75,127.8906 Q470.9844,127.8906 470.3516,128.2188 Q469.7188,128.5469 469.2266,129.2969 Q468.7344,130.0469 468.7344,131.0781 L468.7344,132.1719 Q468.7344,133.4063 469.625,134.2266 Q470.5156,135.0469 472.1094,135.0469 Q473.0469,135.0469 473.7031,134.7969 Q474.0938,134.6406 474.5156,134.2031 Q474.7813,133.9375 474.9297,133.8594 Q475.0781,133.7813 475.2813,133.7813 Q475.6094,133.7813 475.8672,134.0391 Q476.125,134.2969 476.125,134.6406 Q476.125,134.9844 475.7813,135.3906 Q475.2813,135.9688 474.4844,136.2969 Q473.4063,136.75 472.1094,136.75 Q470.5938,136.75 469.3906,136.125 Q468.4063,135.625 467.7188,134.5547 Q467.0313,133.4844 467.0313,132.2031 L467.0313,131.0469 Q467.0313,129.7188 467.6484,128.5703 Q468.2656,127.4219 469.3594,126.8047 Q470.4531,126.1875 471.6875,126.1875 Q472.4219,126.1875 473.0703,126.3516 Q473.7188,126.5156 474.2656,126.875 Z " fill="#000000"/><text fill="#000000" font-family="sans-serif" font-size="14" lengthAdjust="spacing" textLength="143.1855" x="485.5" y="136.7285">DocumentationPragma</text><line style="stroke:#181818;stroke-width:0.5;" x1="457.5" x2="630.6855" y1="147" y2="147"/><line style="stroke:#181818;stroke-width:0.5;" x1="457.5" x2="630.6855" y1="155" y2="155"/></g><!--class TraceabilityPragma--><g id="elem_TraceabilityPragma"><rect fill="#F1F1F1" height="48" id="TraceabilityPragma" rx="2.5" ry="2.5" style="stroke:#181818;stroke-width:0.5;" width="152.5996" x="666.5" y="115"/><ellipse cx="681.5" cy="131" fill="#ADD1B2" rx="11" ry="11" style="stroke:#181818;stroke-width:1.0;"/><path d="M684.2656,126.875 Q684.4219,126.6563 684.6094,126.5469 Q684.7969,126.4375 685.0156,126.4375 Q685.3906,126.4375 685.625,126.6953 Q685.8594,126.9531 685.8594,127.5625 L685.8594,129.0156 Q685.8594,129.625 685.625,129.8906 Q685.3906,130.1563 685.0156,130.1563 Q684.6719,130.1563 684.4688,129.9531 Q684.2656,129.7656 684.1563,129.25 Q684.1094,128.8906 683.9219,128.7031 Q683.5938,128.3281 682.9844,128.1094 Q682.375,127.8906 681.75,127.8906 Q680.9844,127.8906 680.3516,128.2188 Q679.7188,128.5469 679.2266,129.2969 Q678.7344,130.0469 678.7344,131.0781 L678.7344,132.1719 Q678.7344,133.4063 679.625,134.2266 Q680.5156,135.0469 682.1094,135.0469 Q683.0469,135.0469 683.7031,134.7969 Q684.0938,134.6406 684.5156,134.2031 Q684.7813,133.9375 684.9297,133.8594 Q685.0781,133.7813 685.2813,133.7813 Q685.6094,133.7813 685.8672,134.0391 Q686.125,134.2969 686.125,134.6406 Q686.125,134.9844 685.7813,135.3906 Q685.2813,135.9688 684.4844,136.2969 Q683.4063,136.75 682.1094,136.75 Q680.5938,136.75 679.3906,136.125 Q678.4063,135.625 677.7188,134.5547 Q677.0313,133.4844 677.0313,132.2031 L677.0313,131.0469 Q677.0313,129.7188 677.6484,128.5703 Q678.2656,127.4219 679.3594,126.8047 Q680.4531,126.1875 681.6875,126.1875 Q682.4219,126.1875 683.0703,126.3516 Q683.7188,126.5156 684.2656,126.875 Z " fill="#000000"/><text fill="#000000" font-family="sans-serif" font-size="14" lengthAdjust="spacing" textLength="120.5996" x="695.5" y="136.7285">TraceabilityPragma</text><line style="stroke:#181818;stroke-width:0.5;" x1="667.5" x2="818.0996" y1="147" y2="147"/><line style="stroke:#181818;stroke-width:0.5;" x1="667.5" x2="818.0996" y1="155" y2="155"/></g><!--reverse link Pragma to DiagramPragma--><g id="link_Pragma_DiagramPragma"><path codeLine="1" d="M309.3334,52.863 C260.5134,70.523 195.05,94.21 137.77,114.93 " fill="none" id="Pragma-backto-DiagramPragma" style="stroke:#181818;stroke-width:1.0;"/><polygon fill="none" points="326.26,46.74,307.2924,47.2208,311.3744,58.5052,326.26,46.74" style="stroke:#181818;stroke-width:1.0;"/></g><!--reverse link Pragma to CGPragma--><g id="link_Pragma_CGPragma"><path codeLine="2" d="M322.2704,65.8668 C298.9504,83.5268 281.23,96.94 257.8,114.68 " fill="none" id="Pragma-backto-CGPragma" style="stroke:#181818;stroke-width:1.0;"/><polygon fill="none" points="336.62,55,318.6481,61.0836,325.8926,70.65,336.62,55" style="stroke:#181818;stroke-width:1.0;"/></g><!--reverse link Pragma to TestPragma--><g id="link_Pragma_TestPragma"><path codeLine="3" d="M367,73 C367,90.66 367,96.94 367,114.68 " fill="none" id="Pragma-backto-TestPragma" style="stroke:#181818;stroke-width:1.0;"/><polygon fill="none" points="367,55,361,73,373,73,367,55" style="stroke:#181818;stroke-width:1.0;"/></g><!--reverse link Pragma to DocumentationPragma--><g id="link_Pragma_DocumentationPragma"><path codeLine="4" d="M420.8513,64.2502 C450.4313,81.9702 475.72,97.11 505.36,114.86 " fill="none" id="Pragma-backto-DocumentationPragma" style="stroke:#181818;stroke-width:1.0;"/><polygon fill="none" points="405.41,55,417.7679,69.3973,423.9347,59.1031,405.41,55" style="stroke:#181818;stroke-width:1.0;"/></g><!--reverse link Pragma to TraceabilityPragma--><g id="link_Pragma_TraceabilityPragma"><path codeLine="5" d="M424.9245,48.3249 C486.6345,65.7249 587.82,94.25 666.16,116.34 " fill="none" id="Pragma-backto-TraceabilityPragma" style="stroke:#181818;stroke-width:1.0;"/><polygon fill="none" points="407.6,43.44,423.2962,54.0997,426.5528,42.5501,407.6,43.44" style="stroke:#181818;stroke-width:1.0;"/></g><!--SRC=[2oXAJCzDLB2fqTLLSCbCJ2zAp0q02t458CauksCH34ajBi4Yx9AVN9gRcbUIM9APduTDMr5YScfYKcPEPaabH1m0]--></g></svg>