<svg xmlns="http://www.w3.org/2000/svg" xmlns:xlink="http://www.w3.org/1999/xlink" contentStyleType="text/css" data-diagram-type="CLASS" height="278px" preserveAspectRatio="none" style="width:603px;height:278px;background:#FFFFFF;" version="1.1" viewBox="0 0 603 278" width="603px" zoomAndPan="magnify"><defs/><g><!--class SwanItem--><g class="entity" data-entity="SwanItem" data-source-line="1" data-uid="ent0002" id="entity_SwanItem"><rect fill="#F1F1F1" height="48" rx="2.5" ry="2.5" style="stroke:#181818;stroke-width:0.5;" width="94.248" x="7" y="115"/><ellipse cx="22" cy="131" fill="#ADD1B2" rx="11" ry="11" style="stroke:#181818;stroke-width:1;"/><path d="M24.7656,126.875 Q24.9219,126.6563 25.1094,126.5469 Q25.2969,126.4375 25.5156,126.4375 Q25.8906,126.4375 26.125,126.6953 Q26.3594,126.9531 26.3594,127.5625 L26.3594,129.0156 Q26.3594,129.625 26.125,129.8906 Q25.8906,130.1563 25.5156,130.1563 Q25.1719,130.1563 24.9688,129.9531 Q24.7656,129.7656 24.6563,129.25 Q24.6094,128.8906 24.4219,128.7031 Q24.0938,128.3281 23.4844,128.1094 Q22.875,127.8906 22.25,127.8906 Q21.4844,127.8906 20.8516,128.2188 Q20.2188,128.5469 19.7266,129.2969 Q19.2344,130.0469 19.2344,131.0781 L19.2344,132.1719 Q19.2344,133.4063 20.125,134.2266 Q21.0156,135.0469 22.6094,135.0469 Q23.5469,135.0469 24.2031,134.7969 Q24.5938,134.6406 25.0156,134.2031 Q25.2813,133.9375 25.4297,133.8594 Q25.5781,133.7813 25.7813,133.7813 Q26.1094,133.7813 26.3672,134.0391 Q26.625,134.2969 26.625,134.6406 Q26.625,134.9844 26.2813,135.3906 Q25.7813,135.9688 24.9844,136.2969 Q23.9063,136.75 22.6094,136.75 Q21.0938,136.75 19.8906,136.125 Q18.9063,135.625 18.2188,134.5547 Q17.5313,133.4844 17.5313,132.2031 L17.5313,131.0469 Q17.5313,129.7188 18.1484,128.5703 Q18.7656,127.4219 19.8594,126.8047 Q20.9531,126.1875 22.1875,126.1875 Q22.9219,126.1875 23.5703,126.3516 Q24.2188,126.5156 24.7656,126.875 Z " fill="#000000"/><text fill="#000000" font-family="sans-serif" font-size="14" lengthAdjust="spacing" textLength="62.248" x="36" y="136.7285">SwanItem</text><line style="stroke:#181818;stroke-width:0.5;" x1="8" x2="100.248" y1="147" y2="147"/><line style="stroke:#181818;stroke-width:0.5;" x1="8" x2="100.248" y1="155" y2="155"/></g><!--class Assertion--><g class="entity" data-entity="Assertion" data-source-line="1" data-uid="ent0003" id="entity_Assertion"><rect fill="#F1F1F1" height="48" rx="2.5" ry="2.5" style="stroke:#181818;stroke-width:0.5;" width="90.3584" x="9" y="223"/><ellipse cx="24" cy="239" fill="#ADD1B2" rx="11" ry="11" style="stroke:#181818;stroke-width:1;"/><path d="M26.7656,234.875 Q26.9219,234.6563 27.1094,234.5469 Q27.2969,234.4375 27.5156,234.4375 Q27.8906,234.4375 28.125,234.6953 Q28.3594,234.9531 28.3594,235.5625 L28.3594,237.0156 Q28.3594,237.625 28.125,237.8906 Q27.8906,238.1563 27.5156,238.1563 Q27.1719,238.1563 26.9688,237.9531 Q26.7656,237.7656 26.6563,237.25 Q26.6094,236.8906 26.4219,236.7031 Q26.0938,236.3281 25.4844,236.1094 Q24.875,235.8906 24.25,235.8906 Q23.4844,235.8906 22.8516,236.2188 Q22.2188,236.5469 21.7266,237.2969 Q21.2344,238.0469 21.2344,239.0781 L21.2344,240.1719 Q21.2344,241.4063 22.125,242.2266 Q23.0156,243.0469 24.6094,243.0469 Q25.5469,243.0469 26.2031,242.7969 Q26.5938,242.6406 27.0156,242.2031 Q27.2813,241.9375 27.4297,241.8594 Q27.5781,241.7813 27.7813,241.7813 Q28.1094,241.7813 28.3672,242.0391 Q28.625,242.2969 28.625,242.6406 Q28.625,242.9844 28.2813,243.3906 Q27.7813,243.9688 26.9844,244.2969 Q25.9063,244.75 24.6094,244.75 Q23.0938,244.75 21.8906,244.125 Q20.9063,243.625 20.2188,242.5547 Q19.5313,241.4844 19.5313,240.2031 L19.5313,239.0469 Q19.5313,237.7188 20.1484,236.5703 Q20.7656,235.4219 21.8594,234.8047 Q22.9531,234.1875 24.1875,234.1875 Q24.9219,234.1875 25.5703,234.3516 Q26.2188,234.5156 26.7656,234.875 Z " fill="#000000"/><text fill="#000000" font-family="sans-serif" font-size="14" lengthAdjust="spacing" textLength="58.3584" x="38" y="244.7285">Assertion</text><line style="stroke:#181818;stroke-width:0.5;" x1="10" x2="98.3584" y1="255" y2="255"/><line style="stroke:#181818;stroke-width:0.5;" x1="10" x2="98.3584" y1="263" y2="263"/></g><!--class ScopeSection--><g class="entity" data-entity="ScopeSection" data-source-line="2" data-uid="ent0005" id="entity_ScopeSection"><rect fill="#F1F1F1" height="48" rx="2.5" ry="2.5" style="stroke:#181818;stroke-width:0.5;" width="118.3926" x="215" y="7"/><ellipse cx="230" cy="23" fill="#ADD1B2" rx="11" ry="11" style="stroke:#181818;stroke-width:1;"/><path d="M232.7656,18.875 Q232.9219,18.6563 233.1094,18.5469 Q233.2969,18.4375 233.5156,18.4375 Q233.8906,18.4375 234.125,18.6953 Q234.3594,18.9531 234.3594,19.5625 L234.3594,21.0156 Q234.3594,21.625 234.125,21.8906 Q233.8906,22.1563 233.5156,22.1563 Q233.1719,22.1563 232.9688,21.9531 Q232.7656,21.7656 232.6563,21.25 Q232.6094,20.8906 232.4219,20.7031 Q232.0938,20.3281 231.4844,20.1094 Q230.875,19.8906 230.25,19.8906 Q229.4844,19.8906 228.8516,20.2188 Q228.2188,20.5469 227.7266,21.2969 Q227.2344,22.0469 227.2344,23.0781 L227.2344,24.1719 Q227.2344,25.4063 228.125,26.2266 Q229.0156,27.0469 230.6094,27.0469 Q231.5469,27.0469 232.2031,26.7969 Q232.5938,26.6406 233.0156,26.2031 Q233.2813,25.9375 233.4297,25.8594 Q233.5781,25.7813 233.7813,25.7813 Q234.1094,25.7813 234.3672,26.0391 Q234.625,26.2969 234.625,26.6406 Q234.625,26.9844 234.2813,27.3906 Q233.7813,27.9688 232.9844,28.2969 Q231.9063,28.75 230.6094,28.75 Q229.0938,28.75 227.8906,28.125 Q226.9063,27.625 226.2188,26.5547 Q225.5313,25.4844 225.5313,24.2031 L225.5313,23.0469 Q225.5313,21.7188 226.1484,20.5703 Q226.7656,19.4219 227.8594,18.8047 Q228.9531,18.1875 230.1875,18.1875 Q230.9219,18.1875 231.5703,18.3516 Q232.2188,18.5156 232.7656,18.875 Z " fill="#000000"/><text fill="#000000" font-family="sans-serif" font-size="14" lengthAdjust="spacing" textLength="86.3926" x="244" y="28.7285">ScopeSection</text><line style="stroke:#181818;stroke-width:0.5;" x1="216" x2="332.3926" y1="39" y2="39"/><line style="stroke:#181818;stroke-width:0.5;" x1="216" x2="332.3926" y1="47" y2="47"/></g><!--class AssertionBase--><g class="entity" data-entity="AssertionBase" data-source-line="2" data-uid="ent0006" id="entity_AssertionBase"><rect fill="#F1F1F1" height="48" rx="2.5" ry="2.5" style="stroke:#181818;stroke-width:0.5;" width="122.2686" x="213" y="115"/><ellipse cx="228" cy="131" fill="#ADD1B2" rx="11" ry="11" style="stroke:#181818;stroke-width:1;"/><path d="M230.7656,126.875 Q230.9219,126.6563 231.1094,126.5469 Q231.2969,126.4375 231.5156,126.4375 Q231.8906,126.4375 232.125,126.6953 Q232.3594,126.9531 232.3594,127.5625 L232.3594,129.0156 Q232.3594,129.625 232.125,129.8906 Q231.8906,130.1563 231.5156,130.1563 Q231.1719,130.1563 230.9688,129.9531 Q230.7656,129.7656 230.6563,129.25 Q230.6094,128.8906 230.4219,128.7031 Q230.0938,128.3281 229.4844,128.1094 Q228.875,127.8906 228.25,127.8906 Q227.4844,127.8906 226.8516,128.2188 Q226.2188,128.5469 225.7266,129.2969 Q225.2344,130.0469 225.2344,131.0781 L225.2344,132.1719 Q225.2344,133.4063 226.125,134.2266 Q227.0156,135.0469 228.6094,135.0469 Q229.5469,135.0469 230.2031,134.7969 Q230.5938,134.6406 231.0156,134.2031 Q231.2813,133.9375 231.4297,133.8594 Q231.5781,133.7813 231.7813,133.7813 Q232.1094,133.7813 232.3672,134.0391 Q232.625,134.2969 232.625,134.6406 Q232.625,134.9844 232.2813,135.3906 Q231.7813,135.9688 230.9844,136.2969 Q229.9063,136.75 228.6094,136.75 Q227.0938,136.75 225.8906,136.125 Q224.9063,135.625 224.2188,134.5547 Q223.5313,133.4844 223.5313,132.2031 L223.5313,131.0469 Q223.5313,129.7188 224.1484,128.5703 Q224.7656,127.4219 225.8594,126.8047 Q226.9531,126.1875 228.1875,126.1875 Q228.9219,126.1875 229.5703,126.3516 Q230.2188,126.5156 230.7656,126.875 Z " fill="#000000"/><text fill="#000000" font-family="sans-serif" font-size="14" lengthAdjust="spacing" textLength="90.2686" x="242" y="136.7285">AssertionBase</text><line style="stroke:#181818;stroke-width:0.5;" x1="214" x2="334.2686" y1="147" y2="147"/><line style="stroke:#181818;stroke-width:0.5;" x1="214" x2="334.2686" y1="155" y2="155"/></g><!--class AssertSection--><g class="entity" data-entity="AssertSection" data-source-line="3" data-uid="ent0008" id="entity_AssertSection"><rect fill="#F1F1F1" height="48" rx="2.5" ry="2.5" style="stroke:#181818;stroke-width:0.5;" width="118.3721" x="134" y="223"/><ellipse cx="149" cy="239" fill="#ADD1B2" rx="11" ry="11" style="stroke:#181818;stroke-width:1;"/><path d="M151.7656,234.875 Q151.9219,234.6563 152.1094,234.5469 Q152.2969,234.4375 152.5156,234.4375 Q152.8906,234.4375 153.125,234.6953 Q153.3594,234.9531 153.3594,235.5625 L153.3594,237.0156 Q153.3594,237.625 153.125,237.8906 Q152.8906,238.1563 152.5156,238.1563 Q152.1719,238.1563 151.9688,237.9531 Q151.7656,237.7656 151.6563,237.25 Q151.6094,236.8906 151.4219,236.7031 Q151.0938,236.3281 150.4844,236.1094 Q149.875,235.8906 149.25,235.8906 Q148.4844,235.8906 147.8516,236.2188 Q147.2188,236.5469 146.7266,237.2969 Q146.2344,238.0469 146.2344,239.0781 L146.2344,240.1719 Q146.2344,241.4063 147.125,242.2266 Q148.0156,243.0469 149.6094,243.0469 Q150.5469,243.0469 151.2031,242.7969 Q151.5938,242.6406 152.0156,242.2031 Q152.2813,241.9375 152.4297,241.8594 Q152.5781,241.7813 152.7813,241.7813 Q153.1094,241.7813 153.3672,242.0391 Q153.625,242.2969 153.625,242.6406 Q153.625,242.9844 153.2813,243.3906 Q152.7813,243.9688 151.9844,244.2969 Q150.9063,244.75 149.6094,244.75 Q148.0938,244.75 146.8906,244.125 Q145.9063,243.625 145.2188,242.5547 Q144.5313,241.4844 144.5313,240.2031 L144.5313,239.0469 Q144.5313,237.7188 145.1484,236.5703 Q145.7656,235.4219 146.8594,234.8047 Q147.9531,234.1875 149.1875,234.1875 Q149.9219,234.1875 150.5703,234.3516 Q151.2188,234.5156 151.7656,234.875 Z " fill="#000000"/><text fill="#000000" font-family="sans-serif" font-size="14" lengthAdjust="spacing" textLength="86.3721" x="163" y="244.7285">AssertSection</text><line style="stroke:#181818;stroke-width:0.5;" x1="135" x2="251.3721" y1="255" y2="255"/><line style="stroke:#181818;stroke-width:0.5;" x1="135" x2="251.3721" y1="263" y2="263"/></g><!--class AssumeSection--><g class="entity" data-entity="AssumeSection" data-source-line="4" data-uid="ent0010" id="entity_AssumeSection"><rect fill="#F1F1F1" height="48" rx="2.5" ry="2.5" style="stroke:#181818;stroke-width:0.5;" width="129.2686" x="287.5" y="223"/><ellipse cx="302.5" cy="239" fill="#ADD1B2" rx="11" ry="11" style="stroke:#181818;stroke-width:1;"/><path d="M305.2656,234.875 Q305.4219,234.6563 305.6094,234.5469 Q305.7969,234.4375 306.0156,234.4375 Q306.3906,234.4375 306.625,234.6953 Q306.8594,234.9531 306.8594,235.5625 L306.8594,237.0156 Q306.8594,237.625 306.625,237.8906 Q306.3906,238.1563 306.0156,238.1563 Q305.6719,238.1563 305.4688,237.9531 Q305.2656,237.7656 305.1563,237.25 Q305.1094,236.8906 304.9219,236.7031 Q304.5938,236.3281 303.9844,236.1094 Q303.375,235.8906 302.75,235.8906 Q301.9844,235.8906 301.3516,236.2188 Q300.7188,236.5469 300.2266,237.2969 Q299.7344,238.0469 299.7344,239.0781 L299.7344,240.1719 Q299.7344,241.4063 300.625,242.2266 Q301.5156,243.0469 303.1094,243.0469 Q304.0469,243.0469 304.7031,242.7969 Q305.0938,242.6406 305.5156,242.2031 Q305.7813,241.9375 305.9297,241.8594 Q306.0781,241.7813 306.2813,241.7813 Q306.6094,241.7813 306.8672,242.0391 Q307.125,242.2969 307.125,242.6406 Q307.125,242.9844 306.7813,243.3906 Q306.2813,243.9688 305.4844,244.2969 Q304.4063,244.75 303.1094,244.75 Q301.5938,244.75 300.3906,244.125 Q299.4063,243.625 298.7188,242.5547 Q298.0313,241.4844 298.0313,240.2031 L298.0313,239.0469 Q298.0313,237.7188 298.6484,236.5703 Q299.2656,235.4219 300.3594,234.8047 Q301.4531,234.1875 302.6875,234.1875 Q303.4219,234.1875 304.0703,234.3516 Q304.7188,234.5156 305.2656,234.875 Z " fill="#000000"/><text fill="#000000" font-family="sans-serif" font-size="14" lengthAdjust="spacing" textLength="97.2686" x="316.5" y="244.7285">AssumeSection</text><line style="stroke:#181818;stroke-width:0.5;" x1="288.5" x2="415.7686" y1="255" y2="255"/><line style="stroke:#181818;stroke-width:0.5;" x1="288.5" x2="415.7686" y1="263" y2="263"/></g><!--class GuaranteeSection--><g class="entity" data-entity="GuaranteeSection" data-source-line="5" data-uid="ent0012" id="entity_GuaranteeSection"><rect fill="#F1F1F1" height="48" rx="2.5" ry="2.5" style="stroke:#181818;stroke-width:0.5;" width="144.8545" x="451.5" y="223"/><ellipse cx="466.5" cy="239" fill="#ADD1B2" rx="11" ry="11" style="stroke:#181818;stroke-width:1;"/><path d="M469.2656,234.875 Q469.4219,234.6563 469.6094,234.5469 Q469.7969,234.4375 470.0156,234.4375 Q470.3906,234.4375 470.625,234.6953 Q470.8594,234.9531 470.8594,235.5625 L470.8594,237.0156 Q470.8594,237.625 470.625,237.8906 Q470.3906,238.1563 470.0156,238.1563 Q469.6719,238.1563 469.4688,237.9531 Q469.2656,237.7656 469.1563,237.25 Q469.1094,236.8906 468.9219,236.7031 Q468.5938,236.3281 467.9844,236.1094 Q467.375,235.8906 466.75,235.8906 Q465.9844,235.8906 465.3516,236.2188 Q464.7188,236.5469 464.2266,237.2969 Q463.7344,238.0469 463.7344,239.0781 L463.7344,240.1719 Q463.7344,241.4063 464.625,242.2266 Q465.5156,243.0469 467.1094,243.0469 Q468.0469,243.0469 468.7031,242.7969 Q469.0938,242.6406 469.5156,242.2031 Q469.7813,241.9375 469.9297,241.8594 Q470.0781,241.7813 470.2813,241.7813 Q470.6094,241.7813 470.8672,242.0391 Q471.125,242.2969 471.125,242.6406 Q471.125,242.9844 470.7813,243.3906 Q470.2813,243.9688 469.4844,244.2969 Q468.4063,244.75 467.1094,244.75 Q465.5938,244.75 464.3906,244.125 Q463.4063,243.625 462.7188,242.5547 Q462.0313,241.4844 462.0313,240.2031 L462.0313,239.0469 Q462.0313,237.7188 462.6484,236.5703 Q463.2656,235.4219 464.3594,234.8047 Q465.4531,234.1875 466.6875,234.1875 Q467.4219,234.1875 468.0703,234.3516 Q468.7188,234.5156 469.2656,234.875 Z " fill="#000000"/><text fill="#000000" font-family="sans-serif" font-size="14" lengthAdjust="spacing" textLength="112.8545" x="480.5" y="244.7285">GuaranteeSection</text><line style="stroke:#181818;stroke-width:0.5;" x1="452.5" x2="595.3545" y1="255" y2="255"/><line style="stroke:#181818;stroke-width:0.5;" x1="452.5" x2="595.3545" y1="263" y2="263"/></g><!--reverse link SwanItem to Assertion--><g class="link" data-entity-1="SwanItem" data-entity-2="Assertion" data-source-line="1" data-uid="lnk4" id="link_SwanItem_Assertion"><path codeLine="1" d="M54,181 C54,198.66 54,204.94 54,222.68" fill="none" id="SwanItem-backto-Assertion" style="stroke:#181818;stroke-width:1;"/><polygon fill="none" points="54,163,48,181,60,181,54,163" style="stroke:#181818;stroke-width:1;"/></g><!--reverse link ScopeSection to AssertionBase--><g class="link" data-entity-1="ScopeSection" data-entity-2="AssertionBase" data-source-line="2" data-uid="lnk7" id="link_ScopeSection_AssertionBase"><path codeLine="2" d="M274,73 C274,90.66 274,96.94 274,114.68" fill="none" id="ScopeSection-backto-AssertionBase" style="stroke:#181818;stroke-width:1;"/><polygon fill="none" points="274,55,268,73,280,73,274,55" style="stroke:#181818;stroke-width:1;"/></g><!--reverse link AssertionBase to AssertSection--><g class="link" data-entity-1="AssertionBase" data-entity-2="AssertSection" data-source-line="3" data-uid="lnk9" id="link_AssertionBase_AssertSection"><path codeLine="3" d="M245.4934,177.3042 C232.0034,194.9642 224.38,204.94 210.82,222.68" fill="none" id="AssertionBase-backto-AssertSection" style="stroke:#181818;stroke-width:1;"/><polygon fill="none" points="256.42,163,240.7254,173.662,250.2615,180.9464,256.42,163" style="stroke:#181818;stroke-width:1;"/></g><!--reverse link AssertionBase to AssumeSection--><g class="link" data-entity-1="AssertionBase" data-entity-2="AssumeSection" data-source-line="4" data-uid="lnk11" id="link_AssertionBase_AssumeSection"><path codeLine="4" d="M301.5909,177.496 C314.5909,195.156 321.79,204.94 334.84,222.68" fill="none" id="AssertionBase-backto-AssumeSection" style="stroke:#181818;stroke-width:1;"/><polygon fill="none" points="290.92,163,296.7589,181.0529,306.4228,173.939,290.92,163" style="stroke:#181818;stroke-width:1;"/></g><!--reverse link AssertionBase to GuaranteeSection--><g class="link" data-entity-1="AssertionBase" data-entity-2="GuaranteeSection" data-source-line="5" data-uid="lnk13" id="link_AssertionBase_GuaranteeSection"><path codeLine="5" d="M344.8218,170.0268 C386.6118,187.7468 427.56,205.11 469.43,222.86" fill="none" id="AssertionBase-backto-GuaranteeSection" style="stroke:#181818;stroke-width:1;"/><polygon fill="none" points="328.25,163,342.4795,175.5508,347.164,164.5029,328.25,163" style="stroke:#181818;stroke-width:1;"/></g><!--reverse link AssertionBase to Assertion--><g class="link" data-entity-1="AssertionBase" data-entity-2="Assertion" data-source-line="6" data-uid="lnk14" id="link_AssertionBase_Assertion"><path codeLine="6" d="M215.4502,168.2103 C177.6702,186.4203 136.08,206.45 99.02,224.31" fill="none" id="AssertionBase-backto-Assertion" style="stroke:#181818;stroke-width:1;"/><polygon fill="#181818" points="226.26,163,219.1183,162.0019,215.4502,168.2103,222.5919,169.2084,226.26,163" style="stroke:#181818;stroke-width:1;"/></g><!--SRC=[2ovFpFCiISrLiAdHrLLmB2vEBIh9pC_Z2axEBqWDJaq6ST3ad1ABKxbGUCWAe7fmA2ZDJSMZmBqqiIWnhoGLXnejP5S00000]--></g></svg>