<svg xmlns="http://www.w3.org/2000/svg" xmlns:xlink="http://www.w3.org/1999/xlink" contentStyleType="text/css" height="477px" preserveAspectRatio="none" style="width:528px;height:477px;background:#FFFFFF;" version="1.1" viewBox="0 0 528 477" width="528px" zoomAndPan="magnify"><defs/><g><!--class OperatorExpression--><g id="elem_OperatorExpression"><rect fill="#F1F1F1" height="48" id="OperatorExpression" rx="2.5" ry="2.5" style="stroke:#181818;stroke-width:0.5;" width="156.5029" x="7" y="215"/><ellipse cx="22" cy="231" fill="#ADD1B2" rx="11" ry="11" style="stroke:#181818;stroke-width:1.0;"/><path d="M24.7656,226.875 Q24.9219,226.6563 25.1094,226.5469 Q25.2969,226.4375 25.5156,226.4375 Q25.8906,226.4375 26.125,226.6953 Q26.3594,226.9531 26.3594,227.5625 L26.3594,229.0156 Q26.3594,229.625 26.125,229.8906 Q25.8906,230.1563 25.5156,230.1563 Q25.1719,230.1563 24.9688,229.9531 Q24.7656,229.7656 24.6563,229.25 Q24.6094,228.8906 24.4219,228.7031 Q24.0938,228.3281 23.4844,228.1094 Q22.875,227.8906 22.25,227.8906 Q21.4844,227.8906 20.8516,228.2188 Q20.2188,228.5469 19.7266,229.2969 Q19.2344,230.0469 19.2344,231.0781 L19.2344,232.1719 Q19.2344,233.4063 20.125,234.2266 Q21.0156,235.0469 22.6094,235.0469 Q23.5469,235.0469 24.2031,234.7969 Q24.5938,234.6406 25.0156,234.2031 Q25.2813,233.9375 25.4297,233.8594 Q25.5781,233.7813 25.7813,233.7813 Q26.1094,233.7813 26.3672,234.0391 Q26.625,234.2969 26.625,234.6406 Q26.625,234.9844 26.2813,235.3906 Q25.7813,235.9688 24.9844,236.2969 Q23.9063,236.75 22.6094,236.75 Q21.0938,236.75 19.8906,236.125 Q18.9063,235.625 18.2188,234.5547 Q17.5313,233.4844 17.5313,232.2031 L17.5313,231.0469 Q17.5313,229.7188 18.1484,228.5703 Q18.7656,227.4219 19.8594,226.8047 Q20.9531,226.1875 22.1875,226.1875 Q22.9219,226.1875 23.5703,226.3516 Q24.2188,226.5156 24.7656,226.875 Z " fill="#000000"/><text fill="#000000" font-family="sans-serif" font-size="14" lengthAdjust="spacing" textLength="124.5029" x="36" y="236.7285">OperatorExpression</text><line style="stroke:#181818;stroke-width:0.5;" x1="8" x2="162.5029" y1="247" y2="247"/><line style="stroke:#181818;stroke-width:0.5;" x1="8" x2="162.5029" y1="255" y2="255"/></g><polygon fill="none" points="163.5029,239,183.5029,232,183.5029,246" style="stroke:#181818;stroke-width:1.0;"/><line style="stroke:#181818;stroke-width:1.0;" x1="183.5029" x2="185.5" y1="239" y2="239"/><!--class Iterator--><g id="elem_Iterator"><rect fill="#F1F1F1" height="48" id="Iterator" rx="2.5" ry="2.5" style="stroke:#181818;stroke-width:0.5;" width="76.3516" x="344.5" y="7"/><ellipse cx="359.5" cy="23" fill="#ADD1B2" rx="11" ry="11" style="stroke:#181818;stroke-width:1.0;"/><path d="M362.2656,18.875 Q362.4219,18.6563 362.6094,18.5469 Q362.7969,18.4375 363.0156,18.4375 Q363.3906,18.4375 363.625,18.6953 Q363.8594,18.9531 363.8594,19.5625 L363.8594,21.0156 Q363.8594,21.625 363.625,21.8906 Q363.3906,22.1563 363.0156,22.1563 Q362.6719,22.1563 362.4688,21.9531 Q362.2656,21.7656 362.1563,21.25 Q362.1094,20.8906 361.9219,20.7031 Q361.5938,20.3281 360.9844,20.1094 Q360.375,19.8906 359.75,19.8906 Q358.9844,19.8906 358.3516,20.2188 Q357.7188,20.5469 357.2266,21.2969 Q356.7344,22.0469 356.7344,23.0781 L356.7344,24.1719 Q356.7344,25.4063 357.625,26.2266 Q358.5156,27.0469 360.1094,27.0469 Q361.0469,27.0469 361.7031,26.7969 Q362.0938,26.6406 362.5156,26.2031 Q362.7813,25.9375 362.9297,25.8594 Q363.0781,25.7813 363.2813,25.7813 Q363.6094,25.7813 363.8672,26.0391 Q364.125,26.2969 364.125,26.6406 Q364.125,26.9844 363.7813,27.3906 Q363.2813,27.9688 362.4844,28.2969 Q361.4063,28.75 360.1094,28.75 Q358.5938,28.75 357.3906,28.125 Q356.4063,27.625 355.7188,26.5547 Q355.0313,25.4844 355.0313,24.2031 L355.0313,23.0469 Q355.0313,21.7188 355.6484,20.5703 Q356.2656,19.4219 357.3594,18.8047 Q358.4531,18.1875 359.6875,18.1875 Q360.4219,18.1875 361.0703,18.3516 Q361.7188,18.5156 362.2656,18.875 Z " fill="#000000"/><text fill="#000000" font-family="sans-serif" font-size="14" lengthAdjust="spacing" textLength="44.3516" x="373.5" y="28.7285">Iterator</text><line style="stroke:#181818;stroke-width:0.5;" x1="345.5" x2="419.8516" y1="39" y2="39"/><line style="stroke:#181818;stroke-width:0.5;" x1="345.5" x2="419.8516" y1="47" y2="47"/></g><!--class ActivateEvery--><g id="elem_ActivateEvery"><rect fill="#F1F1F1" height="48" id="ActivateEvery" rx="2.5" ry="2.5" style="stroke:#181818;stroke-width:0.5;" width="117.5859" x="323.5" y="90"/><ellipse cx="338.5" cy="106" fill="#ADD1B2" rx="11" ry="11" style="stroke:#181818;stroke-width:1.0;"/><path d="M341.2656,101.875 Q341.4219,101.6563 341.6094,101.5469 Q341.7969,101.4375 342.0156,101.4375 Q342.3906,101.4375 342.625,101.6953 Q342.8594,101.9531 342.8594,102.5625 L342.8594,104.0156 Q342.8594,104.625 342.625,104.8906 Q342.3906,105.1563 342.0156,105.1563 Q341.6719,105.1563 341.4688,104.9531 Q341.2656,104.7656 341.1563,104.25 Q341.1094,103.8906 340.9219,103.7031 Q340.5938,103.3281 339.9844,103.1094 Q339.375,102.8906 338.75,102.8906 Q337.9844,102.8906 337.3516,103.2188 Q336.7188,103.5469 336.2266,104.2969 Q335.7344,105.0469 335.7344,106.0781 L335.7344,107.1719 Q335.7344,108.4063 336.625,109.2266 Q337.5156,110.0469 339.1094,110.0469 Q340.0469,110.0469 340.7031,109.7969 Q341.0938,109.6406 341.5156,109.2031 Q341.7813,108.9375 341.9297,108.8594 Q342.0781,108.7813 342.2813,108.7813 Q342.6094,108.7813 342.8672,109.0391 Q343.125,109.2969 343.125,109.6406 Q343.125,109.9844 342.7813,110.3906 Q342.2813,110.9688 341.4844,111.2969 Q340.4063,111.75 339.1094,111.75 Q337.5938,111.75 336.3906,111.125 Q335.4063,110.625 334.7188,109.5547 Q334.0313,108.4844 334.0313,107.2031 L334.0313,106.0469 Q334.0313,104.7188 334.6484,103.5703 Q335.2656,102.4219 336.3594,101.8047 Q337.4531,101.1875 338.6875,101.1875 Q339.4219,101.1875 340.0703,101.3516 Q340.7188,101.5156 341.2656,101.875 Z " fill="#000000"/><text fill="#000000" font-family="sans-serif" font-size="14" lengthAdjust="spacing" textLength="85.5859" x="352.5" y="111.7285">ActivateEvery</text><line style="stroke:#181818;stroke-width:0.5;" x1="324.5" x2="440.0859" y1="122" y2="122"/><line style="stroke:#181818;stroke-width:0.5;" x1="324.5" x2="440.0859" y1="130" y2="130"/></g><!--class Restart--><g id="elem_Restart"><rect fill="#F1F1F1" height="48" id="Restart" rx="2.5" ry="2.5" style="stroke:#181818;stroke-width:0.5;" width="77.124" x="344" y="173"/><ellipse cx="359" cy="189" fill="#ADD1B2" rx="11" ry="11" style="stroke:#181818;stroke-width:1.0;"/><path d="M361.7656,184.875 Q361.9219,184.6563 362.1094,184.5469 Q362.2969,184.4375 362.5156,184.4375 Q362.8906,184.4375 363.125,184.6953 Q363.3594,184.9531 363.3594,185.5625 L363.3594,187.0156 Q363.3594,187.625 363.125,187.8906 Q362.8906,188.1563 362.5156,188.1563 Q362.1719,188.1563 361.9688,187.9531 Q361.7656,187.7656 361.6563,187.25 Q361.6094,186.8906 361.4219,186.7031 Q361.0938,186.3281 360.4844,186.1094 Q359.875,185.8906 359.25,185.8906 Q358.4844,185.8906 357.8516,186.2188 Q357.2188,186.5469 356.7266,187.2969 Q356.2344,188.0469 356.2344,189.0781 L356.2344,190.1719 Q356.2344,191.4063 357.125,192.2266 Q358.0156,193.0469 359.6094,193.0469 Q360.5469,193.0469 361.2031,192.7969 Q361.5938,192.6406 362.0156,192.2031 Q362.2813,191.9375 362.4297,191.8594 Q362.5781,191.7813 362.7813,191.7813 Q363.1094,191.7813 363.3672,192.0391 Q363.625,192.2969 363.625,192.6406 Q363.625,192.9844 363.2813,193.3906 Q362.7813,193.9688 361.9844,194.2969 Q360.9063,194.75 359.6094,194.75 Q358.0938,194.75 356.8906,194.125 Q355.9063,193.625 355.2188,192.5547 Q354.5313,191.4844 354.5313,190.2031 L354.5313,189.0469 Q354.5313,187.7188 355.1484,186.5703 Q355.7656,185.4219 356.8594,184.8047 Q357.9531,184.1875 359.1875,184.1875 Q359.9219,184.1875 360.5703,184.3516 Q361.2188,184.5156 361.7656,184.875 Z " fill="#000000"/><text fill="#000000" font-family="sans-serif" font-size="14" lengthAdjust="spacing" textLength="45.124" x="373" y="194.7285">Restart</text><line style="stroke:#181818;stroke-width:0.5;" x1="345" x2="420.124" y1="205" y2="205"/><line style="stroke:#181818;stroke-width:0.5;" x1="345" x2="420.124" y1="213" y2="213"/></g><!--class NaryOperator--><g id="elem_NaryOperator"><rect fill="#F1F1F1" height="48" id="NaryOperator" rx="2.5" ry="2.5" style="stroke:#181818;stroke-width:0.5;" width="116.8066" x="324" y="256"/><ellipse cx="339" cy="272" fill="#ADD1B2" rx="11" ry="11" style="stroke:#181818;stroke-width:1.0;"/><path d="M341.7656,267.875 Q341.9219,267.6563 342.1094,267.5469 Q342.2969,267.4375 342.5156,267.4375 Q342.8906,267.4375 343.125,267.6953 Q343.3594,267.9531 343.3594,268.5625 L343.3594,270.0156 Q343.3594,270.625 343.125,270.8906 Q342.8906,271.1563 342.5156,271.1563 Q342.1719,271.1563 341.9688,270.9531 Q341.7656,270.7656 341.6563,270.25 Q341.6094,269.8906 341.4219,269.7031 Q341.0938,269.3281 340.4844,269.1094 Q339.875,268.8906 339.25,268.8906 Q338.4844,268.8906 337.8516,269.2188 Q337.2188,269.5469 336.7266,270.2969 Q336.2344,271.0469 336.2344,272.0781 L336.2344,273.1719 Q336.2344,274.4063 337.125,275.2266 Q338.0156,276.0469 339.6094,276.0469 Q340.5469,276.0469 341.2031,275.7969 Q341.5938,275.6406 342.0156,275.2031 Q342.2813,274.9375 342.4297,274.8594 Q342.5781,274.7813 342.7813,274.7813 Q343.1094,274.7813 343.3672,275.0391 Q343.625,275.2969 343.625,275.6406 Q343.625,275.9844 343.2813,276.3906 Q342.7813,276.9688 341.9844,277.2969 Q340.9063,277.75 339.6094,277.75 Q338.0938,277.75 336.8906,277.125 Q335.9063,276.625 335.2188,275.5547 Q334.5313,274.4844 334.5313,273.2031 L334.5313,272.0469 Q334.5313,270.7188 335.1484,269.5703 Q335.7656,268.4219 336.8594,267.8047 Q337.9531,267.1875 339.1875,267.1875 Q339.9219,267.1875 340.5703,267.3516 Q341.2188,267.5156 341.7656,267.875 Z " fill="#000000"/><text fill="#000000" font-family="sans-serif" font-size="14" lengthAdjust="spacing" textLength="84.8066" x="353" y="277.7285">NaryOperator</text><line style="stroke:#181818;stroke-width:0.5;" x1="325" x2="439.8066" y1="288" y2="288"/><line style="stroke:#181818;stroke-width:0.5;" x1="325" x2="439.8066" y1="296" y2="296"/></g><!--class AnonymousOperatorWithExpression--><g id="elem_AnonymousOperatorWithExpression"><rect fill="#F1F1F1" height="48" id="AnonymousOperatorWithExpression" rx="2.5" ry="2.5" style="stroke:#181818;stroke-width:0.5;" width="258.4336" x="253.5" y="339"/><ellipse cx="268.5" cy="355" fill="#ADD1B2" rx="11" ry="11" style="stroke:#181818;stroke-width:1.0;"/><path d="M271.2656,350.875 Q271.4219,350.6563 271.6094,350.5469 Q271.7969,350.4375 272.0156,350.4375 Q272.3906,350.4375 272.625,350.6953 Q272.8594,350.9531 272.8594,351.5625 L272.8594,353.0156 Q272.8594,353.625 272.625,353.8906 Q272.3906,354.1563 272.0156,354.1563 Q271.6719,354.1563 271.4688,353.9531 Q271.2656,353.7656 271.1563,353.25 Q271.1094,352.8906 270.9219,352.7031 Q270.5938,352.3281 269.9844,352.1094 Q269.375,351.8906 268.75,351.8906 Q267.9844,351.8906 267.3516,352.2188 Q266.7188,352.5469 266.2266,353.2969 Q265.7344,354.0469 265.7344,355.0781 L265.7344,356.1719 Q265.7344,357.4063 266.625,358.2266 Q267.5156,359.0469 269.1094,359.0469 Q270.0469,359.0469 270.7031,358.7969 Q271.0938,358.6406 271.5156,358.2031 Q271.7813,357.9375 271.9297,357.8594 Q272.0781,357.7813 272.2813,357.7813 Q272.6094,357.7813 272.8672,358.0391 Q273.125,358.2969 273.125,358.6406 Q273.125,358.9844 272.7813,359.3906 Q272.2813,359.9688 271.4844,360.2969 Q270.4063,360.75 269.1094,360.75 Q267.5938,360.75 266.3906,360.125 Q265.4063,359.625 264.7188,358.5547 Q264.0313,357.4844 264.0313,356.2031 L264.0313,355.0469 Q264.0313,353.7188 264.6484,352.5703 Q265.2656,351.4219 266.3594,350.8047 Q267.4531,350.1875 268.6875,350.1875 Q269.4219,350.1875 270.0703,350.3516 Q270.7188,350.5156 271.2656,350.875 Z " fill="#000000"/><text fill="#000000" font-family="sans-serif" font-size="14" lengthAdjust="spacing" textLength="226.4336" x="282.5" y="360.7285">AnonymousOperatorWithExpression</text><line style="stroke:#181818;stroke-width:0.5;" x1="254.5" x2="510.9336" y1="371" y2="371"/><line style="stroke:#181818;stroke-width:0.5;" x1="254.5" x2="510.9336" y1="379" y2="379"/></g><!--class AnonymousOperatorWithDataDefinition--><g id="elem_AnonymousOperatorWithDataDefinition"><rect fill="#F1F1F1" height="48" id="AnonymousOperatorWithDataDefinition" rx="2.5" ry="2.5" style="stroke:#181818;stroke-width:0.5;" width="277.1162" x="244" y="422"/><ellipse cx="259" cy="438" fill="#ADD1B2" rx="11" ry="11" style="stroke:#181818;stroke-width:1.0;"/><path d="M261.7656,433.875 Q261.9219,433.6563 262.1094,433.5469 Q262.2969,433.4375 262.5156,433.4375 Q262.8906,433.4375 263.125,433.6953 Q263.3594,433.9531 263.3594,434.5625 L263.3594,436.0156 Q263.3594,436.625 263.125,436.8906 Q262.8906,437.1563 262.5156,437.1563 Q262.1719,437.1563 261.9688,436.9531 Q261.7656,436.7656 261.6563,436.25 Q261.6094,435.8906 261.4219,435.7031 Q261.0938,435.3281 260.4844,435.1094 Q259.875,434.8906 259.25,434.8906 Q258.4844,434.8906 257.8516,435.2188 Q257.2188,435.5469 256.7266,436.2969 Q256.2344,437.0469 256.2344,438.0781 L256.2344,439.1719 Q256.2344,440.4063 257.125,441.2266 Q258.0156,442.0469 259.6094,442.0469 Q260.5469,442.0469 261.2031,441.7969 Q261.5938,441.6406 262.0156,441.2031 Q262.2813,440.9375 262.4297,440.8594 Q262.5781,440.7813 262.7813,440.7813 Q263.1094,440.7813 263.3672,441.0391 Q263.625,441.2969 263.625,441.6406 Q263.625,441.9844 263.2813,442.3906 Q262.7813,442.9688 261.9844,443.2969 Q260.9063,443.75 259.6094,443.75 Q258.0938,443.75 256.8906,443.125 Q255.9063,442.625 255.2188,441.5547 Q254.5313,440.4844 254.5313,439.2031 L254.5313,438.0469 Q254.5313,436.7188 255.1484,435.5703 Q255.7656,434.4219 256.8594,433.8047 Q257.9531,433.1875 259.1875,433.1875 Q259.9219,433.1875 260.5703,433.3516 Q261.2188,433.5156 261.7656,433.875 Z " fill="#000000"/><text fill="#000000" font-family="sans-serif" font-size="14" lengthAdjust="spacing" textLength="245.1162" x="273" y="443.7285">AnonymousOperatorWithDataDefinition</text><line style="stroke:#181818;stroke-width:0.5;" x1="245" x2="520.1162" y1="454" y2="454"/><line style="stroke:#181818;stroke-width:0.5;" x1="245" x2="520.1162" y1="462" y2="462"/></g><!--reverse link OperatorExpression to Iterator--><g id="link_OperatorExpression_Iterator"><path codeLine="5" d="M185.5,239 C185.5,239 187.09,126.28 244,72 C271.04,46.21 313.6,36.57 344.21,33 " fill="none" id="OperatorExpression-backto-Iterator" style="stroke:#181818;stroke-width:1.0;"/></g><!--reverse link OperatorExpression to ActivateEvery--><g id="link_OperatorExpression_ActivateEvery"><path codeLine="6" d="M185.5,239 C185.5,239 207.14,181.66 244,155 C267.21,138.21 297.32,128.23 323.44,122.33 " fill="none" id="OperatorExpression-backto-ActivateEvery" style="stroke:#181818;stroke-width:1.0;"/></g><!--reverse link OperatorExpression to Restart--><g id="link_OperatorExpression_Restart"><path codeLine="7" d="M185.5,239 C185.5,239 286.75,217.3 343.71,205.1 " fill="none" id="OperatorExpression-backto-Restart" style="stroke:#181818;stroke-width:1.0;"/></g><!--reverse link OperatorExpression to NaryOperator--><g id="link_OperatorExpression_NaryOperator"><path codeLine="8" d="M185.5,239 C185.5,239 265.94,255.83 323.75,267.92 " fill="none" id="OperatorExpression-backto-NaryOperator" style="stroke:#181818;stroke-width:1.0;"/></g><!--reverse link OperatorExpression to AnonymousOperatorWithExpression--><g id="link_OperatorExpression_AnonymousOperatorWithExpression"><path codeLine="9" d="M185.5,239 C185.5,239 207.66,294.85 244,321 C253.83,328.07 264.86,333.97 276.3,338.89 " fill="none" id="OperatorExpression-backto-AnonymousOperatorWithExpression" style="stroke:#181818;stroke-width:1.0;"/></g><!--reverse link OperatorExpression to AnonymousOperatorWithDataDefinition--><g id="link_OperatorExpression_AnonymousOperatorWithDataDefinition"><path codeLine="10" d="M185.5,239 C185.5,239 187.78,350.21 244,404 C251.39,411.07 259.95,416.96 269.1,421.86 " fill="none" id="OperatorExpression-backto-AnonymousOperatorWithDataDefinition" style="stroke:#181818;stroke-width:1.0;"/></g><!--SRC=[bP0n2y9038Nt-nNPdBeukmZjq4N1nJcqQHlKvCYbnO8_taCfJZUullTzBv0TJ3nEP9LQJnRkD3YuWkNGeMUZpbabf1jBHCC7ZAPpR2Khx2WTmJw4SoH3LskUqIYbBC3XLLNG-ZSl0iUylg1Jiv2jHUf2oT6ys9_GrgqhdnALzQ5pse0h-_I3_lDgTAnfOE7FTzu0]--></g></svg>