<svg xmlns="http://www.w3.org/2000/svg" xmlns:xlink="http://www.w3.org/1999/xlink" contentStyleType="text/css" height="420px" preserveAspectRatio="none" style="width:567px;height:420px;background:#FFFFFF;" version="1.1" viewBox="0 0 567 420" width="567px" zoomAndPan="magnify"><defs/><g><!--class ScadeOne--><g id="elem_ScadeOne"><rect fill="#F1F1F1" height="48" id="ScadeOne" rx="2.5" ry="2.5" style="stroke:#181818;stroke-width:0.5;" width="98.1582" x="179" y="11.5"/><ellipse cx="194" cy="27.5" fill="#ADD1B2" rx="11" ry="11" style="stroke:#181818;stroke-width:1.0;"/><path d="M196.7656,23.375 Q196.9219,23.1563 197.1094,23.0469 Q197.2969,22.9375 197.5156,22.9375 Q197.8906,22.9375 198.125,23.1953 Q198.3594,23.4531 198.3594,24.0625 L198.3594,25.5156 Q198.3594,26.125 198.125,26.3906 Q197.8906,26.6563 197.5156,26.6563 Q197.1719,26.6563 196.9688,26.4531 Q196.7656,26.2656 196.6563,25.75 Q196.6094,25.3906 196.4219,25.2031 Q196.0938,24.8281 195.4844,24.6094 Q194.875,24.3906 194.25,24.3906 Q193.4844,24.3906 192.8516,24.7188 Q192.2188,25.0469 191.7266,25.7969 Q191.2344,26.5469 191.2344,27.5781 L191.2344,28.6719 Q191.2344,29.9063 192.125,30.7266 Q193.0156,31.5469 194.6094,31.5469 Q195.5469,31.5469 196.2031,31.2969 Q196.5938,31.1406 197.0156,30.7031 Q197.2813,30.4375 197.4297,30.3594 Q197.5781,30.2813 197.7813,30.2813 Q198.1094,30.2813 198.3672,30.5391 Q198.625,30.7969 198.625,31.1406 Q198.625,31.4844 198.2813,31.8906 Q197.7813,32.4688 196.9844,32.7969 Q195.9063,33.25 194.6094,33.25 Q193.0938,33.25 191.8906,32.625 Q190.9063,32.125 190.2188,31.0547 Q189.5313,29.9844 189.5313,28.7031 L189.5313,27.5469 Q189.5313,26.2188 190.1484,25.0703 Q190.7656,23.9219 191.8594,23.3047 Q192.9531,22.6875 194.1875,22.6875 Q194.9219,22.6875 195.5703,22.8516 Q196.2188,23.0156 196.7656,23.375 Z " fill="#000000"/><text fill="#000000" font-family="sans-serif" font-size="14" lengthAdjust="spacing" textLength="66.1582" x="208" y="33.2285">ScadeOne</text><line style="stroke:#181818;stroke-width:0.5;" x1="180" x2="276.1582" y1="43.5" y2="43.5"/><line style="stroke:#181818;stroke-width:0.5;" x1="180" x2="276.1582" y1="51.5" y2="51.5"/></g><!--class Project--><g id="elem_Project"><rect fill="#F1F1F1" height="48" id="Project" rx="2.5" ry="2.5" style="stroke:#181818;stroke-width:0.5;" width="75.5723" x="298" y="139.5"/><ellipse cx="313" cy="155.5" fill="#ADD1B2" rx="11" ry="11" style="stroke:#181818;stroke-width:1.0;"/><path d="M315.7656,151.375 Q315.9219,151.1563 316.1094,151.0469 Q316.2969,150.9375 316.5156,150.9375 Q316.8906,150.9375 317.125,151.1953 Q317.3594,151.4531 317.3594,152.0625 L317.3594,153.5156 Q317.3594,154.125 317.125,154.3906 Q316.8906,154.6563 316.5156,154.6563 Q316.1719,154.6563 315.9688,154.4531 Q315.7656,154.2656 315.6563,153.75 Q315.6094,153.3906 315.4219,153.2031 Q315.0938,152.8281 314.4844,152.6094 Q313.875,152.3906 313.25,152.3906 Q312.4844,152.3906 311.8516,152.7188 Q311.2188,153.0469 310.7266,153.7969 Q310.2344,154.5469 310.2344,155.5781 L310.2344,156.6719 Q310.2344,157.9063 311.125,158.7266 Q312.0156,159.5469 313.6094,159.5469 Q314.5469,159.5469 315.2031,159.2969 Q315.5938,159.1406 316.0156,158.7031 Q316.2813,158.4375 316.4297,158.3594 Q316.5781,158.2813 316.7813,158.2813 Q317.1094,158.2813 317.3672,158.5391 Q317.625,158.7969 317.625,159.1406 Q317.625,159.4844 317.2813,159.8906 Q316.7813,160.4688 315.9844,160.7969 Q314.9063,161.25 313.6094,161.25 Q312.0938,161.25 310.8906,160.625 Q309.9063,160.125 309.2188,159.0547 Q308.5313,157.9844 308.5313,156.7031 L308.5313,155.5469 Q308.5313,154.2188 309.1484,153.0703 Q309.7656,151.9219 310.8594,151.3047 Q311.9531,150.6875 313.1875,150.6875 Q313.9219,150.6875 314.5703,150.8516 Q315.2188,151.0156 315.7656,151.375 Z " fill="#000000"/><text fill="#000000" font-family="sans-serif" font-size="14" lengthAdjust="spacing" textLength="43.5723" x="327" y="161.2285">Project</text><line style="stroke:#181818;stroke-width:0.5;" x1="299" x2="372.5723" y1="171.5" y2="171.5"/><line style="stroke:#181818;stroke-width:0.5;" x1="299" x2="372.5723" y1="179.5" y2="179.5"/></g><g id="elem_GMN5"><path d="M6,22.5 L6,48.8516 A0,0 0 0 0 6,48.8516 L144.0762,48.8516 A0,0 0 0 0 144.0762,48.8516 L144.0762,40.5 L178.8,35.5 L144.0762,32.5 L144.0762,32.5 L134.0762,22.5 L6,22.5 A0,0 0 0 0 6,22.5 " fill="#FEFFDD" style="stroke:#181818;stroke-width:0.5;"/><path d="M134.0762,22.5 L134.0762,32.5 L144.0762,32.5 L134.0762,22.5 " fill="#FEFFDD" style="stroke:#181818;stroke-width:0.5;"/><text fill="#000000" font-family="sans-serif" font-size="13" lengthAdjust="spacing" textLength="117.0762" x="12" y="40.9951">Scade One instance</text></g><g id="elem_GMN8"><path d="M312,6 L312,65.0547 A0,0 0 0 0 312,65.0547 L376.84,65.0547 L346.59,139.49 L384.84,65.0547 L476.4063,65.0547 A0,0 0 0 0 476.4063,65.0547 L476.4063,16 L466.4063,6 L312,6 A0,0 0 0 0 312,6 " fill="#FEFFDD" style="stroke:#181818;stroke-width:0.5;"/><path d="M466.4063,6 L466.4063,16 L476.4063,16 L466.4063,6 " fill="#FEFFDD" style="stroke:#181818;stroke-width:0.5;"/><text fill="#000000" font-family="sans-serif" font-size="13" lengthAdjust="spacing" textLength="90.3525" x="318" y="24.4951">Loaded/created</text><a href="/api/project.html" target="_top" title="/api/project.html" xlink:actuate="onRequest" xlink:href="/api/project.html" xlink:show="new" xlink:title="/api/project.html" xlink:type="simple"><text fill="#0000FF" font-family="sans-serif" font-size="13" lengthAdjust="spacing" text-decoration="underline" textLength="40.46" x="411.9644" y="24.4951">Project</text></a><text fill="#000000" font-family="sans-serif" font-size="13" lengthAdjust="spacing" textLength="8.9819" x="452.4243" y="24.4951">'s</text><text fill="#000000" font-family="sans-serif" font-size="13" lengthAdjust="spacing" textLength="135.1226" x="318" y="40.8467">The Model is the owner</text><text fill="#000000" font-family="sans-serif" font-size="13" lengthAdjust="spacing" textLength="83.0972" x="318" y="57.1982">of the Projects</text></g><!--class Model--><g id="elem_Model"><rect fill="#F1F1F1" height="48" id="Model" rx="2.5" ry="2.5" style="stroke:#181818;stroke-width:0.5;" width="70.1309" x="193" y="139.5"/><ellipse cx="208" cy="155.5" fill="#ADD1B2" rx="11" ry="11" style="stroke:#181818;stroke-width:1.0;"/><path d="M210.7656,151.375 Q210.9219,151.1563 211.1094,151.0469 Q211.2969,150.9375 211.5156,150.9375 Q211.8906,150.9375 212.125,151.1953 Q212.3594,151.4531 212.3594,152.0625 L212.3594,153.5156 Q212.3594,154.125 212.125,154.3906 Q211.8906,154.6563 211.5156,154.6563 Q211.1719,154.6563 210.9688,154.4531 Q210.7656,154.2656 210.6563,153.75 Q210.6094,153.3906 210.4219,153.2031 Q210.0938,152.8281 209.4844,152.6094 Q208.875,152.3906 208.25,152.3906 Q207.4844,152.3906 206.8516,152.7188 Q206.2188,153.0469 205.7266,153.7969 Q205.2344,154.5469 205.2344,155.5781 L205.2344,156.6719 Q205.2344,157.9063 206.125,158.7266 Q207.0156,159.5469 208.6094,159.5469 Q209.5469,159.5469 210.2031,159.2969 Q210.5938,159.1406 211.0156,158.7031 Q211.2813,158.4375 211.4297,158.3594 Q211.5781,158.2813 211.7813,158.2813 Q212.1094,158.2813 212.3672,158.5391 Q212.625,158.7969 212.625,159.1406 Q212.625,159.4844 212.2813,159.8906 Q211.7813,160.4688 210.9844,160.7969 Q209.9063,161.25 208.6094,161.25 Q207.0938,161.25 205.8906,160.625 Q204.9063,160.125 204.2188,159.0547 Q203.5313,157.9844 203.5313,156.7031 L203.5313,155.5469 Q203.5313,154.2188 204.1484,153.0703 Q204.7656,151.9219 205.8594,151.3047 Q206.9531,150.6875 208.1875,150.6875 Q208.9219,150.6875 209.5703,150.8516 Q210.2188,151.0156 210.7656,151.375 Z " fill="#000000"/><text fill="#000000" font-family="sans-serif" font-size="14" lengthAdjust="spacing" textLength="38.1309" x="222" y="161.2285">Model</text><line style="stroke:#181818;stroke-width:0.5;" x1="194" x2="262.1309" y1="171.5" y2="171.5"/><line style="stroke:#181818;stroke-width:0.5;" x1="194" x2="262.1309" y1="179.5" y2="179.5"/></g><g id="elem_GMN14"><path d="M30.5,126 L30.5,201.4063 A0,0 0 0 0 30.5,201.4063 L157.7344,201.4063 A0,0 0 0 0 157.7344,201.4063 L157.7344,167.5 L192.8,163.5 L157.7344,159.5 L157.7344,136 L147.7344,126 L30.5,126 A0,0 0 0 0 30.5,126 " fill="#FEFFDD" style="stroke:#181818;stroke-width:0.5;"/><path d="M147.7344,126 L147.7344,136 L157.7344,136 L147.7344,126 " fill="#FEFFDD" style="stroke:#181818;stroke-width:0.5;"/><text fill="#000000" font-family="sans-serif" font-size="13" lengthAdjust="spacing" textLength="22.4009" x="36.5" y="144.4951">The</text><a href="/api/model.html" target="_top" title="/api/model.html" xlink:actuate="onRequest" xlink:href="/api/model.html" xlink:show="new" xlink:title="/api/model.html" xlink:type="simple"><text fill="#0000FF" font-family="sans-serif" font-size="13" lengthAdjust="spacing" text-decoration="underline" textLength="35.4072" x="62.5127" y="144.4951">Model</text></a><text fill="#000000" font-family="sans-serif" font-size="13" lengthAdjust="spacing" textLength="34.6899" x="101.5317" y="144.4951">object</text><text fill="#000000" font-family="sans-serif" font-size="13" lengthAdjust="spacing" textLength="106.2344" x="36.5" y="160.8467">contains the Swan</text><text fill="#000000" font-family="sans-serif" font-size="13" lengthAdjust="spacing" textLength="85.2744" x="36.5" y="177.1982">modules of the</text><text fill="#000000" font-family="sans-serif" font-size="13" lengthAdjust="spacing" textLength="45.519" x="36.5" y="193.5498">projects</text></g><!--class ModuleBody--><g id="elem_ModuleBody"><rect fill="#F1F1F1" height="48" id="ModuleBody" rx="2.5" ry="2.5" style="stroke:#181818;stroke-width:0.5;" width="109.8271" x="81" y="262"/><ellipse cx="96" cy="278" fill="#ADD1B2" rx="11" ry="11" style="stroke:#181818;stroke-width:1.0;"/><path d="M98.7656,273.875 Q98.9219,273.6563 99.1094,273.5469 Q99.2969,273.4375 99.5156,273.4375 Q99.8906,273.4375 100.125,273.6953 Q100.3594,273.9531 100.3594,274.5625 L100.3594,276.0156 Q100.3594,276.625 100.125,276.8906 Q99.8906,277.1563 99.5156,277.1563 Q99.1719,277.1563 98.9688,276.9531 Q98.7656,276.7656 98.6563,276.25 Q98.6094,275.8906 98.4219,275.7031 Q98.0938,275.3281 97.4844,275.1094 Q96.875,274.8906 96.25,274.8906 Q95.4844,274.8906 94.8516,275.2188 Q94.2188,275.5469 93.7266,276.2969 Q93.2344,277.0469 93.2344,278.0781 L93.2344,279.1719 Q93.2344,280.4063 94.125,281.2266 Q95.0156,282.0469 96.6094,282.0469 Q97.5469,282.0469 98.2031,281.7969 Q98.5938,281.6406 99.0156,281.2031 Q99.2813,280.9375 99.4297,280.8594 Q99.5781,280.7813 99.7813,280.7813 Q100.1094,280.7813 100.3672,281.0391 Q100.625,281.2969 100.625,281.6406 Q100.625,281.9844 100.2813,282.3906 Q99.7813,282.9688 98.9844,283.2969 Q97.9063,283.75 96.6094,283.75 Q95.0938,283.75 93.8906,283.125 Q92.9063,282.625 92.2188,281.5547 Q91.5313,280.4844 91.5313,279.2031 L91.5313,278.0469 Q91.5313,276.7188 92.1484,275.5703 Q92.7656,274.4219 93.8594,273.8047 Q94.9531,273.1875 96.1875,273.1875 Q96.9219,273.1875 97.5703,273.3516 Q98.2188,273.5156 98.7656,273.875 Z " fill="#000000"/><text fill="#000000" font-family="sans-serif" font-size="14" lengthAdjust="spacing" textLength="77.8271" x="110" y="283.7285">ModuleBody</text><line style="stroke:#181818;stroke-width:0.5;" x1="82" x2="189.8271" y1="294" y2="294"/><line style="stroke:#181818;stroke-width:0.5;" x1="82" x2="189.8271" y1="302" y2="302"/></g><!--class ModuleInterface--><g id="elem_ModuleInterface"><rect fill="#F1F1F1" height="48" id="ModuleInterface" rx="2.5" ry="2.5" style="stroke:#181818;stroke-width:0.5;" width="132.3926" x="226" y="262"/><ellipse cx="241" cy="278" fill="#ADD1B2" rx="11" ry="11" style="stroke:#181818;stroke-width:1.0;"/><path d="M243.7656,273.875 Q243.9219,273.6563 244.1094,273.5469 Q244.2969,273.4375 244.5156,273.4375 Q244.8906,273.4375 245.125,273.6953 Q245.3594,273.9531 245.3594,274.5625 L245.3594,276.0156 Q245.3594,276.625 245.125,276.8906 Q244.8906,277.1563 244.5156,277.1563 Q244.1719,277.1563 243.9688,276.9531 Q243.7656,276.7656 243.6563,276.25 Q243.6094,275.8906 243.4219,275.7031 Q243.0938,275.3281 242.4844,275.1094 Q241.875,274.8906 241.25,274.8906 Q240.4844,274.8906 239.8516,275.2188 Q239.2188,275.5469 238.7266,276.2969 Q238.2344,277.0469 238.2344,278.0781 L238.2344,279.1719 Q238.2344,280.4063 239.125,281.2266 Q240.0156,282.0469 241.6094,282.0469 Q242.5469,282.0469 243.2031,281.7969 Q243.5938,281.6406 244.0156,281.2031 Q244.2813,280.9375 244.4297,280.8594 Q244.5781,280.7813 244.7813,280.7813 Q245.1094,280.7813 245.3672,281.0391 Q245.625,281.2969 245.625,281.6406 Q245.625,281.9844 245.2813,282.3906 Q244.7813,282.9688 243.9844,283.2969 Q242.9063,283.75 241.6094,283.75 Q240.0938,283.75 238.8906,283.125 Q237.9063,282.625 237.2188,281.5547 Q236.5313,280.4844 236.5313,279.2031 L236.5313,278.0469 Q236.5313,276.7188 237.1484,275.5703 Q237.7656,274.4219 238.8594,273.8047 Q239.9531,273.1875 241.1875,273.1875 Q241.9219,273.1875 242.5703,273.3516 Q243.2188,273.5156 243.7656,273.875 Z " fill="#000000"/><text fill="#000000" font-family="sans-serif" font-size="14" lengthAdjust="spacing" textLength="100.3926" x="255" y="283.7285">ModuleInterface</text><line style="stroke:#181818;stroke-width:0.5;" x1="227" x2="357.3926" y1="294" y2="294"/><line style="stroke:#181818;stroke-width:0.5;" x1="227" x2="357.3926" y1="302" y2="302"/></g><g id="elem_ModuleNote"><path d="M91,371 L91,413.7031 L334.5742,413.7031 L334.5742,381 L324.5742,371 L91,371 " fill="#FEFFDD" style="stroke:#181818;stroke-width:0.5;"/><path d="M324.5742,371 L324.5742,381 L334.5742,381 L324.5742,371 " fill="#FEFFDD" style="stroke:#181818;stroke-width:1.0;"/><text fill="#000000" font-family="sans-serif" font-size="13" lengthAdjust="spacing" textLength="222.5742" x="97" y="389.4951">Module body and interface classes are</text><text fill="#000000" font-family="sans-serif" font-size="13" lengthAdjust="spacing" textLength="91.7808" x="97" y="405.8467">described in the</text><a href="/api/language" target="_top" title="/api/language" xlink:actuate="onRequest" xlink:href="/api/language" xlink:show="new" xlink:title="/api/language" xlink:type="simple"><text fill="#0000FF" font-family="sans-serif" font-size="13" lengthAdjust="spacing" text-decoration="underline" textLength="77.3208" x="192.3926" y="405.8467">Swan section</text></a></g><!--reverse link ScadeOne to Project--><g id="link_ScadeOne_Project"><path codeLine="5" d="M255.6188,68.7216 C274.9788,91.3116 296.5,116.42 315.95,139.11 " fill="none" id="ScadeOne-backto-Project" style="stroke:#181818;stroke-width:1.0;"/><polygon fill="#181818" points="247.81,59.61,248.6772,66.7688,255.6188,68.7216,254.7516,61.5629,247.81,59.61" style="stroke:#181818;stroke-width:1.0;"/><text fill="#000000" font-family="sans-serif" font-size="13" lengthAdjust="spacing" textLength="7.23" x="244.7943" y="80.9748">1</text><text fill="#000000" font-family="sans-serif" font-size="13" lengthAdjust="spacing" textLength="5.0591" x="305.5128" y="128.7529">*</text></g><!--link Project to Project--><g id="link_Project_Project"><path codeLine="16" d="M374.31,151.06 C392.73,149.53 409,153.67 409,163.5 C409,173.33 398.7094,177.9667 380.2894,176.4367 " fill="none" id="Project-to-Project" style="stroke:#181818;stroke-width:1.0;"/><polygon fill="#181818" points="374.31,175.94,382.948,180.6713,379.2928,176.3539,383.6102,172.6987,374.31,175.94" style="stroke:#181818;stroke-width:1.0;"/><path d="M414,150.5 L414,176.5 L560,176.5 L560,160.5 L550,150.5 L414,150.5 " fill="#FEFFDD" style="stroke:#181818;stroke-width:0.5;"/><path d="M550,150.5 L550,160.5 L560,160.5 L550,150.5 " fill="#FEFFDD" style="stroke:#181818;stroke-width:0.5;"/><text fill="#000000" font-family="sans-serif" font-size="13" lengthAdjust="spacing" textLength="125.0298" x="420" y="168.9951">Project dependencies</text><text fill="#000000" font-family="sans-serif" font-size="13" lengthAdjust="spacing" textLength="5.0591" x="381.6226" y="174.2573">*</text></g><!--reverse link ScadeOne to Model--><g id="link_ScadeOne_Model"><path codeLine="21" d="M228,71.61 C228,94.2 228,116.42 228,139.11 " fill="none" id="ScadeOne-backto-Model" style="stroke:#181818;stroke-width:1.0;"/><polygon fill="#181818" points="228,59.61,224,65.61,228,71.61,232,65.61,228,59.61" style="stroke:#181818;stroke-width:1.0;"/></g><!--link Model to Project--><g id="link_Model_Project"><path codeLine="29" d="M263.02,163.5 C274.61,163.5 286.2,163.5 297.8,163.5 " fill="none" id="Model-Project" style="stroke:#181818;stroke-width:1.0;"/></g><!--reverse link Model to ModuleBody--><g id="link_Model_ModuleBody"><path codeLine="31" d="M202.9787,197.2685 C186.6887,218.6085 169.96,240.52 153.68,261.84 " fill="none" id="Model-backto-ModuleBody" style="stroke:#181818;stroke-width:1.0;"/><polygon fill="#181818" points="210.26,187.73,203.4399,190.0722,202.9787,197.2685,209.7989,194.9263,210.26,187.73" style="stroke:#181818;stroke-width:1.0;"/><text fill="#000000" font-family="sans-serif" font-size="13" lengthAdjust="spacing" textLength="7.23" x="198.0948" y="209.124">1</text><text fill="#000000" font-family="sans-serif" font-size="13" lengthAdjust="spacing" textLength="5.0591" x="152.5996" y="251.1392">*</text></g><!--reverse link Model to ModuleInterface--><g id="link_Model_ModuleInterface"><path codeLine="32" d="M245.9672,198.3288 C257.2972,219.6688 268.38,240.52 279.7,261.84 " fill="none" id="Model-backto-ModuleInterface" style="stroke:#181818;stroke-width:1.0;"/><polygon fill="#181818" points="240.34,187.73,239.6207,194.9051,245.9672,198.3288,246.6865,191.1537,240.34,187.73" style="stroke:#181818;stroke-width:1.0;"/><text fill="#000000" font-family="sans-serif" font-size="13" lengthAdjust="spacing" textLength="7.23" x="235.5068" y="209.124">1</text><text fill="#000000" font-family="sans-serif" font-size="13" lengthAdjust="spacing" textLength="5.0591" x="270.8648" y="251.1392">*</text></g><!--link ModuleBody to ModuleNote--><g id="link_ModuleBody_ModuleNote"><path codeLine="39" d="M153.09,310.19 C166.47,328.35 184.91,353.38 197.78,370.85 " fill="none" id="ModuleBody-ModuleNote" style="stroke:#181818;stroke-width:1.0;stroke-dasharray:7.0,7.0;"/></g><!--link ModuleInterface to ModuleNote--><g id="link_ModuleInterface_ModuleNote"><path codeLine="40" d="M274.47,310.19 C260.74,328.35 241.82,353.38 228.61,370.85 " fill="none" id="ModuleInterface-ModuleNote" style="stroke:#181818;stroke-width:1.0;stroke-dasharray:7.0,7.0;"/></g><!--SRC=[TL7BRi8m4BpxArQv8265g3_GGs-LIbk9tb0EYxs0MxEER0FgtzUl921Kd-pTcPsPzG8s4XLzC86zaBjekefufcBprC2oRQ5PDl3fx3V980JRG61e7y3k9txXG29fzW5PaY1MaC2L4koG6EESDni9gfEEC922xRR3GNT3wQwEuMH6QDyllFWw4goj8WFQGuWFUsLo8WvCZuhqisQjGDi-tzdFLfm-7ADz1gFvPu8g6YATM6gw6JHl8sqYMxXVGIabVpN3AHLAWjphUx2xB2uj1upxoPutLsGHiMT37ceECJm4cPCamT61ABku_Q1r7lLYrU-_pLSEvFOenoz1NnllIQbSOHSd04PvFQ916lG-kaH7Gf6NJkyezRFdcjeW7yvuABd0HyVQSj_V19aDmchrA3oPk-_-0G00]--></g></svg>