<svg xmlns="http://www.w3.org/2000/svg" xmlns:xlink="http://www.w3.org/1999/xlink" contentStyleType="text/css" height="492px" preserveAspectRatio="none" style="width:631px;height:492px;background:#FFFFFF;" version="1.1" viewBox="0 0 631 492" width="631px" zoomAndPan="magnify"><defs/><g><!--class ScadeOne--><g id="elem_ScadeOne"><rect fill="#F1F1F1" height="48" id="ScadeOne" rx="2.5" ry="2.5" style="stroke:#181818;stroke-width:0.5;" width="98.1582" x="221.5" y="7"/><ellipse cx="236.5" cy="23" fill="#ADD1B2" rx="11" ry="11" style="stroke:#181818;stroke-width:1.0;"/><path d="M239.2656,18.875 Q239.4219,18.6563 239.6094,18.5469 Q239.7969,18.4375 240.0156,18.4375 Q240.3906,18.4375 240.625,18.7031 Q240.8594,18.9531 240.8594,19.5625 L240.8594,21.0156 Q240.8594,21.625 240.625,21.8906 Q240.3906,22.1563 240.0156,22.1563 Q239.6719,22.1563 239.4688,21.9531 Q239.2656,21.7656 239.1563,21.25 Q239.1094,20.8906 238.9219,20.7031 Q238.5938,20.3281 237.9844,20.1094 Q237.375,19.8906 236.75,19.8906 Q235.9844,19.8906 235.3438,20.2188 Q234.7188,20.5469 234.2188,21.2969 Q233.7344,22.0469 233.7344,23.0781 L233.7344,24.1719 Q233.7344,25.4063 234.625,26.2344 Q235.5156,27.0469 237.1094,27.0469 Q238.0469,27.0469 238.7031,26.7969 Q239.0938,26.6406 239.5156,26.2031 Q239.7813,25.9375 239.9219,25.8594 Q240.0781,25.7813 240.2813,25.7813 Q240.6094,25.7813 240.8594,26.0469 Q241.125,26.2969 241.125,26.6406 Q241.125,26.9844 240.7813,27.3906 Q240.2813,27.9688 239.4844,28.2969 Q238.4063,28.75 237.1094,28.75 Q235.5938,28.75 234.3906,28.125 Q233.4063,27.625 232.7188,26.5625 Q232.0313,25.4844 232.0313,24.2031 L232.0313,23.0469 Q232.0313,21.7188 232.6406,20.5781 Q233.2656,19.4219 234.3594,18.8125 Q235.4531,18.1875 236.6875,18.1875 Q237.4219,18.1875 238.0625,18.3594 Q238.7188,18.5156 239.2656,18.875 Z " fill="#000000"/><text fill="#000000" font-family="sans-serif" font-size="14" lengthAdjust="spacing" textLength="66.1582" x="250.5" y="28.7285">ScadeOne</text><line style="stroke:#181818;stroke-width:0.5;" x1="222.5" x2="318.6582" y1="39" y2="39"/><line style="stroke:#181818;stroke-width:0.5;" x1="222.5" x2="318.6582" y1="47" y2="47"/></g><!--class Project--><g id="elem_Project"><rect fill="#F1F1F1" height="48" id="Project" rx="2.5" ry="2.5" style="stroke:#181818;stroke-width:0.5;" width="75.5723" x="232.5" y="116"/><ellipse cx="247.5" cy="132" fill="#ADD1B2" rx="11" ry="11" style="stroke:#181818;stroke-width:1.0;"/><path d="M250.2656,127.875 Q250.4219,127.6563 250.6094,127.5469 Q250.7969,127.4375 251.0156,127.4375 Q251.3906,127.4375 251.625,127.7031 Q251.8594,127.9531 251.8594,128.5625 L251.8594,130.0156 Q251.8594,130.625 251.625,130.8906 Q251.3906,131.1563 251.0156,131.1563 Q250.6719,131.1563 250.4688,130.9531 Q250.2656,130.7656 250.1563,130.25 Q250.1094,129.8906 249.9219,129.7031 Q249.5938,129.3281 248.9844,129.1094 Q248.375,128.8906 247.75,128.8906 Q246.9844,128.8906 246.3438,129.2188 Q245.7188,129.5469 245.2188,130.2969 Q244.7344,131.0469 244.7344,132.0781 L244.7344,133.1719 Q244.7344,134.4063 245.625,135.2344 Q246.5156,136.0469 248.1094,136.0469 Q249.0469,136.0469 249.7031,135.7969 Q250.0938,135.6406 250.5156,135.2031 Q250.7813,134.9375 250.9219,134.8594 Q251.0781,134.7813 251.2813,134.7813 Q251.6094,134.7813 251.8594,135.0469 Q252.125,135.2969 252.125,135.6406 Q252.125,135.9844 251.7813,136.3906 Q251.2813,136.9688 250.4844,137.2969 Q249.4063,137.75 248.1094,137.75 Q246.5938,137.75 245.3906,137.125 Q244.4063,136.625 243.7188,135.5625 Q243.0313,134.4844 243.0313,133.2031 L243.0313,132.0469 Q243.0313,130.7188 243.6406,129.5781 Q244.2656,128.4219 245.3594,127.8125 Q246.4531,127.1875 247.6875,127.1875 Q248.4219,127.1875 249.0625,127.3594 Q249.7188,127.5156 250.2656,127.875 Z " fill="#000000"/><text fill="#000000" font-family="sans-serif" font-size="14" lengthAdjust="spacing" textLength="43.5723" x="261.5" y="137.7285">Project</text><line style="stroke:#181818;stroke-width:0.5;" x1="233.5" x2="307.0723" y1="148" y2="148"/><line style="stroke:#181818;stroke-width:0.5;" x1="233.5" x2="307.0723" y1="156" y2="156"/></g><g id="elem_GMN5"><path d="M48.5,18 L48.5,44.3516 A0,0 0 0 0 48.5,44.3516 L186.5762,44.3516 A0,0 0 0 0 186.5762,44.3516 L186.5762,36 L221.3,31 L186.5762,28 L186.5762,28 L176.5762,18 L48.5,18 A0,0 0 0 0 48.5,18 " fill="#FEFFDD" style="stroke:#181818;stroke-width:0.5;"/><path d="M176.5762,18 L176.5762,28 L186.5762,28 L176.5762,18 " fill="#FEFFDD" style="stroke:#181818;stroke-width:0.5;"/><text fill="#000000" font-family="sans-serif" font-size="13" lengthAdjust="spacing" textLength="117.0762" x="54.5" y="36.4951">Scade One instance</text></g><g id="elem_GMN8"><path d="M6,127 L6,153.3516 A0,0 0 0 0 6,153.3516 L196.8125,153.3516 A0,0 0 0 0 196.8125,153.3516 L196.8125,145 L232.43,140 L196.8125,137 L196.8125,137 L186.8125,127 L6,127 A0,0 0 0 0 6,127 " fill="#FEFFDD" style="stroke:#181818;stroke-width:0.5;"/><path d="M186.8125,127 L186.8125,137 L196.8125,137 L186.8125,127 " fill="#FEFFDD" style="stroke:#181818;stroke-width:0.5;"/><text fill="#000000" font-family="sans-serif" font-size="13" lengthAdjust="spacing" textLength="125.7407" x="12" y="145.4951">Loaded project(s) see</text><a href="/api/project.html" target="_top" title="/api/project.html" xlink:actuate="onRequest" xlink:href="/api/project.html" xlink:show="new" xlink:title="/api/project.html" xlink:type="simple"><text fill="#0000FF" font-family="sans-serif" font-size="13" lengthAdjust="spacing" text-decoration="underline" textLength="40.46" x="141.3525" y="145.4951">Project</text></a></g><!--class Model--><g id="elem_Model"><rect fill="#F1F1F1" height="48" id="Model" rx="2.5" ry="2.5" style="stroke:#181818;stroke-width:0.5;" width="70.1309" x="235.5" y="225"/><ellipse cx="250.5" cy="241" fill="#ADD1B2" rx="11" ry="11" style="stroke:#181818;stroke-width:1.0;"/><path d="M253.2656,236.875 Q253.4219,236.6563 253.6094,236.5469 Q253.7969,236.4375 254.0156,236.4375 Q254.3906,236.4375 254.625,236.7031 Q254.8594,236.9531 254.8594,237.5625 L254.8594,239.0156 Q254.8594,239.625 254.625,239.8906 Q254.3906,240.1563 254.0156,240.1563 Q253.6719,240.1563 253.4688,239.9531 Q253.2656,239.7656 253.1563,239.25 Q253.1094,238.8906 252.9219,238.7031 Q252.5938,238.3281 251.9844,238.1094 Q251.375,237.8906 250.75,237.8906 Q249.9844,237.8906 249.3438,238.2188 Q248.7188,238.5469 248.2188,239.2969 Q247.7344,240.0469 247.7344,241.0781 L247.7344,242.1719 Q247.7344,243.4063 248.625,244.2344 Q249.5156,245.0469 251.1094,245.0469 Q252.0469,245.0469 252.7031,244.7969 Q253.0938,244.6406 253.5156,244.2031 Q253.7813,243.9375 253.9219,243.8594 Q254.0781,243.7813 254.2813,243.7813 Q254.6094,243.7813 254.8594,244.0469 Q255.125,244.2969 255.125,244.6406 Q255.125,244.9844 254.7813,245.3906 Q254.2813,245.9688 253.4844,246.2969 Q252.4063,246.75 251.1094,246.75 Q249.5938,246.75 248.3906,246.125 Q247.4063,245.625 246.7188,244.5625 Q246.0313,243.4844 246.0313,242.2031 L246.0313,241.0469 Q246.0313,239.7188 246.6406,238.5781 Q247.2656,237.4219 248.3594,236.8125 Q249.4531,236.1875 250.6875,236.1875 Q251.4219,236.1875 252.0625,236.3594 Q252.7188,236.5156 253.2656,236.875 Z " fill="#000000"/><text fill="#000000" font-family="sans-serif" font-size="14" lengthAdjust="spacing" textLength="38.1309" x="264.5" y="246.7285">Model</text><line style="stroke:#181818;stroke-width:0.5;" x1="236.5" x2="304.6309" y1="257" y2="257"/><line style="stroke:#181818;stroke-width:0.5;" x1="236.5" x2="304.6309" y1="265" y2="265"/></g><g id="elem_GMN14"><path d="M340.5,227.5 L340.5,245 L305.7,249 L340.5,253 L340.5,270.2031 A0,0 0 0 0 340.5,270.2031 L624.5405,270.2031 A0,0 0 0 0 624.5405,270.2031 L624.5405,237.5 L614.5405,227.5 L340.5,227.5 A0,0 0 0 0 340.5,227.5 " fill="#FEFFDD" style="stroke:#181818;stroke-width:0.5;"/><path d="M614.5405,227.5 L614.5405,237.5 L624.5405,237.5 L614.5405,227.5 " fill="#FEFFDD" style="stroke:#181818;stroke-width:0.5;"/><text fill="#000000" font-family="sans-serif" font-size="13" lengthAdjust="spacing" textLength="8.6709" x="346.5" y="245.9951">A</text><a href="/api/model.html" target="_top" title="/api/model.html" xlink:actuate="onRequest" xlink:href="/api/model.html" xlink:show="new" xlink:title="/api/model.html" xlink:type="simple"><text fill="#0000FF" font-family="sans-serif" font-size="13" lengthAdjust="spacing" text-decoration="underline" textLength="35.4072" x="358.7827" y="245.9951">Model</text></a><text fill="#000000" font-family="sans-serif" font-size="13" lengthAdjust="spacing" textLength="211.7388" x="397.8018" y="245.9951">object contains the Swan modules of</text><text fill="#000000" font-family="sans-serif" font-size="13" lengthAdjust="spacing" textLength="64.3145" x="346.5" y="262.3467">the project.</text></g><!--class ModuleBody--><g id="elem_ModuleBody"><rect fill="#F1F1F1" height="48" id="ModuleBody" rx="2.5" ry="2.5" style="stroke:#181818;stroke-width:0.5;" width="109.8271" x="138.5" y="334"/><ellipse cx="153.5" cy="350" fill="#ADD1B2" rx="11" ry="11" style="stroke:#181818;stroke-width:1.0;"/><path d="M156.2656,345.875 Q156.4219,345.6563 156.6094,345.5469 Q156.7969,345.4375 157.0156,345.4375 Q157.3906,345.4375 157.625,345.7031 Q157.8594,345.9531 157.8594,346.5625 L157.8594,348.0156 Q157.8594,348.625 157.625,348.8906 Q157.3906,349.1563 157.0156,349.1563 Q156.6719,349.1563 156.4688,348.9531 Q156.2656,348.7656 156.1563,348.25 Q156.1094,347.8906 155.9219,347.7031 Q155.5938,347.3281 154.9844,347.1094 Q154.375,346.8906 153.75,346.8906 Q152.9844,346.8906 152.3438,347.2188 Q151.7188,347.5469 151.2188,348.2969 Q150.7344,349.0469 150.7344,350.0781 L150.7344,351.1719 Q150.7344,352.4063 151.625,353.2344 Q152.5156,354.0469 154.1094,354.0469 Q155.0469,354.0469 155.7031,353.7969 Q156.0938,353.6406 156.5156,353.2031 Q156.7813,352.9375 156.9219,352.8594 Q157.0781,352.7813 157.2813,352.7813 Q157.6094,352.7813 157.8594,353.0469 Q158.125,353.2969 158.125,353.6406 Q158.125,353.9844 157.7813,354.3906 Q157.2813,354.9688 156.4844,355.2969 Q155.4063,355.75 154.1094,355.75 Q152.5938,355.75 151.3906,355.125 Q150.4063,354.625 149.7188,353.5625 Q149.0313,352.4844 149.0313,351.2031 L149.0313,350.0469 Q149.0313,348.7188 149.6406,347.5781 Q150.2656,346.4219 151.3594,345.8125 Q152.4531,345.1875 153.6875,345.1875 Q154.4219,345.1875 155.0625,345.3594 Q155.7188,345.5156 156.2656,345.875 Z " fill="#000000"/><text fill="#000000" font-family="sans-serif" font-size="14" lengthAdjust="spacing" textLength="77.8271" x="167.5" y="355.7285">ModuleBody</text><line style="stroke:#181818;stroke-width:0.5;" x1="139.5" x2="247.3271" y1="366" y2="366"/><line style="stroke:#181818;stroke-width:0.5;" x1="139.5" x2="247.3271" y1="374" y2="374"/></g><!--class ModuleInterface--><g id="elem_ModuleInterface"><rect fill="#F1F1F1" height="48" id="ModuleInterface" rx="2.5" ry="2.5" style="stroke:#181818;stroke-width:0.5;" width="132.3926" x="283.5" y="334"/><ellipse cx="298.5" cy="350" fill="#ADD1B2" rx="11" ry="11" style="stroke:#181818;stroke-width:1.0;"/><path d="M301.2656,345.875 Q301.4219,345.6563 301.6094,345.5469 Q301.7969,345.4375 302.0156,345.4375 Q302.3906,345.4375 302.625,345.7031 Q302.8594,345.9531 302.8594,346.5625 L302.8594,348.0156 Q302.8594,348.625 302.625,348.8906 Q302.3906,349.1563 302.0156,349.1563 Q301.6719,349.1563 301.4688,348.9531 Q301.2656,348.7656 301.1563,348.25 Q301.1094,347.8906 300.9219,347.7031 Q300.5938,347.3281 299.9844,347.1094 Q299.375,346.8906 298.75,346.8906 Q297.9844,346.8906 297.3438,347.2188 Q296.7188,347.5469 296.2188,348.2969 Q295.7344,349.0469 295.7344,350.0781 L295.7344,351.1719 Q295.7344,352.4063 296.625,353.2344 Q297.5156,354.0469 299.1094,354.0469 Q300.0469,354.0469 300.7031,353.7969 Q301.0938,353.6406 301.5156,353.2031 Q301.7813,352.9375 301.9219,352.8594 Q302.0781,352.7813 302.2813,352.7813 Q302.6094,352.7813 302.8594,353.0469 Q303.125,353.2969 303.125,353.6406 Q303.125,353.9844 302.7813,354.3906 Q302.2813,354.9688 301.4844,355.2969 Q300.4063,355.75 299.1094,355.75 Q297.5938,355.75 296.3906,355.125 Q295.4063,354.625 294.7188,353.5625 Q294.0313,352.4844 294.0313,351.2031 L294.0313,350.0469 Q294.0313,348.7188 294.6406,347.5781 Q295.2656,346.4219 296.3594,345.8125 Q297.4531,345.1875 298.6875,345.1875 Q299.4219,345.1875 300.0625,345.3594 Q300.7188,345.5156 301.2656,345.875 Z " fill="#000000"/><text fill="#000000" font-family="sans-serif" font-size="14" lengthAdjust="spacing" textLength="100.3926" x="312.5" y="355.7285">ModuleInterface</text><line style="stroke:#181818;stroke-width:0.5;" x1="284.5" x2="414.8926" y1="366" y2="366"/><line style="stroke:#181818;stroke-width:0.5;" x1="284.5" x2="414.8926" y1="374" y2="374"/></g><g id="elem_ModuleNote"><path d="M148.5,443 L148.5,485.7031 L392.0742,485.7031 L392.0742,453 L382.0742,443 L148.5,443 " fill="#FEFFDD" style="stroke:#181818;stroke-width:0.5;"/><path d="M382.0742,443 L382.0742,453 L392.0742,453 L382.0742,443 " fill="#FEFFDD" style="stroke:#181818;stroke-width:1.0;"/><text fill="#000000" font-family="sans-serif" font-size="13" lengthAdjust="spacing" textLength="222.5742" x="154.5" y="461.4951">Module body and interface classes are</text><text fill="#000000" font-family="sans-serif" font-size="13" lengthAdjust="spacing" textLength="91.7808" x="154.5" y="477.8467">described in the</text><a href="/api/language" target="_top" title="/api/language" xlink:actuate="onRequest" xlink:href="/api/language" xlink:show="new" xlink:title="/api/language" xlink:type="simple"><text fill="#0000FF" font-family="sans-serif" font-size="13" lengthAdjust="spacing" text-decoration="underline" textLength="77.3208" x="249.8926" y="477.8467">Swan section</text></a></g><!--reverse link ScadeOne to Project--><g id="link_ScadeOne_Project"><path codeLine="3" d="M270.5,67.22 C270.5,85.16 270.5,97.89 270.5,115.83 " fill="none" id="ScadeOne-backto-Project" style="stroke:#181818;stroke-width:1.0;"/><polygon fill="#181818" points="270.5,55.22,266.5,61.22,270.5,67.22,274.5,61.22,270.5,55.22" style="stroke:#181818;stroke-width:1.0;"/><text fill="#000000" font-family="sans-serif" font-size="13" lengthAdjust="spacing" textLength="7.23" x="262.6556" y="76.6116">1</text><text fill="#000000" font-family="sans-serif" font-size="13" lengthAdjust="spacing" textLength="5.0591" x="264.9217" y="105.1266">*</text></g><!--link Project to Project--><g id="link_Project_Project"><path codeLine="12" d="M308.81,130.12 C327.23,128.9 343.5,132.2 343.5,140 C343.5,147.8 333.2169,151.4965 314.7969,150.2765 " fill="none" id="Project-to-Project" style="stroke:#181818;stroke-width:1.0;"/><polygon fill="#181818" points="308.81,149.88,317.526,154.466,313.7991,150.2104,318.0547,146.4835,308.81,149.88" style="stroke:#181818;stroke-width:1.0;"/><path d="M348.5,127 L348.5,153 L494.5,153 L494.5,137 L484.5,127 L348.5,127 " fill="#FEFFDD" style="stroke:#181818;stroke-width:0.5;"/><path d="M484.5,127 L484.5,137 L494.5,137 L484.5,127 " fill="#FEFFDD" style="stroke:#181818;stroke-width:0.5;"/><text fill="#000000" font-family="sans-serif" font-size="13" lengthAdjust="spacing" textLength="125.0298" x="354.5" y="145.4951">Project dependencies</text><text fill="#000000" font-family="sans-serif" font-size="13" lengthAdjust="spacing" textLength="5.0591" x="316.1226" y="147.7413">*</text></g><!--reverse link Project to Model--><g id="link_Project_Model"><path codeLine="17" d="M270.5,176.22 C270.5,194.16 270.5,206.89 270.5,224.83 " fill="none" id="Project-backto-Model" style="stroke:#181818;stroke-width:1.0;"/><polygon fill="#181818" points="270.5,164.22,266.5,170.22,270.5,176.22,274.5,170.22,270.5,164.22" style="stroke:#181818;stroke-width:1.0;"/></g><!--reverse link Model to ModuleBody--><g id="link_Model_ModuleBody"><path codeLine="23" d="M246.7808,282.9602 C233.8708,300.9002 223.08,315.89 210.18,333.83 " fill="none" id="Model-backto-ModuleBody" style="stroke:#181818;stroke-width:1.0;"/><polygon fill="#181818" points="253.79,273.22,247.0387,275.7537,246.7808,282.9602,253.5321,280.4265,253.79,273.22" style="stroke:#181818;stroke-width:1.0;"/><text fill="#000000" font-family="sans-serif" font-size="13" lengthAdjust="spacing" textLength="7.23" x="241.8759" y="294.6116">1</text><text fill="#000000" font-family="sans-serif" font-size="13" lengthAdjust="spacing" textLength="5.0591" x="208.8433" y="323.1266">*</text></g><!--reverse link Model to ModuleInterface--><g id="link_Model_ModuleInterface"><path codeLine="24" d="M294.7692,282.8727 C308.0192,300.8127 319.15,315.89 332.39,333.83 " fill="none" id="Model-backto-ModuleInterface" style="stroke:#181818;stroke-width:1.0;"/><polygon fill="#181818" points="287.64,273.22,287.987,280.4227,294.7692,282.8727,294.4222,275.6699,287.64,273.22" style="stroke:#181818;stroke-width:1.0;"/><text fill="#000000" font-family="sans-serif" font-size="13" lengthAdjust="spacing" textLength="7.23" x="283.9768" y="294.6116">1</text><text fill="#000000" font-family="sans-serif" font-size="13" lengthAdjust="spacing" textLength="5.0591" x="322.3222" y="323.1266">*</text></g><!--link ModuleBody to ModuleNote--><g id="link_ModuleBody_ModuleNote"><path codeLine="31" d="M210.59,382.19 C223.97,400.35 242.41,425.38 255.28,442.85 " fill="none" id="ModuleBody-ModuleNote" style="stroke:#181818;stroke-width:1.0;stroke-dasharray:7.0,7.0;"/></g><!--link ModuleInterface to ModuleNote--><g id="link_ModuleInterface_ModuleNote"><path codeLine="32" d="M331.97,382.19 C318.24,400.35 299.32,425.38 286.11,442.85 " fill="none" id="ModuleInterface-ModuleNote" style="stroke:#181818;stroke-width:1.0;stroke-dasharray:7.0,7.0;"/></g><!--SRC=[TL1BJiCm4Dtx5ADiW4f9nGMGO8T40QdBAWl7dYG6TnpPRYjkZ-t4QLB4pfutxpTti1TSuWSXc3FQiy8BO_EeU2nWKvPGR0hujEOBXMUCZ4VGs7emxSmUEH19Yfpd990XIOZBDvGiz6O2Gy8mVk_T0pX4E1osV53RQLhr_gWpewwlajC8ol9fbIuvMTNrmOf0A_gULoKEWOua5Bf5jWp7dZiZKQyqscdsd8CTutUCbP2w1jCa0M78yr0UV8-mlt22i7lIw88AYxFSQM6U95PdtYNEYv4__uAlvD6sNEJ3SZS1xr5pV48J58078vMtGMZkN8Z3BJA9JbZLOCHJuAcUvjITU3SLS26kChGyFBi6XAhwQpo7kq5_0G00]--></g></svg>