<svg xmlns="http://www.w3.org/2000/svg" xmlns:xlink="http://www.w3.org/1999/xlink" contentStyleType="text/css" height="190px" preserveAspectRatio="none" style="width:615px;height:190px;background:#FFFFFF;" version="1.1" viewBox="0 0 615 190" width="615px" zoomAndPan="magnify"><defs/><g><!--class Expression--><g id="elem_Expression"><rect fill="#F1F1F1" height="48" id="Expression" rx="2.5" ry="2.5" style="stroke:#181818;stroke-width:0.5;" width="101.2549" x="241.5" y="7"/><ellipse cx="256.5" cy="23" fill="#ADD1B2" rx="11" ry="11" style="stroke:#181818;stroke-width:1.0;"/><path d="M259.2656,18.875 Q259.4219,18.6563 259.6094,18.5469 Q259.7969,18.4375 260.0156,18.4375 Q260.3906,18.4375 260.625,18.6953 Q260.8594,18.9531 260.8594,19.5625 L260.8594,21.0156 Q260.8594,21.625 260.625,21.8906 Q260.3906,22.1563 260.0156,22.1563 Q259.6719,22.1563 259.4688,21.9531 Q259.2656,21.7656 259.1563,21.25 Q259.1094,20.8906 258.9219,20.7031 Q258.5938,20.3281 257.9844,20.1094 Q257.375,19.8906 256.75,19.8906 Q255.9844,19.8906 255.3516,20.2188 Q254.7188,20.5469 254.2266,21.2969 Q253.7344,22.0469 253.7344,23.0781 L253.7344,24.1719 Q253.7344,25.4063 254.625,26.2266 Q255.5156,27.0469 257.1094,27.0469 Q258.0469,27.0469 258.7031,26.7969 Q259.0938,26.6406 259.5156,26.2031 Q259.7813,25.9375 259.9297,25.8594 Q260.0781,25.7813 260.2813,25.7813 Q260.6094,25.7813 260.8672,26.0391 Q261.125,26.2969 261.125,26.6406 Q261.125,26.9844 260.7813,27.3906 Q260.2813,27.9688 259.4844,28.2969 Q258.4063,28.75 257.1094,28.75 Q255.5938,28.75 254.3906,28.125 Q253.4063,27.625 252.7188,26.5547 Q252.0313,25.4844 252.0313,24.2031 L252.0313,23.0469 Q252.0313,21.7188 252.6484,20.5703 Q253.2656,19.4219 254.3594,18.8047 Q255.4531,18.1875 256.6875,18.1875 Q257.4219,18.1875 258.0703,18.3516 Q258.7188,18.5156 259.2656,18.875 Z " fill="#000000"/><text fill="#000000" font-family="sans-serif" font-size="14" lengthAdjust="spacing" textLength="69.2549" x="270.5" y="28.7285">Expression</text><line style="stroke:#181818;stroke-width:0.5;" x1="242.5" x2="341.7549" y1="39" y2="39"/><line style="stroke:#181818;stroke-width:0.5;" x1="242.5" x2="341.7549" y1="47" y2="47"/></g><polygon fill="none" points="292.0595,55,299.0028,75.0197,285.0029,74.9801" style="stroke:#181818;stroke-width:1.0;"/><line style="stroke:#181818;stroke-width:1.0;" x1="292.0028" x2="292" y1="74.9999" y2="76"/><!--class Literal--><g id="elem_Literal"><rect fill="#F1F1F1" height="48" id="Literal" rx="2.5" ry="2.5" style="stroke:#181818;stroke-width:0.5;" width="70.1309" x="7" y="135"/><ellipse cx="22" cy="151" fill="#ADD1B2" rx="11" ry="11" style="stroke:#181818;stroke-width:1.0;"/><path d="M24.7656,146.875 Q24.9219,146.6563 25.1094,146.5469 Q25.2969,146.4375 25.5156,146.4375 Q25.8906,146.4375 26.125,146.6953 Q26.3594,146.9531 26.3594,147.5625 L26.3594,149.0156 Q26.3594,149.625 26.125,149.8906 Q25.8906,150.1563 25.5156,150.1563 Q25.1719,150.1563 24.9688,149.9531 Q24.7656,149.7656 24.6563,149.25 Q24.6094,148.8906 24.4219,148.7031 Q24.0938,148.3281 23.4844,148.1094 Q22.875,147.8906 22.25,147.8906 Q21.4844,147.8906 20.8516,148.2188 Q20.2188,148.5469 19.7266,149.2969 Q19.2344,150.0469 19.2344,151.0781 L19.2344,152.1719 Q19.2344,153.4063 20.125,154.2266 Q21.0156,155.0469 22.6094,155.0469 Q23.5469,155.0469 24.2031,154.7969 Q24.5938,154.6406 25.0156,154.2031 Q25.2813,153.9375 25.4297,153.8594 Q25.5781,153.7813 25.7813,153.7813 Q26.1094,153.7813 26.3672,154.0391 Q26.625,154.2969 26.625,154.6406 Q26.625,154.9844 26.2813,155.3906 Q25.7813,155.9688 24.9844,156.2969 Q23.9063,156.75 22.6094,156.75 Q21.0938,156.75 19.8906,156.125 Q18.9063,155.625 18.2188,154.5547 Q17.5313,153.4844 17.5313,152.2031 L17.5313,151.0469 Q17.5313,149.7188 18.1484,148.5703 Q18.7656,147.4219 19.8594,146.8047 Q20.9531,146.1875 22.1875,146.1875 Q22.9219,146.1875 23.5703,146.3516 Q24.2188,146.5156 24.7656,146.875 Z " fill="#000000"/><text fill="#000000" font-family="sans-serif" font-size="14" lengthAdjust="spacing" textLength="38.1309" x="36" y="156.7285">Literal</text><line style="stroke:#181818;stroke-width:0.5;" x1="8" x2="76.1309" y1="167" y2="167"/><line style="stroke:#181818;stroke-width:0.5;" x1="8" x2="76.1309" y1="175" y2="175"/></g><!--class PathIdExpr--><g id="elem_PathIdExpr"><rect fill="#F1F1F1" height="48" id="PathIdExpr" rx="2.5" ry="2.5" style="stroke:#181818;stroke-width:0.5;" width="101.2617" x="112.5" y="135"/><ellipse cx="127.5" cy="151" fill="#ADD1B2" rx="11" ry="11" style="stroke:#181818;stroke-width:1.0;"/><path d="M130.2656,146.875 Q130.4219,146.6563 130.6094,146.5469 Q130.7969,146.4375 131.0156,146.4375 Q131.3906,146.4375 131.625,146.6953 Q131.8594,146.9531 131.8594,147.5625 L131.8594,149.0156 Q131.8594,149.625 131.625,149.8906 Q131.3906,150.1563 131.0156,150.1563 Q130.6719,150.1563 130.4688,149.9531 Q130.2656,149.7656 130.1563,149.25 Q130.1094,148.8906 129.9219,148.7031 Q129.5938,148.3281 128.9844,148.1094 Q128.375,147.8906 127.75,147.8906 Q126.9844,147.8906 126.3516,148.2188 Q125.7188,148.5469 125.2266,149.2969 Q124.7344,150.0469 124.7344,151.0781 L124.7344,152.1719 Q124.7344,153.4063 125.625,154.2266 Q126.5156,155.0469 128.1094,155.0469 Q129.0469,155.0469 129.7031,154.7969 Q130.0938,154.6406 130.5156,154.2031 Q130.7813,153.9375 130.9297,153.8594 Q131.0781,153.7813 131.2813,153.7813 Q131.6094,153.7813 131.8672,154.0391 Q132.125,154.2969 132.125,154.6406 Q132.125,154.9844 131.7813,155.3906 Q131.2813,155.9688 130.4844,156.2969 Q129.4063,156.75 128.1094,156.75 Q126.5938,156.75 125.3906,156.125 Q124.4063,155.625 123.7188,154.5547 Q123.0313,153.4844 123.0313,152.2031 L123.0313,151.0469 Q123.0313,149.7188 123.6484,148.5703 Q124.2656,147.4219 125.3594,146.8047 Q126.4531,146.1875 127.6875,146.1875 Q128.4219,146.1875 129.0703,146.3516 Q129.7188,146.5156 130.2656,146.875 Z " fill="#000000"/><text fill="#000000" font-family="sans-serif" font-size="14" lengthAdjust="spacing" textLength="69.2617" x="141.5" y="156.7285">PathIdExpr</text><line style="stroke:#181818;stroke-width:0.5;" x1="113.5" x2="212.7617" y1="167" y2="167"/><line style="stroke:#181818;stroke-width:0.5;" x1="113.5" x2="212.7617" y1="175" y2="175"/></g><!--class LastExpr--><g id="elem_LastExpr"><rect fill="#F1F1F1" height="48" id="LastExpr" rx="2.5" ry="2.5" style="stroke:#181818;stroke-width:0.5;" width="87.248" x="248.5" y="135"/><ellipse cx="263.5" cy="151" fill="#ADD1B2" rx="11" ry="11" style="stroke:#181818;stroke-width:1.0;"/><path d="M266.2656,146.875 Q266.4219,146.6563 266.6094,146.5469 Q266.7969,146.4375 267.0156,146.4375 Q267.3906,146.4375 267.625,146.6953 Q267.8594,146.9531 267.8594,147.5625 L267.8594,149.0156 Q267.8594,149.625 267.625,149.8906 Q267.3906,150.1563 267.0156,150.1563 Q266.6719,150.1563 266.4688,149.9531 Q266.2656,149.7656 266.1563,149.25 Q266.1094,148.8906 265.9219,148.7031 Q265.5938,148.3281 264.9844,148.1094 Q264.375,147.8906 263.75,147.8906 Q262.9844,147.8906 262.3516,148.2188 Q261.7188,148.5469 261.2266,149.2969 Q260.7344,150.0469 260.7344,151.0781 L260.7344,152.1719 Q260.7344,153.4063 261.625,154.2266 Q262.5156,155.0469 264.1094,155.0469 Q265.0469,155.0469 265.7031,154.7969 Q266.0938,154.6406 266.5156,154.2031 Q266.7813,153.9375 266.9297,153.8594 Q267.0781,153.7813 267.2813,153.7813 Q267.6094,153.7813 267.8672,154.0391 Q268.125,154.2969 268.125,154.6406 Q268.125,154.9844 267.7813,155.3906 Q267.2813,155.9688 266.4844,156.2969 Q265.4063,156.75 264.1094,156.75 Q262.5938,156.75 261.3906,156.125 Q260.4063,155.625 259.7188,154.5547 Q259.0313,153.4844 259.0313,152.2031 L259.0313,151.0469 Q259.0313,149.7188 259.6484,148.5703 Q260.2656,147.4219 261.3594,146.8047 Q262.4531,146.1875 263.6875,146.1875 Q264.4219,146.1875 265.0703,146.3516 Q265.7188,146.5156 266.2656,146.875 Z " fill="#000000"/><text fill="#000000" font-family="sans-serif" font-size="14" lengthAdjust="spacing" textLength="55.248" x="277.5" y="156.7285">LastExpr</text><line style="stroke:#181818;stroke-width:0.5;" x1="249.5" x2="334.748" y1="167" y2="167"/><line style="stroke:#181818;stroke-width:0.5;" x1="249.5" x2="334.748" y1="175" y2="175"/></g><!--class LabelOrIndex--><g id="elem_LabelOrIndex"><rect fill="#F1F1F1" height="48" id="LabelOrIndex" rx="2.5" ry="2.5" style="stroke:#181818;stroke-width:0.5;" width="116.0547" x="371" y="135"/><ellipse cx="386" cy="151" fill="#ADD1B2" rx="11" ry="11" style="stroke:#181818;stroke-width:1.0;"/><path d="M388.7656,146.875 Q388.9219,146.6563 389.1094,146.5469 Q389.2969,146.4375 389.5156,146.4375 Q389.8906,146.4375 390.125,146.6953 Q390.3594,146.9531 390.3594,147.5625 L390.3594,149.0156 Q390.3594,149.625 390.125,149.8906 Q389.8906,150.1563 389.5156,150.1563 Q389.1719,150.1563 388.9688,149.9531 Q388.7656,149.7656 388.6563,149.25 Q388.6094,148.8906 388.4219,148.7031 Q388.0938,148.3281 387.4844,148.1094 Q386.875,147.8906 386.25,147.8906 Q385.4844,147.8906 384.8516,148.2188 Q384.2188,148.5469 383.7266,149.2969 Q383.2344,150.0469 383.2344,151.0781 L383.2344,152.1719 Q383.2344,153.4063 384.125,154.2266 Q385.0156,155.0469 386.6094,155.0469 Q387.5469,155.0469 388.2031,154.7969 Q388.5938,154.6406 389.0156,154.2031 Q389.2813,153.9375 389.4297,153.8594 Q389.5781,153.7813 389.7813,153.7813 Q390.1094,153.7813 390.3672,154.0391 Q390.625,154.2969 390.625,154.6406 Q390.625,154.9844 390.2813,155.3906 Q389.7813,155.9688 388.9844,156.2969 Q387.9063,156.75 386.6094,156.75 Q385.0938,156.75 383.8906,156.125 Q382.9063,155.625 382.2188,154.5547 Q381.5313,153.4844 381.5313,152.2031 L381.5313,151.0469 Q381.5313,149.7188 382.1484,148.5703 Q382.7656,147.4219 383.8594,146.8047 Q384.9531,146.1875 386.1875,146.1875 Q386.9219,146.1875 387.5703,146.3516 Q388.2188,146.5156 388.7656,146.875 Z " fill="#000000"/><text fill="#000000" font-family="sans-serif" font-size="14" lengthAdjust="spacing" textLength="84.0547" x="400" y="156.7285">LabelOrIndex</text><line style="stroke:#181818;stroke-width:0.5;" x1="372" x2="486.0547" y1="167" y2="167"/><line style="stroke:#181818;stroke-width:0.5;" x1="372" x2="486.0547" y1="175" y2="175"/></g><!--class PortExpr--><g id="elem_PortExpr"><rect fill="#F1F1F1" height="48" id="PortExpr" rx="2.5" ry="2.5" style="stroke:#181818;stroke-width:0.5;" width="86.4619" x="522" y="135"/><ellipse cx="537" cy="151" fill="#ADD1B2" rx="11" ry="11" style="stroke:#181818;stroke-width:1.0;"/><path d="M539.7656,146.875 Q539.9219,146.6563 540.1094,146.5469 Q540.2969,146.4375 540.5156,146.4375 Q540.8906,146.4375 541.125,146.6953 Q541.3594,146.9531 541.3594,147.5625 L541.3594,149.0156 Q541.3594,149.625 541.125,149.8906 Q540.8906,150.1563 540.5156,150.1563 Q540.1719,150.1563 539.9688,149.9531 Q539.7656,149.7656 539.6563,149.25 Q539.6094,148.8906 539.4219,148.7031 Q539.0938,148.3281 538.4844,148.1094 Q537.875,147.8906 537.25,147.8906 Q536.4844,147.8906 535.8516,148.2188 Q535.2188,148.5469 534.7266,149.2969 Q534.2344,150.0469 534.2344,151.0781 L534.2344,152.1719 Q534.2344,153.4063 535.125,154.2266 Q536.0156,155.0469 537.6094,155.0469 Q538.5469,155.0469 539.2031,154.7969 Q539.5938,154.6406 540.0156,154.2031 Q540.2813,153.9375 540.4297,153.8594 Q540.5781,153.7813 540.7813,153.7813 Q541.1094,153.7813 541.3672,154.0391 Q541.625,154.2969 541.625,154.6406 Q541.625,154.9844 541.2813,155.3906 Q540.7813,155.9688 539.9844,156.2969 Q538.9063,156.75 537.6094,156.75 Q536.0938,156.75 534.8906,156.125 Q533.9063,155.625 533.2188,154.5547 Q532.5313,153.4844 532.5313,152.2031 L532.5313,151.0469 Q532.5313,149.7188 533.1484,148.5703 Q533.7656,147.4219 534.8594,146.8047 Q535.9531,146.1875 537.1875,146.1875 Q537.9219,146.1875 538.5703,146.3516 Q539.2188,146.5156 539.7656,146.875 Z " fill="#000000"/><text fill="#000000" font-family="sans-serif" font-size="14" lengthAdjust="spacing" textLength="54.4619" x="551" y="156.7285">PortExpr</text><line style="stroke:#181818;stroke-width:0.5;" x1="523" x2="607.4619" y1="167" y2="167"/><line style="stroke:#181818;stroke-width:0.5;" x1="523" x2="607.4619" y1="175" y2="175"/></g><!--reverse link Expression to Literal--><g id="link_Expression_Literal"><path codeLine="4" d="M292,76 C292,76 180.85,103.64 95,135 C89.16,137.13 83.04,139.58 77.12,142.07 " fill="none" id="Expression-backto-Literal" style="stroke:#181818;stroke-width:1.0;"/></g><!--reverse link Expression to PathIdExpr--><g id="link_Expression_PathIdExpr"><path codeLine="5" d="M292,76 C292,76 237.43,110.69 199.28,134.94 " fill="none" id="Expression-backto-PathIdExpr" style="stroke:#181818;stroke-width:1.0;"/></g><!--reverse link Expression to LastExpr--><g id="link_Expression_LastExpr"><path codeLine="6" d="M292,76 C292,76 292,110.48 292,134.72 " fill="none" id="Expression-backto-LastExpr" style="stroke:#181818;stroke-width:1.0;"/></g><!--reverse link Expression to LabelOrIndex--><g id="link_Expression_LabelOrIndex"><path codeLine="7" d="M292,76 C292,76 349.95,110.69 390.47,134.94 " fill="none" id="Expression-backto-LabelOrIndex" style="stroke:#181818;stroke-width:1.0;"/></g><!--reverse link Expression to PortExpr--><g id="link_Expression_PortExpr"><path codeLine="8" d="M292,76 C292,76 411.7,104.27 505,135 C510.51,136.81 516.26,138.84 521.92,140.92 " fill="none" id="Expression-backto-PortExpr" style="stroke:#181818;stroke-width:1.0;"/></g><!--SRC=[VOmn3eD030HxNk6EYYPrMegJa98lE6052yu-sOv4aSSJ4YdLYIrtThO5rqo0ePb7eAqOkREAD_29Bom53JCyJLyboKp6WJ8IN9hlelyRS7rt7GmSPBXMsHrZJjFHrbNqE84FMc-MPAAjVgxsitS0]--></g></svg>