<svg xmlns="http://www.w3.org/2000/svg" xmlns:xlink="http://www.w3.org/1999/xlink" contentStyleType="text/css" height="579px" preserveAspectRatio="none" style="width:428px;height:579px;background:#FFFFFF;" version="1.1" viewBox="0 0 428 579" width="428px" zoomAndPan="magnify"><defs/><g><!--class LetSection--><g id="elem_LetSection"><rect fill="#F1F1F1" height="48" id="LetSection" rx="2.5" ry="2.5" style="stroke:#181818;stroke-width:0.5;" width="98.1582" x="224.5" y="7"/><ellipse cx="239.5" cy="23" fill="#ADD1B2" rx="11" ry="11" style="stroke:#181818;stroke-width:1.0;"/><path d="M242.2656,18.875 Q242.4219,18.6563 242.6094,18.5469 Q242.7969,18.4375 243.0156,18.4375 Q243.3906,18.4375 243.625,18.6953 Q243.8594,18.9531 243.8594,19.5625 L243.8594,21.0156 Q243.8594,21.625 243.625,21.8906 Q243.3906,22.1563 243.0156,22.1563 Q242.6719,22.1563 242.4688,21.9531 Q242.2656,21.7656 242.1563,21.25 Q242.1094,20.8906 241.9219,20.7031 Q241.5938,20.3281 240.9844,20.1094 Q240.375,19.8906 239.75,19.8906 Q238.9844,19.8906 238.3516,20.2188 Q237.7188,20.5469 237.2266,21.2969 Q236.7344,22.0469 236.7344,23.0781 L236.7344,24.1719 Q236.7344,25.4063 237.625,26.2266 Q238.5156,27.0469 240.1094,27.0469 Q241.0469,27.0469 241.7031,26.7969 Q242.0938,26.6406 242.5156,26.2031 Q242.7813,25.9375 242.9297,25.8594 Q243.0781,25.7813 243.2813,25.7813 Q243.6094,25.7813 243.8672,26.0391 Q244.125,26.2969 244.125,26.6406 Q244.125,26.9844 243.7813,27.3906 Q243.2813,27.9688 242.4844,28.2969 Q241.4063,28.75 240.1094,28.75 Q238.5938,28.75 237.3906,28.125 Q236.4063,27.625 235.7188,26.5547 Q235.0313,25.4844 235.0313,24.2031 L235.0313,23.0469 Q235.0313,21.7188 235.6484,20.5703 Q236.2656,19.4219 237.3594,18.8047 Q238.4531,18.1875 239.6875,18.1875 Q240.4219,18.1875 241.0703,18.3516 Q241.7188,18.5156 242.2656,18.875 Z " fill="#000000"/><text fill="#000000" font-family="sans-serif" font-size="14" lengthAdjust="spacing" textLength="66.1582" x="253.5" y="28.7285">LetSection</text><line style="stroke:#181818;stroke-width:0.5;" x1="225.5" x2="321.6582" y1="39" y2="39"/><line style="stroke:#181818;stroke-width:0.5;" x1="225.5" x2="321.6582" y1="47" y2="47"/></g><!--class Equation--><g id="elem_Equation"><rect fill="#F1F1F1" height="48" id="Equation" rx="2.5" ry="2.5" style="stroke:#181818;stroke-width:0.5;" width="87.2686" x="230" y="135"/><ellipse cx="245" cy="151" fill="#ADD1B2" rx="11" ry="11" style="stroke:#181818;stroke-width:1.0;"/><path d="M247.7656,146.875 Q247.9219,146.6563 248.1094,146.5469 Q248.2969,146.4375 248.5156,146.4375 Q248.8906,146.4375 249.125,146.6953 Q249.3594,146.9531 249.3594,147.5625 L249.3594,149.0156 Q249.3594,149.625 249.125,149.8906 Q248.8906,150.1563 248.5156,150.1563 Q248.1719,150.1563 247.9688,149.9531 Q247.7656,149.7656 247.6563,149.25 Q247.6094,148.8906 247.4219,148.7031 Q247.0938,148.3281 246.4844,148.1094 Q245.875,147.8906 245.25,147.8906 Q244.4844,147.8906 243.8516,148.2188 Q243.2188,148.5469 242.7266,149.2969 Q242.2344,150.0469 242.2344,151.0781 L242.2344,152.1719 Q242.2344,153.4063 243.125,154.2266 Q244.0156,155.0469 245.6094,155.0469 Q246.5469,155.0469 247.2031,154.7969 Q247.5938,154.6406 248.0156,154.2031 Q248.2813,153.9375 248.4297,153.8594 Q248.5781,153.7813 248.7813,153.7813 Q249.1094,153.7813 249.3672,154.0391 Q249.625,154.2969 249.625,154.6406 Q249.625,154.9844 249.2813,155.3906 Q248.7813,155.9688 247.9844,156.2969 Q246.9063,156.75 245.6094,156.75 Q244.0938,156.75 242.8906,156.125 Q241.9063,155.625 241.2188,154.5547 Q240.5313,153.4844 240.5313,152.2031 L240.5313,151.0469 Q240.5313,149.7188 241.1484,148.5703 Q241.7656,147.4219 242.8594,146.8047 Q243.9531,146.1875 245.1875,146.1875 Q245.9219,146.1875 246.5703,146.3516 Q247.2188,146.5156 247.7656,146.875 Z " fill="#000000"/><text fill="#000000" font-family="sans-serif" font-size="14" lengthAdjust="spacing" textLength="55.2686" x="259" y="156.7285">Equation</text><line style="stroke:#181818;stroke-width:0.5;" x1="231" x2="316.2686" y1="167" y2="167"/><line style="stroke:#181818;stroke-width:0.5;" x1="231" x2="316.2686" y1="175" y2="175"/></g><polygon fill="none" points="273.5627,183,280.503,203.0208,266.503,202.979" style="stroke:#181818;stroke-width:1.0;"/><line style="stroke:#181818;stroke-width:1.0;" x1="273.503" x2="273.5" y1="202.9999" y2="204"/><line style="stroke:#181818;stroke-width:1.0;" x1="273.5612" x2="273.5" y1="135" y2="114.9"/><!--class ExprEquation--><g id="elem_ExprEquation"><rect fill="#F1F1F1" height="48" id="ExprEquation" rx="2.5" ry="2.5" style="stroke:#181818;stroke-width:0.5;" width="116.0547" x="288.5" y="276.5"/><ellipse cx="303.5" cy="292.5" fill="#ADD1B2" rx="11" ry="11" style="stroke:#181818;stroke-width:1.0;"/><path d="M306.2656,288.375 Q306.4219,288.1563 306.6094,288.0469 Q306.7969,287.9375 307.0156,287.9375 Q307.3906,287.9375 307.625,288.1953 Q307.8594,288.4531 307.8594,289.0625 L307.8594,290.5156 Q307.8594,291.125 307.625,291.3906 Q307.3906,291.6563 307.0156,291.6563 Q306.6719,291.6563 306.4688,291.4531 Q306.2656,291.2656 306.1563,290.75 Q306.1094,290.3906 305.9219,290.2031 Q305.5938,289.8281 304.9844,289.6094 Q304.375,289.3906 303.75,289.3906 Q302.9844,289.3906 302.3516,289.7188 Q301.7188,290.0469 301.2266,290.7969 Q300.7344,291.5469 300.7344,292.5781 L300.7344,293.6719 Q300.7344,294.9063 301.625,295.7266 Q302.5156,296.5469 304.1094,296.5469 Q305.0469,296.5469 305.7031,296.2969 Q306.0938,296.1406 306.5156,295.7031 Q306.7813,295.4375 306.9297,295.3594 Q307.0781,295.2813 307.2813,295.2813 Q307.6094,295.2813 307.8672,295.5391 Q308.125,295.7969 308.125,296.1406 Q308.125,296.4844 307.7813,296.8906 Q307.2813,297.4688 306.4844,297.7969 Q305.4063,298.25 304.1094,298.25 Q302.5938,298.25 301.3906,297.625 Q300.4063,297.125 299.7188,296.0547 Q299.0313,294.9844 299.0313,293.7031 L299.0313,292.5469 Q299.0313,291.2188 299.6484,290.0703 Q300.2656,288.9219 301.3594,288.3047 Q302.4531,287.6875 303.6875,287.6875 Q304.4219,287.6875 305.0703,287.8516 Q305.7188,288.0156 306.2656,288.375 Z " fill="#000000"/><text fill="#000000" font-family="sans-serif" font-size="14" lengthAdjust="spacing" textLength="84.0547" x="317.5" y="298.2285">ExprEquation</text><line style="stroke:#181818;stroke-width:0.5;" x1="289.5" x2="403.5547" y1="308.5" y2="308.5"/><line style="stroke:#181818;stroke-width:0.5;" x1="289.5" x2="403.5547" y1="316.5" y2="316.5"/></g><!--class DefByCase--><g id="elem_DefByCase"><rect codeLine="15" fill="#F1F1F1" height="48" id="DefByCase" rx="2.5" ry="2.5" style="stroke:#181818;stroke-width:0.5;" width="102.8066" x="150" y="276.5"/><ellipse cx="165" cy="292.5" fill="#ADD1B2" rx="11" ry="11" style="stroke:#181818;stroke-width:1.0;"/><path d="M167.7656,288.375 Q167.9219,288.1563 168.1094,288.0469 Q168.2969,287.9375 168.5156,287.9375 Q168.8906,287.9375 169.125,288.1953 Q169.3594,288.4531 169.3594,289.0625 L169.3594,290.5156 Q169.3594,291.125 169.125,291.3906 Q168.8906,291.6563 168.5156,291.6563 Q168.1719,291.6563 167.9688,291.4531 Q167.7656,291.2656 167.6563,290.75 Q167.6094,290.3906 167.4219,290.2031 Q167.0938,289.8281 166.4844,289.6094 Q165.875,289.3906 165.25,289.3906 Q164.4844,289.3906 163.8516,289.7188 Q163.2188,290.0469 162.7266,290.7969 Q162.2344,291.5469 162.2344,292.5781 L162.2344,293.6719 Q162.2344,294.9063 163.125,295.7266 Q164.0156,296.5469 165.6094,296.5469 Q166.5469,296.5469 167.2031,296.2969 Q167.5938,296.1406 168.0156,295.7031 Q168.2813,295.4375 168.4297,295.3594 Q168.5781,295.2813 168.7813,295.2813 Q169.1094,295.2813 169.3672,295.5391 Q169.625,295.7969 169.625,296.1406 Q169.625,296.4844 169.2813,296.8906 Q168.7813,297.4688 167.9844,297.7969 Q166.9063,298.25 165.6094,298.25 Q164.0938,298.25 162.8906,297.625 Q161.9063,297.125 161.2188,296.0547 Q160.5313,294.9844 160.5313,293.7031 L160.5313,292.5469 Q160.5313,291.2188 161.1484,290.0703 Q161.7656,288.9219 162.8594,288.3047 Q163.9531,287.6875 165.1875,287.6875 Q165.9219,287.6875 166.5703,287.8516 Q167.2188,288.0156 167.7656,288.375 Z " fill="#000000"/><text fill="#000000" font-family="sans-serif" font-size="14" lengthAdjust="spacing" textLength="70.8066" x="179" y="298.2285">DefByCase</text><line style="stroke:#181818;stroke-width:0.5;" x1="151" x2="251.8066" y1="308.5" y2="308.5"/><line style="stroke:#181818;stroke-width:0.5;" x1="151" x2="251.8066" y1="316.5" y2="316.5"/></g><!--class EquationLHS--><g id="elem_EquationLHS"><rect codeLine="19" fill="#F1F1F1" height="65.6094" id="EquationLHS" rx="2.5" ry="2.5" style="stroke:#181818;stroke-width:0.5;" width="166.8682" x="118" y="398"/><ellipse cx="156.5644" cy="414" fill="#ADD1B2" rx="11" ry="11" style="stroke:#181818;stroke-width:1.0;"/><path d="M159.33,409.875 Q159.4862,409.6563 159.6737,409.5469 Q159.8612,409.4375 160.08,409.4375 Q160.455,409.4375 160.6894,409.6953 Q160.9237,409.9531 160.9237,410.5625 L160.9237,412.0156 Q160.9237,412.625 160.6894,412.8906 Q160.455,413.1563 160.08,413.1563 Q159.7362,413.1563 159.5331,412.9531 Q159.33,412.7656 159.2206,412.25 Q159.1737,411.8906 158.9862,411.7031 Q158.6581,411.3281 158.0487,411.1094 Q157.4394,410.8906 156.8144,410.8906 Q156.0487,410.8906 155.4159,411.2188 Q154.7831,411.5469 154.2909,412.2969 Q153.7987,413.0469 153.7987,414.0781 L153.7987,415.1719 Q153.7987,416.4063 154.6894,417.2266 Q155.58,418.0469 157.1737,418.0469 Q158.1112,418.0469 158.7675,417.7969 Q159.1581,417.6406 159.58,417.2031 Q159.8456,416.9375 159.994,416.8594 Q160.1425,416.7813 160.3456,416.7813 Q160.6737,416.7813 160.9315,417.0391 Q161.1894,417.2969 161.1894,417.6406 Q161.1894,417.9844 160.8456,418.3906 Q160.3456,418.9688 159.5487,419.2969 Q158.4706,419.75 157.1737,419.75 Q155.6581,419.75 154.455,419.125 Q153.4706,418.625 152.7831,417.5547 Q152.0956,416.4844 152.0956,415.2031 L152.0956,414.0469 Q152.0956,412.7188 152.7128,411.5703 Q153.33,410.4219 154.4237,409.8047 Q155.5175,409.1875 156.7519,409.1875 Q157.4862,409.1875 158.1347,409.3516 Q158.7831,409.5156 159.33,409.875 Z " fill="#000000"/><text fill="#000000" font-family="sans-serif" font-size="14" lengthAdjust="spacing" textLength="82.5029" x="175.8009" y="419.7285">EquationLHS</text><line style="stroke:#181818;stroke-width:0.5;" x1="119" x2="283.8682" y1="430" y2="430"/><ellipse cx="129" cy="444.3047" fill="none" rx="3" ry="3" style="stroke:#038048;stroke-width:1.0;"/><text fill="#000000" font-family="sans-serif" font-size="14" lengthAdjust="spacing" textLength="140.8682" x="138" y="448.5332">is_partial_lhs: Boolean</text><line style="stroke:#181818;stroke-width:0.5;" x1="119" x2="283.8682" y1="455.6094" y2="455.6094"/></g><!--class Expression--><g id="elem_Expression"><rect fill="#F1F1F1" height="48" id="Expression" rx="2.5" ry="2.5" style="stroke:#181818;stroke-width:0.5;" width="101.2549" x="320" y="407"/><ellipse cx="335" cy="423" fill="#ADD1B2" rx="11" ry="11" style="stroke:#181818;stroke-width:1.0;"/><path d="M337.7656,418.875 Q337.9219,418.6563 338.1094,418.5469 Q338.2969,418.4375 338.5156,418.4375 Q338.8906,418.4375 339.125,418.6953 Q339.3594,418.9531 339.3594,419.5625 L339.3594,421.0156 Q339.3594,421.625 339.125,421.8906 Q338.8906,422.1563 338.5156,422.1563 Q338.1719,422.1563 337.9688,421.9531 Q337.7656,421.7656 337.6563,421.25 Q337.6094,420.8906 337.4219,420.7031 Q337.0938,420.3281 336.4844,420.1094 Q335.875,419.8906 335.25,419.8906 Q334.4844,419.8906 333.8516,420.2188 Q333.2188,420.5469 332.7266,421.2969 Q332.2344,422.0469 332.2344,423.0781 L332.2344,424.1719 Q332.2344,425.4063 333.125,426.2266 Q334.0156,427.0469 335.6094,427.0469 Q336.5469,427.0469 337.2031,426.7969 Q337.5938,426.6406 338.0156,426.2031 Q338.2813,425.9375 338.4297,425.8594 Q338.5781,425.7813 338.7813,425.7813 Q339.1094,425.7813 339.3672,426.0391 Q339.625,426.2969 339.625,426.6406 Q339.625,426.9844 339.2813,427.3906 Q338.7813,427.9688 337.9844,428.2969 Q336.9063,428.75 335.6094,428.75 Q334.0938,428.75 332.8906,428.125 Q331.9063,427.625 331.2188,426.5547 Q330.5313,425.4844 330.5313,424.2031 L330.5313,423.0469 Q330.5313,421.7188 331.1484,420.5703 Q331.7656,419.4219 332.8594,418.8047 Q333.9531,418.1875 335.1875,418.1875 Q335.9219,418.1875 336.5703,418.3516 Q337.2188,418.5156 337.7656,418.875 Z " fill="#000000"/><text fill="#000000" font-family="sans-serif" font-size="14" lengthAdjust="spacing" textLength="69.2549" x="349" y="428.7285">Expression</text><line style="stroke:#181818;stroke-width:0.5;" x1="321" x2="420.2549" y1="439" y2="439"/><line style="stroke:#181818;stroke-width:0.5;" x1="321" x2="420.2549" y1="447" y2="447"/></g><!--class LHSItem--><g id="elem_LHSItem"><rect fill="#F1F1F1" height="48" id="LHSItem" rx="2.5" ry="2.5" style="stroke:#181818;stroke-width:0.5;" width="86.4619" x="158.5" y="524"/><ellipse cx="173.5" cy="540" fill="#ADD1B2" rx="11" ry="11" style="stroke:#181818;stroke-width:1.0;"/><path d="M176.2656,535.875 Q176.4219,535.6563 176.6094,535.5469 Q176.7969,535.4375 177.0156,535.4375 Q177.3906,535.4375 177.625,535.6953 Q177.8594,535.9531 177.8594,536.5625 L177.8594,538.0156 Q177.8594,538.625 177.625,538.8906 Q177.3906,539.1563 177.0156,539.1563 Q176.6719,539.1563 176.4688,538.9531 Q176.2656,538.7656 176.1563,538.25 Q176.1094,537.8906 175.9219,537.7031 Q175.5938,537.3281 174.9844,537.1094 Q174.375,536.8906 173.75,536.8906 Q172.9844,536.8906 172.3516,537.2188 Q171.7188,537.5469 171.2266,538.2969 Q170.7344,539.0469 170.7344,540.0781 L170.7344,541.1719 Q170.7344,542.4063 171.625,543.2266 Q172.5156,544.0469 174.1094,544.0469 Q175.0469,544.0469 175.7031,543.7969 Q176.0938,543.6406 176.5156,543.2031 Q176.7813,542.9375 176.9297,542.8594 Q177.0781,542.7813 177.2813,542.7813 Q177.6094,542.7813 177.8672,543.0391 Q178.125,543.2969 178.125,543.6406 Q178.125,543.9844 177.7813,544.3906 Q177.2813,544.9688 176.4844,545.2969 Q175.4063,545.75 174.1094,545.75 Q172.5938,545.75 171.3906,545.125 Q170.4063,544.625 169.7188,543.5547 Q169.0313,542.4844 169.0313,541.2031 L169.0313,540.0469 Q169.0313,538.7188 169.6484,537.5703 Q170.2656,536.4219 171.3594,535.8047 Q172.4531,535.1875 173.6875,535.1875 Q174.4219,535.1875 175.0703,535.3516 Q175.7188,535.5156 176.2656,535.875 Z " fill="#000000"/><text fill="#000000" font-family="sans-serif" font-size="14" lengthAdjust="spacing" textLength="54.4619" x="187.5" y="545.7285">LHSItem</text><line style="stroke:#181818;stroke-width:0.5;" x1="159.5" x2="243.9619" y1="556" y2="556"/><line style="stroke:#181818;stroke-width:0.5;" x1="159.5" x2="243.9619" y1="564" y2="564"/></g><g id="elem_GMN16"><path d="M6,263 L6,338.4063 A0,0 0 0 0 6,338.4063 L115.1436,338.4063 A0,0 0 0 0 115.1436,338.4063 L115.1436,304.5 L149.82,300.5 L115.1436,296.5 L115.1436,273 L105.1436,263 L6,263 A0,0 0 0 0 6,263 " fill="#FEFFDD" style="stroke:#181818;stroke-width:0.5;"/><path d="M105.1436,263 L105.1436,273 L115.1436,273 L105.1436,263 " fill="#FEFFDD" style="stroke:#181818;stroke-width:0.5;"/><text fill="#000000" font-family="sans-serif" font-size="13" lengthAdjust="spacing" textLength="85.2554" x="12" y="281.4951">Base class for:</text><text fill="#000000" font-family="sans-serif" font-size="13" lengthAdjust="spacing" textLength="87.4326" x="12" y="297.8467">- StateMachine</text><text fill="#000000" font-family="sans-serif" font-size="13" lengthAdjust="spacing" textLength="61.4072" x="12" y="314.1982">- ActivateIf</text><text fill="#000000" font-family="sans-serif" font-size="13" lengthAdjust="spacing" textLength="88.1436" x="12" y="330.5498">- ActivateWhen</text></g><!--reverse link LetSection to Equation--><g id="link_LetSection_Equation"><path codeLine="5" d="M273.5,67.11 C273.5,83.81 273.5,94.85 273.5,114.9 " fill="none" id="LetSection-backto-Equation" style="stroke:#181818;stroke-width:1.0;"/><polygon fill="#181818" points="273.5,55.11,269.5,61.11,273.5,67.11,277.5,61.11,273.5,55.11" style="stroke:#181818;stroke-width:1.0;"/><text fill="#000000" font-family="sans-serif" font-size="13" lengthAdjust="spacing" textLength="5.0591" x="268.0849" y="104.1197">*</text></g><!--reverse link Equation to ExprEquation--><g id="link_Equation_ExprEquation"><path codeLine="6" d="M273.5,204 C273.5,204 307.22,248.12 328.83,276.38 " fill="none" id="Equation-backto-ExprEquation" style="stroke:#181818;stroke-width:1.0;"/></g><!--reverse link Equation to DefByCase--><g id="link_Equation_DefByCase"><path codeLine="7" d="M273.5,204 C273.5,204 240.24,248.12 218.93,276.38 " fill="none" id="Equation-backto-DefByCase" style="stroke:#181818;stroke-width:1.0;"/></g><!--reverse link ExprEquation to EquationLHS--><g id="link_ExprEquation_EquationLHS"><path codeLine="9" d="M311.2606,332.7305 C288.1706,353.2005 263.3,375.23 237.65,397.96 " fill="none" id="ExprEquation-backto-EquationLHS" style="stroke:#181818;stroke-width:1.0;"/><polygon fill="#181818" points="320.24,324.77,313.0968,325.7571,311.2606,332.7305,318.4038,331.7434,320.24,324.77" style="stroke:#181818;stroke-width:1.0;"/></g><!--link ExprEquation to Expression--><g id="link_ExprEquation_Expression"><path codeLine="10" d="M350.85,324.77 C355.2,348.06 361.85,383.68 366.19,406.9 " fill="none" id="ExprEquation-Expression" style="stroke:#181818;stroke-width:1.0;"/></g><!--reverse link EquationLHS to LHSItem--><g id="link_EquationLHS_LHSItem"><path codeLine="11" d="M201.5,476.03 C201.5,495.04 201.5,506.7 201.5,523.89 " fill="none" id="EquationLHS-backto-LHSItem" style="stroke:#181818;stroke-width:1.0;"/><polygon fill="#181818" points="201.5,464.03,197.5,470.03,201.5,476.03,205.5,470.03,201.5,464.03" style="stroke:#181818;stroke-width:1.0;"/><text fill="#000000" font-family="sans-serif" font-size="13" lengthAdjust="spacing" textLength="5.0591" x="195.8078" y="513.202">*</text></g><!--reverse link DefByCase to EquationLHS--><g id="link_DefByCase_EquationLHS"><path codeLine="13" d="M201.5,336.77 C201.5,357.17 201.5,375.02 201.5,397.72 " fill="none" id="DefByCase-backto-EquationLHS" style="stroke:#181818;stroke-width:1.0;"/><polygon fill="#181818" points="201.5,324.77,197.5,330.77,201.5,336.77,205.5,330.77,201.5,324.77" style="stroke:#181818;stroke-width:1.0;"/></g><!--SRC=[TP0nRm8n38Lt_mgB1OdgbeweIscHUX9CDx0W8UlmaOZW78b1HMt_E-7eqLI8J7vvBvyT3t6wFv1QBp14nusYUWnsOnJNDd3TEN5hfQL0Ezm4VsXBCHoiajICpm0prkeQn55Hu60q-6Fs1Rvy9slwsOO7rZitazCRHGR8Knsn5xEFwh_vY-GOSs2AtGP9TQcy0xZnxuXGEuen6q2yShUACKuk3wv-uyDuAGLMIifpgeqLlkZNzFDZkYgRN2qC2_JeVB0lm7IUR5obXQebjt8cfaRUEoQ1dpC0]--></g></svg>