<svg xmlns="http://www.w3.org/2000/svg" xmlns:xlink="http://www.w3.org/1999/xlink" contentStyleType="text/css" height="550px" preserveAspectRatio="none" style="width:659px;height:550px;background:#FFFFFF;" version="1.1" viewBox="0 0 659 550" width="659px" zoomAndPan="magnify"><defs/><g><!--class ForwardItemClause--><g id="elem_ForwardItemClause"><rect codeLine="5" fill="#F1F1F1" height="65.6094" id="ForwardItemClause" rx="2.5" ry="2.5" style="stroke:#181818;stroke-width:0.5;" width="154.1514" x="134" y="369"/><ellipse cx="149" cy="385" fill="#ADD1B2" rx="11" ry="11" style="stroke:#181818;stroke-width:1.0;"/><path d="M151.7656,380.875 Q151.9219,380.6563 152.1094,380.5469 Q152.2969,380.4375 152.5156,380.4375 Q152.8906,380.4375 153.125,380.6953 Q153.3594,380.9531 153.3594,381.5625 L153.3594,383.0156 Q153.3594,383.625 153.125,383.8906 Q152.8906,384.1563 152.5156,384.1563 Q152.1719,384.1563 151.9688,383.9531 Q151.7656,383.7656 151.6563,383.25 Q151.6094,382.8906 151.4219,382.7031 Q151.0938,382.3281 150.4844,382.1094 Q149.875,381.8906 149.25,381.8906 Q148.4844,381.8906 147.8516,382.2188 Q147.2188,382.5469 146.7266,383.2969 Q146.2344,384.0469 146.2344,385.0781 L146.2344,386.1719 Q146.2344,387.4063 147.125,388.2266 Q148.0156,389.0469 149.6094,389.0469 Q150.5469,389.0469 151.2031,388.7969 Q151.5938,388.6406 152.0156,388.2031 Q152.2813,387.9375 152.4297,387.8594 Q152.5781,387.7813 152.7813,387.7813 Q153.1094,387.7813 153.3672,388.0391 Q153.625,388.2969 153.625,388.6406 Q153.625,388.9844 153.2813,389.3906 Q152.7813,389.9688 151.9844,390.2969 Q150.9063,390.75 149.6094,390.75 Q148.0938,390.75 146.8906,390.125 Q145.9063,389.625 145.2188,388.5547 Q144.5313,387.4844 144.5313,386.2031 L144.5313,385.0469 Q144.5313,383.7188 145.1484,382.5703 Q145.7656,381.4219 146.8594,380.8047 Q147.9531,380.1875 149.1875,380.1875 Q149.9219,380.1875 150.5703,380.3516 Q151.2188,380.5156 151.7656,380.875 Z " fill="#000000"/><text fill="#000000" font-family="sans-serif" font-size="14" lengthAdjust="spacing" textLength="122.1514" x="163" y="390.7285">ForwardItemClause</text><line style="stroke:#181818;stroke-width:0.5;" x1="135" x2="287.1514" y1="401" y2="401"/><text fill="#000000" font-family="sans-serif" font-size="14" lengthAdjust="spacing" textLength="72.3721" x="140" y="419.5332">id: Identifier</text><line style="stroke:#181818;stroke-width:0.5;" x1="135" x2="287.1514" y1="426.6094" y2="426.6094"/></g><!--class ForwardLastDefault--><g id="elem_ForwardLastDefault"><rect fill="#F1F1F1" height="48" id="ForwardLastDefault" rx="2.5" ry="2.5" style="stroke:#181818;stroke-width:0.5;" width="154.165" x="134" y="495"/><ellipse cx="149" cy="511" fill="#ADD1B2" rx="11" ry="11" style="stroke:#181818;stroke-width:1.0;"/><path d="M151.7656,506.875 Q151.9219,506.6563 152.1094,506.5469 Q152.2969,506.4375 152.5156,506.4375 Q152.8906,506.4375 153.125,506.6953 Q153.3594,506.9531 153.3594,507.5625 L153.3594,509.0156 Q153.3594,509.625 153.125,509.8906 Q152.8906,510.1563 152.5156,510.1563 Q152.1719,510.1563 151.9688,509.9531 Q151.7656,509.7656 151.6563,509.25 Q151.6094,508.8906 151.4219,508.7031 Q151.0938,508.3281 150.4844,508.1094 Q149.875,507.8906 149.25,507.8906 Q148.4844,507.8906 147.8516,508.2188 Q147.2188,508.5469 146.7266,509.2969 Q146.2344,510.0469 146.2344,511.0781 L146.2344,512.1719 Q146.2344,513.4063 147.125,514.2266 Q148.0156,515.0469 149.6094,515.0469 Q150.5469,515.0469 151.2031,514.7969 Q151.5938,514.6406 152.0156,514.2031 Q152.2813,513.9375 152.4297,513.8594 Q152.5781,513.7813 152.7813,513.7813 Q153.1094,513.7813 153.3672,514.0391 Q153.625,514.2969 153.625,514.6406 Q153.625,514.9844 153.2813,515.3906 Q152.7813,515.9688 151.9844,516.2969 Q150.9063,516.75 149.6094,516.75 Q148.0938,516.75 146.8906,516.125 Q145.9063,515.625 145.2188,514.5547 Q144.5313,513.4844 144.5313,512.2031 L144.5313,511.0469 Q144.5313,509.7188 145.1484,508.5703 Q145.7656,507.4219 146.8594,506.8047 Q147.9531,506.1875 149.1875,506.1875 Q149.9219,506.1875 150.5703,506.3516 Q151.2188,506.5156 151.7656,506.875 Z " fill="#000000"/><text fill="#000000" font-family="sans-serif" font-size="14" lengthAdjust="spacing" textLength="122.165" x="163" y="516.7285">ForwardLastDefault</text><line style="stroke:#181818;stroke-width:0.5;" x1="135" x2="287.165" y1="527" y2="527"/><line style="stroke:#181818;stroke-width:0.5;" x1="135" x2="287.165" y1="535" y2="535"/></g><!--class ForwardArrayClause--><g id="elem_ForwardArrayClause"><rect fill="#F1F1F1" height="48" id="ForwardArrayClause" rx="2.5" ry="2.5" style="stroke:#181818;stroke-width:0.5;" width="160.3721" x="238" y="261"/><ellipse cx="253" cy="277" fill="#ADD1B2" rx="11" ry="11" style="stroke:#181818;stroke-width:1.0;"/><path d="M255.7656,272.875 Q255.9219,272.6563 256.1094,272.5469 Q256.2969,272.4375 256.5156,272.4375 Q256.8906,272.4375 257.125,272.6953 Q257.3594,272.9531 257.3594,273.5625 L257.3594,275.0156 Q257.3594,275.625 257.125,275.8906 Q256.8906,276.1563 256.5156,276.1563 Q256.1719,276.1563 255.9688,275.9531 Q255.7656,275.7656 255.6563,275.25 Q255.6094,274.8906 255.4219,274.7031 Q255.0938,274.3281 254.4844,274.1094 Q253.875,273.8906 253.25,273.8906 Q252.4844,273.8906 251.8516,274.2188 Q251.2188,274.5469 250.7266,275.2969 Q250.2344,276.0469 250.2344,277.0781 L250.2344,278.1719 Q250.2344,279.4063 251.125,280.2266 Q252.0156,281.0469 253.6094,281.0469 Q254.5469,281.0469 255.2031,280.7969 Q255.5938,280.6406 256.0156,280.2031 Q256.2813,279.9375 256.4297,279.8594 Q256.5781,279.7813 256.7813,279.7813 Q257.1094,279.7813 257.3672,280.0391 Q257.625,280.2969 257.625,280.6406 Q257.625,280.9844 257.2813,281.3906 Q256.7813,281.9688 255.9844,282.2969 Q254.9063,282.75 253.6094,282.75 Q252.0938,282.75 250.8906,282.125 Q249.9063,281.625 249.2188,280.5547 Q248.5313,279.4844 248.5313,278.2031 L248.5313,277.0469 Q248.5313,275.7188 249.1484,274.5703 Q249.7656,273.4219 250.8594,272.8047 Q251.9531,272.1875 253.1875,272.1875 Q253.9219,272.1875 254.5703,272.3516 Q255.2188,272.5156 255.7656,272.875 Z " fill="#000000"/><text fill="#000000" font-family="sans-serif" font-size="14" lengthAdjust="spacing" textLength="128.3721" x="267" y="282.7285">ForwardArrayClause</text><line style="stroke:#181818;stroke-width:0.5;" x1="239" x2="397.3721" y1="293" y2="293"/><line style="stroke:#181818;stroke-width:0.5;" x1="239" x2="397.3721" y1="301" y2="301"/></g><!--class ForwardReturnItem--><g id="elem_ForwardReturnItem"><rect fill="#F1F1F1" height="48" id="ForwardReturnItem" rx="2.5" ry="2.5" style="stroke:#181818;stroke-width:0.5;" width="152.5928" x="226.5" y="7"/><ellipse cx="241.5" cy="23" fill="#ADD1B2" rx="11" ry="11" style="stroke:#181818;stroke-width:1.0;"/><path d="M244.2656,18.875 Q244.4219,18.6563 244.6094,18.5469 Q244.7969,18.4375 245.0156,18.4375 Q245.3906,18.4375 245.625,18.6953 Q245.8594,18.9531 245.8594,19.5625 L245.8594,21.0156 Q245.8594,21.625 245.625,21.8906 Q245.3906,22.1563 245.0156,22.1563 Q244.6719,22.1563 244.4688,21.9531 Q244.2656,21.7656 244.1563,21.25 Q244.1094,20.8906 243.9219,20.7031 Q243.5938,20.3281 242.9844,20.1094 Q242.375,19.8906 241.75,19.8906 Q240.9844,19.8906 240.3516,20.2188 Q239.7188,20.5469 239.2266,21.2969 Q238.7344,22.0469 238.7344,23.0781 L238.7344,24.1719 Q238.7344,25.4063 239.625,26.2266 Q240.5156,27.0469 242.1094,27.0469 Q243.0469,27.0469 243.7031,26.7969 Q244.0938,26.6406 244.5156,26.2031 Q244.7813,25.9375 244.9297,25.8594 Q245.0781,25.7813 245.2813,25.7813 Q245.6094,25.7813 245.8672,26.0391 Q246.125,26.2969 246.125,26.6406 Q246.125,26.9844 245.7813,27.3906 Q245.2813,27.9688 244.4844,28.2969 Q243.4063,28.75 242.1094,28.75 Q240.5938,28.75 239.3906,28.125 Q238.4063,27.625 237.7188,26.5547 Q237.0313,25.4844 237.0313,24.2031 L237.0313,23.0469 Q237.0313,21.7188 237.6484,20.5703 Q238.2656,19.4219 239.3594,18.8047 Q240.4531,18.1875 241.6875,18.1875 Q242.4219,18.1875 243.0703,18.3516 Q243.7188,18.5156 244.2656,18.875 Z " fill="#000000"/><text fill="#000000" font-family="sans-serif" font-size="14" lengthAdjust="spacing" textLength="120.5928" x="255.5" y="28.7285">ForwardReturnItem</text><line style="stroke:#181818;stroke-width:0.5;" x1="227.5" x2="378.0928" y1="39" y2="39"/><line style="stroke:#181818;stroke-width:0.5;" x1="227.5" x2="378.0928" y1="47" y2="47"/></g><polygon fill="none" points="305.5716,55,314.8227,74.0635,300.9154,75.6717" style="stroke:#181818;stroke-width:1.0;"/><line style="stroke:#181818;stroke-width:1.0;" x1="307.8691" x2="308" y1="74.8676" y2="76"/><!--class ForwardReturnItemClause--><g id="elem_ForwardReturnItemClause"><rect fill="#F1F1F1" height="48" id="ForwardReturnItemClause" rx="2.5" ry="2.5" style="stroke:#181818;stroke-width:0.5;" width="196.1719" x="7" y="261"/><ellipse cx="22" cy="277" fill="#ADD1B2" rx="11" ry="11" style="stroke:#181818;stroke-width:1.0;"/><path d="M24.7656,272.875 Q24.9219,272.6563 25.1094,272.5469 Q25.2969,272.4375 25.5156,272.4375 Q25.8906,272.4375 26.125,272.6953 Q26.3594,272.9531 26.3594,273.5625 L26.3594,275.0156 Q26.3594,275.625 26.125,275.8906 Q25.8906,276.1563 25.5156,276.1563 Q25.1719,276.1563 24.9688,275.9531 Q24.7656,275.7656 24.6563,275.25 Q24.6094,274.8906 24.4219,274.7031 Q24.0938,274.3281 23.4844,274.1094 Q22.875,273.8906 22.25,273.8906 Q21.4844,273.8906 20.8516,274.2188 Q20.2188,274.5469 19.7266,275.2969 Q19.2344,276.0469 19.2344,277.0781 L19.2344,278.1719 Q19.2344,279.4063 20.125,280.2266 Q21.0156,281.0469 22.6094,281.0469 Q23.5469,281.0469 24.2031,280.7969 Q24.5938,280.6406 25.0156,280.2031 Q25.2813,279.9375 25.4297,279.8594 Q25.5781,279.7813 25.7813,279.7813 Q26.1094,279.7813 26.3672,280.0391 Q26.625,280.2969 26.625,280.6406 Q26.625,280.9844 26.2813,281.3906 Q25.7813,281.9688 24.9844,282.2969 Q23.9063,282.75 22.6094,282.75 Q21.0938,282.75 19.8906,282.125 Q18.9063,281.625 18.2188,280.5547 Q17.5313,279.4844 17.5313,278.2031 L17.5313,277.0469 Q17.5313,275.7188 18.1484,274.5703 Q18.7656,273.4219 19.8594,272.8047 Q20.9531,272.1875 22.1875,272.1875 Q22.9219,272.1875 23.5703,272.3516 Q24.2188,272.5156 24.7656,272.875 Z " fill="#000000"/><text fill="#000000" font-family="sans-serif" font-size="14" lengthAdjust="spacing" textLength="164.1719" x="36" y="282.7285">ForwardReturnItemClause</text><line style="stroke:#181818;stroke-width:0.5;" x1="8" x2="202.1719" y1="293" y2="293"/><line style="stroke:#181818;stroke-width:0.5;" x1="8" x2="202.1719" y1="301" y2="301"/></g><!--class ForwardReturnArrayClause--><g id="elem_ForwardReturnArrayClause"><rect codeLine="18" fill="#F1F1F1" height="65.6094" id="ForwardReturnArrayClause" rx="2.5" ry="2.5" style="stroke:#181818;stroke-width:0.5;" width="202.3926" x="202" y="135"/><ellipse cx="217" cy="151" fill="#ADD1B2" rx="11" ry="11" style="stroke:#181818;stroke-width:1.0;"/><path d="M219.7656,146.875 Q219.9219,146.6563 220.1094,146.5469 Q220.2969,146.4375 220.5156,146.4375 Q220.8906,146.4375 221.125,146.6953 Q221.3594,146.9531 221.3594,147.5625 L221.3594,149.0156 Q221.3594,149.625 221.125,149.8906 Q220.8906,150.1563 220.5156,150.1563 Q220.1719,150.1563 219.9688,149.9531 Q219.7656,149.7656 219.6563,149.25 Q219.6094,148.8906 219.4219,148.7031 Q219.0938,148.3281 218.4844,148.1094 Q217.875,147.8906 217.25,147.8906 Q216.4844,147.8906 215.8516,148.2188 Q215.2188,148.5469 214.7266,149.2969 Q214.2344,150.0469 214.2344,151.0781 L214.2344,152.1719 Q214.2344,153.4063 215.125,154.2266 Q216.0156,155.0469 217.6094,155.0469 Q218.5469,155.0469 219.2031,154.7969 Q219.5938,154.6406 220.0156,154.2031 Q220.2813,153.9375 220.4297,153.8594 Q220.5781,153.7813 220.7813,153.7813 Q221.1094,153.7813 221.3672,154.0391 Q221.625,154.2969 221.625,154.6406 Q221.625,154.9844 221.2813,155.3906 Q220.7813,155.9688 219.9844,156.2969 Q218.9063,156.75 217.6094,156.75 Q216.0938,156.75 214.8906,156.125 Q213.9063,155.625 213.2188,154.5547 Q212.5313,153.4844 212.5313,152.2031 L212.5313,151.0469 Q212.5313,149.7188 213.1484,148.5703 Q213.7656,147.4219 214.8594,146.8047 Q215.9531,146.1875 217.1875,146.1875 Q217.9219,146.1875 218.5703,146.3516 Q219.2188,146.5156 219.7656,146.875 Z " fill="#000000"/><text fill="#000000" font-family="sans-serif" font-size="14" lengthAdjust="spacing" textLength="170.3926" x="231" y="156.7285">ForwardReturnArrayClause</text><line style="stroke:#181818;stroke-width:0.5;" x1="203" x2="403.3926" y1="167" y2="167"/><line style="stroke:#181818;stroke-width:0.5;" x1="203" x2="403.3926" y1="175" y2="175"/><text fill="#000000" font-family="sans-serif" font-size="14" lengthAdjust="spacing" textLength="158.751" x="208" y="193.5332">ret_id: Identifier (optional)</text></g><!--class ProtectedForwardReturnItem--><g id="elem_ProtectedForwardReturnItem"><rect fill="#F1F1F1" height="48" id="ProtectedForwardReturnItem" rx="2.5" ry="2.5" style="stroke:#181818;stroke-width:0.5;" width="212.5166" x="439.5" y="144"/><ellipse cx="454.5" cy="160" fill="#ADD1B2" rx="11" ry="11" style="stroke:#181818;stroke-width:1.0;"/><path d="M457.2656,155.875 Q457.4219,155.6563 457.6094,155.5469 Q457.7969,155.4375 458.0156,155.4375 Q458.3906,155.4375 458.625,155.6953 Q458.8594,155.9531 458.8594,156.5625 L458.8594,158.0156 Q458.8594,158.625 458.625,158.8906 Q458.3906,159.1563 458.0156,159.1563 Q457.6719,159.1563 457.4688,158.9531 Q457.2656,158.7656 457.1563,158.25 Q457.1094,157.8906 456.9219,157.7031 Q456.5938,157.3281 455.9844,157.1094 Q455.375,156.8906 454.75,156.8906 Q453.9844,156.8906 453.3516,157.2188 Q452.7188,157.5469 452.2266,158.2969 Q451.7344,159.0469 451.7344,160.0781 L451.7344,161.1719 Q451.7344,162.4063 452.625,163.2266 Q453.5156,164.0469 455.1094,164.0469 Q456.0469,164.0469 456.7031,163.7969 Q457.0938,163.6406 457.5156,163.2031 Q457.7813,162.9375 457.9297,162.8594 Q458.0781,162.7813 458.2813,162.7813 Q458.6094,162.7813 458.8672,163.0391 Q459.125,163.2969 459.125,163.6406 Q459.125,163.9844 458.7813,164.3906 Q458.2813,164.9688 457.4844,165.2969 Q456.4063,165.75 455.1094,165.75 Q453.5938,165.75 452.3906,165.125 Q451.4063,164.625 450.7188,163.5547 Q450.0313,162.4844 450.0313,161.2031 L450.0313,160.0469 Q450.0313,158.7188 450.6484,157.5703 Q451.2656,156.4219 452.3594,155.8047 Q453.4531,155.1875 454.6875,155.1875 Q455.4219,155.1875 456.0703,155.3516 Q456.7188,155.5156 457.2656,155.875 Z " fill="#000000"/><text fill="#000000" font-family="sans-serif" font-size="14" lengthAdjust="spacing" textLength="180.5166" x="468.5" y="165.7285">ProtectedForwardReturnItem</text><line style="stroke:#181818;stroke-width:0.5;" x1="440.5" x2="651.0166" y1="176" y2="176"/><line style="stroke:#181818;stroke-width:0.5;" x1="440.5" x2="651.0166" y1="184" y2="184"/></g><!--reverse link ForwardItemClause to ForwardLastDefault--><g id="link_ForwardItemClause_ForwardLastDefault"><path codeLine="8" d="M211,447.03 C211,466.04 211,477.7 211,494.89 " fill="none" id="ForwardItemClause-backto-ForwardLastDefault" style="stroke:#181818;stroke-width:1.0;"/><polygon fill="#181818" points="211,435.03,207,441.03,211,447.03,215,441.03,211,435.03" style="stroke:#181818;stroke-width:1.0;"/></g><!--reverse link ForwardArrayClause to ForwardItemClause--><g id="link_ForwardArrayClause_ForwardItemClause"><path codeLine="10" d="M288.1765,318.056 C272.2965,335.126 258.71,349.72 241.13,368.61 " fill="none" id="ForwardArrayClause-backto-ForwardItemClause" style="stroke:#181818;stroke-width:1.0;"/><polygon fill="#181818" points="296.35,309.27,289.3346,310.9385,288.1765,318.056,295.1919,316.3875,296.35,309.27" style="stroke:#181818;stroke-width:1.0;"/></g><!--reverse link ForwardArrayClause to ForwardArrayClause--><g id="link_ForwardArrayClause_ForwardArrayClause"><path codeLine="11" d="M410.0463,264.4484 C430.0263,265.9484 433,272.2 433,285 C433,297.8 418.06,304.95 398.08,306.45 " fill="none" id="ForwardArrayClause-backto-ForwardArrayClause" style="stroke:#181818;stroke-width:1.0;"/><polygon fill="#181818" points="398.08,263.55,403.7637,267.988,410.0463,264.4484,404.3626,260.0104,398.08,263.55" style="stroke:#181818;stroke-width:1.0;"/></g><!--reverse link ForwardReturnItem to ForwardReturnItemClause--><g id="link_ForwardReturnItem_ForwardReturnItemClause"><path codeLine="13" d="M308,76 C308,76 228.08,92.79 184,135 C146.36,171.04 122.87,229 112.05,260.97 " fill="none" id="ForwardReturnItem-backto-ForwardReturnItemClause" style="stroke:#181818;stroke-width:1.0;"/></g><!--reverse link ForwardReturnItemClause to ForwardItemClause--><g id="link_ForwardReturnItemClause_ForwardItemClause"><path codeLine="14" d="M134.5818,318.0946 C150.3118,335.1646 163.74,349.72 181.15,368.61 " fill="none" id="ForwardReturnItemClause-backto-ForwardItemClause" style="stroke:#181818;stroke-width:1.0;"/><polygon fill="#181818" points="126.45,309.27,127.5744,316.3929,134.5818,318.0946,133.4574,310.9717,126.45,309.27" style="stroke:#181818;stroke-width:1.0;"/></g><!--reverse link ForwardReturnItem to ForwardReturnArrayClause--><g id="link_ForwardReturnItem_ForwardReturnArrayClause"><path codeLine="16" d="M308,76 C308,76 306.2,108.72 304.76,134.92 " fill="none" id="ForwardReturnItem-backto-ForwardReturnArrayClause" style="stroke:#181818;stroke-width:1.0;"/></g><!--reverse link ForwardReturnArrayClause to ForwardArrayClause--><g id="link_ForwardReturnArrayClause_ForwardArrayClause"><path codeLine="17" d="M308.7323,212.9292 C311.2123,231.9392 312.74,243.7 314.99,260.89 " fill="none" id="ForwardReturnArrayClause-backto-ForwardArrayClause" style="stroke:#181818;stroke-width:1.0;"/><polygon fill="#181818" points="307.18,201.03,303.9898,207.497,308.7323,212.9292,311.9226,206.4621,307.18,201.03" style="stroke:#181818;stroke-width:1.0;"/></g><!--reverse link ForwardReturnItem to ProtectedForwardReturnItem--><g id="link_ForwardReturnItem_ProtectedForwardReturnItem"><path codeLine="22" d="M308,76 C308,76 415.12,116.96 485.63,143.92 " fill="none" id="ForwardReturnItem-backto-ProtectedForwardReturnItem" style="stroke:#181818;stroke-width:1.0;"/></g><!--SRC=[ZP7D2i9038JlUOhS_85UF8eNKOI21_459BIfBhQx9PiYehwxzQUsfHRTu-IROJOPuCh9YIH6OIt4WZyQcvDGXdjnHHxQ0ujHiX7Z102YbBolFA5ojaYfy8mNmFAPU8fXp5PDObZW1brm70ILVKrUbvnGaIfKv5o4pbsq4V23RCYVqEtpQuyCd5rhj9RVV8_-lSX_wSqwVOE- -grTTrslbPTdsxNNZaENgt6Mqb5vWRwM6t7AaNBScSCT]--></g></svg>