<svg xmlns="http://www.w3.org/2000/svg" xmlns:xlink="http://www.w3.org/1999/xlink" contentStyleType="text/css" data-diagram-type="CLASS" height="494px" preserveAspectRatio="none" style="width:352px;height:494px;background:#FFFFFF;" version="1.1" viewBox="0 0 352 494" width="352px" zoomAndPan="magnify"><defs/><g><!--class SwanItem--><g class="entity" data-entity="SwanItem" data-source-line="2" data-uid="ent0002" id="entity_SwanItem"><rect fill="#F1F1F1" height="48" rx="2.5" ry="2.5" style="stroke:#181818;stroke-width:0.5;" width="94.248" x="132" y="7"/><ellipse cx="147" cy="23" fill="#ADD1B2" rx="11" ry="11" style="stroke:#181818;stroke-width:1;"/><path d="M149.7656,18.875 Q149.9219,18.6563 150.1094,18.5469 Q150.2969,18.4375 150.5156,18.4375 Q150.8906,18.4375 151.125,18.6953 Q151.3594,18.9531 151.3594,19.5625 L151.3594,21.0156 Q151.3594,21.625 151.125,21.8906 Q150.8906,22.1563 150.5156,22.1563 Q150.1719,22.1563 149.9688,21.9531 Q149.7656,21.7656 149.6563,21.25 Q149.6094,20.8906 149.4219,20.7031 Q149.0938,20.3281 148.4844,20.1094 Q147.875,19.8906 147.25,19.8906 Q146.4844,19.8906 145.8516,20.2188 Q145.2188,20.5469 144.7266,21.2969 Q144.2344,22.0469 144.2344,23.0781 L144.2344,24.1719 Q144.2344,25.4063 145.125,26.2266 Q146.0156,27.0469 147.6094,27.0469 Q148.5469,27.0469 149.2031,26.7969 Q149.5938,26.6406 150.0156,26.2031 Q150.2813,25.9375 150.4297,25.8594 Q150.5781,25.7813 150.7813,25.7813 Q151.1094,25.7813 151.3672,26.0391 Q151.625,26.2969 151.625,26.6406 Q151.625,26.9844 151.2813,27.3906 Q150.7813,27.9688 149.9844,28.2969 Q148.9063,28.75 147.6094,28.75 Q146.0938,28.75 144.8906,28.125 Q143.9063,27.625 143.2188,26.5547 Q142.5313,25.4844 142.5313,24.2031 L142.5313,23.0469 Q142.5313,21.7188 143.1484,20.5703 Q143.7656,19.4219 144.8594,18.8047 Q145.9531,18.1875 147.1875,18.1875 Q147.9219,18.1875 148.5703,18.3516 Q149.2188,18.5156 149.7656,18.875 Z " fill="#000000"/><text fill="#000000" font-family="sans-serif" font-size="14" lengthAdjust="spacing" textLength="62.248" x="161" y="28.7285">SwanItem</text><line style="stroke:#181818;stroke-width:0.5;" x1="133" x2="225.248" y1="39" y2="39"/><line style="stroke:#181818;stroke-width:0.5;" x1="133" x2="225.248" y1="47" y2="47"/></g><!--class ModuleItem--><g class="entity" data-entity="ModuleItem" data-source-line="2" data-uid="ent0003" id="entity_ModuleItem"><rect fill="#F1F1F1" height="48" rx="2.5" ry="2.5" style="stroke:#181818;stroke-width:0.5;" width="105.1445" x="57.5" y="223"/><ellipse cx="72.5" cy="239" fill="#ADD1B2" rx="11" ry="11" style="stroke:#181818;stroke-width:1;"/><path d="M75.2656,234.875 Q75.4219,234.6563 75.6094,234.5469 Q75.7969,234.4375 76.0156,234.4375 Q76.3906,234.4375 76.625,234.6953 Q76.8594,234.9531 76.8594,235.5625 L76.8594,237.0156 Q76.8594,237.625 76.625,237.8906 Q76.3906,238.1563 76.0156,238.1563 Q75.6719,238.1563 75.4688,237.9531 Q75.2656,237.7656 75.1563,237.25 Q75.1094,236.8906 74.9219,236.7031 Q74.5938,236.3281 73.9844,236.1094 Q73.375,235.8906 72.75,235.8906 Q71.9844,235.8906 71.3516,236.2188 Q70.7188,236.5469 70.2266,237.2969 Q69.7344,238.0469 69.7344,239.0781 L69.7344,240.1719 Q69.7344,241.4063 70.625,242.2266 Q71.5156,243.0469 73.1094,243.0469 Q74.0469,243.0469 74.7031,242.7969 Q75.0938,242.6406 75.5156,242.2031 Q75.7813,241.9375 75.9297,241.8594 Q76.0781,241.7813 76.2813,241.7813 Q76.6094,241.7813 76.8672,242.0391 Q77.125,242.2969 77.125,242.6406 Q77.125,242.9844 76.7813,243.3906 Q76.2813,243.9688 75.4844,244.2969 Q74.4063,244.75 73.1094,244.75 Q71.5938,244.75 70.3906,244.125 Q69.4063,243.625 68.7188,242.5547 Q68.0313,241.4844 68.0313,240.2031 L68.0313,239.0469 Q68.0313,237.7188 68.6484,236.5703 Q69.2656,235.4219 70.3594,234.8047 Q71.4531,234.1875 72.6875,234.1875 Q73.4219,234.1875 74.0703,234.3516 Q74.7188,234.5156 75.2656,234.875 Z " fill="#000000"/><text fill="#000000" font-family="sans-serif" font-size="14" lengthAdjust="spacing" textLength="73.1445" x="86.5" y="244.7285">ModuleItem</text><line style="stroke:#181818;stroke-width:0.5;" x1="58.5" x2="161.6445" y1="255" y2="255"/><line style="stroke:#181818;stroke-width:0.5;" x1="58.5" x2="161.6445" y1="263" y2="263"/></g><!--class HasPragma--><g class="entity" data-entity="HasPragma" data-source-line="3" data-uid="ent0005" id="entity_HasPragma"><rect fill="#F1F1F1" height="48" rx="2.5" ry="2.5" style="stroke:#181818;stroke-width:0.5;" width="105.917" x="187" y="115"/><ellipse cx="202" cy="131" fill="#ADD1B2" rx="11" ry="11" style="stroke:#181818;stroke-width:1;"/><path d="M204.7656,126.875 Q204.9219,126.6563 205.1094,126.5469 Q205.2969,126.4375 205.5156,126.4375 Q205.8906,126.4375 206.125,126.6953 Q206.3594,126.9531 206.3594,127.5625 L206.3594,129.0156 Q206.3594,129.625 206.125,129.8906 Q205.8906,130.1563 205.5156,130.1563 Q205.1719,130.1563 204.9688,129.9531 Q204.7656,129.7656 204.6563,129.25 Q204.6094,128.8906 204.4219,128.7031 Q204.0938,128.3281 203.4844,128.1094 Q202.875,127.8906 202.25,127.8906 Q201.4844,127.8906 200.8516,128.2188 Q200.2188,128.5469 199.7266,129.2969 Q199.2344,130.0469 199.2344,131.0781 L199.2344,132.1719 Q199.2344,133.4063 200.125,134.2266 Q201.0156,135.0469 202.6094,135.0469 Q203.5469,135.0469 204.2031,134.7969 Q204.5938,134.6406 205.0156,134.2031 Q205.2813,133.9375 205.4297,133.8594 Q205.5781,133.7813 205.7813,133.7813 Q206.1094,133.7813 206.3672,134.0391 Q206.625,134.2969 206.625,134.6406 Q206.625,134.9844 206.2813,135.3906 Q205.7813,135.9688 204.9844,136.2969 Q203.9063,136.75 202.6094,136.75 Q201.0938,136.75 199.8906,136.125 Q198.9063,135.625 198.2188,134.5547 Q197.5313,133.4844 197.5313,132.2031 L197.5313,131.0469 Q197.5313,129.7188 198.1484,128.5703 Q198.7656,127.4219 199.8594,126.8047 Q200.9531,126.1875 202.1875,126.1875 Q202.9219,126.1875 203.5703,126.3516 Q204.2188,126.5156 204.7656,126.875 Z " fill="#000000"/><text fill="#000000" font-family="sans-serif" font-size="14" lengthAdjust="spacing" textLength="73.917" x="216" y="136.7285">HasPragma</text><line style="stroke:#181818;stroke-width:0.5;" x1="188" x2="291.917" y1="147" y2="147"/><line style="stroke:#181818;stroke-width:0.5;" x1="188" x2="291.917" y1="155" y2="155"/></g><!--class Declaration--><g class="entity" data-entity="Declaration" data-source-line="4" data-uid="ent0007" id="entity_Declaration"><rect fill="#F1F1F1" height="48" rx="2.5" ry="2.5" style="stroke:#181818;stroke-width:0.5;" width="102.8135" x="197.5" y="223"/><ellipse cx="212.5" cy="239" fill="#ADD1B2" rx="11" ry="11" style="stroke:#181818;stroke-width:1;"/><path d="M215.2656,234.875 Q215.4219,234.6563 215.6094,234.5469 Q215.7969,234.4375 216.0156,234.4375 Q216.3906,234.4375 216.625,234.6953 Q216.8594,234.9531 216.8594,235.5625 L216.8594,237.0156 Q216.8594,237.625 216.625,237.8906 Q216.3906,238.1563 216.0156,238.1563 Q215.6719,238.1563 215.4688,237.9531 Q215.2656,237.7656 215.1563,237.25 Q215.1094,236.8906 214.9219,236.7031 Q214.5938,236.3281 213.9844,236.1094 Q213.375,235.8906 212.75,235.8906 Q211.9844,235.8906 211.3516,236.2188 Q210.7188,236.5469 210.2266,237.2969 Q209.7344,238.0469 209.7344,239.0781 L209.7344,240.1719 Q209.7344,241.4063 210.625,242.2266 Q211.5156,243.0469 213.1094,243.0469 Q214.0469,243.0469 214.7031,242.7969 Q215.0938,242.6406 215.5156,242.2031 Q215.7813,241.9375 215.9297,241.8594 Q216.0781,241.7813 216.2813,241.7813 Q216.6094,241.7813 216.8672,242.0391 Q217.125,242.2969 217.125,242.6406 Q217.125,242.9844 216.7813,243.3906 Q216.2813,243.9688 215.4844,244.2969 Q214.4063,244.75 213.1094,244.75 Q211.5938,244.75 210.3906,244.125 Q209.4063,243.625 208.7188,242.5547 Q208.0313,241.4844 208.0313,240.2031 L208.0313,239.0469 Q208.0313,237.7188 208.6484,236.5703 Q209.2656,235.4219 210.3594,234.8047 Q211.4531,234.1875 212.6875,234.1875 Q213.4219,234.1875 214.0703,234.3516 Q214.7188,234.5156 215.2656,234.875 Z " fill="#000000"/><text fill="#000000" font-family="sans-serif" font-size="14" lengthAdjust="spacing" textLength="70.8135" x="226.5" y="244.7285">Declaration</text><line style="stroke:#181818;stroke-width:0.5;" x1="198.5" x2="299.3135" y1="255" y2="255"/><line style="stroke:#181818;stroke-width:0.5;" x1="198.5" x2="299.3135" y1="263" y2="263"/></g><!--class OperatorDeclarationDefinitionBase--><g class="entity" data-entity="OperatorDeclarationDefinitionBase" data-source-line="5" data-uid="ent0009" id="entity_OperatorDeclarationDefinitionBase"><rect fill="#F1F1F1" height="48" rx="2.5" ry="2.5" style="stroke:#181818;stroke-width:0.5;" width="248.3369" x="55" y="331"/><ellipse cx="70" cy="347" fill="#ADD1B2" rx="11" ry="11" style="stroke:#181818;stroke-width:1;"/><path d="M72.7656,342.875 Q72.9219,342.6563 73.1094,342.5469 Q73.2969,342.4375 73.5156,342.4375 Q73.8906,342.4375 74.125,342.6953 Q74.3594,342.9531 74.3594,343.5625 L74.3594,345.0156 Q74.3594,345.625 74.125,345.8906 Q73.8906,346.1563 73.5156,346.1563 Q73.1719,346.1563 72.9688,345.9531 Q72.7656,345.7656 72.6563,345.25 Q72.6094,344.8906 72.4219,344.7031 Q72.0938,344.3281 71.4844,344.1094 Q70.875,343.8906 70.25,343.8906 Q69.4844,343.8906 68.8516,344.2188 Q68.2188,344.5469 67.7266,345.2969 Q67.2344,346.0469 67.2344,347.0781 L67.2344,348.1719 Q67.2344,349.4063 68.125,350.2266 Q69.0156,351.0469 70.6094,351.0469 Q71.5469,351.0469 72.2031,350.7969 Q72.5938,350.6406 73.0156,350.2031 Q73.2813,349.9375 73.4297,349.8594 Q73.5781,349.7813 73.7813,349.7813 Q74.1094,349.7813 74.3672,350.0391 Q74.625,350.2969 74.625,350.6406 Q74.625,350.9844 74.2813,351.3906 Q73.7813,351.9688 72.9844,352.2969 Q71.9063,352.75 70.6094,352.75 Q69.0938,352.75 67.8906,352.125 Q66.9063,351.625 66.2188,350.5547 Q65.5313,349.4844 65.5313,348.2031 L65.5313,347.0469 Q65.5313,345.7188 66.1484,344.5703 Q66.7656,343.4219 67.8594,342.8047 Q68.9531,342.1875 70.1875,342.1875 Q70.9219,342.1875 71.5703,342.3516 Q72.2188,342.5156 72.7656,342.875 Z " fill="#000000"/><text fill="#000000" font-family="sans-serif" font-size="14" lengthAdjust="spacing" textLength="216.3369" x="84" y="352.7285">OperatorDeclarationDefinitionBase</text><line style="stroke:#181818;stroke-width:0.5;" x1="56" x2="302.3369" y1="363" y2="363"/><line style="stroke:#181818;stroke-width:0.5;" x1="56" x2="302.3369" y1="371" y2="371"/></g><!--class OperatorDeclaration--><g class="entity" data-entity="OperatorDeclaration" data-source-line="7" data-uid="ent0012" id="entity_OperatorDeclaration"><rect fill="#F1F1F1" height="48" rx="2.5" ry="2.5" style="stroke:#181818;stroke-width:0.5;" width="158.0615" x="7" y="439"/><ellipse cx="22" cy="455" fill="#ADD1B2" rx="11" ry="11" style="stroke:#181818;stroke-width:1;"/><path d="M24.7656,450.875 Q24.9219,450.6563 25.1094,450.5469 Q25.2969,450.4375 25.5156,450.4375 Q25.8906,450.4375 26.125,450.6953 Q26.3594,450.9531 26.3594,451.5625 L26.3594,453.0156 Q26.3594,453.625 26.125,453.8906 Q25.8906,454.1563 25.5156,454.1563 Q25.1719,454.1563 24.9688,453.9531 Q24.7656,453.7656 24.6563,453.25 Q24.6094,452.8906 24.4219,452.7031 Q24.0938,452.3281 23.4844,452.1094 Q22.875,451.8906 22.25,451.8906 Q21.4844,451.8906 20.8516,452.2188 Q20.2188,452.5469 19.7266,453.2969 Q19.2344,454.0469 19.2344,455.0781 L19.2344,456.1719 Q19.2344,457.4063 20.125,458.2266 Q21.0156,459.0469 22.6094,459.0469 Q23.5469,459.0469 24.2031,458.7969 Q24.5938,458.6406 25.0156,458.2031 Q25.2813,457.9375 25.4297,457.8594 Q25.5781,457.7813 25.7813,457.7813 Q26.1094,457.7813 26.3672,458.0391 Q26.625,458.2969 26.625,458.6406 Q26.625,458.9844 26.2813,459.3906 Q25.7813,459.9688 24.9844,460.2969 Q23.9063,460.75 22.6094,460.75 Q21.0938,460.75 19.8906,460.125 Q18.9063,459.625 18.2188,458.5547 Q17.5313,457.4844 17.5313,456.2031 L17.5313,455.0469 Q17.5313,453.7188 18.1484,452.5703 Q18.7656,451.4219 19.8594,450.8047 Q20.9531,450.1875 22.1875,450.1875 Q22.9219,450.1875 23.5703,450.3516 Q24.2188,450.5156 24.7656,450.875 Z " fill="#000000"/><text fill="#000000" font-family="sans-serif" font-size="14" lengthAdjust="spacing" textLength="126.0615" x="36" y="460.7285">OperatorDeclaration</text><line style="stroke:#181818;stroke-width:0.5;" x1="8" x2="164.0615" y1="471" y2="471"/><line style="stroke:#181818;stroke-width:0.5;" x1="8" x2="164.0615" y1="479" y2="479"/></g><!--class OperatorDefinition--><g class="entity" data-entity="OperatorDefinition" data-source-line="8" data-uid="ent0014" id="entity_OperatorDefinition"><rect fill="#F1F1F1" height="48" rx="2.5" ry="2.5" style="stroke:#181818;stroke-width:0.5;" width="145.6133" x="200" y="439"/><ellipse cx="215" cy="455" fill="#ADD1B2" rx="11" ry="11" style="stroke:#181818;stroke-width:1;"/><path d="M217.7656,450.875 Q217.9219,450.6563 218.1094,450.5469 Q218.2969,450.4375 218.5156,450.4375 Q218.8906,450.4375 219.125,450.6953 Q219.3594,450.9531 219.3594,451.5625 L219.3594,453.0156 Q219.3594,453.625 219.125,453.8906 Q218.8906,454.1563 218.5156,454.1563 Q218.1719,454.1563 217.9688,453.9531 Q217.7656,453.7656 217.6563,453.25 Q217.6094,452.8906 217.4219,452.7031 Q217.0938,452.3281 216.4844,452.1094 Q215.875,451.8906 215.25,451.8906 Q214.4844,451.8906 213.8516,452.2188 Q213.2188,452.5469 212.7266,453.2969 Q212.2344,454.0469 212.2344,455.0781 L212.2344,456.1719 Q212.2344,457.4063 213.125,458.2266 Q214.0156,459.0469 215.6094,459.0469 Q216.5469,459.0469 217.2031,458.7969 Q217.5938,458.6406 218.0156,458.2031 Q218.2813,457.9375 218.4297,457.8594 Q218.5781,457.7813 218.7813,457.7813 Q219.1094,457.7813 219.3672,458.0391 Q219.625,458.2969 219.625,458.6406 Q219.625,458.9844 219.2813,459.3906 Q218.7813,459.9688 217.9844,460.2969 Q216.9063,460.75 215.6094,460.75 Q214.0938,460.75 212.8906,460.125 Q211.9063,459.625 211.2188,458.5547 Q210.5313,457.4844 210.5313,456.2031 L210.5313,455.0469 Q210.5313,453.7188 211.1484,452.5703 Q211.7656,451.4219 212.8594,450.8047 Q213.9531,450.1875 215.1875,450.1875 Q215.9219,450.1875 216.5703,450.3516 Q217.2188,450.5156 217.7656,450.875 Z " fill="#000000"/><text fill="#000000" font-family="sans-serif" font-size="14" lengthAdjust="spacing" textLength="113.6133" x="229" y="460.7285">OperatorDefinition</text><line style="stroke:#181818;stroke-width:0.5;" x1="201" x2="344.6133" y1="471" y2="471"/><line style="stroke:#181818;stroke-width:0.5;" x1="201" x2="344.6133" y1="479" y2="479"/></g><!--reverse link SwanItem to ModuleItem--><g class="link" data-entity-1="SwanItem" data-entity-2="ModuleItem" data-source-line="2" data-uid="lnk4" id="link_SwanItem_ModuleItem"><path codeLine="2" d="M165.9567,72.4417 C152.6867,113.6017 130.77,181.58 117.51,222.72" fill="none" id="SwanItem-backto-ModuleItem" style="stroke:#181818;stroke-width:1;"/><polygon fill="none" points="171.48,55.31,160.2462,70.6006,171.6673,74.2827,171.48,55.31" style="stroke:#181818;stroke-width:1;"/></g><!--reverse link SwanItem to HasPragma--><g class="link" data-entity-1="SwanItem" data-entity-2="HasPragma" data-source-line="3" data-uid="lnk6" id="link_SwanItem_HasPragma"><path codeLine="3" d="M201.2161,70.6022 C211.3761,88.2622 216.37,96.94 226.58,114.68" fill="none" id="SwanItem-backto-HasPragma" style="stroke:#181818;stroke-width:1;"/><polygon fill="none" points="192.24,55,196.0154,73.5943,206.4169,67.6102,192.24,55" style="stroke:#181818;stroke-width:1;"/></g><!--reverse link HasPragma to Declaration--><g class="link" data-entity-1="HasPragma" data-entity-2="Declaration" data-source-line="4" data-uid="lnk8" id="link_HasPragma_Declaration"><path codeLine="4" d="M243.4734,180.9354 C244.9734,198.5954 245.51,204.94 247.02,222.68" fill="none" id="HasPragma-backto-Declaration" style="stroke:#181818;stroke-width:1;"/><polygon fill="none" points="241.95,163,237.4949,181.4432,249.4519,180.4276,241.95,163" style="stroke:#181818;stroke-width:1;"/></g><!--reverse link Declaration to OperatorDeclarationDefinitionBase--><g class="link" data-entity-1="Declaration" data-entity-2="OperatorDeclarationDefinitionBase" data-source-line="5" data-uid="lnk10" id="link_Declaration_OperatorDeclarationDefinitionBase"><path codeLine="5" d="M223.8922,286.0212 C212.2322,303.6812 206.11,312.94 194.4,330.68" fill="none" id="Declaration-backto-OperatorDeclarationDefinitionBase" style="stroke:#181818;stroke-width:1;"/><polygon fill="none" points="233.81,271,218.8852,282.7153,228.8993,289.3272,233.81,271" style="stroke:#181818;stroke-width:1;"/></g><!--reverse link ModuleItem to OperatorDeclarationDefinitionBase--><g class="link" data-entity-1="ModuleItem" data-entity-2="OperatorDeclarationDefinitionBase" data-source-line="6" data-uid="lnk11" id="link_ModuleItem_OperatorDeclarationDefinitionBase"><path codeLine="6" d="M134.7924,286.0838 C146.2924,303.7438 152.27,312.94 163.82,330.68" fill="none" id="ModuleItem-backto-OperatorDeclarationDefinitionBase" style="stroke:#181818;stroke-width:1;"/><polygon fill="none" points="124.97,271,129.7645,289.3579,139.8203,282.8097,124.97,271" style="stroke:#181818;stroke-width:1;"/></g><!--reverse link OperatorDeclarationDefinitionBase to OperatorDeclaration--><g class="link" data-entity-1="OperatorDeclarationDefinitionBase" data-entity-2="OperatorDeclaration" data-source-line="7" data-uid="lnk13" id="link_OperatorDeclarationDefinitionBase_OperatorDeclaration"><path codeLine="7" d="M146.9507,392.5321 C131.4607,410.1921 122.02,420.94 106.46,438.68" fill="none" id="OperatorDeclarationDefinitionBase-backto-OperatorDeclaration" style="stroke:#181818;stroke-width:1;"/><polygon fill="none" points="158.82,379,142.4399,388.5757,151.4614,396.4886,158.82,379" style="stroke:#181818;stroke-width:1;"/></g><!--reverse link OperatorDeclarationDefinitionBase to OperatorDefinition--><g class="link" data-entity-1="OperatorDeclarationDefinitionBase" data-entity-2="OperatorDefinition" data-source-line="8" data-uid="lnk15" id="link_OperatorDeclarationDefinitionBase_OperatorDefinition"><path codeLine="8" d="M211.3424,392.4677 C227.0024,410.1277 236.59,420.94 252.32,438.68" fill="none" id="OperatorDeclarationDefinitionBase-backto-OperatorDefinition" style="stroke:#181818;stroke-width:1;"/><polygon fill="none" points="199.4,379,206.8532,396.4485,215.8317,388.4868,199.4,379" style="stroke:#181818;stroke-width:1;"/></g><!--SRC=[KrVmpKyfpKbLoCXCBKeiIiwev0ekJyppB4dDLR2fqTM5IeFuQ18UYSK1HOdfkObSS1P4mYKrEIUnAB4aCp-F2uaDaVGl05fJab-49E6IcfQPbmbYEIKMft8XB2HM1q4LE0qYNIjCZWi0]--></g></svg>