<svg xmlns="http://www.w3.org/2000/svg" xmlns:xlink="http://www.w3.org/1999/xlink" contentStyleType="text/css" height="896px" preserveAspectRatio="none" style="width:558px;height:896px;background:#FFFFFF;" version="1.1" viewBox="0 0 558 896" width="558px" zoomAndPan="magnify"><defs/><g><!--class StateMachine--><g id="elem_StateMachine"><rect fill="#F1F1F1" height="48" id="StateMachine" rx="2.5" ry="2.5" style="stroke:#181818;stroke-width:0.5;" width="117.6064" x="87" y="7"/><ellipse cx="102" cy="23" fill="#ADD1B2" rx="11" ry="11" style="stroke:#181818;stroke-width:1.0;"/><path d="M104.7656,18.875 Q104.9219,18.6563 105.1094,18.5469 Q105.2969,18.4375 105.5156,18.4375 Q105.8906,18.4375 106.125,18.7031 Q106.3594,18.9531 106.3594,19.5625 L106.3594,21.0156 Q106.3594,21.625 106.125,21.8906 Q105.8906,22.1563 105.5156,22.1563 Q105.1719,22.1563 104.9688,21.9531 Q104.7656,21.7656 104.6563,21.25 Q104.6094,20.8906 104.4219,20.7031 Q104.0938,20.3281 103.4844,20.1094 Q102.875,19.8906 102.25,19.8906 Q101.4844,19.8906 100.8438,20.2188 Q100.2188,20.5469 99.7188,21.2969 Q99.2344,22.0469 99.2344,23.0781 L99.2344,24.1719 Q99.2344,25.4063 100.125,26.2344 Q101.0156,27.0469 102.6094,27.0469 Q103.5469,27.0469 104.2031,26.7969 Q104.5938,26.6406 105.0156,26.2031 Q105.2813,25.9375 105.4219,25.8594 Q105.5781,25.7813 105.7813,25.7813 Q106.1094,25.7813 106.3594,26.0469 Q106.625,26.2969 106.625,26.6406 Q106.625,26.9844 106.2813,27.3906 Q105.7813,27.9688 104.9844,28.2969 Q103.9063,28.75 102.6094,28.75 Q101.0938,28.75 99.8906,28.125 Q98.9063,27.625 98.2188,26.5625 Q97.5313,25.4844 97.5313,24.2031 L97.5313,23.0469 Q97.5313,21.7188 98.1406,20.5781 Q98.7656,19.4219 99.8594,18.8125 Q100.9531,18.1875 102.1875,18.1875 Q102.9219,18.1875 103.5625,18.3594 Q104.2188,18.5156 104.7656,18.875 Z " fill="#000000"/><text fill="#000000" font-family="sans-serif" font-size="14" lengthAdjust="spacing" textLength="85.6064" x="116" y="28.7285">StateMachine</text><line style="stroke:#181818;stroke-width:0.5;" x1="88" x2="203.6064" y1="39" y2="39"/><line style="stroke:#181818;stroke-width:0.5;" x1="88" x2="203.6064" y1="47" y2="47"/></g><!--class StateMachineItem--><g id="elem_StateMachineItem"><rect fill="#F1F1F1" height="48" id="StateMachineItem" rx="2.5" ry="2.5" style="stroke:#181818;stroke-width:0.5;" width="144.834" x="73.5" y="136"/><ellipse cx="88.5" cy="152" fill="#ADD1B2" rx="11" ry="11" style="stroke:#181818;stroke-width:1.0;"/><path d="M91.2656,147.875 Q91.4219,147.6563 91.6094,147.5469 Q91.7969,147.4375 92.0156,147.4375 Q92.3906,147.4375 92.625,147.7031 Q92.8594,147.9531 92.8594,148.5625 L92.8594,150.0156 Q92.8594,150.625 92.625,150.8906 Q92.3906,151.1563 92.0156,151.1563 Q91.6719,151.1563 91.4688,150.9531 Q91.2656,150.7656 91.1563,150.25 Q91.1094,149.8906 90.9219,149.7031 Q90.5938,149.3281 89.9844,149.1094 Q89.375,148.8906 88.75,148.8906 Q87.9844,148.8906 87.3438,149.2188 Q86.7188,149.5469 86.2188,150.2969 Q85.7344,151.0469 85.7344,152.0781 L85.7344,153.1719 Q85.7344,154.4063 86.625,155.2344 Q87.5156,156.0469 89.1094,156.0469 Q90.0469,156.0469 90.7031,155.7969 Q91.0938,155.6406 91.5156,155.2031 Q91.7813,154.9375 91.9219,154.8594 Q92.0781,154.7813 92.2813,154.7813 Q92.6094,154.7813 92.8594,155.0469 Q93.125,155.2969 93.125,155.6406 Q93.125,155.9844 92.7813,156.3906 Q92.2813,156.9688 91.4844,157.2969 Q90.4063,157.75 89.1094,157.75 Q87.5938,157.75 86.3906,157.125 Q85.4063,156.625 84.7188,155.5625 Q84.0313,154.4844 84.0313,153.2031 L84.0313,152.0469 Q84.0313,150.7188 84.6406,149.5781 Q85.2656,148.4219 86.3594,147.8125 Q87.4531,147.1875 88.6875,147.1875 Q89.4219,147.1875 90.0625,147.3594 Q90.7188,147.5156 91.2656,147.875 Z " fill="#000000"/><text fill="#000000" font-family="sans-serif" font-size="14" lengthAdjust="spacing" textLength="112.834" x="102.5" y="157.7285">StateMachineItem</text><line style="stroke:#181818;stroke-width:0.5;" x1="74.5" x2="217.334" y1="168" y2="168"/><line style="stroke:#181818;stroke-width:0.5;" x1="74.5" x2="217.334" y1="176" y2="176"/></g><polygon fill="none" points="145.9613,184,152.9981,203.9871,138.9982,204.0129" style="stroke:#181818;stroke-width:1.0;"/><line style="stroke:#181818;stroke-width:1.0;" x1="145.9982" x2="146" y1="204" y2="205"/><line style="stroke:#181818;stroke-width:1.0;" x1="145.9621" x2="146" y1="136" y2="115.82"/><!--class State--><g id="elem_State"><rect fill="#F1F1F1" height="48" id="State" rx="2.5" ry="2.5" style="stroke:#181818;stroke-width:0.5;" width="64.6895" x="33.5" y="282.5"/><ellipse cx="48.5" cy="298.5" fill="#ADD1B2" rx="11" ry="11" style="stroke:#181818;stroke-width:1.0;"/><path d="M51.2656,294.375 Q51.4219,294.1563 51.6094,294.0469 Q51.7969,293.9375 52.0156,293.9375 Q52.3906,293.9375 52.625,294.2031 Q52.8594,294.4531 52.8594,295.0625 L52.8594,296.5156 Q52.8594,297.125 52.625,297.3906 Q52.3906,297.6563 52.0156,297.6563 Q51.6719,297.6563 51.4688,297.4531 Q51.2656,297.2656 51.1563,296.75 Q51.1094,296.3906 50.9219,296.2031 Q50.5938,295.8281 49.9844,295.6094 Q49.375,295.3906 48.75,295.3906 Q47.9844,295.3906 47.3438,295.7188 Q46.7188,296.0469 46.2188,296.7969 Q45.7344,297.5469 45.7344,298.5781 L45.7344,299.6719 Q45.7344,300.9063 46.625,301.7344 Q47.5156,302.5469 49.1094,302.5469 Q50.0469,302.5469 50.7031,302.2969 Q51.0938,302.1406 51.5156,301.7031 Q51.7813,301.4375 51.9219,301.3594 Q52.0781,301.2813 52.2813,301.2813 Q52.6094,301.2813 52.8594,301.5469 Q53.125,301.7969 53.125,302.1406 Q53.125,302.4844 52.7813,302.8906 Q52.2813,303.4688 51.4844,303.7969 Q50.4063,304.25 49.1094,304.25 Q47.5938,304.25 46.3906,303.625 Q45.4063,303.125 44.7188,302.0625 Q44.0313,300.9844 44.0313,299.7031 L44.0313,298.5469 Q44.0313,297.2188 44.6406,296.0781 Q45.2656,294.9219 46.3594,294.3125 Q47.4531,293.6875 48.6875,293.6875 Q49.4219,293.6875 50.0625,293.8594 Q50.7188,294.0156 51.2656,294.375 Z " fill="#000000"/><text fill="#000000" font-family="sans-serif" font-size="14" lengthAdjust="spacing" textLength="32.6895" x="62.5" y="304.2285">State</text><line style="stroke:#181818;stroke-width:0.5;" x1="34.5" x2="97.1895" y1="314.5" y2="314.5"/><line style="stroke:#181818;stroke-width:0.5;" x1="34.5" x2="97.1895" y1="322.5" y2="322.5"/></g><!--class ScopeSection--><g id="elem_ScopeSection"><rect fill="#F1F1F1" height="48" id="ScopeSection" rx="2.5" ry="2.5" style="stroke:#181818;stroke-width:0.5;" width="118.3926" x="7" y="409"/><ellipse cx="22" cy="425" fill="#ADD1B2" rx="11" ry="11" style="stroke:#181818;stroke-width:1.0;"/><path d="M24.7656,420.875 Q24.9219,420.6563 25.1094,420.5469 Q25.2969,420.4375 25.5156,420.4375 Q25.8906,420.4375 26.125,420.7031 Q26.3594,420.9531 26.3594,421.5625 L26.3594,423.0156 Q26.3594,423.625 26.125,423.8906 Q25.8906,424.1563 25.5156,424.1563 Q25.1719,424.1563 24.9688,423.9531 Q24.7656,423.7656 24.6563,423.25 Q24.6094,422.8906 24.4219,422.7031 Q24.0938,422.3281 23.4844,422.1094 Q22.875,421.8906 22.25,421.8906 Q21.4844,421.8906 20.8438,422.2188 Q20.2188,422.5469 19.7188,423.2969 Q19.2344,424.0469 19.2344,425.0781 L19.2344,426.1719 Q19.2344,427.4063 20.125,428.2344 Q21.0156,429.0469 22.6094,429.0469 Q23.5469,429.0469 24.2031,428.7969 Q24.5938,428.6406 25.0156,428.2031 Q25.2813,427.9375 25.4219,427.8594 Q25.5781,427.7813 25.7813,427.7813 Q26.1094,427.7813 26.3594,428.0469 Q26.625,428.2969 26.625,428.6406 Q26.625,428.9844 26.2813,429.3906 Q25.7813,429.9688 24.9844,430.2969 Q23.9063,430.75 22.6094,430.75 Q21.0938,430.75 19.8906,430.125 Q18.9063,429.625 18.2188,428.5625 Q17.5313,427.4844 17.5313,426.2031 L17.5313,425.0469 Q17.5313,423.7188 18.1406,422.5781 Q18.7656,421.4219 19.8594,420.8125 Q20.9531,420.1875 22.1875,420.1875 Q22.9219,420.1875 23.5625,420.3594 Q24.2188,420.5156 24.7656,420.875 Z " fill="#000000"/><text fill="#000000" font-family="sans-serif" font-size="14" lengthAdjust="spacing" textLength="86.3926" x="36" y="430.7285">ScopeSection</text><line style="stroke:#181818;stroke-width:0.5;" x1="8" x2="124.3926" y1="441" y2="441"/><line style="stroke:#181818;stroke-width:0.5;" x1="8" x2="124.3926" y1="449" y2="449"/></g><!--class TransitionDecl--><g id="elem_TransitionDecl"><rect codeLine="12" fill="#F1F1F1" height="83.2188" id="TransitionDecl" rx="2.5" ry="2.5" style="stroke:#181818;stroke-width:0.5;" width="185.5234" x="134" y="265"/><ellipse cx="177.8215" cy="281" fill="#ADD1B2" rx="11" ry="11" style="stroke:#181818;stroke-width:1.0;"/><path d="M180.5872,276.875 Q180.7434,276.6563 180.9309,276.5469 Q181.1184,276.4375 181.3372,276.4375 Q181.7122,276.4375 181.9465,276.7031 Q182.1809,276.9531 182.1809,277.5625 L182.1809,279.0156 Q182.1809,279.625 181.9465,279.8906 Q181.7122,280.1563 181.3372,280.1563 Q180.9934,280.1563 180.7903,279.9531 Q180.5872,279.7656 180.4778,279.25 Q180.4309,278.8906 180.2434,278.7031 Q179.9153,278.3281 179.3059,278.1094 Q178.6965,277.8906 178.0715,277.8906 Q177.3059,277.8906 176.6653,278.2188 Q176.0403,278.5469 175.5403,279.2969 Q175.0559,280.0469 175.0559,281.0781 L175.0559,282.1719 Q175.0559,283.4063 175.9465,284.2344 Q176.8372,285.0469 178.4309,285.0469 Q179.3684,285.0469 180.0247,284.7969 Q180.4153,284.6406 180.8372,284.2031 Q181.1028,283.9375 181.2434,283.8594 Q181.3997,283.7813 181.6028,283.7813 Q181.9309,283.7813 182.1809,284.0469 Q182.4465,284.2969 182.4465,284.6406 Q182.4465,284.9844 182.1028,285.3906 Q181.6028,285.9688 180.8059,286.2969 Q179.7278,286.75 178.4309,286.75 Q176.9153,286.75 175.7122,286.125 Q174.7278,285.625 174.0403,284.5625 Q173.3528,283.4844 173.3528,282.2031 L173.3528,281.0469 Q173.3528,279.7188 173.9622,278.5781 Q174.5872,277.4219 175.6809,276.8125 Q176.7747,276.1875 178.009,276.1875 Q178.7434,276.1875 179.384,276.3594 Q180.0403,276.5156 180.5872,276.875 Z " fill="#000000"/><text fill="#000000" font-family="sans-serif" font-size="14" lengthAdjust="spacing" textLength="89.4756" x="198.2263" y="286.7285">TransitionDecl</text><line style="stroke:#181818;stroke-width:0.5;" x1="135" x2="318.5234" y1="297" y2="297"/><text fill="#000000" font-family="sans-serif" font-size="14" lengthAdjust="spacing" textLength="91.0547" x="140" y="315.5332">is_strong: bool</text><text fill="#000000" font-family="sans-serif" font-size="14" lengthAdjust="spacing" textLength="173.5234" x="140" y="333.1426">priority: Union[Literal, None]</text><line style="stroke:#181818;stroke-width:0.5;" x1="135" x2="318.5234" y1="340.2188" y2="340.2188"/></g><!--class Transition--><g id="elem_Transition"><rect fill="#F1F1F1" height="48" id="Transition" rx="2.5" ry="2.5" style="stroke:#181818;stroke-width:0.5;" width="93.4688" x="180.5" y="409"/><ellipse cx="195.5" cy="425" fill="#ADD1B2" rx="11" ry="11" style="stroke:#181818;stroke-width:1.0;"/><path d="M198.2656,420.875 Q198.4219,420.6563 198.6094,420.5469 Q198.7969,420.4375 199.0156,420.4375 Q199.3906,420.4375 199.625,420.7031 Q199.8594,420.9531 199.8594,421.5625 L199.8594,423.0156 Q199.8594,423.625 199.625,423.8906 Q199.3906,424.1563 199.0156,424.1563 Q198.6719,424.1563 198.4688,423.9531 Q198.2656,423.7656 198.1563,423.25 Q198.1094,422.8906 197.9219,422.7031 Q197.5938,422.3281 196.9844,422.1094 Q196.375,421.8906 195.75,421.8906 Q194.9844,421.8906 194.3438,422.2188 Q193.7188,422.5469 193.2188,423.2969 Q192.7344,424.0469 192.7344,425.0781 L192.7344,426.1719 Q192.7344,427.4063 193.625,428.2344 Q194.5156,429.0469 196.1094,429.0469 Q197.0469,429.0469 197.7031,428.7969 Q198.0938,428.6406 198.5156,428.2031 Q198.7813,427.9375 198.9219,427.8594 Q199.0781,427.7813 199.2813,427.7813 Q199.6094,427.7813 199.8594,428.0469 Q200.125,428.2969 200.125,428.6406 Q200.125,428.9844 199.7813,429.3906 Q199.2813,429.9688 198.4844,430.2969 Q197.4063,430.75 196.1094,430.75 Q194.5938,430.75 193.3906,430.125 Q192.4063,429.625 191.7188,428.5625 Q191.0313,427.4844 191.0313,426.2031 L191.0313,425.0469 Q191.0313,423.7188 191.6406,422.5781 Q192.2656,421.4219 193.3594,420.8125 Q194.4531,420.1875 195.6875,420.1875 Q196.4219,420.1875 197.0625,420.3594 Q197.7188,420.5156 198.2656,420.875 Z " fill="#000000"/><text fill="#000000" font-family="sans-serif" font-size="14" lengthAdjust="spacing" textLength="61.4688" x="209.5" y="430.7285">Transition</text><line style="stroke:#181818;stroke-width:0.5;" x1="181.5" x2="272.9688" y1="441" y2="441"/><line style="stroke:#181818;stroke-width:0.5;" x1="181.5" x2="272.9688" y1="449" y2="449"/></g><!--class Arrow--><g id="elem_Arrow"><rect codeLine="21" fill="#F1F1F1" height="100.8281" id="Arrow" rx="2.5" ry="2.5" style="stroke:#181818;stroke-width:0.5;" width="152.8682" x="150.5" y="518"/><ellipse cx="204.4048" cy="534" fill="#ADD1B2" rx="11" ry="11" style="stroke:#181818;stroke-width:1.0;"/><path d="M207.1704,529.875 Q207.3267,529.6563 207.5142,529.5469 Q207.7017,529.4375 207.9204,529.4375 Q208.2954,529.4375 208.5298,529.7031 Q208.7642,529.9531 208.7642,530.5625 L208.7642,532.0156 Q208.7642,532.625 208.5298,532.8906 Q208.2954,533.1563 207.9204,533.1563 Q207.5767,533.1563 207.3735,532.9531 Q207.1704,532.7656 207.061,532.25 Q207.0142,531.8906 206.8267,531.7031 Q206.4985,531.3281 205.8892,531.1094 Q205.2798,530.8906 204.6548,530.8906 Q203.8892,530.8906 203.2485,531.2188 Q202.6235,531.5469 202.1235,532.2969 Q201.6392,533.0469 201.6392,534.0781 L201.6392,535.1719 Q201.6392,536.4063 202.5298,537.2344 Q203.4204,538.0469 205.0142,538.0469 Q205.9517,538.0469 206.6079,537.7969 Q206.9985,537.6406 207.4204,537.2031 Q207.686,536.9375 207.8267,536.8594 Q207.9829,536.7813 208.186,536.7813 Q208.5142,536.7813 208.7642,537.0469 Q209.0298,537.2969 209.0298,537.6406 Q209.0298,537.9844 208.686,538.3906 Q208.186,538.9688 207.3892,539.2969 Q206.311,539.75 205.0142,539.75 Q203.4985,539.75 202.2954,539.125 Q201.311,538.625 200.6235,537.5625 Q199.936,536.4844 199.936,535.2031 L199.936,534.0469 Q199.936,532.7188 200.5454,531.5781 Q201.1704,530.4219 202.2642,529.8125 Q203.3579,529.1875 204.5923,529.1875 Q205.3267,529.1875 205.9673,529.3594 Q206.6235,529.5156 207.1704,529.875 Z " fill="#000000"/><text fill="#000000" font-family="sans-serif" font-size="14" lengthAdjust="spacing" textLength="36.5586" x="224.9048" y="539.7285">Arrow</text><line style="stroke:#181818;stroke-width:0.5;" x1="151.5" x2="302.3682" y1="550" y2="550"/><text fill="#000000" font-family="sans-serif" font-size="14" lengthAdjust="spacing" textLength="98.8271" x="156.5" y="568.5332">is_resume: bool</text><text fill="#000000" font-family="sans-serif" font-size="14" lengthAdjust="spacing" textLength="91.8203" x="156.5" y="586.1426">is_restart: bool</text><text fill="#000000" font-family="sans-serif" font-size="14" lengthAdjust="spacing" textLength="140.8682" x="156.5" y="603.752">target_id: Identification</text><line style="stroke:#181818;stroke-width:0.5;" x1="151.5" x2="302.3682" y1="610.8281" y2="610.8281"/></g><!--class Scope--><g id="elem_Scope"><rect fill="#F1F1F1" height="48" id="Scope" rx="2.5" ry="2.5" style="stroke:#181818;stroke-width:0.5;" width="71.6963" x="155" y="697"/><ellipse cx="170" cy="713" fill="#ADD1B2" rx="11" ry="11" style="stroke:#181818;stroke-width:1.0;"/><path d="M172.7656,708.875 Q172.9219,708.6563 173.1094,708.5469 Q173.2969,708.4375 173.5156,708.4375 Q173.8906,708.4375 174.125,708.7031 Q174.3594,708.9531 174.3594,709.5625 L174.3594,711.0156 Q174.3594,711.625 174.125,711.8906 Q173.8906,712.1563 173.5156,712.1563 Q173.1719,712.1563 172.9688,711.9531 Q172.7656,711.7656 172.6563,711.25 Q172.6094,710.8906 172.4219,710.7031 Q172.0938,710.3281 171.4844,710.1094 Q170.875,709.8906 170.25,709.8906 Q169.4844,709.8906 168.8438,710.2188 Q168.2188,710.5469 167.7188,711.2969 Q167.2344,712.0469 167.2344,713.0781 L167.2344,714.1719 Q167.2344,715.4063 168.125,716.2344 Q169.0156,717.0469 170.6094,717.0469 Q171.5469,717.0469 172.2031,716.7969 Q172.5938,716.6406 173.0156,716.2031 Q173.2813,715.9375 173.4219,715.8594 Q173.5781,715.7813 173.7813,715.7813 Q174.1094,715.7813 174.3594,716.0469 Q174.625,716.2969 174.625,716.6406 Q174.625,716.9844 174.2813,717.3906 Q173.7813,717.9688 172.9844,718.2969 Q171.9063,718.75 170.6094,718.75 Q169.0938,718.75 167.8906,718.125 Q166.9063,717.625 166.2188,716.5625 Q165.5313,715.4844 165.5313,714.2031 L165.5313,713.0469 Q165.5313,711.7188 166.1406,710.5781 Q166.7656,709.4219 167.8594,708.8125 Q168.9531,708.1875 170.1875,708.1875 Q170.9219,708.1875 171.5625,708.3594 Q172.2188,708.5156 172.7656,708.875 Z " fill="#000000"/><text fill="#000000" font-family="sans-serif" font-size="14" lengthAdjust="spacing" textLength="39.6963" x="184" y="718.7285">Scope</text><line style="stroke:#181818;stroke-width:0.5;" x1="156" x2="225.6963" y1="729" y2="729"/><line style="stroke:#181818;stroke-width:0.5;" x1="156" x2="225.6963" y1="737" y2="737"/></g><!--class Target--><g id="elem_Target"><rect fill="#F1F1F1" height="48" id="Target" rx="2.5" ry="2.5" style="stroke:#181818;stroke-width:0.5;" width="72.4619" x="22" y="697"/><ellipse cx="37" cy="713" fill="#ADD1B2" rx="11" ry="11" style="stroke:#181818;stroke-width:1.0;"/><path d="M39.7656,708.875 Q39.9219,708.6563 40.1094,708.5469 Q40.2969,708.4375 40.5156,708.4375 Q40.8906,708.4375 41.125,708.7031 Q41.3594,708.9531 41.3594,709.5625 L41.3594,711.0156 Q41.3594,711.625 41.125,711.8906 Q40.8906,712.1563 40.5156,712.1563 Q40.1719,712.1563 39.9688,711.9531 Q39.7656,711.7656 39.6563,711.25 Q39.6094,710.8906 39.4219,710.7031 Q39.0938,710.3281 38.4844,710.1094 Q37.875,709.8906 37.25,709.8906 Q36.4844,709.8906 35.8438,710.2188 Q35.2188,710.5469 34.7188,711.2969 Q34.2344,712.0469 34.2344,713.0781 L34.2344,714.1719 Q34.2344,715.4063 35.125,716.2344 Q36.0156,717.0469 37.6094,717.0469 Q38.5469,717.0469 39.2031,716.7969 Q39.5938,716.6406 40.0156,716.2031 Q40.2813,715.9375 40.4219,715.8594 Q40.5781,715.7813 40.7813,715.7813 Q41.1094,715.7813 41.3594,716.0469 Q41.625,716.2969 41.625,716.6406 Q41.625,716.9844 41.2813,717.3906 Q40.7813,717.9688 39.9844,718.2969 Q38.9063,718.75 37.6094,718.75 Q36.0938,718.75 34.8906,718.125 Q33.9063,717.625 33.2188,716.5625 Q32.5313,715.4844 32.5313,714.2031 L32.5313,713.0469 Q32.5313,711.7188 33.1406,710.5781 Q33.7656,709.4219 34.8594,708.8125 Q35.9531,708.1875 37.1875,708.1875 Q37.9219,708.1875 38.5625,708.3594 Q39.2188,708.5156 39.7656,708.875 Z " fill="#000000"/><text fill="#000000" font-family="sans-serif" font-size="14" lengthAdjust="spacing" textLength="40.4619" x="51" y="718.7285">Target</text><line style="stroke:#181818;stroke-width:0.5;" x1="23" x2="93.4619" y1="729" y2="729"/><line style="stroke:#181818;stroke-width:0.5;" x1="23" x2="93.4619" y1="737" y2="737"/></g><!--class ForkPriorityList--><g id="elem_ForkPriorityList"><rect fill="#F1F1F1" height="48" id="ForkPriorityList" rx="2.5" ry="2.5" style="stroke:#181818;stroke-width:0.5;" width="125.3447" x="359.5" y="697"/><ellipse cx="374.5" cy="713" fill="#ADD1B2" rx="11" ry="11" style="stroke:#181818;stroke-width:1.0;"/><path d="M377.2656,708.875 Q377.4219,708.6563 377.6094,708.5469 Q377.7969,708.4375 378.0156,708.4375 Q378.3906,708.4375 378.625,708.7031 Q378.8594,708.9531 378.8594,709.5625 L378.8594,711.0156 Q378.8594,711.625 378.625,711.8906 Q378.3906,712.1563 378.0156,712.1563 Q377.6719,712.1563 377.4688,711.9531 Q377.2656,711.7656 377.1563,711.25 Q377.1094,710.8906 376.9219,710.7031 Q376.5938,710.3281 375.9844,710.1094 Q375.375,709.8906 374.75,709.8906 Q373.9844,709.8906 373.3438,710.2188 Q372.7188,710.5469 372.2188,711.2969 Q371.7344,712.0469 371.7344,713.0781 L371.7344,714.1719 Q371.7344,715.4063 372.625,716.2344 Q373.5156,717.0469 375.1094,717.0469 Q376.0469,717.0469 376.7031,716.7969 Q377.0938,716.6406 377.5156,716.2031 Q377.7813,715.9375 377.9219,715.8594 Q378.0781,715.7813 378.2813,715.7813 Q378.6094,715.7813 378.8594,716.0469 Q379.125,716.2969 379.125,716.6406 Q379.125,716.9844 378.7813,717.3906 Q378.2813,717.9688 377.4844,718.2969 Q376.4063,718.75 375.1094,718.75 Q373.5938,718.75 372.3906,718.125 Q371.4063,717.625 370.7188,716.5625 Q370.0313,715.4844 370.0313,714.2031 L370.0313,713.0469 Q370.0313,711.7188 370.6406,710.5781 Q371.2656,709.4219 372.3594,708.8125 Q373.4531,708.1875 374.6875,708.1875 Q375.4219,708.1875 376.0625,708.3594 Q376.7188,708.5156 377.2656,708.875 Z " fill="#000000"/><text fill="#000000" font-family="sans-serif" font-size="14" lengthAdjust="spacing" textLength="93.3447" x="388.5" y="718.7285">ForkPriorityList</text><line style="stroke:#181818;stroke-width:0.5;" x1="360.5" x2="483.8447" y1="729" y2="729"/><line style="stroke:#181818;stroke-width:0.5;" x1="360.5" x2="483.8447" y1="737" y2="737"/></g><g id="elem_GMN22"><path d="M339,555.5 L339,581.8516 A0,0 0 0 0 339,581.8516 L439.16,581.8516 L425.55,696.74 L447.16,581.8516 L551.4199,581.8516 A0,0 0 0 0 551.4199,581.8516 L551.4199,565.5 L541.4199,555.5 L339,555.5 A0,0 0 0 0 339,555.5 " fill="#FEFFDD" style="stroke:#181818;stroke-width:0.5;"/><path d="M541.4199,555.5 L541.4199,565.5 L551.4199,565.5 L541.4199,555.5 " fill="#FEFFDD" style="stroke:#181818;stroke-width:0.5;"/><text fill="#000000" font-family="sans-serif" font-size="13" lengthAdjust="spacing" textLength="191.4199" x="345" y="573.9951">ForkPriorityList derives from Fork</text></g><!--class ForkPriority--><g id="elem_ForkPriority"><rect codeLine="38" fill="#F1F1F1" height="83.2188" id="ForkPriority" rx="2.5" ry="2.5" style="stroke:#181818;stroke-width:0.5;" width="185.5234" x="233" y="806"/><ellipse cx="285.7324" cy="822" fill="#ADD1B2" rx="11" ry="11" style="stroke:#181818;stroke-width:1.0;"/><path d="M288.498,817.875 Q288.6543,817.6563 288.8418,817.5469 Q289.0293,817.4375 289.248,817.4375 Q289.623,817.4375 289.8574,817.7031 Q290.0918,817.9531 290.0918,818.5625 L290.0918,820.0156 Q290.0918,820.625 289.8574,820.8906 Q289.623,821.1563 289.248,821.1563 Q288.9043,821.1563 288.7012,820.9531 Q288.498,820.7656 288.3887,820.25 Q288.3418,819.8906 288.1543,819.7031 Q287.8262,819.3281 287.2168,819.1094 Q286.6074,818.8906 285.9824,818.8906 Q285.2168,818.8906 284.5762,819.2188 Q283.9512,819.5469 283.4512,820.2969 Q282.9668,821.0469 282.9668,822.0781 L282.9668,823.1719 Q282.9668,824.4063 283.8574,825.2344 Q284.748,826.0469 286.3418,826.0469 Q287.2793,826.0469 287.9355,825.7969 Q288.3262,825.6406 288.748,825.2031 Q289.0137,824.9375 289.1543,824.8594 Q289.3105,824.7813 289.5137,824.7813 Q289.8418,824.7813 290.0918,825.0469 Q290.3574,825.2969 290.3574,825.6406 Q290.3574,825.9844 290.0137,826.3906 Q289.5137,826.9688 288.7168,827.2969 Q287.6387,827.75 286.3418,827.75 Q284.8262,827.75 283.623,827.125 Q282.6387,826.625 281.9512,825.5625 Q281.2637,824.4844 281.2637,823.2031 L281.2637,822.0469 Q281.2637,820.7188 281.873,819.5781 Q282.498,818.4219 283.5918,817.8125 Q284.6855,817.1875 285.9199,817.1875 Q286.6543,817.1875 287.2949,817.3594 Q287.9512,817.5156 288.498,817.875 Z " fill="#000000"/><text fill="#000000" font-family="sans-serif" font-size="14" lengthAdjust="spacing" textLength="71.5586" x="306.2324" y="827.7285">ForkPriority</text><line style="stroke:#181818;stroke-width:0.5;" x1="234" x2="417.5234" y1="838" y2="838"/><text fill="#000000" font-family="sans-serif" font-size="14" lengthAdjust="spacing" textLength="173.5234" x="239" y="856.5332">priority: Union[Literal, None]</text><text fill="#000000" font-family="sans-serif" font-size="14" lengthAdjust="spacing" textLength="101.9375" x="239" y="874.1426">is_if_arrow: bool</text><line style="stroke:#181818;stroke-width:0.5;" x1="234" x2="417.5234" y1="881.2188" y2="881.2188"/></g><!--reverse link StateMachine to StateMachineItem--><g id="link_StateMachine_StateMachineItem"><path codeLine="4" d="M146,67.29 C146,84.19 146,95.55 146,115.82 " fill="none" id="StateMachine-backto-StateMachineItem" style="stroke:#181818;stroke-width:1.0;"/><polygon fill="#181818" points="146,55.29,142,61.29,146,67.29,150,61.29,146,55.29" style="stroke:#181818;stroke-width:1.0;"/></g><!--reverse link StateMachineItem to State--><g id="link_StateMachineItem_State"><path codeLine="6" d="M146,205 C146,205 107.97,252.77 84.35,282.44 " fill="none" id="StateMachineItem-backto-State" style="stroke:#181818;stroke-width:1.0;"/></g><!--reverse link State to ScopeSection--><g id="link_State_ScopeSection"><path codeLine="8" d="M66,342.63 C66,364.99 66,386.68 66,409 " fill="none" id="State-backto-ScopeSection" style="stroke:#181818;stroke-width:1.0;"/><polygon fill="#181818" points="66,330.63,62,336.63,66,342.63,70,336.63,66,330.63" style="stroke:#181818;stroke-width:1.0;"/><text fill="#000000" font-family="sans-serif" font-size="13" lengthAdjust="spacing" textLength="5.0591" x="60.3166" y="398.3402">*</text></g><!--reverse link StateMachineItem to TransitionDecl--><g id="link_StateMachineItem_TransitionDecl"><path codeLine="10" d="M146,205 C146,205 171.81,237.02 194.29,264.91 " fill="none" id="StateMachineItem-backto-TransitionDecl" style="stroke:#181818;stroke-width:1.0;"/></g><!--reverse link TransitionDecl to Transition--><g id="link_TransitionDecl_Transition"><path codeLine="17" d="M227,360.27 C227,380.41 227,391.97 227,408.96 " fill="none" id="TransitionDecl-backto-Transition" style="stroke:#181818;stroke-width:1.0;"/><polygon fill="#181818" points="227,348.27,223,354.27,227,360.27,231,354.27,227,348.27" style="stroke:#181818;stroke-width:1.0;"/><text fill="#000000" font-family="sans-serif" font-size="13" lengthAdjust="spacing" textLength="7.23" x="219.0725" y="398.2899">1</text></g><!--reverse link Transition to Arrow--><g id="link_Transition_Arrow"><path codeLine="19" d="M227,469.25 C227,485.99 227,497.18 227,517.98 " fill="none" id="Transition-backto-Arrow" style="stroke:#181818;stroke-width:1.0;"/><polygon fill="#181818" points="227,457.25,223,463.25,227,469.25,231,463.25,227,457.25" style="stroke:#181818;stroke-width:1.0;"/></g><!--reverse link Arrow to Scope--><g id="link_Arrow_Scope"><path codeLine="28" d="M212.3213,630.8715 C206.0613,657.0715 201.46,676.29 196.53,696.9 " fill="none" id="Arrow-backto-Scope" style="stroke:#181818;stroke-width:1.0;"/><polygon fill="#181818" points="215.11,619.2,209.8252,624.1062,212.3213,630.8715,217.6062,625.9653,215.11,619.2" style="stroke:#181818;stroke-width:1.0;"/><polygon fill="#000000" points="211.837,663.0386,216.7992,654.9252,211.0826,653.558,211.837,663.0386" style="stroke:#000000;stroke-width:1.0;"/><text fill="#000000" font-family="sans-serif" font-size="13" lengthAdjust="spacing" textLength="33.249" x="222" y="663.4951">guard</text></g><!--reverse link Arrow to Scope--><g id="link_Arrow_Scope"><path codeLine="29" d="M158.7579,628.647 C151.2579,637.667 152.38,638.39 148,649 C141.02,665.92 151.55,683.53 163.93,696.97 " fill="none" id="Arrow-backto-Scope-1" style="stroke:#181818;stroke-width:1.0;"/><polygon fill="#181818" points="166.43,619.42,159.5182,621.4761,158.7579,628.647,165.6696,626.5909,166.43,619.42" style="stroke:#181818;stroke-width:1.0;"/><polygon fill="#000000" points="153.3774,663.1615,155.6252,653.9204,149.7641,654.3641,153.3774,663.1615" style="stroke:#000000;stroke-width:1.0;"/><text fill="#000000" font-family="sans-serif" font-size="13" lengthAdjust="spacing" textLength="34.6899" x="162" y="663.4951">action</text></g><!--reverse link Arrow to Target--><g id="link_Arrow_Target"><path codeLine="31" d="M139.7198,608.9486 C118.2298,621.0786 106.67,630.53 90,649 C77.68,662.65 69.42,681.84 64.38,696.82 " fill="none" id="Arrow-backto-Target" style="stroke:#181818;stroke-width:1.0;"/><polygon fill="#181818" points="150.17,603.05,142.9787,602.5159,139.7198,608.9486,146.9111,609.4827,150.17,603.05" style="stroke:#181818;stroke-width:1.0;"/><polygon fill="#000000" points="91.7455,661.9716,99.8641,657.0178,95.4018,653.192,91.7455,661.9716" style="stroke:#000000;stroke-width:1.0;"/><text fill="#000000" font-family="sans-serif" font-size="13" lengthAdjust="spacing" textLength="33.2427" x="104" y="663.4951">target</text></g><!--reverse link Arrow to ForkPriorityList--><g id="link_Arrow_ForkPriorityList"><path codeLine="32" d="M302.5265,626.3876 C315.4965,636.2376 319.43,639.28 332,649 C352.47,664.82 375.36,682.88 392.93,696.83 " fill="none" id="Arrow-backto-ForkPriorityList" style="stroke:#181818;stroke-width:1.0;"/><polygon fill="#181818" points="292.97,619.13,295.329,625.9443,302.5265,626.3876,300.1675,619.5733,292.97,619.13" style="stroke:#181818;stroke-width:1.0;"/><polygon fill="#000000" points="363.944,661.249,358.6156,653.3713,355.0028,658.0078,363.944,661.249" style="stroke:#000000;stroke-width:1.0;"/><text fill="#000000" font-family="sans-serif" font-size="13" lengthAdjust="spacing" textLength="21.6709" x="369" y="663.4951">fork</text></g><!--reverse link ForkPriorityList to ForkPriority--><g id="link_ForkPriorityList_ForkPriority"><path codeLine="43" d="M396.8411,754.6319 C383.7211,771.6419 372.87,785.72 357.34,805.86 " fill="none" id="ForkPriorityList-backto-ForkPriority" style="stroke:#181818;stroke-width:1.0;"/><polygon fill="#181818" points="404.17,745.13,397.3382,747.438,396.8411,754.6319,403.6728,752.3239,404.17,745.13" style="stroke:#181818;stroke-width:1.0;"/><text fill="#000000" font-family="sans-serif" font-size="13" lengthAdjust="spacing" textLength="5.0591" x="357.161" y="795.1445">*</text></g><!--reverse link ForkPriority to Arrow--><g id="link_ForkPriority_Arrow"><path codeLine="45" d="M311.6823,794.3206 C300.3123,754.0106 284.66,702.28 264,649 C260.2,639.21 255.76,628.92 251.31,619.11 " fill="none" id="ForkPriority-backto-Arrow" style="stroke:#181818;stroke-width:1.0;"/><polygon fill="#181818" points="314.94,805.87,317.161,799.0094,311.6823,794.3206,309.4614,801.1812,314.94,805.87" style="stroke:#181818;stroke-width:1.0;"/></g><!--SRC=[XLB1IiD04BtlLmoz2CKUz1X444GeL15IJo9bJIRfq6Odp6uKKV_TsMrYqnRnjllUcvd7cpc3FDY07gmh8OXrddmWTb1YiRLYuziRlo7Nwg-1MhXhvswDGi6w0k7IcDJXtXPhSWZJsGp6m3nWSoY925nz3RgUJ8MJwGJoWblCiOYJ_ofS9gDHSQismHZrwlqn_6a0WFpA1s5NP_3Al8rGAyHg_oE39wVQvmK55BizXmTs-6A-ZJbgbAnTJ4Rznv94tuZm- -0ZVNx72_gkmVtu7HIiX3sclnh3YieCvYMwG1KLAVlenkpwfMHZE1dKdPKIhay9cs9JPaGjK- -idt5GTSUoUUpJMEZYCwWKYUMETIM1M-3gH6ME0JqMeJSzeaguINA3Uawnnn39k2GbyyyIKanKhMpqskUaKPnC7gvcJ1pAzklv0G00]--></g></svg>