<svg xmlns="http://www.w3.org/2000/svg" xmlns:xlink="http://www.w3.org/1999/xlink" contentStyleType="text/css" height="278px" preserveAspectRatio="none" style="width:405px;height:278px;background:#FFFFFF;" version="1.1" viewBox="0 0 405 278" width="405px" zoomAndPan="magnify"><defs/><g><!--class Expression--><g id="elem_Expression"><rect fill="#F1F1F1" height="48" id="Expression" rx="2.5" ry="2.5" style="stroke:#181818;stroke-width:0.5;" width="101.2549" x="149.5" y="7"/><ellipse cx="164.5" cy="23" fill="#ADD1B2" rx="11" ry="11" style="stroke:#181818;stroke-width:1.0;"/><path d="M167.2656,18.875 Q167.4219,18.6563 167.6094,18.5469 Q167.7969,18.4375 168.0156,18.4375 Q168.3906,18.4375 168.625,18.7031 Q168.8594,18.9531 168.8594,19.5625 L168.8594,21.0156 Q168.8594,21.625 168.625,21.8906 Q168.3906,22.1563 168.0156,22.1563 Q167.6719,22.1563 167.4688,21.9531 Q167.2656,21.7656 167.1563,21.25 Q167.1094,20.8906 166.9219,20.7031 Q166.5938,20.3281 165.9844,20.1094 Q165.375,19.8906 164.75,19.8906 Q163.9844,19.8906 163.3438,20.2188 Q162.7188,20.5469 162.2188,21.2969 Q161.7344,22.0469 161.7344,23.0781 L161.7344,24.1719 Q161.7344,25.4063 162.625,26.2344 Q163.5156,27.0469 165.1094,27.0469 Q166.0469,27.0469 166.7031,26.7969 Q167.0938,26.6406 167.5156,26.2031 Q167.7813,25.9375 167.9219,25.8594 Q168.0781,25.7813 168.2813,25.7813 Q168.6094,25.7813 168.8594,26.0469 Q169.125,26.2969 169.125,26.6406 Q169.125,26.9844 168.7813,27.3906 Q168.2813,27.9688 167.4844,28.2969 Q166.4063,28.75 165.1094,28.75 Q163.5938,28.75 162.3906,28.125 Q161.4063,27.625 160.7188,26.5625 Q160.0313,25.4844 160.0313,24.2031 L160.0313,23.0469 Q160.0313,21.7188 160.6406,20.5781 Q161.2656,19.4219 162.3594,18.8125 Q163.4531,18.1875 164.6875,18.1875 Q165.4219,18.1875 166.0625,18.3594 Q166.7188,18.5156 167.2656,18.875 Z " fill="#000000"/><text fill="#000000" font-family="sans-serif" font-size="14" lengthAdjust="spacing" textLength="69.2549" x="178.5" y="28.7285">Expression</text><line style="stroke:#181818;stroke-width:0.5;" x1="150.5" x2="249.7549" y1="39" y2="39"/><line style="stroke:#181818;stroke-width:0.5;" x1="150.5" x2="249.7549" y1="47" y2="47"/></g><!--class UnaryExpr--><g id="elem_UnaryExpr"><rect fill="#F1F1F1" height="48" id="UnaryExpr" rx="2.5" ry="2.5" style="stroke:#181818;stroke-width:0.5;" width="98.1309" x="17" y="115"/><ellipse cx="32" cy="131" fill="#ADD1B2" rx="11" ry="11" style="stroke:#181818;stroke-width:1.0;"/><path d="M34.7656,126.875 Q34.9219,126.6563 35.1094,126.5469 Q35.2969,126.4375 35.5156,126.4375 Q35.8906,126.4375 36.125,126.7031 Q36.3594,126.9531 36.3594,127.5625 L36.3594,129.0156 Q36.3594,129.625 36.125,129.8906 Q35.8906,130.1563 35.5156,130.1563 Q35.1719,130.1563 34.9688,129.9531 Q34.7656,129.7656 34.6563,129.25 Q34.6094,128.8906 34.4219,128.7031 Q34.0938,128.3281 33.4844,128.1094 Q32.875,127.8906 32.25,127.8906 Q31.4844,127.8906 30.8438,128.2188 Q30.2188,128.5469 29.7188,129.2969 Q29.2344,130.0469 29.2344,131.0781 L29.2344,132.1719 Q29.2344,133.4063 30.125,134.2344 Q31.0156,135.0469 32.6094,135.0469 Q33.5469,135.0469 34.2031,134.7969 Q34.5938,134.6406 35.0156,134.2031 Q35.2813,133.9375 35.4219,133.8594 Q35.5781,133.7813 35.7813,133.7813 Q36.1094,133.7813 36.3594,134.0469 Q36.625,134.2969 36.625,134.6406 Q36.625,134.9844 36.2813,135.3906 Q35.7813,135.9688 34.9844,136.2969 Q33.9063,136.75 32.6094,136.75 Q31.0938,136.75 29.8906,136.125 Q28.9063,135.625 28.2188,134.5625 Q27.5313,133.4844 27.5313,132.2031 L27.5313,131.0469 Q27.5313,129.7188 28.1406,128.5781 Q28.7656,127.4219 29.8594,126.8125 Q30.9531,126.1875 32.1875,126.1875 Q32.9219,126.1875 33.5625,126.3594 Q34.2188,126.5156 34.7656,126.875 Z " fill="#000000"/><text fill="#000000" font-family="sans-serif" font-size="14" lengthAdjust="spacing" textLength="66.1309" x="46" y="136.7285">UnaryExpr</text><line style="stroke:#181818;stroke-width:0.5;" x1="18" x2="114.1309" y1="147" y2="147"/><line style="stroke:#181818;stroke-width:0.5;" x1="18" x2="114.1309" y1="155" y2="155"/></g><!--class BinaryExpr--><g id="elem_BinaryExpr"><rect fill="#F1F1F1" height="48" id="BinaryExpr" rx="2.5" ry="2.5" style="stroke:#181818;stroke-width:0.5;" width="100.4688" x="150" y="115"/><ellipse cx="165" cy="131" fill="#ADD1B2" rx="11" ry="11" style="stroke:#181818;stroke-width:1.0;"/><path d="M167.7656,126.875 Q167.9219,126.6563 168.1094,126.5469 Q168.2969,126.4375 168.5156,126.4375 Q168.8906,126.4375 169.125,126.7031 Q169.3594,126.9531 169.3594,127.5625 L169.3594,129.0156 Q169.3594,129.625 169.125,129.8906 Q168.8906,130.1563 168.5156,130.1563 Q168.1719,130.1563 167.9688,129.9531 Q167.7656,129.7656 167.6563,129.25 Q167.6094,128.8906 167.4219,128.7031 Q167.0938,128.3281 166.4844,128.1094 Q165.875,127.8906 165.25,127.8906 Q164.4844,127.8906 163.8438,128.2188 Q163.2188,128.5469 162.7188,129.2969 Q162.2344,130.0469 162.2344,131.0781 L162.2344,132.1719 Q162.2344,133.4063 163.125,134.2344 Q164.0156,135.0469 165.6094,135.0469 Q166.5469,135.0469 167.2031,134.7969 Q167.5938,134.6406 168.0156,134.2031 Q168.2813,133.9375 168.4219,133.8594 Q168.5781,133.7813 168.7813,133.7813 Q169.1094,133.7813 169.3594,134.0469 Q169.625,134.2969 169.625,134.6406 Q169.625,134.9844 169.2813,135.3906 Q168.7813,135.9688 167.9844,136.2969 Q166.9063,136.75 165.6094,136.75 Q164.0938,136.75 162.8906,136.125 Q161.9063,135.625 161.2188,134.5625 Q160.5313,133.4844 160.5313,132.2031 L160.5313,131.0469 Q160.5313,129.7188 161.1406,128.5781 Q161.7656,127.4219 162.8594,126.8125 Q163.9531,126.1875 165.1875,126.1875 Q165.9219,126.1875 166.5625,126.3594 Q167.2188,126.5156 167.7656,126.875 Z " fill="#000000"/><text fill="#000000" font-family="sans-serif" font-size="14" lengthAdjust="spacing" textLength="68.4688" x="179" y="136.7285">BinaryExpr</text><line style="stroke:#181818;stroke-width:0.5;" x1="151" x2="249.4688" y1="147" y2="147"/><line style="stroke:#181818;stroke-width:0.5;" x1="151" x2="249.4688" y1="155" y2="155"/></g><!--class NumericCast--><g id="elem_NumericCast"><rect fill="#F1F1F1" height="48" id="NumericCast" rx="2.5" ry="2.5" style="stroke:#181818;stroke-width:0.5;" width="112.9033" x="285.5" y="115"/><ellipse cx="300.5" cy="131" fill="#ADD1B2" rx="11" ry="11" style="stroke:#181818;stroke-width:1.0;"/><path d="M303.2656,126.875 Q303.4219,126.6563 303.6094,126.5469 Q303.7969,126.4375 304.0156,126.4375 Q304.3906,126.4375 304.625,126.7031 Q304.8594,126.9531 304.8594,127.5625 L304.8594,129.0156 Q304.8594,129.625 304.625,129.8906 Q304.3906,130.1563 304.0156,130.1563 Q303.6719,130.1563 303.4688,129.9531 Q303.2656,129.7656 303.1563,129.25 Q303.1094,128.8906 302.9219,128.7031 Q302.5938,128.3281 301.9844,128.1094 Q301.375,127.8906 300.75,127.8906 Q299.9844,127.8906 299.3438,128.2188 Q298.7188,128.5469 298.2188,129.2969 Q297.7344,130.0469 297.7344,131.0781 L297.7344,132.1719 Q297.7344,133.4063 298.625,134.2344 Q299.5156,135.0469 301.1094,135.0469 Q302.0469,135.0469 302.7031,134.7969 Q303.0938,134.6406 303.5156,134.2031 Q303.7813,133.9375 303.9219,133.8594 Q304.0781,133.7813 304.2813,133.7813 Q304.6094,133.7813 304.8594,134.0469 Q305.125,134.2969 305.125,134.6406 Q305.125,134.9844 304.7813,135.3906 Q304.2813,135.9688 303.4844,136.2969 Q302.4063,136.75 301.1094,136.75 Q299.5938,136.75 298.3906,136.125 Q297.4063,135.625 296.7188,134.5625 Q296.0313,133.4844 296.0313,132.2031 L296.0313,131.0469 Q296.0313,129.7188 296.6406,128.5781 Q297.2656,127.4219 298.3594,126.8125 Q299.4531,126.1875 300.6875,126.1875 Q301.4219,126.1875 302.0625,126.3594 Q302.7188,126.5156 303.2656,126.875 Z " fill="#000000"/><text fill="#000000" font-family="sans-serif" font-size="14" lengthAdjust="spacing" textLength="80.9033" x="314.5" y="136.7285">NumericCast</text><line style="stroke:#181818;stroke-width:0.5;" x1="286.5" x2="397.4033" y1="147" y2="147"/><line style="stroke:#181818;stroke-width:0.5;" x1="286.5" x2="397.4033" y1="155" y2="155"/></g><!--class NAryOperator--><g id="elem_NAryOperator"><rect fill="#F1F1F1" height="48" id="NAryOperator" rx="2.5" ry="2.5" style="stroke:#181818;stroke-width:0.5;" width="118.3584" x="7" y="223"/><ellipse cx="22" cy="239" fill="#ADD1B2" rx="11" ry="11" style="stroke:#181818;stroke-width:1.0;"/><path d="M24.7656,234.875 Q24.9219,234.6563 25.1094,234.5469 Q25.2969,234.4375 25.5156,234.4375 Q25.8906,234.4375 26.125,234.7031 Q26.3594,234.9531 26.3594,235.5625 L26.3594,237.0156 Q26.3594,237.625 26.125,237.8906 Q25.8906,238.1563 25.5156,238.1563 Q25.1719,238.1563 24.9688,237.9531 Q24.7656,237.7656 24.6563,237.25 Q24.6094,236.8906 24.4219,236.7031 Q24.0938,236.3281 23.4844,236.1094 Q22.875,235.8906 22.25,235.8906 Q21.4844,235.8906 20.8438,236.2188 Q20.2188,236.5469 19.7188,237.2969 Q19.2344,238.0469 19.2344,239.0781 L19.2344,240.1719 Q19.2344,241.4063 20.125,242.2344 Q21.0156,243.0469 22.6094,243.0469 Q23.5469,243.0469 24.2031,242.7969 Q24.5938,242.6406 25.0156,242.2031 Q25.2813,241.9375 25.4219,241.8594 Q25.5781,241.7813 25.7813,241.7813 Q26.1094,241.7813 26.3594,242.0469 Q26.625,242.2969 26.625,242.6406 Q26.625,242.9844 26.2813,243.3906 Q25.7813,243.9688 24.9844,244.2969 Q23.9063,244.75 22.6094,244.75 Q21.0938,244.75 19.8906,244.125 Q18.9063,243.625 18.2188,242.5625 Q17.5313,241.4844 17.5313,240.2031 L17.5313,239.0469 Q17.5313,237.7188 18.1406,236.5781 Q18.7656,235.4219 19.8594,234.8125 Q20.9531,234.1875 22.1875,234.1875 Q22.9219,234.1875 23.5625,234.3594 Q24.2188,234.5156 24.7656,234.875 Z " fill="#000000"/><text fill="#000000" font-family="sans-serif" font-size="14" lengthAdjust="spacing" textLength="86.3584" x="36" y="244.7285">NAryOperator</text><line style="stroke:#181818;stroke-width:0.5;" x1="8" x2="124.3584" y1="255" y2="255"/><line style="stroke:#181818;stroke-width:0.5;" x1="8" x2="124.3584" y1="263" y2="263"/></g><g id="elem_GMN11"><path d="M160.5,234 L160.5,243 L125.12,247 L160.5,251 L160.5,260.3516 A0,0 0 0 0 160.5,260.3516 L323.8525,260.3516 A0,0 0 0 0 323.8525,260.3516 L323.8525,244 L313.8525,234 L160.5,234 A0,0 0 0 0 160.5,234 " fill="#FEFFDD" style="stroke:#181818;stroke-width:0.5;"/><path d="M313.8525,234 L313.8525,244 L323.8525,244 L313.8525,234 " fill="#FEFFDD" style="stroke:#181818;stroke-width:0.5;"/><text fill="#000000" font-family="sans-serif" font-size="13" lengthAdjust="spacing" textLength="23.1309" x="166.5" y="252.4951">See</text><a href="api/language/expressions/instance.html#ansys.scadeone.core.swan.OperatorExpression" target="_top" title="api/language/expressions/instance.html#ansys.scadeone.core.swan.OperatorExpression" xlink:actuate="onRequest" xlink:href="api/language/expressions/instance.html#ansys.scadeone.core.swan.OperatorExpression" xlink:show="new" xlink:title="api/language/expressions/instance.html#ansys.scadeone.core.swan.OperatorExpression" xlink:type="simple"><text fill="#0000FF" font-family="sans-serif" font-size="13" lengthAdjust="spacing" text-decoration="underline" textLength="115.6099" x="193.2427" y="252.4951">OperatorExpression</text></a></g><!--reverse link Expression to UnaryExpr--><g id="link_Expression_UnaryExpr"><path codeLine="2" d="M156.8041,66.1688 C134.4841,83.8288 117.91,96.94 95.48,114.68 " fill="none" id="Expression-backto-UnaryExpr" style="stroke:#181818;stroke-width:1.0;"/><polygon fill="none" points="170.92,55,153.0812,61.4635,160.527,70.8741,170.92,55" style="stroke:#181818;stroke-width:1.0;"/></g><!--reverse link Expression to BinaryExpr--><g id="link_Expression_BinaryExpr"><path codeLine="3" d="M200,73 C200,90.66 200,96.94 200,114.68 " fill="none" id="Expression-backto-BinaryExpr" style="stroke:#181818;stroke-width:1.0;"/><polygon fill="none" points="200,55,194,73,206,73,200,55" style="stroke:#181818;stroke-width:1.0;"/></g><!--reverse link Expression to NumericCast--><g id="link_Expression_NumericCast"><path codeLine="4" d="M245.2348,65.7668 C268.8948,83.4268 287,96.94 310.76,114.68 " fill="none" id="Expression-backto-NumericCast" style="stroke:#181818;stroke-width:1.0;"/><polygon fill="none" points="230.81,55,241.6459,70.5751,248.8238,60.9585,230.81,55" style="stroke:#181818;stroke-width:1.0;"/></g><!--link UnaryExpr to NAryOperator--><!--SRC=[VOun2y9038LtVqN0mQdNNLogkEeWJgL3k0jjeCsLv8eM_F5MnI8ePdpVutjPGQ6SceuI-mLCjx_sIcOS1JQtB8Epe8wFy2VTybzy63fIzZkqzEIp3BAouH18gZ2r2XsFFIcc-D98J0JATPFMS2A2iiIUynQb7h2cdEOLoraieNXoJUhQ9OgDvinZe2ZaV5HoTa5nR_t7WzzHLTq1]--></g></svg>