<svg xmlns="http://www.w3.org/2000/svg" xmlns:xlink="http://www.w3.org/1999/xlink" contentStyleType="text/css" height="477px" preserveAspectRatio="none" style="width:648px;height:477px;background:#FFFFFF;" version="1.1" viewBox="0 0 648 477" width="648px" zoomAndPan="magnify"><defs/><g><!--class Position--><g id="elem_Position"><rect codeLine="4" fill="#F1F1F1" height="48" id="Position" rx="2.5" ry="2.5" style="stroke:#181818;stroke-width:0.5;" width="81.8066" x="560" y="7"/><ellipse cx="575" cy="23" fill="#EB937F" rx="11" ry="11" style="stroke:#181818;stroke-width:1.0;"/><path d="M573.8594,23.7969 L573.8594,26.2969 L578.1875,26.2969 L578.1875,25.375 Q578.1875,24.7656 578.4219,24.5 Q578.6719,24.2344 579.0469,24.2344 Q579.4219,24.2344 579.6563,24.5 Q579.8906,24.7656 579.8906,25.375 L579.8906,28 L571.8906,28 Q571.2656,28 571,27.7656 Q570.75,27.5313 570.75,27.1406 Q570.75,26.7656 571.0156,26.5313 Q571.2813,26.2969 571.8906,26.2969 L572.1563,26.2969 L572.1563,19.6406 L571.8906,19.6406 Q571.2656,19.6406 571,19.4063 Q570.75,19.1719 570.75,18.7813 Q570.75,18.4063 571,18.1719 Q571.2656,17.9375 571.8906,17.9375 L579.5156,17.9375 L579.5156,20.5313 Q579.5156,21.1406 579.2813,21.4063 Q579.0625,21.6563 578.6719,21.6563 Q578.2969,21.6563 578.0625,21.4063 Q577.8281,21.1406 577.8281,20.5313 L577.8281,19.6406 L573.8594,19.6406 L573.8594,22.0938 L575.3438,22.0938 Q575.3438,21.4375 575.4688,21.25 Q575.7344,20.8438 576.2031,20.8438 Q576.5781,20.8438 576.8125,21.1094 Q577.0469,21.3594 577.0469,21.9688 L577.0469,23.9375 Q577.0469,24.4844 576.9219,24.6719 Q576.6563,25.0625 576.2031,25.0625 Q575.7344,25.0625 575.4688,24.6563 Q575.3438,24.4688 575.3438,23.7969 L573.8594,23.7969 Z " fill="#000000"/><text fill="#000000" font-family="sans-serif" font-size="14" lengthAdjust="spacing" textLength="49.8066" x="589" y="28.7285">Position</text><line style="stroke:#181818;stroke-width:0.5;" x1="561" x2="640.8066" y1="39" y2="39"/><line style="stroke:#181818;stroke-width:0.5;" x1="561" x2="640.8066" y1="47" y2="47"/></g><!--class DirectionType--><g id="elem_DirectionType"><rect codeLine="5" fill="#F1F1F1" height="48" id="DirectionType" rx="2.5" ry="2.5" style="stroke:#181818;stroke-width:0.5;" width="118.3652" x="375" y="173"/><ellipse cx="390" cy="189" fill="#EB937F" rx="11" ry="11" style="stroke:#181818;stroke-width:1.0;"/><path d="M388.8594,189.7969 L388.8594,192.2969 L393.1875,192.2969 L393.1875,191.375 Q393.1875,190.7656 393.4219,190.5 Q393.6719,190.2344 394.0469,190.2344 Q394.4219,190.2344 394.6563,190.5 Q394.8906,190.7656 394.8906,191.375 L394.8906,194 L386.8906,194 Q386.2656,194 386,193.7656 Q385.75,193.5313 385.75,193.1406 Q385.75,192.7656 386.0156,192.5313 Q386.2813,192.2969 386.8906,192.2969 L387.1563,192.2969 L387.1563,185.6406 L386.8906,185.6406 Q386.2656,185.6406 386,185.4063 Q385.75,185.1719 385.75,184.7813 Q385.75,184.4063 386,184.1719 Q386.2656,183.9375 386.8906,183.9375 L394.5156,183.9375 L394.5156,186.5313 Q394.5156,187.1406 394.2813,187.4063 Q394.0625,187.6563 393.6719,187.6563 Q393.2969,187.6563 393.0625,187.4063 Q392.8281,187.1406 392.8281,186.5313 L392.8281,185.6406 L388.8594,185.6406 L388.8594,188.0938 L390.3438,188.0938 Q390.3438,187.4375 390.4688,187.25 Q390.7344,186.8438 391.2031,186.8438 Q391.5781,186.8438 391.8125,187.1094 Q392.0469,187.3594 392.0469,187.9688 L392.0469,189.9375 Q392.0469,190.4844 391.9219,190.6719 Q391.6563,191.0625 391.2031,191.0625 Q390.7344,191.0625 390.4688,190.6563 Q390.3438,190.4688 390.3438,189.7969 L388.8594,189.7969 Z " fill="#000000"/><text fill="#000000" font-family="sans-serif" font-size="14" lengthAdjust="spacing" textLength="86.3652" x="404" y="194.7285">DirectionType</text><line style="stroke:#181818;stroke-width:0.5;" x1="376" x2="492.3652" y1="205" y2="205"/><line style="stroke:#181818;stroke-width:0.5;" x1="376" x2="492.3652" y1="213" y2="213"/></g><!--class OrientationType--><g id="elem_OrientationType"><rect codeLine="6" fill="#F1F1F1" height="48" id="OrientationType" rx="2.5" ry="2.5" style="stroke:#181818;stroke-width:0.5;" width="131.6064" x="368" y="256"/><ellipse cx="383" cy="272" fill="#EB937F" rx="11" ry="11" style="stroke:#181818;stroke-width:1.0;"/><path d="M381.8594,272.7969 L381.8594,275.2969 L386.1875,275.2969 L386.1875,274.375 Q386.1875,273.7656 386.4219,273.5 Q386.6719,273.2344 387.0469,273.2344 Q387.4219,273.2344 387.6563,273.5 Q387.8906,273.7656 387.8906,274.375 L387.8906,277 L379.8906,277 Q379.2656,277 379,276.7656 Q378.75,276.5313 378.75,276.1406 Q378.75,275.7656 379.0156,275.5313 Q379.2813,275.2969 379.8906,275.2969 L380.1563,275.2969 L380.1563,268.6406 L379.8906,268.6406 Q379.2656,268.6406 379,268.4063 Q378.75,268.1719 378.75,267.7813 Q378.75,267.4063 379,267.1719 Q379.2656,266.9375 379.8906,266.9375 L387.5156,266.9375 L387.5156,269.5313 Q387.5156,270.1406 387.2813,270.4063 Q387.0625,270.6563 386.6719,270.6563 Q386.2969,270.6563 386.0625,270.4063 Q385.8281,270.1406 385.8281,269.5313 L385.8281,268.6406 L381.8594,268.6406 L381.8594,271.0938 L383.3438,271.0938 Q383.3438,270.4375 383.4688,270.25 Q383.7344,269.8438 384.2031,269.8438 Q384.5781,269.8438 384.8125,270.1094 Q385.0469,270.3594 385.0469,270.9688 L385.0469,272.9375 Q385.0469,273.4844 384.9219,273.6719 Q384.6563,274.0625 384.2031,274.0625 Q383.7344,274.0625 383.4688,273.6563 Q383.3438,273.4688 383.3438,272.7969 L381.8594,272.7969 Z " fill="#000000"/><text fill="#000000" font-family="sans-serif" font-size="14" lengthAdjust="spacing" textLength="99.6064" x="397" y="277.7285">OrientationType</text><line style="stroke:#181818;stroke-width:0.5;" x1="369" x2="498.6064" y1="288" y2="288"/><line style="stroke:#181818;stroke-width:0.5;" x1="369" x2="498.6064" y1="296" y2="296"/></g><!--class DiagramPragma--><g id="elem_DiagramPragma"><rect fill="#F1F1F1" height="48" id="DiagramPragma" rx="2.5" ry="2.5" style="stroke:#181818;stroke-width:0.5;" width="133.9238" x="7" y="215"/><ellipse cx="22" cy="231" fill="#ADD1B2" rx="11" ry="11" style="stroke:#181818;stroke-width:1.0;"/><path d="M24.7656,226.875 Q24.9219,226.6563 25.1094,226.5469 Q25.2969,226.4375 25.5156,226.4375 Q25.8906,226.4375 26.125,226.7031 Q26.3594,226.9531 26.3594,227.5625 L26.3594,229.0156 Q26.3594,229.625 26.125,229.8906 Q25.8906,230.1563 25.5156,230.1563 Q25.1719,230.1563 24.9688,229.9531 Q24.7656,229.7656 24.6563,229.25 Q24.6094,228.8906 24.4219,228.7031 Q24.0938,228.3281 23.4844,228.1094 Q22.875,227.8906 22.25,227.8906 Q21.4844,227.8906 20.8438,228.2188 Q20.2188,228.5469 19.7188,229.2969 Q19.2344,230.0469 19.2344,231.0781 L19.2344,232.1719 Q19.2344,233.4063 20.125,234.2344 Q21.0156,235.0469 22.6094,235.0469 Q23.5469,235.0469 24.2031,234.7969 Q24.5938,234.6406 25.0156,234.2031 Q25.2813,233.9375 25.4219,233.8594 Q25.5781,233.7813 25.7813,233.7813 Q26.1094,233.7813 26.3594,234.0469 Q26.625,234.2969 26.625,234.6406 Q26.625,234.9844 26.2813,235.3906 Q25.7813,235.9688 24.9844,236.2969 Q23.9063,236.75 22.6094,236.75 Q21.0938,236.75 19.8906,236.125 Q18.9063,235.625 18.2188,234.5625 Q17.5313,233.4844 17.5313,232.2031 L17.5313,231.0469 Q17.5313,229.7188 18.1406,228.5781 Q18.7656,227.4219 19.8594,226.8125 Q20.9531,226.1875 22.1875,226.1875 Q22.9219,226.1875 23.5625,226.3594 Q24.2188,226.5156 24.7656,226.875 Z " fill="#000000"/><text fill="#000000" font-family="sans-serif" font-size="14" lengthAdjust="spacing" textLength="101.9238" x="36" y="236.7285">DiagramPragma</text><line style="stroke:#181818;stroke-width:0.5;" x1="8" x2="139.9238" y1="247" y2="247"/><line style="stroke:#181818;stroke-width:0.5;" x1="8" x2="139.9238" y1="255" y2="255"/></g><!--class Coordinates--><g id="elem_Coordinates"><rect fill="#F1F1F1" height="48" id="Coordinates" rx="2.5" ry="2.5" style="stroke:#181818;stroke-width:0.5;" width="107.4893" x="201" y="7"/><ellipse cx="216" cy="23" fill="#ADD1B2" rx="11" ry="11" style="stroke:#181818;stroke-width:1.0;"/><path d="M218.7656,18.875 Q218.9219,18.6563 219.1094,18.5469 Q219.2969,18.4375 219.5156,18.4375 Q219.8906,18.4375 220.125,18.7031 Q220.3594,18.9531 220.3594,19.5625 L220.3594,21.0156 Q220.3594,21.625 220.125,21.8906 Q219.8906,22.1563 219.5156,22.1563 Q219.1719,22.1563 218.9688,21.9531 Q218.7656,21.7656 218.6563,21.25 Q218.6094,20.8906 218.4219,20.7031 Q218.0938,20.3281 217.4844,20.1094 Q216.875,19.8906 216.25,19.8906 Q215.4844,19.8906 214.8438,20.2188 Q214.2188,20.5469 213.7188,21.2969 Q213.2344,22.0469 213.2344,23.0781 L213.2344,24.1719 Q213.2344,25.4063 214.125,26.2344 Q215.0156,27.0469 216.6094,27.0469 Q217.5469,27.0469 218.2031,26.7969 Q218.5938,26.6406 219.0156,26.2031 Q219.2813,25.9375 219.4219,25.8594 Q219.5781,25.7813 219.7813,25.7813 Q220.1094,25.7813 220.3594,26.0469 Q220.625,26.2969 220.625,26.6406 Q220.625,26.9844 220.2813,27.3906 Q219.7813,27.9688 218.9844,28.2969 Q217.9063,28.75 216.6094,28.75 Q215.0938,28.75 213.8906,28.125 Q212.9063,27.625 212.2188,26.5625 Q211.5313,25.4844 211.5313,24.2031 L211.5313,23.0469 Q211.5313,21.7188 212.1406,20.5781 Q212.7656,19.4219 213.8594,18.8125 Q214.9531,18.1875 216.1875,18.1875 Q216.9219,18.1875 217.5625,18.3594 Q218.2188,18.5156 218.7656,18.875 Z " fill="#000000"/><text fill="#000000" font-family="sans-serif" font-size="14" lengthAdjust="spacing" textLength="75.4893" x="230" y="28.7285">Coordinates</text><line style="stroke:#181818;stroke-width:0.5;" x1="202" x2="307.4893" y1="39" y2="39"/><line style="stroke:#181818;stroke-width:0.5;" x1="202" x2="307.4893" y1="47" y2="47"/></g><!--class Size--><g id="elem_Size"><rect fill="#F1F1F1" height="48" id="Size" rx="2.5" ry="2.5" style="stroke:#181818;stroke-width:0.5;" width="59.2344" x="225" y="90"/><ellipse cx="240" cy="106" fill="#ADD1B2" rx="11" ry="11" style="stroke:#181818;stroke-width:1.0;"/><path d="M242.7656,101.875 Q242.9219,101.6563 243.1094,101.5469 Q243.2969,101.4375 243.5156,101.4375 Q243.8906,101.4375 244.125,101.7031 Q244.3594,101.9531 244.3594,102.5625 L244.3594,104.0156 Q244.3594,104.625 244.125,104.8906 Q243.8906,105.1563 243.5156,105.1563 Q243.1719,105.1563 242.9688,104.9531 Q242.7656,104.7656 242.6563,104.25 Q242.6094,103.8906 242.4219,103.7031 Q242.0938,103.3281 241.4844,103.1094 Q240.875,102.8906 240.25,102.8906 Q239.4844,102.8906 238.8438,103.2188 Q238.2188,103.5469 237.7188,104.2969 Q237.2344,105.0469 237.2344,106.0781 L237.2344,107.1719 Q237.2344,108.4063 238.125,109.2344 Q239.0156,110.0469 240.6094,110.0469 Q241.5469,110.0469 242.2031,109.7969 Q242.5938,109.6406 243.0156,109.2031 Q243.2813,108.9375 243.4219,108.8594 Q243.5781,108.7813 243.7813,108.7813 Q244.1094,108.7813 244.3594,109.0469 Q244.625,109.2969 244.625,109.6406 Q244.625,109.9844 244.2813,110.3906 Q243.7813,110.9688 242.9844,111.2969 Q241.9063,111.75 240.6094,111.75 Q239.0938,111.75 237.8906,111.125 Q236.9063,110.625 236.2188,109.5625 Q235.5313,108.4844 235.5313,107.2031 L235.5313,106.0469 Q235.5313,104.7188 236.1406,103.5781 Q236.7656,102.4219 237.8594,101.8125 Q238.9531,101.1875 240.1875,101.1875 Q240.9219,101.1875 241.5625,101.3594 Q242.2188,101.5156 242.7656,101.875 Z " fill="#000000"/><text fill="#000000" font-family="sans-serif" font-size="14" lengthAdjust="spacing" textLength="27.2344" x="254" y="111.7285">Size</text><line style="stroke:#181818;stroke-width:0.5;" x1="226" x2="283.2344" y1="122" y2="122"/><line style="stroke:#181818;stroke-width:0.5;" x1="226" x2="283.2344" y1="130" y2="130"/></g><!--class Direction--><g id="elem_Direction"><rect fill="#F1F1F1" height="48" id="Direction" rx="2.5" ry="2.5" style="stroke:#181818;stroke-width:0.5;" width="87.2412" x="211" y="173"/><ellipse cx="226" cy="189" fill="#ADD1B2" rx="11" ry="11" style="stroke:#181818;stroke-width:1.0;"/><path d="M228.7656,184.875 Q228.9219,184.6563 229.1094,184.5469 Q229.2969,184.4375 229.5156,184.4375 Q229.8906,184.4375 230.125,184.7031 Q230.3594,184.9531 230.3594,185.5625 L230.3594,187.0156 Q230.3594,187.625 230.125,187.8906 Q229.8906,188.1563 229.5156,188.1563 Q229.1719,188.1563 228.9688,187.9531 Q228.7656,187.7656 228.6563,187.25 Q228.6094,186.8906 228.4219,186.7031 Q228.0938,186.3281 227.4844,186.1094 Q226.875,185.8906 226.25,185.8906 Q225.4844,185.8906 224.8438,186.2188 Q224.2188,186.5469 223.7188,187.2969 Q223.2344,188.0469 223.2344,189.0781 L223.2344,190.1719 Q223.2344,191.4063 224.125,192.2344 Q225.0156,193.0469 226.6094,193.0469 Q227.5469,193.0469 228.2031,192.7969 Q228.5938,192.6406 229.0156,192.2031 Q229.2813,191.9375 229.4219,191.8594 Q229.5781,191.7813 229.7813,191.7813 Q230.1094,191.7813 230.3594,192.0469 Q230.625,192.2969 230.625,192.6406 Q230.625,192.9844 230.2813,193.3906 Q229.7813,193.9688 228.9844,194.2969 Q227.9063,194.75 226.6094,194.75 Q225.0938,194.75 223.8906,194.125 Q222.9063,193.625 222.2188,192.5625 Q221.5313,191.4844 221.5313,190.2031 L221.5313,189.0469 Q221.5313,187.7188 222.1406,186.5781 Q222.7656,185.4219 223.8594,184.8125 Q224.9531,184.1875 226.1875,184.1875 Q226.9219,184.1875 227.5625,184.3594 Q228.2188,184.5156 228.7656,184.875 Z " fill="#000000"/><text fill="#000000" font-family="sans-serif" font-size="14" lengthAdjust="spacing" textLength="55.2412" x="240" y="194.7285">Direction</text><line style="stroke:#181818;stroke-width:0.5;" x1="212" x2="297.2412" y1="205" y2="205"/><line style="stroke:#181818;stroke-width:0.5;" x1="212" x2="297.2412" y1="213" y2="213"/></g><!--class Orientation--><g id="elem_Orientation"><rect fill="#F1F1F1" height="48" id="Orientation" rx="2.5" ry="2.5" style="stroke:#181818;stroke-width:0.5;" width="100.4824" x="204.5" y="256"/><ellipse cx="219.5" cy="272" fill="#ADD1B2" rx="11" ry="11" style="stroke:#181818;stroke-width:1.0;"/><path d="M222.2656,267.875 Q222.4219,267.6563 222.6094,267.5469 Q222.7969,267.4375 223.0156,267.4375 Q223.3906,267.4375 223.625,267.7031 Q223.8594,267.9531 223.8594,268.5625 L223.8594,270.0156 Q223.8594,270.625 223.625,270.8906 Q223.3906,271.1563 223.0156,271.1563 Q222.6719,271.1563 222.4688,270.9531 Q222.2656,270.7656 222.1563,270.25 Q222.1094,269.8906 221.9219,269.7031 Q221.5938,269.3281 220.9844,269.1094 Q220.375,268.8906 219.75,268.8906 Q218.9844,268.8906 218.3438,269.2188 Q217.7188,269.5469 217.2188,270.2969 Q216.7344,271.0469 216.7344,272.0781 L216.7344,273.1719 Q216.7344,274.4063 217.625,275.2344 Q218.5156,276.0469 220.1094,276.0469 Q221.0469,276.0469 221.7031,275.7969 Q222.0938,275.6406 222.5156,275.2031 Q222.7813,274.9375 222.9219,274.8594 Q223.0781,274.7813 223.2813,274.7813 Q223.6094,274.7813 223.8594,275.0469 Q224.125,275.2969 224.125,275.6406 Q224.125,275.9844 223.7813,276.3906 Q223.2813,276.9688 222.4844,277.2969 Q221.4063,277.75 220.1094,277.75 Q218.5938,277.75 217.3906,277.125 Q216.4063,276.625 215.7188,275.5625 Q215.0313,274.4844 215.0313,273.2031 L215.0313,272.0469 Q215.0313,270.7188 215.6406,269.5781 Q216.2656,268.4219 217.3594,267.8125 Q218.4531,267.1875 219.6875,267.1875 Q220.4219,267.1875 221.0625,267.3594 Q221.7188,267.5156 222.2656,267.875 Z " fill="#000000"/><text fill="#000000" font-family="sans-serif" font-size="14" lengthAdjust="spacing" textLength="68.4824" x="233.5" y="277.7285">Orientation</text><line style="stroke:#181818;stroke-width:0.5;" x1="205.5" x2="303.9824" y1="288" y2="288"/><line style="stroke:#181818;stroke-width:0.5;" x1="205.5" x2="303.9824" y1="296" y2="296"/></g><!--class PathInfo--><g id="elem_PathInfo"><rect fill="#F1F1F1" height="48" id="PathInfo" rx="2.5" ry="2.5" style="stroke:#181818;stroke-width:0.5;" width="84.1514" x="212.5" y="339"/><ellipse cx="227.5" cy="355" fill="#ADD1B2" rx="11" ry="11" style="stroke:#181818;stroke-width:1.0;"/><path d="M230.2656,350.875 Q230.4219,350.6563 230.6094,350.5469 Q230.7969,350.4375 231.0156,350.4375 Q231.3906,350.4375 231.625,350.7031 Q231.8594,350.9531 231.8594,351.5625 L231.8594,353.0156 Q231.8594,353.625 231.625,353.8906 Q231.3906,354.1563 231.0156,354.1563 Q230.6719,354.1563 230.4688,353.9531 Q230.2656,353.7656 230.1563,353.25 Q230.1094,352.8906 229.9219,352.7031 Q229.5938,352.3281 228.9844,352.1094 Q228.375,351.8906 227.75,351.8906 Q226.9844,351.8906 226.3438,352.2188 Q225.7188,352.5469 225.2188,353.2969 Q224.7344,354.0469 224.7344,355.0781 L224.7344,356.1719 Q224.7344,357.4063 225.625,358.2344 Q226.5156,359.0469 228.1094,359.0469 Q229.0469,359.0469 229.7031,358.7969 Q230.0938,358.6406 230.5156,358.2031 Q230.7813,357.9375 230.9219,357.8594 Q231.0781,357.7813 231.2813,357.7813 Q231.6094,357.7813 231.8594,358.0469 Q232.125,358.2969 232.125,358.6406 Q232.125,358.9844 231.7813,359.3906 Q231.2813,359.9688 230.4844,360.2969 Q229.4063,360.75 228.1094,360.75 Q226.5938,360.75 225.3906,360.125 Q224.4063,359.625 223.7188,358.5625 Q223.0313,357.4844 223.0313,356.2031 L223.0313,355.0469 Q223.0313,353.7188 223.6406,352.5781 Q224.2656,351.4219 225.3594,350.8125 Q226.4531,350.1875 227.6875,350.1875 Q228.4219,350.1875 229.0625,350.3594 Q229.7188,350.5156 230.2656,350.875 Z " fill="#000000"/><text fill="#000000" font-family="sans-serif" font-size="14" lengthAdjust="spacing" textLength="52.1514" x="241.5" y="360.7285">PathInfo</text><line style="stroke:#181818;stroke-width:0.5;" x1="213.5" x2="295.6514" y1="371" y2="371"/><line style="stroke:#181818;stroke-width:0.5;" x1="213.5" x2="295.6514" y1="379" y2="379"/></g><!--class Coordinate--><g id="elem_Coordinate"><rect fill="#F1F1F1" height="48" id="Coordinate" rx="2.5" ry="2.5" style="stroke:#181818;stroke-width:0.5;" width="100.4893" x="384" y="7"/><ellipse cx="399" cy="23" fill="#ADD1B2" rx="11" ry="11" style="stroke:#181818;stroke-width:1.0;"/><path d="M401.7656,18.875 Q401.9219,18.6563 402.1094,18.5469 Q402.2969,18.4375 402.5156,18.4375 Q402.8906,18.4375 403.125,18.7031 Q403.3594,18.9531 403.3594,19.5625 L403.3594,21.0156 Q403.3594,21.625 403.125,21.8906 Q402.8906,22.1563 402.5156,22.1563 Q402.1719,22.1563 401.9688,21.9531 Q401.7656,21.7656 401.6563,21.25 Q401.6094,20.8906 401.4219,20.7031 Q401.0938,20.3281 400.4844,20.1094 Q399.875,19.8906 399.25,19.8906 Q398.4844,19.8906 397.8438,20.2188 Q397.2188,20.5469 396.7188,21.2969 Q396.2344,22.0469 396.2344,23.0781 L396.2344,24.1719 Q396.2344,25.4063 397.125,26.2344 Q398.0156,27.0469 399.6094,27.0469 Q400.5469,27.0469 401.2031,26.7969 Q401.5938,26.6406 402.0156,26.2031 Q402.2813,25.9375 402.4219,25.8594 Q402.5781,25.7813 402.7813,25.7813 Q403.1094,25.7813 403.3594,26.0469 Q403.625,26.2969 403.625,26.6406 Q403.625,26.9844 403.2813,27.3906 Q402.7813,27.9688 401.9844,28.2969 Q400.9063,28.75 399.6094,28.75 Q398.0938,28.75 396.8906,28.125 Q395.9063,27.625 395.2188,26.5625 Q394.5313,25.4844 394.5313,24.2031 L394.5313,23.0469 Q394.5313,21.7188 395.1406,20.5781 Q395.7656,19.4219 396.8594,18.8125 Q397.9531,18.1875 399.1875,18.1875 Q399.9219,18.1875 400.5625,18.3594 Q401.2188,18.5156 401.7656,18.875 Z " fill="#000000"/><text fill="#000000" font-family="sans-serif" font-size="14" lengthAdjust="spacing" textLength="68.4893" x="413" y="28.7285">Coordinate</text><line style="stroke:#181818;stroke-width:0.5;" x1="385" x2="483.4893" y1="39" y2="39"/><line style="stroke:#181818;stroke-width:0.5;" x1="385" x2="483.4893" y1="47" y2="47"/></g><!--class WireAnchor--><g id="elem_WireAnchor"><rect fill="#F1F1F1" height="48" id="WireAnchor" rx="2.5" ry="2.5" style="stroke:#181818;stroke-width:0.5;" width="105.1309" x="381.5" y="339"/><ellipse cx="396.5" cy="355" fill="#ADD1B2" rx="11" ry="11" style="stroke:#181818;stroke-width:1.0;"/><path d="M399.2656,350.875 Q399.4219,350.6563 399.6094,350.5469 Q399.7969,350.4375 400.0156,350.4375 Q400.3906,350.4375 400.625,350.7031 Q400.8594,350.9531 400.8594,351.5625 L400.8594,353.0156 Q400.8594,353.625 400.625,353.8906 Q400.3906,354.1563 400.0156,354.1563 Q399.6719,354.1563 399.4688,353.9531 Q399.2656,353.7656 399.1563,353.25 Q399.1094,352.8906 398.9219,352.7031 Q398.5938,352.3281 397.9844,352.1094 Q397.375,351.8906 396.75,351.8906 Q395.9844,351.8906 395.3438,352.2188 Q394.7188,352.5469 394.2188,353.2969 Q393.7344,354.0469 393.7344,355.0781 L393.7344,356.1719 Q393.7344,357.4063 394.625,358.2344 Q395.5156,359.0469 397.1094,359.0469 Q398.0469,359.0469 398.7031,358.7969 Q399.0938,358.6406 399.5156,358.2031 Q399.7813,357.9375 399.9219,357.8594 Q400.0781,357.7813 400.2813,357.7813 Q400.6094,357.7813 400.8594,358.0469 Q401.125,358.2969 401.125,358.6406 Q401.125,358.9844 400.7813,359.3906 Q400.2813,359.9688 399.4844,360.2969 Q398.4063,360.75 397.1094,360.75 Q395.5938,360.75 394.3906,360.125 Q393.4063,359.625 392.7188,358.5625 Q392.0313,357.4844 392.0313,356.2031 L392.0313,355.0469 Q392.0313,353.7188 392.6406,352.5781 Q393.2656,351.4219 394.3594,350.8125 Q395.4531,350.1875 396.6875,350.1875 Q397.4219,350.1875 398.0625,350.3594 Q398.7188,350.5156 399.2656,350.875 Z " fill="#000000"/><text fill="#000000" font-family="sans-serif" font-size="14" lengthAdjust="spacing" textLength="73.1309" x="410.5" y="360.7285">WireAnchor</text><line style="stroke:#181818;stroke-width:0.5;" x1="382.5" x2="485.6309" y1="371" y2="371"/><line style="stroke:#181818;stroke-width:0.5;" x1="382.5" x2="485.6309" y1="379" y2="379"/></g><!--class WirePath--><g id="elem_WirePath"><rect fill="#F1F1F1" height="48" id="WirePath" rx="2.5" ry="2.5" style="stroke:#181818;stroke-width:0.5;" width="89.5723" x="389" y="422"/><ellipse cx="404" cy="438" fill="#ADD1B2" rx="11" ry="11" style="stroke:#181818;stroke-width:1.0;"/><path d="M406.7656,433.875 Q406.9219,433.6563 407.1094,433.5469 Q407.2969,433.4375 407.5156,433.4375 Q407.8906,433.4375 408.125,433.7031 Q408.3594,433.9531 408.3594,434.5625 L408.3594,436.0156 Q408.3594,436.625 408.125,436.8906 Q407.8906,437.1563 407.5156,437.1563 Q407.1719,437.1563 406.9688,436.9531 Q406.7656,436.7656 406.6563,436.25 Q406.6094,435.8906 406.4219,435.7031 Q406.0938,435.3281 405.4844,435.1094 Q404.875,434.8906 404.25,434.8906 Q403.4844,434.8906 402.8438,435.2188 Q402.2188,435.5469 401.7188,436.2969 Q401.2344,437.0469 401.2344,438.0781 L401.2344,439.1719 Q401.2344,440.4063 402.125,441.2344 Q403.0156,442.0469 404.6094,442.0469 Q405.5469,442.0469 406.2031,441.7969 Q406.5938,441.6406 407.0156,441.2031 Q407.2813,440.9375 407.4219,440.8594 Q407.5781,440.7813 407.7813,440.7813 Q408.1094,440.7813 408.3594,441.0469 Q408.625,441.2969 408.625,441.6406 Q408.625,441.9844 408.2813,442.3906 Q407.7813,442.9688 406.9844,443.2969 Q405.9063,443.75 404.6094,443.75 Q403.0938,443.75 401.8906,443.125 Q400.9063,442.625 400.2188,441.5625 Q399.5313,440.4844 399.5313,439.2031 L399.5313,438.0469 Q399.5313,436.7188 400.1406,435.5781 Q400.7656,434.4219 401.8594,433.8125 Q402.9531,433.1875 404.1875,433.1875 Q404.9219,433.1875 405.5625,433.3594 Q406.2188,433.5156 406.7656,433.875 Z " fill="#000000"/><text fill="#000000" font-family="sans-serif" font-size="14" lengthAdjust="spacing" textLength="57.5723" x="418" y="443.7285">WirePath</text><line style="stroke:#181818;stroke-width:0.5;" x1="390" x2="477.5723" y1="454" y2="454"/><line style="stroke:#181818;stroke-width:0.5;" x1="390" x2="477.5723" y1="462" y2="462"/></g><!--reverse link DiagramPragma to Coordinates--><g id="link_DiagramPragma_Coordinates"><path codeLine="8" d="M52,202.73 C52,147.86 52,31 52,31 C52,31 140.77,31 200.77,31 " fill="none" id="DiagramPragma-backto-Coordinates" style="stroke:#181818;stroke-width:1.0;"/><polygon fill="#181818" points="52,214.73,56,208.73,52,202.73,48,208.73,52,214.73" style="stroke:#181818;stroke-width:1.0;"/><text fill="#000000" font-family="sans-serif" font-size="13" lengthAdjust="spacing" textLength="67.209" x="125.7156" y="45.2488">coordinates</text></g><!--reverse link DiagramPragma to Size--><g id="link_DiagramPragma_Size"><path codeLine="9" d="M97,202.9 C97,166.58 97,114 97,114 C97,114 179.25,114 224.88,114 " fill="none" id="DiagramPragma-backto-Size" style="stroke:#181818;stroke-width:1.0;"/><polygon fill="#181818" points="97,214.9,101,208.9,97,202.9,93,208.9,97,214.9" style="stroke:#181818;stroke-width:1.0;"/><text fill="#000000" font-family="sans-serif" font-size="13" lengthAdjust="spacing" textLength="23.1182" x="193.7731" y="129.1047">size</text></g><!--reverse link DiagramPragma to Direction--><g id="link_DiagramPragma_Direction"><path codeLine="10" d="M153.14,238.5 C204.65,238.5 255,238.5 255,238.5 C255,238.5 255,230.27 255,221.14 " fill="none" id="DiagramPragma-backto-Direction" style="stroke:#181818;stroke-width:1.0;"/><polygon fill="#181818" points="141.14,238.5,147.14,242.5,153.14,238.5,147.14,234.5,141.14,238.5" style="stroke:#181818;stroke-width:1.0;"/><text fill="#000000" font-family="sans-serif" font-size="13" lengthAdjust="spacing" textLength="49.1372" x="200.1373" y="242.5121">direction</text></g><!--reverse link DiagramPragma to Orientation--><g id="link_DiagramPragma_Orientation"><path codeLine="11" d="M153.21,259.5 C174.16,259.5 184.88,259.5 204.44,259.5 " fill="none" id="DiagramPragma-backto-Orientation" style="stroke:#181818;stroke-width:1.0;"/><polygon fill="#181818" points="141.21,259.5,147.21,263.5,153.21,259.5,147.21,255.5,141.21,259.5" style="stroke:#181818;stroke-width:1.0;"/><text fill="#000000" font-family="sans-serif" font-size="13" lengthAdjust="spacing" textLength="60.709" x="135.5823" y="272.3307">orientation</text></g><!--reverse link DiagramPragma to PathInfo--><g id="link_DiagramPragma_PathInfo"><path codeLine="12" d="M52,275.21 C52,313.32 52,371 52,371 C52,371 152.67,371 212.05,371 " fill="none" id="DiagramPragma-backto-PathInfo" style="stroke:#181818;stroke-width:1.0;"/><polygon fill="#181818" points="52,263.21,48,269.21,52,275.21,56,269.21,52,263.21" style="stroke:#181818;stroke-width:1.0;"/><text fill="#000000" font-family="sans-serif" font-size="13" lengthAdjust="spacing" textLength="52.0254" x="152.5564" y="386.2643">wire_info</text></g><!--reverse link DiagramPragma to PathInfo--><g id="link_DiagramPragma_PathInfo"><path codeLine="13" d="M97,275.04 C97,309.01 97,355 97,355 C97,355 165.64,355 212.29,355 " fill="none" id="DiagramPragma-backto-PathInfo-1" style="stroke:#181818;stroke-width:1.0;"/><polygon fill="#181818" points="97,263.04,93,269.04,97,275.04,101,269.04,97,263.04" style="stroke:#181818;stroke-width:1.0;"/><text fill="#000000" font-family="sans-serif" font-size="13" lengthAdjust="spacing" textLength="60.6963" x="143.9722" y="368.5154">arrow_info</text></g><!--reverse link Coordinates to Coordinate--><g id="link_Coordinates_Coordinate"><path codeLine="14" d="M320.36,23 C344.31,23 360.36,23 383.87,23 " fill="none" id="Coordinates-backto-Coordinate" style="stroke:#181818;stroke-width:1.0;"/><polygon fill="#181818" points="308.36,23,314.36,27,320.36,23,314.36,19,308.36,23" style="stroke:#181818;stroke-width:1.0;"/><text fill="#000000" font-family="sans-serif" font-size="13" lengthAdjust="spacing" textLength="6.5" x="369.4033" y="36.5231">x</text></g><!--reverse link Coordinates to Coordinate--><g id="link_Coordinates_Coordinate"><path codeLine="15" d="M320.36,39 C344.31,39 360.36,39 383.87,39 " fill="none" id="Coordinates-backto-Coordinate-1" style="stroke:#181818;stroke-width:1.0;"/><polygon fill="#181818" points="308.36,39,314.36,43,320.36,39,314.36,35,308.36,39" style="stroke:#181818;stroke-width:1.0;"/><text fill="#000000" font-family="sans-serif" font-size="13" lengthAdjust="spacing" textLength="6.5" x="369.4033" y="55.0731">y</text></g><!--reverse link Coordinate to Position--><g id="link_Coordinate_Position"><path codeLine="16" d="M496.11,31 C520.32,31 537.01,31 559.91,31 " fill="none" id="Coordinate-backto-Position" style="stroke:#181818;stroke-width:1.0;"/><polygon fill="#181818" points="484.11,31,490.11,35,496.11,31,490.11,27,484.11,31" style="stroke:#181818;stroke-width:1.0;"/><text fill="#000000" font-family="sans-serif" font-size="13" lengthAdjust="spacing" textLength="44.8081" x="507.1084" y="45.6448">position</text></g><!--reverse link Direction to DirectionType--><g id="link_Direction_DirectionType"><path codeLine="17" d="M310.41,197 C333.45,197 350,197 374.95,197 " fill="none" id="Direction-backto-DirectionType" style="stroke:#181818;stroke-width:1.0;"/><polygon fill="#181818" points="298.41,197,304.41,201,310.41,197,304.41,193,298.41,197" style="stroke:#181818;stroke-width:1.0;"/><text fill="#000000" font-family="sans-serif" font-size="13" lengthAdjust="spacing" textLength="31.0781" x="335.7804" y="211.3893">value</text></g><!--reverse link Orientation to OrientationType--><g id="link_Orientation_OrientationType"><path codeLine="18" d="M316.5,280 C336.11,280 346.88,280 367.82,280 " fill="none" id="Orientation-backto-OrientationType" style="stroke:#181818;stroke-width:1.0;"/><polygon fill="#181818" points="304.5,280,310.5,284,316.5,280,310.5,276,304.5,280" style="stroke:#181818;stroke-width:1.0;"/><text fill="#000000" font-family="sans-serif" font-size="13" lengthAdjust="spacing" textLength="31.0781" x="328.8028" y="294.2999">value</text></g><!--reverse link PathInfo to WireAnchor--><g id="link_PathInfo_WireAnchor"><path codeLine="19" d="M308.58,363 C333.87,363 354.26,363 381.25,363 " fill="none" id="PathInfo-backto-WireAnchor" style="stroke:#181818;stroke-width:1.0;"/><polygon fill="#181818" points="296.58,363,302.58,367,308.58,363,302.58,359,296.58,363" style="stroke:#181818;stroke-width:1.0;"/><text fill="#000000" font-family="sans-serif" font-size="13" lengthAdjust="spacing" textLength="56.3672" x="316.9348" y="377.3382">w_anchor</text></g><!--reverse link PathInfo to WirePath--><g id="link_PathInfo_WirePath"><path codeLine="20" d="M255,399.01 C255,423.52 255,446 255,446 C255,446 335.8,446 388.83,446 " fill="none" id="PathInfo-backto-WirePath" style="stroke:#181818;stroke-width:1.0;"/><polygon fill="#181818" points="255,387.01,251,393.01,255,399.01,259,393.01,255,387.01" style="stroke:#181818;stroke-width:1.0;"/><text fill="#000000" font-family="sans-serif" font-size="13" lengthAdjust="spacing" textLength="25.3018" x="355.7714" y="460.6448">path</text></g><!--SRC=[TP71JiCm38RlVGhBHwGz168NJbG2YUDaTLvhqSQLwp76qnDIreOIBb7i_ulr_qxF9mTNC6axXwCODouQgkbDmaX60_GIsAyZWvftMbKSpWFKEadYKhM_FNk9tDnwCk7Wj3IhlL0RnzL6xK1mjzjXesf72UGy8JoiHG6Tv9CHdkDP41VJk1efOBewmjnU0Rt4CGS99qMeoRl7U2jGPAQNBPRbID177ksFUlr7JUBuisDSjxtaIy0xzMV6pVQpP3cq_O-RuJdlWKBJgI6ynbdtwVwR66Cngz_jBm00]--></g></svg>