<svg xmlns="http://www.w3.org/2000/svg" xmlns:xlink="http://www.w3.org/1999/xlink" contentStyleType="text/css" height="534px" preserveAspectRatio="none" style="width:553px;height:534px;background:#FFFFFF;" version="1.1" viewBox="0 0 553 534" width="553px" zoomAndPan="magnify"><defs/><g><!--class Expression--><g id="elem_Expression"><rect fill="#F1F1F1" height="48" id="Expression" rx="2.5" ry="2.5" style="stroke:#181818;stroke-width:0.5;" width="101.2549" x="220.5" y="7"/><ellipse cx="235.5" cy="23" fill="#ADD1B2" rx="11" ry="11" style="stroke:#181818;stroke-width:1.0;"/><path d="M238.2656,18.875 Q238.4219,18.6563 238.6094,18.5469 Q238.7969,18.4375 239.0156,18.4375 Q239.3906,18.4375 239.625,18.7031 Q239.8594,18.9531 239.8594,19.5625 L239.8594,21.0156 Q239.8594,21.625 239.625,21.8906 Q239.3906,22.1563 239.0156,22.1563 Q238.6719,22.1563 238.4688,21.9531 Q238.2656,21.7656 238.1563,21.25 Q238.1094,20.8906 237.9219,20.7031 Q237.5938,20.3281 236.9844,20.1094 Q236.375,19.8906 235.75,19.8906 Q234.9844,19.8906 234.3438,20.2188 Q233.7188,20.5469 233.2188,21.2969 Q232.7344,22.0469 232.7344,23.0781 L232.7344,24.1719 Q232.7344,25.4063 233.625,26.2344 Q234.5156,27.0469 236.1094,27.0469 Q237.0469,27.0469 237.7031,26.7969 Q238.0938,26.6406 238.5156,26.2031 Q238.7813,25.9375 238.9219,25.8594 Q239.0781,25.7813 239.2813,25.7813 Q239.6094,25.7813 239.8594,26.0469 Q240.125,26.2969 240.125,26.6406 Q240.125,26.9844 239.7813,27.3906 Q239.2813,27.9688 238.4844,28.2969 Q237.4063,28.75 236.1094,28.75 Q234.5938,28.75 233.3906,28.125 Q232.4063,27.625 231.7188,26.5625 Q231.0313,25.4844 231.0313,24.2031 L231.0313,23.0469 Q231.0313,21.7188 231.6406,20.5781 Q232.2656,19.4219 233.3594,18.8125 Q234.4531,18.1875 235.6875,18.1875 Q236.4219,18.1875 237.0625,18.3594 Q237.7188,18.5156 238.2656,18.875 Z " fill="#000000"/><text fill="#000000" font-family="sans-serif" font-size="14" lengthAdjust="spacing" textLength="69.2549" x="249.5" y="28.7285">Expression</text><line style="stroke:#181818;stroke-width:0.5;" x1="221.5" x2="320.7549" y1="39" y2="39"/><line style="stroke:#181818;stroke-width:0.5;" x1="221.5" x2="320.7549" y1="47" y2="47"/></g><!--class OperatorInstance--><g id="elem_OperatorInstance"><rect fill="#F1F1F1" height="48" id="OperatorInstance" rx="2.5" ry="2.5" style="stroke:#181818;stroke-width:0.5;" width="140.1719" x="201" y="115"/><ellipse cx="216" cy="131" fill="#ADD1B2" rx="11" ry="11" style="stroke:#181818;stroke-width:1.0;"/><path d="M218.7656,126.875 Q218.9219,126.6563 219.1094,126.5469 Q219.2969,126.4375 219.5156,126.4375 Q219.8906,126.4375 220.125,126.7031 Q220.3594,126.9531 220.3594,127.5625 L220.3594,129.0156 Q220.3594,129.625 220.125,129.8906 Q219.8906,130.1563 219.5156,130.1563 Q219.1719,130.1563 218.9688,129.9531 Q218.7656,129.7656 218.6563,129.25 Q218.6094,128.8906 218.4219,128.7031 Q218.0938,128.3281 217.4844,128.1094 Q216.875,127.8906 216.25,127.8906 Q215.4844,127.8906 214.8438,128.2188 Q214.2188,128.5469 213.7188,129.2969 Q213.2344,130.0469 213.2344,131.0781 L213.2344,132.1719 Q213.2344,133.4063 214.125,134.2344 Q215.0156,135.0469 216.6094,135.0469 Q217.5469,135.0469 218.2031,134.7969 Q218.5938,134.6406 219.0156,134.2031 Q219.2813,133.9375 219.4219,133.8594 Q219.5781,133.7813 219.7813,133.7813 Q220.1094,133.7813 220.3594,134.0469 Q220.625,134.2969 220.625,134.6406 Q220.625,134.9844 220.2813,135.3906 Q219.7813,135.9688 218.9844,136.2969 Q217.9063,136.75 216.6094,136.75 Q215.0938,136.75 213.8906,136.125 Q212.9063,135.625 212.2188,134.5625 Q211.5313,133.4844 211.5313,132.2031 L211.5313,131.0469 Q211.5313,129.7188 212.1406,128.5781 Q212.7656,127.4219 213.8594,126.8125 Q214.9531,126.1875 216.1875,126.1875 Q216.9219,126.1875 217.5625,126.3594 Q218.2188,126.5156 218.7656,126.875 Z " fill="#000000"/><text fill="#000000" font-family="sans-serif" font-size="14" lengthAdjust="spacing" textLength="108.1719" x="230" y="136.7285">OperatorInstance</text><line style="stroke:#181818;stroke-width:0.5;" x1="202" x2="340.1719" y1="147" y2="147"/><line style="stroke:#181818;stroke-width:0.5;" x1="202" x2="340.1719" y1="155" y2="155"/></g><!--class OperatorBase--><g id="elem_OperatorBase"><rect fill="#F1F1F1" height="48" id="OperatorBase" rx="2.5" ry="2.5" style="stroke:#181818;stroke-width:0.5;" width="119.1582" x="211.5" y="243"/><ellipse cx="226.5" cy="259" fill="#ADD1B2" rx="11" ry="11" style="stroke:#181818;stroke-width:1.0;"/><path d="M229.2656,254.875 Q229.4219,254.6563 229.6094,254.5469 Q229.7969,254.4375 230.0156,254.4375 Q230.3906,254.4375 230.625,254.7031 Q230.8594,254.9531 230.8594,255.5625 L230.8594,257.0156 Q230.8594,257.625 230.625,257.8906 Q230.3906,258.1563 230.0156,258.1563 Q229.6719,258.1563 229.4688,257.9531 Q229.2656,257.7656 229.1563,257.25 Q229.1094,256.8906 228.9219,256.7031 Q228.5938,256.3281 227.9844,256.1094 Q227.375,255.8906 226.75,255.8906 Q225.9844,255.8906 225.3438,256.2188 Q224.7188,256.5469 224.2188,257.2969 Q223.7344,258.0469 223.7344,259.0781 L223.7344,260.1719 Q223.7344,261.4063 224.625,262.2344 Q225.5156,263.0469 227.1094,263.0469 Q228.0469,263.0469 228.7031,262.7969 Q229.0938,262.6406 229.5156,262.2031 Q229.7813,261.9375 229.9219,261.8594 Q230.0781,261.7813 230.2813,261.7813 Q230.6094,261.7813 230.8594,262.0469 Q231.125,262.2969 231.125,262.6406 Q231.125,262.9844 230.7813,263.3906 Q230.2813,263.9688 229.4844,264.2969 Q228.4063,264.75 227.1094,264.75 Q225.5938,264.75 224.3906,264.125 Q223.4063,263.625 222.7188,262.5625 Q222.0313,261.4844 222.0313,260.2031 L222.0313,259.0469 Q222.0313,257.7188 222.6406,256.5781 Q223.2656,255.4219 224.3594,254.8125 Q225.4531,254.1875 226.6875,254.1875 Q227.4219,254.1875 228.0625,254.3594 Q228.7188,254.5156 229.2656,254.875 Z " fill="#000000"/><text fill="#000000" font-family="sans-serif" font-size="14" lengthAdjust="spacing" textLength="87.1582" x="240.5" y="264.7285">OperatorBase</text><line style="stroke:#181818;stroke-width:0.5;" x1="212.5" x2="329.6582" y1="275" y2="275"/><line style="stroke:#181818;stroke-width:0.5;" x1="212.5" x2="329.6582" y1="283" y2="283"/></g><polygon fill="none" points="270.5036,291,277.0221,311.1621,263.0261,310.8264" style="stroke:#181818;stroke-width:1.0;"/><line style="stroke:#181818;stroke-width:1.0;" x1="270.0241" x2="270" y1="310.9943" y2="312"/><line style="stroke:#181818;stroke-width:1.0;" x1="271.0361" x2="271" y1="243" y2="222.9"/><!--class PathIdOpCall--><g id="elem_PathIdOpCall"><rect fill="#F1F1F1" height="48" id="PathIdOpCall" rx="2.5" ry="2.5" style="stroke:#181818;stroke-width:0.5;" width="115.2686" x="203.5" y="371"/><ellipse cx="218.5" cy="387" fill="#ADD1B2" rx="11" ry="11" style="stroke:#181818;stroke-width:1.0;"/><path d="M221.2656,382.875 Q221.4219,382.6563 221.6094,382.5469 Q221.7969,382.4375 222.0156,382.4375 Q222.3906,382.4375 222.625,382.7031 Q222.8594,382.9531 222.8594,383.5625 L222.8594,385.0156 Q222.8594,385.625 222.625,385.8906 Q222.3906,386.1563 222.0156,386.1563 Q221.6719,386.1563 221.4688,385.9531 Q221.2656,385.7656 221.1563,385.25 Q221.1094,384.8906 220.9219,384.7031 Q220.5938,384.3281 219.9844,384.1094 Q219.375,383.8906 218.75,383.8906 Q217.9844,383.8906 217.3438,384.2188 Q216.7188,384.5469 216.2188,385.2969 Q215.7344,386.0469 215.7344,387.0781 L215.7344,388.1719 Q215.7344,389.4063 216.625,390.2344 Q217.5156,391.0469 219.1094,391.0469 Q220.0469,391.0469 220.7031,390.7969 Q221.0938,390.6406 221.5156,390.2031 Q221.7813,389.9375 221.9219,389.8594 Q222.0781,389.7813 222.2813,389.7813 Q222.6094,389.7813 222.8594,390.0469 Q223.125,390.2969 223.125,390.6406 Q223.125,390.9844 222.7813,391.3906 Q222.2813,391.9688 221.4844,392.2969 Q220.4063,392.75 219.1094,392.75 Q217.5938,392.75 216.3906,392.125 Q215.4063,391.625 214.7188,390.5625 Q214.0313,389.4844 214.0313,388.2031 L214.0313,387.0469 Q214.0313,385.7188 214.6406,384.5781 Q215.2656,383.4219 216.3594,382.8125 Q217.4531,382.1875 218.6875,382.1875 Q219.4219,382.1875 220.0625,382.3594 Q220.7188,382.5156 221.2656,382.875 Z " fill="#000000"/><text fill="#000000" font-family="sans-serif" font-size="14" lengthAdjust="spacing" textLength="83.2686" x="232.5" y="392.7285">PathIdOpCall</text><line style="stroke:#181818;stroke-width:0.5;" x1="204.5" x2="317.7686" y1="403" y2="403"/><line style="stroke:#181818;stroke-width:0.5;" x1="204.5" x2="317.7686" y1="411" y2="411"/></g><!--class PrefixPrimitive--><g id="elem_PrefixPrimitive"><rect fill="#F1F1F1" height="48" id="PrefixPrimitive" rx="2.5" ry="2.5" style="stroke:#181818;stroke-width:0.5;" width="121.4551" x="34.5" y="371"/><ellipse cx="49.5" cy="387" fill="#ADD1B2" rx="11" ry="11" style="stroke:#181818;stroke-width:1.0;"/><path d="M52.2656,382.875 Q52.4219,382.6563 52.6094,382.5469 Q52.7969,382.4375 53.0156,382.4375 Q53.3906,382.4375 53.625,382.7031 Q53.8594,382.9531 53.8594,383.5625 L53.8594,385.0156 Q53.8594,385.625 53.625,385.8906 Q53.3906,386.1563 53.0156,386.1563 Q52.6719,386.1563 52.4688,385.9531 Q52.2656,385.7656 52.1563,385.25 Q52.1094,384.8906 51.9219,384.7031 Q51.5938,384.3281 50.9844,384.1094 Q50.375,383.8906 49.75,383.8906 Q48.9844,383.8906 48.3438,384.2188 Q47.7188,384.5469 47.2188,385.2969 Q46.7344,386.0469 46.7344,387.0781 L46.7344,388.1719 Q46.7344,389.4063 47.625,390.2344 Q48.5156,391.0469 50.1094,391.0469 Q51.0469,391.0469 51.7031,390.7969 Q52.0938,390.6406 52.5156,390.2031 Q52.7813,389.9375 52.9219,389.8594 Q53.0781,389.7813 53.2813,389.7813 Q53.6094,389.7813 53.8594,390.0469 Q54.125,390.2969 54.125,390.6406 Q54.125,390.9844 53.7813,391.3906 Q53.2813,391.9688 52.4844,392.2969 Q51.4063,392.75 50.1094,392.75 Q48.5938,392.75 47.3906,392.125 Q46.4063,391.625 45.7188,390.5625 Q45.0313,389.4844 45.0313,388.2031 L45.0313,387.0469 Q45.0313,385.7188 45.6406,384.5781 Q46.2656,383.4219 47.3594,382.8125 Q48.4531,382.1875 49.6875,382.1875 Q50.4219,382.1875 51.0625,382.3594 Q51.7188,382.5156 52.2656,382.875 Z " fill="#000000"/><text fill="#000000" font-family="sans-serif" font-size="14" lengthAdjust="spacing" textLength="89.4551" x="63.5" y="392.7285">PrefixPrimitive</text><line style="stroke:#181818;stroke-width:0.5;" x1="35.5" x2="154.9551" y1="403" y2="403"/><line style="stroke:#181818;stroke-width:0.5;" x1="35.5" x2="154.9551" y1="411" y2="411"/></g><g id="elem_GMN11"><path d="M6,254 L6,280.3516 A0,0 0 0 0 6,280.3516 L78.34,280.3516 L92.41,370.69 L86.34,280.3516 L156.3462,280.3516 A0,0 0 0 0 156.3462,280.3516 L156.3462,264 L146.3462,254 L6,254 A0,0 0 0 0 6,254 " fill="#FEFFDD" style="stroke:#181818;stroke-width:0.5;"/><path d="M146.3462,254 L146.3462,264 L156.3462,264 L146.3462,254 " fill="#FEFFDD" style="stroke:#181818;stroke-width:0.5;"/><text fill="#000000" font-family="sans-serif" font-size="13" font-weight="bold" lengthAdjust="spacing" textLength="39" x="12" y="272.4951">flatten</text><text fill="#000000" font-family="sans-serif" font-size="13" lengthAdjust="spacing" textLength="3.6118" x="51" y="272.4951">,</text><text fill="#000000" font-family="sans-serif" font-size="13" font-weight="bold" lengthAdjust="spacing" textLength="29.6309" x="58.2236" y="272.4951">pack</text><text fill="#000000" font-family="sans-serif" font-size="13" lengthAdjust="spacing" textLength="3.6118" x="87.8545" y="272.4951">,</text><text fill="#000000" font-family="sans-serif" font-size="13" font-weight="bold" lengthAdjust="spacing" textLength="46.2681" x="95.0781" y="272.4951">reverse</text></g><!--class Transpose--><g id="elem_Transpose"><rect fill="#F1F1F1" height="48" id="Transpose" rx="2.5" ry="2.5" style="stroke:#181818;stroke-width:0.5;" width="98.1445" x="46" y="479"/><ellipse cx="61" cy="495" fill="#ADD1B2" rx="11" ry="11" style="stroke:#181818;stroke-width:1.0;"/><path d="M63.7656,490.875 Q63.9219,490.6563 64.1094,490.5469 Q64.2969,490.4375 64.5156,490.4375 Q64.8906,490.4375 65.125,490.7031 Q65.3594,490.9531 65.3594,491.5625 L65.3594,493.0156 Q65.3594,493.625 65.125,493.8906 Q64.8906,494.1563 64.5156,494.1563 Q64.1719,494.1563 63.9688,493.9531 Q63.7656,493.7656 63.6563,493.25 Q63.6094,492.8906 63.4219,492.7031 Q63.0938,492.3281 62.4844,492.1094 Q61.875,491.8906 61.25,491.8906 Q60.4844,491.8906 59.8438,492.2188 Q59.2188,492.5469 58.7188,493.2969 Q58.2344,494.0469 58.2344,495.0781 L58.2344,496.1719 Q58.2344,497.4063 59.125,498.2344 Q60.0156,499.0469 61.6094,499.0469 Q62.5469,499.0469 63.2031,498.7969 Q63.5938,498.6406 64.0156,498.2031 Q64.2813,497.9375 64.4219,497.8594 Q64.5781,497.7813 64.7813,497.7813 Q65.1094,497.7813 65.3594,498.0469 Q65.625,498.2969 65.625,498.6406 Q65.625,498.9844 65.2813,499.3906 Q64.7813,499.9688 63.9844,500.2969 Q62.9063,500.75 61.6094,500.75 Q60.0938,500.75 58.8906,500.125 Q57.9063,499.625 57.2188,498.5625 Q56.5313,497.4844 56.5313,496.2031 L56.5313,495.0469 Q56.5313,493.7188 57.1406,492.5781 Q57.7656,491.4219 58.8594,490.8125 Q59.9531,490.1875 61.1875,490.1875 Q61.9219,490.1875 62.5625,490.3594 Q63.2188,490.5156 63.7656,490.875 Z " fill="#000000"/><text fill="#000000" font-family="sans-serif" font-size="14" lengthAdjust="spacing" textLength="66.1445" x="75" y="500.7285">Transpose</text><line style="stroke:#181818;stroke-width:0.5;" x1="47" x2="143.1445" y1="511" y2="511"/><line style="stroke:#181818;stroke-width:0.5;" x1="47" x2="143.1445" y1="519" y2="519"/></g><!--class PrefixOperatorExpression--><g id="elem_PrefixOperatorExpression"><rect fill="#F1F1F1" height="48" id="PrefixOperatorExpression" rx="2.5" ry="2.5" style="stroke:#181818;stroke-width:0.5;" width="192.2891" x="354" y="371"/><ellipse cx="369" cy="387" fill="#ADD1B2" rx="11" ry="11" style="stroke:#181818;stroke-width:1.0;"/><path d="M371.7656,382.875 Q371.9219,382.6563 372.1094,382.5469 Q372.2969,382.4375 372.5156,382.4375 Q372.8906,382.4375 373.125,382.7031 Q373.3594,382.9531 373.3594,383.5625 L373.3594,385.0156 Q373.3594,385.625 373.125,385.8906 Q372.8906,386.1563 372.5156,386.1563 Q372.1719,386.1563 371.9688,385.9531 Q371.7656,385.7656 371.6563,385.25 Q371.6094,384.8906 371.4219,384.7031 Q371.0938,384.3281 370.4844,384.1094 Q369.875,383.8906 369.25,383.8906 Q368.4844,383.8906 367.8438,384.2188 Q367.2188,384.5469 366.7188,385.2969 Q366.2344,386.0469 366.2344,387.0781 L366.2344,388.1719 Q366.2344,389.4063 367.125,390.2344 Q368.0156,391.0469 369.6094,391.0469 Q370.5469,391.0469 371.2031,390.7969 Q371.5938,390.6406 372.0156,390.2031 Q372.2813,389.9375 372.4219,389.8594 Q372.5781,389.7813 372.7813,389.7813 Q373.1094,389.7813 373.3594,390.0469 Q373.625,390.2969 373.625,390.6406 Q373.625,390.9844 373.2813,391.3906 Q372.7813,391.9688 371.9844,392.2969 Q370.9063,392.75 369.6094,392.75 Q368.0938,392.75 366.8906,392.125 Q365.9063,391.625 365.2188,390.5625 Q364.5313,389.4844 364.5313,388.2031 L364.5313,387.0469 Q364.5313,385.7188 365.1406,384.5781 Q365.7656,383.4219 366.8594,382.8125 Q367.9531,382.1875 369.1875,382.1875 Q369.9219,382.1875 370.5625,382.3594 Q371.2188,382.5156 371.7656,382.875 Z " fill="#000000"/><text fill="#000000" font-family="sans-serif" font-size="14" lengthAdjust="spacing" textLength="160.2891" x="383" y="392.7285">PrefixOperatorExpression</text><line style="stroke:#181818;stroke-width:0.5;" x1="355" x2="545.2891" y1="403" y2="403"/><line style="stroke:#181818;stroke-width:0.5;" x1="355" x2="545.2891" y1="411" y2="411"/></g><g id="elem_GMN18"><path d="M394.5,254 L394.5,280.3516 A0,0 0 0 0 394.5,280.3516 L446,280.3516 L450,370.69 L454,280.3516 L505.0908,280.3516 A0,0 0 0 0 505.0908,280.3516 L505.0908,264 L495.0908,254 L394.5,254 A0,0 0 0 0 394.5,254 " fill="#FEFFDD" style="stroke:#181818;stroke-width:0.5;"/><path d="M495.0908,254 L495.0908,264 L505.0908,264 L495.0908,254 " fill="#FEFFDD" style="stroke:#181818;stroke-width:0.5;"/><text fill="#000000" font-family="sans-serif" font-size="13" lengthAdjust="spacing" textLength="4.3291" x="400.5" y="272.4951">(</text><text fill="#000000" font-family="sans-serif" font-size="13" font-style="italic" lengthAdjust="spacing" textLength="46.979" x="404.8291" y="272.4951">op_expr</text><text fill="#000000" font-family="sans-serif" font-size="13" lengthAdjust="spacing" textLength="38.2827" x="451.8081" y="272.4951">) [size]</text></g><!--class OperatorExpression--><g id="elem_OperatorExpression"><rect fill="#F1F1F1" height="48" id="OperatorExpression" rx="2.5" ry="2.5" style="stroke:#181818;stroke-width:0.5;" width="156.5029" x="371.5" y="479"/><ellipse cx="386.5" cy="495" fill="#ADD1B2" rx="11" ry="11" style="stroke:#181818;stroke-width:1.0;"/><path d="M389.2656,490.875 Q389.4219,490.6563 389.6094,490.5469 Q389.7969,490.4375 390.0156,490.4375 Q390.3906,490.4375 390.625,490.7031 Q390.8594,490.9531 390.8594,491.5625 L390.8594,493.0156 Q390.8594,493.625 390.625,493.8906 Q390.3906,494.1563 390.0156,494.1563 Q389.6719,494.1563 389.4688,493.9531 Q389.2656,493.7656 389.1563,493.25 Q389.1094,492.8906 388.9219,492.7031 Q388.5938,492.3281 387.9844,492.1094 Q387.375,491.8906 386.75,491.8906 Q385.9844,491.8906 385.3438,492.2188 Q384.7188,492.5469 384.2188,493.2969 Q383.7344,494.0469 383.7344,495.0781 L383.7344,496.1719 Q383.7344,497.4063 384.625,498.2344 Q385.5156,499.0469 387.1094,499.0469 Q388.0469,499.0469 388.7031,498.7969 Q389.0938,498.6406 389.5156,498.2031 Q389.7813,497.9375 389.9219,497.8594 Q390.0781,497.7813 390.2813,497.7813 Q390.6094,497.7813 390.8594,498.0469 Q391.125,498.2969 391.125,498.6406 Q391.125,498.9844 390.7813,499.3906 Q390.2813,499.9688 389.4844,500.2969 Q388.4063,500.75 387.1094,500.75 Q385.5938,500.75 384.3906,500.125 Q383.4063,499.625 382.7188,498.5625 Q382.0313,497.4844 382.0313,496.2031 L382.0313,495.0469 Q382.0313,493.7188 382.6406,492.5781 Q383.2656,491.4219 384.3594,490.8125 Q385.4531,490.1875 386.6875,490.1875 Q387.4219,490.1875 388.0625,490.3594 Q388.7188,490.5156 389.2656,490.875 Z " fill="#000000"/><text fill="#000000" font-family="sans-serif" font-size="14" lengthAdjust="spacing" textLength="124.5029" x="400.5" y="500.7285">OperatorExpression</text><line style="stroke:#181818;stroke-width:0.5;" x1="372.5" x2="527.0029" y1="511" y2="511"/><line style="stroke:#181818;stroke-width:0.5;" x1="372.5" x2="527.0029" y1="519" y2="519"/></g><!--reverse link Expression to OperatorInstance--><g id="link_Expression_OperatorInstance"><path codeLine="4" d="M271,73 C271,90.66 271,96.94 271,114.68 " fill="none" id="Expression-backto-OperatorInstance" style="stroke:#181818;stroke-width:1.0;"/><polygon fill="none" points="271,55,265,73,277,73,271,55" style="stroke:#181818;stroke-width:1.0;"/></g><!--reverse link OperatorInstance to OperatorBase--><g id="link_OperatorInstance_OperatorBase"><path codeLine="5" d="M271,175.11 C271,191.81 271,202.85 271,222.9 " fill="none" id="OperatorInstance-backto-OperatorBase" style="stroke:#181818;stroke-width:1.0;"/><polygon fill="#181818" points="271,163.11,267,169.11,271,175.11,275,169.11,271,163.11" style="stroke:#181818;stroke-width:1.0;"/></g><!--reverse link OperatorBase to PathIdOpCall--><g id="link_OperatorBase_PathIdOpCall"><path codeLine="7" d="M270,312 C270,312 266.22,346.48 263.55,370.72 " fill="none" id="OperatorBase-backto-PathIdOpCall" style="stroke:#181818;stroke-width:1.0;"/></g><!--reverse link OperatorBase to PrefixPrimitive--><g id="link_OperatorBase_PrefixPrimitive"><path codeLine="8" d="M270,312 C270,312 195.97,346.69 144.21,370.94 " fill="none" id="OperatorBase-backto-PrefixPrimitive" style="stroke:#181818;stroke-width:1.0;"/></g><!--reverse link PrefixPrimitive to Transpose--><g id="link_PrefixPrimitive_Transpose"><path codeLine="12" d="M95,437 C95,454.66 95,460.94 95,478.68 " fill="none" id="PrefixPrimitive-backto-Transpose" style="stroke:#181818;stroke-width:1.0;"/><polygon fill="none" points="95,419,89,437,101,437,95,419" style="stroke:#181818;stroke-width:1.0;"/></g><!--reverse link OperatorBase to PrefixOperatorExpression--><g id="link_OperatorBase_PrefixOperatorExpression"><path codeLine="13" d="M270,312 C270,312 346.14,346.69 399.38,370.94 " fill="none" id="OperatorBase-backto-PrefixOperatorExpression" style="stroke:#181818;stroke-width:1.0;"/></g><!--reverse link PrefixOperatorExpression to OperatorExpression--><g id="link_PrefixOperatorExpression_OperatorExpression"><path codeLine="17" d="M450,431 C450,448.66 450,460.94 450,478.68 " fill="none" id="PrefixOperatorExpression-backto-OperatorExpression" style="stroke:#181818;stroke-width:1.0;"/><polygon fill="#181818" points="450,419,446,425,450,431,454,425,450,419" style="stroke:#181818;stroke-width:1.0;"/></g><!--SRC=[TL0zRy903DtlLtXhQnL5OcOgwf09XcvLXQp48QS4dsLV4QhuyRH41HhIpNuVzjDxW9MoKKu6fNWcgJXu5qN9Q0TRIvzQIiiMpnJCGtWzgB5xJ0ABusnsyL_iOm3mHlL2pY7SRiELDUMsh5UwfBwVeesRU5XRtCKSznmaPOQS559pno4sFUNCWlWCY4fLDqp6UpPdnC1Imy-9CF8EpzwCn3Kv_nla5xzsCP5eGlHO54at_0qKnHEyU_pYZt6OUzkV0g_m2G00]--></g></svg>