<svg xmlns="http://www.w3.org/2000/svg" xmlns:xlink="http://www.w3.org/1999/xlink" contentStyleType="text/css" height="813px" preserveAspectRatio="none" style="width:511px;height:813px;background:#FFFFFF;" version="1.1" viewBox="0 0 511 813" width="511px" zoomAndPan="magnify"><defs/><g><!--class StateMachine--><g id="elem_StateMachine"><rect fill="#F1F1F1" height="48" id="StateMachine" rx="2.5" ry="2.5" style="stroke:#181818;stroke-width:0.5;" width="117.6064" x="238.04" y="7"/><ellipse cx="253.04" cy="23" fill="#ADD1B2" rx="11" ry="11" style="stroke:#181818;stroke-width:1.0;"/><path d="M255.8056,18.875 Q255.9619,18.6563 256.1494,18.5469 Q256.3369,18.4375 256.5556,18.4375 Q256.9306,18.4375 257.165,18.7031 Q257.3994,18.9531 257.3994,19.5625 L257.3994,21.0156 Q257.3994,21.625 257.165,21.8906 Q256.9306,22.1563 256.5556,22.1563 Q256.2119,22.1563 256.0088,21.9531 Q255.8056,21.7656 255.6963,21.25 Q255.6494,20.8906 255.4619,20.7031 Q255.1338,20.3281 254.5244,20.1094 Q253.915,19.8906 253.29,19.8906 Q252.5244,19.8906 251.8838,20.2188 Q251.2588,20.5469 250.7588,21.2969 Q250.2744,22.0469 250.2744,23.0781 L250.2744,24.1719 Q250.2744,25.4063 251.165,26.2344 Q252.0556,27.0469 253.6494,27.0469 Q254.5869,27.0469 255.2431,26.7969 Q255.6338,26.6406 256.0556,26.2031 Q256.3213,25.9375 256.4619,25.8594 Q256.6181,25.7813 256.8213,25.7813 Q257.1494,25.7813 257.3994,26.0469 Q257.665,26.2969 257.665,26.6406 Q257.665,26.9844 257.3213,27.3906 Q256.8213,27.9688 256.0244,28.2969 Q254.9463,28.75 253.6494,28.75 Q252.1338,28.75 250.9306,28.125 Q249.9463,27.625 249.2588,26.5625 Q248.5713,25.4844 248.5713,24.2031 L248.5713,23.0469 Q248.5713,21.7188 249.1806,20.5781 Q249.8056,19.4219 250.8994,18.8125 Q251.9931,18.1875 253.2275,18.1875 Q253.9619,18.1875 254.6025,18.3594 Q255.2588,18.5156 255.8056,18.875 Z " fill="#000000"/><text fill="#000000" font-family="sans-serif" font-size="14" lengthAdjust="spacing" textLength="85.6064" x="267.04" y="28.7285">StateMachine</text><line style="stroke:#181818;stroke-width:0.5;" x1="239.04" x2="354.6464" y1="39" y2="39"/><line style="stroke:#181818;stroke-width:0.5;" x1="239.04" x2="354.6464" y1="47" y2="47"/></g><!--class StateMachineItem--><g id="elem_StateMachineItem"><rect fill="#F1F1F1" height="48" id="StateMachineItem" rx="2.5" ry="2.5" style="stroke:#181818;stroke-width:0.5;" width="144.834" x="224.54" y="116"/><ellipse cx="239.54" cy="132" fill="#ADD1B2" rx="11" ry="11" style="stroke:#181818;stroke-width:1.0;"/><path d="M242.3056,127.875 Q242.4619,127.6563 242.6494,127.5469 Q242.8369,127.4375 243.0556,127.4375 Q243.4306,127.4375 243.665,127.7031 Q243.8994,127.9531 243.8994,128.5625 L243.8994,130.0156 Q243.8994,130.625 243.665,130.8906 Q243.4306,131.1563 243.0556,131.1563 Q242.7119,131.1563 242.5088,130.9531 Q242.3056,130.7656 242.1963,130.25 Q242.1494,129.8906 241.9619,129.7031 Q241.6338,129.3281 241.0244,129.1094 Q240.415,128.8906 239.79,128.8906 Q239.0244,128.8906 238.3838,129.2188 Q237.7588,129.5469 237.2588,130.2969 Q236.7744,131.0469 236.7744,132.0781 L236.7744,133.1719 Q236.7744,134.4063 237.665,135.2344 Q238.5556,136.0469 240.1494,136.0469 Q241.0869,136.0469 241.7431,135.7969 Q242.1338,135.6406 242.5556,135.2031 Q242.8213,134.9375 242.9619,134.8594 Q243.1181,134.7813 243.3213,134.7813 Q243.6494,134.7813 243.8994,135.0469 Q244.165,135.2969 244.165,135.6406 Q244.165,135.9844 243.8213,136.3906 Q243.3213,136.9688 242.5244,137.2969 Q241.4463,137.75 240.1494,137.75 Q238.6338,137.75 237.4306,137.125 Q236.4463,136.625 235.7588,135.5625 Q235.0713,134.4844 235.0713,133.2031 L235.0713,132.0469 Q235.0713,130.7188 235.6806,129.5781 Q236.3056,128.4219 237.3994,127.8125 Q238.4931,127.1875 239.7275,127.1875 Q240.4619,127.1875 241.1025,127.3594 Q241.7588,127.5156 242.3056,127.875 Z " fill="#000000"/><text fill="#000000" font-family="sans-serif" font-size="14" lengthAdjust="spacing" textLength="112.834" x="253.54" y="137.7285">StateMachineItem</text><line style="stroke:#181818;stroke-width:0.5;" x1="225.54" x2="368.374" y1="148" y2="148"/><line style="stroke:#181818;stroke-width:0.5;" x1="225.54" x2="368.374" y1="156" y2="156"/></g><!--class State--><g id="elem_State"><rect fill="#F1F1F1" height="48" id="State" rx="2.5" ry="2.5" style="stroke:#181818;stroke-width:0.5;" width="64.6895" x="264.54" y="225"/><ellipse cx="279.54" cy="241" fill="#ADD1B2" rx="11" ry="11" style="stroke:#181818;stroke-width:1.0;"/><path d="M282.3056,236.875 Q282.4619,236.6563 282.6494,236.5469 Q282.8369,236.4375 283.0556,236.4375 Q283.4306,236.4375 283.665,236.7031 Q283.8994,236.9531 283.8994,237.5625 L283.8994,239.0156 Q283.8994,239.625 283.665,239.8906 Q283.4306,240.1563 283.0556,240.1563 Q282.7119,240.1563 282.5088,239.9531 Q282.3056,239.7656 282.1963,239.25 Q282.1494,238.8906 281.9619,238.7031 Q281.6338,238.3281 281.0244,238.1094 Q280.415,237.8906 279.79,237.8906 Q279.0244,237.8906 278.3838,238.2188 Q277.7588,238.5469 277.2588,239.2969 Q276.7744,240.0469 276.7744,241.0781 L276.7744,242.1719 Q276.7744,243.4063 277.665,244.2344 Q278.5556,245.0469 280.1494,245.0469 Q281.0869,245.0469 281.7431,244.7969 Q282.1338,244.6406 282.5556,244.2031 Q282.8213,243.9375 282.9619,243.8594 Q283.1181,243.7813 283.3213,243.7813 Q283.6494,243.7813 283.8994,244.0469 Q284.165,244.2969 284.165,244.6406 Q284.165,244.9844 283.8213,245.3906 Q283.3213,245.9688 282.5244,246.2969 Q281.4463,246.75 280.1494,246.75 Q278.6338,246.75 277.4306,246.125 Q276.4463,245.625 275.7588,244.5625 Q275.0713,243.4844 275.0713,242.2031 L275.0713,241.0469 Q275.0713,239.7188 275.6806,238.5781 Q276.3056,237.4219 277.3994,236.8125 Q278.4931,236.1875 279.7275,236.1875 Q280.4619,236.1875 281.1025,236.3594 Q281.7588,236.5156 282.3056,236.875 Z " fill="#000000"/><text fill="#000000" font-family="sans-serif" font-size="14" lengthAdjust="spacing" textLength="32.6895" x="293.54" y="246.7285">State</text><line style="stroke:#181818;stroke-width:0.5;" x1="265.54" x2="328.2295" y1="257" y2="257"/><line style="stroke:#181818;stroke-width:0.5;" x1="265.54" x2="328.2295" y1="265" y2="265"/></g><!--class Transition--><g id="elem_Transition"><rect fill="#F1F1F1" height="48" id="Transition" rx="2.5" ry="2.5" style="stroke:#181818;stroke-width:0.5;" width="93.4688" x="168.54" y="351"/><ellipse cx="183.54" cy="367" fill="#ADD1B2" rx="11" ry="11" style="stroke:#181818;stroke-width:1.0;"/><path d="M186.3056,362.875 Q186.4619,362.6563 186.6494,362.5469 Q186.8369,362.4375 187.0556,362.4375 Q187.4306,362.4375 187.665,362.7031 Q187.8994,362.9531 187.8994,363.5625 L187.8994,365.0156 Q187.8994,365.625 187.665,365.8906 Q187.4306,366.1563 187.0556,366.1563 Q186.7119,366.1563 186.5088,365.9531 Q186.3056,365.7656 186.1963,365.25 Q186.1494,364.8906 185.9619,364.7031 Q185.6338,364.3281 185.0244,364.1094 Q184.415,363.8906 183.79,363.8906 Q183.0244,363.8906 182.3838,364.2188 Q181.7588,364.5469 181.2588,365.2969 Q180.7744,366.0469 180.7744,367.0781 L180.7744,368.1719 Q180.7744,369.4063 181.665,370.2344 Q182.5556,371.0469 184.1494,371.0469 Q185.0869,371.0469 185.7431,370.7969 Q186.1338,370.6406 186.5556,370.2031 Q186.8213,369.9375 186.9619,369.8594 Q187.1181,369.7813 187.3213,369.7813 Q187.6494,369.7813 187.8994,370.0469 Q188.165,370.2969 188.165,370.6406 Q188.165,370.9844 187.8213,371.3906 Q187.3213,371.9688 186.5244,372.2969 Q185.4463,372.75 184.1494,372.75 Q182.6338,372.75 181.4306,372.125 Q180.4463,371.625 179.7588,370.5625 Q179.0713,369.4844 179.0713,368.2031 L179.0713,367.0469 Q179.0713,365.7188 179.6806,364.5781 Q180.3056,363.4219 181.3994,362.8125 Q182.4931,362.1875 183.7275,362.1875 Q184.4619,362.1875 185.1025,362.3594 Q185.7588,362.5156 186.3056,362.875 Z " fill="#000000"/><text fill="#000000" font-family="sans-serif" font-size="14" lengthAdjust="spacing" textLength="61.4688" x="197.54" y="372.7285">Transition</text><line style="stroke:#181818;stroke-width:0.5;" x1="169.54" x2="261.0088" y1="383" y2="383"/><line style="stroke:#181818;stroke-width:0.5;" x1="169.54" x2="261.0088" y1="391" y2="391"/></g><!--class ScopeSection--><g id="elem_ScopeSection"><rect fill="#F1F1F1" height="48" id="ScopeSection" rx="2.5" ry="2.5" style="stroke:#181818;stroke-width:0.5;" width="118.3926" x="306.04" y="351"/><ellipse cx="321.04" cy="367" fill="#ADD1B2" rx="11" ry="11" style="stroke:#181818;stroke-width:1.0;"/><path d="M323.8056,362.875 Q323.9619,362.6563 324.1494,362.5469 Q324.3369,362.4375 324.5556,362.4375 Q324.9306,362.4375 325.165,362.7031 Q325.3994,362.9531 325.3994,363.5625 L325.3994,365.0156 Q325.3994,365.625 325.165,365.8906 Q324.9306,366.1563 324.5556,366.1563 Q324.2119,366.1563 324.0088,365.9531 Q323.8056,365.7656 323.6963,365.25 Q323.6494,364.8906 323.4619,364.7031 Q323.1338,364.3281 322.5244,364.1094 Q321.915,363.8906 321.29,363.8906 Q320.5244,363.8906 319.8838,364.2188 Q319.2588,364.5469 318.7588,365.2969 Q318.2744,366.0469 318.2744,367.0781 L318.2744,368.1719 Q318.2744,369.4063 319.165,370.2344 Q320.0556,371.0469 321.6494,371.0469 Q322.5869,371.0469 323.2431,370.7969 Q323.6338,370.6406 324.0556,370.2031 Q324.3213,369.9375 324.4619,369.8594 Q324.6181,369.7813 324.8213,369.7813 Q325.1494,369.7813 325.3994,370.0469 Q325.665,370.2969 325.665,370.6406 Q325.665,370.9844 325.3213,371.3906 Q324.8213,371.9688 324.0244,372.2969 Q322.9463,372.75 321.6494,372.75 Q320.1338,372.75 318.9306,372.125 Q317.9463,371.625 317.2588,370.5625 Q316.5713,369.4844 316.5713,368.2031 L316.5713,367.0469 Q316.5713,365.7188 317.1806,364.5781 Q317.8056,363.4219 318.8994,362.8125 Q319.9931,362.1875 321.2275,362.1875 Q321.9619,362.1875 322.6025,362.3594 Q323.2588,362.5156 323.8056,362.875 Z " fill="#000000"/><text fill="#000000" font-family="sans-serif" font-size="14" lengthAdjust="spacing" textLength="86.3926" x="335.04" y="372.7285">ScopeSection</text><line style="stroke:#181818;stroke-width:0.5;" x1="307.04" x2="423.4326" y1="383" y2="383"/><line style="stroke:#181818;stroke-width:0.5;" x1="307.04" x2="423.4326" y1="391" y2="391"/></g><!--class Arrow--><g id="elem_Arrow"><rect codeLine="12" fill="#F1F1F1" height="100.8281" id="Arrow" rx="2.5" ry="2.5" style="stroke:#181818;stroke-width:0.5;" width="152.8682" x="138.54" y="460"/><ellipse cx="192.4448" cy="476" fill="#ADD1B2" rx="11" ry="11" style="stroke:#181818;stroke-width:1.0;"/><path d="M195.2104,471.875 Q195.3667,471.6563 195.5542,471.5469 Q195.7417,471.4375 195.9604,471.4375 Q196.3354,471.4375 196.5698,471.7031 Q196.8042,471.9531 196.8042,472.5625 L196.8042,474.0156 Q196.8042,474.625 196.5698,474.8906 Q196.3354,475.1563 195.9604,475.1563 Q195.6167,475.1563 195.4135,474.9531 Q195.2104,474.7656 195.101,474.25 Q195.0542,473.8906 194.8667,473.7031 Q194.5385,473.3281 193.9292,473.1094 Q193.3198,472.8906 192.6948,472.8906 Q191.9292,472.8906 191.2885,473.2188 Q190.6635,473.5469 190.1635,474.2969 Q189.6792,475.0469 189.6792,476.0781 L189.6792,477.1719 Q189.6792,478.4063 190.5698,479.2344 Q191.4604,480.0469 193.0542,480.0469 Q193.9917,480.0469 194.6479,479.7969 Q195.0385,479.6406 195.4604,479.2031 Q195.726,478.9375 195.8667,478.8594 Q196.0229,478.7813 196.226,478.7813 Q196.5542,478.7813 196.8042,479.0469 Q197.0698,479.2969 197.0698,479.6406 Q197.0698,479.9844 196.726,480.3906 Q196.226,480.9688 195.4292,481.2969 Q194.351,481.75 193.0542,481.75 Q191.5385,481.75 190.3354,481.125 Q189.351,480.625 188.6635,479.5625 Q187.976,478.4844 187.976,477.2031 L187.976,476.0469 Q187.976,474.7188 188.5854,473.5781 Q189.2104,472.4219 190.3042,471.8125 Q191.3979,471.1875 192.6323,471.1875 Q193.3667,471.1875 194.0073,471.3594 Q194.6635,471.5156 195.2104,471.875 Z " fill="#000000"/><text fill="#000000" font-family="sans-serif" font-size="14" lengthAdjust="spacing" textLength="36.5586" x="212.9448" y="481.7285">Arrow</text><line style="stroke:#181818;stroke-width:0.5;" x1="139.54" x2="290.4082" y1="492" y2="492"/><text fill="#000000" font-family="sans-serif" font-size="14" lengthAdjust="spacing" textLength="98.8271" x="144.54" y="510.5332">is_resume: bool</text><text fill="#000000" font-family="sans-serif" font-size="14" lengthAdjust="spacing" textLength="91.8203" x="144.54" y="528.1426">is_restart: bool</text><text fill="#000000" font-family="sans-serif" font-size="14" lengthAdjust="spacing" textLength="140.8682" x="144.54" y="545.752">target_id: Identification</text><line style="stroke:#181818;stroke-width:0.5;" x1="139.54" x2="290.4082" y1="552.8281" y2="552.8281"/></g><!--class Scope--><g id="elem_Scope"><rect fill="#F1F1F1" height="48" id="Scope" rx="2.5" ry="2.5" style="stroke:#181818;stroke-width:0.5;" width="71.6963" x="43.04" y="732.5"/><ellipse cx="58.04" cy="748.5" fill="#ADD1B2" rx="11" ry="11" style="stroke:#181818;stroke-width:1.0;"/><path d="M60.8056,744.375 Q60.9619,744.1563 61.1494,744.0469 Q61.3369,743.9375 61.5556,743.9375 Q61.9306,743.9375 62.165,744.2031 Q62.3994,744.4531 62.3994,745.0625 L62.3994,746.5156 Q62.3994,747.125 62.165,747.3906 Q61.9306,747.6563 61.5556,747.6563 Q61.2119,747.6563 61.0088,747.4531 Q60.8056,747.2656 60.6963,746.75 Q60.6494,746.3906 60.4619,746.2031 Q60.1338,745.8281 59.5244,745.6094 Q58.915,745.3906 58.29,745.3906 Q57.5244,745.3906 56.8838,745.7188 Q56.2588,746.0469 55.7588,746.7969 Q55.2744,747.5469 55.2744,748.5781 L55.2744,749.6719 Q55.2744,750.9063 56.165,751.7344 Q57.0556,752.5469 58.6494,752.5469 Q59.5869,752.5469 60.2431,752.2969 Q60.6338,752.1406 61.0556,751.7031 Q61.3213,751.4375 61.4619,751.3594 Q61.6181,751.2813 61.8213,751.2813 Q62.1494,751.2813 62.3994,751.5469 Q62.665,751.7969 62.665,752.1406 Q62.665,752.4844 62.3213,752.8906 Q61.8213,753.4688 61.0244,753.7969 Q59.9463,754.25 58.6494,754.25 Q57.1338,754.25 55.9306,753.625 Q54.9463,753.125 54.2588,752.0625 Q53.5713,750.9844 53.5713,749.7031 L53.5713,748.5469 Q53.5713,747.2188 54.1806,746.0781 Q54.8056,744.9219 55.8994,744.3125 Q56.9931,743.6875 58.2275,743.6875 Q58.9619,743.6875 59.6025,743.8594 Q60.2588,744.0156 60.8056,744.375 Z " fill="#000000"/><text fill="#000000" font-family="sans-serif" font-size="14" lengthAdjust="spacing" textLength="39.6963" x="72.04" y="754.2285">Scope</text><line style="stroke:#181818;stroke-width:0.5;" x1="44.04" x2="113.7363" y1="764.5" y2="764.5"/><line style="stroke:#181818;stroke-width:0.5;" x1="44.04" x2="113.7363" y1="772.5" y2="772.5"/></g><!--class Target--><g id="elem_Target"><rect fill="#F1F1F1" height="48" id="Target" rx="2.5" ry="2.5" style="stroke:#181818;stroke-width:0.5;" width="72.4619" x="176.04" y="732.5"/><ellipse cx="191.04" cy="748.5" fill="#ADD1B2" rx="11" ry="11" style="stroke:#181818;stroke-width:1.0;"/><path d="M193.8056,744.375 Q193.9619,744.1563 194.1494,744.0469 Q194.3369,743.9375 194.5556,743.9375 Q194.9306,743.9375 195.165,744.2031 Q195.3994,744.4531 195.3994,745.0625 L195.3994,746.5156 Q195.3994,747.125 195.165,747.3906 Q194.9306,747.6563 194.5556,747.6563 Q194.2119,747.6563 194.0088,747.4531 Q193.8056,747.2656 193.6963,746.75 Q193.6494,746.3906 193.4619,746.2031 Q193.1338,745.8281 192.5244,745.6094 Q191.915,745.3906 191.29,745.3906 Q190.5244,745.3906 189.8838,745.7188 Q189.2588,746.0469 188.7588,746.7969 Q188.2744,747.5469 188.2744,748.5781 L188.2744,749.6719 Q188.2744,750.9063 189.165,751.7344 Q190.0556,752.5469 191.6494,752.5469 Q192.5869,752.5469 193.2431,752.2969 Q193.6338,752.1406 194.0556,751.7031 Q194.3213,751.4375 194.4619,751.3594 Q194.6181,751.2813 194.8213,751.2813 Q195.1494,751.2813 195.3994,751.5469 Q195.665,751.7969 195.665,752.1406 Q195.665,752.4844 195.3213,752.8906 Q194.8213,753.4688 194.0244,753.7969 Q192.9463,754.25 191.6494,754.25 Q190.1338,754.25 188.9306,753.625 Q187.9463,753.125 187.2588,752.0625 Q186.5713,750.9844 186.5713,749.7031 L186.5713,748.5469 Q186.5713,747.2188 187.1806,746.0781 Q187.8056,744.9219 188.8994,744.3125 Q189.9931,743.6875 191.2275,743.6875 Q191.9619,743.6875 192.6025,743.8594 Q193.2588,744.0156 193.8056,744.375 Z " fill="#000000"/><text fill="#000000" font-family="sans-serif" font-size="14" lengthAdjust="spacing" textLength="40.4619" x="205.04" y="754.2285">Target</text><line style="stroke:#181818;stroke-width:0.5;" x1="177.04" x2="247.5019" y1="764.5" y2="764.5"/><line style="stroke:#181818;stroke-width:0.5;" x1="177.04" x2="247.5019" y1="772.5" y2="772.5"/></g><!--class ForkTree--><g id="elem_ForkTree"><rect codeLine="34" fill="#F1F1F1" height="100.8281" id="ForkTree" rx="2.5" ry="2.5" style="stroke:#181818;stroke-width:0.5;" width="220.5166" x="283.54" y="706"/><ellipse cx="361.1552" cy="722" fill="#ADD1B2" rx="11" ry="11" style="stroke:#181818;stroke-width:1.0;"/><path d="M363.9209,717.875 Q364.0771,717.6563 364.2646,717.5469 Q364.4521,717.4375 364.6709,717.4375 Q365.0459,717.4375 365.2802,717.7031 Q365.5146,717.9531 365.5146,718.5625 L365.5146,720.0156 Q365.5146,720.625 365.2802,720.8906 Q365.0459,721.1563 364.6709,721.1563 Q364.3271,721.1563 364.124,720.9531 Q363.9209,720.7656 363.8115,720.25 Q363.7646,719.8906 363.5771,719.7031 Q363.249,719.3281 362.6396,719.1094 Q362.0302,718.8906 361.4052,718.8906 Q360.6396,718.8906 359.999,719.2188 Q359.374,719.5469 358.874,720.2969 Q358.3896,721.0469 358.3896,722.0781 L358.3896,723.1719 Q358.3896,724.4063 359.2802,725.2344 Q360.1709,726.0469 361.7646,726.0469 Q362.7021,726.0469 363.3584,725.7969 Q363.749,725.6406 364.1709,725.2031 Q364.4365,724.9375 364.5771,724.8594 Q364.7334,724.7813 364.9365,724.7813 Q365.2646,724.7813 365.5146,725.0469 Q365.7802,725.2969 365.7802,725.6406 Q365.7802,725.9844 365.4365,726.3906 Q364.9365,726.9688 364.1396,727.2969 Q363.0615,727.75 361.7646,727.75 Q360.249,727.75 359.0459,727.125 Q358.0615,726.625 357.374,725.5625 Q356.6865,724.4844 356.6865,723.2031 L356.6865,722.0469 Q356.6865,720.7188 357.2959,719.5781 Q357.9209,718.4219 359.0146,717.8125 Q360.1084,717.1875 361.3427,717.1875 Q362.0771,717.1875 362.7177,717.3594 Q363.374,717.5156 363.9209,717.875 Z " fill="#000000"/><text fill="#000000" font-family="sans-serif" font-size="14" lengthAdjust="spacing" textLength="56.7861" x="381.6552" y="727.7285">ForkTree</text><line style="stroke:#181818;stroke-width:0.5;" x1="284.54" x2="503.0566" y1="738" y2="738"/><text fill="#000000" font-family="sans-serif" font-size="14" lengthAdjust="spacing" textLength="94.1309" x="289.54" y="756.5332">if_arrow: Arrow</text><text fill="#000000" font-family="sans-serif" font-size="14" lengthAdjust="spacing" textLength="208.5166" x="289.54" y="774.1426">elsif_arrows: Optional[List[Arrow]]</text><text fill="#000000" font-family="sans-serif" font-size="14" lengthAdjust="spacing" textLength="159.5098" x="289.54" y="791.752">else: Optional[List[Arrow]]</text><line style="stroke:#181818;stroke-width:0.5;" x1="284.54" x2="503.0566" y1="798.8281" y2="798.8281"/></g><!--reverse link StateMachine to StateMachineItem--><g id="link_StateMachine_StateMachineItem"><path codeLine="2" d="M297.04,67.22 C297.04,85.16 297.04,97.89 297.04,115.83 " fill="none" id="StateMachine-backto-StateMachineItem" style="stroke:#181818;stroke-width:1.0;"/><polygon fill="#181818" points="297.04,55.22,293.04,61.22,297.04,67.22,301.04,61.22,297.04,55.22" style="stroke:#181818;stroke-width:1.0;"/></g><!--reverse link StateMachineItem to State--><g id="link_StateMachineItem_State"><path codeLine="4" d="M297.04,182.22 C297.04,200.16 297.04,206.89 297.04,224.83 " fill="none" id="StateMachineItem-backto-State" style="stroke:#181818;stroke-width:1.0;"/><polygon fill="none" points="297.04,164.22,291.04,182.22,303.04,182.22,297.04,164.22" style="stroke:#181818;stroke-width:1.0;"/></g><!--reverse link State to Transition--><g id="link_State_Transition"><path codeLine="6" d="M253.0391,263.0917 C231.4791,270.9117 216.18,280.51 203.04,303 C194.59,317.46 198.28,336.24 203.71,350.85 " fill="none" id="State-backto-Transition" style="stroke:#181818;stroke-width:1.0;"/><polygon fill="#181818" points="264.32,259,257.3157,257.2855,253.0391,263.0917,260.0435,264.8061,264.32,259" style="stroke:#181818;stroke-width:1.0;"/><polygon fill="#000000" points="205.59,316.5344,212.584,310.0897,207.4601,307.2095,205.59,316.5344" style="stroke:#000000;stroke-width:1.0;"/><text fill="#000000" font-family="sans-serif" font-size="13" lengthAdjust="spacing" textLength="36.1309" x="217.04" y="317.4951">strong</text><text fill="#000000" font-family="sans-serif" font-size="13" lengthAdjust="spacing" textLength="5.0591" x="195.1136" y="340.1517">*</text></g><!--reverse link State to Transition--><g id="link_State_Transition"><path codeLine="8" d="M280.0872,283.9891 C272.7972,298.1491 268.32,305.71 258.04,321 C251.17,331.23 242.78,341.89 235.25,350.95 " fill="none" id="State-backto-Transition-1" style="stroke:#181818;stroke-width:1.0;"/><polygon fill="#181818" points="285.58,273.32,279.2773,276.8236,280.0872,283.9891,286.39,280.4855,285.58,273.32" style="stroke:#181818;stroke-width:1.0;"/><polygon fill="#000000" points="270.2581,316.3304,277.7327,310.4498,272.8486,307.1794,270.2581,316.3304" style="stroke:#000000;stroke-width:1.0;"/><text fill="#000000" font-family="sans-serif" font-size="13" lengthAdjust="spacing" textLength="30.3481" x="282.04" y="317.4951">weak</text><text fill="#000000" font-family="sans-serif" font-size="13" lengthAdjust="spacing" textLength="5.0591" x="234.7357" y="340.2773">*</text></g><!--reverse link State to ScopeSection--><g id="link_State_ScopeSection"><path codeLine="7" d="M328.939,282.082 C336.879,290.822 337.12,292.35 343.04,303 C351.39,318 357,336.58 360.47,350.97 " fill="none" id="State-backto-ScopeSection" style="stroke:#181818;stroke-width:1.0;"/><polygon fill="#181818" points="320.87,273.2,321.9438,280.3307,328.939,282.082,327.8652,274.9513,320.87,273.2" style="stroke:#181818;stroke-width:1.0;"/><text fill="#000000" font-family="sans-serif" font-size="13" lengthAdjust="spacing" textLength="5.0591" x="353.6156" y="340.3025">*</text></g><!--reverse link Transition to Arrow--><g id="link_Transition_Arrow"><path codeLine="10" d="M215.04,411.25 C215.04,427.99 215.04,439.18 215.04,459.98 " fill="none" id="Transition-backto-Arrow" style="stroke:#181818;stroke-width:1.0;"/><polygon fill="#181818" points="215.04,399.25,211.04,405.25,215.04,411.25,219.04,405.25,215.04,399.25" style="stroke:#181818;stroke-width:1.0;"/></g><!--reverse link Arrow to Scope--><g id="link_Arrow_Scope"><path codeLine="19" d="M126.8251,528.4132 C88.9051,539.4132 57.98,555.79 35.04,591 C6,635.59 39.55,698.8 62.03,732.4 " fill="none" id="Arrow-backto-Scope" style="stroke:#181818;stroke-width:1.0;"/><polygon fill="#181818" points="138.35,525.07,131.4732,522.9,126.8251,528.4132,133.702,530.5832,138.35,525.07" style="stroke:#181818;stroke-width:1.0;"/><polygon fill="#000000" points="38.5263,638.4412,44.0656,630.7102,38.4636,628.9308,38.5263,638.4412" style="stroke:#000000;stroke-width:1.0;"/><text fill="#000000" font-family="sans-serif" font-size="13" lengthAdjust="spacing" textLength="33.249" x="49.04" y="638.9951">guard</text></g><!--reverse link Arrow to Scope--><g id="link_Arrow_Scope"><path codeLine="20" d="M169.5206,571.2271 C162.7306,580.8271 162.89,581.16 157.04,591 C128.29,639.36 101.81,700 88.35,732.46 " fill="none" id="Arrow-backto-Scope-1" style="stroke:#181818;stroke-width:1.0;"/><polygon fill="#181818" points="176.45,561.43,169.7196,564.0187,169.5206,571.2271,176.251,568.6384,176.45,561.43" style="stroke:#181818;stroke-width:1.0;"/><polygon fill="#000000" points="159.7917,638.1418,166.484,631.3843,161.2339,628.7412,159.7917,638.1418" style="stroke:#000000;stroke-width:1.0;"/><text fill="#000000" font-family="sans-serif" font-size="13" lengthAdjust="spacing" textLength="34.6899" x="171.04" y="638.9951">action</text></g><!--reverse link Arrow to Target--><g id="link_Arrow_Target"><path codeLine="22" d="M214.283,573.1691 C213.643,625.4191 212.81,693.38 212.33,732.43 " fill="none" id="Arrow-backto-Target" style="stroke:#181818;stroke-width:1.0;"/><polygon fill="#181818" points="214.43,561.17,210.3568,567.1206,214.283,573.1691,218.3562,567.2185,214.43,561.17" style="stroke:#181818;stroke-width:1.0;"/><polygon fill="#000000" points="218.9787,638.6754,222.0283,629.667,216.1509,629.595,218.9787,638.6754" style="stroke:#000000;stroke-width:1.0;"/><text fill="#000000" font-family="sans-serif" font-size="13" lengthAdjust="spacing" textLength="33.2427" x="228.04" y="638.9951">target</text></g><!--reverse link Arrow to ForkTree--><g id="link_Arrow_ForkTree"><path codeLine="23" d="M257.7447,571.2187 C264.3147,580.9287 264.21,581.19 270.04,591 C291.69,627.38 288.05,641.83 313.04,676 C320.49,686.18 329.27,696.24 338.26,705.6 " fill="none" id="Arrow-backto-ForkTree" style="stroke:#181818;stroke-width:1.0;"/><polygon fill="#181818" points="251.02,561.28,251.0695,568.4909,257.7447,571.2187,257.6953,564.0078,251.02,561.28" style="stroke:#181818;stroke-width:1.0;"/><polygon fill="#000000" points="320.6098,637.9648,318.482,628.6954,313.4399,631.7164,320.6098,637.9648" style="stroke:#000000;stroke-width:1.0;"/><text fill="#000000" font-family="sans-serif" font-size="13" lengthAdjust="spacing" textLength="21.6709" x="327.04" y="638.9951">fork</text></g><!--reverse link ForkTree to Arrow--><g id="link_ForkTree_Arrow"><path codeLine="27" d="M390.4727,693.8714 C386.6227,658.7414 378.03,624.13 353.04,591 C337.31,570.14 314.39,553.85 291.73,541.59 " fill="none" id="ForkTree-backto-Arrow" style="stroke:#181818;stroke-width:1.0;"/><polygon fill="#181818" points="391.78,705.8,395.1025,699.3999,390.4727,693.8714,387.1502,700.2715,391.78,705.8" style="stroke:#181818;stroke-width:1.0;"/><path d="M392.04,596 L392.04,671 L482.04,671 L482.04,606 L472.04,596 L392.04,596 " fill="#FEFFDD" style="stroke:#181818;stroke-width:0.5;"/><path d="M472.04,596 L472.04,606 L482.04,606 L472.04,596 " fill="#FEFFDD" style="stroke:#181818;stroke-width:0.5;"/><text fill="#000000" font-family="sans-serif" font-size="13" lengthAdjust="spacing" textLength="33.96" x="398.04" y="614.4951">Links:</text><text fill="#000000" font-family="sans-serif" font-size="13" lengthAdjust="spacing" textLength="46.2363" x="398.04" y="630.8467">if_arrow</text><text fill="#000000" font-family="sans-serif" font-size="13" lengthAdjust="spacing" textLength="69.3545" x="398.04" y="647.1982">elsif_arrows</text><text fill="#000000" font-family="sans-serif" font-size="13" lengthAdjust="spacing" textLength="23.8481" x="398.04" y="663.5498">else</text></g><!--SRC=[VL31QiCm3BthAqGlWq9_m9J1BeD2nmx9hPJW9KeYcjh5LibXwx_FTf8cwzWkndfwx-b9JvY95lBOixGeJXlFmjPuIFYRBbisXElD1fV0JkWCy8ZWzclYZSqaNArNcD-T5NfnrZJu_439IdkXZCf8-aVTapu5BSnOehquPtk0ijFU3mL-0YAoBnpvwvaKVbZRpP1e9pCMgeQau4hXhY8ZN7EfKv8R00n-wGWnfCBcgbqLKlngw1G_vfjRUV9MuumVgbVhJhcZ8Ap3Bye09conbh7X68wRLZ2OTsnEi0-FLy1reHE5EZ_zVIm8o5GOXUDDxhRnB1DLZGCGbtg5xvUuXkuEU_PoI9pZSM3HNztRDm00]--></g></svg>