<svg xmlns="http://www.w3.org/2000/svg" xmlns:xlink="http://www.w3.org/1999/xlink" contentStyleType="text/css" height="477px" preserveAspectRatio="none" style="width:707px;height:477px;background:#FFFFFF;" version="1.1" viewBox="0 0 707 477" width="707px" zoomAndPan="magnify"><defs/><g><!--class TypeExpression--><g id="elem_TypeExpression"><rect fill="#F1F1F1" height="48" id="TypeExpression" rx="2.5" ry="2.5" style="stroke:#181818;stroke-width:0.5;" width="132.3789" x="7" y="215"/><ellipse cx="22" cy="231" fill="#ADD1B2" rx="11" ry="11" style="stroke:#181818;stroke-width:1.0;"/><path d="M24.7656,226.875 Q24.9219,226.6563 25.1094,226.5469 Q25.2969,226.4375 25.5156,226.4375 Q25.8906,226.4375 26.125,226.7031 Q26.3594,226.9531 26.3594,227.5625 L26.3594,229.0156 Q26.3594,229.625 26.125,229.8906 Q25.8906,230.1563 25.5156,230.1563 Q25.1719,230.1563 24.9688,229.9531 Q24.7656,229.7656 24.6563,229.25 Q24.6094,228.8906 24.4219,228.7031 Q24.0938,228.3281 23.4844,228.1094 Q22.875,227.8906 22.25,227.8906 Q21.4844,227.8906 20.8438,228.2188 Q20.2188,228.5469 19.7188,229.2969 Q19.2344,230.0469 19.2344,231.0781 L19.2344,232.1719 Q19.2344,233.4063 20.125,234.2344 Q21.0156,235.0469 22.6094,235.0469 Q23.5469,235.0469 24.2031,234.7969 Q24.5938,234.6406 25.0156,234.2031 Q25.2813,233.9375 25.4219,233.8594 Q25.5781,233.7813 25.7813,233.7813 Q26.1094,233.7813 26.3594,234.0469 Q26.625,234.2969 26.625,234.6406 Q26.625,234.9844 26.2813,235.3906 Q25.7813,235.9688 24.9844,236.2969 Q23.9063,236.75 22.6094,236.75 Q21.0938,236.75 19.8906,236.125 Q18.9063,235.625 18.2188,234.5625 Q17.5313,233.4844 17.5313,232.2031 L17.5313,231.0469 Q17.5313,229.7188 18.1406,228.5781 Q18.7656,227.4219 19.8594,226.8125 Q20.9531,226.1875 22.1875,226.1875 Q22.9219,226.1875 23.5625,226.3594 Q24.2188,226.5156 24.7656,226.875 Z " fill="#000000"/><text fill="#000000" font-family="sans-serif" font-size="14" lengthAdjust="spacing" textLength="100.3789" x="36" y="236.7285">TypeExpression</text><line style="stroke:#181818;stroke-width:0.5;" x1="8" x2="138.3789" y1="247" y2="247"/><line style="stroke:#181818;stroke-width:0.5;" x1="8" x2="138.3789" y1="255" y2="255"/></g><!--class PredefinedType--><g id="elem_PredefinedType"><rect fill="#F1F1F1" height="48" id="PredefinedType" rx="2.5" ry="2.5" style="stroke:#181818;stroke-width:0.5;" width="130.8408" x="232" y="7"/><ellipse cx="247" cy="23" fill="#ADD1B2" rx="11" ry="11" style="stroke:#181818;stroke-width:1.0;"/><path d="M249.7656,18.875 Q249.9219,18.6563 250.1094,18.5469 Q250.2969,18.4375 250.5156,18.4375 Q250.8906,18.4375 251.125,18.7031 Q251.3594,18.9531 251.3594,19.5625 L251.3594,21.0156 Q251.3594,21.625 251.125,21.8906 Q250.8906,22.1563 250.5156,22.1563 Q250.1719,22.1563 249.9688,21.9531 Q249.7656,21.7656 249.6563,21.25 Q249.6094,20.8906 249.4219,20.7031 Q249.0938,20.3281 248.4844,20.1094 Q247.875,19.8906 247.25,19.8906 Q246.4844,19.8906 245.8438,20.2188 Q245.2188,20.5469 244.7188,21.2969 Q244.2344,22.0469 244.2344,23.0781 L244.2344,24.1719 Q244.2344,25.4063 245.125,26.2344 Q246.0156,27.0469 247.6094,27.0469 Q248.5469,27.0469 249.2031,26.7969 Q249.5938,26.6406 250.0156,26.2031 Q250.2813,25.9375 250.4219,25.8594 Q250.5781,25.7813 250.7813,25.7813 Q251.1094,25.7813 251.3594,26.0469 Q251.625,26.2969 251.625,26.6406 Q251.625,26.9844 251.2813,27.3906 Q250.7813,27.9688 249.9844,28.2969 Q248.9063,28.75 247.6094,28.75 Q246.0938,28.75 244.8906,28.125 Q243.9063,27.625 243.2188,26.5625 Q242.5313,25.4844 242.5313,24.2031 L242.5313,23.0469 Q242.5313,21.7188 243.1406,20.5781 Q243.7656,19.4219 244.8594,18.8125 Q245.9531,18.1875 247.1875,18.1875 Q247.9219,18.1875 248.5625,18.3594 Q249.2188,18.5156 249.7656,18.875 Z " fill="#000000"/><text fill="#000000" font-family="sans-serif" font-size="14" lengthAdjust="spacing" textLength="98.8408" x="261" y="28.7285">PredefinedType</text><line style="stroke:#181818;stroke-width:0.5;" x1="233" x2="361.8408" y1="39" y2="39"/><line style="stroke:#181818;stroke-width:0.5;" x1="233" x2="361.8408" y1="47" y2="47"/></g><g id="elem_GMN5"><path d="M456,9.5 L456,27 L363.09,31 L456,35 L456,52.2031 A0,0 0 0 0 456,52.2031 L700.2725,52.2031 A0,0 0 0 0 700.2725,52.2031 L700.2725,19.5 L690.2725,9.5 L456,9.5 A0,0 0 0 0 456,9.5 " fill="#FEFFDD" style="stroke:#181818;stroke-width:0.5;"/><path d="M690.2725,9.5 L690.2725,19.5 L700.2725,19.5 L690.2725,9.5 " fill="#FEFFDD" style="stroke:#181818;stroke-width:0.5;"/><text fill="#000000" font-family="sans-serif" font-size="13" lengthAdjust="spacing" textLength="223.2725" x="462" y="27.9951">Base class for BoolType, Int32Type, ...</text><text fill="#000000" font-family="sans-serif" font-size="13" lengthAdjust="spacing" textLength="46.96" x="462" y="44.3467">classes.</text></g><!--class SizedTypeExpression--><g id="elem_SizedTypeExpression"><rect fill="#F1F1F1" height="48" id="SizedTypeExpression" rx="2.5" ry="2.5" style="stroke:#181818;stroke-width:0.5;" width="167.3994" x="214" y="90"/><ellipse cx="229" cy="106" fill="#ADD1B2" rx="11" ry="11" style="stroke:#181818;stroke-width:1.0;"/><path d="M231.7656,101.875 Q231.9219,101.6563 232.1094,101.5469 Q232.2969,101.4375 232.5156,101.4375 Q232.8906,101.4375 233.125,101.7031 Q233.3594,101.9531 233.3594,102.5625 L233.3594,104.0156 Q233.3594,104.625 233.125,104.8906 Q232.8906,105.1563 232.5156,105.1563 Q232.1719,105.1563 231.9688,104.9531 Q231.7656,104.7656 231.6563,104.25 Q231.6094,103.8906 231.4219,103.7031 Q231.0938,103.3281 230.4844,103.1094 Q229.875,102.8906 229.25,102.8906 Q228.4844,102.8906 227.8438,103.2188 Q227.2188,103.5469 226.7188,104.2969 Q226.2344,105.0469 226.2344,106.0781 L226.2344,107.1719 Q226.2344,108.4063 227.125,109.2344 Q228.0156,110.0469 229.6094,110.0469 Q230.5469,110.0469 231.2031,109.7969 Q231.5938,109.6406 232.0156,109.2031 Q232.2813,108.9375 232.4219,108.8594 Q232.5781,108.7813 232.7813,108.7813 Q233.1094,108.7813 233.3594,109.0469 Q233.625,109.2969 233.625,109.6406 Q233.625,109.9844 233.2813,110.3906 Q232.7813,110.9688 231.9844,111.2969 Q230.9063,111.75 229.6094,111.75 Q228.0938,111.75 226.8906,111.125 Q225.9063,110.625 225.2188,109.5625 Q224.5313,108.4844 224.5313,107.2031 L224.5313,106.0469 Q224.5313,104.7188 225.1406,103.5781 Q225.7656,102.4219 226.8594,101.8125 Q227.9531,101.1875 229.1875,101.1875 Q229.9219,101.1875 230.5625,101.3594 Q231.2188,101.5156 231.7656,101.875 Z " fill="#000000"/><text fill="#000000" font-family="sans-serif" font-size="14" lengthAdjust="spacing" textLength="135.3994" x="243" y="111.7285">SizedTypeExpression</text><line style="stroke:#181818;stroke-width:0.5;" x1="215" x2="380.3994" y1="122" y2="122"/><line style="stroke:#181818;stroke-width:0.5;" x1="215" x2="380.3994" y1="130" y2="130"/></g><!--class TypeReferenceExpression--><g id="elem_TypeReferenceExpression"><rect fill="#F1F1F1" height="48" id="TypeReferenceExpression" rx="2.5" ry="2.5" style="stroke:#181818;stroke-width:0.5;" width="196.9717" x="199" y="173"/><ellipse cx="214" cy="189" fill="#ADD1B2" rx="11" ry="11" style="stroke:#181818;stroke-width:1.0;"/><path d="M216.7656,184.875 Q216.9219,184.6563 217.1094,184.5469 Q217.2969,184.4375 217.5156,184.4375 Q217.8906,184.4375 218.125,184.7031 Q218.3594,184.9531 218.3594,185.5625 L218.3594,187.0156 Q218.3594,187.625 218.125,187.8906 Q217.8906,188.1563 217.5156,188.1563 Q217.1719,188.1563 216.9688,187.9531 Q216.7656,187.7656 216.6563,187.25 Q216.6094,186.8906 216.4219,186.7031 Q216.0938,186.3281 215.4844,186.1094 Q214.875,185.8906 214.25,185.8906 Q213.4844,185.8906 212.8438,186.2188 Q212.2188,186.5469 211.7188,187.2969 Q211.2344,188.0469 211.2344,189.0781 L211.2344,190.1719 Q211.2344,191.4063 212.125,192.2344 Q213.0156,193.0469 214.6094,193.0469 Q215.5469,193.0469 216.2031,192.7969 Q216.5938,192.6406 217.0156,192.2031 Q217.2813,191.9375 217.4219,191.8594 Q217.5781,191.7813 217.7813,191.7813 Q218.1094,191.7813 218.3594,192.0469 Q218.625,192.2969 218.625,192.6406 Q218.625,192.9844 218.2813,193.3906 Q217.7813,193.9688 216.9844,194.2969 Q215.9063,194.75 214.6094,194.75 Q213.0938,194.75 211.8906,194.125 Q210.9063,193.625 210.2188,192.5625 Q209.5313,191.4844 209.5313,190.2031 L209.5313,189.0469 Q209.5313,187.7188 210.1406,186.5781 Q210.7656,185.4219 211.8594,184.8125 Q212.9531,184.1875 214.1875,184.1875 Q214.9219,184.1875 215.5625,184.3594 Q216.2188,184.5156 216.7656,184.875 Z " fill="#000000"/><text fill="#000000" font-family="sans-serif" font-size="14" lengthAdjust="spacing" textLength="164.9717" x="228" y="194.7285">TypeReferenceExpression</text><line style="stroke:#181818;stroke-width:0.5;" x1="200" x2="394.9717" y1="205" y2="205"/><line style="stroke:#181818;stroke-width:0.5;" x1="200" x2="394.9717" y1="213" y2="213"/></g><!--class VariableTypeExpression--><g id="elem_VariableTypeExpression"><rect fill="#F1F1F1" height="48" id="VariableTypeExpression" rx="2.5" ry="2.5" style="stroke:#181818;stroke-width:0.5;" width="183.7441" x="205.5" y="256"/><ellipse cx="220.5" cy="272" fill="#ADD1B2" rx="11" ry="11" style="stroke:#181818;stroke-width:1.0;"/><path d="M223.2656,267.875 Q223.4219,267.6563 223.6094,267.5469 Q223.7969,267.4375 224.0156,267.4375 Q224.3906,267.4375 224.625,267.7031 Q224.8594,267.9531 224.8594,268.5625 L224.8594,270.0156 Q224.8594,270.625 224.625,270.8906 Q224.3906,271.1563 224.0156,271.1563 Q223.6719,271.1563 223.4688,270.9531 Q223.2656,270.7656 223.1563,270.25 Q223.1094,269.8906 222.9219,269.7031 Q222.5938,269.3281 221.9844,269.1094 Q221.375,268.8906 220.75,268.8906 Q219.9844,268.8906 219.3438,269.2188 Q218.7188,269.5469 218.2188,270.2969 Q217.7344,271.0469 217.7344,272.0781 L217.7344,273.1719 Q217.7344,274.4063 218.625,275.2344 Q219.5156,276.0469 221.1094,276.0469 Q222.0469,276.0469 222.7031,275.7969 Q223.0938,275.6406 223.5156,275.2031 Q223.7813,274.9375 223.9219,274.8594 Q224.0781,274.7813 224.2813,274.7813 Q224.6094,274.7813 224.8594,275.0469 Q225.125,275.2969 225.125,275.6406 Q225.125,275.9844 224.7813,276.3906 Q224.2813,276.9688 223.4844,277.2969 Q222.4063,277.75 221.1094,277.75 Q219.5938,277.75 218.3906,277.125 Q217.4063,276.625 216.7188,275.5625 Q216.0313,274.4844 216.0313,273.2031 L216.0313,272.0469 Q216.0313,270.7188 216.6406,269.5781 Q217.2656,268.4219 218.3594,267.8125 Q219.4531,267.1875 220.6875,267.1875 Q221.4219,267.1875 222.0625,267.3594 Q222.7188,267.5156 223.2656,267.875 Z " fill="#000000"/><text fill="#000000" font-family="sans-serif" font-size="14" lengthAdjust="spacing" textLength="151.7441" x="234.5" y="277.7285">VariableTypeExpression</text><line style="stroke:#181818;stroke-width:0.5;" x1="206.5" x2="388.2441" y1="288" y2="288"/><line style="stroke:#181818;stroke-width:0.5;" x1="206.5" x2="388.2441" y1="296" y2="296"/></g><!--class ArrayTypeExpression--><g id="elem_ArrayTypeExpression"><rect fill="#F1F1F1" height="48" id="ArrayTypeExpression" rx="2.5" ry="2.5" style="stroke:#181818;stroke-width:0.5;" width="165.8271" x="214.5" y="339"/><ellipse cx="229.5" cy="355" fill="#ADD1B2" rx="11" ry="11" style="stroke:#181818;stroke-width:1.0;"/><path d="M232.2656,350.875 Q232.4219,350.6563 232.6094,350.5469 Q232.7969,350.4375 233.0156,350.4375 Q233.3906,350.4375 233.625,350.7031 Q233.8594,350.9531 233.8594,351.5625 L233.8594,353.0156 Q233.8594,353.625 233.625,353.8906 Q233.3906,354.1563 233.0156,354.1563 Q232.6719,354.1563 232.4688,353.9531 Q232.2656,353.7656 232.1563,353.25 Q232.1094,352.8906 231.9219,352.7031 Q231.5938,352.3281 230.9844,352.1094 Q230.375,351.8906 229.75,351.8906 Q228.9844,351.8906 228.3438,352.2188 Q227.7188,352.5469 227.2188,353.2969 Q226.7344,354.0469 226.7344,355.0781 L226.7344,356.1719 Q226.7344,357.4063 227.625,358.2344 Q228.5156,359.0469 230.1094,359.0469 Q231.0469,359.0469 231.7031,358.7969 Q232.0938,358.6406 232.5156,358.2031 Q232.7813,357.9375 232.9219,357.8594 Q233.0781,357.7813 233.2813,357.7813 Q233.6094,357.7813 233.8594,358.0469 Q234.125,358.2969 234.125,358.6406 Q234.125,358.9844 233.7813,359.3906 Q233.2813,359.9688 232.4844,360.2969 Q231.4063,360.75 230.1094,360.75 Q228.5938,360.75 227.3906,360.125 Q226.4063,359.625 225.7188,358.5625 Q225.0313,357.4844 225.0313,356.2031 L225.0313,355.0469 Q225.0313,353.7188 225.6406,352.5781 Q226.2656,351.4219 227.3594,350.8125 Q228.4531,350.1875 229.6875,350.1875 Q230.4219,350.1875 231.0625,350.3594 Q231.7188,350.5156 232.2656,350.875 Z " fill="#000000"/><text fill="#000000" font-family="sans-serif" font-size="14" lengthAdjust="spacing" textLength="133.8271" x="243.5" y="360.7285">ArrayTypeExpression</text><line style="stroke:#181818;stroke-width:0.5;" x1="215.5" x2="379.3271" y1="371" y2="371"/><line style="stroke:#181818;stroke-width:0.5;" x1="215.5" x2="379.3271" y1="379" y2="379"/></g><!--class ProtectedTypeExpression--><g id="elem_ProtectedTypeExpression"><rect fill="#F1F1F1" height="48" id="ProtectedTypeExpression" rx="2.5" ry="2.5" style="stroke:#181818;stroke-width:0.5;" width="192.3027" x="201.5" y="422"/><ellipse cx="216.5" cy="438" fill="#ADD1B2" rx="11" ry="11" style="stroke:#181818;stroke-width:1.0;"/><path d="M219.2656,433.875 Q219.4219,433.6563 219.6094,433.5469 Q219.7969,433.4375 220.0156,433.4375 Q220.3906,433.4375 220.625,433.7031 Q220.8594,433.9531 220.8594,434.5625 L220.8594,436.0156 Q220.8594,436.625 220.625,436.8906 Q220.3906,437.1563 220.0156,437.1563 Q219.6719,437.1563 219.4688,436.9531 Q219.2656,436.7656 219.1563,436.25 Q219.1094,435.8906 218.9219,435.7031 Q218.5938,435.3281 217.9844,435.1094 Q217.375,434.8906 216.75,434.8906 Q215.9844,434.8906 215.3438,435.2188 Q214.7188,435.5469 214.2188,436.2969 Q213.7344,437.0469 213.7344,438.0781 L213.7344,439.1719 Q213.7344,440.4063 214.625,441.2344 Q215.5156,442.0469 217.1094,442.0469 Q218.0469,442.0469 218.7031,441.7969 Q219.0938,441.6406 219.5156,441.2031 Q219.7813,440.9375 219.9219,440.8594 Q220.0781,440.7813 220.2813,440.7813 Q220.6094,440.7813 220.8594,441.0469 Q221.125,441.2969 221.125,441.6406 Q221.125,441.9844 220.7813,442.3906 Q220.2813,442.9688 219.4844,443.2969 Q218.4063,443.75 217.1094,443.75 Q215.5938,443.75 214.3906,443.125 Q213.4063,442.625 212.7188,441.5625 Q212.0313,440.4844 212.0313,439.2031 L212.0313,438.0469 Q212.0313,436.7188 212.6406,435.5781 Q213.2656,434.4219 214.3594,433.8125 Q215.4531,433.1875 216.6875,433.1875 Q217.4219,433.1875 218.0625,433.3594 Q218.7188,433.5156 219.2656,433.875 Z " fill="#000000"/><text fill="#000000" font-family="sans-serif" font-size="14" lengthAdjust="spacing" textLength="160.3027" x="230.5" y="443.7285">ProtectedTypeExpression</text><line style="stroke:#181818;stroke-width:0.5;" x1="202.5" x2="392.8027" y1="454" y2="454"/><line style="stroke:#181818;stroke-width:0.5;" x1="202.5" x2="392.8027" y1="462" y2="462"/></g><!--reverse link TypeExpression to PredefinedType--><g id="link_TypeExpression_PredefinedType"><path codeLine="4" d="M95.2871,199.025 C114.9371,163.365 147.34,112.35 199,72 C208.84,64.31 220.33,57.82 231.9,52.42 " fill="none" id="TypeExpression-backto-PredefinedType" style="stroke:#181818;stroke-width:1.0;"/><polygon fill="none" points="86.6,214.79,100.5421,201.9207,90.0321,196.1293,86.6,214.79" style="stroke:#181818;stroke-width:1.0;"/></g><!--reverse link TypeExpression to SizedTypeExpression--><g id="link_TypeExpression_SizedTypeExpression"><path codeLine="9" d="M120.6421,204.3533 C145.2721,186.4933 165.98,172.82 199,155 C210.15,148.98 222.37,143.23 234.28,138.04 " fill="none" id="TypeExpression-backto-SizedTypeExpression" style="stroke:#181818;stroke-width:1.0;"/><polygon fill="none" points="106.07,214.92,124.1643,209.2107,117.1198,199.496,106.07,214.92" style="stroke:#181818;stroke-width:1.0;"/></g><!--reverse link TypeExpression to TypeReferenceExpression--><g id="link_TypeExpression_TypeReferenceExpression"><path codeLine="10" d="M156.9378,223.3421 C175.5378,219.8321 178.52,219.27 198.61,215.48 " fill="none" id="TypeExpression-backto-TypeReferenceExpression" style="stroke:#181818;stroke-width:1.0;"/><polygon fill="none" points="139.25,226.68,158.0504,229.2381,155.8252,217.4462,139.25,226.68" style="stroke:#181818;stroke-width:1.0;"/></g><!--reverse link TypeExpression to VariableTypeExpression--><g id="link_TypeExpression_VariableTypeExpression"><path codeLine="12" d="M156.9512,254.2859 C177.6012,258.0959 183.11,259.11 205.23,263.18 " fill="none" id="TypeExpression-backto-VariableTypeExpression" style="stroke:#181818;stroke-width:1.0;"/><polygon fill="none" points="139.25,251.02,155.8626,260.1864,158.0399,248.3855,139.25,251.02" style="stroke:#181818;stroke-width:1.0;"/></g><!--reverse link TypeExpression to ArrayTypeExpression--><g id="link_TypeExpression_ArrayTypeExpression"><path codeLine="13" d="M121.9744,273.4292 C146.6144,290.7192 166.66,303.6 199,321 C210.77,327.33 223.69,333.45 236.17,338.96 " fill="none" id="TypeExpression-backto-ArrayTypeExpression" style="stroke:#181818;stroke-width:1.0;"/><polygon fill="none" points="107.24,263.09,118.528,278.3406,125.4208,268.5177,107.24,263.09" style="stroke:#181818;stroke-width:1.0;"/></g><!--reverse link TypeExpression to ProtectedTypeExpression--><g id="link_TypeExpression_ProtectedTypeExpression"><path codeLine="14" d="M95.7212,278.8291 C115.5812,314.0491 147.94,363.99 199,404 C207.78,410.88 217.85,416.85 228.12,421.96 " fill="none" id="TypeExpression-backto-ProtectedTypeExpression" style="stroke:#181818;stroke-width:1.0;"/><polygon fill="none" points="86.88,263.15,90.4948,281.7761,100.9475,275.882,86.88,263.15" style="stroke:#181818;stroke-width:1.0;"/></g><!--SRC=[ZOyn3u8m48Nt_ehRN8H4NLqaSM0pQjnhUOL6RCcr9cByyL9nGCB0TddtlNVt5dHk6-oV3SDxuwpmDsCRoV9E9Rj7aziAR8Aq2hGIDNIWu8XDMGKg34E5QFhFeEqxIUZ0AA2DHH6tmhg0dy_fyJAJ7gHgwJrfnvGvLqTzIRaDctK_fcaglWXyAc0BYecJbq_crUSEQarnKJj2Wz6r6x2Jy4MoaTSQCt9tpBATmHsuQw32-DSF]--></g></svg>