<svg xmlns="http://www.w3.org/2000/svg" xmlns:xlink="http://www.w3.org/1999/xlink" contentStyleType="text/css" height="62px" preserveAspectRatio="none" style="width:288px;height:62px;background:#FFFFFF;" version="1.1" viewBox="0 0 288 62" width="288px" zoomAndPan="magnify"><defs/><g><!--class Pragma--><g id="elem_Pragma"><rect fill="#F1F1F1" height="48" id="Pragma" rx="2.5" ry="2.5" style="stroke:#181818;stroke-width:0.5;" width="81.0205" x="7" y="7"/><ellipse cx="22" cy="23" fill="#ADD1B2" rx="11" ry="11" style="stroke:#181818;stroke-width:1.0;"/><path d="M24.7656,18.875 Q24.9219,18.6563 25.1094,18.5469 Q25.2969,18.4375 25.5156,18.4375 Q25.8906,18.4375 26.125,18.7031 Q26.3594,18.9531 26.3594,19.5625 L26.3594,21.0156 Q26.3594,21.625 26.125,21.8906 Q25.8906,22.1563 25.5156,22.1563 Q25.1719,22.1563 24.9688,21.9531 Q24.7656,21.7656 24.6563,21.25 Q24.6094,20.8906 24.4219,20.7031 Q24.0938,20.3281 23.4844,20.1094 Q22.875,19.8906 22.25,19.8906 Q21.4844,19.8906 20.8438,20.2188 Q20.2188,20.5469 19.7188,21.2969 Q19.2344,22.0469 19.2344,23.0781 L19.2344,24.1719 Q19.2344,25.4063 20.125,26.2344 Q21.0156,27.0469 22.6094,27.0469 Q23.5469,27.0469 24.2031,26.7969 Q24.5938,26.6406 25.0156,26.2031 Q25.2813,25.9375 25.4219,25.8594 Q25.5781,25.7813 25.7813,25.7813 Q26.1094,25.7813 26.3594,26.0469 Q26.625,26.2969 26.625,26.6406 Q26.625,26.9844 26.2813,27.3906 Q25.7813,27.9688 24.9844,28.2969 Q23.9063,28.75 22.6094,28.75 Q21.0938,28.75 19.8906,28.125 Q18.9063,27.625 18.2188,26.5625 Q17.5313,25.4844 17.5313,24.2031 L17.5313,23.0469 Q17.5313,21.7188 18.1406,20.5781 Q18.7656,19.4219 19.8594,18.8125 Q20.9531,18.1875 22.1875,18.1875 Q22.9219,18.1875 23.5625,18.3594 Q24.2188,18.5156 24.7656,18.875 Z " fill="#000000"/><text fill="#000000" font-family="sans-serif" font-size="14" lengthAdjust="spacing" textLength="49.0205" x="36" y="28.7285">Pragma</text><line style="stroke:#181818;stroke-width:0.5;" x1="8" x2="87.0205" y1="39" y2="39"/><line style="stroke:#181818;stroke-width:0.5;" x1="8" x2="87.0205" y1="47" y2="47"/></g><!--class DiagramPragma--><g id="elem_DiagramPragma"><rect fill="#F1F1F1" height="48" id="DiagramPragma" rx="2.5" ry="2.5" style="stroke:#181818;stroke-width:0.5;" width="133.9238" x="148" y="7"/><ellipse cx="163" cy="23" fill="#ADD1B2" rx="11" ry="11" style="stroke:#181818;stroke-width:1.0;"/><path d="M165.7656,18.875 Q165.9219,18.6563 166.1094,18.5469 Q166.2969,18.4375 166.5156,18.4375 Q166.8906,18.4375 167.125,18.7031 Q167.3594,18.9531 167.3594,19.5625 L167.3594,21.0156 Q167.3594,21.625 167.125,21.8906 Q166.8906,22.1563 166.5156,22.1563 Q166.1719,22.1563 165.9688,21.9531 Q165.7656,21.7656 165.6563,21.25 Q165.6094,20.8906 165.4219,20.7031 Q165.0938,20.3281 164.4844,20.1094 Q163.875,19.8906 163.25,19.8906 Q162.4844,19.8906 161.8438,20.2188 Q161.2188,20.5469 160.7188,21.2969 Q160.2344,22.0469 160.2344,23.0781 L160.2344,24.1719 Q160.2344,25.4063 161.125,26.2344 Q162.0156,27.0469 163.6094,27.0469 Q164.5469,27.0469 165.2031,26.7969 Q165.5938,26.6406 166.0156,26.2031 Q166.2813,25.9375 166.4219,25.8594 Q166.5781,25.7813 166.7813,25.7813 Q167.1094,25.7813 167.3594,26.0469 Q167.625,26.2969 167.625,26.6406 Q167.625,26.9844 167.2813,27.3906 Q166.7813,27.9688 165.9844,28.2969 Q164.9063,28.75 163.6094,28.75 Q162.0938,28.75 160.8906,28.125 Q159.9063,27.625 159.2188,26.5625 Q158.5313,25.4844 158.5313,24.2031 L158.5313,23.0469 Q158.5313,21.7188 159.1406,20.5781 Q159.7656,19.4219 160.8594,18.8125 Q161.9531,18.1875 163.1875,18.1875 Q163.9219,18.1875 164.5625,18.3594 Q165.2188,18.5156 165.7656,18.875 Z " fill="#000000"/><text fill="#000000" font-family="sans-serif" font-size="14" lengthAdjust="spacing" textLength="101.9238" x="177" y="28.7285">DiagramPragma</text><line style="stroke:#181818;stroke-width:0.5;" x1="149" x2="280.9238" y1="39" y2="39"/><line style="stroke:#181818;stroke-width:0.5;" x1="149" x2="280.9238" y1="47" y2="47"/></g><!--reverse link Pragma to DiagramPragma--><g id="link_Pragma_DiagramPragma"><path codeLine="3" d="M100.14,31 C118.02,31 127.63,31 147.86,31 " fill="none" id="Pragma-backto-DiagramPragma" style="stroke:#181818;stroke-width:1.0;"/><polygon fill="#181818" points="88.14,31,94.14,35,100.14,31,94.14,27,88.14,31" style="stroke:#181818;stroke-width:1.0;"/><text fill="#000000" font-family="sans-serif" font-size="13" lengthAdjust="spacing" textLength="46.9663" x="93.0382" y="45.2999">diagram</text></g><!--SRC=[oqbDAr4eoLSeoapFA558oInAJIx9pC_ZuWeeIapFJLJGqjLLIibCJ2zAp5LIS84m8580]--></g></svg>