<svg xmlns="http://www.w3.org/2000/svg" xmlns:xlink="http://www.w3.org/1999/xlink" contentStyleType="text/css" height="494px" preserveAspectRatio="none" style="width:372px;height:494px;background:#FFFFFF;" version="1.1" viewBox="0 0 372 494" width="372px" zoomAndPan="magnify"><defs/><g><!--class ActivateIf--><g id="elem_ActivateIf"><rect fill="#F1F1F1" height="48" id="ActivateIf" rx="2.5" ry="2.5" style="stroke:#181818;stroke-width:0.5;" width="89.5791" x="197.5" y="7"/><ellipse cx="212.5" cy="23" fill="#ADD1B2" rx="11" ry="11" style="stroke:#181818;stroke-width:1.0;"/><path d="M215.2656,18.875 Q215.4219,18.6563 215.6094,18.5469 Q215.7969,18.4375 216.0156,18.4375 Q216.3906,18.4375 216.625,18.7031 Q216.8594,18.9531 216.8594,19.5625 L216.8594,21.0156 Q216.8594,21.625 216.625,21.8906 Q216.3906,22.1563 216.0156,22.1563 Q215.6719,22.1563 215.4688,21.9531 Q215.2656,21.7656 215.1563,21.25 Q215.1094,20.8906 214.9219,20.7031 Q214.5938,20.3281 213.9844,20.1094 Q213.375,19.8906 212.75,19.8906 Q211.9844,19.8906 211.3438,20.2188 Q210.7188,20.5469 210.2188,21.2969 Q209.7344,22.0469 209.7344,23.0781 L209.7344,24.1719 Q209.7344,25.4063 210.625,26.2344 Q211.5156,27.0469 213.1094,27.0469 Q214.0469,27.0469 214.7031,26.7969 Q215.0938,26.6406 215.5156,26.2031 Q215.7813,25.9375 215.9219,25.8594 Q216.0781,25.7813 216.2813,25.7813 Q216.6094,25.7813 216.8594,26.0469 Q217.125,26.2969 217.125,26.6406 Q217.125,26.9844 216.7813,27.3906 Q216.2813,27.9688 215.4844,28.2969 Q214.4063,28.75 213.1094,28.75 Q211.5938,28.75 210.3906,28.125 Q209.4063,27.625 208.7188,26.5625 Q208.0313,25.4844 208.0313,24.2031 L208.0313,23.0469 Q208.0313,21.7188 208.6406,20.5781 Q209.2656,19.4219 210.3594,18.8125 Q211.4531,18.1875 212.6875,18.1875 Q213.4219,18.1875 214.0625,18.3594 Q214.7188,18.5156 215.2656,18.875 Z " fill="#000000"/><text fill="#000000" font-family="sans-serif" font-size="14" lengthAdjust="spacing" textLength="57.5791" x="226.5" y="28.7285">ActivateIf</text><line style="stroke:#181818;stroke-width:0.5;" x1="198.5" x2="286.0791" y1="39" y2="39"/><line style="stroke:#181818;stroke-width:0.5;" x1="198.5" x2="286.0791" y1="47" y2="47"/></g><!--class IfActivation--><g id="elem_IfActivation"><rect fill="#F1F1F1" height="48" id="IfActivation" rx="2.5" ry="2.5" style="stroke:#181818;stroke-width:0.5;" width="100.4756" x="192.5" y="115"/><ellipse cx="207.5" cy="131" fill="#ADD1B2" rx="11" ry="11" style="stroke:#181818;stroke-width:1.0;"/><path d="M210.2656,126.875 Q210.4219,126.6563 210.6094,126.5469 Q210.7969,126.4375 211.0156,126.4375 Q211.3906,126.4375 211.625,126.7031 Q211.8594,126.9531 211.8594,127.5625 L211.8594,129.0156 Q211.8594,129.625 211.625,129.8906 Q211.3906,130.1563 211.0156,130.1563 Q210.6719,130.1563 210.4688,129.9531 Q210.2656,129.7656 210.1563,129.25 Q210.1094,128.8906 209.9219,128.7031 Q209.5938,128.3281 208.9844,128.1094 Q208.375,127.8906 207.75,127.8906 Q206.9844,127.8906 206.3438,128.2188 Q205.7188,128.5469 205.2188,129.2969 Q204.7344,130.0469 204.7344,131.0781 L204.7344,132.1719 Q204.7344,133.4063 205.625,134.2344 Q206.5156,135.0469 208.1094,135.0469 Q209.0469,135.0469 209.7031,134.7969 Q210.0938,134.6406 210.5156,134.2031 Q210.7813,133.9375 210.9219,133.8594 Q211.0781,133.7813 211.2813,133.7813 Q211.6094,133.7813 211.8594,134.0469 Q212.125,134.2969 212.125,134.6406 Q212.125,134.9844 211.7813,135.3906 Q211.2813,135.9688 210.4844,136.2969 Q209.4063,136.75 208.1094,136.75 Q206.5938,136.75 205.3906,136.125 Q204.4063,135.625 203.7188,134.5625 Q203.0313,133.4844 203.0313,132.2031 L203.0313,131.0469 Q203.0313,129.7188 203.6406,128.5781 Q204.2656,127.4219 205.3594,126.8125 Q206.4531,126.1875 207.6875,126.1875 Q208.4219,126.1875 209.0625,126.3594 Q209.7188,126.5156 210.2656,126.875 Z " fill="#000000"/><text fill="#000000" font-family="sans-serif" font-size="14" lengthAdjust="spacing" textLength="68.4756" x="221.5" y="136.7285">IfActivation</text><line style="stroke:#181818;stroke-width:0.5;" x1="193.5" x2="291.9756" y1="147" y2="147"/><line style="stroke:#181818;stroke-width:0.5;" x1="193.5" x2="291.9756" y1="155" y2="155"/></g><!--class IfActivationBranch--><g id="elem_IfActivationBranch"><rect fill="#F1F1F1" height="48" id="IfActivationBranch" rx="2.5" ry="2.5" style="stroke:#181818;stroke-width:0.5;" width="144.834" x="107" y="223"/><ellipse cx="122" cy="239" fill="#ADD1B2" rx="11" ry="11" style="stroke:#181818;stroke-width:1.0;"/><path d="M124.7656,234.875 Q124.9219,234.6563 125.1094,234.5469 Q125.2969,234.4375 125.5156,234.4375 Q125.8906,234.4375 126.125,234.7031 Q126.3594,234.9531 126.3594,235.5625 L126.3594,237.0156 Q126.3594,237.625 126.125,237.8906 Q125.8906,238.1563 125.5156,238.1563 Q125.1719,238.1563 124.9688,237.9531 Q124.7656,237.7656 124.6563,237.25 Q124.6094,236.8906 124.4219,236.7031 Q124.0938,236.3281 123.4844,236.1094 Q122.875,235.8906 122.25,235.8906 Q121.4844,235.8906 120.8438,236.2188 Q120.2188,236.5469 119.7188,237.2969 Q119.2344,238.0469 119.2344,239.0781 L119.2344,240.1719 Q119.2344,241.4063 120.125,242.2344 Q121.0156,243.0469 122.6094,243.0469 Q123.5469,243.0469 124.2031,242.7969 Q124.5938,242.6406 125.0156,242.2031 Q125.2813,241.9375 125.4219,241.8594 Q125.5781,241.7813 125.7813,241.7813 Q126.1094,241.7813 126.3594,242.0469 Q126.625,242.2969 126.625,242.6406 Q126.625,242.9844 126.2813,243.3906 Q125.7813,243.9688 124.9844,244.2969 Q123.9063,244.75 122.6094,244.75 Q121.0938,244.75 119.8906,244.125 Q118.9063,243.625 118.2188,242.5625 Q117.5313,241.4844 117.5313,240.2031 L117.5313,239.0469 Q117.5313,237.7188 118.1406,236.5781 Q118.7656,235.4219 119.8594,234.8125 Q120.9531,234.1875 122.1875,234.1875 Q122.9219,234.1875 123.5625,234.3594 Q124.2188,234.5156 124.7656,234.875 Z " fill="#000000"/><text fill="#000000" font-family="sans-serif" font-size="14" lengthAdjust="spacing" textLength="112.834" x="136" y="244.7285">IfActivationBranch</text><line style="stroke:#181818;stroke-width:0.5;" x1="108" x2="250.834" y1="255" y2="255"/><line style="stroke:#181818;stroke-width:0.5;" x1="108" x2="250.834" y1="263" y2="263"/></g><!--class Expression--><g id="elem_Expression"><rect fill="#F1F1F1" height="48" id="Expression" rx="2.5" ry="2.5" style="stroke:#181818;stroke-width:0.5;" width="101.2549" x="7" y="331"/><ellipse cx="22" cy="347" fill="#ADD1B2" rx="11" ry="11" style="stroke:#181818;stroke-width:1.0;"/><path d="M24.7656,342.875 Q24.9219,342.6563 25.1094,342.5469 Q25.2969,342.4375 25.5156,342.4375 Q25.8906,342.4375 26.125,342.7031 Q26.3594,342.9531 26.3594,343.5625 L26.3594,345.0156 Q26.3594,345.625 26.125,345.8906 Q25.8906,346.1563 25.5156,346.1563 Q25.1719,346.1563 24.9688,345.9531 Q24.7656,345.7656 24.6563,345.25 Q24.6094,344.8906 24.4219,344.7031 Q24.0938,344.3281 23.4844,344.1094 Q22.875,343.8906 22.25,343.8906 Q21.4844,343.8906 20.8438,344.2188 Q20.2188,344.5469 19.7188,345.2969 Q19.2344,346.0469 19.2344,347.0781 L19.2344,348.1719 Q19.2344,349.4063 20.125,350.2344 Q21.0156,351.0469 22.6094,351.0469 Q23.5469,351.0469 24.2031,350.7969 Q24.5938,350.6406 25.0156,350.2031 Q25.2813,349.9375 25.4219,349.8594 Q25.5781,349.7813 25.7813,349.7813 Q26.1094,349.7813 26.3594,350.0469 Q26.625,350.2969 26.625,350.6406 Q26.625,350.9844 26.2813,351.3906 Q25.7813,351.9688 24.9844,352.2969 Q23.9063,352.75 22.6094,352.75 Q21.0938,352.75 19.8906,352.125 Q18.9063,351.625 18.2188,350.5625 Q17.5313,349.4844 17.5313,348.2031 L17.5313,347.0469 Q17.5313,345.7188 18.1406,344.5781 Q18.7656,343.4219 19.8594,342.8125 Q20.9531,342.1875 22.1875,342.1875 Q22.9219,342.1875 23.5625,342.3594 Q24.2188,342.5156 24.7656,342.875 Z " fill="#000000"/><text fill="#000000" font-family="sans-serif" font-size="14" lengthAdjust="spacing" textLength="69.2549" x="36" y="352.7285">Expression</text><line style="stroke:#181818;stroke-width:0.5;" x1="8" x2="107.2549" y1="363" y2="363"/><line style="stroke:#181818;stroke-width:0.5;" x1="8" x2="107.2549" y1="371" y2="371"/></g><!--class IfteBranch--><g id="elem_IfteBranch"><rect fill="#F1F1F1" height="48" id="IfteBranch" rx="2.5" ry="2.5" style="stroke:#181818;stroke-width:0.5;" width="95.8135" x="143.5" y="331"/><ellipse cx="158.5" cy="347" fill="#ADD1B2" rx="11" ry="11" style="stroke:#181818;stroke-width:1.0;"/><path d="M161.2656,342.875 Q161.4219,342.6563 161.6094,342.5469 Q161.7969,342.4375 162.0156,342.4375 Q162.3906,342.4375 162.625,342.7031 Q162.8594,342.9531 162.8594,343.5625 L162.8594,345.0156 Q162.8594,345.625 162.625,345.8906 Q162.3906,346.1563 162.0156,346.1563 Q161.6719,346.1563 161.4688,345.9531 Q161.2656,345.7656 161.1563,345.25 Q161.1094,344.8906 160.9219,344.7031 Q160.5938,344.3281 159.9844,344.1094 Q159.375,343.8906 158.75,343.8906 Q157.9844,343.8906 157.3438,344.2188 Q156.7188,344.5469 156.2188,345.2969 Q155.7344,346.0469 155.7344,347.0781 L155.7344,348.1719 Q155.7344,349.4063 156.625,350.2344 Q157.5156,351.0469 159.1094,351.0469 Q160.0469,351.0469 160.7031,350.7969 Q161.0938,350.6406 161.5156,350.2031 Q161.7813,349.9375 161.9219,349.8594 Q162.0781,349.7813 162.2813,349.7813 Q162.6094,349.7813 162.8594,350.0469 Q163.125,350.2969 163.125,350.6406 Q163.125,350.9844 162.7813,351.3906 Q162.2813,351.9688 161.4844,352.2969 Q160.4063,352.75 159.1094,352.75 Q157.5938,352.75 156.3906,352.125 Q155.4063,351.625 154.7188,350.5625 Q154.0313,349.4844 154.0313,348.2031 L154.0313,347.0469 Q154.0313,345.7188 154.6406,344.5781 Q155.2656,343.4219 156.3594,342.8125 Q157.4531,342.1875 158.6875,342.1875 Q159.4219,342.1875 160.0625,342.3594 Q160.7188,342.5156 161.2656,342.875 Z " fill="#000000"/><text fill="#000000" font-family="sans-serif" font-size="14" lengthAdjust="spacing" textLength="63.8135" x="172.5" y="352.7285">IfteBranch</text><line style="stroke:#181818;stroke-width:0.5;" x1="144.5" x2="238.3135" y1="363" y2="363"/><line style="stroke:#181818;stroke-width:0.5;" x1="144.5" x2="238.3135" y1="371" y2="371"/></g><!--class IfteDataDef--><g id="elem_IfteDataDef"><rect fill="#F1F1F1" height="48" id="IfteDataDef" rx="2.5" ry="2.5" style="stroke:#181818;stroke-width:0.5;" width="102.8135" x="107" y="439"/><ellipse cx="122" cy="455" fill="#ADD1B2" rx="11" ry="11" style="stroke:#181818;stroke-width:1.0;"/><path d="M124.7656,450.875 Q124.9219,450.6563 125.1094,450.5469 Q125.2969,450.4375 125.5156,450.4375 Q125.8906,450.4375 126.125,450.7031 Q126.3594,450.9531 126.3594,451.5625 L126.3594,453.0156 Q126.3594,453.625 126.125,453.8906 Q125.8906,454.1563 125.5156,454.1563 Q125.1719,454.1563 124.9688,453.9531 Q124.7656,453.7656 124.6563,453.25 Q124.6094,452.8906 124.4219,452.7031 Q124.0938,452.3281 123.4844,452.1094 Q122.875,451.8906 122.25,451.8906 Q121.4844,451.8906 120.8438,452.2188 Q120.2188,452.5469 119.7188,453.2969 Q119.2344,454.0469 119.2344,455.0781 L119.2344,456.1719 Q119.2344,457.4063 120.125,458.2344 Q121.0156,459.0469 122.6094,459.0469 Q123.5469,459.0469 124.2031,458.7969 Q124.5938,458.6406 125.0156,458.2031 Q125.2813,457.9375 125.4219,457.8594 Q125.5781,457.7813 125.7813,457.7813 Q126.1094,457.7813 126.3594,458.0469 Q126.625,458.2969 126.625,458.6406 Q126.625,458.9844 126.2813,459.3906 Q125.7813,459.9688 124.9844,460.2969 Q123.9063,460.75 122.6094,460.75 Q121.0938,460.75 119.8906,460.125 Q118.9063,459.625 118.2188,458.5625 Q117.5313,457.4844 117.5313,456.2031 L117.5313,455.0469 Q117.5313,453.7188 118.1406,452.5781 Q118.7656,451.4219 119.8594,450.8125 Q120.9531,450.1875 122.1875,450.1875 Q122.9219,450.1875 123.5625,450.3594 Q124.2188,450.5156 124.7656,450.875 Z " fill="#000000"/><text fill="#000000" font-family="sans-serif" font-size="14" lengthAdjust="spacing" textLength="70.8135" x="136" y="460.7285">IfteDataDef</text><line style="stroke:#181818;stroke-width:0.5;" x1="108" x2="208.8135" y1="471" y2="471"/><line style="stroke:#181818;stroke-width:0.5;" x1="108" x2="208.8135" y1="479" y2="479"/></g><!--class IfteIfActivation--><g id="elem_IfteIfActivation"><rect fill="#F1F1F1" height="48" id="IfteIfActivation" rx="2.5" ry="2.5" style="stroke:#181818;stroke-width:0.5;" width="119.9307" x="245.5" y="439"/><ellipse cx="260.5" cy="455" fill="#ADD1B2" rx="11" ry="11" style="stroke:#181818;stroke-width:1.0;"/><path d="M263.2656,450.875 Q263.4219,450.6563 263.6094,450.5469 Q263.7969,450.4375 264.0156,450.4375 Q264.3906,450.4375 264.625,450.7031 Q264.8594,450.9531 264.8594,451.5625 L264.8594,453.0156 Q264.8594,453.625 264.625,453.8906 Q264.3906,454.1563 264.0156,454.1563 Q263.6719,454.1563 263.4688,453.9531 Q263.2656,453.7656 263.1563,453.25 Q263.1094,452.8906 262.9219,452.7031 Q262.5938,452.3281 261.9844,452.1094 Q261.375,451.8906 260.75,451.8906 Q259.9844,451.8906 259.3438,452.2188 Q258.7188,452.5469 258.2188,453.2969 Q257.7344,454.0469 257.7344,455.0781 L257.7344,456.1719 Q257.7344,457.4063 258.625,458.2344 Q259.5156,459.0469 261.1094,459.0469 Q262.0469,459.0469 262.7031,458.7969 Q263.0938,458.6406 263.5156,458.2031 Q263.7813,457.9375 263.9219,457.8594 Q264.0781,457.7813 264.2813,457.7813 Q264.6094,457.7813 264.8594,458.0469 Q265.125,458.2969 265.125,458.6406 Q265.125,458.9844 264.7813,459.3906 Q264.2813,459.9688 263.4844,460.2969 Q262.4063,460.75 261.1094,460.75 Q259.5938,460.75 258.3906,460.125 Q257.4063,459.625 256.7188,458.5625 Q256.0313,457.4844 256.0313,456.2031 L256.0313,455.0469 Q256.0313,453.7188 256.6406,452.5781 Q257.2656,451.4219 258.3594,450.8125 Q259.4531,450.1875 260.6875,450.1875 Q261.4219,450.1875 262.0625,450.3594 Q262.7188,450.5156 263.2656,450.875 Z " fill="#000000"/><text fill="#000000" font-family="sans-serif" font-size="14" lengthAdjust="spacing" textLength="87.9307" x="274.5" y="460.7285">IfteIfActivation</text><line style="stroke:#181818;stroke-width:0.5;" x1="246.5" x2="364.4307" y1="471" y2="471"/><line style="stroke:#181818;stroke-width:0.5;" x1="246.5" x2="364.4307" y1="479" y2="479"/></g><!--reverse link ActivateIf to IfActivation--><g id="link_ActivateIf_IfActivation"><path codeLine="3" d="M242.5,67 C242.5,84.66 242.5,96.94 242.5,114.68 " fill="none" id="ActivateIf-backto-IfActivation" style="stroke:#181818;stroke-width:1.0;"/><polygon fill="#181818" points="242.5,55,238.5,61,242.5,67,246.5,61,242.5,55" style="stroke:#181818;stroke-width:1.0;"/></g><!--reverse link IfActivation to IfActivationBranch--><g id="link_IfActivation_IfActivationBranch"><path codeLine="5" d="M222.7016,173.3171 C212.2116,190.9771 203.9,204.94 193.36,222.68 " fill="none" id="IfActivation-backto-IfActivationBranch" style="stroke:#181818;stroke-width:1.0;"/><polygon fill="#181818" points="228.83,163,222.3268,166.1158,222.7016,173.3171,229.2049,170.2014,228.83,163" style="stroke:#181818;stroke-width:1.0;"/><text fill="#000000" font-family="sans-serif" font-size="13" lengthAdjust="spacing" textLength="7.23" x="217.6149" y="184.338">1</text><text fill="#000000" font-family="sans-serif" font-size="13" lengthAdjust="spacing" textLength="5.0591" x="191.1564" y="212.34">*</text></g><!--reverse link IfActivationBranch to Expression--><g id="link_IfActivationBranch_Expression"><path codeLine="7" d="M143.9707,278.8695 C123.6407,296.5295 104.76,312.94 84.34,330.68 " fill="none" id="IfActivationBranch-backto-Expression" style="stroke:#181818;stroke-width:1.0;"/><polygon fill="#181818" points="153.03,271,145.8772,271.915,143.9707,278.8695,151.1235,277.9545,153.03,271" style="stroke:#181818;stroke-width:1.0;"/><text fill="#000000" font-family="sans-serif" font-size="13" lengthAdjust="spacing" textLength="21.6836" x="67.3751" y="320.34">0..1</text></g><!--reverse link IfActivationBranch to IfteBranch--><g id="link_IfActivationBranch_IfteBranch"><path codeLine="8" d="M183.4504,282.9238 C185.4504,300.5838 186.85,312.94 188.86,330.68 " fill="none" id="IfActivationBranch-backto-IfteBranch" style="stroke:#181818;stroke-width:1.0;"/><polygon fill="#181818" points="182.1,271,178.8006,277.412,183.4504,282.9238,186.7498,276.5118,182.1,271" style="stroke:#181818;stroke-width:1.0;"/></g><!--reverse link IfteBranch to IfteDataDef--><g id="link_IfteBranch_IfteDataDef"><path codeLine="10" d="M178.9877,396.1858 C173.4877,413.8458 171.28,420.94 165.76,438.68 " fill="none" id="IfteBranch-backto-IfteDataDef" style="stroke:#181818;stroke-width:1.0;"/><polygon fill="none" points="184.34,379,173.2591,394.4017,184.7163,397.9699,184.34,379" style="stroke:#181818;stroke-width:1.0;"/></g><!--reverse link IfteBranch to IfteIfActivation--><g id="link_IfteBranch_IfteIfActivation"><path codeLine="11" d="M229.4211,391.258 C248.4111,408.918 261.34,420.94 280.42,438.68 " fill="none" id="IfteBranch-backto-IfteIfActivation" style="stroke:#181818;stroke-width:1.0;"/><polygon fill="none" points="216.24,379,225.3351,395.6517,233.5071,386.8643,216.24,379" style="stroke:#181818;stroke-width:1.0;"/></g><!--reverse link IfteIfActivation to IfActivation--><g id="link_IfteIfActivation_IfActivation"><path codeLine="13" d="M302.0651,426.7517 C297.6851,383.7117 287.93,301 269.5,223 C264.66,202.5 257.11,179.79 251.23,163.32 " fill="none" id="IfteIfActivation-backto-IfActivation" style="stroke:#181818;stroke-width:1.0;"/><polygon fill="#181818" points="303.28,438.69,306.652,432.3159,302.0651,426.7517,298.6931,433.1258,303.28,438.69" style="stroke:#181818;stroke-width:1.0;"/></g><!--SRC=[KrTmJ2x9B4iiIVLCu-92i1MqT7KLFDEW0fdvULnSo3m59KCbi18bBIKKPKv5YNd96QYA8M8AOFKAIWPwUa2zhXK5HQd5nI23SIhrJ2j9HPW7OolOr82TLfBgabYIw9AQXbKEtUce8fY-0m00]--></g></svg>