<svg xmlns="http://www.w3.org/2000/svg" xmlns:xlink="http://www.w3.org/1999/xlink" contentStyleType="text/css" height="477px" preserveAspectRatio="none" style="width:700px;height:477px;background:#FFFFFF;" version="1.1" viewBox="0 0 700 477" width="700px" zoomAndPan="magnify"><defs/><g><!--class Forward--><g id="elem_Forward"><rect fill="#F1F1F1" height="48" id="Forward" rx="2.5" ry="2.5" style="stroke:#181818;stroke-width:0.5;" width="83.3447" x="261.5" y="7"/><ellipse cx="276.5" cy="23" fill="#ADD1B2" rx="11" ry="11" style="stroke:#181818;stroke-width:1.0;"/><path d="M279.2656,18.875 Q279.4219,18.6563 279.6094,18.5469 Q279.7969,18.4375 280.0156,18.4375 Q280.3906,18.4375 280.625,18.7031 Q280.8594,18.9531 280.8594,19.5625 L280.8594,21.0156 Q280.8594,21.625 280.625,21.8906 Q280.3906,22.1563 280.0156,22.1563 Q279.6719,22.1563 279.4688,21.9531 Q279.2656,21.7656 279.1563,21.25 Q279.1094,20.8906 278.9219,20.7031 Q278.5938,20.3281 277.9844,20.1094 Q277.375,19.8906 276.75,19.8906 Q275.9844,19.8906 275.3438,20.2188 Q274.7188,20.5469 274.2188,21.2969 Q273.7344,22.0469 273.7344,23.0781 L273.7344,24.1719 Q273.7344,25.4063 274.625,26.2344 Q275.5156,27.0469 277.1094,27.0469 Q278.0469,27.0469 278.7031,26.7969 Q279.0938,26.6406 279.5156,26.2031 Q279.7813,25.9375 279.9219,25.8594 Q280.0781,25.7813 280.2813,25.7813 Q280.6094,25.7813 280.8594,26.0469 Q281.125,26.2969 281.125,26.6406 Q281.125,26.9844 280.7813,27.3906 Q280.2813,27.9688 279.4844,28.2969 Q278.4063,28.75 277.1094,28.75 Q275.5938,28.75 274.3906,28.125 Q273.4063,27.625 272.7188,26.5625 Q272.0313,25.4844 272.0313,24.2031 L272.0313,23.0469 Q272.0313,21.7188 272.6406,20.5781 Q273.2656,19.4219 274.3594,18.8125 Q275.4531,18.1875 276.6875,18.1875 Q277.4219,18.1875 278.0625,18.3594 Q278.7188,18.5156 279.2656,18.875 Z " fill="#000000"/><text fill="#000000" font-family="sans-serif" font-size="14" lengthAdjust="spacing" textLength="51.3447" x="290.5" y="28.7285">Forward</text><line style="stroke:#181818;stroke-width:0.5;" x1="262.5" x2="343.8447" y1="39" y2="39"/><line style="stroke:#181818;stroke-width:0.5;" x1="262.5" x2="343.8447" y1="47" y2="47"/></g><!--class ForwardState--><g id="elem_ForwardState"><rect fill="#F1F1F1" height="48" id="ForwardState" rx="2.5" ry="2.5" style="stroke:#181818;stroke-width:0.5;" width="116.0342" x="7" y="142.5"/><ellipse cx="22" cy="158.5" fill="#ADD1B2" rx="11" ry="11" style="stroke:#181818;stroke-width:1.0;"/><path d="M24.7656,154.375 Q24.9219,154.1563 25.1094,154.0469 Q25.2969,153.9375 25.5156,153.9375 Q25.8906,153.9375 26.125,154.2031 Q26.3594,154.4531 26.3594,155.0625 L26.3594,156.5156 Q26.3594,157.125 26.125,157.3906 Q25.8906,157.6563 25.5156,157.6563 Q25.1719,157.6563 24.9688,157.4531 Q24.7656,157.2656 24.6563,156.75 Q24.6094,156.3906 24.4219,156.2031 Q24.0938,155.8281 23.4844,155.6094 Q22.875,155.3906 22.25,155.3906 Q21.4844,155.3906 20.8438,155.7188 Q20.2188,156.0469 19.7188,156.7969 Q19.2344,157.5469 19.2344,158.5781 L19.2344,159.6719 Q19.2344,160.9063 20.125,161.7344 Q21.0156,162.5469 22.6094,162.5469 Q23.5469,162.5469 24.2031,162.2969 Q24.5938,162.1406 25.0156,161.7031 Q25.2813,161.4375 25.4219,161.3594 Q25.5781,161.2813 25.7813,161.2813 Q26.1094,161.2813 26.3594,161.5469 Q26.625,161.7969 26.625,162.1406 Q26.625,162.4844 26.2813,162.8906 Q25.7813,163.4688 24.9844,163.7969 Q23.9063,164.25 22.6094,164.25 Q21.0938,164.25 19.8906,163.625 Q18.9063,163.125 18.2188,162.0625 Q17.5313,160.9844 17.5313,159.7031 L17.5313,158.5469 Q17.5313,157.2188 18.1406,156.0781 Q18.7656,154.9219 19.8594,154.3125 Q20.9531,153.6875 22.1875,153.6875 Q22.9219,153.6875 23.5625,153.8594 Q24.2188,154.0156 24.7656,154.375 Z " fill="#000000"/><text fill="#000000" font-family="sans-serif" font-size="14" lengthAdjust="spacing" textLength="84.0342" x="36" y="164.2285">ForwardState</text><line style="stroke:#181818;stroke-width:0.5;" x1="8" x2="122.0342" y1="174.5" y2="174.5"/><line style="stroke:#181818;stroke-width:0.5;" x1="8" x2="122.0342" y1="182.5" y2="182.5"/></g><!--class ForwardDim--><g id="elem_ForwardDim"><rect codeLine="14" fill="#F1F1F1" height="100.8281" id="ForwardDim" rx="2.5" ry="2.5" style="stroke:#181818;stroke-width:0.5;" width="178.5234" x="158.5" y="116"/><ellipse cx="205.3979" cy="132" fill="#ADD1B2" rx="11" ry="11" style="stroke:#181818;stroke-width:1.0;"/><path d="M208.1636,127.875 Q208.3198,127.6563 208.5073,127.5469 Q208.6948,127.4375 208.9136,127.4375 Q209.2886,127.4375 209.5229,127.7031 Q209.7573,127.9531 209.7573,128.5625 L209.7573,130.0156 Q209.7573,130.625 209.5229,130.8906 Q209.2886,131.1563 208.9136,131.1563 Q208.5698,131.1563 208.3667,130.9531 Q208.1636,130.7656 208.0542,130.25 Q208.0073,129.8906 207.8198,129.7031 Q207.4917,129.3281 206.8823,129.1094 Q206.2729,128.8906 205.6479,128.8906 Q204.8823,128.8906 204.2417,129.2188 Q203.6167,129.5469 203.1167,130.2969 Q202.6323,131.0469 202.6323,132.0781 L202.6323,133.1719 Q202.6323,134.4063 203.5229,135.2344 Q204.4136,136.0469 206.0073,136.0469 Q206.9448,136.0469 207.6011,135.7969 Q207.9917,135.6406 208.4136,135.2031 Q208.6792,134.9375 208.8198,134.8594 Q208.9761,134.7813 209.1792,134.7813 Q209.5073,134.7813 209.7573,135.0469 Q210.0229,135.2969 210.0229,135.6406 Q210.0229,135.9844 209.6792,136.3906 Q209.1792,136.9688 208.3823,137.2969 Q207.3042,137.75 206.0073,137.75 Q204.4917,137.75 203.2886,137.125 Q202.3042,136.625 201.6167,135.5625 Q200.9292,134.4844 200.9292,133.2031 L200.9292,132.0469 Q200.9292,130.7188 201.5386,129.5781 Q202.1636,128.4219 203.2573,127.8125 Q204.3511,127.1875 205.5854,127.1875 Q206.3198,127.1875 206.9604,127.3594 Q207.6167,127.5156 208.1636,127.875 Z " fill="#000000"/><text fill="#000000" font-family="sans-serif" font-size="14" lengthAdjust="spacing" textLength="76.2275" x="225.8979" y="137.7285">ForwardDim</text><line style="stroke:#181818;stroke-width:0.5;" x1="159.5" x2="336.0234" y1="148" y2="148"/><line style="stroke:#181818;stroke-width:0.5;" x1="159.5" x2="336.0234" y1="156" y2="156"/><text fill="#000000" font-family="sans-serif" font-size="14" lengthAdjust="spacing" textLength="166.5234" x="164.5" y="174.5332">expr: Expression (optional)</text><text fill="#000000" font-family="sans-serif" font-size="14" lengthAdjust="spacing" textLength="134.627" x="164.5" y="192.1426">id: Identifier (optional)</text><text fill="#000000" font-family="sans-serif" font-size="14" lengthAdjust="spacing" textLength="143.958" x="164.5" y="209.752">protected: str (optional)</text></g><!--class ForwardBody--><g id="elem_ForwardBody"><rect fill="#F1F1F1" height="48" id="ForwardBody" rx="2.5" ry="2.5" style="stroke:#181818;stroke-width:0.5;" width="115.2549" x="372.5" y="142.5"/><ellipse cx="387.5" cy="158.5" fill="#ADD1B2" rx="11" ry="11" style="stroke:#181818;stroke-width:1.0;"/><path d="M390.2656,154.375 Q390.4219,154.1563 390.6094,154.0469 Q390.7969,153.9375 391.0156,153.9375 Q391.3906,153.9375 391.625,154.2031 Q391.8594,154.4531 391.8594,155.0625 L391.8594,156.5156 Q391.8594,157.125 391.625,157.3906 Q391.3906,157.6563 391.0156,157.6563 Q390.6719,157.6563 390.4688,157.4531 Q390.2656,157.2656 390.1563,156.75 Q390.1094,156.3906 389.9219,156.2031 Q389.5938,155.8281 388.9844,155.6094 Q388.375,155.3906 387.75,155.3906 Q386.9844,155.3906 386.3438,155.7188 Q385.7188,156.0469 385.2188,156.7969 Q384.7344,157.5469 384.7344,158.5781 L384.7344,159.6719 Q384.7344,160.9063 385.625,161.7344 Q386.5156,162.5469 388.1094,162.5469 Q389.0469,162.5469 389.7031,162.2969 Q390.0938,162.1406 390.5156,161.7031 Q390.7813,161.4375 390.9219,161.3594 Q391.0781,161.2813 391.2813,161.2813 Q391.6094,161.2813 391.8594,161.5469 Q392.125,161.7969 392.125,162.1406 Q392.125,162.4844 391.7813,162.8906 Q391.2813,163.4688 390.4844,163.7969 Q389.4063,164.25 388.1094,164.25 Q386.5938,164.25 385.3906,163.625 Q384.4063,163.125 383.7188,162.0625 Q383.0313,160.9844 383.0313,159.7031 L383.0313,158.5469 Q383.0313,157.2188 383.6406,156.0781 Q384.2656,154.9219 385.3594,154.3125 Q386.4531,153.6875 387.6875,153.6875 Q388.4219,153.6875 389.0625,153.8594 Q389.7188,154.0156 390.2656,154.375 Z " fill="#000000"/><text fill="#000000" font-family="sans-serif" font-size="14" lengthAdjust="spacing" textLength="83.2549" x="401.5" y="164.2285">ForwardBody</text><line style="stroke:#181818;stroke-width:0.5;" x1="373.5" x2="486.7549" y1="174.5" y2="174.5"/><line style="stroke:#181818;stroke-width:0.5;" x1="373.5" x2="486.7549" y1="182.5" y2="182.5"/></g><!--class ForwardReturnItem--><g id="elem_ForwardReturnItem"><rect fill="#F1F1F1" height="48" id="ForwardReturnItem" rx="2.5" ry="2.5" style="stroke:#181818;stroke-width:0.5;" width="152.5928" x="540.5" y="142.5"/><ellipse cx="555.5" cy="158.5" fill="#ADD1B2" rx="11" ry="11" style="stroke:#181818;stroke-width:1.0;"/><path d="M558.2656,154.375 Q558.4219,154.1563 558.6094,154.0469 Q558.7969,153.9375 559.0156,153.9375 Q559.3906,153.9375 559.625,154.2031 Q559.8594,154.4531 559.8594,155.0625 L559.8594,156.5156 Q559.8594,157.125 559.625,157.3906 Q559.3906,157.6563 559.0156,157.6563 Q558.6719,157.6563 558.4688,157.4531 Q558.2656,157.2656 558.1563,156.75 Q558.1094,156.3906 557.9219,156.2031 Q557.5938,155.8281 556.9844,155.6094 Q556.375,155.3906 555.75,155.3906 Q554.9844,155.3906 554.3438,155.7188 Q553.7188,156.0469 553.2188,156.7969 Q552.7344,157.5469 552.7344,158.5781 L552.7344,159.6719 Q552.7344,160.9063 553.625,161.7344 Q554.5156,162.5469 556.1094,162.5469 Q557.0469,162.5469 557.7031,162.2969 Q558.0938,162.1406 558.5156,161.7031 Q558.7813,161.4375 558.9219,161.3594 Q559.0781,161.2813 559.2813,161.2813 Q559.6094,161.2813 559.8594,161.5469 Q560.125,161.7969 560.125,162.1406 Q560.125,162.4844 559.7813,162.8906 Q559.2813,163.4688 558.4844,163.7969 Q557.4063,164.25 556.1094,164.25 Q554.5938,164.25 553.3906,163.625 Q552.4063,163.125 551.7188,162.0625 Q551.0313,160.9844 551.0313,159.7031 L551.0313,158.5469 Q551.0313,157.2188 551.6406,156.0781 Q552.2656,154.9219 553.3594,154.3125 Q554.4531,153.6875 555.6875,153.6875 Q556.4219,153.6875 557.0625,153.8594 Q557.7188,154.0156 558.2656,154.375 Z " fill="#000000"/><text fill="#000000" font-family="sans-serif" font-size="14" lengthAdjust="spacing" textLength="120.5928" x="569.5" y="164.2285">ForwardReturnItem</text><line style="stroke:#181818;stroke-width:0.5;" x1="541.5" x2="692.0928" y1="174.5" y2="174.5"/><line style="stroke:#181818;stroke-width:0.5;" x1="541.5" x2="692.0928" y1="182.5" y2="182.5"/></g><g id="elem_GMN11"><path d="M581,315 L581,341.3516 A0,0 0 0 0 581,341.3516 L689.4453,341.3516 A0,0 0 0 0 689.4453,341.3516 L689.4453,325 L679.4453,315 L637.63,315 L619.62,190.69 L629.63,315 L581,315 A0,0 0 0 0 581,315 " fill="#FEFFDD" style="stroke:#181818;stroke-width:0.5;"/><path d="M679.4453,315 L679.4453,325 L689.4453,325 L679.4453,315 " fill="#FEFFDD" style="stroke:#181818;stroke-width:0.5;"/><text fill="#000000" font-family="sans-serif" font-size="13" lengthAdjust="spacing" textLength="87.4453" x="587" y="333.4951">See next figure</text></g><!--class ScopeSection--><g id="elem_ScopeSection"><rect fill="#F1F1F1" height="48" id="ScopeSection" rx="2.5" ry="2.5" style="stroke:#181818;stroke-width:0.5;" width="118.3926" x="291" y="304"/><ellipse cx="306" cy="320" fill="#ADD1B2" rx="11" ry="11" style="stroke:#181818;stroke-width:1.0;"/><path d="M308.7656,315.875 Q308.9219,315.6563 309.1094,315.5469 Q309.2969,315.4375 309.5156,315.4375 Q309.8906,315.4375 310.125,315.7031 Q310.3594,315.9531 310.3594,316.5625 L310.3594,318.0156 Q310.3594,318.625 310.125,318.8906 Q309.8906,319.1563 309.5156,319.1563 Q309.1719,319.1563 308.9688,318.9531 Q308.7656,318.7656 308.6563,318.25 Q308.6094,317.8906 308.4219,317.7031 Q308.0938,317.3281 307.4844,317.1094 Q306.875,316.8906 306.25,316.8906 Q305.4844,316.8906 304.8438,317.2188 Q304.2188,317.5469 303.7188,318.2969 Q303.2344,319.0469 303.2344,320.0781 L303.2344,321.1719 Q303.2344,322.4063 304.125,323.2344 Q305.0156,324.0469 306.6094,324.0469 Q307.5469,324.0469 308.2031,323.7969 Q308.5938,323.6406 309.0156,323.2031 Q309.2813,322.9375 309.4219,322.8594 Q309.5781,322.7813 309.7813,322.7813 Q310.1094,322.7813 310.3594,323.0469 Q310.625,323.2969 310.625,323.6406 Q310.625,323.9844 310.2813,324.3906 Q309.7813,324.9688 308.9844,325.2969 Q307.9063,325.75 306.6094,325.75 Q305.0938,325.75 303.8906,325.125 Q302.9063,324.625 302.2188,323.5625 Q301.5313,322.4844 301.5313,321.2031 L301.5313,320.0469 Q301.5313,318.7188 302.1406,317.5781 Q302.7656,316.4219 303.8594,315.8125 Q304.9531,315.1875 306.1875,315.1875 Q306.9219,315.1875 307.5625,315.3594 Q308.2188,315.5156 308.7656,315.875 Z " fill="#000000"/><text fill="#000000" font-family="sans-serif" font-size="14" lengthAdjust="spacing" textLength="86.3926" x="320" y="325.7285">ScopeSection</text><line style="stroke:#181818;stroke-width:0.5;" x1="292" x2="408.3926" y1="336" y2="336"/><line style="stroke:#181818;stroke-width:0.5;" x1="292" x2="408.3926" y1="344" y2="344"/></g><!--class Expression--><g id="elem_Expression"><rect fill="#F1F1F1" height="48" id="Expression" rx="2.5" ry="2.5" style="stroke:#181818;stroke-width:0.5;" width="101.2549" x="444.5" y="304"/><ellipse cx="459.5" cy="320" fill="#ADD1B2" rx="11" ry="11" style="stroke:#181818;stroke-width:1.0;"/><path d="M462.2656,315.875 Q462.4219,315.6563 462.6094,315.5469 Q462.7969,315.4375 463.0156,315.4375 Q463.3906,315.4375 463.625,315.7031 Q463.8594,315.9531 463.8594,316.5625 L463.8594,318.0156 Q463.8594,318.625 463.625,318.8906 Q463.3906,319.1563 463.0156,319.1563 Q462.6719,319.1563 462.4688,318.9531 Q462.2656,318.7656 462.1563,318.25 Q462.1094,317.8906 461.9219,317.7031 Q461.5938,317.3281 460.9844,317.1094 Q460.375,316.8906 459.75,316.8906 Q458.9844,316.8906 458.3438,317.2188 Q457.7188,317.5469 457.2188,318.2969 Q456.7344,319.0469 456.7344,320.0781 L456.7344,321.1719 Q456.7344,322.4063 457.625,323.2344 Q458.5156,324.0469 460.1094,324.0469 Q461.0469,324.0469 461.7031,323.7969 Q462.0938,323.6406 462.5156,323.2031 Q462.7813,322.9375 462.9219,322.8594 Q463.0781,322.7813 463.2813,322.7813 Q463.6094,322.7813 463.8594,323.0469 Q464.125,323.2969 464.125,323.6406 Q464.125,323.9844 463.7813,324.3906 Q463.2813,324.9688 462.4844,325.2969 Q461.4063,325.75 460.1094,325.75 Q458.5938,325.75 457.3906,325.125 Q456.4063,324.625 455.7188,323.5625 Q455.0313,322.4844 455.0313,321.2031 L455.0313,320.0469 Q455.0313,318.7188 455.6406,317.5781 Q456.2656,316.4219 457.3594,315.8125 Q458.4531,315.1875 459.6875,315.1875 Q460.4219,315.1875 461.0625,315.3594 Q461.7188,315.5156 462.2656,315.875 Z " fill="#000000"/><text fill="#000000" font-family="sans-serif" font-size="14" lengthAdjust="spacing" textLength="69.2549" x="473.5" y="325.7285">Expression</text><line style="stroke:#181818;stroke-width:0.5;" x1="445.5" x2="544.7549" y1="336" y2="336"/><line style="stroke:#181818;stroke-width:0.5;" x1="445.5" x2="544.7549" y1="344" y2="344"/></g><!--class ForwardElement--><g id="elem_ForwardElement"><rect codeLine="21" fill="#F1F1F1" height="65.6094" id="ForwardElement" rx="2.5" ry="2.5" style="stroke:#181818;stroke-width:0.5;" width="134.7031" x="120.5" y="295"/><ellipse cx="135.5" cy="311" fill="#ADD1B2" rx="11" ry="11" style="stroke:#181818;stroke-width:1.0;"/><path d="M138.2656,306.875 Q138.4219,306.6563 138.6094,306.5469 Q138.7969,306.4375 139.0156,306.4375 Q139.3906,306.4375 139.625,306.7031 Q139.8594,306.9531 139.8594,307.5625 L139.8594,309.0156 Q139.8594,309.625 139.625,309.8906 Q139.3906,310.1563 139.0156,310.1563 Q138.6719,310.1563 138.4688,309.9531 Q138.2656,309.7656 138.1563,309.25 Q138.1094,308.8906 137.9219,308.7031 Q137.5938,308.3281 136.9844,308.1094 Q136.375,307.8906 135.75,307.8906 Q134.9844,307.8906 134.3438,308.2188 Q133.7188,308.5469 133.2188,309.2969 Q132.7344,310.0469 132.7344,311.0781 L132.7344,312.1719 Q132.7344,313.4063 133.625,314.2344 Q134.5156,315.0469 136.1094,315.0469 Q137.0469,315.0469 137.7031,314.7969 Q138.0938,314.6406 138.5156,314.2031 Q138.7813,313.9375 138.9219,313.8594 Q139.0781,313.7813 139.2813,313.7813 Q139.6094,313.7813 139.8594,314.0469 Q140.125,314.2969 140.125,314.6406 Q140.125,314.9844 139.7813,315.3906 Q139.2813,315.9688 138.4844,316.2969 Q137.4063,316.75 136.1094,316.75 Q134.5938,316.75 133.3906,316.125 Q132.4063,315.625 131.7188,314.5625 Q131.0313,313.4844 131.0313,312.2031 L131.0313,311.0469 Q131.0313,309.7188 131.6406,308.5781 Q132.2656,307.4219 133.3594,306.8125 Q134.4531,306.1875 135.6875,306.1875 Q136.4219,306.1875 137.0625,306.3594 Q137.7188,306.5156 138.2656,306.875 Z " fill="#000000"/><text fill="#000000" font-family="sans-serif" font-size="14" lengthAdjust="spacing" textLength="102.7031" x="149.5" y="316.7285">ForwardElement</text><line style="stroke:#181818;stroke-width:0.5;" x1="121.5" x2="254.2031" y1="327" y2="327"/><text fill="#000000" font-family="sans-serif" font-size="14" lengthAdjust="spacing" textLength="104.2686" x="126.5" y="345.5332">expr: Expression</text><line style="stroke:#181818;stroke-width:0.5;" x1="121.5" x2="254.2031" y1="352.6094" y2="352.6094"/></g><!--class ForwardLHS--><g id="elem_ForwardLHS"><rect fill="#F1F1F1" height="48" id="ForwardLHS" rx="2.5" ry="2.5" style="stroke:#181818;stroke-width:0.5;" width="110.5791" x="132.5" y="422"/><ellipse cx="147.5" cy="438" fill="#ADD1B2" rx="11" ry="11" style="stroke:#181818;stroke-width:1.0;"/><path d="M150.2656,433.875 Q150.4219,433.6563 150.6094,433.5469 Q150.7969,433.4375 151.0156,433.4375 Q151.3906,433.4375 151.625,433.7031 Q151.8594,433.9531 151.8594,434.5625 L151.8594,436.0156 Q151.8594,436.625 151.625,436.8906 Q151.3906,437.1563 151.0156,437.1563 Q150.6719,437.1563 150.4688,436.9531 Q150.2656,436.7656 150.1563,436.25 Q150.1094,435.8906 149.9219,435.7031 Q149.5938,435.3281 148.9844,435.1094 Q148.375,434.8906 147.75,434.8906 Q146.9844,434.8906 146.3438,435.2188 Q145.7188,435.5469 145.2188,436.2969 Q144.7344,437.0469 144.7344,438.0781 L144.7344,439.1719 Q144.7344,440.4063 145.625,441.2344 Q146.5156,442.0469 148.1094,442.0469 Q149.0469,442.0469 149.7031,441.7969 Q150.0938,441.6406 150.5156,441.2031 Q150.7813,440.9375 150.9219,440.8594 Q151.0781,440.7813 151.2813,440.7813 Q151.6094,440.7813 151.8594,441.0469 Q152.125,441.2969 152.125,441.6406 Q152.125,441.9844 151.7813,442.3906 Q151.2813,442.9688 150.4844,443.2969 Q149.4063,443.75 148.1094,443.75 Q146.5938,443.75 145.3906,443.125 Q144.4063,442.625 143.7188,441.5625 Q143.0313,440.4844 143.0313,439.2031 L143.0313,438.0469 Q143.0313,436.7188 143.6406,435.5781 Q144.2656,434.4219 145.3594,433.8125 Q146.4531,433.1875 147.6875,433.1875 Q148.4219,433.1875 149.0625,433.3594 Q149.7188,433.5156 150.2656,433.875 Z " fill="#000000"/><text fill="#000000" font-family="sans-serif" font-size="14" lengthAdjust="spacing" textLength="78.5791" x="161.5" y="443.7285">ForwardLHS</text><line style="stroke:#181818;stroke-width:0.5;" x1="133.5" x2="242.0791" y1="454" y2="454"/><line style="stroke:#181818;stroke-width:0.5;" x1="133.5" x2="242.0791" y1="462" y2="462"/></g><!--reverse link Forward to ForwardState--><g id="link_Forward_ForwardState"><path codeLine="4" d="M250.6923,57.4471 C217.5923,73.8071 181.1,92.62 141,116 C126.99,124.17 111.95,133.78 98.98,142.34 " fill="none" id="Forward-backto-ForwardState" style="stroke:#181818;stroke-width:1.0;"/><polygon fill="#181818" points="261.45,52.13,254.2988,51.2026,250.6923,57.4471,257.8435,58.3745,261.45,52.13" style="stroke:#181818;stroke-width:1.0;"/></g><!--reverse link Forward to ForwardDim--><g id="link_Forward_ForwardDim"><path codeLine="5" d="M288.8527,66.3468 C281.9627,83.0868 276.97,95.18 268.4,115.98 " fill="none" id="Forward-backto-ForwardDim" style="stroke:#181818;stroke-width:1.0;"/><polygon fill="#181818" points="293.42,55.25,287.4374,59.276,288.8527,66.3468,294.8353,62.3209,293.42,55.25" style="stroke:#181818;stroke-width:1.0;"/><text fill="#000000" font-family="sans-serif" font-size="13" lengthAdjust="spacing" textLength="19.5127" x="251.0024" y="105.2825">1..*</text></g><!--reverse link Forward to ForwardBody--><g id="link_Forward_ForwardBody"><path codeLine="6" d="M333.3902,63.945 C356.5602,88.305 384.47,117.64 407.71,142.06 " fill="none" id="Forward-backto-ForwardBody" style="stroke:#181818;stroke-width:1.0;"/><polygon fill="#181818" points="325.12,55.25,326.3568,62.3542,333.3902,63.945,332.1535,56.8408,325.12,55.25" style="stroke:#181818;stroke-width:1.0;"/></g><!--reverse link Forward to ForwardReturnItem--><g id="link_Forward_ForwardReturnItem"><path codeLine="7" d="M355.6124,53.5038 C396.5224,70.2838 449.67,92.27 505,116 C524.83,124.5 546.54,134.05 565.53,142.47 " fill="none" id="Forward-backto-ForwardReturnItem" style="stroke:#181818;stroke-width:1.0;"/><polygon fill="#181818" points="344.51,48.95,348.5432,54.9277,355.6124,53.5038,351.5791,47.5261,344.51,48.95" style="stroke:#181818;stroke-width:1.0;"/><text fill="#000000" font-family="sans-serif" font-size="13" lengthAdjust="spacing" textLength="5.0591" x="546.7599" y="131.8025">*</text></g><!--reverse link ForwardBody to ScopeSection--><g id="link_ForwardBody_ScopeSection"><path codeLine="10" d="M412.9893,201.416 C397.8193,231.656 376.82,273.53 361.65,303.78 " fill="none" id="ForwardBody-backto-ScopeSection" style="stroke:#181818;stroke-width:1.0;"/><polygon fill="#181818" points="418.37,190.69,412.1043,194.2594,412.9893,201.416,419.255,197.8466,418.37,190.69" style="stroke:#181818;stroke-width:1.0;"/><text fill="#000000" font-family="sans-serif" font-size="13" lengthAdjust="spacing" textLength="5.0591" x="358.952" y="293.0638">*</text></g><!--reverse link ForwardBody to Expression--><g id="link_ForwardBody_Expression"><path codeLine="11" d="M421.437,202.3949 C417.237,222.8549 416.54,241.3 427,265 C433.78,280.35 446.43,293.53 459.01,303.75 " fill="none" id="ForwardBody-backto-Expression" style="stroke:#181818;stroke-width:1.0;"/><polygon fill="#181818" points="423.85,190.64,418.7252,195.7131,421.437,202.3949,426.5618,197.3218,423.85,190.64" style="stroke:#181818;stroke-width:1.0;"/><text fill="#000000" font-family="sans-serif" font-size="13" lengthAdjust="spacing" textLength="23.8481" x="428" y="261.4951">until</text><text fill="#000000" font-family="sans-serif" font-size="13" lengthAdjust="spacing" textLength="21.6836" x="426.1519" y="293.0261">0..1</text></g><!--reverse link ForwardBody to Expression--><g id="link_ForwardBody_Expression"><path codeLine="12" d="M443.9807,201.8018 C456.3107,232.0418 473.21,273.53 485.54,303.78 " fill="none" id="ForwardBody-backto-Expression-1" style="stroke:#181818;stroke-width:1.0;"/><polygon fill="#181818" points="439.45,190.69,438.0114,197.7561,443.9807,201.8018,445.4193,194.7357,439.45,190.69" style="stroke:#181818;stroke-width:1.0;"/><text fill="#000000" font-family="sans-serif" font-size="13" lengthAdjust="spacing" textLength="37.5781" x="470" y="261.4951">unless</text><text fill="#000000" font-family="sans-serif" font-size="13" lengthAdjust="spacing" textLength="21.6836" x="459.4802" y="293.0638">0..1</text></g><!--reverse link ForwardDim to ForwardElement--><g id="link_ForwardDim_ForwardElement"><path codeLine="20" d="M225.1168,228.3223 C215.6268,253.5623 208.58,272.3 200.2,294.56 " fill="none" id="ForwardDim-backto-ForwardElement" style="stroke:#181818;stroke-width:1.0;"/><polygon fill="#181818" points="229.34,217.09,223.4843,221.2984,225.1168,228.3223,230.9725,224.1139,229.34,217.09" style="stroke:#181818;stroke-width:1.0;"/><text fill="#000000" font-family="sans-serif" font-size="13" lengthAdjust="spacing" textLength="5.0591" x="197.083" y="284.2264">*</text></g><!--reverse link ForwardElement to ForwardLHS--><g id="link_ForwardElement_ForwardLHS"><path codeLine="24" d="M188,373 C188,392.32 188,404.48 188,421.93 " fill="none" id="ForwardElement-backto-ForwardLHS" style="stroke:#181818;stroke-width:1.0;"/><polygon fill="#181818" points="188,361,184,367,188,373,192,367,188,361" style="stroke:#181818;stroke-width:1.0;"/></g><!--SRC=[ZP71JiCm38RlUGgh5s3IAiQnHyGGbNQYJn1ITqGaSUIusX3YtKdHLjeE97AAyd-__TkvWaVYW-PMfJSRecRjOS_Knpgy8blHmI3SANMYOBLUdnsDQC6PK6pASbMSzGVhVxFTK_i-T_rOdb5w3hMWLu44uOL4o0Drbq053I84F0fqTjypZXc71cFXnb341erO2fV0RLbk2jWU8sDAcQYW3sBT_q2NhqePfrEQZ0mV2lB1Z5OJ0rnJ739eT_EjsxQ2kiNShRF8IpLodju8PYZ9JFqSnnnwBTQtTUXpoNccq-CVkNB11JVvgjrJexu0]--></g></svg>