<svg xmlns="http://www.w3.org/2000/svg" xmlns:xlink="http://www.w3.org/1999/xlink" contentStyleType="text/css" height="170px" preserveAspectRatio="none" style="width:134px;height:170px;background:#FFFFFF;" version="1.1" viewBox="0 0 134 170" width="134px" zoomAndPan="magnify"><defs/><g><!--class Expression--><g id="elem_Expression"><rect fill="#F1F1F1" height="48" id="Expression" rx="2.5" ry="2.5" style="stroke:#181818;stroke-width:0.5;" width="101.2549" x="17" y="7"/><ellipse cx="32" cy="23" fill="#ADD1B2" rx="11" ry="11" style="stroke:#181818;stroke-width:1.0;"/><path d="M34.7656,18.875 Q34.9219,18.6563 35.1094,18.5469 Q35.2969,18.4375 35.5156,18.4375 Q35.8906,18.4375 36.125,18.7031 Q36.3594,18.9531 36.3594,19.5625 L36.3594,21.0156 Q36.3594,21.625 36.125,21.8906 Q35.8906,22.1563 35.5156,22.1563 Q35.1719,22.1563 34.9688,21.9531 Q34.7656,21.7656 34.6563,21.25 Q34.6094,20.8906 34.4219,20.7031 Q34.0938,20.3281 33.4844,20.1094 Q32.875,19.8906 32.25,19.8906 Q31.4844,19.8906 30.8438,20.2188 Q30.2188,20.5469 29.7188,21.2969 Q29.2344,22.0469 29.2344,23.0781 L29.2344,24.1719 Q29.2344,25.4063 30.125,26.2344 Q31.0156,27.0469 32.6094,27.0469 Q33.5469,27.0469 34.2031,26.7969 Q34.5938,26.6406 35.0156,26.2031 Q35.2813,25.9375 35.4219,25.8594 Q35.5781,25.7813 35.7813,25.7813 Q36.1094,25.7813 36.3594,26.0469 Q36.625,26.2969 36.625,26.6406 Q36.625,26.9844 36.2813,27.3906 Q35.7813,27.9688 34.9844,28.2969 Q33.9063,28.75 32.6094,28.75 Q31.0938,28.75 29.8906,28.125 Q28.9063,27.625 28.2188,26.5625 Q27.5313,25.4844 27.5313,24.2031 L27.5313,23.0469 Q27.5313,21.7188 28.1406,20.5781 Q28.7656,19.4219 29.8594,18.8125 Q30.9531,18.1875 32.1875,18.1875 Q32.9219,18.1875 33.5625,18.3594 Q34.2188,18.5156 34.7656,18.875 Z " fill="#000000"/><text fill="#000000" font-family="sans-serif" font-size="14" lengthAdjust="spacing" textLength="69.2549" x="46" y="28.7285">Expression</text><line style="stroke:#181818;stroke-width:0.5;" x1="18" x2="117.2549" y1="39" y2="39"/><line style="stroke:#181818;stroke-width:0.5;" x1="18" x2="117.2549" y1="47" y2="47"/></g><!--class ProtectedExpr--><g id="elem_ProtectedExpr"><rect fill="#F1F1F1" height="48" id="ProtectedExpr" rx="2.5" ry="2.5" style="stroke:#181818;stroke-width:0.5;" width="120.71" x="7" y="115"/><ellipse cx="22" cy="131" fill="#ADD1B2" rx="11" ry="11" style="stroke:#181818;stroke-width:1.0;"/><path d="M24.7656,126.875 Q24.9219,126.6563 25.1094,126.5469 Q25.2969,126.4375 25.5156,126.4375 Q25.8906,126.4375 26.125,126.7031 Q26.3594,126.9531 26.3594,127.5625 L26.3594,129.0156 Q26.3594,129.625 26.125,129.8906 Q25.8906,130.1563 25.5156,130.1563 Q25.1719,130.1563 24.9688,129.9531 Q24.7656,129.7656 24.6563,129.25 Q24.6094,128.8906 24.4219,128.7031 Q24.0938,128.3281 23.4844,128.1094 Q22.875,127.8906 22.25,127.8906 Q21.4844,127.8906 20.8438,128.2188 Q20.2188,128.5469 19.7188,129.2969 Q19.2344,130.0469 19.2344,131.0781 L19.2344,132.1719 Q19.2344,133.4063 20.125,134.2344 Q21.0156,135.0469 22.6094,135.0469 Q23.5469,135.0469 24.2031,134.7969 Q24.5938,134.6406 25.0156,134.2031 Q25.2813,133.9375 25.4219,133.8594 Q25.5781,133.7813 25.7813,133.7813 Q26.1094,133.7813 26.3594,134.0469 Q26.625,134.2969 26.625,134.6406 Q26.625,134.9844 26.2813,135.3906 Q25.7813,135.9688 24.9844,136.2969 Q23.9063,136.75 22.6094,136.75 Q21.0938,136.75 19.8906,136.125 Q18.9063,135.625 18.2188,134.5625 Q17.5313,133.4844 17.5313,132.2031 L17.5313,131.0469 Q17.5313,129.7188 18.1406,128.5781 Q18.7656,127.4219 19.8594,126.8125 Q20.9531,126.1875 22.1875,126.1875 Q22.9219,126.1875 23.5625,126.3594 Q24.2188,126.5156 24.7656,126.875 Z " fill="#000000"/><text fill="#000000" font-family="sans-serif" font-size="14" lengthAdjust="spacing" textLength="88.71" x="36" y="136.7285">ProtectedExpr</text><line style="stroke:#181818;stroke-width:0.5;" x1="8" x2="126.71" y1="147" y2="147"/><line style="stroke:#181818;stroke-width:0.5;" x1="8" x2="126.71" y1="155" y2="155"/></g><!--reverse link Expression to ProtectedExpr--><g id="link_Expression_ProtectedExpr"><path codeLine="4" d="M67.5,73 C67.5,90.66 67.5,96.94 67.5,114.68 " fill="none" id="Expression-backto-ProtectedExpr" style="stroke:#181818;stroke-width:1.0;"/><polygon fill="none" points="67.5,55,61.5,73,73.5,73,67.5,55" style="stroke:#181818;stroke-width:1.0;"/></g><!--SRC=[KrS8ACelIKqkIKrHSAqeA4ejBixCp-CgpixCAqWiIinLI2_ABotmpCj8BSeiISnBJbKmuk92A5ImgT7LHHW1ak020000]--></g></svg>