<svg xmlns="http://www.w3.org/2000/svg" xmlns:xlink="http://www.w3.org/1999/xlink" contentStyleType="text/css" height="280px" preserveAspectRatio="none" style="width:228px;height:280px;background:#FFFFFF;" version="1.1" viewBox="0 0 228 280" width="228px" zoomAndPan="magnify"><defs/><g><!--class ScadeOne--><g id="elem_ScadeOne"><rect fill="#F1F1F1" height="48" id="ScadeOne" rx="2.5" ry="2.5" style="stroke:#181818;stroke-width:0.5;" width="98.1582" x="7" y="7"/><ellipse cx="22" cy="23" fill="#ADD1B2" rx="11" ry="11" style="stroke:#181818;stroke-width:1.0;"/><path d="M24.7656,18.875 Q24.9219,18.6563 25.1094,18.5469 Q25.2969,18.4375 25.5156,18.4375 Q25.8906,18.4375 26.125,18.7031 Q26.3594,18.9531 26.3594,19.5625 L26.3594,21.0156 Q26.3594,21.625 26.125,21.8906 Q25.8906,22.1563 25.5156,22.1563 Q25.1719,22.1563 24.9688,21.9531 Q24.7656,21.7656 24.6563,21.25 Q24.6094,20.8906 24.4219,20.7031 Q24.0938,20.3281 23.4844,20.1094 Q22.875,19.8906 22.25,19.8906 Q21.4844,19.8906 20.8438,20.2188 Q20.2188,20.5469 19.7188,21.2969 Q19.2344,22.0469 19.2344,23.0781 L19.2344,24.1719 Q19.2344,25.4063 20.125,26.2344 Q21.0156,27.0469 22.6094,27.0469 Q23.5469,27.0469 24.2031,26.7969 Q24.5938,26.6406 25.0156,26.2031 Q25.2813,25.9375 25.4219,25.8594 Q25.5781,25.7813 25.7813,25.7813 Q26.1094,25.7813 26.3594,26.0469 Q26.625,26.2969 26.625,26.6406 Q26.625,26.9844 26.2813,27.3906 Q25.7813,27.9688 24.9844,28.2969 Q23.9063,28.75 22.6094,28.75 Q21.0938,28.75 19.8906,28.125 Q18.9063,27.625 18.2188,26.5625 Q17.5313,25.4844 17.5313,24.2031 L17.5313,23.0469 Q17.5313,21.7188 18.1406,20.5781 Q18.7656,19.4219 19.8594,18.8125 Q20.9531,18.1875 22.1875,18.1875 Q22.9219,18.1875 23.5625,18.3594 Q24.2188,18.5156 24.7656,18.875 Z " fill="#000000"/><text fill="#000000" font-family="sans-serif" font-size="14" lengthAdjust="spacing" textLength="66.1582" x="36" y="28.7285">ScadeOne</text><line style="stroke:#181818;stroke-width:0.5;" x1="8" x2="104.1582" y1="39" y2="39"/><line style="stroke:#181818;stroke-width:0.5;" x1="8" x2="104.1582" y1="47" y2="47"/></g><!--class Project--><g id="elem_Project"><rect fill="#F1F1F1" height="48" id="Project" rx="2.5" ry="2.5" style="stroke:#181818;stroke-width:0.5;" width="75.5723" x="18" y="116"/><ellipse cx="33" cy="132" fill="#ADD1B2" rx="11" ry="11" style="stroke:#181818;stroke-width:1.0;"/><path d="M35.7656,127.875 Q35.9219,127.6563 36.1094,127.5469 Q36.2969,127.4375 36.5156,127.4375 Q36.8906,127.4375 37.125,127.7031 Q37.3594,127.9531 37.3594,128.5625 L37.3594,130.0156 Q37.3594,130.625 37.125,130.8906 Q36.8906,131.1563 36.5156,131.1563 Q36.1719,131.1563 35.9688,130.9531 Q35.7656,130.7656 35.6563,130.25 Q35.6094,129.8906 35.4219,129.7031 Q35.0938,129.3281 34.4844,129.1094 Q33.875,128.8906 33.25,128.8906 Q32.4844,128.8906 31.8438,129.2188 Q31.2188,129.5469 30.7188,130.2969 Q30.2344,131.0469 30.2344,132.0781 L30.2344,133.1719 Q30.2344,134.4063 31.125,135.2344 Q32.0156,136.0469 33.6094,136.0469 Q34.5469,136.0469 35.2031,135.7969 Q35.5938,135.6406 36.0156,135.2031 Q36.2813,134.9375 36.4219,134.8594 Q36.5781,134.7813 36.7813,134.7813 Q37.1094,134.7813 37.3594,135.0469 Q37.625,135.2969 37.625,135.6406 Q37.625,135.9844 37.2813,136.3906 Q36.7813,136.9688 35.9844,137.2969 Q34.9063,137.75 33.6094,137.75 Q32.0938,137.75 30.8906,137.125 Q29.9063,136.625 29.2188,135.5625 Q28.5313,134.4844 28.5313,133.2031 L28.5313,132.0469 Q28.5313,130.7188 29.1406,129.5781 Q29.7656,128.4219 30.8594,127.8125 Q31.9531,127.1875 33.1875,127.1875 Q33.9219,127.1875 34.5625,127.3594 Q35.2188,127.5156 35.7656,127.875 Z " fill="#000000"/><text fill="#000000" font-family="sans-serif" font-size="14" lengthAdjust="spacing" textLength="43.5723" x="47" y="137.7285">Project</text><line style="stroke:#181818;stroke-width:0.5;" x1="19" x2="92.5723" y1="148" y2="148"/><line style="stroke:#181818;stroke-width:0.5;" x1="19" x2="92.5723" y1="156" y2="156"/></g><!--class Model--><g id="elem_Model"><rect fill="#F1F1F1" height="48" id="Model" rx="2.5" ry="2.5" style="stroke:#181818;stroke-width:0.5;" width="70.1309" x="21" y="225"/><ellipse cx="36" cy="241" fill="#ADD1B2" rx="11" ry="11" style="stroke:#181818;stroke-width:1.0;"/><path d="M38.7656,236.875 Q38.9219,236.6563 39.1094,236.5469 Q39.2969,236.4375 39.5156,236.4375 Q39.8906,236.4375 40.125,236.7031 Q40.3594,236.9531 40.3594,237.5625 L40.3594,239.0156 Q40.3594,239.625 40.125,239.8906 Q39.8906,240.1563 39.5156,240.1563 Q39.1719,240.1563 38.9688,239.9531 Q38.7656,239.7656 38.6563,239.25 Q38.6094,238.8906 38.4219,238.7031 Q38.0938,238.3281 37.4844,238.1094 Q36.875,237.8906 36.25,237.8906 Q35.4844,237.8906 34.8438,238.2188 Q34.2188,238.5469 33.7188,239.2969 Q33.2344,240.0469 33.2344,241.0781 L33.2344,242.1719 Q33.2344,243.4063 34.125,244.2344 Q35.0156,245.0469 36.6094,245.0469 Q37.5469,245.0469 38.2031,244.7969 Q38.5938,244.6406 39.0156,244.2031 Q39.2813,243.9375 39.4219,243.8594 Q39.5781,243.7813 39.7813,243.7813 Q40.1094,243.7813 40.3594,244.0469 Q40.625,244.2969 40.625,244.6406 Q40.625,244.9844 40.2813,245.3906 Q39.7813,245.9688 38.9844,246.2969 Q37.9063,246.75 36.6094,246.75 Q35.0938,246.75 33.8906,246.125 Q32.9063,245.625 32.2188,244.5625 Q31.5313,243.4844 31.5313,242.2031 L31.5313,241.0469 Q31.5313,239.7188 32.1406,238.5781 Q32.7656,237.4219 33.8594,236.8125 Q34.9531,236.1875 36.1875,236.1875 Q36.9219,236.1875 37.5625,236.3594 Q38.2188,236.5156 38.7656,236.875 Z " fill="#000000"/><text fill="#000000" font-family="sans-serif" font-size="14" lengthAdjust="spacing" textLength="38.1309" x="50" y="246.7285">Model</text><line style="stroke:#181818;stroke-width:0.5;" x1="22" x2="90.1309" y1="257" y2="257"/><line style="stroke:#181818;stroke-width:0.5;" x1="22" x2="90.1309" y1="265" y2="265"/></g><!--reverse link ScadeOne to Project--><g id="link_ScadeOne_Project"><path codeLine="1" d="M56,67.22 C56,85.16 56,97.89 56,115.83 " fill="none" id="ScadeOne-backto-Project" style="stroke:#181818;stroke-width:1.0;"/><polygon fill="#181818" points="56,55.22,52,61.22,56,67.22,60,61.22,56,55.22" style="stroke:#181818;stroke-width:1.0;"/><text fill="#000000" font-family="sans-serif" font-size="13" lengthAdjust="spacing" textLength="5.0591" x="50.4217" y="105.1266">*</text></g><!--reverse link Project to Project--><g id="link_Project_Project"><path codeLine="3" d="M106.2838,129.3269 C124.7038,128.1069 129,132.2 129,140 C129,147.8 112.73,151.1 94.31,149.88 " fill="none" id="Project-backto-Project" style="stroke:#181818;stroke-width:1.0;"/><polygon fill="#181818" points="94.31,130.12,100.5612,133.7147,106.2838,129.3269,100.0325,125.7322,94.31,130.12" style="stroke:#181818;stroke-width:1.0;"/><text fill="#000000" font-family="sans-serif" font-size="13" lengthAdjust="spacing" textLength="80.958" x="135" y="145.4951">dependencies</text><text fill="#000000" font-family="sans-serif" font-size="13" lengthAdjust="spacing" textLength="5.0591" x="101.6226" y="147.7413">*</text></g><!--reverse link Project to Model--><g id="link_Project_Model"><path codeLine="4" d="M56,176.22 C56,194.16 56,206.89 56,224.83 " fill="none" id="Project-backto-Model" style="stroke:#181818;stroke-width:1.0;"/><polygon fill="#181818" points="56,164.22,52,170.22,56,176.22,60,170.22,56,164.22" style="stroke:#181818;stroke-width:1.0;"/></g><!--SRC=[2qvEJ4drpqjLqDBLLL3IKb88AChFIaqkuUA2Cj0bh1HIKWjIyr9Iyv8pKujHLFdcfwJc0000]--></g></svg>