<svg xmlns="http://www.w3.org/2000/svg" xmlns:xlink="http://www.w3.org/1999/xlink" contentStyleType="text/css" height="170px" preserveAspectRatio="none" style="width:326px;height:170px;background:#FFFFFF;" version="1.1" viewBox="0 0 326 170" width="326px" zoomAndPan="magnify"><defs/><g><!--class Expression--><g id="elem_Expression"><rect fill="#F1F1F1" height="48" id="Expression" rx="2.5" ry="2.5" style="stroke:#181818;stroke-width:0.5;" width="101.2549" x="7" y="7"/><ellipse cx="22" cy="23" fill="#ADD1B2" rx="11" ry="11" style="stroke:#181818;stroke-width:1.0;"/><path d="M24.7656,18.875 Q24.9219,18.6563 25.1094,18.5469 Q25.2969,18.4375 25.5156,18.4375 Q25.8906,18.4375 26.125,18.7031 Q26.3594,18.9531 26.3594,19.5625 L26.3594,21.0156 Q26.3594,21.625 26.125,21.8906 Q25.8906,22.1563 25.5156,22.1563 Q25.1719,22.1563 24.9688,21.9531 Q24.7656,21.7656 24.6563,21.25 Q24.6094,20.8906 24.4219,20.7031 Q24.0938,20.3281 23.4844,20.1094 Q22.875,19.8906 22.25,19.8906 Q21.4844,19.8906 20.8438,20.2188 Q20.2188,20.5469 19.7188,21.2969 Q19.2344,22.0469 19.2344,23.0781 L19.2344,24.1719 Q19.2344,25.4063 20.125,26.2344 Q21.0156,27.0469 22.6094,27.0469 Q23.5469,27.0469 24.2031,26.7969 Q24.5938,26.6406 25.0156,26.2031 Q25.2813,25.9375 25.4219,25.8594 Q25.5781,25.7813 25.7813,25.7813 Q26.1094,25.7813 26.3594,26.0469 Q26.625,26.2969 26.625,26.6406 Q26.625,26.9844 26.2813,27.3906 Q25.7813,27.9688 24.9844,28.2969 Q23.9063,28.75 22.6094,28.75 Q21.0938,28.75 19.8906,28.125 Q18.9063,27.625 18.2188,26.5625 Q17.5313,25.4844 17.5313,24.2031 L17.5313,23.0469 Q17.5313,21.7188 18.1406,20.5781 Q18.7656,19.4219 19.8594,18.8125 Q20.9531,18.1875 22.1875,18.1875 Q22.9219,18.1875 23.5625,18.3594 Q24.2188,18.5156 24.7656,18.875 Z " fill="#000000"/><text fill="#000000" font-family="sans-serif" font-size="14" lengthAdjust="spacing" textLength="69.2549" x="36" y="28.7285">Expression</text><line style="stroke:#181818;stroke-width:0.5;" x1="8" x2="107.2549" y1="39" y2="39"/><line style="stroke:#181818;stroke-width:0.5;" x1="8" x2="107.2549" y1="47" y2="47"/></g><!--class Window--><g id="elem_Window"><rect fill="#F1F1F1" height="48" id="Window" rx="2.5" ry="2.5" style="stroke:#181818;stroke-width:0.5;" width="81.793" x="16.5" y="115"/><ellipse cx="31.5" cy="131" fill="#ADD1B2" rx="11" ry="11" style="stroke:#181818;stroke-width:1.0;"/><path d="M34.2656,126.875 Q34.4219,126.6563 34.6094,126.5469 Q34.7969,126.4375 35.0156,126.4375 Q35.3906,126.4375 35.625,126.7031 Q35.8594,126.9531 35.8594,127.5625 L35.8594,129.0156 Q35.8594,129.625 35.625,129.8906 Q35.3906,130.1563 35.0156,130.1563 Q34.6719,130.1563 34.4688,129.9531 Q34.2656,129.7656 34.1563,129.25 Q34.1094,128.8906 33.9219,128.7031 Q33.5938,128.3281 32.9844,128.1094 Q32.375,127.8906 31.75,127.8906 Q30.9844,127.8906 30.3438,128.2188 Q29.7188,128.5469 29.2188,129.2969 Q28.7344,130.0469 28.7344,131.0781 L28.7344,132.1719 Q28.7344,133.4063 29.625,134.2344 Q30.5156,135.0469 32.1094,135.0469 Q33.0469,135.0469 33.7031,134.7969 Q34.0938,134.6406 34.5156,134.2031 Q34.7813,133.9375 34.9219,133.8594 Q35.0781,133.7813 35.2813,133.7813 Q35.6094,133.7813 35.8594,134.0469 Q36.125,134.2969 36.125,134.6406 Q36.125,134.9844 35.7813,135.3906 Q35.2813,135.9688 34.4844,136.2969 Q33.4063,136.75 32.1094,136.75 Q30.5938,136.75 29.3906,136.125 Q28.4063,135.625 27.7188,134.5625 Q27.0313,133.4844 27.0313,132.2031 L27.0313,131.0469 Q27.0313,129.7188 27.6406,128.5781 Q28.2656,127.4219 29.3594,126.8125 Q30.4531,126.1875 31.6875,126.1875 Q32.4219,126.1875 33.0625,126.3594 Q33.7188,126.5156 34.2656,126.875 Z " fill="#000000"/><text fill="#000000" font-family="sans-serif" font-size="14" lengthAdjust="spacing" textLength="49.793" x="45.5" y="136.7285">Window</text><line style="stroke:#181818;stroke-width:0.5;" x1="17.5" x2="97.293" y1="147" y2="147"/><line style="stroke:#181818;stroke-width:0.5;" x1="17.5" x2="97.293" y1="155" y2="155"/></g><g id="elem_N2"><path d="M143.5,9.5 L143.5,52.2031 L319.8716,52.2031 L319.8716,19.5 L309.8716,9.5 L143.5,9.5 " fill="#FEFFDD" style="stroke:#181818;stroke-width:0.5;"/><path d="M309.8716,9.5 L309.8716,19.5 L319.8716,19.5 L309.8716,9.5 " fill="#FEFFDD" style="stroke:#181818;stroke-width:1.0;"/><text fill="#000000" font-family="sans-serif" font-size="13" font-weight="bold" lengthAdjust="spacing" textLength="20.23" x="149.5" y="27.9951">pre</text><text fill="#000000" font-family="sans-serif" font-size="13" lengthAdjust="spacing" textLength="111.6489" x="173.3418" y="27.9951">and -&gt; are cases of</text><text fill="#000000" font-family="sans-serif" font-size="13" lengthAdjust="spacing" textLength="155.3716" x="149.5" y="44.3467">unary and binary operators</text></g><!--reverse link Expression to Window--><g id="link_Expression_Window"><path codeLine="2" d="M57.5,73 C57.5,90.66 57.5,96.94 57.5,114.68 " fill="none" id="Expression-backto-Window" style="stroke:#181818;stroke-width:1.0;"/><polygon fill="none" points="57.5,55,51.5,73,63.5,73,57.5,55" style="stroke:#181818;stroke-width:1.0;"/></g><!--SRC=[7Oon2eD040Nx_OhN2GVNf9PqjZOfh3Uwme7icjsJHF3ZDNQFcU4rUCbd4ws55r3tMrqYYYdQ8sTWA3hPbzIgW0FzWrAwafJ0EY4_mIuOEIHWCstAlj_cNUvfgpXNyo2vuF-5JW00]--></g></svg>