<svg xmlns="http://www.w3.org/2000/svg" xmlns:xlink="http://www.w3.org/1999/xlink" contentStyleType="text/css" height="311px" preserveAspectRatio="none" style="width:538px;height:311px;background:#FFFFFF;" version="1.1" viewBox="0 0 538 311" width="538px" zoomAndPan="magnify"><defs/><g><!--class Expression--><g id="elem_Expression"><rect fill="#F1F1F1" height="48" id="Expression" rx="2.5" ry="2.5" style="stroke:#181818;stroke-width:0.5;" width="101.2549" x="7" y="132"/><ellipse cx="22" cy="148" fill="#ADD1B2" rx="11" ry="11" style="stroke:#181818;stroke-width:1.0;"/><path d="M24.7656,143.875 Q24.9219,143.6563 25.1094,143.5469 Q25.2969,143.4375 25.5156,143.4375 Q25.8906,143.4375 26.125,143.7031 Q26.3594,143.9531 26.3594,144.5625 L26.3594,146.0156 Q26.3594,146.625 26.125,146.8906 Q25.8906,147.1563 25.5156,147.1563 Q25.1719,147.1563 24.9688,146.9531 Q24.7656,146.7656 24.6563,146.25 Q24.6094,145.8906 24.4219,145.7031 Q24.0938,145.3281 23.4844,145.1094 Q22.875,144.8906 22.25,144.8906 Q21.4844,144.8906 20.8438,145.2188 Q20.2188,145.5469 19.7188,146.2969 Q19.2344,147.0469 19.2344,148.0781 L19.2344,149.1719 Q19.2344,150.4063 20.125,151.2344 Q21.0156,152.0469 22.6094,152.0469 Q23.5469,152.0469 24.2031,151.7969 Q24.5938,151.6406 25.0156,151.2031 Q25.2813,150.9375 25.4219,150.8594 Q25.5781,150.7813 25.7813,150.7813 Q26.1094,150.7813 26.3594,151.0469 Q26.625,151.2969 26.625,151.6406 Q26.625,151.9844 26.2813,152.3906 Q25.7813,152.9688 24.9844,153.2969 Q23.9063,153.75 22.6094,153.75 Q21.0938,153.75 19.8906,153.125 Q18.9063,152.625 18.2188,151.5625 Q17.5313,150.4844 17.5313,149.2031 L17.5313,148.0469 Q17.5313,146.7188 18.1406,145.5781 Q18.7656,144.4219 19.8594,143.8125 Q20.9531,143.1875 22.1875,143.1875 Q22.9219,143.1875 23.5625,143.3594 Q24.2188,143.5156 24.7656,143.875 Z " fill="#000000"/><text fill="#000000" font-family="sans-serif" font-size="14" lengthAdjust="spacing" textLength="69.2549" x="36" y="153.7285">Expression</text><line style="stroke:#181818;stroke-width:0.5;" x1="8" x2="107.2549" y1="164" y2="164"/><line style="stroke:#181818;stroke-width:0.5;" x1="8" x2="107.2549" y1="172" y2="172"/></g><polygon fill="none" points="108.2549,156,128.2549,149,128.2549,163" style="stroke:#181818;stroke-width:1.0;"/><line style="stroke:#181818;stroke-width:1.0;" x1="128.2549" x2="129.5" y1="156" y2="156"/><!--class StructConstructor--><g id="elem_StructConstructor"><rect fill="#F1F1F1" height="48" id="StructConstructor" rx="2.5" ry="2.5" style="stroke:#181818;stroke-width:0.5;" width="140.9238" x="188.5" y="7"/><ellipse cx="203.5" cy="23" fill="#ADD1B2" rx="11" ry="11" style="stroke:#181818;stroke-width:1.0;"/><path d="M206.2656,18.875 Q206.4219,18.6563 206.6094,18.5469 Q206.7969,18.4375 207.0156,18.4375 Q207.3906,18.4375 207.625,18.7031 Q207.8594,18.9531 207.8594,19.5625 L207.8594,21.0156 Q207.8594,21.625 207.625,21.8906 Q207.3906,22.1563 207.0156,22.1563 Q206.6719,22.1563 206.4688,21.9531 Q206.2656,21.7656 206.1563,21.25 Q206.1094,20.8906 205.9219,20.7031 Q205.5938,20.3281 204.9844,20.1094 Q204.375,19.8906 203.75,19.8906 Q202.9844,19.8906 202.3438,20.2188 Q201.7188,20.5469 201.2188,21.2969 Q200.7344,22.0469 200.7344,23.0781 L200.7344,24.1719 Q200.7344,25.4063 201.625,26.2344 Q202.5156,27.0469 204.1094,27.0469 Q205.0469,27.0469 205.7031,26.7969 Q206.0938,26.6406 206.5156,26.2031 Q206.7813,25.9375 206.9219,25.8594 Q207.0781,25.7813 207.2813,25.7813 Q207.6094,25.7813 207.8594,26.0469 Q208.125,26.2969 208.125,26.6406 Q208.125,26.9844 207.7813,27.3906 Q207.2813,27.9688 206.4844,28.2969 Q205.4063,28.75 204.1094,28.75 Q202.5938,28.75 201.3906,28.125 Q200.4063,27.625 199.7188,26.5625 Q199.0313,25.4844 199.0313,24.2031 L199.0313,23.0469 Q199.0313,21.7188 199.6406,20.5781 Q200.2656,19.4219 201.3594,18.8125 Q202.4531,18.1875 203.6875,18.1875 Q204.4219,18.1875 205.0625,18.3594 Q205.7188,18.5156 206.2656,18.875 Z " fill="#000000"/><text fill="#000000" font-family="sans-serif" font-size="14" lengthAdjust="spacing" textLength="108.9238" x="217.5" y="28.7285">StructConstructor</text><line style="stroke:#181818;stroke-width:0.5;" x1="189.5" x2="328.4238" y1="39" y2="39"/><line style="stroke:#181818;stroke-width:0.5;" x1="189.5" x2="328.4238" y1="47" y2="47"/></g><!--class StructProjection--><g id="elem_StructProjection"><rect fill="#F1F1F1" height="48" id="StructProjection" rx="2.5" ry="2.5" style="stroke:#181818;stroke-width:0.5;" width="130.8203" x="193.5" y="90"/><ellipse cx="208.5" cy="106" fill="#ADD1B2" rx="11" ry="11" style="stroke:#181818;stroke-width:1.0;"/><path d="M211.2656,101.875 Q211.4219,101.6563 211.6094,101.5469 Q211.7969,101.4375 212.0156,101.4375 Q212.3906,101.4375 212.625,101.7031 Q212.8594,101.9531 212.8594,102.5625 L212.8594,104.0156 Q212.8594,104.625 212.625,104.8906 Q212.3906,105.1563 212.0156,105.1563 Q211.6719,105.1563 211.4688,104.9531 Q211.2656,104.7656 211.1563,104.25 Q211.1094,103.8906 210.9219,103.7031 Q210.5938,103.3281 209.9844,103.1094 Q209.375,102.8906 208.75,102.8906 Q207.9844,102.8906 207.3438,103.2188 Q206.7188,103.5469 206.2188,104.2969 Q205.7344,105.0469 205.7344,106.0781 L205.7344,107.1719 Q205.7344,108.4063 206.625,109.2344 Q207.5156,110.0469 209.1094,110.0469 Q210.0469,110.0469 210.7031,109.7969 Q211.0938,109.6406 211.5156,109.2031 Q211.7813,108.9375 211.9219,108.8594 Q212.0781,108.7813 212.2813,108.7813 Q212.6094,108.7813 212.8594,109.0469 Q213.125,109.2969 213.125,109.6406 Q213.125,109.9844 212.7813,110.3906 Q212.2813,110.9688 211.4844,111.2969 Q210.4063,111.75 209.1094,111.75 Q207.5938,111.75 206.3906,111.125 Q205.4063,110.625 204.7188,109.5625 Q204.0313,108.4844 204.0313,107.2031 L204.0313,106.0469 Q204.0313,104.7188 204.6406,103.5781 Q205.2656,102.4219 206.3594,101.8125 Q207.4531,101.1875 208.6875,101.1875 Q209.4219,101.1875 210.0625,101.3594 Q210.7188,101.5156 211.2656,101.875 Z " fill="#000000"/><text fill="#000000" font-family="sans-serif" font-size="14" lengthAdjust="spacing" textLength="98.8203" x="222.5" y="111.7285">StructProjection</text><line style="stroke:#181818;stroke-width:0.5;" x1="194.5" x2="323.3203" y1="122" y2="122"/><line style="stroke:#181818;stroke-width:0.5;" x1="194.5" x2="323.3203" y1="130" y2="130"/></g><!--class StructDestructor--><g id="elem_StructDestructor"><rect fill="#F1F1F1" height="48" id="StructDestructor" rx="2.5" ry="2.5" style="stroke:#181818;stroke-width:0.5;" width="133.1377" x="192.5" y="173"/><ellipse cx="207.5" cy="189" fill="#ADD1B2" rx="11" ry="11" style="stroke:#181818;stroke-width:1.0;"/><path d="M210.2656,184.875 Q210.4219,184.6563 210.6094,184.5469 Q210.7969,184.4375 211.0156,184.4375 Q211.3906,184.4375 211.625,184.7031 Q211.8594,184.9531 211.8594,185.5625 L211.8594,187.0156 Q211.8594,187.625 211.625,187.8906 Q211.3906,188.1563 211.0156,188.1563 Q210.6719,188.1563 210.4688,187.9531 Q210.2656,187.7656 210.1563,187.25 Q210.1094,186.8906 209.9219,186.7031 Q209.5938,186.3281 208.9844,186.1094 Q208.375,185.8906 207.75,185.8906 Q206.9844,185.8906 206.3438,186.2188 Q205.7188,186.5469 205.2188,187.2969 Q204.7344,188.0469 204.7344,189.0781 L204.7344,190.1719 Q204.7344,191.4063 205.625,192.2344 Q206.5156,193.0469 208.1094,193.0469 Q209.0469,193.0469 209.7031,192.7969 Q210.0938,192.6406 210.5156,192.2031 Q210.7813,191.9375 210.9219,191.8594 Q211.0781,191.7813 211.2813,191.7813 Q211.6094,191.7813 211.8594,192.0469 Q212.125,192.2969 212.125,192.6406 Q212.125,192.9844 211.7813,193.3906 Q211.2813,193.9688 210.4844,194.2969 Q209.4063,194.75 208.1094,194.75 Q206.5938,194.75 205.3906,194.125 Q204.4063,193.625 203.7188,192.5625 Q203.0313,191.4844 203.0313,190.2031 L203.0313,189.0469 Q203.0313,187.7188 203.6406,186.5781 Q204.2656,185.4219 205.3594,184.8125 Q206.4531,184.1875 207.6875,184.1875 Q208.4219,184.1875 209.0625,184.3594 Q209.7188,184.5156 210.2656,184.875 Z " fill="#000000"/><text fill="#000000" font-family="sans-serif" font-size="14" lengthAdjust="spacing" textLength="101.1377" x="221.5" y="194.7285">StructDestructor</text><line style="stroke:#181818;stroke-width:0.5;" x1="193.5" x2="324.6377" y1="205" y2="205"/><line style="stroke:#181818;stroke-width:0.5;" x1="193.5" x2="324.6377" y1="213" y2="213"/></g><!--class FunctionalUpdate--><g id="elem_FunctionalUpdate"><rect fill="#F1F1F1" height="48" id="FunctionalUpdate" rx="2.5" ry="2.5" style="stroke:#181818;stroke-width:0.5;" width="141.7373" x="188" y="256"/><ellipse cx="203" cy="272" fill="#ADD1B2" rx="11" ry="11" style="stroke:#181818;stroke-width:1.0;"/><path d="M205.7656,267.875 Q205.9219,267.6563 206.1094,267.5469 Q206.2969,267.4375 206.5156,267.4375 Q206.8906,267.4375 207.125,267.7031 Q207.3594,267.9531 207.3594,268.5625 L207.3594,270.0156 Q207.3594,270.625 207.125,270.8906 Q206.8906,271.1563 206.5156,271.1563 Q206.1719,271.1563 205.9688,270.9531 Q205.7656,270.7656 205.6563,270.25 Q205.6094,269.8906 205.4219,269.7031 Q205.0938,269.3281 204.4844,269.1094 Q203.875,268.8906 203.25,268.8906 Q202.4844,268.8906 201.8438,269.2188 Q201.2188,269.5469 200.7188,270.2969 Q200.2344,271.0469 200.2344,272.0781 L200.2344,273.1719 Q200.2344,274.4063 201.125,275.2344 Q202.0156,276.0469 203.6094,276.0469 Q204.5469,276.0469 205.2031,275.7969 Q205.5938,275.6406 206.0156,275.2031 Q206.2813,274.9375 206.4219,274.8594 Q206.5781,274.7813 206.7813,274.7813 Q207.1094,274.7813 207.3594,275.0469 Q207.625,275.2969 207.625,275.6406 Q207.625,275.9844 207.2813,276.3906 Q206.7813,276.9688 205.9844,277.2969 Q204.9063,277.75 203.6094,277.75 Q202.0938,277.75 200.8906,277.125 Q199.9063,276.625 199.2188,275.5625 Q198.5313,274.4844 198.5313,273.2031 L198.5313,272.0469 Q198.5313,270.7188 199.1406,269.5781 Q199.7656,268.4219 200.8594,267.8125 Q201.9531,267.1875 203.1875,267.1875 Q203.9219,267.1875 204.5625,267.3594 Q205.2188,267.5156 205.7656,267.875 Z " fill="#000000"/><text fill="#000000" font-family="sans-serif" font-size="14" lengthAdjust="spacing" textLength="109.7373" x="217" y="277.7285">FunctionalUpdate</text><line style="stroke:#181818;stroke-width:0.5;" x1="189" x2="328.7373" y1="288" y2="288"/><line style="stroke:#181818;stroke-width:0.5;" x1="189" x2="328.7373" y1="296" y2="296"/></g><g id="elem_GMN11"><path d="M390,267 L390,276 L330.23,280 L390,284 L390,293.3516 A0,0 0 0 0 390,293.3516 L531.6753,293.3516 A0,0 0 0 0 531.6753,293.3516 L531.6753,277 L521.6753,267 L390,267 A0,0 0 0 0 390,267 " fill="#FEFFDD" style="stroke:#181818;stroke-width:0.5;"/><path d="M521.6753,267 L521.6753,277 L531.6753,277 L521.6753,267 " fill="#FEFFDD" style="stroke:#181818;stroke-width:0.5;"/><text fill="#000000" font-family="sans-serif" font-size="13" lengthAdjust="spacing" textLength="120.6753" x="396" y="285.4951">structure with update</text></g><!--reverse link Expression to StructConstructor--><g id="link_Expression_StructConstructor"><path codeLine="5" d="M129.5,156 C129.5,156 154.59,102.88 188,72 C194.72,65.79 202.54,60.08 210.47,55.03 " fill="none" id="Expression-backto-StructConstructor" style="stroke:#181818;stroke-width:1.0;"/></g><!--reverse link Expression to StructProjection--><g id="link_Expression_StructProjection"><path codeLine="6" d="M129.5,156 C129.5,156 161.37,145.58 193.37,135.12 " fill="none" id="Expression-backto-StructProjection" style="stroke:#181818;stroke-width:1.0;"/></g><!--reverse link Expression to StructDestructor--><g id="link_Expression_StructDestructor"><path codeLine="7" d="M129.5,156 C129.5,156 160.63,165.93 192.24,176.02 " fill="none" id="Expression-backto-StructDestructor" style="stroke:#181818;stroke-width:1.0;"/></g><!--reverse link Expression to FunctionalUpdate--><g id="link_Expression_FunctionalUpdate"><path codeLine="8" d="M129.5,156 C129.5,156 155.11,207.62 188,238 C195.08,244.54 203.34,250.57 211.65,255.9 " fill="none" id="Expression-backto-FunctionalUpdate" style="stroke:#181818;stroke-width:1.0;"/></g><!--SRC=[VO-x3i8m34NtViNTcBem8ZOU4XiIuWEYr3I14aUE8nZuU9e6c83DrZq-jW7CS539LhCGE98OzHnI0o1TV8X6p1MzS8wxu4Yycc09yv8FT58eGtpl59qNicMsATdc7eLI6bii7stxsh4QpLF1Wj_KNlXSLN-WDRrDtvXj3fF03CVO6QN215QgjowGFY_Vl3ha2Zq1]--></g></svg>